<?xml version="1.0" encoding="utf-8"?>
<!-- Generator: Adobe Illustrator 15.1.0, SVG Export Plug-In . SVG Version: 6.00 Build 0)  -->
<!DOCTYPE svg PUBLIC "-//W3C//DTD SVG 1.1//EN" "http://www.w3.org/Graphics/SVG/1.1/DTD/svg11.dtd">
<svg version="1.1" id="Layer_1" xmlns="http://www.w3.org/2000/svg" xmlns:xlink="http://www.w3.org/1999/xlink" x="0px" y="0px"
	 width="1024px" height="768px" viewBox="0 0 1024 768" enable-background="new 0 0 1024 768" xml:space="preserve">
<rect x="-6" y="-3" fill="#D7E7FB" width="1042" height="436"/>
<path fill="#AECEF4" d="M-23,746.528C-23,788.353-4.447,822,18.217,822h998.502c22.663,0,41.281-33.647,41.281-75.472V557.191
	c0-41.823-18.618-75.191-41.281-75.191H18.217C-4.447,482-23,515.368-23,557.191V746.528z"/>
<path fill="#8DC73F" d="M1038,482.319c0,11.083-4.874,20.681-11.951,20.681H5.989C-1.09,503-7,493.402-7,482.319v-30.104
	C-7,441.132-1.09,431,5.989,431h1020.06c7.077,0,11.951,10.132,11.951,21.215V482.319z"/>
<circle fill="#388A29" cx="52.541" cy="353.425" r="76.861"/>
<path fill="#306D23" d="M174.871,434c-17.824-33-52.654-55.252-92.705-55.252C42.114,378.748,7.283,401-10.541,434H174.871z"/>
<g>
	<path fill="#306D23" d="M963.397,114.774c0,15.69-13.324,28.413-29.761,28.413c-16.438,0-29.761-12.723-29.761-28.413
		c0-15.685,13.323-28.411,29.761-28.411C950.073,86.363,963.397,99.09,963.397,114.774z"/>
	<ellipse fill="#306D23" cx="820.253" cy="402.988" rx="29.762" ry="28.411"/>
	<path fill="#306D23" d="M869.216,351.662c0,15.692-13.322,28.413-29.76,28.413c-16.437,0-29.764-12.721-29.764-28.413
		c0-15.687,13.327-28.408,29.764-28.408C855.894,323.254,869.216,335.976,869.216,351.662z"/>
	<path fill="#306D23" d="M887.14,299.117c0,15.691-13.324,28.415-29.764,28.415c-16.438,0-29.76-12.724-29.76-28.415
		c0-15.688,13.322-28.409,29.76-28.409C873.815,270.708,887.14,283.429,887.14,299.117z"/>
	<ellipse fill="#306D23" cx="872.739" cy="247.792" rx="29.764" ry="28.412"/>
	<path fill="#306D23" d="M919.146,195.245c0,15.691-13.325,28.411-29.764,28.411c-16.436,0-29.764-12.72-29.764-28.411
		c0-15.686,13.328-28.405,29.764-28.405C905.82,166.84,919.146,179.56,919.146,195.245z"/>
	<ellipse fill="#306D23" cx="908.585" cy="142.702" rx="29.762" ry="28.409"/>
	<polygon fill="#306D23" points="930.259,98.891 1048.927,431 822.628,431 	"/>
	<path fill="#306D23" d="M964.259,117.791c0,15.454-12.529,27.987-27.984,27.987s-27.984-12.533-27.984-27.987
		c0-15.452,12.529-27.985,27.984-27.985S964.259,102.339,964.259,117.791z"/>
	<circle fill="#306D23" cx="829.661" cy="401.693" r="27.985"/>
	<path fill="#306D23" d="M875.7,351.135c0,15.457-12.527,27.988-27.983,27.988c-15.454,0-27.985-12.531-27.985-27.988
		c0-15.453,12.531-27.984,27.985-27.984C863.173,323.15,875.7,335.682,875.7,351.135z"/>
	<circle fill="#306D23" cx="864.569" cy="299.376" r="27.986"/>
	<circle fill="#306D23" cx="879.013" cy="248.818" r="27.986"/>
	<path fill="#306D23" d="M922.647,197.059c0,15.455-12.529,27.987-27.986,27.987c-15.455,0-27.984-12.532-27.984-27.987
		c0-15.453,12.529-27.983,27.984-27.983C910.118,169.075,922.647,181.605,922.647,197.059z"/>
	<circle fill="#306D23" cx="912.718" cy="145.302" r="27.984"/>
	<circle fill="#306D23" cx="1040.312" cy="402.896" r="27.986"/>
	<path fill="#306D23" d="M994.271,352.341c0,15.454,12.527,27.983,27.984,27.983s27.986-12.529,27.986-27.983
		c0-15.458-12.529-27.986-27.986-27.986S994.271,336.883,994.271,352.341z"/>
	<path fill="#306D23" d="M977.42,300.581c0,15.455,12.526,27.984,27.986,27.984c15.452,0,27.982-12.529,27.982-27.984
		c0-15.457-12.53-27.983-27.982-27.983C989.946,272.598,977.42,285.124,977.42,300.581z"/>
	<circle fill="#306D23" cx="990.958" cy="250.023" r="27.984"/>
	<path fill="#306D23" d="M947.326,198.266c0,15.453,12.528,27.982,27.985,27.982c15.453,0,27.984-12.529,27.984-27.982
		c0-15.457-12.531-27.985-27.984-27.985C959.854,170.28,947.326,182.809,947.326,198.266z"/>
	<circle fill="#306D23" cx="957.255" cy="146.502" r="27.985"/>
</g>
<g>
	<path fill="#388A29" d="M978.397,117.774c0,15.69-13.324,28.413-29.761,28.413c-16.438,0-29.761-12.723-29.761-28.413
		c0-15.685,13.323-28.411,29.761-28.411C965.073,89.363,978.397,102.09,978.397,117.774z"/>
	<ellipse fill="#388A29" cx="835.253" cy="405.988" rx="29.762" ry="28.411"/>
	<path fill="#388A29" d="M884.216,354.662c0,15.692-13.322,28.413-29.76,28.413c-16.437,0-29.764-12.721-29.764-28.413
		c0-15.687,13.327-28.408,29.764-28.408C870.894,326.254,884.216,338.976,884.216,354.662z"/>
	<path fill="#388A29" d="M902.14,302.117c0,15.691-13.324,28.415-29.764,28.415c-16.438,0-29.76-12.724-29.76-28.415
		c0-15.688,13.322-28.409,29.76-28.409C888.815,273.708,902.14,286.429,902.14,302.117z"/>
	<ellipse fill="#388A29" cx="887.739" cy="250.792" rx="29.764" ry="28.412"/>
	<path fill="#388A29" d="M934.146,198.245c0,15.691-13.325,28.411-29.764,28.411c-16.436,0-29.764-12.72-29.764-28.411
		c0-15.686,13.328-28.405,29.764-28.405C920.82,169.84,934.146,182.56,934.146,198.245z"/>
	<ellipse fill="#388A29" cx="923.585" cy="145.702" rx="29.762" ry="28.409"/>
	<polygon fill="#388A29" points="945.259,101.891 1063.927,434 837.628,434 	"/>
	<path fill="#388A29" d="M979.259,120.791c0,15.454-12.529,27.987-27.984,27.987s-27.984-12.533-27.984-27.987
		c0-15.452,12.529-27.985,27.984-27.985S979.259,105.339,979.259,120.791z"/>
	<circle fill="#388A29" cx="844.661" cy="404.693" r="27.985"/>
	<path fill="#388A29" d="M890.7,354.135c0,15.457-12.527,27.988-27.983,27.988c-15.454,0-27.985-12.531-27.985-27.988
		c0-15.453,12.531-27.984,27.985-27.984C878.173,326.15,890.7,338.682,890.7,354.135z"/>
	<circle fill="#388A29" cx="879.569" cy="302.376" r="27.986"/>
	<circle fill="#388A29" cx="894.013" cy="251.818" r="27.986"/>
	<path fill="#388A29" d="M937.647,200.059c0,15.455-12.529,27.987-27.986,27.987c-15.455,0-27.984-12.532-27.984-27.987
		c0-15.453,12.529-27.983,27.984-27.983C925.118,172.075,937.647,184.605,937.647,200.059z"/>
	<circle fill="#388A29" cx="927.718" cy="148.302" r="27.984"/>
	<circle fill="#388A29" cx="1055.312" cy="405.896" r="27.986"/>
	<path fill="#388A29" d="M1009.271,355.341c0,15.454,12.527,27.983,27.984,27.983s27.986-12.529,27.986-27.983
		c0-15.458-12.529-27.986-27.986-27.986S1009.271,339.883,1009.271,355.341z"/>
	<path fill="#388A29" d="M992.42,303.581c0,15.455,12.526,27.984,27.986,27.984c15.452,0,27.982-12.529,27.982-27.984
		c0-15.457-12.53-27.983-27.982-27.983C1004.946,275.598,992.42,288.124,992.42,303.581z"/>
	<circle fill="#388A29" cx="1005.958" cy="253.023" r="27.984"/>
	<path fill="#388A29" d="M962.326,201.266c0,15.453,12.528,27.982,27.985,27.982c15.453,0,27.984-12.529,27.984-27.982
		c0-15.457-12.531-27.985-27.984-27.985C974.854,173.28,962.326,185.809,962.326,201.266z"/>
	<circle fill="#388A29" cx="972.255" cy="149.502" r="27.985"/>
</g>
<rect x="-6" y="433" fill="#388A29" width="1040" height="10"/>
<g>
	<path fill="#8190FF" d="M504.48,475.43c-35.285,0-68.049-6.094-95.188-16.518c-10.543,27.238-17.252,59.004-17.252,59.004
		c21.062,15.254,68.999,5.812,83.525,5.086c14.527-0.727,13.074-18.158,13.074-22.518c0-3.479,5.578-6.951,17.067-7.471v-0.334
		c11.163,0.594,16.599,4.01,16.599,7.441c0,4.357-1.453,21.789,13.072,22.516c14.527,0.727,62.465,10.168,83.527-5.084
		c0,0-6.768-32.047-17.393-59.363C574.02,469.053,540.569,475.43,504.48,475.43z"/>
</g>
<g>
	<path fill="#FCC447" d="M589.146,430.924l-31.652-51.98l-52.256-0.201v0.367l-59.732,0.227l-26.545,59.049l0.295-1.672
		c-3.67,6.354-7.084,13.986-10.164,21.998c27.186,10.322,59.938,16.355,95.203,16.355c36.209,0,69.772-6.361,97.379-17.195
		c-3.543-9.158-7.521-17.809-11.82-24.568C588.762,431.586,588.73,430.988,589.146,430.924z"/>
</g>
<path fill="#FFDFD3" d="M451.801,428.492c0,0,0.512-1.131,1.08-2.033l-6.715-55.963l-4.838,2.645
	c-80.554,59.441-40.276,90.9-40.276,90.9C441.049,486.979,451.801,428.492,451.801,428.492z"/>
<path fill="#FFDFD3" d="M567.04,375.918l-12.89-5.227l10.678,63.875l-0.928,0.154c3.995,10.844,21.356,50.66,53.593,26.865
	C617.493,461.586,653.888,425.707,567.04,375.918z"/>
<path fill="#2D3551" d="M494.493,231.386"/>
<ellipse fill="#FFDFD3" cx="503.212" cy="315.613" rx="88.247" ry="66.793"/>
<path d="M465.484,323.588c0,5.637-4.57,10.209-10.209,10.209c-5.637,0-10.208-4.572-10.208-10.209
	c0-5.643,4.571-10.213,10.208-10.213C460.914,313.375,465.484,317.945,465.484,323.588z"/>
<path d="M564.625,322.494c0,5.641-4.571,10.213-10.208,10.213c-5.642,0-10.21-4.572-10.21-10.213c0-5.639,4.568-10.209,10.21-10.209
	C560.054,312.285,564.625,316.855,564.625,322.494z"/>
<path fill="#FF6260" d="M609.803,323.422l-0.014-1.084c-24.201,24.191-62.203,39.785-104.943,39.785
	c-41.984,0-79.398-15.047-103.65-38.51c-20.055,11.746-18.154,32.494-18.154,32.494c0.986,10.479,5.539,17.859,10.271,22.826
	c-2.825,3.756-4.494,8.355-4.494,13.33c0,12.637,10.73,22.879,23.968,22.879c0.837,0,1.663-0.041,2.478-0.121
	c12.341,31.705,44.247,24.746,58.895,19.553c5.236,7.807,17.002,13.252,30.688,13.252c13.963,0,25.932-5.664,31.004-13.725
	c13.242,4.932,44.062,12.744,58.064-14.324c10.543-0.947,20.416-8.51,24.519-19.98c2.61-7.297,2.406-14.85-0.026-21.291
	c4.583-4.961,8.906-12.221,9.864-22.398C628.271,356.107,630.2,335.135,609.803,323.422z"/>
<circle fill="#FFDFD3" cx="408.429" cy="317.453" r="13.618"/>
<circle fill="#FFDFD3" cx="600.174" cy="320.723" r="13.619"/>
<path fill="#FF6260" d="M430.149,346.801c0,3.949-4.358,7.15-9.737,7.15l0,0c-5.378,0-9.736-3.201-9.736-7.15v-54.336
	c0-3.949,4.358-7.15,9.736-7.15l0,0c5.379,0,9.737,3.201,9.737,7.15V346.801z"/>
<path fill="#FF6260" d="M600.106,349.525c0,3.949-4.603,7.148-10.282,7.148l0,0c-5.68,0-10.281-3.199-10.281-7.148v-54.338
	c0-3.949,4.602-7.148,10.281-7.148l0,0c5.68,0,10.282,3.199,10.282,7.148V349.525z"/>
<path fill="#FF6260" d="M508.113,240.102c-41.681,0-77.92,7.417-96.416,18.33v33.066c18.496,10.914,54.735,18.33,96.416,18.33
	c38.622,0,72.568-6.367,92.061-15.984v-37.757C580.682,246.469,546.735,240.102,508.113,240.102z"/>
<ellipse fill="#FFC556" cx="503.03" cy="240.648" rx="92.06" ry="51.75"/>
<path fill="#FFC556" d="M427.312,211.232c0,0-21.789,20.155-22.879,44.124c-1.09,23.968,28.326,7.626,28.326,7.626L427.312,211.232z
	"/>
<path fill="#FFC556" d="M581.986,213.412c0,0,21.789,20.154,22.879,44.123c1.09,23.968-28.326,7.626-28.326,7.626L581.986,213.412z"
	/>
<ellipse fill="#F9A715" cx="501.734" cy="187.902" rx="20.426" ry="19.608"/>
<path fill="#F9A715" d="M613.078,279.871c0,7.219-6.369,13.073-14.223,13.073h-187.27c-7.854,0-14.223-5.854-14.223-13.073v-11.984
	c0-7.22,6.369-13.073,14.223-13.073h187.27c7.854,0,14.223,5.854,14.223,13.073V279.871z"/>
<path fill="#EA534C" d="M570.439,348.066c-5.666,3.107-18.832,2.744-35.472-9.143c-15.759-11.256-27.415,1.76-28.604,3.168
	c-0.607-0.74-12.474-14.836-28.682-3.258c-16.639,11.885-29.803,12.25-35.473,9.143c-5.67-3.109-3.289,1.645-3.289,1.645
	c2.375,10.971,15.541,19.748,15.541,19.748c20.076,9.688,49.654,1.051,51.801,0.404v0.053c0,0,31.082,9.691,51.929-0.365
	c0,0,13.164-8.777,15.542-19.748C573.732,349.713,576.108,344.959,570.439,348.066z"/>
<path fill="#FCD1C3" d="M586.529,465.797c0,0,1.916-0.574,3.838-1.791c2.193-1.387,4.391-3.611,3.76-6.777
	c-1.187-5.941,7.344-17.322,16.814-10.793c9.475,6.533-13.126,18.018-16.182,17.475c-1.287-0.227-2.005,1.127-3.225,1.994
	c-1.666,1.191-0.391,1.549-0.391,1.549L586.529,465.797z"/>
<path fill="#FCD1C3" d="M436.958,458.938c0,0-1.337,0.547-3.386-0.441c-2.336-1.127-4.775-3.084-4.512-6.301
	c0.495-6.037-9.285-16.363-17.945-8.789c-8.66,7.576,15.109,16.389,18.082,15.5c1.255-0.375,2.123,0.887,3.432,1.611
	c1.795,0.99,0.566,1.492,0.566,1.492L436.958,458.938z"/>
<g>
	<path fill="#EA534C" d="M609.246,323.062l-0.002-0.18c-0.566,0.568-1.148,1.125-1.732,1.682
		C608.1,324.07,608.672,323.566,609.246,323.062z"/>
	<path fill="#EA534C" d="M509.749,443.469c-13.687,0-25.452-5.445-30.688-13.252c-14.646,5.193-46.553,12.15-58.894-19.553
		c-0.815,0.08-1.642,0.121-2.478,0.121c-13.238,0-23.969-10.244-23.969-22.879c0-4.975,1.67-9.574,4.494-13.33
		c-4.731-4.967-9.285-12.35-10.271-22.826c0,0-1.258-13.783,9.133-25.24c-16.243,11.957-14.58,30.143-14.58,30.143
		c0.986,10.479,5.54,17.859,10.271,22.826c-2.826,3.756-4.494,8.355-4.494,13.33c0,12.635,10.73,22.879,23.969,22.879
		c0.836,0,1.662-0.041,2.478-0.121c12.341,31.705,44.247,24.746,58.894,19.553c5.236,7.807,17.002,13.252,30.688,13.252
		c12.722,0,23.771-4.711,29.473-11.643C527.675,440.883,519.17,443.469,509.749,443.469z"/>
	<path fill="#EA534C" d="M598.816,415.418c-0.838,1.619-1.738,3.105-2.689,4.484c5.939-1.193,11.504-4.471,15.758-9.33
		C607.945,413.311,603.445,415.004,598.816,415.418z"/>
	<path fill="#EA534C" d="M540.752,429.744c-1.184,1.879-2.756,3.621-4.625,5.201c12.048,4.352,36.717,10.277,51.783-6.627
		C572.48,439.277,551.175,433.625,540.752,429.744z"/>
</g>
<ellipse fill="#6373C1" cx="569.126" cy="512.943" rx="49.026" ry="16.76"/>
<path fill="#6373C1" d="M490.686,511.217c0,10.641-22.194,19.268-49.572,19.268c-27.376,0-49.57-8.627-49.57-19.268
	c0-10.646,22.194-19.271,49.57-19.271C468.491,491.945,490.686,500.57,490.686,511.217z"/>
<rect x="2377" y="-6" fill="#F5F5F5" width="150" height="831"/>
</svg>
