<?xml version="1.0" encoding="utf-8"?>
<!-- Generator: Adobe Illustrator 15.1.0, SVG Export Plug-In . SVG Version: 6.00 Build 0)  -->
<!DOCTYPE svg PUBLIC "-//W3C//DTD SVG 1.1//EN" "http://www.w3.org/Graphics/SVG/1.1/DTD/svg11.dtd">
<svg version="1.1" id="Layer_1" xmlns="http://www.w3.org/2000/svg" xmlns:xlink="http://www.w3.org/1999/xlink" x="0px" y="0px"
	 width="344px" height="548px" viewBox="0 0 344 548" enable-background="new 0 0 344 548" xml:space="preserve">
<ellipse transform="matrix(0.0074 -1 1 0.0074 -136.4731 477.3353)" fill="#AECEF4" cx="172.204" cy="307.411" rx="239.75" ry="171.139"/>
<path fill="#AECEF4" d="M237,78.143C237,85.244,231.636,91,224.402,91h-99.307C117.863,91,112,85.244,112,78.143V13.857
	C112,6.757,117.863,1,125.096,1h99.308C231.636,1,237,6.757,237,13.857V78.143z"/>
<path fill="#FCC447" d="M221,77c0,6.627-5.373,12-12,12h-72c-6.627,0-12-5.373-12-12V29c0-6.627,5.373-12,12-12h72
	c6.627,0,12,5.373,12,12V77z"/>
<path fill="#935227" d="M328.54,308.33c-0.854,123.906-72.058,223.791-159.038,223.099C82.521,530.736,12.7,429.729,13.555,305.82
	C14.407,181.916,85.611,82.031,172.592,82.724C259.572,83.416,329.393,184.423,328.54,308.33z"/>
<path fill="#AB652D" d="M318.283,284.604c-0.734,106.605-66.805,192.504-147.569,191.859
	C89.947,475.82,25.068,388.879,25.803,282.273C26.537,175.669,92.607,89.77,173.372,90.413
	C254.139,91.057,319.018,177.998,318.283,284.604z"/>
<path fill="#935227" d="M184,83.864c0,3.389-2.748,6.136-6.137,6.136h-12.728c-3.389,0-6.137-2.747-6.137-6.136V68.136
	c0-3.389,2.748-6.136,6.137-6.136h12.728c3.389,0,6.137,2.747,6.137,6.136V83.864z"/>
<ellipse fill="#D58C4F" cx="172.49" cy="295.74" rx="118.132" ry="177.377"/>
<rect x="26" y="274" fill="#935227" width="294" height="78"/>
<polygon fill="#935227" points="293,166 51,164 74.255,131.307 271.842,134.629 "/>
<path fill="#7C4323" d="M187,523.828c0,3.645-2.748,6.172-6.137,6.172h-18.728c-3.389,0-6.137-2.527-6.137-6.172v-61.01
	c0-3.646,2.748-6.818,6.137-6.818h18.728c3.389,0,6.137,3.173,6.137,6.818V523.828z"/>
<path fill="none" d="M184.053,505.01c0,0,47.299-1.49,71.096-37.885"/>
<text transform="matrix(0.9606 -0.2779 0.2779 0.9606 198.8369 503.2295)" fill="#FFDFD3" font-family="'HelveticaNeue'" font-size="18.4083">M</text>
<text transform="matrix(0.9606 -0.2779 0.2779 0.9606 215.3154 498.2441)" fill="#FFDFD3" font-family="'HelveticaNeue'" font-size="18.4083">A</text>
<text transform="matrix(0.9606 -0.2779 0.2779 0.9606 227.2637 492.7715)" fill="#FFDFD3" font-family="'HelveticaNeue'" font-size="18.4083">R</text>
<text transform="matrix(0.9606 -0.2779 0.2779 0.9606 238.5088 485.168)" fill="#FFDFD3" font-family="'HelveticaNeue'" font-size="18.4083">I</text>
<text transform="matrix(0.9606 -0.2779 0.2779 0.9606 243.0713 481.5967)" fill="#FFDFD3" font-family="'HelveticaNeue'" font-size="18.4083">A</text>
<rect x="257.938" y="445.766" fill="none" width="1.023" height="8.183"/>
<path fill="none" d="M82.715,462.27c0,0,24.928,40.224,68.346,42.644"/>
<text transform="matrix(0.7068 0.7074 -0.7074 0.7068 91.6191 473.9629)" fill="#FFDFD3" font-family="'HelveticaNeue'" font-size="18.4083">S</text>
<text transform="matrix(0.7068 0.7074 -0.7074 0.7068 100.7891 483.0742)" fill="#FFDFD3" font-family="'HelveticaNeue'" font-size="18.4083">A</text>
<text transform="matrix(0.7068 0.7074 -0.7074 0.7068 111.1279 491.1777)" fill="#FFDFD3" font-family="'HelveticaNeue'" font-size="18.4083">N</text>
<text transform="matrix(0.7068 0.7074 -0.7074 0.7068 123.876 498.2773)" fill="#FFDFD3" font-family="'HelveticaNeue'" font-size="18.4083">T</text>
<text transform="matrix(0.7068 0.7074 -0.7074 0.7068 135.0801 502.4736)" fill="#FFDFD3" font-family="'HelveticaNeue'" font-size="18.4083">A</text>
<path fill="#FCC447" d="M151,98.25c0,2.071-1.679,3.75-3.75,3.75h-0.5c-2.071,0-3.75-1.679-3.75-3.75v-14.5
	c0-2.071,1.679-3.75,3.75-3.75h0.5c2.071,0,3.75,1.679,3.75,3.75V98.25z"/>
<path fill="#FCC447" d="M259,53c0,3.313-2.688,6-6,6h-45c-3.312,0-6-2.686-6-6l0,0c0-3.313,2.688-6,6-6h45
	C256.312,47,259,49.686,259,53L259,53z"/>
<g>
	<g>
		<path fill="#8190FF" d="M167.313,347.121c-21.113,0-40.718-3.646-56.956-9.883c-6.309,16.298-10.323,35.306-10.323,35.306
			c12.604,9.126,41.286,3.479,49.978,3.042c8.691-0.435,7.822-10.864,7.822-13.472c0-2.083,3.339-4.159,10.214-4.473v-0.198
			c6.679,0.354,9.933,2.399,9.933,4.453c0,2.605-0.871,13.036,7.82,13.473c8.691,0.435,37.377,6.084,49.979-3.043
			c0,0-4.049-19.175-10.407-35.521C208.921,343.307,188.906,347.121,167.313,347.121z"/>
	</g>
	<g>
		<path fill="#FCC447" d="M217.973,320.492l-18.938-31.104l-31.267-0.119v0.219l-35.741,0.137l-15.884,35.332l0.177-1.001
			c-2.195,3.802-4.238,8.368-6.082,13.163c16.267,6.176,35.863,9.785,56.965,9.785c21.666,0,41.748-3.807,58.266-10.289
			c-2.118-5.479-4.499-10.655-7.071-14.699C217.743,320.889,217.725,320.53,217.973,320.492z"/>
	</g>
	<path fill="#FFDFD3" d="M135.792,319.037c0,0,0.306-0.676,0.646-1.217l-4.02-33.484l-2.894,1.582
		c-48.198,35.566-24.099,54.389-24.099,54.389C129.358,354.033,135.792,319.037,135.792,319.037z"/>
	<path fill="#FFDFD3" d="M204.744,287.579l-7.713-3.127l6.391,38.22l-0.556,0.092c2.392,6.488,12.778,30.312,32.065,16.075
		C234.934,338.839,256.71,317.371,204.744,287.579z"/>
	<path fill="#2D3551" d="M161.336,201.1"/>
	<ellipse fill="#FFDFD3" cx="166.553" cy="251.496" rx="52.803" ry="39.966"/>
	<circle cx="137.871" cy="256.268" r="6.109"/>
	<circle cx="197.191" cy="255.613" r="6.108"/>
	<path fill="#FF6260" d="M230.332,256.169l-0.008-0.648c-14.481,14.476-37.221,23.806-62.794,23.806
		c-25.12,0-47.507-9.004-62.02-23.043c-11.998,7.027-10.86,19.442-10.86,19.442c0.589,6.271,3.313,10.687,6.146,13.658
		c-1.69,2.246-2.689,5-2.689,7.977c0,7.561,6.421,13.688,14.341,13.688c0.502,0,0.995-0.024,1.482-0.072
		c7.384,18.971,26.476,14.809,35.24,11.698c3.133,4.672,10.171,7.931,18.36,7.931c8.355,0,15.517-3.391,18.552-8.214
		c7.923,2.951,26.363,7.627,34.743-8.569c6.308-0.565,12.214-5.093,14.67-11.955c1.562-4.365,1.44-8.886-0.017-12.739
		c2.741-2.968,5.33-7.312,5.902-13.4C241.382,275.727,242.535,263.178,230.332,256.169z"/>
	<circle fill="#FFDFD3" cx="109.84" cy="252.598" r="8.148"/>
	<circle fill="#FFDFD3" cx="224.57" cy="254.554" r="8.148"/>
	<path fill="#FF6260" d="M122.837,270.158c0,2.363-2.607,4.277-5.827,4.277l0,0c-3.217,0-5.825-1.914-5.825-4.277v-32.514
		c0-2.363,2.608-4.277,5.825-4.277l0,0c3.22,0,5.827,1.914,5.827,4.277V270.158z"/>
	<path fill="#FF6260" d="M224.529,271.787c0,2.363-2.754,4.277-6.152,4.277l0,0c-3.396,0-6.15-1.915-6.15-4.277v-32.512
		c0-2.363,2.754-4.278,6.15-4.278l0,0c3.398,0,6.152,1.915,6.152,4.278V271.787z"/>
	<path fill="#FF6260" d="M169.486,206.315c-24.939,0-46.623,4.438-57.69,10.967v19.784c11.067,6.531,32.751,10.968,57.69,10.968
		c23.109,0,43.421-3.81,55.084-9.563v-22.592C212.907,210.125,192.596,206.315,169.486,206.315z"/>
	<ellipse fill="#FFC556" cx="166.444" cy="206.642" rx="55.083" ry="30.965"/>
	<path fill="#FFC556" d="M121.139,189.041c0,0-13.037,12.059-13.688,26.402c-0.653,14.341,16.949,4.562,16.949,4.562
		L121.139,189.041z"/>
	<path fill="#FFC556" d="M213.688,190.344c0,0,13.037,12.06,13.69,26.402c0.651,14.34-16.948,4.562-16.948,4.562L213.688,190.344z"
		/>
	<ellipse fill="#F9A715" cx="165.669" cy="175.081" rx="12.222" ry="11.732"/>
	<path fill="#F9A715" d="M232.29,230.109c0,4.32-3.81,7.822-8.511,7.822h-112.05c-4.697,0-8.51-3.502-8.51-7.822v-7.17
		c0-4.32,3.812-7.822,8.51-7.822h112.05c4.701,0,8.511,3.502,8.511,7.822V230.109z"/>
	<path fill="#EA534C" d="M206.777,270.915c-3.389,1.858-11.268,1.642-21.223-5.47c-9.43-6.736-16.405,1.051-17.117,1.895
		c-0.363-0.443-7.463-8.877-17.161-1.949c-9.955,7.111-17.832,7.33-21.224,5.471c-3.393-1.861-1.97,0.983-1.97,0.983
		c1.422,6.564,9.3,11.817,9.3,11.817c12.012,5.795,29.71,0.628,30.993,0.24v0.031c0,0,18.601,5.801,31.073-0.219
		c0,0,7.876-5.251,9.299-11.815C208.749,271.9,210.171,269.055,206.777,270.915z"/>
	<path fill="#FCD1C3" d="M216.404,341.357c0,0,1.147-0.343,2.298-1.07c1.312-0.83,2.627-2.162,2.251-4.055
		c-0.711-3.558,4.393-10.365,10.061-6.459c5.67,3.908-7.854,10.779-9.684,10.457c-0.77-0.138-1.199,0.674-1.93,1.19
		c-0.996,0.714-0.233,0.928-0.233,0.928L216.404,341.357z"/>
	<path fill="#FCD1C3" d="M126.91,337.254c0,0-0.8,0.328-2.025-0.264c-1.398-0.675-2.858-1.847-2.699-3.771
		c0.296-3.612-5.557-9.791-10.738-5.26c-5.181,4.533,9.042,9.807,10.821,9.275c0.75-0.226,1.27,0.528,2.053,0.964
		c1.073,0.592,0.338,0.892,0.338,0.892L126.91,337.254z"/>
	<g>
		<path fill="#EA534C" d="M229.998,255.953l-0.001-0.106c-0.339,0.339-0.688,0.673-1.037,1.006
			C229.312,256.557,229.654,256.254,229.998,255.953z"/>
		<path fill="#EA534C" d="M170.465,327.998c-8.189,0-15.229-3.258-18.363-7.929c-8.764,3.105-27.854,7.27-35.238-11.7
			c-0.488,0.049-0.982,0.072-1.481,0.072c-7.921,0-14.343-6.129-14.343-13.688c0-2.978,1-5.729,2.69-7.976
			c-2.832-2.973-5.557-7.391-6.146-13.658c0,0-0.752-8.248,5.465-15.104c-9.72,7.155-8.725,18.037-8.725,18.037
			c0.59,6.271,3.315,10.687,6.146,13.658c-1.69,2.246-2.688,4.998-2.688,7.976c0,7.561,6.42,13.689,14.341,13.689
			c0.5,0,0.994-0.025,1.481-0.072c7.385,18.971,26.476,14.807,35.24,11.699c3.132,4.671,10.172,7.929,18.361,7.929
			c7.611,0,14.225-2.817,17.635-6.967C181.191,326.451,176.102,327.998,170.465,327.998z"/>
		<path fill="#EA534C" d="M223.758,311.215c-0.5,0.969-1.04,1.858-1.607,2.684c3.554-0.715,6.883-2.676,9.429-5.582
			C229.221,309.953,226.527,310.967,223.758,311.215z"/>
		<path fill="#EA534C" d="M189.016,319.786c-0.709,1.125-1.648,2.167-2.768,3.112c7.209,2.604,21.969,6.147,30.984-3.966
			C208,325.49,195.252,322.108,189.016,319.786z"/>
	</g>
	<ellipse fill="#6373C1" cx="205.993" cy="369.568" rx="29.335" ry="10.029"/>
	<path fill="#6373C1" d="M159.059,368.535c0,6.367-13.28,11.527-29.661,11.527c-16.38,0-29.661-5.16-29.661-11.527
		c0-6.37,13.281-11.531,29.661-11.531S159.059,362.165,159.059,368.535z"/>
</g>
<path fill="#7C4323" d="M170.656,289.041c-26.531,0-48.04,21.508-48.04,48.04s21.509,48.04,48.04,48.04s48.041-21.508,48.041-48.04
	S197.188,289.041,170.656,289.041z M170.692,372.959c-19.834,0-35.913-16.08-35.913-35.914s16.079-35.913,35.913-35.913
	c19.833,0,35.914,16.079,35.914,35.913S190.525,372.959,170.692,372.959z"/>
<rect x="165" y="331" fill="#7C4323" width="10" height="46"/>
<rect x="182.928" y="298.287" transform="matrix(0.5771 0.8167 -0.8167 0.5771 341.8857 -17.45)" fill="#7C4323" width="9.729" height="46.215"/>
<rect x="148.076" y="297.445" transform="matrix(-0.6399 0.7684 -0.7684 -0.6399 497.1387 408.1618)" fill="#7C4323" width="9.731" height="46.219"/>
<path fill="#7C4323" d="M178,423.5c0,4.143-3.357,7.5-7.499,7.5h-0.002c-4.142,0-7.499-3.357-7.499-7.5v-37
	c0-4.143,3.357-7.5,7.499-7.5h0.002c4.142,0,7.499,3.357,7.499,7.5V423.5z"/>
<path fill="#7C4323" d="M187,428.5c0,3.59-2.91,6.5-6.5,6.5h-20c-3.59,0-6.5-2.91-6.5-6.5l0,0c0-3.59,2.91-6.5,6.5-6.5h20
	C184.09,422,187,424.91,187,428.5L187,428.5z"/>
<g>
	<path fill="#FCC447" d="M245.277,160.131c0,2.811-2.301,5.09-5.141,5.09H188.45c-2.839,0-5.142-2.279-5.142-5.09V83.212
		c0-2.811,2.303-5.09,5.142-5.09h51.687c2.84,0,5.141,2.279,5.141,5.09V160.131z"/>
	<path fill="#FFF3DE" d="M239.709,120.099c0,2.919-2.382,5.287-5.32,5.287h-39.617c-2.938,0-5.32-2.368-5.32-5.287V89.551
		c0-2.92,2.383-5.288,5.32-5.288h39.617c2.938,0,5.32,2.367,5.32,5.288V120.099z"/>
	<path fill="#F4A019" d="M213.58,130.382c0,0.705-0.739,1.277-1.652,1.277h-19.826c-0.912,0-1.651-0.572-1.651-1.277l0,0
		c0-0.705,0.739-1.276,1.651-1.276h19.826C212.841,129.106,213.58,129.677,213.58,130.382L213.58,130.382z"/>
	<path fill="#F4A019" d="M233.163,147.897c0,0,3.313,0.449,3.229,3.93C236.393,151.827,233.247,151.658,233.163,147.897z"/>
	<path fill="#F4A019" d="M237.973,156.628l3.291-3.292c-0.029-0.037-0.061-0.073-0.093-0.106c-1.044-1.078-1.481-1.246-2.964-1.212
		c0,0-1.012,0.186-1.549,0.522c-0.54,0.337-1.18-0.118-1.18-0.118s-1.127-0.673-2.508-0.27c0,0-2.729,0.809-2.291,4.85
		c0,0,0.641,3.839,2.829,4.849c0,0,0.707,0.304,1.179,0.102c0.472-0.203,1.819-0.927,3.453-0.017c0,0,1.228,0.286,1.901-0.741
		c0,0,0.576-0.695,1.024-1.471L237.973,156.628z"/>
</g>
<path fill="#F9A715" d="M221.332,77c0,0.552-0.479,1-1.066,1h-35.199c-0.588,0-1.065-0.448-1.065-1l0,0c0-0.552,0.478-1,1.065-1
	h35.199C220.854,76,221.332,76.448,221.332,77L221.332,77z"/>
<text transform="matrix(1 0 0 1 132.999 26.6494)" fill="#F4A019" font-family="'MyriadPro-Regular'" font-size="7.4002">Flo.Cie</text>
<circle fill="#F4A019" cx="199.994" cy="97.362" r="3.027"/>
<ellipse fill="#FCC447" cx="201.108" cy="97.681" rx="1.275" ry="1.195"/>
<circle fill="#F4A019" cx="231.863" cy="98" r="3.028"/>
<ellipse fill="#FCC447" cx="231.226" cy="98" rx="1.274" ry="1.194"/>
<path fill="none" stroke="#F9A715" stroke-width="1.1282" stroke-miterlimit="10" d="M209.431,101.429c0,0,6.957,6.005,14.479-0.2"
	/>
</svg>
