<?xml version="1.0" encoding="utf-8"?>
<!-- Generator: Adobe Illustrator 15.1.0, SVG Export Plug-In . SVG Version: 6.00 Build 0)  -->
<!DOCTYPE svg PUBLIC "-//W3C//DTD SVG 1.1//EN" "http://www.w3.org/Graphics/SVG/1.1/DTD/svg11.dtd">
<svg version="1.1" id="Layer_1" xmlns="http://www.w3.org/2000/svg" xmlns:xlink="http://www.w3.org/1999/xlink" x="0px" y="0px"
	 width="1024px" height="768px" viewBox="0 0 1024 768" enable-background="new 0 0 1024 768" xml:space="preserve">
<rect x="-96.999" y="-281.014" fill="#00233D" width="1219" height="914"/>
<path fill="#8DC73F" d="M1101,735.401c0,18.789-5.992,33.599-13.742,33.599H-87.951C-95.7,769-102,754.189-102,735.401V622.015
	c0-18.786,6.3-34.025,14.049-34.025h1175.208c7.75,0,13.742,15.239,13.742,34.025L1101,735.401L1101,735.401z"/>
<path fill="#FCC447" d="M667.876,593.658c0,14.273-11.683,25.848-26.106,25.848H379.281c-14.417,0-26.104-11.573-26.104-25.848
	V203.036c0-14.274,11.686-25.849,26.104-25.849H641.77c14.425,0,26.106,11.574,26.106,25.849V593.658z"/>
<path fill="#FFF3DE" d="M642.616,384.356c0,14.828-12.097,26.85-27.024,26.85H414.404c-14.925,0-27.025-12.021-27.025-26.85V229.224
	c0-14.833,12.102-26.854,27.025-26.854h201.187c14.929,0,27.024,12.021,27.024,26.854L642.616,384.356L642.616,384.356z"/>
<path fill="#F4A019" d="M506.902,442.582c0,3.582-3.756,6.483-8.394,6.483H397.822c-4.632,0-8.39-2.901-8.39-6.483l0,0
	c0-3.579,3.758-6.479,8.39-6.479H498.51C503.146,436.104,506.902,439.003,506.902,442.582L506.902,442.582z"/>
<path fill="#F4A019" d="M606.352,531.531c0,0,16.821,2.28,16.396,19.959C622.748,551.49,606.779,550.632,606.352,531.531z"/>
<path fill="#F4A019" d="M630.766,575.872l16.723-16.716c-0.151-0.19-0.311-0.37-0.471-0.538c-5.304-5.475-7.527-6.326-15.054-6.157
	c0,0-5.132,0.942-7.864,2.649c-2.738,1.712-5.985-0.6-5.985-0.6s-5.73-3.418-12.737-1.367c0,0-13.857,4.105-11.635,24.63
	c0,0,3.249,19.493,14.367,24.623c0,0,3.594,1.543,5.986,0.518c2.391-1.028,9.237-4.707,17.529-0.086c0,0,6.239,1.451,9.662-3.765
	c0,0,2.932-3.526,5.201-7.474L630.766,575.872z"/>
<path fill="#388A29" d="M-114.03,439.514c-1.253,0-1.971,0.022-3.971,0.049v358.069c2,0.026,2.718,0.05,3.971,0.05
	c98.906,0,179.085-80.178,179.085-179.086C65.055,519.691-15.125,439.514-114.03,439.514z"/>
<path fill="#306D23" d="M-103,646.52v315.168c53-30.288,93.94-89.497,93.94-157.582C-9.06,736.018-50,676.811-103,646.52z"/>
<path fill="#306D23" d="M181.287,768C128.61,670.627,25.67,604.708-92.695,604.708c-118.37,0-221.311,65.919-273.987,163.292
	H181.287z"/>
<g>
	<path fill="#023558" d="M1114.224,59.581c0,25.988-22.068,47.061-49.293,47.061c-27.228,0-49.293-21.072-49.293-47.061
		c0-25.978,22.065-47.057,49.293-47.057C1092.155,12.525,1114.224,33.604,1114.224,59.581z"/>
	<path fill="#023558" d="M926.425,536.953c0,25.987-22.065,47.059-49.291,47.059c-27.229,0-49.297-21.07-49.297-47.059
		c0-25.986,22.068-47.055,49.297-47.055C904.358,489.899,926.425,510.967,926.425,536.953z"/>
	<path fill="#023558" d="M958.229,451.941c0,25.993-22.067,47.062-49.291,47.062c-27.226,0-49.298-21.067-49.298-47.062
		c0-25.979,22.072-47.055,49.298-47.055C936.162,404.887,958.229,425.962,958.229,451.941z"/>
	<path fill="#023558" d="M987.917,364.914c0,25.985-22.067,47.061-49.298,47.061c-27.227,0-49.292-21.074-49.292-47.061
		c0-25.989,22.065-47.058,49.292-47.058C965.849,317.857,987.917,338.925,987.917,364.914z"/>
	<path fill="#023558" d="M1013.364,279.899c0,25.991-22.07,47.062-49.297,47.062c-27.23,0-49.301-21.07-49.301-47.062
		c0-25.983,22.069-47.045,49.301-47.045C991.294,232.854,1013.364,253.915,1013.364,279.899z"/>
	<path fill="#023558" d="M1040.929,192.867c0,25.989-22.069,47.057-49.299,47.057c-27.222,0-49.296-21.066-49.296-47.057
		c0-25.979,22.074-47.049,49.296-47.049C1018.858,145.819,1040.929,166.888,1040.929,192.867z"/>
	<path fill="#023558" d="M1072.731,105.84c0,25.986-22.072,47.054-49.295,47.054c-27.229,0-49.294-21.067-49.294-47.054
		c0-25.987,22.064-47.057,49.294-47.057C1050.659,58.783,1072.731,79.854,1072.731,105.84z"/>
	<polygon fill="#023558" points="1059.337,34.936 1255.888,585.012 881.066,585.012 	"/>
	<path fill="#023558" d="M1115.649,64.579c0,25.596-20.752,46.354-46.351,46.354c-25.598,0-46.352-20.759-46.352-46.354
		c0-25.594,20.754-46.354,46.352-46.354C1094.897,18.225,1115.649,38.986,1115.649,64.579z"/>
	<path fill="#023558" d="M939.065,534.81c0,25.602-20.754,46.354-46.354,46.354c-25.596,0-46.35-20.752-46.35-46.354
		c0-25.601,20.754-46.352,46.35-46.352C918.312,488.458,939.065,509.209,939.065,534.81z"/>
	<path fill="#023558" d="M968.969,451.069c0,25.602-20.749,46.356-46.35,46.356c-25.596,0-46.352-20.756-46.352-46.356
		c0-25.599,20.756-46.35,46.352-46.35C948.22,404.72,968.969,425.471,968.969,451.069z"/>
	<path fill="#023558" d="M996.888,365.339c0,25.601-20.754,46.355-46.354,46.355c-25.6,0-46.352-20.756-46.352-46.355
		c0-25.599,20.752-46.351,46.352-46.351C976.134,318.989,996.888,339.74,996.888,365.339z"/>
	<path fill="#023558" d="M1020.811,281.602c0,25.601-20.751,46.354-46.354,46.354s-46.354-20.754-46.354-46.354
		c0-25.602,20.753-46.346,46.354-46.346C1000.06,235.256,1020.811,256,1020.811,281.602z"/>
	<path fill="#023558" d="M1046.73,195.871c0,25.598-20.753,46.354-46.356,46.354c-25.596,0-46.35-20.756-46.35-46.354
		c0-25.597,20.754-46.35,46.35-46.35C1025.978,149.521,1046.73,170.275,1046.73,195.871z"/>
	<circle fill="#023558" cx="1030.283" cy="110.143" r="46.351"/>
	<path fill="#023558" d="M1195.265,536.8c0,25.603,20.75,46.354,46.354,46.354s46.354-20.752,46.354-46.354
		c0-25.596-20.75-46.35-46.354-46.35C1216.015,490.449,1195.265,511.204,1195.265,536.8z"/>
	<path fill="#023558" d="M1165.36,453.066c0,25.597,20.748,46.349,46.35,46.349s46.354-20.752,46.354-46.349
		c0-25.604-20.753-46.354-46.354-46.354C1186.109,406.713,1165.36,427.461,1165.36,453.066z"/>
	<path fill="#023558" d="M1137.45,367.336c0,25.598,20.747,46.35,46.354,46.35c25.595,0,46.349-20.752,46.349-46.35
		c0-25.602-20.754-46.351-46.349-46.351C1158.197,320.986,1137.45,341.735,1137.45,367.336z"/>
	<path fill="#023558" d="M1113.522,283.598c0,25.596,20.75,46.348,46.348,46.348c25.602,0,46.354-20.752,46.354-46.348
		c0-25.603-20.755-46.35-46.354-46.35C1134.272,237.248,1113.522,257.995,1113.522,283.598z"/>
	<circle fill="#023558" cx="1133.956" cy="197.867" r="46.352"/>
	<path fill="#023558" d="M1057.7,112.133c0,25.601,20.75,46.352,46.35,46.352c25.602,0,46.353-20.751,46.353-46.352
		c0-25.596-20.751-46.35-46.353-46.35C1078.45,65.783,1057.7,86.537,1057.7,112.133z"/>
</g>
<path fill="#306D23" d="M1113,512.926c-95,3.891-171.671,82.497-171.671,178.918c0,96.424,76.671,175.029,171.671,178.92V512.926z"
	/>
<path fill="#388A29" d="M831.609,768c30.294-56,89.495-93.91,157.568-93.91c68.075,0,127.276,37.91,157.571,93.91H831.609z"/>
</svg>
