<?xml version="1.0" encoding="utf-8"?>
<!-- Generator: Adobe Illustrator 15.1.0, SVG Export Plug-In . SVG Version: 6.00 Build 0)  -->
<!DOCTYPE svg PUBLIC "-//W3C//DTD SVG 1.1//EN" "http://www.w3.org/Graphics/SVG/1.1/DTD/svg11.dtd">
<svg version="1.1" id="Layer_1" xmlns="http://www.w3.org/2000/svg" xmlns:xlink="http://www.w3.org/1999/xlink" x="0px" y="0px"
	 width="123px" height="173px" viewBox="0 0 123 173" enable-background="new 0 0 123 173" xml:space="preserve">
<g>
	<path fill="#FCC447" d="M123,162.928c0,5.562-4.552,10.07-10.17,10.07H10.569c-5.616,0-10.169-4.509-10.169-10.07V10.75
		c0-5.562,4.553-10.07,10.169-10.07H112.83c5.618,0,10.17,4.509,10.17,10.07V162.928z"/>
	<path fill="#FFF3DE" d="M111.982,83.727c0,5.775-4.713,10.46-10.528,10.46H23.076c-5.814,0-10.529-4.685-10.529-10.46V23.29
		c0-5.778,4.715-10.462,10.529-10.462h78.378c5.815,0,10.528,4.684,10.528,10.462V83.727z"/>
	<circle fill="#F4A019" cx="32.605" cy="50.682" r="5.367"/>
	<ellipse fill="#FCC447" cx="34.581" cy="51.247" rx="2.261" ry="2.119"/>
	<circle fill="#F4A019" cx="89.102" cy="51.812" r="5.367"/>
	<ellipse fill="#FCC447" cx="87.971" cy="51.813" rx="2.26" ry="2.117"/>
	<path fill="#F4A019" d="M60.287,104.072c0,1.395-1.463,2.525-3.269,2.525H17.793c-1.805,0-3.269-1.131-3.269-2.525l0,0
		c0-1.395,1.464-2.524,3.269-2.524h39.226C58.824,101.548,60.287,102.678,60.287,104.072L60.287,104.072z"/>
	<path fill="#F4A019" d="M99.031,138.725c0,0,6.554,0.889,6.388,7.775C105.419,146.5,99.198,146.166,99.031,138.725z"/>
	<path fill="#F4A019" d="M108.543,155.999l6.514-6.512c-0.059-0.074-0.12-0.145-0.183-0.21c-2.065-2.133-2.933-2.465-5.864-2.399
		c0,0-1.999,0.367-3.064,1.032c-1.066,0.667-2.332-0.232-2.332-0.232s-2.232-1.332-4.963-0.533c0,0-5.397,1.6-4.531,9.595
		c0,0,1.266,7.595,5.597,9.593c0,0,1.399,0.601,2.333,0.201c0.931-0.4,3.598-1.833,6.828-0.033c0,0,2.432,0.565,3.765-1.466
		c0,0,1.142-1.374,2.025-2.911L108.543,155.999z"/>
	<path fill="none" stroke="#F9A715" stroke-width="2" stroke-miterlimit="10" d="M49.334,57.892c0,0,12.334,10.646,25.668-0.354"/>
</g>
</svg>
