<?xml version="1.0" encoding="utf-8"?>
<!-- Generator: Adobe Illustrator 15.1.0, SVG Export Plug-In . SVG Version: 6.00 Build 0)  -->
<!DOCTYPE svg PUBLIC "-//W3C//DTD SVG 1.1//EN" "http://www.w3.org/Graphics/SVG/1.1/DTD/svg11.dtd">
<svg version="1.1" id="Layer_1" xmlns="http://www.w3.org/2000/svg" xmlns:xlink="http://www.w3.org/1999/xlink" x="0px" y="0px"
	 width="1024px" height="768px" viewBox="0 0 1024 768" enable-background="new 0 0 1024 768" xml:space="preserve">
<rect fill="#D7E7FB" width="1022" height="760"/>
<path fill="#8DC73F" d="M1026,734.066c0,23.479-4.653,43.934-11.646,43.934H6.546C-0.449,778-7,757.546-7,734.066v-63.78
	C-7,646.807-0.449,626,6.546,626h1007.809c6.992,0,11.646,20.807,11.646,44.286V734.066z"/>
<rect x="3" y="624" fill="#388A29" width="1022" height="15"/>
<path fill="#AB652D" d="M1338.632,742.829c9.373-0.074,17.031,7.473,17.103,16.845l0,0c0.074,9.374-7.467,17.034-16.847,17.109
	l-359.339,2.765c-9.372,0.074-17.029-7.471-17.105-16.844l0,0c-0.07-9.376,7.472-17.035,16.85-17.104L1338.632,742.829z"/>
<g>
	<path fill="#FFDFD3" d="M760.507,542.104c0,0,2.339,2.047,4.062,4.067l138.349,24.909l-2.777-13.464
		c-82.815-235.521-187.262-162.497-187.262-162.497C628.949,473.694,760.507,542.104,760.507,542.104z"/>
	<path fill="#FFDFD3" d="M1072.288,533.477l-10.877,32.932l157.18-37.109l0.545,2.278c26.306-11.73,122.515-61.506,57.987-137.79
		C1277.123,393.787,1181.846,309.148,1072.288,533.477z"/>
	<path fill="#6373C1" d="M956.597,715.08c0,17.009-55.35,30.796-123.622,30.796c-68.27,0-123.618-13.787-123.618-30.796
		s55.349-30.775,123.618-30.775C901.247,684.305,956.597,698.071,956.597,715.08z"/>
	<path fill="#6373C1" d="M1288.952,717.523c0,15.634-54.736,28.3-122.253,28.3c-67.516,0-122.263-12.666-122.263-28.3
		s54.747-28.289,122.263-28.289C1234.216,689.234,1288.952,701.89,1288.952,717.523z"/>
	<g>
		<path fill="#8190FF" d="M995.981,603.598c-87.979,0-169.689-15.194-237.373-41.186c-26.295,67.916-43.019,147.135-43.019,147.135
			c52.522,38.034,172.062,14.487,208.305,12.677c36.22-1.819,32.59-45.271,32.59-56.146c0-8.676,13.905-17.322,42.562-18.63v-0.841
			c27.84,1.48,41.399,10.009,41.399,18.558c0,10.874-3.634,54.332,32.603,56.154c36.22,1.806,155.766,25.373,208.285-12.686
			c0,0-16.871-79.915-43.363-148.025C1169.407,587.689,1085.987,603.598,995.981,603.598z"/>
	</g>
	<g>
		<path fill="#FCC447" d="M1207.122,492.618l-78.938-129.641l-130.301-0.502v0.909l-148.964,0.587l-66.2,147.248l0.735-4.176
			c-9.144,15.838-17.656,34.88-25.347,54.865c67.795,25.735,149.469,40.775,237.418,40.775c90.299,0,174.004-15.859,242.829-42.874
			c-8.825-22.841-18.744-44.416-29.473-61.282C1206.153,494.259,1206.087,492.774,1207.122,492.618z"/>
	</g>
	<path fill="#2D3551" d="M971.077-4.991"/>
	<path fill="#FF6260" d="M1212.899,205.053c0,91.999-98.547,166.569-220.081,166.569c-121.526,0-220.056-74.57-220.056-166.569
		c0-91.998,98.529-166.562,220.056-166.562C1114.353,38.491,1212.899,113.055,1212.899,205.053z"/>
	<path fill="#FF6260" d="M1258.633,224.531l-0.046-2.716c-60.33,60.338-155.104,99.218-261.693,99.218
		c-104.695,0-197.993-37.513-258.466-96.034c-50.034,29.297-45.28,81.031-45.28,81.031c2.457,26.133,13.812,44.545,25.613,56.926
		c-7.049,9.374-11.209,20.84-11.209,33.252c0,31.498,26.76,57.041,59.764,57.041c2.091,0,4.155-0.093,6.18-0.3
		c30.78,79.064,110.353,61.717,146.884,48.768c13.043,19.454,42.386,33.039,76.515,33.039c34.824,0,64.666-14.116,77.317-34.214
		c33.036,12.286,109.89,31.773,144.812-35.724c26.283-2.373,50.9-21.226,61.121-49.836c6.518-18.186,6.015-37.03-0.055-53.1
		c11.431-12.363,22.219-30.461,24.593-55.853C1304.683,306.03,1309.497,253.733,1258.633,224.531z"/>
	<path fill="#FFDFD3" d="M790.418,209.643c0,18.75-15.203,33.964-33.964,33.964c-18.746,0-33.96-15.214-33.96-33.964
		c0-18.757,15.214-33.956,33.96-33.956C775.215,175.687,790.418,190.886,790.418,209.643z"/>
	<path fill="#FFDFD3" d="M1268.585,217.793c0,18.753-15.206,33.967-33.963,33.967c-18.755,0-33.962-15.214-33.962-33.967
		c0-18.744,15.207-33.955,33.962-33.955C1253.379,183.838,1268.585,199.049,1268.585,217.793z"/>
	<path fill="#FF6260" d="M810.628,282.828c0,9.846-10.873,17.82-24.285,17.82l0,0c-13.416,0-24.286-7.975-24.286-17.82V147.329
		c0-9.847,10.87-17.832,24.286-17.832l0,0c13.412,0,24.285,7.985,24.285,17.832V282.828z"/>
	<path fill="#FF6260" d="M1234.457,289.626c0,9.841-11.483,17.818-25.647,17.818l0,0c-14.164,0-25.632-7.978-25.632-17.818v-135.51
		c0-9.848,11.468-17.834,25.632-17.834l0,0c14.164,0,25.647,7.986,25.647,17.834V289.626z"/>
	<path fill="#FF6260" d="M1005.045,16.743c-103.939,0-194.315,18.499-240.44,45.72v82.451
		c46.125,27.218,136.501,45.706,240.44,45.706c96.325,0,180.964-15.884,229.577-39.855V56.612
		C1186.009,32.627,1101.37,16.743,1005.045,16.743z"/>
	<path fill="#FCC447" d="M1221.948,18.104c0-71.272-102.787-129.05-229.58-129.05c-126.787,0-229.574,57.777-229.574,129.05
		c0,71.269,102.787,129.061,229.574,129.061C1119.161,147.164,1221.948,89.372,1221.948,18.104z"/>
	<path fill="#FCC447" d="M803.544-55.25c0,0-54.334,50.259-57.045,110.03c-2.719,59.771,70.624,19.02,70.624,19.02L803.544-55.25z"
		/>
	<path fill="#FCC447" d="M1189.267-49.815c0,0,54.334,50.265,57.062,110.03c2.714,59.776-70.647,19.026-70.647,19.026
		L1189.267-49.815z"/>
	<path fill="#F9A715" d="M1040.076-113.436c0,27.018-22.811,48.896-50.933,48.896c-28.132,0-50.951-21.879-50.951-48.896
		c0-27.006,22.819-48.896,50.951-48.896C1017.266-162.332,1040.076-140.441,1040.076-113.436z"/>
	<path fill="#F9A715" d="M1266.806,115.912c0,18.019-15.882,32.607-35.461,32.607H764.332c-19.589,0-35.478-14.589-35.478-32.607
		V86.037c0-18.012,15.889-32.599,35.478-32.599h467.013c19.579,0,35.461,14.587,35.461,32.599V115.912z"/>
	<g>
		<path fill="#EA534C" d="M1257.25,223.63v-0.459c-1.427,1.422-2.87,2.812-4.331,4.209
			C1254.388,226.142,1255.815,224.877,1257.25,223.63z"/>
		<path fill="#EA534C" d="M1009.117,523.894c-34.13,0-63.462-13.581-76.514-33.037c-36.531,12.934-116.099,30.291-146.867-48.772
			c-2.037,0.204-4.099,0.307-6.191,0.307c-33.006,0-59.774-25.553-59.774-57.054c0-12.402,4.176-23.874,11.217-33.239
			c-11.807-12.39-23.15-30.803-25.611-56.929c0,0-3.147-34.376,22.767-62.949c-40.503,29.831-36.354,75.178-36.354,75.178
			c2.459,26.125,13.807,44.535,25.611,56.928c-7.037,9.348-11.209,20.823-11.209,33.241c0,31.5,26.761,57.052,59.779,57.052
			c2.077,0,4.139-0.103,6.175-0.309c30.775,79.065,110.341,61.701,146.864,48.761c13.05,19.465,42.396,33.045,76.53,33.045
			c31.731,0,59.277-11.745,73.505-29.034C1053.829,517.453,1032.615,523.894,1009.117,523.894z"/>
		<path fill="#EA534C" d="M1231.234,453.943c-2.082,4.034-4.329,7.746-6.707,11.181c14.817-2.974,28.688-11.151,39.299-23.268
			C1254.003,448.692,1242.777,452.91,1231.234,453.943z"/>
		<path fill="#EA534C" d="M1086.433,489.67c-2.941,4.696-6.865,9.034-11.532,12.966c30.047,10.854,91.564,25.623,129.139-16.525
			C1165.561,513.438,1112.434,499.347,1086.433,489.67z"/>
	</g>
</g>
<rect x="-275" y="-201" fill="#F5F5F5" width="499" height="198"/>
</svg>
