<?xml version="1.0" encoding="utf-8"?>
<!-- Generator: Adobe Illustrator 15.1.0, SVG Export Plug-In . SVG Version: 6.00 Build 0)  -->
<!DOCTYPE svg PUBLIC "-//W3C//DTD SVG 1.1//EN" "http://www.w3.org/Graphics/SVG/1.1/DTD/svg11.dtd">
<svg version="1.1" id="Layer_1" xmlns="http://www.w3.org/2000/svg" xmlns:xlink="http://www.w3.org/1999/xlink" x="0px" y="0px"
	 width="1024px" height="768px" viewBox="0 0 1024 768" enable-background="new 0 0 1024 768" xml:space="preserve">
<rect x="235" y="370" fill="#D7E7FB" width="92" height="91"/>
<rect x="323" y="367" fill="#AECEF4" width="92" height="92"/>
<rect x="414" y="369" fill="#8190FF" width="91" height="91"/>
<rect x="-12" y="1" fill="#00233D" width="1034" height="768"/>
<path fill="#012B4A" d="M772,761.34c0,5.956-8.096,10.66-18.655,10.66H184.594C174.036,772,165,767.296,165,761.34V173.527
	c0-5.957,9.036-10.527,19.594-10.527h568.751c10.56,0,18.655,4.57,18.655,10.527V761.34z"/>
<path fill="#023558" d="M747,753.8c0,6.135-7.731,11.2-17.473,11.2H204.792c-9.74,0-17.792-5.065-17.792-11.2V148.389
	c0-6.136,8.052-11.389,17.792-11.389h524.735c9.741,0,17.473,5.253,17.473,11.389V753.8z"/>
<path fill="#05507A" d="M747,505.537c0,8.172-6.373,14.463-14.432,14.463H199.944c-8.058,0-13.944-6.291-13.944-14.463V146.739
	c0-8.172,5.887-13.739,13.944-13.739h532.624c8.059,0,14.432,5.567,14.432,13.739V505.537z"/>
<path fill="#023558" d="M701,458.878c0,2.919-6.144,5.122-14.219,5.122h-435c-8.075,0-13.781-2.203-13.781-5.122V170.837
	c0-2.92,5.706-5.837,13.781-5.837h435c8.075,0,14.219,2.917,14.219,5.837V458.878z"/>
<path fill="#012B4A" d="M-18,63.424V65h1050v-1.199c16-0.734,30.24-14.851,30.24-32.164c0-17.782-14.161-31.885-31.627-31.885
	c-2.604,0-5.136,0.248-7.559,1.248H-3.915c-2.423-1-4.952-1.248-7.56-1.248c-17.462,0-32.364,14.259-32.364,32.042
	C-43.838,47.829-32,60.964-18,63.424z"/>
<path fill="#012B4A" d="M-18,64.247V63h1038v0.871c16,0.733,30.074,14.85,30.074,32.163c0,17.782-13.925,32.05-31.201,32.05
	c-2.576,0-5-0.084-7.396-1.084H-4.349c-2.396,1-4.898,1.084-7.477,1.084c-17.273,0-31.873-14.343-31.873-32.125
	C-43.698,79.924-32,66.705-18,64.247z"/>
<path fill="#023558" d="M969.094,65.5c0,1.547,0.825,2.5,1.845,2.5h41.848c1.02,0,1.847-0.953,1.847-2.5l0,0
	c0-1.545-0.827-2.5-1.847-2.5h-41.848C969.919,63,969.094,63.955,969.094,65.5L969.094,65.5z"/>
<path fill="#023558" d="M878.455,65.5c0,1.547,1.543,2.5,3.448,2.5h78.214c1.907,0,3.452-0.953,3.452-2.5l0,0
	c0-1.545-1.545-2.5-3.452-2.5h-78.214C879.998,63,878.455,63.955,878.455,65.5L878.455,65.5z"/>
<path fill="#023558" d="M827.39,63.5c0,1.545,0.826,2.5,1.846,2.5h41.848c1.019,0,1.847-0.955,1.847-2.5l0,0
	c0-1.545-0.828-2.5-1.847-2.5h-41.848C828.216,61,827.39,61.955,827.39,63.5L827.39,63.5z"/>
<path fill="#023558" d="M776.326,63.5c0,1.545,0.825,2.5,1.844,2.5h41.85c1.021,0,1.847-0.955,1.847-2.5l0,0
	c0-1.545-0.825-2.5-1.847-2.5h-41.85C777.151,61,776.326,61.955,776.326,63.5L776.326,63.5z"/>
<path fill="#023558" d="M685.688,63.5c0,1.545,1.545,2.5,3.449,2.5h78.216c1.905,0,3.448-0.955,3.448-2.5l0,0
	c0-1.545-1.543-2.5-3.448-2.5h-78.216C687.232,61,685.688,61.955,685.688,63.5L685.688,63.5z"/>
<path fill="#023558" d="M534.198,63.5c0,1.545,2.646,2.5,5.916,2.5h134.132c3.27,0,5.918-0.955,5.918-2.5l0,0
	c0-1.545-2.648-2.5-5.918-2.5H540.114C536.845,61,534.198,61.955,534.198,63.5L534.198,63.5z"/>
<path fill="#023558" d="M383.558,63.5c0,1.545,2.647,2.5,5.918,2.5h134.133c3.27,0,5.916-0.955,5.916-2.5l0,0
	c0-1.545-2.646-2.5-5.916-2.5H389.476C386.205,61,383.558,61.955,383.558,63.5L383.558,63.5z"/>
<path fill="#023558" d="M333.345,63.5c0,1.545,0.828,2.5,1.847,2.5h41.848c1.021,0,1.845-0.955,1.845-2.5l0,0
	c0-1.545-0.824-2.5-1.845-2.5h-41.848C334.173,61,333.345,61.955,333.345,63.5L333.345,63.5z"/>
<path fill="#023558" d="M241.431,63c0,1.547,1.545,3,3.449,3h78.215c1.906,0,3.449-1.453,3.449-3l0,0c0-1.545-1.543-3-3.449-3
	H244.88C242.976,60,241.431,61.455,241.431,63L241.431,63z"/>
<path fill="#023558" d="M190.367,63c0,1.547,0.827,3,1.847,3h41.847c1.021,0,1.845-1.453,1.845-3l0,0c0-1.545-0.824-3-1.845-3
	h-41.847C191.194,60,190.367,61.455,190.367,63L190.367,63z"/>
<path fill="#023558" d="M138.026,63c0,1.547,0.824,3,1.846,3h41.848c1.02,0,1.846-1.453,1.846-3l0,0c0-1.545-0.826-3-1.846-3
	h-41.848C138.851,60,138.026,61.455,138.026,63L138.026,63z"/>
<path fill="#023558" d="M46.11,62c0,1.545,1.547,3,3.449,3h78.215c1.906,0,3.452-1.455,3.452-3l0,0c0-1.547-1.546-3-3.452-3H49.56
	C47.657,59,46.11,60.453,46.11,62L46.11,62z"/>
<path fill="#012B4A" d="M1022,441.552c0,7.981-3.749,14.448-8.357,14.448h-147.3c-4.607,0-8.343-6.467-8.343-14.448V186.456
	c0-7.981,3.735-14.456,8.343-14.456h147.3c4.608,0,8.357,6.475,8.357,14.456V441.552z"/>
<path opacity="0.06" fill="#D7E7FB" d="M1090.418,172h-83.002c-20.692,40-32.642,87.348-32.642,137.684
	c0,54.434,13.955,105.316,37.847,147.316h77.797c6.722,0,12.582-6.966,12.582-14.947V186.739C1103,178.758,1097.14,172,1090.418,172
	z"/>
<ellipse fill="#00233D" cx="854.343" cy="742.355" rx="30.107" ry="20.74"/>
<path fill="#0A6F9B" d="M1015.756,350.214c2.882,7.443-0.816,15.812-8.26,18.693l-56.153,21.741
	c-7.443,2.882-15.813-0.816-18.695-8.26l-37.394-96.584c-2.882-7.444,0.817-15.812,8.26-18.694l56.154-21.741
	c7.442-2.881,15.812,0.816,18.694,8.26L1015.756,350.214z"/>
<path fill="#0A6F9B" d="M925.362,380.321c-2.882,7.443,0.815,15.812,8.26,18.694l56.152,21.741
	c7.443,2.881,15.814-0.816,18.695-8.26l37.394-96.585c2.882-7.443-0.817-15.812-8.259-18.694l-56.155-21.741
	c-7.442-2.881-15.812,0.816-18.693,8.26L925.362,380.321z"/>
<path fill="#1287AF" d="M1037.604,297.218l-56.155-21.741c-1.429-0.553-2.891-0.858-4.343-0.947
	c-1.531,11.467-2.332,23.164-2.332,35.05c0,39.837,8.883,77.596,24.76,111.42c3.955-1.312,7.314-4.314,8.936-8.502l37.394-96.585
	C1048.745,308.469,1045.046,300.1,1037.604,297.218z"/>
<path fill="#012B4A" d="M578.201,616.483c0,9.418-7.708,17.053-17.222,17.053H387.813c-9.512,0-17.221-7.635-17.221-17.053V358.789
	c0-9.419,7.709-17.054,17.221-17.054h173.166c9.514,0,17.222,7.635,17.222,17.054V616.483z"/>
<path fill="#0A6F9B" d="M559.544,482.366c0,9.778-7.98,17.712-17.828,17.712H408.992c-9.845,0-17.831-7.934-17.831-17.712V380.024
	c0-9.786,7.986-17.717,17.831-17.717h132.724c9.848,0,17.828,7.931,17.828,17.717V482.366z"/>
<path fill="#F4A019" d="M472.004,516.818c0,2.361-2.477,4.277-5.534,4.277h-66.426c-3.055,0-5.533-1.916-5.533-4.277l0,0
	c0-2.361,2.479-4.274,5.533-4.274h66.426C469.527,512.544,472.004,514.457,472.004,516.818L472.004,516.818z"/>
<path fill="#F4A019" d="M537.612,575.498c0,0,11.099,1.505,10.817,13.167C548.43,588.665,537.896,588.1,537.612,575.498z"/>
<path fill="#F4A019" d="M553.72,604.751l11.031-11.027c-0.101-0.125-0.204-0.245-0.31-0.355c-3.498-3.611-4.967-4.175-9.931-4.063
	c0,0-3.385,0.621-5.19,1.749c-1.804,1.129-3.948-0.394-3.948-0.394s-3.781-2.257-8.403-0.903c0,0-9.141,2.708-7.674,16.247
	c0,0,2.143,12.86,9.477,16.244c0,0,2.37,1.018,3.951,0.34c1.575-0.676,6.093-3.104,11.563-0.055c0,0,4.117,0.957,6.375-2.483
	c0,0,1.933-2.326,3.43-4.929L553.72,604.751z"/>
<rect x="427.705" y="403.418" transform="matrix(0.7073 -0.7069 0.7069 0.7073 -169.7211 425.7151)" fill="#023558" width="2.974" height="28.757"/>
<rect x="427.953" y="403.665" transform="matrix(0.7071 0.7071 -0.7071 0.7071 421.382 -181.2184)" fill="#023558" width="2.976" height="28.759"/>
<rect x="519.018" y="404.597" transform="matrix(0.7074 -0.7068 0.7068 0.7074 -143.8409 490.4595)" fill="#023558" width="2.975" height="28.757"/>
<rect x="519.266" y="404.843" transform="matrix(0.7074 0.7068 -0.7068 0.7074 448.6516 -245.4079)" fill="#023558" width="2.975" height="28.759"/>
<path fill="none" stroke="#023558" stroke-width="2.4086" stroke-miterlimit="10" d="M533.591,456.688
	c0,0-19.074-16.463-39.692,0.547"/>
<path fill="#00233D" d="M744,757.552c0,5.212-6.471,9.448-14.452,9.448H199.45c-7.981,0-14.45-4.236-14.45-9.448v-269.11
	c0-5.212,6.469-9.441,14.45-9.441h530.098c7.981,0,14.452,4.229,14.452,9.441V757.552z"/>
</svg>
