<?xml version="1.0" encoding="utf-8"?>
<!-- Generator: Adobe Illustrator 15.1.0, SVG Export Plug-In . SVG Version: 6.00 Build 0)  -->
<!DOCTYPE svg PUBLIC "-//W3C//DTD SVG 1.1//EN" "http://www.w3.org/Graphics/SVG/1.1/DTD/svg11.dtd">
<svg version="1.1" id="Layer_1" xmlns="http://www.w3.org/2000/svg" xmlns:xlink="http://www.w3.org/1999/xlink" x="0px" y="0px"
	 width="1024px" height="768px" viewBox="0 0 1024 768" enable-background="new 0 0 1024 768" xml:space="preserve">
<path fill="#FCC447" d="M695.724,591.051c0,15.986-13.084,28.947-29.233,28.947H372.548c-16.144,0-29.229-12.961-29.229-28.947
	V153.626c0-15.986,13.086-28.946,29.229-28.946H666.49c16.149,0,29.233,12.96,29.233,28.946V591.051z"/>
<path fill="#FFF3DE" d="M664.054,363.393c0,16.602-13.546,30.066-30.263,30.066H408.499c-16.713,0-30.266-13.465-30.266-30.066
	V189.671c0-16.609,13.553-30.072,30.266-30.072h225.292c16.717,0,30.263,13.462,30.263,30.072V363.393z"/>
<path fill="#F4A019" d="M515.46,421.875c0,4.009-4.205,7.26-9.396,7.26H393.312c-5.188,0-9.396-3.251-9.396-7.26l0,0
	c0-4.008,4.208-7.256,9.396-7.256h112.751C511.255,414.619,515.46,417.867,515.46,421.875L515.46,421.875z"/>
<path fill="#F4A019" d="M626.826,521.48c0,0,18.839,2.556,18.361,22.352C645.188,543.832,627.307,542.871,626.826,521.48z"/>
<path fill="#F4A019" d="M654.167,571.135l18.725-18.717c-0.17-0.214-0.346-0.416-0.526-0.604c-5.937-6.131-8.429-7.086-16.856-6.896
	c0,0-5.746,1.055-8.809,2.967c-3.064,1.917-6.703-0.669-6.703-0.669s-6.417-3.828-14.264-1.532c0,0-15.516,4.598-13.027,27.58
	c0,0,3.639,21.83,16.089,27.573c0,0,4.022,1.727,6.705,0.578c2.675-1.15,10.343-5.269,19.628-0.095c0,0,6.989,1.625,10.821-4.214
	c0,0,3.281-3.949,5.822-8.368L654.167,571.135z"/>
<rect x="440.263" y="229.382" transform="matrix(0.7072 -0.7071 0.7071 0.7072 -49.7758 387.3984)" fill="#F9A715" width="5.05" height="48.815"/>
<rect x="440.684" y="229.803" transform="matrix(0.7071 0.7072 -0.7072 0.7071 309.6006 -238.9487)" fill="#F9A715" width="5.05" height="48.816"/>
<rect x="595.264" y="231.382" transform="matrix(0.7072 -0.707 0.707 0.7072 -5.8157 497.537)" fill="#F9A715" width="5.05" height="48.815"/>
<rect x="595.684" y="231.803" transform="matrix(0.707 0.7072 -0.7072 0.707 356.4621 -347.9884)" fill="#F9A715" width="5.05" height="48.815"/>
<path fill="none" stroke="#F9A715" stroke-width="5" stroke-miterlimit="10" d="M620.001,319.804c0,0-32.379-27.944-67.379,0.931"/>
<path fill="#FFDFD3" d="M380.577,466h-12.118c-4.632,1.188-9.193,3.809-10.375,9.427c-2.601,12.381-28.327,27.236-41.156,6.917
	c-7.982-12.645,9.452-18.774,25.072-20.748v-16.238c-7.401-0.456-15.756,0.277-25.212,2.51c0,0-99.357,39.021,26.546,205.956
	l20.465,20.619l31.943-131.438l1.909,0.465C398.39,528.951,398.442,490.273,380.577,466z"/>
<path fill="#FFDFD3" d="M658.863,465h12.117c4.632,1.188,9.193,3.809,10.375,9.427c2.6,12.381,28.106,27.236,40.937,6.917
	c7.981-12.645-9.292-18.774-25.292-20.748v-16.238c8-0.456,15.976,0.277,25.433,2.51c0,0,99.468,39.021-26.437,205.956
	l-20.41,20.619L643.67,542.004l-1.895,0.465C641.035,527.951,640.997,489.273,658.863,465z"/>
<polyline fill="#FFDFD3" points="334.296,645.38 329.915,771 405.972,767.915 386.253,586.226 "/>
<polyline fill="#FFDFD3" points="707.591,645.38 711.972,771 635.915,767.915 655.633,586.226 "/>
</svg>
