<?xml version="1.0" encoding="utf-8"?>
<!-- Generator: Adobe Illustrator 15.1.0, SVG Export Plug-In . SVG Version: 6.00 Build 0)  -->
<!DOCTYPE svg PUBLIC "-//W3C//DTD SVG 1.1//EN" "http://www.w3.org/Graphics/SVG/1.1/DTD/svg11.dtd">
<svg version="1.1" id="Layer_1" xmlns="http://www.w3.org/2000/svg" xmlns:xlink="http://www.w3.org/1999/xlink" x="0px" y="0px"
	 width="1024px" height="768px" viewBox="0 0 1024 768" enable-background="new 0 0 1024 768" xml:space="preserve">
<rect y="-1" fill="#8DC73F" width="1025" height="765"/>
<path fill="#388A29" d="M712,618c0,6.627-4.814,12-10.746,12H338.74c-5.932,0-10.74-5.373-10.74-12v-90c0-6.627,4.809-12,10.74-12
	h362.514c5.932,0,10.746,5.373,10.746,12V618z"/>
<path fill="#FCC447" d="M694.724,588.051c0,15.986-13.084,28.947-29.233,28.947H371.548c-16.144,0-29.229-12.961-29.229-28.947
	V150.626c0-15.986,13.086-28.946,29.229-28.946H665.49c16.149,0,29.233,12.96,29.233,28.946V588.051z"/>
<path fill="#FFF3DE" d="M663.054,360.393c0,16.602-13.546,30.066-30.263,30.066H407.499c-16.713,0-30.266-13.465-30.266-30.066
	V186.671c0-16.609,13.553-30.072,30.266-30.072h225.292c16.717,0,30.263,13.462,30.263,30.072V360.393z"/>
<path fill="#F4A019" d="M514.46,418.875c0,4.009-4.205,7.26-9.396,7.26H392.312c-5.188,0-9.396-3.251-9.396-7.26l0,0
	c0-4.008,4.208-7.256,9.396-7.256h112.751C510.255,411.619,514.46,414.867,514.46,418.875L514.46,418.875z"/>
<path fill="#F4A019" d="M625.826,518.48c0,0,18.839,2.556,18.361,22.352C644.188,540.832,626.307,539.871,625.826,518.48z"/>
<path fill="#F4A019" d="M653.167,568.135l18.725-18.717c-0.17-0.214-0.346-0.416-0.526-0.604c-5.937-6.131-8.429-7.086-16.856-6.896
	c0,0-5.746,1.055-8.809,2.967c-3.064,1.917-6.703-0.669-6.703-0.669s-6.417-3.828-14.264-1.532c0,0-15.516,4.598-13.027,27.58
	c0,0,3.639,21.83,16.089,27.573c0,0,4.022,1.727,6.705,0.578c2.675-1.15,10.343-5.269,19.628-0.095c0,0,6.989,1.625,10.821-4.214
	c0,0,3.281-3.949,5.822-8.368L653.167,568.135z"/>
<rect x="439.263" y="226.382" transform="matrix(0.7072 -0.7071 0.7071 0.7072 -47.9475 385.8128)" fill="#F9A715" width="5.05" height="48.815"/>
<rect x="439.684" y="226.803" transform="matrix(0.7071 0.7072 -0.7072 0.7071 307.1861 -239.1204)" fill="#F9A715" width="5.05" height="48.816"/>
<rect x="594.264" y="228.382" transform="matrix(0.7072 -0.707 0.707 0.7072 -3.9875 495.9516)" fill="#F9A715" width="5.05" height="48.815"/>
<rect x="594.684" y="228.803" transform="matrix(0.707 0.7072 -0.7072 0.707 354.0475 -348.1602)" fill="#F9A715" width="5.05" height="48.815"/>
<path fill="none" stroke="#F9A715" stroke-width="5" stroke-miterlimit="10" d="M619.001,316.804c0,0-32.379-27.944-67.379,0.931"/>
<path fill="#306D23" d="M1,343.72v497.431c110.665-28.604,192.408-129.112,192.408-248.718
	C193.408,472.831,111.665,372.324,1,343.72z"/>
<path fill="#306D23" d="M936.723-3c-47.561,46.617-77.073,111.575-77.073,183.434c0,109.25,68.206,202.554,164.351,239.693V-3
	H936.723z"/>
<path fill="#388A29" d="M1024,423.147c-41.232,45.568-66.351,105.992-66.351,172.286c0,66.296,25.118,126.721,66.351,172.29V423.147
	z"/>
<g>
	<path fill="#388A29" d="M-1-2.006v454.883c81.694-43.001,137.408-128.708,137.408-227.443C136.408,126.701,80.694,40.995-1-2.006z"
		/>
</g>
</svg>
