<?xml version="1.0" encoding="utf-8"?>
<!-- Generator: Adobe Illustrator 15.1.0, SVG Export Plug-In . SVG Version: 6.00 Build 0)  -->
<!DOCTYPE svg PUBLIC "-//W3C//DTD SVG 1.1//EN" "http://www.w3.org/Graphics/SVG/1.1/DTD/svg11.dtd">
<svg version="1.1" id="Layer_1" xmlns="http://www.w3.org/2000/svg" xmlns:xlink="http://www.w3.org/1999/xlink" x="0px" y="0px"
	 width="399px" height="560px" viewBox="0 0 399 560" enable-background="new 0 0 399 560" xml:space="preserve">
<path fill="#FCC447" d="M399.125,527.832c0,18.087-14.802,32.753-33.076,32.753H33.482c-18.266,0-33.073-14.666-33.073-32.753
	V32.927c0-18.087,14.808-32.75,33.073-32.75h332.566c18.274,0,33.076,14.663,33.076,32.75V527.832z"/>
<path fill="#F9A715" d="M380,439.442c0,53.149,3.071,97.558-24.116,97.558H38.237C11.043,537,22,492.592,22,439.442V118.621
	c0-53.148-10.816-98.786,16.379-98.786l291.139,2.538C399.143,14.75,380,65.473,380,118.621V439.442z"/>
<path fill="#FCC447" d="M144.119,96.5c0,0,24.982,3.389,24.35,29.639C168.469,126.139,144.756,124.865,144.119,96.5z"/>
</svg>
