<?xml version="1.0" encoding="utf-8"?>
<!-- Generator: Adobe Illustrator 15.1.0, SVG Export Plug-In . SVG Version: 6.00 Build 0)  -->
<!DOCTYPE svg PUBLIC "-//W3C//DTD SVG 1.1//EN" "http://www.w3.org/Graphics/SVG/1.1/DTD/svg11.dtd">
<svg version="1.1" id="Layer_1" xmlns="http://www.w3.org/2000/svg" xmlns:xlink="http://www.w3.org/1999/xlink" x="0px" y="0px"
	 width="308.596px" height="128px" viewBox="0 0 308.596 128" enable-background="new 0 0 308.596 128" xml:space="preserve">
<g>
	<g>
		<path fill="#FCFCFC" d="M119.701,104.517l-15.465-25.68l-25.53-0.099v0.181L49.523,79.03l-12.97,29.171l0.145-0.825
			c-1.793,3.138-3.461,6.91-4.966,10.867c13.281,5.101,29.283,8.08,46.512,8.08c17.69,0,34.089-3.142,47.575-8.495
			c-1.73-4.523-3.673-8.797-5.774-12.137C119.511,104.844,119.497,104.548,119.701,104.517z"/>
	</g>
	<path fill="#FCFCFC" d="M38.483,105.26c0,0,0.483-0.367,0.937-0.622l10.14-25.602l-2.693,0.01
		C-1.57,85.832,8.41,108.719,8.41,108.719C20.253,127.881,38.483,105.26,38.483,105.26z"/>
	<path fill="#FCFCFC" d="M111.041,79.134l-6.795-0.026l16.457,27.023l-0.393,0.24c3.785,4.188,18.896,19.088,29.188,2.438
		C149.498,108.809,159.477,85.92,111.041,79.134z"/>
	<path fill="#2D3551" d="M73.456,6.745"/>
	<ellipse fill="#FFDFD3" cx="77.716" cy="47.895" rx="43.114" ry="32.633"/>
	<circle cx="54.296" cy="51.791" r="4.988"/>
	<circle cx="102.732" cy="51.257" r="4.988"/>
	<path fill="#FCFCFC" d="M129.792,51.71l-0.007-0.529C117.961,63,99.396,70.617,78.515,70.617c-20.512,0-38.791-7.352-50.639-18.813
		c-9.798,5.738-8.87,15.875-8.87,15.875c0.481,5.119,2.706,8.726,5.018,11.151c-1.381,1.835-2.196,4.083-2.196,6.514
		c0,6.172,5.243,11.178,11.71,11.178c0.409,0,0.812-0.021,1.21-0.06c6.03,15.489,21.617,12.09,28.773,9.553
		c2.559,3.813,8.307,6.474,14.993,6.474c6.821,0,12.669-2.768,15.146-6.705c6.47,2.409,21.527,6.226,28.368-6.998
		c5.151-0.463,9.974-4.157,11.979-9.762c1.275-3.564,1.175-7.255-0.013-10.402c2.239-2.423,4.352-5.97,4.819-10.942
		C138.814,67.679,139.757,57.433,129.792,51.71z"/>
	<path fill="none" stroke="#E8E7E6" stroke-width="0.5323" stroke-miterlimit="10" d="M133.995,78.621"/>
	<path fill="#FFFFFF" d="M131.63,50.498v0.135C119.806,62.451,99.218,69.73,78.337,69.73c-20.512,0-40.67-6.105-52.518-17.569
		c-9.798,5.739-6.991,14.632-6.991,14.632c0.415,4.406,2.122,7.688,4.062,10.065c13.896,7.934,33.986,12.917,56.333,12.917
		c21.444,0,40.81-4.591,54.618-11.972c-0.009-0.022-0.016-0.046-0.024-0.069c2.239-2.422,4.352-5.97,4.819-10.941
		C138.637,66.793,141.595,56.221,131.63,50.498z"/>
	<circle fill="#FFDFD3" cx="30.61" cy="49.326" r="6.653"/>
	<circle fill="#FFDFD3" cx="124.289" cy="50.924" r="6.653"/>
	<path fill="#AD6F3D" d="M33.893,43.179c0,3.491-2.978,6.322-6.651,6.322l0,0c-3.674,0-6.651-2.831-6.651-6.322v-31.89
		c0-3.49,2.978-6.321,6.651-6.321l0,0c3.674,0,6.651,2.831,6.651,6.321V43.179z"/>
	<path fill="#BF7B3D" d="M42.94,60.573c0,1.987-2.216,3.599-4.951,3.599l0,0c-2.735,0-4.951-1.611-4.951-3.599V33.23
		c0-1.987,2.216-3.598,4.951-3.598l0,0c2.734,0,4.951,1.61,4.951,3.598V60.573z"/>
	<path fill="#BF7B3D" d="M122.748,58.161c0,1.93-2.249,3.494-5.023,3.494l0,0c-2.774,0-5.023-1.564-5.023-3.494V31.614
		c0-1.929,2.249-3.493,5.023-3.493l0,0c2.775,0,5.023,1.564,5.023,3.493V58.161z"/>
	<path fill="#AD6F3D" d="M80.111,0C59.747,0,42.043,4.794,33.006,11.848v21.373c2.242,1.75,5.02,3.361,8.238,4.795
		c9.4-3.454,21.69-5.547,35.142-5.547c15.31,0,29.116,2.71,38.867,7.053c3.784-1.391,7.101-3,9.835-4.785V10.332
		C115.564,4.115,98.979,0,80.111,0z"/>
	<path fill="#BF7B3D" d="M33.893,45.042c0,3.491-2.978,6.321-6.651,6.321l0,0c-3.674,0-6.651-2.83-6.651-6.321V13.153
		c0-3.491,2.978-6.322,6.651-6.322l0,0c3.674,0,6.651,2.831,6.651,6.322V45.042z"/>
	<path fill="#BF7B3D" d="M80.111,1.863c-20.364,0-38.068,4.793-47.105,11.848v21.372c2.242,1.751,5.02,3.362,8.238,4.795
		c9.4-3.454,21.69-5.547,35.142-5.547c15.31,0,29.116,2.71,38.867,7.053c3.784-1.39,7.101-2.999,9.835-4.784V12.195
		C115.564,5.979,98.979,1.863,80.111,1.863z"/>
	<path fill="#AD6F3D" d="M33.759,44.928c0,3.554-3.007,6.436-6.717,6.436l0,0c-3.71,0-6.718-2.882-6.718-6.436v-32.46
		c0-3.554,3.007-6.436,6.718-6.436l0,0c3.71,0,6.717,2.882,6.717,6.436V44.928z"/>
	<path fill="#BF7B3D" d="M31.764,44.643c0,3.491-2.978,6.322-6.651,6.322l0,0c-3.674,0-6.651-2.831-6.651-6.322V12.754
		c0-3.492,2.978-6.322,6.651-6.322l0,0c3.674,0,6.651,2.83,6.651,6.322V44.643z"/>
	<ellipse fill="#AD6F3D" cx="21.384" cy="28.609" rx="4.791" ry="13.839"/>
	<ellipse fill="#BF7B3D" cx="18.989" cy="28.344" rx="4.79" ry="13.838"/>
	<path fill="#AD6F3D" d="M121.893,44.396c0,3.553,3.008,6.435,6.718,6.435l0,0c3.71,0,6.718-2.882,6.718-6.435V11.936
		c0-3.554-3.008-6.436-6.718-6.436l0,0c-3.71,0-6.718,2.882-6.718,6.436V44.396z"/>
	<path fill="#BF7B3D" d="M123.889,44.11c0,3.491,2.977,6.322,6.651,6.322l0,0c3.674,0,6.651-2.831,6.651-6.322V12.222
		c0-3.491-2.977-6.322-6.651-6.322l0,0c-3.674,0-6.651,2.831-6.651,6.322V44.11z"/>
	<ellipse fill="#AD6F3D" cx="134.268" cy="28.078" rx="4.79" ry="13.838"/>
	<ellipse fill="#BF7B3D" cx="136.664" cy="27.811" rx="4.791" ry="13.84"/>
</g>
<g>
	<g>
		<path fill="#FCFCFC" d="M274.812,104.518l-15.465-25.68l-25.53-0.1v0.182l-29.182,0.111l-12.97,29.17l0.145-0.824
			c-1.793,3.137-3.461,6.91-4.966,10.867c13.281,5.1,29.283,8.08,46.512,8.08c17.691,0,34.089-3.143,47.576-8.496
			c-1.73-4.523-3.674-8.797-5.775-12.137C274.623,104.844,274.609,104.549,274.812,104.518z"/>
	</g>
	<path fill="#FCFCFC" d="M193.595,105.26c0,0,0.483-0.367,0.937-0.621l10.14-25.602l-2.693,0.01
		c-48.437,6.785-38.457,29.672-38.457,29.672C175.365,127.881,193.595,105.26,193.595,105.26z"/>
	<path fill="#FCFCFC" d="M266.152,79.135l-6.795-0.027l16.457,27.023l-0.393,0.24c3.784,4.189,18.896,19.088,29.188,2.438
		C304.609,108.809,314.588,85.92,266.152,79.135z"/>
	<path fill="#2D3551" d="M228.568,6.745"/>
	<ellipse fill="#FFDFD3" cx="232.828" cy="47.895" rx="43.114" ry="32.633"/>
	<circle cx="209.408" cy="51.791" r="4.988"/>
	<circle cx="257.844" cy="51.257" r="4.988"/>
	<path fill="#FCFCFC" d="M284.904,51.71l-0.008-0.529C273.073,63,254.508,70.617,233.626,70.617
		c-20.512,0-38.791-7.352-50.639-18.813c-9.798,5.738-8.87,15.876-8.87,15.876c0.481,5.119,2.706,8.725,5.018,11.15
		c-1.381,1.836-2.196,4.084-2.196,6.514c0,6.172,5.243,11.178,11.71,11.178c0.409,0,0.812-0.02,1.21-0.059
		c6.03,15.488,21.617,12.09,28.773,9.553c2.559,3.812,8.307,6.473,14.993,6.473c6.821,0,12.669-2.768,15.146-6.705
		c6.47,2.41,21.527,6.227,28.368-6.998c5.151-0.463,9.975-4.156,11.979-9.762c1.275-3.564,1.176-7.254-0.012-10.402
		c2.238-2.422,4.352-5.969,4.818-10.941C293.926,67.68,294.869,57.433,284.904,51.71z"/>
	<path fill="none" stroke="#E8E7E6" stroke-width="0.5323" stroke-miterlimit="10" d="M289.107,78.621"/>
	<path fill="#FFFFFF" d="M287.865,47.688v0.135c-11.824,11.818-32.412,19.098-53.293,19.098c-20.512,0-40.67-6.106-52.518-17.569
		c-9.798,5.739-6.991,14.632-6.991,14.632c0.415,4.406,2.122,7.688,4.062,10.066c13.896,7.934,33.986,12.916,56.333,12.916
		c21.443,0,40.809-4.59,54.617-11.971c-0.008-0.023-0.016-0.047-0.023-0.07c2.238-2.422,4.352-5.969,4.818-10.941
		C294.871,63.983,297.83,53.411,287.865,47.688z"/>
	<circle fill="#FFDFD3" cx="185.722" cy="49.326" r="6.653"/>
	<circle fill="#FFDFD3" cx="279.401" cy="50.924" r="6.653"/>
	<path fill="#AD6F3D" d="M189.004,43.179c0,3.491-2.978,6.322-6.651,6.322l0,0c-3.674,0-6.651-2.831-6.651-6.322v-31.89
		c0-3.49,2.978-6.321,6.651-6.321l0,0c3.674,0,6.651,2.831,6.651,6.321V43.179z"/>
	<path fill="#BF7B3D" d="M198.052,60.573c0,1.987-2.216,3.598-4.951,3.598l0,0c-2.735,0-4.951-1.611-4.951-3.598V33.23
		c0-1.987,2.216-3.598,4.951-3.598l0,0c2.734,0,4.951,1.61,4.951,3.598V60.573z"/>
	<path fill="#BF7B3D" d="M277.859,58.161c0,1.93-2.248,3.494-5.023,3.494l0,0c-2.774,0-5.023-1.564-5.023-3.494V31.614
		c0-1.929,2.249-3.493,5.023-3.493l0,0c2.775,0,5.023,1.564,5.023,3.493V58.161z"/>
	<path fill="#AD6F3D" d="M235.223,0c-20.364,0-38.068,4.794-47.105,11.848v21.373c2.242,1.75,5.02,3.361,8.238,4.795
		c9.4-3.454,21.69-5.547,35.142-5.547c15.31,0,29.116,2.71,38.867,7.053c3.784-1.391,7.101-3,9.835-4.785V10.332
		C270.676,4.115,254.092,0,235.223,0z"/>
	<path fill="#BF7B3D" d="M189.004,45.042c0,3.491-2.978,6.321-6.651,6.321l0,0c-3.674,0-6.651-2.83-6.651-6.321V13.153
		c0-3.491,2.978-6.322,6.651-6.322l0,0c3.674,0,6.651,2.831,6.651,6.322V45.042z"/>
	<path fill="#BF7B3D" d="M235.223,1.863c-20.364,0-38.068,4.793-47.105,11.848v21.372c2.242,1.751,5.02,3.362,8.238,4.795
		c9.4-3.454,21.69-5.547,35.142-5.547c15.31,0,29.116,2.71,38.867,7.053c3.784-1.39,7.101-2.999,9.835-4.784V12.195
		C270.676,5.979,254.092,1.863,235.223,1.863z"/>
	<path fill="#AD6F3D" d="M188.871,44.928c0,3.554-3.007,6.436-6.717,6.436l0,0c-3.71,0-6.718-2.882-6.718-6.436v-32.46
		c0-3.554,3.007-6.436,6.718-6.436l0,0c3.71,0,6.717,2.882,6.717,6.436V44.928z"/>
	<path fill="#BF7B3D" d="M186.875,44.643c0,3.491-2.978,6.322-6.651,6.322l0,0c-3.674,0-6.651-2.831-6.651-6.322V12.754
		c0-3.492,2.978-6.322,6.651-6.322l0,0c3.674,0,6.651,2.83,6.651,6.322V44.643z"/>
	<ellipse fill="#AD6F3D" cx="176.496" cy="28.609" rx="4.791" ry="13.839"/>
	<ellipse fill="#BF7B3D" cx="174.101" cy="28.344" rx="4.79" ry="13.838"/>
	<path fill="#AD6F3D" d="M277.005,44.396c0,3.553,3.008,6.435,6.718,6.435l0,0c3.711,0,6.719-2.882,6.719-6.435V11.936
		c0-3.554-3.008-6.436-6.719-6.436l0,0c-3.71,0-6.718,2.882-6.718,6.436V44.396z"/>
	<path fill="#BF7B3D" d="M279.001,44.11c0,3.491,2.978,6.322,6.651,6.322l0,0c3.674,0,6.65-2.831,6.65-6.322V12.222
		c0-3.491-2.977-6.322-6.65-6.322l0,0c-3.674,0-6.651,2.831-6.651,6.322V44.11z"/>
	<ellipse fill="#AD6F3D" cx="289.38" cy="28.078" rx="4.79" ry="13.838"/>
	<ellipse fill="#BF7B3D" cx="291.775" cy="27.811" rx="4.791" ry="13.84"/>
</g>
<rect x="4" y="139" fill="#FFFFFF" width="150" height="128"/>
</svg>
