<?xml version="1.0" encoding="utf-8"?>
<!-- Generator: Adobe Illustrator 15.1.0, SVG Export Plug-In . SVG Version: 6.00 Build 0)  -->
<!DOCTYPE svg PUBLIC "-//W3C//DTD SVG 1.1//EN" "http://www.w3.org/Graphics/SVG/1.1/DTD/svg11.dtd">
<svg version="1.1" id="Layer_1" xmlns="http://www.w3.org/2000/svg" xmlns:xlink="http://www.w3.org/1999/xlink" x="0px" y="0px"
	 width="1024px" height="768px" viewBox="0 0 1024 768" enable-background="new 0 0 1024 768" xml:space="preserve">
<rect x="-88" fill="#00233D" width="1278" height="768"/>
<path fill="#012B4A" d="M541,800c0,6.627-7.096,12-15.863,12H52.874C44.107,812,37,806.627,37,800V146c0-6.627,7.107-12,15.874-12
	h472.263c8.768,0,15.863,5.373,15.863,12V800z"/>
<path fill="#023558" d="M520,779c0,6.627-6.552,12-14.641,12H69.646C61.558,791,55,785.627,55,779V125c0-6.627,6.558-12,14.646-12
	h435.714c8.089,0,14.641,5.373,14.641,12V779z"/>
<path fill="#05507A" d="M520,418.714c0,6.785-5.424,12.286-12.115,12.286H65.62C58.93,431,54,425.499,54,418.714V120.786
	C54,114.001,58.93,109,65.62,109h442.265c6.691,0,12.115,5.001,12.115,11.786V418.714z"/>
<path fill="#023558" d="M482,379.971c0,2.424-5.43,4.029-12.135,4.029H108.663C101.958,384,97,382.395,97,379.971V140.796
	c0-2.424,4.958-4.796,11.663-4.796h361.202c6.705,0,12.135,2.372,12.135,4.796V379.971z"/>
<g>
	<g>
		<path fill="#0A6F9B" d="M384.722,449.335l-35.79-58.774l-59.084-0.228v0.416l-67.54,0.255l-30.014,66.768l0.336-1.891
			c-4.151,7.184-8.013,15.814-11.497,24.874c30.739,11.67,67.771,18.491,107.646,18.491c40.939,0,78.893-7.193,110.106-19.445
			c-4.007-10.354-8.503-20.135-13.367-27.78C384.287,450.083,384.25,449.406,384.722,449.335z"/>
	</g>
	<path fill="#D2EDF9" d="M196.758,451.717c0,0,1.119-0.852,2.168-1.441l23.465-59.254l-6.232,0.022
		c-112.096,15.71-89.002,68.68-89.002,68.68C154.568,504.068,196.758,451.717,196.758,451.717z"/>
	<path fill="#D2EDF9" d="M364.682,391.25l-15.723-0.058l38.082,62.539l-0.908,0.556c8.758,9.697,43.734,44.178,67.55,5.639
		C453.683,459.926,476.781,406.956,364.682,391.25z"/>
	<path fill="#2D3551" d="M277.699,223.717"/>
	<ellipse fill="#D2EDF9" cx="287.555" cy="318.953" rx="99.782" ry="75.521"/>
	<path fill="#023558" d="M408.076,327.784l-0.014-1.228c-27.367,27.354-70.333,44.985-118.662,44.985
		c-47.471,0-89.772-17.014-117.193-43.542c-22.678,13.277-20.527,36.739-20.527,36.739c1.114,11.85,6.266,20.193,11.613,25.809
		c-3.193,4.246-5.08,9.45-5.08,15.073c0,14.287,12.131,25.872,27.099,25.872c0.944,0,1.882-0.05,2.803-0.14
		c13.948,35.851,50.028,27.98,66.593,22.11c5.916,8.825,19.222,14.98,34.693,14.98c15.791,0,29.324-6.404,35.057-15.518
		c14.976,5.576,49.821,14.41,65.656-16.198c11.922-1.066,23.082-9.619,27.721-22.589c2.95-8.25,2.724-16.789-0.031-24.076
		c5.186-5.606,10.07-13.813,11.154-25.324C428.957,364.739,431.139,341.025,408.076,327.784z"/>
	<path fill="#D2EDF9" d="M195.781,321.035c0,8.505-6.894,15.396-15.396,15.396c-8.506,0-15.401-6.891-15.401-15.396
		c0-8.504,6.896-15.401,15.401-15.401C188.888,305.634,195.781,312.531,195.781,321.035z"/>
	<path fill="#D2EDF9" d="M412.591,324.73c0,8.505-6.897,15.396-15.403,15.396c-8.502,0-15.395-6.892-15.395-15.396
		c0-8.506,6.893-15.396,15.395-15.396C405.693,309.334,412.591,316.225,412.591,324.73z"/>
	<path fill="#023558" d="M204.944,354.216c0,4.468-4.931,8.088-11.007,8.088l0,0c-6.083,0-11.013-3.62-11.013-8.088v-61.438
		c0-4.465,4.93-8.083,11.013-8.083l0,0c6.076,0,11.007,3.619,11.007,8.083V354.216z"/>
	<path fill="#023558" d="M397.114,357.297c0,4.464-5.206,8.082-11.626,8.082l0,0c-6.422,0-11.627-3.618-11.627-8.082v-61.438
		c0-4.465,5.205-8.084,11.627-8.084l0,0c6.42,0,11.626,3.619,11.626,8.084V357.297z"/>
	<path fill="#012B4A" d="M293.099,233.575c-47.128,0-88.106,8.383-109.019,20.725v37.385
		c20.912,12.341,61.891,20.725,109.019,20.725c43.67,0,82.053-7.197,104.089-18.071v-42.691
		C375.151,240.771,336.769,233.575,293.099,233.575z"/>
	<ellipse fill="#0A6F9B" cx="287.348" cy="234.193" rx="104.091" ry="58.515"/>
	<path fill="#0A6F9B" d="M201.737,200.931c0,0-24.64,22.786-25.87,49.889c-1.232,27.103,32.028,8.625,32.028,8.625L201.737,200.931z
		"/>
	<path fill="#0A6F9B" d="M376.625,203.395c0,0,24.635,22.789,25.869,49.888c1.232,27.103-32.025,8.626-32.025,8.626L376.625,203.395
		z"/>
	<ellipse fill="#0A6F9B" cx="285.884" cy="174.549" rx="23.094" ry="22.173"/>
	<path fill="#0A6F9B" d="M411.779,278.541c0,8.165-7.202,14.779-16.082,14.779H183.954c-8.88,0-16.082-6.614-16.082-14.779v-13.552
		c0-8.164,7.202-14.783,16.082-14.783h211.743c8.88,0,16.082,6.619,16.082,14.783V278.541z"/>
	<path fill="#012B4A" d="M363.571,355.648c-6.409,3.515-21.294,3.104-40.108-10.336c-17.819-12.727-30.998,1.987-32.342,3.582
		c-0.689-0.836-14.107-16.779-32.433-3.684c-18.813,13.433-33.7,13.851-40.106,10.334c-6.415-3.515-3.723,1.859-3.723,1.859
		c2.687,12.405,17.573,22.333,17.573,22.333c22.699,10.95,56.144,1.187,58.572,0.452v0.063c0,0,35.146,10.958,58.714-0.418
		c0,0,14.886-9.919,17.572-22.324C367.291,357.511,369.979,352.134,363.571,355.648z"/>
	<path fill="#FCD1C3" d="M422.957,477.378c0,0,1.77-1.409,3.279-3.498c1.713-2.378,3.085-5.637,1.087-8.692
		c-3.744-5.735,0.416-21.271,13.108-18.401c12.692,2.866-6.193,24.43-9.629,25.145c-1.445,0.306-1.63,2.025-2.543,3.451
		c-1.249,1.951,0.241,1.79,0.241,1.79L422.957,477.378z"/>
	<path fill="#FCD1C3" d="M165.602,473.988c0,0-1.621-0.175-3.125-2.263c-1.719-2.377-3.091-5.638-1.092-8.695
		c3.742-5.732-0.418-21.269-13.108-18.402c-12.692,2.871,6.192,24.435,9.628,25.149c1.447,0.301,1.635,2.025,2.544,3.449
		c1.249,1.952-0.241,1.793-0.241,1.793L165.602,473.988z"/>
	<path d="M356.958,326c-0.38-6.029-5.381-10.809-11.507-10.809c-6.131,0-11.129,4.779-11.508,10.809H356.958z"/>
	<path d="M243.958,327c-0.38-6.029-5.381-10.809-11.507-10.809c-6.131,0-11.129,4.779-11.508,10.809H243.958z"/>
</g>
<path fill="#00233D" d="M520,776c0,6.627-5.373,12-12,12H68c-6.627,0-12-5.373-12-12V434c0-6.627,5.373-12,12-12h440
	c6.627,0,12,5.373,12,12V776z"/>
<path fill="#00233D" d="M852,668c0,5.522-4.477,10-10,10l0,0c-5.523,0-10-4.478-10-10V244c0-5.523,4.477-10,10-10l0,0
	c5.523,0,10,4.477,10,10V668z"/>
<path fill="#00233D" d="M986,438H760v20h226c5.522,0,10-4.477,10-10S991.522,438,986,438z"/>
<path fill="#012B4A" d="M-105,51.605V53h1279v-1.083c20-0.609,37.193-12.331,37.193-26.707c0-14.766-17.096-26.361-38.387-26.361
	c-3.175,0-6.097,0.15-9.05,1.15H-88.124c-2.953-1-6.037-1.15-9.214-1.15c-21.287,0-39.305,11.783-39.305,26.548
	C-136.643,38.712-122,49.563-105,51.605z"/>
<path fill="#012B4A" d="M-105,52.289V51h1279v0.976c20,0.609,37.193,12.331,37.193,26.707c0,14.766-17.096,26.415-38.387,26.415
	c-3.175,0-6.097-0.098-9.05-1.098H-88.124c-2.953,1-6.037,1.098-9.214,1.098c-21.287,0-39.305-11.81-39.305-26.576
	C-136.643,65.207-122,54.331-105,52.289z"/>
<path fill="#023558" d="M1033.242,54c0,1.284,2.201,2,4.914,2h111.375c2.715,0,4.914-0.716,4.914-2l0,0c0-1.284-2.199-2-4.914-2
	h-111.375C1035.443,52,1033.242,52.716,1033.242,54L1033.242,54z"/>
<path fill="#023558" d="M991.549,54c0,1.284,0.686,2,1.532,2h34.749c0.846,0,1.533-0.716,1.533-2l0,0c0-1.284-0.688-2-1.533-2
	h-34.749C992.234,52,991.549,52.716,991.549,54L991.549,54z"/>
<path fill="#023558" d="M915.227,53c0,1.284,1.283,2,2.864,2h64.945c1.583,0,2.864-0.716,2.864-2l0,0c0-1.283-1.281-2-2.864-2
	h-64.945C916.51,51,915.227,51.717,915.227,53L915.227,53z"/>
<path fill="#023558" d="M872.826,53c0,1.284,0.688,2,1.531,2h34.75c0.847,0,1.531-0.716,1.531-2l0,0c0-1.283-0.685-2-1.531-2h-34.75
	C873.514,51,872.826,51.717,872.826,53L872.826,53z"/>
<path fill="#023558" d="M747.037,53c0,1.284,2.199,2,4.914,2h111.375c2.715,0,4.914-0.716,4.914-2l0,0c0-1.283-2.199-2-4.914-2
	H751.951C749.236,51,747.037,51.717,747.037,53L747.037,53z"/>
<path fill="#023558" d="M704.283,53c0,1.284,0.686,2,1.532,2h34.748c0.847,0,1.533-0.716,1.533-2l0,0c0-1.283-0.687-2-1.533-2
	h-34.748C704.969,51,704.283,51.717,704.283,53L704.283,53z"/>
<path fill="#023558" d="M629.021,53c0,1.284,1.281,2,2.863,2h64.945c1.583,0,2.866-0.716,2.866-2l0,0c0-1.283-1.283-2-2.866-2
	h-64.945C630.303,51,629.021,51.717,629.021,53L629.021,53z"/>
<path fill="#023558" d="M586.619,52c0,1.284,0.687,2,1.533,2H622.9c0.846,0,1.533-0.716,1.533-2l0,0c0-1.284-0.688-2-1.533-2
	h-34.748C587.306,50,586.619,50.716,586.619,52L586.619,52z"/>
<path fill="#023558" d="M544.219,52c0,1.284,0.686,2,1.531,2h34.75c0.848,0,1.533-0.716,1.533-2l0,0c0-1.284-0.686-2-1.533-2h-34.75
	C544.904,50,544.219,50.716,544.219,52L544.219,52z"/>
<path fill="#023558" d="M468.957,52c0,1.284,1.283,2,2.864,2h64.946c1.582,0,2.863-0.716,2.863-2l0,0c0-1.284-1.281-2-2.863-2
	h-64.946C470.24,50,468.957,50.716,468.957,52L468.957,52z"/>
<path fill="#023558" d="M343.168,52c0,1.284,2.197,2,4.912,2h111.377c2.715,0,4.914-0.716,4.914-2l0,0c0-1.284-2.199-2-4.914-2
	H348.08C345.365,50,343.168,50.716,343.168,52L343.168,52z"/>
<path fill="#023558" d="M218.084,52c0,1.284,2.198,2,4.914,2h111.377c2.715,0,4.912-0.716,4.912-2l0,0c0-1.284-2.197-2-4.912-2
	H222.998C220.282,50,218.084,50.716,218.084,52L218.084,52z"/>
<path fill="#023558" d="M176.39,52c0,1.284,0.688,2,1.533,2h34.748c0.848,0,1.532-0.716,1.532-2l0,0c0-1.284-0.685-2-1.532-2
	h-34.748C177.077,50,176.39,50.716,176.39,52L176.39,52z"/>
<path fill="#023558" d="M100.068,51.5c0,1.284,1.283,2.5,2.864,2.5h64.945c1.583,0,2.864-1.216,2.864-2.5l0,0
	c0-1.283-1.281-2.5-2.864-2.5h-64.945C101.352,49,100.068,50.217,100.068,51.5L100.068,51.5z"/>
<path fill="#023558" d="M57.668,51.5c0,1.284,0.688,2.5,1.533,2.5h34.748c0.847,0,1.531-1.216,1.531-2.5l0,0
	c0-1.283-0.685-2.5-1.531-2.5H59.201C58.355,49,57.668,50.217,57.668,51.5L57.668,51.5z"/>
<path fill="#023558" d="M14.207,51.5c0,1.284,0.685,2.5,1.532,2.5h34.748c0.847,0,1.533-1.216,1.533-2.5l0,0
	c0-1.283-0.687-2.5-1.533-2.5H15.739C14.892,49,14.207,50.217,14.207,51.5L14.207,51.5z"/>
<path fill="#023558" d="M-62.115,50.5c0,1.283,1.284,2.5,2.864,2.5H5.694c1.583,0,2.866-1.217,2.866-2.5l0,0
	c0-1.284-1.283-2.5-2.866-2.5h-64.945C-60.831,48-62.115,49.216-62.115,50.5L-62.115,50.5z"/>
<g>
	<circle fill="#012B4A" cx="940" cy="-58" r="86"/>
	<circle fill="#AECEF4" cx="939.442" cy="-57.441" r="74.273"/>
	<path fill="#D7E7FB" d="M884.513-104.932L994.712-8.715C981.15,6.58,961.131,16.269,938.776,16.269
		c-40.852,0-73.964-32.312-73.964-72.169C864.812-74.835,872.292-92.054,884.513-104.932z"/>
</g>
<rect x="1" y="-202" fill="#F5F5F5" width="1188" height="201"/>
<path opacity="0.06" fill="#D7E7FB" d="M1086.248,104H773.752C735.543,143.27,712,196.881,712,256c0,120.398,97.602,218,218,218
	s218-97.602,218-218C1148,196.881,1124.457,143.27,1086.248,104z"/>
<path opacity="0.06" fill="#D7E7FB" d="M1100.183,102C1060.457,60.121,1004.28,34,942,34s-118.457,26.121-158.183,68H1100.183z"/>
<path fill="#012B4A" d="M848,366c0,6.627-5.373,12-12,12H624c-6.627,0-12-5.373-12-12V154c0-6.627,5.373-12,12-12h212
	c6.627,0,12,5.373,12,12V366z"/>
<path opacity="0.06" fill="#D7E7FB" d="M823,142h-81.822C720.779,175.169,709,214.204,709,256c0,45.199,13.757,87.185,37.31,122H823
	c6.627,0,12-5.373,12-12V154C835,147.373,829.627,142,823,142z"/>
<ellipse fill="#012B4A" cx="619" cy="617" rx="45" ry="31"/>
<ellipse fill="#00233D" cx="609" cy="615.355" rx="25" ry="17.223"/>
<ellipse fill="#012B4A" cx="621" cy="700" rx="45" ry="31"/>
<ellipse fill="#00233D" cx="611" cy="698.355" rx="25" ry="17.223"/>
<path fill="#0A6F9B" d="M743.029,289.741c2.393,6.18-0.678,13.13-6.858,15.523l-46.627,18.052
	c-6.181,2.393-13.131-0.678-15.523-6.858l-31.05-80.199c-2.393-6.18,0.679-13.13,6.858-15.523l46.628-18.052
	c6.18-2.393,13.13,0.678,15.522,6.858L743.029,289.741z"/>
<path fill="#0A6F9B" d="M667.971,314.741c-2.393,6.181,0.678,13.13,6.858,15.522l46.627,18.053
	c6.181,2.393,13.131-0.678,15.523-6.858l31.05-80.199c2.393-6.18-0.679-13.13-6.858-15.523l-46.628-18.052
	c-6.18-2.393-13.13,0.678-15.522,6.858L667.971,314.741z"/>
<path fill="#1287AF" d="M761.171,245.736l-46.628-18.052c-1.187-0.459-2.4-0.713-3.606-0.787C709.665,236.417,709,246.13,709,256
	c0,33.079,7.376,64.432,20.56,92.518c3.284-1.089,6.073-3.582,7.42-7.06l31.05-80.199
	C770.422,255.079,767.351,248.128,761.171,245.736z"/>
<path fill="#1287AF" d="M793,328.25c0,2.071-1.679,3.75-3.75,3.75h-0.5c-2.071,0-3.75-1.679-3.75-3.75v-53.5
	c0-2.071,1.679-3.75,3.75-3.75h0.5c2.071,0,3.75,1.679,3.75,3.75V328.25z"/>
<circle fill="#1287AF" cx="780.698" cy="197.85" r="26.249"/>
<circle fill="#0A6F9B" cx="781.448" cy="198.6" r="16.5"/>
<ellipse fill="#1287AF" cx="809.946" cy="198.85" rx="7.5" ry="8.25"/>
</svg>
