<?xml version="1.0" encoding="utf-8"?>
<!-- Generator: Adobe Illustrator 15.1.0, SVG Export Plug-In . SVG Version: 6.00 Build 0)  -->
<!DOCTYPE svg PUBLIC "-//W3C//DTD SVG 1.1//EN" "http://www.w3.org/Graphics/SVG/1.1/DTD/svg11.dtd">
<svg version="1.1" id="Layer_1" xmlns="http://www.w3.org/2000/svg" xmlns:xlink="http://www.w3.org/1999/xlink" x="0px" y="0px"
	 width="1024px" height="768px" viewBox="0 0 1024 768" enable-background="new 0 0 1024 768" xml:space="preserve">
<rect y="-3" fill="#D7E7FB" width="1042" height="436"/>
<path fill="#AECEF4" d="M-17,746.528C-17,788.353,1.553,822,24.217,822h998.502c22.663,0,41.281-33.647,41.281-75.472V557.191
	c0-41.823-18.618-75.191-41.281-75.191H24.217C1.553,482-17,515.368-17,557.191V746.528z"/>
<path fill="#8DC73F" d="M1044,482.319c0,11.083-4.874,20.681-11.951,20.681H11.989C4.91,503-1,493.402-1,482.319v-30.104
	C-1,441.132,4.91,431,11.989,431h1020.06c7.077,0,11.951,10.132,11.951,21.215V482.319z"/>
<circle fill="#388A29" cx="76.541" cy="353.425" r="76.861"/>
<path fill="#306D23" d="M0,254.347v185.428c32-17.82,55.27-52.655,55.27-92.713C55.27,307.003,32,272.168,0,254.347z"/>
<path fill="#306D23" d="M180.871,434c-17.824-33-52.654-55.252-92.705-55.252C48.114,378.748,13.283,401-4.541,434H180.871z"/>
<rect y="433" fill="#388A29" width="1040" height="10"/>
</svg>
