<?xml version="1.0" encoding="utf-8"?>
<!-- Generator: Adobe Illustrator 15.1.0, SVG Export Plug-In . SVG Version: 6.00 Build 0)  -->
<!DOCTYPE svg PUBLIC "-//W3C//DTD SVG 1.1//EN" "http://www.w3.org/Graphics/SVG/1.1/DTD/svg11.dtd">
<svg version="1.1" id="Layer_1" xmlns="http://www.w3.org/2000/svg" xmlns:xlink="http://www.w3.org/1999/xlink" x="0px" y="0px"
	 width="1113px" height="338px" viewBox="0 0 1113 338" enable-background="new 0 0 1113 338" xml:space="preserve">
<ellipse fill="#6373C1" cx="73" cy="324.712" rx="45.5" ry="11.333"/>
<ellipse fill="#6373C1" cx="195.833" cy="325.609" rx="45" ry="10.417"/>
<g>
	<path fill="#8190FF" d="M132.998,283.676c-32.387,0-62.46-5.593-87.371-15.161c-9.677,25.001-15.835,54.159-15.835,54.159
		c19.333,14,63.333,5.334,76.667,4.667s12-16.667,12-20.667c0-3.194,5.12-6.381,15.666-6.858v-0.307
		c10.247,0.545,15.235,3.682,15.235,6.831c0,4-1.334,20,12,20.667s57.334,9.333,76.668-4.667c0,0-6.213-29.415-15.964-54.489
		C196.827,277.822,166.124,283.676,132.998,283.676z"/>
</g>
<g>
	<path fill="#FCC447" d="M210.713,242.825l-29.054-47.713l-47.965-0.184v0.336l-54.827,0.209l-24.366,54.199l0.271-1.534
		c-3.369,5.831-6.502,12.838-9.33,20.191c24.953,9.475,55.016,15.012,87.385,15.012c33.236,0,64.044-5.838,89.383-15.783
		c-3.252-8.406-6.902-16.346-10.85-22.551C210.358,243.433,210.331,242.884,210.713,242.825z"/>
</g>
<path fill="#FFDFD3" d="M58.125,244.758c0,0,0.908-0.689,1.76-1.168l19.051-48.102l-5.061,0.02c-91,12.75-72.25,55.75-72.25,55.75
	C23.875,287.258,58.125,244.758,58.125,244.758z"/>
<path fill="#FFDFD3" d="M194.444,195.674l-12.766-0.049l30.917,50.771l-0.737,0.449c7.108,7.871,35.501,35.863,54.836,4.579
	C266.694,251.424,285.444,208.424,194.444,195.674z"/>
<path fill="#2D3551" d="M123.831,59.673"/>
<ellipse fill="#FFDFD3" cx="131.834" cy="136.982" rx="81" ry="61.31"/>
<path d="M97.205,144.303c0,5.174-4.195,9.37-9.371,9.37c-5.174,0-9.37-4.196-9.37-9.37c0-5.179,4.196-9.374,9.37-9.374
	C93.01,134.929,97.205,139.124,97.205,144.303z"/>
<circle cx="178.833" cy="143.299" r="9.371"/>
<path fill="#FF6260" d="M229.672,144.151l-0.013-0.995c-22.214,22.205-57.095,36.517-96.325,36.517
	c-38.537,0-72.879-13.811-95.139-35.347c-18.408,10.781-16.664,29.826-16.664,29.826c0.905,9.617,5.085,16.393,9.428,20.952
	c-2.593,3.446-4.125,7.669-4.125,12.235c0,11.598,9.85,21,22,21c0.768,0,1.526-0.038,2.274-0.111
	c11.327,29.101,40.613,22.714,54.059,17.947c4.806,7.165,15.604,12.163,28.167,12.163c12.816,0,23.803-5.199,28.457-12.598
	c12.156,4.526,40.444,11.697,53.297-13.148c9.678-0.868,18.739-7.811,22.505-18.339c2.396-6.697,2.209-13.63-0.024-19.543
	c4.207-4.553,8.176-11.217,9.055-20.559C246.623,174.152,248.395,154.901,229.672,144.151z"/>
<circle fill="#FFDFD3" cx="44.834" cy="138.673" r="12.5"/>
<circle fill="#FFDFD3" cx="220.834" cy="141.673" r="12.5"/>
<path fill="#FF6260" d="M64.771,165.61c0,3.625-4.001,6.562-8.938,6.562l0,0c-4.937,0-8.938-2.938-8.938-6.562v-49.875
	c0-3.625,4.001-6.562,8.938-6.562l0,0c4.937,0,8.938,2.938,8.938,6.562V165.61z"/>
<path fill="#FF6260" d="M220.771,168.11c0,3.625-4.225,6.562-9.438,6.562l0,0c-5.213,0-9.438-2.938-9.438-6.562v-49.875
	c0-3.625,4.225-6.562,9.438-6.562l0,0c5.213,0,9.438,2.938,9.438,6.562V168.11z"/>
<path fill="#FF6260" d="M136.334,67.673c-38.259,0-71.521,6.808-88.5,16.825v30.35c16.979,10.018,50.241,16.825,88.5,16.825
	c35.449,0,66.608-5.845,84.5-14.672V82.345C202.942,73.518,171.783,67.673,136.334,67.673z"/>
<ellipse fill="#FFC556" cx="131.667" cy="68.174" rx="84.5" ry="47.5"/>
<path fill="#FFC556" d="M62.167,41.174c0,0-20,18.5-21,40.5s26,7,26,7L62.167,41.174z"/>
<path fill="#FFC556" d="M204.14,43.174c0,0,20,18.5,21,40.5s-26,7-26,7L204.14,43.174z"/>
<ellipse fill="#F9A715" cx="130.478" cy="19.759" rx="18.749" ry="17.999"/>
<path fill="#F9A715" d="M232.678,104.176c0,6.627-5.846,12-13.055,12H47.732c-7.209,0-13.055-5.373-13.055-12v-11
	c0-6.627,5.846-12,13.055-12h171.891c7.209,0,13.055,5.373,13.055,12V104.176z"/>
<path fill="#EA534C" d="M193.541,166.771c-5.201,2.853-17.286,2.519-32.559-8.392c-14.465-10.332-25.164,1.614-26.256,2.908
	c-0.558-0.68-11.449-13.619-26.326-2.991c-15.272,10.908-27.356,11.245-32.56,8.392c-5.204-2.854-3.021,1.51-3.021,1.51
	c2.181,10.069,14.266,18.127,14.266,18.127c18.428,8.892,45.577,0.964,47.548,0.37v0.049c0,0,28.53,8.896,47.664-0.336
	c0,0,12.083-8.056,14.266-18.125C196.563,168.283,198.744,163.919,193.541,166.771z"/>
<path fill="#FCD1C3" d="M241.751,265.589c0,0,1.438-1.144,2.66-2.837c1.394-1.931,2.506-4.577,0.887-7.059
	c-3.04-4.655,0.338-17.266,10.64-14.938c10.302,2.328-5.029,19.833-7.816,20.415c-1.176,0.246-1.325,1.645-2.066,2.801
	c-1.014,1.584,0.196,1.452,0.196,1.452L241.751,265.589z"/>
<path fill="#FCD1C3" d="M32.834,262.84c0,0-1.317-0.145-2.539-1.838c-1.394-1.931-2.506-4.577-0.887-7.059
	c3.04-4.655-0.338-17.266-10.64-14.938c-10.302,2.328,5.029,19.833,7.816,20.415c1.176,0.246,1.325,1.645,2.066,2.801
	c1.014,1.584-0.196,1.452-0.196,1.452L32.834,262.84z"/>
<g>
	<path fill="#EA534C" d="M229.161,143.82l-0.002-0.164c-0.521,0.521-1.055,1.032-1.59,1.544
		C228.108,144.746,228.634,144.283,229.161,143.82z"/>
	<path fill="#EA534C" d="M137.834,254.339c-12.562,0-23.361-4.998-28.167-12.163c-13.445,4.767-42.731,11.153-54.059-17.947
		c-0.748,0.073-1.507,0.111-2.274,0.111c-12.15,0-22-9.402-22-21c0-4.566,1.532-8.789,4.125-12.235
		c-4.343-4.56-8.522-11.335-9.428-20.952c0,0-1.155-12.65,8.383-23.168c-14.909,10.977-13.383,27.668-13.383,27.668
		c0.905,9.617,5.085,16.393,9.428,20.952c-2.593,3.446-4.125,7.669-4.125,12.235c0,11.598,9.85,21,22,21
		c0.768,0,1.526-0.038,2.274-0.111c11.327,29.101,40.613,22.714,54.059,17.947c4.806,7.165,15.604,12.163,28.167,12.163
		c11.677,0,21.818-4.323,27.052-10.687C154.288,251.966,146.481,254.339,137.834,254.339z"/>
	<path fill="#EA534C" d="M219.588,228.593c-0.769,1.486-1.596,2.851-2.469,4.115c5.452-1.096,10.56-4.103,14.464-8.563
		C227.968,226.658,223.837,228.212,219.588,228.593z"/>
	<path fill="#EA534C" d="M166.291,241.741c-1.086,1.726-2.528,3.325-4.246,4.774c11.06,3.994,33.703,9.434,47.532-6.082
		C195.415,250.493,175.858,245.304,166.291,241.741z"/>
</g>
<ellipse fill="#6373C1" cx="350.511" cy="323.211" rx="45.5" ry="11.333"/>
<ellipse fill="#6373C1" cx="473.345" cy="324.108" rx="45" ry="10.417"/>
<g>
	<path fill="#8190FF" d="M410.51,282.175c-32.387,0-62.46-5.593-87.371-15.161c-9.677,25.001-15.835,54.159-15.835,54.159
		c19.333,14,63.333,5.334,76.667,4.667s12-16.667,12-20.667c0-3.194,5.12-6.381,15.666-6.858v-0.307
		c10.247,0.545,15.235,3.682,15.235,6.831c0,4-1.334,20,12,20.667s57.334,9.333,76.668-4.667c0,0-6.213-29.415-15.964-54.489
		C474.339,276.321,443.636,282.175,410.51,282.175z"/>
</g>
<g>
	<path fill="#FCC447" d="M488.225,241.324l-29.054-47.713l-47.965-0.184v0.336l-54.827,0.209l-24.366,54.199l0.271-1.534
		c-3.369,5.831-6.502,12.838-9.33,20.191c24.953,9.475,55.016,15.012,87.385,15.012c33.236,0,64.044-5.838,89.383-15.783
		c-3.252-8.406-6.902-16.346-10.85-22.551C487.87,241.932,487.843,241.383,488.225,241.324z"/>
</g>
<path fill="#FFDFD3" d="M335.637,243.257c0,0,0.908-0.689,1.76-1.168l19.051-48.102l-5.061,0.02c-91,12.75-72.25,55.75-72.25,55.75
	C301.387,285.757,335.637,243.257,335.637,243.257z"/>
<path fill="#FFDFD3" d="M471.956,194.173l-12.766-0.049l30.917,50.771l-0.737,0.449c7.108,7.871,35.501,35.863,54.836,4.579
	C544.206,249.923,562.956,206.923,471.956,194.173z"/>
<path fill="#2D3551" d="M401.343,58.172"/>
<ellipse fill="#FFDFD3" cx="409.346" cy="135.481" rx="81" ry="61.31"/>
<path d="M374.717,142.802c0,5.174-4.195,9.37-9.371,9.37c-5.174,0-9.37-4.196-9.37-9.37c0-5.179,4.196-9.374,9.37-9.374
	C370.521,133.428,374.717,137.623,374.717,142.802z"/>
<circle cx="456.345" cy="141.798" r="9.371"/>
<path fill="#FF6260" d="M507.184,142.65l-0.013-0.995c-22.214,22.205-57.095,36.517-96.325,36.517
	c-38.537,0-72.879-13.811-95.139-35.347c-18.408,10.781-16.664,29.826-16.664,29.826c0.905,9.617,5.085,16.393,9.428,20.952
	c-2.593,3.446-4.125,7.669-4.125,12.235c0,11.598,9.85,21,22,21c0.768,0,1.526-0.038,2.274-0.111
	c11.327,29.101,40.613,22.714,54.059,17.947c4.806,7.165,15.604,12.163,28.167,12.163c12.816,0,23.803-5.199,28.457-12.598
	c12.156,4.526,40.444,11.697,53.297-13.148c9.678-0.868,18.739-7.811,22.505-18.339c2.396-6.697,2.209-13.63-0.024-19.543
	c4.207-4.553,8.176-11.217,9.055-20.559C524.135,172.651,525.906,153.4,507.184,142.65z"/>
<circle fill="#FFDFD3" cx="322.346" cy="137.172" r="12.5"/>
<circle fill="#FFDFD3" cx="498.346" cy="140.172" r="12.5"/>
<path fill="#FF6260" d="M342.283,164.109c0,3.625-4.001,6.562-8.938,6.562l0,0c-4.937,0-8.938-2.938-8.938-6.562v-49.875
	c0-3.625,4.001-6.562,8.938-6.562l0,0c4.937,0,8.938,2.938,8.938,6.562V164.109z"/>
<path fill="#FF6260" d="M498.283,166.609c0,3.625-4.225,6.562-9.438,6.562l0,0c-5.213,0-9.438-2.938-9.438-6.562v-49.875
	c0-3.625,4.225-6.562,9.438-6.562l0,0c5.213,0,9.438,2.938,9.438,6.562V166.609z"/>
<path fill="#FF6260" d="M413.846,66.172c-38.259,0-71.521,6.808-88.5,16.825v30.35c16.979,10.018,50.241,16.825,88.5,16.825
	c35.449,0,66.608-5.845,84.5-14.672V80.844C480.454,72.017,449.295,66.172,413.846,66.172z"/>
<ellipse fill="#FFC556" cx="409.179" cy="66.673" rx="84.5" ry="47.5"/>
<path fill="#FFC556" d="M339.679,39.673c0,0-20,18.5-21,40.5s26,7,26,7L339.679,39.673z"/>
<path fill="#FFC556" d="M481.651,41.673c0,0,20,18.5,21,40.5s-26,7-26,7L481.651,41.673z"/>
<ellipse fill="#F9A715" cx="407.989" cy="18.258" rx="18.749" ry="17.999"/>
<path fill="#F9A715" d="M510.189,102.675c0,6.627-5.846,12-13.055,12H325.244c-7.209,0-13.055-5.373-13.055-12v-11
	c0-6.627,5.846-12,13.055-12h171.891c7.209,0,13.055,5.373,13.055,12V102.675z"/>
<path fill="#EA534C" d="M468.767,161.314c-5.201,2.853-17.286,2.519-32.559-8.392c-14.465-10.332-25.164,1.614-26.256,2.908
	c-0.558-0.68-11.449-13.619-26.326-2.991c-15.272,10.908-27.356,11.245-32.56,8.392c-5.204-2.854-3.021,1.51-3.021,1.51
	c2.181,10.069,14.266,18.127,14.266,18.127c18.428,8.892,45.577,0.964,47.548,0.37v0.049c0,0,28.53,8.896,47.664-0.336
	c0,0,12.083-8.056,14.266-18.125C471.789,162.826,473.97,158.462,468.767,161.314z"/>
<path fill="#FCD1C3" d="M519.263,264.088c0,0,1.438-1.144,2.66-2.837c1.394-1.931,2.506-4.577,0.887-7.059
	c-3.04-4.655,0.338-17.266,10.64-14.938c10.302,2.328-5.029,19.833-7.816,20.415c-1.176,0.246-1.325,1.645-2.066,2.801
	c-1.014,1.584,0.196,1.452,0.196,1.452L519.263,264.088z"/>
<path fill="#FCD1C3" d="M310.346,261.339c0,0-1.317-0.145-2.539-1.838c-1.394-1.931-2.506-4.577-0.887-7.059
	c3.04-4.655-0.338-17.266-10.64-14.938c-10.302,2.328,5.029,19.833,7.816,20.415c1.176,0.246,1.325,1.645,2.066,2.801
	c1.014,1.584-0.196,1.452-0.196,1.452L310.346,261.339z"/>
<g>
	<path fill="#EA534C" d="M506.673,142.319l-0.002-0.164c-0.521,0.521-1.055,1.032-1.59,1.544
		C505.62,143.245,506.146,142.782,506.673,142.319z"/>
	<path fill="#EA534C" d="M415.346,252.838c-12.562,0-23.361-4.998-28.167-12.163c-13.445,4.767-42.731,11.153-54.059-17.947
		c-0.748,0.073-1.507,0.111-2.274,0.111c-12.15,0-22-9.402-22-21c0-4.566,1.532-8.789,4.125-12.235
		c-4.343-4.56-8.522-11.335-9.428-20.952c0,0-1.155-12.65,8.383-23.168c-14.909,10.977-13.383,27.668-13.383,27.668
		c0.905,9.617,5.085,16.393,9.428,20.952c-2.593,3.446-4.125,7.669-4.125,12.235c0,11.598,9.85,21,22,21
		c0.768,0,1.526-0.038,2.274-0.111c11.327,29.101,40.613,22.714,54.059,17.947c4.806,7.165,15.604,12.163,28.167,12.163
		c11.677,0,21.818-4.323,27.052-10.687C431.8,250.465,423.993,252.838,415.346,252.838z"/>
	<path fill="#EA534C" d="M497.1,227.092c-0.769,1.486-1.596,2.851-2.469,4.115c5.452-1.096,10.56-4.103,14.464-8.563
		C505.479,225.157,501.349,226.711,497.1,227.092z"/>
	<path fill="#EA534C" d="M443.803,240.24c-1.086,1.726-2.528,3.325-4.246,4.774c11.06,3.994,33.703,9.434,47.532-6.082
		C472.927,248.992,453.37,243.803,443.803,240.24z"/>
</g>
<ellipse fill="#6373C1" cx="635.497" cy="323.211" rx="45.5" ry="11.333"/>
<ellipse fill="#6373C1" cx="758.33" cy="324.108" rx="45" ry="10.417"/>
<g>
	<path fill="#8190FF" d="M695.495,282.175c-32.387,0-62.46-5.593-87.371-15.161c-9.677,25.001-15.835,54.159-15.835,54.159
		c19.333,14,63.333,5.334,76.667,4.667s12-16.667,12-20.667c0-3.194,5.12-6.381,15.666-6.858v-0.307
		c10.247,0.545,15.235,3.682,15.235,6.831c0,4-1.334,20,12,20.667s57.334,9.333,76.668-4.667c0,0-6.213-29.415-15.964-54.489
		C759.324,276.321,728.621,282.175,695.495,282.175z"/>
</g>
<g>
	<path fill="#FCC447" d="M773.21,241.324l-29.054-47.713l-47.965-0.184v0.336l-54.827,0.209l-24.366,54.199l0.271-1.534
		c-3.369,5.831-6.502,12.838-9.33,20.191c24.953,9.475,55.016,15.012,87.385,15.012c33.236,0,64.044-5.838,89.383-15.783
		c-3.252-8.406-6.902-16.346-10.85-22.551C772.855,241.932,772.828,241.383,773.21,241.324z"/>
</g>
<path fill="#FFDFD3" d="M620.622,243.257c0,0,0.908-0.689,1.76-1.168l19.051-48.102l-5.061,0.02c-91,12.75-72.25,55.75-72.25,55.75
	C586.372,285.757,620.622,243.257,620.622,243.257z"/>
<path fill="#FFDFD3" d="M756.941,194.173l-12.766-0.049l30.917,50.771l-0.737,0.449c7.108,7.871,35.501,35.863,54.836,4.579
	C829.191,249.923,847.941,206.923,756.941,194.173z"/>
<path fill="#2D3551" d="M686.328,58.172"/>
<ellipse fill="#FFDFD3" cx="694.331" cy="135.481" rx="81" ry="61.31"/>
<path d="M659.702,142.802c0,5.174-4.195,9.37-9.371,9.37c-5.174,0-9.37-4.196-9.37-9.37c0-5.179,4.196-9.374,9.37-9.374
	C655.507,133.428,659.702,137.623,659.702,142.802z"/>
<circle cx="741.331" cy="141.798" r="9.371"/>
<path fill="#FF6260" d="M792.169,142.65l-0.013-0.995c-22.214,22.205-57.095,36.517-96.325,36.517
	c-38.537,0-72.879-13.811-95.139-35.347c-18.408,10.781-16.664,29.826-16.664,29.826c0.905,9.617,5.085,16.393,9.428,20.952
	c-2.593,3.446-4.125,7.669-4.125,12.235c0,11.598,9.85,21,22,21c0.768,0,1.526-0.038,2.274-0.111
	c11.327,29.101,40.613,22.714,54.059,17.947c4.806,7.165,15.604,12.163,28.167,12.163c12.816,0,23.803-5.199,28.457-12.598
	c12.156,4.526,40.444,11.697,53.297-13.148c9.678-0.868,18.739-7.811,22.505-18.339c2.396-6.697,2.209-13.63-0.024-19.543
	c4.207-4.553,8.176-11.217,9.055-20.559C809.12,172.651,810.892,153.4,792.169,142.65z"/>
<circle fill="#FFDFD3" cx="607.331" cy="137.172" r="12.5"/>
<circle fill="#FFDFD3" cx="783.331" cy="140.172" r="12.5"/>
<path fill="#FF6260" d="M627.269,164.109c0,3.625-4.001,6.562-8.938,6.562l0,0c-4.937,0-8.938-2.938-8.938-6.562v-49.875
	c0-3.625,4.001-6.562,8.938-6.562l0,0c4.937,0,8.938,2.938,8.938,6.562V164.109z"/>
<path fill="#FF6260" d="M783.269,166.609c0,3.625-4.225,6.562-9.438,6.562l0,0c-5.213,0-9.438-2.938-9.438-6.562v-49.875
	c0-3.625,4.225-6.562,9.438-6.562l0,0c5.213,0,9.438,2.938,9.438,6.562V166.609z"/>
<path fill="#FF6260" d="M698.831,66.172c-38.259,0-71.521,6.808-88.5,16.825v30.35c16.979,10.018,50.241,16.825,88.5,16.825
	c35.449,0,66.608-5.845,84.5-14.672V80.844C765.439,72.017,734.28,66.172,698.831,66.172z"/>
<ellipse fill="#FFC556" cx="694.164" cy="66.673" rx="84.5" ry="47.5"/>
<path fill="#FFC556" d="M624.664,39.673c0,0-20,18.5-21,40.5s26,7,26,7L624.664,39.673z"/>
<path fill="#FFC556" d="M766.637,41.673c0,0,20,18.5,21,40.5s-26,7-26,7L766.637,41.673z"/>
<ellipse fill="#F9A715" cx="692.975" cy="18.258" rx="18.749" ry="17.999"/>
<path fill="#F9A715" d="M795.175,102.675c0,6.627-5.846,12-13.055,12H610.229c-7.209,0-13.055-5.373-13.055-12v-11
	c0-6.627,5.846-12,13.055-12H782.12c7.209,0,13.055,5.373,13.055,12V102.675z"/>
<path fill="#EA534C" d="M756.038,165.271c-5.201,2.853-17.286,2.519-32.559-8.392c-14.465-10.332-25.164,1.614-26.256,2.908
	c-0.558-0.68-11.449-13.619-26.326-2.991c-15.272,10.908-27.356,11.245-32.56,8.392c-5.204-2.854-3.021,1.51-3.021,1.51
	c2.181,10.069,14.266,18.127,14.266,18.127c18.428,8.892,45.577,0.964,47.548,0.37v0.049c0,0,28.53,8.896,47.664-0.336
	c0,0,12.083-8.056,14.266-18.125C759.061,166.782,761.241,162.418,756.038,165.271z"/>
<path fill="#FCD1C3" d="M804.248,264.088c0,0,1.438-1.144,2.66-2.837c1.394-1.931,2.506-4.577,0.887-7.059
	c-3.04-4.655,0.338-17.266,10.64-14.938c10.302,2.328-5.029,19.833-7.816,20.415c-1.176,0.246-1.325,1.645-2.066,2.801
	c-1.014,1.584,0.196,1.452,0.196,1.452L804.248,264.088z"/>
<path fill="#FCD1C3" d="M595.331,261.339c0,0-1.317-0.145-2.539-1.838c-1.394-1.931-2.506-4.577-0.887-7.059
	c3.04-4.655-0.338-17.266-10.64-14.938c-10.302,2.328,5.029,19.833,7.816,20.415c1.176,0.246,1.325,1.645,2.066,2.801
	c1.014,1.584-0.196,1.452-0.196,1.452L595.331,261.339z"/>
<g>
	<path fill="#EA534C" d="M791.658,142.319l-0.002-0.164c-0.521,0.521-1.055,1.032-1.59,1.544
		C790.605,143.245,791.131,142.782,791.658,142.319z"/>
	<path fill="#EA534C" d="M700.331,252.838c-12.562,0-23.361-4.998-28.167-12.163c-13.445,4.767-42.731,11.153-54.059-17.947
		c-0.748,0.073-1.507,0.111-2.274,0.111c-12.15,0-22-9.402-22-21c0-4.566,1.532-8.789,4.125-12.235
		c-4.343-4.56-8.522-11.335-9.428-20.952c0,0-1.155-12.65,8.383-23.168c-14.909,10.977-13.383,27.668-13.383,27.668
		c0.905,9.617,5.085,16.393,9.428,20.952c-2.593,3.446-4.125,7.669-4.125,12.235c0,11.598,9.85,21,22,21
		c0.768,0,1.526-0.038,2.274-0.111c11.327,29.101,40.613,22.714,54.059,17.947c4.806,7.165,15.604,12.163,28.167,12.163
		c11.677,0,21.818-4.323,27.052-10.687C716.785,250.465,708.979,252.838,700.331,252.838z"/>
	<path fill="#EA534C" d="M782.085,227.092c-0.769,1.486-1.596,2.851-2.469,4.115c5.452-1.096,10.56-4.103,14.464-8.563
		C790.465,225.157,786.334,226.711,782.085,227.092z"/>
	<path fill="#EA534C" d="M728.788,240.24c-1.086,1.726-2.528,3.325-4.246,4.774c11.06,3.994,33.703,9.434,47.532-6.082
		C757.912,248.992,738.355,243.803,728.788,240.24z"/>
</g>
<ellipse fill="#6373C1" cx="916.493" cy="322.712" rx="45.5" ry="11.333"/>
<ellipse fill="#6373C1" cx="1039.326" cy="323.609" rx="45" ry="10.417"/>
<g>
	<path fill="#8190FF" d="M976.491,281.676c-32.387,0-62.46-5.593-87.371-15.161c-9.677,25.001-15.835,54.159-15.835,54.159
		c19.333,14,63.333,5.334,76.667,4.667s12-16.667,12-20.667c0-3.194,5.12-6.381,15.666-6.858v-0.307
		c10.247,0.545,15.235,3.682,15.235,6.831c0,4-1.334,20,12,20.667s57.334,9.333,76.668-4.667c0,0-6.213-29.415-15.964-54.489
		C1040.32,275.822,1009.617,281.676,976.491,281.676z"/>
</g>
<g>
	<path fill="#FCC447" d="M1054.206,240.825l-29.054-47.713l-47.965-0.184v0.336l-54.827,0.209l-24.366,54.199l0.271-1.534
		c-3.369,5.831-6.502,12.838-9.33,20.191c24.953,9.475,55.016,15.012,87.385,15.012c33.236,0,64.044-5.838,89.383-15.783
		c-3.252-8.406-6.902-16.346-10.85-22.551C1053.852,241.433,1053.824,240.884,1054.206,240.825z"/>
</g>
<path fill="#FFDFD3" d="M901.618,242.758c0,0,0.908-0.689,1.76-1.168l19.051-48.102l-5.061,0.02c-91,12.75-72.25,55.75-72.25,55.75
	C867.368,285.258,901.618,242.758,901.618,242.758z"/>
<path fill="#FFDFD3" d="M1037.938,193.674l-12.766-0.049l30.917,50.771l-0.737,0.449c7.108,7.871,35.501,35.863,54.836,4.579
	C1110.188,249.424,1128.938,206.424,1037.938,193.674z"/>
<path fill="#2D3551" d="M967.324,57.673"/>
<ellipse fill="#FFDFD3" cx="975.327" cy="134.982" rx="81" ry="61.31"/>
<path d="M940.698,142.303c0,5.174-4.195,9.37-9.371,9.37c-5.174,0-9.37-4.196-9.37-9.37c0-5.179,4.196-9.374,9.37-9.374
	C936.503,132.929,940.698,137.124,940.698,142.303z"/>
<circle cx="1022.327" cy="141.299" r="9.371"/>
<path fill="#FF6260" d="M1073.165,142.151l-0.013-0.995c-22.214,22.205-57.095,36.517-96.325,36.517
	c-38.537,0-72.879-13.811-95.139-35.347c-18.408,10.781-16.664,29.826-16.664,29.826c0.905,9.617,5.085,16.393,9.428,20.952
	c-2.593,3.446-4.125,7.669-4.125,12.235c0,11.598,9.85,21,22,21c0.768,0,1.526-0.038,2.274-0.111
	c11.327,29.101,40.613,22.714,54.059,17.947c4.806,7.165,15.604,12.163,28.167,12.163c12.816,0,23.803-5.199,28.457-12.598
	c12.156,4.526,40.444,11.697,53.297-13.148c9.678-0.868,18.739-7.811,22.505-18.339c2.396-6.697,2.209-13.63-0.024-19.543
	c4.207-4.553,8.176-11.217,9.055-20.559C1090.116,172.152,1091.888,152.901,1073.165,142.151z"/>
<circle fill="#FFDFD3" cx="888.327" cy="136.673" r="12.5"/>
<circle fill="#FFDFD3" cx="1064.327" cy="139.673" r="12.5"/>
<path fill="#FF6260" d="M908.265,163.61c0,3.625-4.001,6.562-8.938,6.562l0,0c-4.937,0-8.938-2.938-8.938-6.562v-49.875
	c0-3.625,4.001-6.562,8.938-6.562l0,0c4.937,0,8.938,2.938,8.938,6.562V163.61z"/>
<path fill="#FF6260" d="M1064.265,166.11c0,3.625-4.225,6.562-9.438,6.562l0,0c-5.213,0-9.438-2.938-9.438-6.562v-49.875
	c0-3.625,4.225-6.562,9.438-6.562l0,0c5.213,0,9.438,2.938,9.438,6.562V166.11z"/>
<path fill="#FF6260" d="M979.827,65.673c-38.259,0-71.521,6.808-88.5,16.825v30.35c16.979,10.018,50.241,16.825,88.5,16.825
	c35.449,0,66.608-5.845,84.5-14.672V80.345C1046.436,71.518,1015.276,65.673,979.827,65.673z"/>
<ellipse fill="#FFC556" cx="975.16" cy="66.174" rx="84.5" ry="47.5"/>
<path fill="#FFC556" d="M905.66,39.174c0,0-20,18.5-21,40.5s26,7,26,7L905.66,39.174z"/>
<path fill="#FFC556" d="M1047.633,41.174c0,0,20,18.5,21,40.5s-26,7-26,7L1047.633,41.174z"/>
<ellipse fill="#F9A715" cx="973.971" cy="17.759" rx="18.749" ry="17.999"/>
<path fill="#F9A715" d="M1076.171,102.176c0,6.627-5.846,12-13.055,12H891.226c-7.209,0-13.055-5.373-13.055-12v-11
	c0-6.627,5.846-12,13.055-12h171.891c7.209,0,13.055,5.373,13.055,12V102.176z"/>
<path fill="#EA534C" d="M1037.034,173.771c-5.201,2.853-17.286,2.519-32.559-8.392c-14.465-10.332-25.164,1.614-26.256,2.908
	c-0.558-0.68-11.449-13.619-26.326-2.991c-15.272,10.908-27.356,11.245-32.56,8.392c-5.204-2.854-3.021,1.51-3.021,1.51
	c2.181,10.069,14.266,18.127,14.266,18.127c18.428,8.892,45.577,0.964,47.548,0.37v0.049c0,0,28.53,8.896,47.664-0.336
	c0,0,12.083-8.056,14.266-18.125C1040.057,175.282,1042.237,170.918,1037.034,173.771z"/>
<path fill="#FCD1C3" d="M1085.244,263.589c0,0,1.438-1.144,2.66-2.837c1.394-1.931,2.506-4.577,0.887-7.059
	c-3.04-4.655,0.338-17.266,10.64-14.938c10.302,2.328-5.029,19.833-7.816,20.415c-1.176,0.246-1.325,1.645-2.066,2.801
	c-1.014,1.584,0.196,1.452,0.196,1.452L1085.244,263.589z"/>
<path fill="#FCD1C3" d="M876.327,260.84c0,0-1.317-0.145-2.539-1.838c-1.394-1.931-2.506-4.577-0.887-7.059
	c3.04-4.655-0.338-17.266-10.64-14.938c-10.302,2.328,5.029,19.833,7.816,20.415c1.176,0.246,1.325,1.645,2.066,2.801
	c1.014,1.584-0.196,1.452-0.196,1.452L876.327,260.84z"/>
<g>
	<path fill="#EA534C" d="M1072.654,141.82l-0.002-0.164c-0.521,0.521-1.055,1.032-1.59,1.544
		C1071.602,142.746,1072.127,142.283,1072.654,141.82z"/>
	<path fill="#EA534C" d="M981.327,252.339c-12.562,0-23.361-4.998-28.167-12.163c-13.445,4.767-42.731,11.153-54.059-17.947
		c-0.748,0.073-1.507,0.111-2.274,0.111c-12.15,0-22-9.402-22-21c0-4.566,1.532-8.789,4.125-12.235
		c-4.343-4.56-8.522-11.335-9.428-20.952c0,0-1.155-12.65,8.383-23.168c-14.909,10.977-13.383,27.668-13.383,27.668
		c0.905,9.617,5.085,16.393,9.428,20.952c-2.593,3.446-4.125,7.669-4.125,12.235c0,11.598,9.85,21,22,21
		c0.768,0,1.526-0.038,2.274-0.111c11.327,29.101,40.613,22.714,54.059,17.947c4.806,7.165,15.604,12.163,28.167,12.163
		c11.677,0,21.818-4.323,27.052-10.687C997.781,249.966,989.975,252.339,981.327,252.339z"/>
	<path fill="#EA534C" d="M1063.081,226.593c-0.769,1.486-1.596,2.851-2.469,4.115c5.452-1.096,10.56-4.103,14.464-8.563
		C1071.461,224.658,1067.33,226.212,1063.081,226.593z"/>
	<path fill="#EA534C" d="M1009.784,239.741c-1.086,1.726-2.528,3.325-4.246,4.774c11.06,3.994,33.703,9.434,47.532-6.082
		C1038.908,248.493,1019.352,243.304,1009.784,239.741z"/>
</g>
</svg>
