<?xml version="1.0" encoding="utf-8"?>
<!-- Generator: Adobe Illustrator 15.1.0, SVG Export Plug-In . SVG Version: 6.00 Build 0)  -->
<!DOCTYPE svg PUBLIC "-//W3C//DTD SVG 1.1//EN" "http://www.w3.org/Graphics/SVG/1.1/DTD/svg11.dtd">
<svg version="1.1" id="Layer_1" xmlns="http://www.w3.org/2000/svg" xmlns:xlink="http://www.w3.org/1999/xlink" x="0px" y="0px"
	 width="1024px" height="768px" viewBox="0 0 1024 768" enable-background="new 0 0 1024 768" xml:space="preserve">
<path fill="#00233D" d="M1-3v780h1034V-3H1z M612.456,522H445.61c-3.678-7-5.694-19.041-5.694-30.177
	c0-49.617,39.898-89.102,89.117-89.102c49.214,0,89.114,39.12,89.114,88.735C618.147,502.596,616.13,515,612.456,522z"/>
<g>
	<path fill="#012B4A" d="M574.871,204.067c0,26.241-22.285,47.52-49.773,47.52c-27.49,0-49.773-21.278-49.773-47.52
		c0-26.232,22.283-47.516,49.773-47.516C552.586,156.552,574.871,177.835,574.871,204.067z"/>
	<ellipse fill="#012B4A" cx="335.47" cy="686.088" rx="49.775" ry="47.517"/>
	<path fill="#012B4A" d="M417.357,600.248c0,26.246-22.28,47.52-49.771,47.52c-27.49,0-49.777-21.273-49.777-47.52
		c0-26.234,22.287-47.512,49.777-47.512C395.077,552.736,417.357,574.014,417.357,600.248z"/>
	<path fill="#012B4A" d="M447.334,512.371c0,26.242-22.285,47.522-49.778,47.522c-27.49,0-49.772-21.28-49.772-47.522
		c0-26.238,22.282-47.514,49.772-47.514C425.049,464.857,447.334,486.133,447.334,512.371z"/>
	<path fill="#012B4A" d="M473.028,426.532c0,26.241-22.284,47.518-49.776,47.518c-27.496,0-49.78-21.276-49.78-47.518
		c0-26.24,22.284-47.507,49.78-47.507C450.744,379.025,473.028,400.292,473.028,426.532z"/>
	<path fill="#012B4A" d="M500.862,338.65c0,26.242-22.286,47.515-49.776,47.515c-27.489,0-49.78-21.272-49.78-47.515
		c0-26.234,22.291-47.506,49.78-47.506C478.576,291.145,500.862,312.416,500.862,338.65z"/>
	<path fill="#012B4A" d="M532.976,250.774c0,26.242-22.287,47.513-49.776,47.513c-27.494,0-49.774-21.271-49.774-47.513
		c0-26.237,22.28-47.513,49.774-47.513C510.688,203.262,532.976,224.537,532.976,250.774z"/>
	<polygon fill="#012B4A" points="519.447,177.564 717.916,733 339.441,733 	"/>
	<path fill="#012B4A" d="M576.312,209.112c0,25.847-20.955,46.808-46.803,46.808c-25.849,0-46.802-20.961-46.802-46.808
		c0-25.842,20.953-46.804,46.802-46.804C555.356,162.309,576.312,183.271,576.312,209.112z"/>
	<path fill="#012B4A" d="M398.006,683.923c0,25.851-20.957,46.804-46.805,46.804c-25.845,0-46.8-20.953-46.8-46.804
		c0-25.848,20.955-46.805,46.8-46.805C377.049,637.118,398.006,658.075,398.006,683.923z"/>
	<path fill="#012B4A" d="M428.201,599.368c0,25.849-20.949,46.808-46.8,46.808c-25.845,0-46.804-20.959-46.804-46.808
		c0-25.846,20.959-46.805,46.804-46.805C407.252,552.563,428.201,573.522,428.201,599.368z"/>
	<path fill="#012B4A" d="M456.391,512.804c0,25.848-20.955,46.808-46.805,46.808c-25.852,0-46.806-20.96-46.806-46.808
		c0-25.849,20.954-46.802,46.806-46.802C435.436,466.002,456.391,486.955,456.391,512.804z"/>
	<path fill="#012B4A" d="M480.547,428.248c0,25.85-20.952,46.808-46.803,46.808c-25.854,0-46.809-20.958-46.809-46.808
		s20.955-46.796,46.809-46.796C459.595,381.452,480.547,402.398,480.547,428.248z"/>
	<path fill="#012B4A" d="M506.719,341.684c0,25.848-20.954,46.807-46.806,46.807c-25.848,0-46.803-20.959-46.803-46.807
		c0-25.845,20.955-46.801,46.803-46.801C485.765,294.883,506.719,315.839,506.719,341.684z"/>
	<path fill="#012B4A" d="M536.914,255.123c0,25.844-20.954,46.799-46.802,46.799c-25.852,0-46.803-20.955-46.803-46.799
		c0-25.849,20.951-46.807,46.803-46.807C515.96,208.316,536.914,229.274,536.914,255.123z"/>
	<path fill="#012B4A" d="M656.701,685.934c0,25.852,20.951,46.807,46.804,46.807s46.807-20.955,46.807-46.807
		c0-25.846-20.954-46.801-46.807-46.801S656.701,660.088,656.701,685.934z"/>
	<path fill="#012B4A" d="M626.504,601.384c0,25.845,20.951,46.801,46.804,46.801c25.85,0,46.805-20.956,46.805-46.801
		c0-25.853-20.955-46.807-46.805-46.807C647.455,554.577,626.504,575.531,626.504,601.384z"/>
	<path fill="#012B4A" d="M598.322,514.82c0,25.846,20.949,46.801,46.807,46.801c25.842,0,46.798-20.955,46.798-46.801
		c0-25.852-20.956-46.802-46.798-46.802C619.271,468.019,598.322,488.969,598.322,514.82z"/>
	<path fill="#012B4A" d="M574.163,430.264c0,25.849,20.951,46.801,46.8,46.801c25.85,0,46.805-20.952,46.805-46.801
		c0-25.852-20.955-46.8-46.805-46.8C595.114,383.464,574.163,404.412,574.163,430.264z"/>
	<path fill="#012B4A" d="M547.992,343.701c0,25.845,20.953,46.8,46.805,46.8c25.844,0,46.803-20.955,46.803-46.8
		c0-25.85-20.959-46.804-46.803-46.804C568.945,296.897,547.992,317.852,547.992,343.701z"/>
	<path fill="#012B4A" d="M517.796,257.13c0,25.85,20.954,46.805,46.802,46.805c25.849,0,46.804-20.955,46.804-46.805
		c0-25.846-20.955-46.8-46.804-46.8C538.75,210.33,517.796,231.284,517.796,257.13z"/>
</g>
<g>
	<path fill="#023558" d="M278.16,279.5c0,21.835-18.543,39.541-41.417,39.541c-22.876,0-41.417-17.706-41.417-39.541
		c0-21.826,18.541-39.537,41.417-39.537C259.617,239.963,278.16,257.674,278.16,279.5z"/>
	<path fill="#023558" d="M120.369,680.592c0,21.836-18.54,39.539-41.414,39.539c-22.878,0-41.42-17.703-41.42-39.539
		c0-21.835,18.542-39.536,41.42-39.536C101.829,641.056,120.369,658.757,120.369,680.592z"/>
	<path fill="#023558" d="M147.092,609.163c0,21.84-18.541,39.541-41.415,39.541s-41.42-17.701-41.42-39.541
		c0-21.828,18.546-39.534,41.42-39.534S147.092,587.335,147.092,609.163z"/>
	<path fill="#023558" d="M172.035,536.042c0,21.835-18.542,39.542-41.42,39.542c-22.876,0-41.416-17.707-41.416-39.542
		s18.54-39.536,41.416-39.536C153.493,496.506,172.035,514.207,172.035,536.042z"/>
	<path fill="#023558" d="M193.416,464.613c0,21.837-18.543,39.54-41.419,39.54c-22.88,0-41.423-17.703-41.423-39.54
		c0-21.832,18.543-39.528,41.423-39.528C174.873,425.085,193.416,442.781,193.416,464.613z"/>
	<path fill="#023558" d="M216.576,391.487c0,21.837-18.543,39.538-41.421,39.538c-22.872,0-41.419-17.701-41.419-39.538
		c0-21.828,18.547-39.53,41.419-39.53C198.033,351.957,216.576,369.659,216.576,391.487z"/>
	<ellipse fill="#023558" cx="201.879" cy="318.366" rx="41.417" ry="39.536"/>
	<polygon fill="#023558" points="232.043,258.822 397.186,721 82.259,721 	"/>
	<path fill="#023558" d="M279.357,283.698c0,21.507-17.436,38.948-38.943,38.948s-38.945-17.441-38.945-38.948
		c0-21.503,17.438-38.946,38.945-38.946S279.357,262.195,279.357,283.698z"/>
	<path fill="#023558" d="M130.99,678.79c0,21.51-17.438,38.945-38.947,38.945c-21.505,0-38.943-17.436-38.943-38.945
		s17.438-38.944,38.943-38.944C113.553,639.846,130.99,657.28,130.99,678.79z"/>
	<path fill="#023558" d="M156.115,608.432c0,21.51-17.434,38.949-38.943,38.949c-21.506,0-38.945-17.439-38.945-38.949
		c0-21.508,17.439-38.944,38.945-38.944C138.682,569.487,156.115,586.924,156.115,608.432z"/>
	<path fill="#023558" d="M179.572,536.4c0,21.509-17.438,38.949-38.947,38.949s-38.945-17.44-38.945-38.949
		c0-21.508,17.436-38.944,38.945-38.944S179.572,514.893,179.572,536.4z"/>
	<path fill="#023558" d="M199.673,466.043c0,21.51-17.435,38.947-38.946,38.947c-21.511,0-38.947-17.438-38.947-38.947
		s17.437-38.939,38.947-38.939C182.238,427.104,199.673,444.533,199.673,466.043z"/>
	<path fill="#023558" d="M221.451,394.012c0,21.508-17.438,38.947-38.949,38.947c-21.506,0-38.943-17.439-38.943-38.947
		c0-21.506,17.438-38.943,38.943-38.943C204.014,355.068,221.451,372.506,221.451,394.012z"/>
	<circle fill="#023558" cx="207.632" cy="321.982" r="38.944"/>
	<path fill="#023558" d="M346.25,680.463c0,21.511,17.436,38.947,38.947,38.947s38.947-17.437,38.947-38.947
		c0-21.507-17.436-38.943-38.947-38.943S346.25,658.956,346.25,680.463z"/>
	<path fill="#023558" d="M321.125,610.108c0,21.507,17.433,38.942,38.943,38.942s38.947-17.436,38.947-38.942
		c0-21.513-17.437-38.946-38.947-38.946S321.125,588.596,321.125,610.108z"/>
	<path fill="#023558" d="M297.675,538.077c0,21.508,17.432,38.944,38.946,38.944c21.504,0,38.941-17.437,38.941-38.944
		c0-21.509-17.438-38.943-38.941-38.943C315.106,499.134,297.675,516.568,297.675,538.077z"/>
	<path fill="#023558" d="M277.57,467.72c0,21.507,17.434,38.942,38.941,38.942c21.51,0,38.947-17.436,38.947-38.942
		c0-21.511-17.438-38.942-38.947-38.942C295.004,428.777,277.57,446.209,277.57,467.72z"/>
	<circle fill="#023558" cx="294.739" cy="395.689" r="38.945"/>
	<circle fill="#023558" cx="269.612" cy="323.654" r="38.944"/>
</g>
<g>
	<path fill="#023558" d="M849.16,276.5c0,21.835-18.543,39.541-41.417,39.541c-22.876,0-41.417-17.706-41.417-39.541
		c0-21.826,18.541-39.537,41.417-39.537C830.617,236.963,849.16,254.674,849.16,276.5z"/>
	<path fill="#023558" d="M691.369,677.592c0,21.836-18.54,39.539-41.414,39.539c-22.878,0-41.42-17.703-41.42-39.539
		c0-21.835,18.542-39.536,41.42-39.536C672.829,638.056,691.369,655.757,691.369,677.592z"/>
	<path fill="#023558" d="M718.092,606.163c0,21.84-18.541,39.541-41.415,39.541s-41.42-17.701-41.42-39.541
		c0-21.828,18.546-39.534,41.42-39.534S718.092,584.335,718.092,606.163z"/>
	<path fill="#023558" d="M743.035,533.042c0,21.835-18.542,39.542-41.42,39.542c-22.876,0-41.416-17.707-41.416-39.542
		s18.54-39.536,41.416-39.536C724.493,493.506,743.035,511.207,743.035,533.042z"/>
	<path fill="#023558" d="M764.416,461.613c0,21.837-18.543,39.54-41.419,39.54c-22.88,0-41.423-17.703-41.423-39.54
		c0-21.832,18.543-39.528,41.423-39.528C745.873,422.085,764.416,439.781,764.416,461.613z"/>
	<path fill="#023558" d="M787.576,388.487c0,21.837-18.543,39.538-41.421,39.538c-22.872,0-41.419-17.701-41.419-39.538
		c0-21.828,18.547-39.53,41.419-39.53C769.033,348.957,787.576,366.659,787.576,388.487z"/>
	<ellipse fill="#023558" cx="772.879" cy="315.366" rx="41.417" ry="39.536"/>
	<polygon fill="#023558" points="803.043,255.822 968.186,718 653.259,718 	"/>
	<path fill="#023558" d="M850.357,280.698c0,21.507-17.436,38.948-38.943,38.948s-38.945-17.441-38.945-38.948
		c0-21.503,17.438-38.946,38.945-38.946S850.357,259.195,850.357,280.698z"/>
	<path fill="#023558" d="M701.99,675.79c0,21.51-17.438,38.945-38.947,38.945c-21.505,0-38.943-17.436-38.943-38.945
		s17.438-38.944,38.943-38.944C684.553,636.846,701.99,654.28,701.99,675.79z"/>
	<path fill="#023558" d="M727.115,605.432c0,21.51-17.434,38.949-38.943,38.949c-21.506,0-38.945-17.439-38.945-38.949
		c0-21.508,17.439-38.944,38.945-38.944C709.682,566.487,727.115,583.924,727.115,605.432z"/>
	<path fill="#023558" d="M750.572,533.4c0,21.509-17.438,38.949-38.947,38.949s-38.945-17.44-38.945-38.949
		c0-21.508,17.436-38.944,38.945-38.944S750.572,511.893,750.572,533.4z"/>
	<path fill="#023558" d="M770.673,463.043c0,21.51-17.435,38.947-38.946,38.947c-21.511,0-38.947-17.438-38.947-38.947
		s17.437-38.939,38.947-38.939C753.238,424.104,770.673,441.533,770.673,463.043z"/>
	<path fill="#023558" d="M792.451,391.012c0,21.508-17.438,38.947-38.949,38.947c-21.506,0-38.943-17.439-38.943-38.947
		c0-21.506,17.438-38.943,38.943-38.943C775.014,352.068,792.451,369.506,792.451,391.012z"/>
	<circle fill="#023558" cx="778.632" cy="318.982" r="38.944"/>
	<path fill="#023558" d="M917.25,677.463c0,21.511,17.436,38.947,38.947,38.947s38.947-17.437,38.947-38.947
		c0-21.507-17.436-38.943-38.947-38.943S917.25,655.956,917.25,677.463z"/>
	<path fill="#023558" d="M892.125,607.108c0,21.507,17.433,38.942,38.943,38.942s38.947-17.436,38.947-38.942
		c0-21.513-17.437-38.946-38.947-38.946S892.125,585.596,892.125,607.108z"/>
	<path fill="#023558" d="M868.675,535.077c0,21.508,17.432,38.944,38.946,38.944c21.504,0,38.941-17.437,38.941-38.944
		c0-21.509-17.438-38.943-38.941-38.943C886.106,496.134,868.675,513.568,868.675,535.077z"/>
	<path fill="#023558" d="M848.57,464.72c0,21.507,17.434,38.942,38.941,38.942c21.51,0,38.947-17.436,38.947-38.942
		c0-21.511-17.438-38.942-38.947-38.942C866.004,425.777,848.57,443.209,848.57,464.72z"/>
	<circle fill="#023558" cx="865.739" cy="392.689" r="38.945"/>
	<circle fill="#023558" cx="840.612" cy="320.654" r="38.944"/>
</g>
<path fill="#8DC73F" d="M1031,757c0,6.627-5.373,12-12,12H14c-6.627,0-12-5.373-12-12v-40c0-6.627,5.373-12,12-12h1005
	c6.627,0,12,5.373,12,12V757z"/>
<ellipse fill="#6373C1" cx="449.989" cy="705.192" rx="49.571" ry="12.347"/>
<ellipse fill="#6373C1" cx="583.81" cy="706.17" rx="49.026" ry="11.349"/>
<g>
	<path fill="#8190FF" d="M515.354,660.484c-35.285,0-68.048-6.093-95.186-16.518c-10.543,27.238-17.252,59.005-17.252,59.005
		c21.062,15.253,68.998,5.812,83.524,5.085c14.527-0.727,13.073-18.158,13.073-22.517c0-3.479,5.579-6.951,17.068-7.472v-0.334
		c11.163,0.594,16.599,4.011,16.599,7.442c0,4.357-1.453,21.789,13.073,22.516s62.463,10.168,83.526-5.085
		c0,0-6.768-32.046-17.392-59.363C584.894,654.107,551.443,660.484,515.354,660.484z"/>
</g>
<g>
	<path fill="#FCC447" d="M600.021,615.979l-31.654-51.981l-52.255-0.2v0.366l-59.732,0.228l-26.546,59.048l0.296-1.671
		c-3.67,6.353-7.084,13.986-10.165,21.998c27.186,10.321,59.938,16.354,95.203,16.354c36.21,0,69.773-6.36,97.38-17.195
		c-3.543-9.158-7.521-17.809-11.82-24.568C599.635,616.642,599.605,616.043,600.021,615.979z"/>
</g>
<path fill="#FFDFD3" d="M457.281,617.554c0,0,0.602-1.087,1.238-1.939l-2.211-56.322l-5.034,2.25
	c-85.056,52.799-47.426,87.382-47.426,87.382C441.881,674.991,457.281,617.554,457.281,617.554z"/>
<path fill="#FFDFD3" d="M603.074,551.278l-9.798-9.872l-15.294,62.93l-0.914-0.223c-0.588,11.54-0.28,54.977,38.715,45.772
	C615.783,649.886,663.354,631.203,603.074,551.278z"/>
<path fill="#2D3551" d="M505.367,416.441"/>
<ellipse fill="#FFDFD3" cx="514.086" cy="500.668" rx="88.248" ry="66.794"/>
<path fill="#FF6260" d="M620.677,508.478l-0.014-1.084c-24.201,24.191-62.203,39.784-104.944,39.784
	c-41.984,0-79.397-15.047-103.65-38.51c-20.055,11.746-18.152,32.495-18.152,32.495c0.985,10.478,5.539,17.858,10.27,22.826
	c-2.824,3.755-4.493,8.355-4.493,13.33c0,12.636,10.73,22.879,23.968,22.879c0.837,0,1.663-0.042,2.477-0.121
	c12.342,31.704,44.248,24.746,58.896,19.553c5.235,7.806,17.001,13.251,30.686,13.251c13.963,0,25.934-5.664,31.005-13.725
	c13.243,4.932,44.062,12.744,58.064-14.324c10.543-0.946,20.415-8.51,24.519-19.98c2.609-7.296,2.406-14.849-0.026-21.291
	c4.583-4.96,8.905-12.22,9.864-22.397C639.145,541.163,641.074,520.189,620.677,508.478z"/>
<circle fill="#FFDFD3" cx="419.302" cy="502.509" r="13.618"/>
<circle fill="#FFDFD3" cx="611.049" cy="505.777" r="13.619"/>
<path fill="#FF6260" d="M441.023,531.856c0,3.949-4.357,7.149-9.738,7.149l0,0c-5.377,0-9.736-3.2-9.736-7.149V477.52
	c0-3.949,4.359-7.149,9.736-7.149l0,0c5.381,0,9.738,3.2,9.738,7.149V531.856z"/>
<path fill="#FF6260" d="M610.98,534.58c0,3.949-4.603,7.149-10.282,7.149l0,0c-5.681,0-10.28-3.2-10.28-7.149v-54.337
	c0-3.949,4.6-7.149,10.28-7.149l0,0c5.68,0,10.282,3.2,10.282,7.149V534.58z"/>
<path fill="#FF6260" d="M518.988,425.157c-41.682,0-77.92,7.417-96.417,18.33v33.065c18.497,10.914,54.735,18.33,96.417,18.33
	c38.621,0,72.567-6.367,92.06-15.984v-37.757C591.556,431.524,557.609,425.157,518.988,425.157z"/>
<ellipse fill="#FFC556" cx="513.904" cy="425.703" rx="92.06" ry="51.75"/>
<path fill="#FFC556" d="M438.186,396.287c0,0-21.788,20.155-22.878,44.124c-1.091,23.968,28.325,7.626,28.325,7.626L438.186,396.287
	z"/>
<path fill="#FFC556" d="M592.86,398.467c0,0,21.789,20.154,22.879,44.123c1.09,23.968-28.326,7.626-28.326,7.626L592.86,398.467z"/>
<ellipse fill="#F9A715" cx="512.608" cy="372.957" rx="20.426" ry="19.608"/>
<path fill="#F9A715" d="M623.951,464.926c0,7.22-6.367,13.073-14.222,13.073H422.46c-7.854,0-14.224-5.854-14.224-13.073v-11.984
	c0-7.22,6.37-13.073,14.224-13.073h187.27c7.854,0,14.222,5.854,14.222,13.073V464.926z"/>
<path fill="#FCD1C3" d="M585.657,641.582c0,0,1.988,0.227,4.233-0.137c2.561-0.413,5.457-1.596,6.121-4.755
	c1.245-5.928,13.562-13.04,19.705-3.312c6.143,9.73-19.152,11.405-21.749,9.706c-1.095-0.717-2.287,0.246-3.749,0.565
	c-2.002,0.439-0.967,1.271-0.967,1.271L585.657,641.582z"/>
<path fill="#FCD1C3" d="M440.049,646.714c0,0-1.377,0.437-3.34-0.713c-2.24-1.31-4.514-3.456-3.993-6.642
	c0.978-5.979-7.944-17.055-17.185-10.197c-9.238,6.858,13.75,17.546,16.783,16.897c1.281-0.272,2.045,1.055,3.294,1.881
	c1.708,1.131,0.444,1.533,0.444,1.533L440.049,646.714z"/>
<g>
	<path fill="#EA534C" d="M620.119,508.117l-0.001-0.179c-0.566,0.567-1.149,1.125-1.733,1.682
		C618.974,509.126,619.546,508.621,620.119,508.117z"/>
	<path fill="#EA534C" d="M520.623,628.523c-13.688,0-25.453-5.445-30.688-13.252c-14.647,5.193-46.555,12.151-58.895-19.553
		c-0.815,0.08-1.643,0.121-2.478,0.121c-13.238,0-23.969-10.243-23.969-22.878c0-4.976,1.67-9.575,4.494-13.33
		c-4.731-4.968-9.286-12.35-10.271-22.827c0,0-1.258-13.782,9.133-25.24c-16.243,11.958-14.581,30.144-14.581,30.144
		c0.987,10.478,5.541,17.858,10.272,22.826c-2.825,3.755-4.494,8.355-4.494,13.33c0,12.635,10.73,22.879,23.968,22.879
		c0.836,0,1.663-0.042,2.479-0.121c12.34,31.704,44.247,24.745,58.895,19.553c5.235,7.806,17.001,13.251,30.687,13.251
		c12.722,0,23.771-4.71,29.473-11.643C538.549,625.938,530.044,628.523,520.623,628.523z"/>
	<path fill="#EA534C" d="M609.69,600.474c-0.837,1.619-1.739,3.105-2.688,4.483c5.938-1.193,11.503-4.47,15.757-9.329
		C618.82,598.366,614.318,600.059,609.69,600.474z"/>
	<path fill="#EA534C" d="M551.627,614.799c-1.185,1.88-2.756,3.622-4.627,5.201c12.049,4.352,36.717,10.277,51.783-6.626
		C583.355,624.333,562.049,618.68,551.627,614.799z"/>
</g>
<circle fill="#388A29" cx="2.149" cy="712.024" r="150.469"/>
<path fill="#306D23" d="M2,666.943v264.806c45-25.449,78.93-75.196,78.93-132.401C80.93,742.141,47,692.394,2,666.943z"/>
<path fill="#306D23" d="M266.697,769c-25.454-47-75.195-78.904-132.391-78.904C77.109,690.096,27.367,722,1.914,769H266.697z"/>
<circle fill="#306D23" cx="1029.229" cy="708.024" r="150.469"/>
<path fill="#306D23" d="M1029,662.943v264.806c-45-25.449-78.93-75.196-78.93-132.401C950.07,738.141,984,688.394,1029,662.943z"/>
<path fill="#388A29" d="M764.682,769c25.453-47,75.195-78.904,132.391-78.904c57.197,0,106.938,31.904,132.393,78.904H764.682z"/>
<path fill="#FCC447" d="M587.677,750.38c0,6.417-5.354,11.62-11.967,11.62H455.377c-6.608,0-11.967-5.203-11.967-11.62V574.796
	c0-6.417,5.358-11.619,11.967-11.619H575.71c6.612,0,11.967,5.202,11.967,11.619V750.38z"/>
<path fill="#F9A715" d="M581,719.021c0,18.856,0.869,34.979-8.969,34.979H457.098c-9.84,0-6.098-16.123-6.098-34.979V605.198
	c0-18.855-3.803-35.047,6.037-35.047l105.52,0.9C587.75,568.347,581,586.343,581,605.198V719.021z"/>
<path fill="#FCC447" d="M520.83,614.326l8.983-8.807c-0.081-0.101-0.166-0.195-0.252-0.284c-2.849-2.884-4.045-3.333-8.089-3.244
	c0,0-2.756,0.496-4.226,1.396c-1.472,0.902-3.217-0.314-3.217-0.314s-3.079-1.801-6.845-0.721c0,0-7.444,2.163-6.25,12.976
	c0,0,1.746,10.271,7.719,12.973c0,0,1.932,0.812,3.219,0.271c1.283-0.541,4.961-2.479,9.417-0.045c0,0,3.354,0.765,5.192-1.982
	c0,0,1.574-1.857,2.793-3.937L520.83,614.326z"/>
<path fill="#FCC447" d="M532,738.755c0,4.973-3.418,9.245-8.242,9.245h-14.25c-4.824,0-8.508-4.272-8.508-9.245v-0.476
	c0-4.972,3.684-9.279,8.508-9.279h14.25c4.824,0,8.242,4.308,8.242,9.279V738.755z"/>
<path fill="#F9A715" d="M519,738.896c0,0.912-0.857,1.653-2,1.653l0,0c-1.143,0-2-0.741-2-1.653v-6.613c0-0.912,0.857-1.653,2-1.653
	l0,0c1.143,0,2,0.741,2,1.653V738.896z"/>
<path fill="#F9A715" d="M510,744.305c0,0.912-0.857,1.653-2,1.653l0,0c-1.143,0-2-0.741-2-1.653v-6.612c0-0.913,0.857-1.653,2-1.653
	l0,0c1.143,0,2,0.74,2,1.653V744.305z"/>
<path fill="#F9A715" d="M527,744.305c0,0.912-0.857,1.653-2,1.653l0,0c-1.143,0-2-0.741-2-1.653v-6.612c0-0.913,0.857-1.653,2-1.653
	l0,0c1.143,0,2,0.74,2,1.653V744.305z"/>
<text transform="matrix(1.0199 0 0 1 493.4854 652.5586)" fill="#FCC447" font-family="'AldotheApache'" font-size="22.1552">B1M0</text>
<path fill="#FCC447" d="M508.031,588.001c0,0,10.055,1.363,9.8,11.929C517.831,599.93,508.288,599.416,508.031,588.001z"/>
<path d="M483.336,499.001c0,6.862-5.566,12.429-12.431,12.429c-6.862,0-12.428-5.566-12.428-12.429
	c0-6.868,5.565-12.434,12.428-12.434C477.77,486.567,483.336,492.133,483.336,499.001z"/>
<circle cx="561.115" cy="498.553" r="12.429"/>
<ellipse fill="#FFDFD3" cx="518.668" cy="545.334" rx="11" ry="10.667"/>
<path fill="#EA534C" d="M583.314,522.455c-5.666,3.107-18.832,2.743-35.472-9.143c-15.759-11.257-27.415,1.759-28.604,3.168
	c-0.607-0.74-12.474-14.837-28.682-3.259c-16.639,11.885-29.805,12.251-35.473,9.143c-5.67-3.109-3.29,1.645-3.29,1.645
	c2.376,10.971,15.542,19.749,15.542,19.749c20.076,9.687,49.654,1.05,51.801,0.403v0.053c0,0,31.082,9.692,51.929-0.365
	c0,0,13.164-8.776,15.542-19.747C586.607,524.102,588.982,519.347,583.314,522.455z"/>
</svg>
