<?xml version="1.0" encoding="utf-8"?>
<!-- Generator: Adobe Illustrator 15.1.0, SVG Export Plug-In . SVG Version: 6.00 Build 0)  -->
<!DOCTYPE svg PUBLIC "-//W3C//DTD SVG 1.1//EN" "http://www.w3.org/Graphics/SVG/1.1/DTD/svg11.dtd">
<svg version="1.1" id="Layer_1" xmlns="http://www.w3.org/2000/svg" xmlns:xlink="http://www.w3.org/1999/xlink" x="0px" y="0px"
	 width="1024px" height="768px" viewBox="0 0 1024 768" enable-background="new 0 0 1024 768" xml:space="preserve">
<rect y="-3" fill="#D7E7FB" width="1042" height="436"/>
<path fill="#AECEF4" d="M-17,746.528C-17,788.353,1.553,822,24.217,822h998.502c22.663,0,41.281-33.647,41.281-75.472V557.191
	c0-41.823-18.618-75.191-41.281-75.191H24.217C1.553,482-17,515.368-17,557.191V746.528z"/>
<path fill="#8DC73F" d="M1044,482.319c0,11.083-4.874,20.681-11.951,20.681H11.989C4.91,503-1,493.402-1,482.319v-30.104
	C-1,441.132,4.91,431,11.989,431h1020.06c7.077,0,11.951,10.132,11.951,21.215V482.319z"/>
<circle fill="#388A29" cx="76.541" cy="353.425" r="76.861"/>
<path fill="#306D23" d="M0,254.347v185.428c32-17.82,55.27-52.655,55.27-92.713C55.27,307.003,32,272.168,0,254.347z"/>
<path fill="#306D23" d="M180.871,434c-17.824-33-52.654-55.252-92.705-55.252C48.114,378.748,13.283,401-4.541,434H180.871z"/>
<g>
	<path fill="#306D23" d="M969.397,114.774c0,15.69-13.324,28.413-29.761,28.413c-16.438,0-29.761-12.723-29.761-28.413
		c0-15.685,13.323-28.411,29.761-28.411C956.073,86.363,969.397,99.09,969.397,114.774z"/>
	<ellipse fill="#306D23" cx="826.253" cy="402.988" rx="29.762" ry="28.411"/>
	<path fill="#306D23" d="M875.216,351.662c0,15.692-13.322,28.413-29.76,28.413c-16.437,0-29.764-12.721-29.764-28.413
		c0-15.687,13.327-28.408,29.764-28.408C861.894,323.254,875.216,335.976,875.216,351.662z"/>
	<path fill="#306D23" d="M893.14,299.117c0,15.691-13.324,28.415-29.764,28.415c-16.438,0-29.76-12.724-29.76-28.415
		c0-15.688,13.322-28.409,29.76-28.409C879.815,270.708,893.14,283.429,893.14,299.117z"/>
	<ellipse fill="#306D23" cx="878.739" cy="247.792" rx="29.764" ry="28.412"/>
	<path fill="#306D23" d="M925.146,195.245c0,15.691-13.325,28.411-29.764,28.411c-16.436,0-29.764-12.72-29.764-28.411
		c0-15.686,13.328-28.405,29.764-28.405C911.82,166.84,925.146,179.56,925.146,195.245z"/>
	<ellipse fill="#306D23" cx="914.585" cy="142.702" rx="29.762" ry="28.409"/>
	<polygon fill="#306D23" points="936.259,98.891 1054.927,431 828.628,431 	"/>
	<path fill="#306D23" d="M970.259,117.791c0,15.454-12.529,27.987-27.984,27.987s-27.984-12.533-27.984-27.987
		c0-15.452,12.529-27.985,27.984-27.985S970.259,102.339,970.259,117.791z"/>
	<circle fill="#306D23" cx="835.661" cy="401.693" r="27.985"/>
	<path fill="#306D23" d="M881.7,351.135c0,15.457-12.527,27.988-27.983,27.988c-15.454,0-27.985-12.531-27.985-27.988
		c0-15.453,12.531-27.984,27.985-27.984C869.173,323.15,881.7,335.682,881.7,351.135z"/>
	<circle fill="#306D23" cx="870.569" cy="299.376" r="27.986"/>
	<circle fill="#306D23" cx="885.013" cy="248.818" r="27.986"/>
	<path fill="#306D23" d="M928.647,197.059c0,15.455-12.529,27.987-27.986,27.987c-15.455,0-27.984-12.532-27.984-27.987
		c0-15.453,12.529-27.983,27.984-27.983C916.118,169.075,928.647,181.605,928.647,197.059z"/>
	<circle fill="#306D23" cx="918.718" cy="145.302" r="27.984"/>
	<circle fill="#306D23" cx="1046.312" cy="402.896" r="27.986"/>
	<path fill="#306D23" d="M1000.271,352.341c0,15.454,12.527,27.983,27.984,27.983s27.986-12.529,27.986-27.983
		c0-15.458-12.529-27.986-27.986-27.986S1000.271,336.883,1000.271,352.341z"/>
	<path fill="#306D23" d="M983.42,300.581c0,15.455,12.526,27.984,27.986,27.984c15.452,0,27.982-12.529,27.982-27.984
		c0-15.457-12.53-27.983-27.982-27.983C995.946,272.598,983.42,285.124,983.42,300.581z"/>
	<circle fill="#306D23" cx="996.958" cy="250.023" r="27.984"/>
	<path fill="#306D23" d="M953.326,198.266c0,15.453,12.528,27.982,27.985,27.982c15.453,0,27.984-12.529,27.984-27.982
		c0-15.457-12.531-27.985-27.984-27.985C965.854,170.28,953.326,182.809,953.326,198.266z"/>
	<circle fill="#306D23" cx="963.255" cy="146.502" r="27.985"/>
</g>
<g>
	<path fill="#388A29" d="M984.397,117.774c0,15.69-13.324,28.413-29.761,28.413c-16.438,0-29.761-12.723-29.761-28.413
		c0-15.685,13.323-28.411,29.761-28.411C971.073,89.363,984.397,102.09,984.397,117.774z"/>
	<ellipse fill="#388A29" cx="841.253" cy="405.988" rx="29.762" ry="28.411"/>
	<path fill="#388A29" d="M890.216,354.662c0,15.692-13.322,28.413-29.76,28.413c-16.437,0-29.764-12.721-29.764-28.413
		c0-15.687,13.327-28.408,29.764-28.408C876.894,326.254,890.216,338.976,890.216,354.662z"/>
	<path fill="#388A29" d="M908.14,302.117c0,15.691-13.324,28.415-29.764,28.415c-16.438,0-29.76-12.724-29.76-28.415
		c0-15.688,13.322-28.409,29.76-28.409C894.815,273.708,908.14,286.429,908.14,302.117z"/>
	<ellipse fill="#388A29" cx="893.739" cy="250.792" rx="29.764" ry="28.412"/>
	<path fill="#388A29" d="M940.146,198.245c0,15.691-13.325,28.411-29.764,28.411c-16.436,0-29.764-12.72-29.764-28.411
		c0-15.686,13.328-28.405,29.764-28.405C926.82,169.84,940.146,182.56,940.146,198.245z"/>
	<ellipse fill="#388A29" cx="929.585" cy="145.702" rx="29.762" ry="28.409"/>
	<polygon fill="#388A29" points="951.259,101.891 1069.927,434 843.628,434 	"/>
	<path fill="#388A29" d="M985.259,120.791c0,15.454-12.529,27.987-27.984,27.987s-27.984-12.533-27.984-27.987
		c0-15.452,12.529-27.985,27.984-27.985S985.259,105.339,985.259,120.791z"/>
	<circle fill="#388A29" cx="850.661" cy="404.693" r="27.985"/>
	<path fill="#388A29" d="M896.7,354.135c0,15.457-12.527,27.988-27.983,27.988c-15.454,0-27.985-12.531-27.985-27.988
		c0-15.453,12.531-27.984,27.985-27.984C884.173,326.15,896.7,338.682,896.7,354.135z"/>
	<circle fill="#388A29" cx="885.569" cy="302.376" r="27.986"/>
	<circle fill="#388A29" cx="900.013" cy="251.818" r="27.986"/>
	<path fill="#388A29" d="M943.647,200.059c0,15.455-12.529,27.987-27.986,27.987c-15.455,0-27.984-12.532-27.984-27.987
		c0-15.453,12.529-27.983,27.984-27.983C931.118,172.075,943.647,184.605,943.647,200.059z"/>
	<circle fill="#388A29" cx="933.718" cy="148.302" r="27.984"/>
	<circle fill="#388A29" cx="1061.312" cy="405.896" r="27.986"/>
	<path fill="#388A29" d="M1015.271,355.341c0,15.454,12.527,27.983,27.984,27.983s27.986-12.529,27.986-27.983
		c0-15.458-12.529-27.986-27.986-27.986S1015.271,339.883,1015.271,355.341z"/>
	<path fill="#388A29" d="M998.42,303.581c0,15.455,12.526,27.984,27.986,27.984c15.452,0,27.982-12.529,27.982-27.984
		c0-15.457-12.53-27.983-27.982-27.983C1010.946,275.598,998.42,288.124,998.42,303.581z"/>
	<circle fill="#388A29" cx="1011.958" cy="253.023" r="27.984"/>
	<path fill="#388A29" d="M968.326,201.266c0,15.453,12.528,27.982,27.985,27.982c15.453,0,27.984-12.529,27.984-27.982
		c0-15.457-12.531-27.985-27.984-27.985C980.854,173.28,968.326,185.809,968.326,201.266z"/>
	<circle fill="#388A29" cx="978.255" cy="149.502" r="27.985"/>
</g>
<rect y="433" fill="#388A29" width="1040" height="10"/>
<g>
	<path fill="#8190FF" d="M727.354,444.485c-35.285,0-68.049-6.093-95.188-16.518c-10.543,27.238-17.252,59.005-17.252,59.005
		c21.062,15.253,68.999,5.812,83.525,5.085c14.527-0.727,13.074-18.158,13.074-22.517c0-3.479,5.578-6.951,17.067-7.472v-0.334
		c11.163,0.594,16.599,4.011,16.599,7.442c0,4.357-1.453,21.789,13.073,22.516s62.464,10.168,83.526-5.085
		c0,0-6.768-32.046-17.392-59.363C796.893,438.108,763.442,444.485,727.354,444.485z"/>
</g>
<g>
	<path fill="#FCC447" d="M812.021,399.98l-31.653-51.981l-52.256-0.2v0.366l-59.732,0.228l-26.546,59.048l0.296-1.671
		c-3.67,6.353-7.084,13.986-10.164,21.998c27.186,10.321,59.938,16.354,95.202,16.354c36.21,0,69.773-6.36,97.38-17.195
		c-3.543-9.158-7.521-17.809-11.82-24.568C811.635,400.643,811.604,400.044,812.021,399.98z"/>
</g>
<path fill="#FFDFD3" d="M691.564,387.257c0,0-0.966-0.78-1.695-1.557l-55.853-7.582l1.343,5.348
	c37.261,92.918,77.841,61.852,77.841,61.852C745.464,412.378,691.564,387.257,691.564,387.257z"/>
<path fill="#FFDFD3" d="M819.248,372.51l2.085-13.752l-59.641,25.237l-0.367-0.866c-9.615,6.407-44.305,32.551-13.667,58.371
	C747.658,441.5,791.017,468.555,819.248,372.51z"/>
<path fill="#2D3551" d="M717.366,200.442"/>
<ellipse fill="#FFDFD3" cx="726.085" cy="284.669" rx="88.247" ry="66.794"/>
<path d="M688.357,292.644c0,5.637-4.57,10.209-10.209,10.209c-5.637,0-10.208-4.572-10.208-10.209
	c0-5.642,4.571-10.213,10.208-10.213C683.787,282.431,688.357,287.002,688.357,292.644z"/>
<path d="M787.498,291.55c0,5.641-4.571,10.213-10.208,10.213c-5.642,0-10.21-4.572-10.21-10.213c0-5.638,4.568-10.209,10.21-10.209
	C782.927,281.341,787.498,285.912,787.498,291.55z"/>
<path fill="#FF6260" d="M832.676,292.479l-0.014-1.084c-24.201,24.191-62.203,39.784-104.943,39.784
	c-41.984,0-79.398-15.047-103.65-38.51c-20.055,11.746-18.154,32.495-18.154,32.495c0.986,10.478,5.54,17.858,10.271,22.826
	c-2.825,3.755-4.494,8.355-4.494,13.33c0,12.636,10.73,22.879,23.968,22.879c0.837,0,1.663-0.042,2.478-0.121
	c12.341,31.704,44.247,24.746,58.896,19.553c5.235,7.806,17.001,13.251,30.687,13.251c13.963,0,25.933-5.664,31.004-13.725
	c13.243,4.932,44.062,12.744,58.064-14.324c10.543-0.946,20.416-8.51,24.519-19.98c2.609-7.296,2.406-14.849-0.026-21.291
	c4.583-4.96,8.906-12.22,9.864-22.397C851.144,325.164,853.073,304.19,832.676,292.479z"/>
<circle fill="#FFDFD3" cx="631.302" cy="286.51" r="13.618"/>
<circle fill="#FFDFD3" cx="823.047" cy="289.778" r="13.619"/>
<path fill="#FF6260" d="M653.022,315.857c0,3.949-4.358,7.149-9.737,7.149l0,0c-5.378,0-9.736-3.2-9.736-7.149v-54.337
	c0-3.949,4.358-7.149,9.736-7.149l0,0c5.379,0,9.737,3.2,9.737,7.149V315.857z"/>
<path fill="#FF6260" d="M822.979,318.581c0,3.949-4.603,7.149-10.282,7.149l0,0c-5.68,0-10.281-3.2-10.281-7.149v-54.337
	c0-3.949,4.602-7.149,10.281-7.149l0,0c5.68,0,10.282,3.2,10.282,7.149V318.581z"/>
<path fill="#FF6260" d="M730.987,209.158c-41.682,0-77.92,7.417-96.417,18.33v33.065c18.497,10.914,54.735,18.33,96.417,18.33
	c38.621,0,72.567-6.367,92.06-15.984v-37.757C803.555,215.525,769.608,209.158,730.987,209.158z"/>
<ellipse fill="#FFC556" cx="725.903" cy="209.704" rx="92.06" ry="51.75"/>
<path fill="#FFC556" d="M650.186,180.288c0,0-21.789,20.155-22.879,44.124c-1.09,23.968,28.326,7.626,28.326,7.626L650.186,180.288z
	"/>
<path fill="#FFC556" d="M804.859,182.468c0,0,21.789,20.154,22.879,44.123c1.09,23.968-28.326,7.626-28.326,7.626L804.859,182.468z"
	/>
<ellipse fill="#F9A715" cx="724.607" cy="156.958" rx="20.426" ry="19.608"/>
<path fill="#F9A715" d="M835.951,248.927c0,7.22-6.369,13.073-14.223,13.073h-187.27c-7.854,0-14.223-5.854-14.223-13.073v-11.984
	c0-7.22,6.369-13.073,14.223-13.073h187.27c7.854,0,14.223,5.854,14.223,13.073V248.927z"/>
<path fill="#EA534C" d="M793.312,317.123c-5.666,3.107-18.832,2.743-35.472-9.143c-15.759-11.257-27.415,1.759-28.604,3.168
	c-0.607-0.74-12.474-14.837-28.682-3.259c-16.639,11.885-29.804,12.251-35.473,9.143c-5.67-3.109-3.29,1.645-3.29,1.645
	c2.376,10.971,15.542,19.749,15.542,19.749c20.076,9.687,49.654,1.05,51.801,0.403v0.053c0,0,31.083,9.692,51.929-0.365
	c0,0,13.164-8.776,15.542-19.747C796.605,318.77,798.981,314.015,793.312,317.123z"/>
<path fill="#FCD1C3" d="M736.364,412.363c0,0,1.004,1.73,2.633,3.316c1.859,1.812,4.535,3.431,7.467,2.08
	c5.502-2.534,18.555,3.115,14.406,13.846c-4.149,10.733-20.574-8.577-20.758-11.675c-0.078-1.306-1.562-1.688-2.689-2.673
	c-1.546-1.344-1.597-0.02-1.597-0.02L736.364,412.363z"/>
<path fill="#FCD1C3" d="M717.297,409.282c0,0,0.192,1.432-1.28,3.165c-1.678,1.979-4.186,3.847-7.233,2.782
	c-5.719-1.999-18.173,4.869-13.021,15.156c5.152,10.288,19.662-10.5,19.55-13.601c-0.046-1.309,1.393-1.831,2.423-2.917
	c1.41-1.486,1.588-0.172,1.588-0.172L717.297,409.282z"/>
<g>
	<path fill="#EA534C" d="M832.119,292.118l-0.002-0.179c-0.566,0.567-1.148,1.125-1.732,1.682
		C830.973,293.127,831.545,292.622,832.119,292.118z"/>
	<path fill="#EA534C" d="M732.622,412.524c-13.687,0-25.452-5.445-30.688-13.252c-14.647,5.193-46.554,12.151-58.895-19.553
		c-0.815,0.08-1.642,0.121-2.478,0.121c-13.238,0-23.969-10.243-23.969-22.878c0-4.976,1.67-9.575,4.494-13.33
		c-4.731-4.968-9.285-12.35-10.271-22.827c0,0-1.258-13.782,9.133-25.24c-16.243,11.958-14.58,30.144-14.58,30.144
		c0.986,10.478,5.54,17.858,10.271,22.826c-2.825,3.755-4.494,8.355-4.494,13.33c0,12.635,10.73,22.879,23.969,22.879
		c0.836,0,1.662-0.042,2.478-0.121c12.341,31.704,44.247,24.745,58.895,19.553c5.235,7.806,17.001,13.251,30.687,13.251
		c12.722,0,23.771-4.71,29.473-11.643C750.548,409.938,742.043,412.524,732.622,412.524z"/>
	<path fill="#EA534C" d="M821.689,384.475c-0.837,1.619-1.738,3.105-2.689,4.483c5.939-1.193,11.504-4.47,15.758-9.329
		C830.819,382.367,826.318,384.06,821.689,384.475z"/>
	<path fill="#EA534C" d="M763.625,398.8c-1.184,1.88-2.755,3.622-4.626,5.201c12.049,4.352,36.718,10.277,51.784-6.626
		C795.354,408.334,774.048,402.681,763.625,398.8z"/>
</g>
<ellipse fill="#6373C1" cx="791.999" cy="482" rx="49.026" ry="16.76"/>
<path fill="#6373C1" d="M713.559,480.272c0,10.642-22.194,19.268-49.571,19.268s-49.571-8.626-49.571-19.268
	c0-10.646,22.194-19.271,49.571-19.271S713.559,469.627,713.559,480.272z"/>
<path fill="#AB652D" d="M734.487,482.952c0.025,3.313-2.641,6.021-5.953,6.047l0,0c-3.313,0.025-6.021-2.641-6.047-5.955
	l-0.978-126.996c-0.026-3.312,2.641-6.02,5.953-6.046l0,0c3.313-0.025,6.021,2.641,6.046,5.955L734.487,482.952z"/>
<line stroke="#F5F5F5" stroke-width="2" x1="723.999" y1="353.001" x2="533.999" y2="503.001"/>
</svg>
