<?xml version="1.0" encoding="utf-8"?>
<!-- Generator: Adobe Illustrator 15.1.0, SVG Export Plug-In . SVG Version: 6.00 Build 0)  -->
<!DOCTYPE svg PUBLIC "-//W3C//DTD SVG 1.1//EN" "http://www.w3.org/Graphics/SVG/1.1/DTD/svg11.dtd">
<svg version="1.1" id="Layer_1" xmlns="http://www.w3.org/2000/svg" xmlns:xlink="http://www.w3.org/1999/xlink" x="0px" y="0px"
	 width="556px" height="417px" viewBox="0 0 556 417" enable-background="new 0 0 556 417" xml:space="preserve">
<g>
	<path fill="#306D23" d="M435.397,28.774c0,15.69-13.324,28.413-29.761,28.413c-16.438,0-29.761-12.723-29.761-28.413
		c0-15.685,13.323-28.411,29.761-28.411C422.073,0.363,435.397,13.09,435.397,28.774z"/>
	<ellipse fill="#306D23" cx="292.253" cy="316.988" rx="29.762" ry="28.411"/>
	<path fill="#306D23" d="M341.216,265.662c0,15.692-13.322,28.413-29.76,28.413c-16.437,0-29.764-12.721-29.764-28.413
		c0-15.687,13.327-28.408,29.764-28.408C327.894,237.254,341.216,249.976,341.216,265.662z"/>
	<path fill="#306D23" d="M359.14,213.117c0,15.691-13.324,28.415-29.764,28.415c-16.438,0-29.76-12.724-29.76-28.415
		c0-15.688,13.322-28.409,29.76-28.409C345.815,184.708,359.14,197.429,359.14,213.117z"/>
	<ellipse fill="#306D23" cx="344.739" cy="161.792" rx="29.764" ry="28.412"/>
	<path fill="#306D23" d="M391.146,109.245c0,15.691-13.325,28.411-29.764,28.411c-16.436,0-29.764-12.72-29.764-28.411
		c0-15.686,13.328-28.405,29.764-28.405C377.82,80.84,391.146,93.56,391.146,109.245z"/>
	<ellipse fill="#306D23" cx="380.585" cy="56.702" rx="29.762" ry="28.409"/>
	<polygon fill="#306D23" points="402.259,12.891 520.927,345 294.628,345 	"/>
	<path fill="#306D23" d="M436.259,31.791c0,15.454-12.529,27.987-27.984,27.987S380.29,47.245,380.29,31.791
		c0-15.452,12.529-27.985,27.984-27.985S436.259,16.339,436.259,31.791z"/>
	<circle fill="#306D23" cx="301.661" cy="315.693" r="27.985"/>
	<path fill="#306D23" d="M347.7,265.135c0,15.457-12.527,27.988-27.983,27.988c-15.454,0-27.985-12.531-27.985-27.988
		c0-15.453,12.531-27.984,27.985-27.984C335.173,237.15,347.7,249.682,347.7,265.135z"/>
	<circle fill="#306D23" cx="336.569" cy="213.376" r="27.986"/>
	<circle fill="#306D23" cx="351.013" cy="162.818" r="27.986"/>
	<path fill="#306D23" d="M394.647,111.059c0,15.455-12.529,27.987-27.986,27.987c-15.455,0-27.984-12.532-27.984-27.987
		c0-15.453,12.529-27.983,27.984-27.983C382.118,83.075,394.647,95.605,394.647,111.059z"/>
	<circle fill="#306D23" cx="384.718" cy="59.302" r="27.984"/>
	<circle fill="#306D23" cx="512.312" cy="316.896" r="27.986"/>
	<path fill="#306D23" d="M466.271,266.341c0,15.454,12.527,27.983,27.984,27.983s27.986-12.529,27.986-27.983
		c0-15.458-12.529-27.986-27.986-27.986S466.271,250.883,466.271,266.341z"/>
	<path fill="#306D23" d="M449.42,214.581c0,15.455,12.526,27.984,27.986,27.984c15.452,0,27.982-12.529,27.982-27.984
		c0-15.457-12.53-27.983-27.982-27.983C461.946,186.598,449.42,199.124,449.42,214.581z"/>
	<circle fill="#306D23" cx="462.958" cy="164.023" r="27.984"/>
	<path fill="#306D23" d="M419.326,112.266c0,15.453,12.528,27.982,27.985,27.982c15.453,0,27.984-12.529,27.984-27.982
		c0-15.457-12.531-27.985-27.984-27.985C431.854,84.28,419.326,96.809,419.326,112.266z"/>
	<circle fill="#306D23" cx="429.255" cy="60.502" r="27.985"/>
</g>
<g>
	<path fill="#388A29" d="M450.397,31.774c0,15.69-13.324,28.413-29.761,28.413c-16.438,0-29.761-12.723-29.761-28.413
		c0-15.685,13.323-28.411,29.761-28.411C437.073,3.363,450.397,16.09,450.397,31.774z"/>
	<ellipse fill="#388A29" cx="307.253" cy="319.988" rx="29.762" ry="28.411"/>
	<path fill="#388A29" d="M356.216,268.662c0,15.692-13.322,28.413-29.76,28.413c-16.437,0-29.764-12.721-29.764-28.413
		c0-15.687,13.327-28.408,29.764-28.408C342.894,240.254,356.216,252.976,356.216,268.662z"/>
	<path fill="#388A29" d="M374.14,216.117c0,15.691-13.324,28.415-29.764,28.415c-16.438,0-29.76-12.724-29.76-28.415
		c0-15.688,13.322-28.409,29.76-28.409C360.815,187.708,374.14,200.429,374.14,216.117z"/>
	<ellipse fill="#388A29" cx="359.739" cy="164.792" rx="29.764" ry="28.412"/>
	<path fill="#388A29" d="M406.146,112.245c0,15.691-13.325,28.411-29.764,28.411c-16.436,0-29.764-12.72-29.764-28.411
		c0-15.686,13.328-28.405,29.764-28.405C392.82,83.84,406.146,96.56,406.146,112.245z"/>
	<ellipse fill="#388A29" cx="395.585" cy="59.702" rx="29.762" ry="28.409"/>
	<polygon fill="#388A29" points="417.259,15.891 535.927,348 309.628,348 	"/>
	<path fill="#388A29" d="M451.259,34.791c0,15.454-12.529,27.987-27.984,27.987S395.29,50.245,395.29,34.791
		c0-15.452,12.529-27.985,27.984-27.985S451.259,19.339,451.259,34.791z"/>
	<circle fill="#388A29" cx="316.661" cy="318.693" r="27.985"/>
	<path fill="#388A29" d="M362.7,268.135c0,15.457-12.527,27.988-27.983,27.988c-15.454,0-27.985-12.531-27.985-27.988
		c0-15.453,12.531-27.984,27.985-27.984C350.173,240.15,362.7,252.682,362.7,268.135z"/>
	<circle fill="#388A29" cx="351.569" cy="216.376" r="27.986"/>
	<circle fill="#388A29" cx="366.013" cy="165.818" r="27.986"/>
	<path fill="#388A29" d="M409.647,114.059c0,15.455-12.529,27.987-27.986,27.987c-15.455,0-27.984-12.532-27.984-27.987
		c0-15.453,12.529-27.983,27.984-27.983C397.118,86.075,409.647,98.605,409.647,114.059z"/>
	<circle fill="#388A29" cx="399.718" cy="62.302" r="27.984"/>
	<circle fill="#388A29" cx="527.312" cy="319.896" r="27.986"/>
	<path fill="#388A29" d="M481.271,269.341c0,15.454,12.527,27.983,27.984,27.983s27.986-12.529,27.986-27.983
		c0-15.458-12.529-27.986-27.986-27.986S481.271,253.883,481.271,269.341z"/>
	<path fill="#388A29" d="M464.42,217.581c0,15.455,12.526,27.984,27.986,27.984c15.452,0,27.982-12.529,27.982-27.984
		c0-15.457-12.53-27.983-27.982-27.983C476.946,189.598,464.42,202.124,464.42,217.581z"/>
	<circle fill="#388A29" cx="477.958" cy="167.023" r="27.984"/>
	<path fill="#388A29" d="M434.326,115.266c0,15.453,12.528,27.982,27.985,27.982c15.453,0,27.984-12.529,27.984-27.982
		c0-15.457-12.531-27.985-27.984-27.985C446.854,87.28,434.326,99.809,434.326,115.266z"/>
	<circle fill="#388A29" cx="444.255" cy="63.502" r="27.985"/>
</g>
<g>
	<path fill="#8190FF" d="M193.354,358.485c-35.285,0-68.049-6.093-95.188-16.518c-10.543,27.238-17.252,59.005-17.252,59.005
		c21.062,15.253,68.999,5.812,83.525,5.085c14.527-0.727,13.074-18.158,13.074-22.517c0-3.479,5.578-6.951,17.067-7.472v-0.334
		c11.163,0.594,16.599,4.011,16.599,7.442c0,4.357-1.453,21.789,13.073,22.516s62.464,10.168,83.526-5.085
		c0,0-6.768-32.046-17.392-59.363C262.893,352.108,229.442,358.485,193.354,358.485z"/>
</g>
<g>
	<path fill="#FCC447" d="M278.021,313.98l-31.653-51.981l-52.256-0.2v0.366l-59.732,0.228l-26.546,59.048l0.296-1.671
		c-3.67,6.353-7.084,13.986-10.164,21.998c27.186,10.321,59.938,16.354,95.202,16.354c36.21,0,69.773-6.36,97.38-17.195
		c-3.543-9.158-7.521-17.809-11.82-24.568C277.635,314.643,277.604,314.044,278.021,313.98z"/>
</g>
<path fill="#FFDFD3" d="M157.564,301.257c0,0-0.966-0.78-1.695-1.557l-55.853-7.582l1.343,5.348
	c37.261,92.918,77.841,61.852,77.841,61.852C211.464,326.378,157.564,301.257,157.564,301.257z"/>
<path fill="#FFDFD3" d="M285.248,286.51l2.085-13.752l-59.641,25.237l-0.367-0.866c-9.615,6.407-44.305,32.551-13.667,58.371
	C213.658,355.5,257.017,382.555,285.248,286.51z"/>
<path fill="#2D3551" d="M183.366,114.442"/>
<ellipse fill="#FFDFD3" cx="192.085" cy="198.669" rx="88.247" ry="66.794"/>
<path d="M154.357,206.644c0,5.637-4.57,10.209-10.209,10.209c-5.637,0-10.208-4.572-10.208-10.209
	c0-5.642,4.571-10.213,10.208-10.213C149.787,196.431,154.357,201.002,154.357,206.644z"/>
<path d="M253.498,205.55c0,5.641-4.571,10.213-10.208,10.213c-5.642,0-10.21-4.572-10.21-10.213c0-5.638,4.568-10.209,10.21-10.209
	C248.927,195.341,253.498,199.912,253.498,205.55z"/>
<path fill="#FF6260" d="M298.676,206.479l-0.014-1.084c-24.201,24.191-62.203,39.784-104.943,39.784
	c-41.984,0-79.398-15.047-103.65-38.51c-20.055,11.746-18.154,32.495-18.154,32.495c0.986,10.478,5.54,17.858,10.271,22.826
	c-2.825,3.755-4.494,8.355-4.494,13.33c0,12.636,10.73,22.879,23.968,22.879c0.837,0,1.663-0.042,2.478-0.121
	c12.341,31.704,44.247,24.746,58.896,19.553c5.235,7.806,17.001,13.251,30.687,13.251c13.963,0,25.933-5.664,31.004-13.725
	c13.243,4.932,44.062,12.744,58.064-14.324c10.543-0.946,20.416-8.51,24.519-19.98c2.609-7.296,2.406-14.849-0.026-21.291
	c4.583-4.96,8.906-12.22,9.864-22.397C317.144,239.164,319.073,218.19,298.676,206.479z"/>
<circle fill="#FFDFD3" cx="97.302" cy="200.51" r="13.618"/>
<circle fill="#FFDFD3" cx="289.047" cy="203.778" r="13.619"/>
<path fill="#FF6260" d="M119.022,229.857c0,3.949-4.358,7.149-9.737,7.149l0,0c-5.378,0-9.736-3.2-9.736-7.149v-54.337
	c0-3.949,4.358-7.149,9.736-7.149l0,0c5.379,0,9.737,3.2,9.737,7.149V229.857z"/>
<path fill="#FF6260" d="M288.979,232.581c0,3.949-4.603,7.149-10.282,7.149l0,0c-5.68,0-10.281-3.2-10.281-7.149v-54.337
	c0-3.949,4.602-7.149,10.281-7.149l0,0c5.68,0,10.282,3.2,10.282,7.149V232.581z"/>
<path fill="#FF6260" d="M196.987,123.158c-41.682,0-77.92,7.417-96.417,18.33v33.065c18.497,10.914,54.735,18.33,96.417,18.33
	c38.621,0,72.567-6.367,92.06-15.984v-37.757C269.555,129.525,235.608,123.158,196.987,123.158z"/>
<ellipse fill="#FFC556" cx="191.903" cy="123.704" rx="92.06" ry="51.75"/>
<path fill="#FFC556" d="M116.186,94.288c0,0-21.789,20.155-22.879,44.124c-1.09,23.968,28.326,7.626,28.326,7.626L116.186,94.288z"
	/>
<path fill="#FFC556" d="M270.859,96.468c0,0,21.789,20.154,22.879,44.123c1.09,23.968-28.326,7.626-28.326,7.626L270.859,96.468z"/>
<ellipse fill="#F9A715" cx="190.607" cy="70.958" rx="20.426" ry="19.608"/>
<path fill="#F9A715" d="M301.951,162.927c0,7.22-6.369,13.073-14.223,13.073h-187.27c-7.854,0-14.223-5.854-14.223-13.073v-11.984
	c0-7.22,6.369-13.073,14.223-13.073h187.27c7.854,0,14.223,5.854,14.223,13.073V162.927z"/>
<path fill="#EA534C" d="M259.312,231.123c-5.666,3.107-18.832,2.743-35.472-9.143c-15.759-11.257-27.415,1.759-28.604,3.168
	c-0.607-0.74-12.474-14.837-28.682-3.259c-16.639,11.885-29.804,12.251-35.473,9.143c-5.67-3.109-3.29,1.645-3.29,1.645
	c2.376,10.971,15.542,19.749,15.542,19.749c20.076,9.687,49.654,1.05,51.801,0.403v0.053c0,0,31.083,9.692,51.929-0.365
	c0,0,13.164-8.776,15.542-19.747C262.605,232.77,264.981,228.015,259.312,231.123z"/>
<path fill="#FCD1C3" d="M202.364,326.363c0,0,1.004,1.73,2.633,3.316c1.859,1.812,4.535,3.431,7.467,2.08
	c5.502-2.534,18.555,3.115,14.406,13.846c-4.149,10.733-20.574-8.577-20.758-11.675c-0.078-1.306-1.562-1.688-2.689-2.673
	c-1.546-1.344-1.597-0.02-1.597-0.02L202.364,326.363z"/>
<path fill="#FCD1C3" d="M183.297,323.282c0,0,0.192,1.432-1.28,3.165c-1.678,1.979-4.186,3.847-7.233,2.782
	c-5.719-1.999-18.173,4.869-13.021,15.156c5.152,10.288,19.662-10.5,19.55-13.601c-0.046-1.309,1.393-1.831,2.423-2.917
	c1.41-1.486,1.588-0.172,1.588-0.172L183.297,323.282z"/>
<g>
	<path fill="#EA534C" d="M298.119,206.118l-0.002-0.179c-0.566,0.567-1.148,1.125-1.732,1.682
		C296.973,207.127,297.545,206.622,298.119,206.118z"/>
	<path fill="#EA534C" d="M198.622,326.524c-13.687,0-25.452-5.445-30.688-13.252c-14.647,5.193-46.554,12.151-58.895-19.553
		c-0.815,0.08-1.642,0.121-2.478,0.121c-13.238,0-23.969-10.243-23.969-22.878c0-4.976,1.67-9.575,4.494-13.33
		c-4.731-4.968-9.285-12.35-10.271-22.827c0,0-1.258-13.782,9.133-25.24c-16.243,11.958-14.58,30.144-14.58,30.144
		c0.986,10.478,5.54,17.858,10.271,22.826c-2.825,3.755-4.494,8.355-4.494,13.33c0,12.635,10.73,22.879,23.969,22.879
		c0.836,0,1.662-0.042,2.478-0.121c12.341,31.704,44.247,24.745,58.895,19.553c5.235,7.806,17.001,13.251,30.687,13.251
		c12.722,0,23.771-4.71,29.473-11.643C216.548,323.938,208.043,326.524,198.622,326.524z"/>
	<path fill="#EA534C" d="M287.689,298.475c-0.837,1.619-1.738,3.105-2.689,4.483c5.939-1.193,11.504-4.47,15.758-9.329
		C296.819,296.367,292.318,298.06,287.689,298.475z"/>
	<path fill="#EA534C" d="M229.625,312.8c-1.184,1.88-2.755,3.622-4.626,5.201c12.049,4.352,36.718,10.277,51.784-6.626
		C261.354,322.334,240.048,316.681,229.625,312.8z"/>
</g>
<ellipse fill="#6373C1" cx="257.999" cy="396" rx="49.026" ry="16.76"/>
<path fill="#6373C1" d="M179.559,394.272c0,10.642-22.194,19.268-49.571,19.268s-49.571-8.626-49.571-19.268
	c0-10.646,22.194-19.271,49.571-19.271S179.559,383.627,179.559,394.272z"/>
<path fill="#AB652D" d="M200.487,396.952c0.025,3.313-2.641,6.021-5.953,6.047l0,0c-3.313,0.025-6.021-2.641-6.047-5.955
	l-0.978-126.996c-0.026-3.312,2.641-6.02,5.953-6.046l0,0c3.313-0.025,6.021,2.641,6.046,5.955L200.487,396.952z"/>
<line stroke="#F5F5F5" stroke-width="2" x1="189.999" y1="267.001" x2="-0.001" y2="417.001"/>
</svg>
