<?xml version="1.0" encoding="utf-8"?>
<!-- Generator: Adobe Illustrator 15.1.0, SVG Export Plug-In . SVG Version: 6.00 Build 0)  -->
<!DOCTYPE svg PUBLIC "-//W3C//DTD SVG 1.1//EN" "http://www.w3.org/Graphics/SVG/1.1/DTD/svg11.dtd">
<svg version="1.1" id="Layer_1" xmlns="http://www.w3.org/2000/svg" xmlns:xlink="http://www.w3.org/1999/xlink" x="0px" y="0px"
	 width="1024px" height="768px" viewBox="0 0 1024 768" enable-background="new 0 0 1024 768" xml:space="preserve">
<path fill="#00233D" d="M-1283-11v780h1034V-11H-1283z M-671.544,514H-838.39c-3.679-7-5.694-19.041-5.694-30.177
	c0-49.617,39.898-89.103,89.117-89.103c49.214,0,89.113,39.12,89.113,88.735C-665.854,494.596-667.87,507-671.544,514z"/>
<g>
	<path fill="#012B4A" d="M-709.129,196.067c0,26.241-22.285,47.52-49.773,47.52c-27.489,0-49.772-21.278-49.772-47.52
		c0-26.232,22.283-47.516,49.772-47.516C-731.414,148.552-709.129,169.835-709.129,196.067z"/>
	<ellipse fill="#012B4A" cx="-948.53" cy="678.088" rx="49.775" ry="47.517"/>
	<path fill="#012B4A" d="M-866.643,592.248c0,26.246-22.28,47.52-49.771,47.52c-27.49,0-49.777-21.272-49.777-47.52
		c0-26.234,22.287-47.512,49.777-47.512C-888.923,544.736-866.643,566.014-866.643,592.248z"/>
	<path fill="#012B4A" d="M-836.666,504.371c0,26.242-22.285,47.521-49.778,47.521c-27.489,0-49.771-21.279-49.771-47.521
		c0-26.238,22.282-47.514,49.771-47.514C-858.951,456.857-836.666,478.133-836.666,504.371z"/>
	<path fill="#012B4A" d="M-810.972,418.532c0,26.241-22.284,47.518-49.776,47.518c-27.496,0-49.78-21.275-49.78-47.518
		c0-26.24,22.284-47.507,49.78-47.507C-833.256,371.025-810.972,392.292-810.972,418.532z"/>
	<path fill="#012B4A" d="M-783.138,330.65c0,26.242-22.286,47.515-49.776,47.515c-27.489,0-49.78-21.272-49.78-47.515
		c0-26.234,22.291-47.506,49.78-47.506C-805.424,283.145-783.138,304.416-783.138,330.65z"/>
	<path fill="#012B4A" d="M-751.024,242.774c0,26.242-22.286,47.513-49.775,47.513c-27.494,0-49.774-21.271-49.774-47.513
		c0-26.237,22.28-47.513,49.774-47.513C-773.312,195.262-751.024,216.537-751.024,242.774z"/>
	<polygon fill="#012B4A" points="-764.553,169.564 -566.084,725 -944.559,725 	"/>
	<path fill="#012B4A" d="M-707.688,201.112c0,25.847-20.955,46.808-46.804,46.808s-46.802-20.961-46.802-46.808
		c0-25.842,20.953-46.804,46.802-46.804C-728.644,154.309-707.688,175.271-707.688,201.112z"/>
	<path fill="#012B4A" d="M-885.994,675.923c0,25.852-20.957,46.804-46.805,46.804c-25.845,0-46.8-20.952-46.8-46.804
		c0-25.848,20.956-46.805,46.8-46.805C-906.951,629.118-885.994,650.075-885.994,675.923z"/>
	<path fill="#012B4A" d="M-855.799,591.368c0,25.849-20.949,46.808-46.8,46.808c-25.846,0-46.805-20.959-46.805-46.808
		c0-25.847,20.959-46.806,46.805-46.806C-876.748,544.562-855.799,565.521-855.799,591.368z"/>
	<path fill="#012B4A" d="M-827.609,504.804c0,25.849-20.955,46.809-46.805,46.809c-25.852,0-46.806-20.96-46.806-46.809
		s20.954-46.802,46.806-46.802C-848.564,458.002-827.609,478.955-827.609,504.804z"/>
	<path fill="#012B4A" d="M-803.453,420.248c0,25.85-20.952,46.808-46.803,46.808c-25.854,0-46.81-20.958-46.81-46.808
		s20.955-46.796,46.81-46.796C-824.405,373.452-803.453,394.398-803.453,420.248z"/>
	<path fill="#012B4A" d="M-777.281,333.684c0,25.848-20.954,46.807-46.806,46.807c-25.848,0-46.803-20.959-46.803-46.807
		c0-25.845,20.955-46.801,46.803-46.801C-798.235,286.883-777.281,307.839-777.281,333.684z"/>
	<path fill="#012B4A" d="M-747.086,247.123c0,25.844-20.954,46.799-46.802,46.799c-25.853,0-46.804-20.955-46.804-46.799
		c0-25.849,20.951-46.807,46.804-46.807C-768.04,200.316-747.086,221.274-747.086,247.123z"/>
	<path fill="#012B4A" d="M-627.299,677.934c0,25.853,20.951,46.808,46.804,46.808c25.854,0,46.808-20.955,46.808-46.808
		c0-25.846-20.954-46.801-46.808-46.801C-606.348,631.133-627.299,652.088-627.299,677.934z"/>
	<path fill="#012B4A" d="M-657.496,593.384c0,25.845,20.951,46.801,46.804,46.801c25.851,0,46.806-20.956,46.806-46.801
		c0-25.853-20.955-46.807-46.806-46.807C-636.545,546.577-657.496,567.531-657.496,593.384z"/>
	<path fill="#012B4A" d="M-685.678,506.82c0,25.846,20.949,46.801,46.807,46.801c25.842,0,46.798-20.955,46.798-46.801
		c0-25.853-20.956-46.803-46.798-46.803C-664.729,460.019-685.678,480.969-685.678,506.82z"/>
	<path fill="#012B4A" d="M-709.837,422.264c0,25.85,20.951,46.802,46.8,46.802c25.85,0,46.805-20.952,46.805-46.802
		c0-25.852-20.955-46.8-46.805-46.8C-688.886,375.464-709.837,396.412-709.837,422.264z"/>
	<path fill="#012B4A" d="M-736.008,335.701c0,25.845,20.953,46.8,46.805,46.8c25.844,0,46.803-20.955,46.803-46.8
		c0-25.85-20.959-46.804-46.803-46.804C-715.055,288.897-736.008,309.852-736.008,335.701z"/>
	<path fill="#012B4A" d="M-766.204,249.13c0,25.85,20.954,46.805,46.802,46.805c25.85,0,46.805-20.955,46.805-46.805
		c0-25.846-20.955-46.8-46.805-46.8C-745.25,202.33-766.204,223.284-766.204,249.13z"/>
</g>
<g>
	<path fill="#023558" d="M-1005.84,271.5c0,21.835-18.543,39.541-41.417,39.541c-22.876,0-41.417-17.706-41.417-39.541
		c0-21.826,18.541-39.537,41.417-39.537C-1024.383,231.963-1005.84,249.674-1005.84,271.5z"/>
	<path fill="#023558" d="M-1163.631,672.592c0,21.836-18.54,39.539-41.414,39.539c-22.878,0-41.42-17.703-41.42-39.539
		c0-21.835,18.542-39.536,41.42-39.536C-1182.171,633.056-1163.631,650.757-1163.631,672.592z"/>
	<path fill="#023558" d="M-1136.908,601.163c0,21.84-18.541,39.541-41.415,39.541c-22.874,0-41.42-17.701-41.42-39.541
		c0-21.828,18.546-39.534,41.42-39.534C-1155.449,561.629-1136.908,579.335-1136.908,601.163z"/>
	<path fill="#023558" d="M-1111.965,528.042c0,21.835-18.542,39.542-41.42,39.542c-22.876,0-41.416-17.707-41.416-39.542
		s18.54-39.536,41.416-39.536C-1130.507,488.506-1111.965,506.207-1111.965,528.042z"/>
	<path fill="#023558" d="M-1090.584,456.613c0,21.837-18.543,39.54-41.419,39.54c-22.88,0-41.423-17.703-41.423-39.54
		c0-21.832,18.543-39.528,41.423-39.528C-1109.127,417.085-1090.584,434.781-1090.584,456.613z"/>
	<path fill="#023558" d="M-1067.424,383.486c0,21.838-18.543,39.539-41.421,39.539c-22.872,0-41.419-17.701-41.419-39.539
		c0-21.827,18.547-39.529,41.419-39.529C-1085.967,343.957-1067.424,361.659-1067.424,383.486z"/>
	<ellipse fill="#023558" cx="-1082.121" cy="310.366" rx="41.417" ry="39.536"/>
	<polygon fill="#023558" points="-1051.957,250.822 -886.814,713 -1201.741,713 	"/>
	<path fill="#023558" d="M-1004.643,275.698c0,21.507-17.436,38.948-38.943,38.948s-38.945-17.441-38.945-38.948
		c0-21.503,17.438-38.946,38.945-38.946S-1004.643,254.195-1004.643,275.698z"/>
	<path fill="#023558" d="M-1153.01,670.79c0,21.51-17.438,38.945-38.947,38.945c-21.505,0-38.943-17.437-38.943-38.945
		s17.438-38.944,38.943-38.944C-1170.447,631.846-1153.01,649.28-1153.01,670.79z"/>
	<path fill="#023558" d="M-1127.885,600.432c0,21.511-17.434,38.949-38.943,38.949c-21.506,0-38.945-17.438-38.945-38.949
		c0-21.508,17.439-38.943,38.945-38.943C-1145.318,561.487-1127.885,578.924-1127.885,600.432z"/>
	<path fill="#023558" d="M-1104.428,528.4c0,21.509-17.438,38.948-38.947,38.948s-38.945-17.439-38.945-38.948
		s17.436-38.944,38.945-38.944S-1104.428,506.893-1104.428,528.4z"/>
	<path fill="#023558" d="M-1084.327,458.043c0,21.51-17.435,38.947-38.946,38.947c-21.511,0-38.947-17.438-38.947-38.947
		s17.437-38.939,38.947-38.939C-1101.762,419.104-1084.327,436.533-1084.327,458.043z"/>
	<path fill="#023558" d="M-1062.549,386.012c0,21.508-17.438,38.947-38.949,38.947c-21.506,0-38.943-17.439-38.943-38.947
		c0-21.506,17.438-38.943,38.943-38.943C-1079.986,347.068-1062.549,364.506-1062.549,386.012z"/>
	<circle fill="#023558" cx="-1076.368" cy="313.982" r="38.944"/>
	<path fill="#023558" d="M-937.75,672.463c0,21.511,17.436,38.947,38.947,38.947c21.511,0,38.946-17.438,38.946-38.947
		c0-21.507-17.436-38.943-38.946-38.943C-920.314,633.52-937.75,650.956-937.75,672.463z"/>
	<path fill="#023558" d="M-962.875,602.108c0,21.507,17.433,38.941,38.943,38.941c21.51,0,38.946-17.436,38.946-38.941
		c0-21.514-17.437-38.946-38.946-38.946C-945.442,563.162-962.875,580.596-962.875,602.108z"/>
	<path fill="#023558" d="M-986.325,530.077c0,21.508,17.433,38.944,38.946,38.944c21.504,0,38.94-17.438,38.94-38.944
		c0-21.509-17.438-38.943-38.94-38.943C-968.894,491.134-986.325,508.568-986.325,530.077z"/>
	<path fill="#023558" d="M-1006.43,459.72c0,21.507,17.434,38.942,38.941,38.942c21.511,0,38.947-17.437,38.947-38.942
		c0-21.511-17.438-38.941-38.947-38.941C-988.996,420.777-1006.43,438.209-1006.43,459.72z"/>
	<circle fill="#023558" cx="-989.261" cy="387.689" r="38.945"/>
	<circle fill="#023558" cx="-1014.388" cy="315.654" r="38.944"/>
</g>
<g>
	<path fill="#023558" d="M-434.84,268.5c0,21.835-18.543,39.541-41.417,39.541c-22.876,0-41.417-17.706-41.417-39.541
		c0-21.826,18.541-39.537,41.417-39.537C-453.383,228.963-434.84,246.674-434.84,268.5z"/>
	<path fill="#023558" d="M-592.631,669.592c0,21.836-18.54,39.539-41.414,39.539c-22.878,0-41.42-17.703-41.42-39.539
		c0-21.835,18.542-39.536,41.42-39.536C-611.171,630.056-592.631,647.757-592.631,669.592z"/>
	<path fill="#023558" d="M-565.908,598.163c0,21.84-18.541,39.541-41.415,39.541s-41.42-17.701-41.42-39.541
		c0-21.828,18.546-39.534,41.42-39.534S-565.908,576.335-565.908,598.163z"/>
	<path fill="#023558" d="M-540.965,525.042c0,21.835-18.542,39.542-41.42,39.542c-22.876,0-41.416-17.707-41.416-39.542
		s18.54-39.536,41.416-39.536C-559.507,485.506-540.965,503.207-540.965,525.042z"/>
	<path fill="#023558" d="M-519.584,453.613c0,21.837-18.543,39.54-41.419,39.54c-22.88,0-41.423-17.703-41.423-39.54
		c0-21.832,18.543-39.528,41.423-39.528C-538.127,414.085-519.584,431.781-519.584,453.613z"/>
	<path fill="#023558" d="M-496.424,380.486c0,21.838-18.543,39.539-41.421,39.539c-22.872,0-41.419-17.701-41.419-39.539
		c0-21.827,18.547-39.529,41.419-39.529C-514.967,340.957-496.424,358.659-496.424,380.486z"/>
	<ellipse fill="#023558" cx="-511.121" cy="307.366" rx="41.417" ry="39.536"/>
	<polygon fill="#023558" points="-480.957,247.822 -315.814,710 -630.741,710 	"/>
	<path fill="#023558" d="M-433.643,272.698c0,21.507-17.437,38.948-38.943,38.948s-38.945-17.441-38.945-38.948
		c0-21.503,17.438-38.946,38.945-38.946S-433.643,251.195-433.643,272.698z"/>
	<path fill="#023558" d="M-582.01,667.79c0,21.51-17.438,38.945-38.947,38.945c-21.505,0-38.943-17.437-38.943-38.945
		s17.438-38.944,38.943-38.944C-599.447,628.846-582.01,646.28-582.01,667.79z"/>
	<path fill="#023558" d="M-556.885,597.432c0,21.511-17.435,38.949-38.943,38.949c-21.506,0-38.945-17.438-38.945-38.949
		c0-21.508,17.439-38.943,38.945-38.943C-574.318,558.487-556.885,575.924-556.885,597.432z"/>
	<path fill="#023558" d="M-533.428,525.4c0,21.509-17.438,38.948-38.947,38.948s-38.945-17.439-38.945-38.948
		s17.437-38.944,38.945-38.944S-533.428,503.893-533.428,525.4z"/>
	<path fill="#023558" d="M-513.327,455.043c0,21.51-17.435,38.947-38.946,38.947c-21.511,0-38.946-17.438-38.946-38.947
		s17.437-38.939,38.946-38.939C-530.762,416.104-513.327,433.533-513.327,455.043z"/>
	<path fill="#023558" d="M-491.549,383.012c0,21.508-17.438,38.947-38.949,38.947c-21.506,0-38.943-17.439-38.943-38.947
		c0-21.506,17.438-38.943,38.943-38.943C-508.986,344.068-491.549,361.506-491.549,383.012z"/>
	<circle fill="#023558" cx="-505.368" cy="310.982" r="38.944"/>
	<path fill="#023558" d="M-366.75,669.463c0,21.511,17.436,38.947,38.947,38.947c21.511,0,38.947-17.438,38.947-38.947
		c0-21.507-17.437-38.943-38.947-38.943C-349.314,630.52-366.75,647.956-366.75,669.463z"/>
	<path fill="#023558" d="M-391.875,599.108c0,21.507,17.433,38.941,38.943,38.941c21.51,0,38.946-17.436,38.946-38.941
		c0-21.514-17.437-38.946-38.946-38.946C-374.442,560.162-391.875,577.596-391.875,599.108z"/>
	<path fill="#023558" d="M-415.325,527.077c0,21.508,17.433,38.944,38.946,38.944c21.504,0,38.94-17.438,38.94-38.944
		c0-21.509-17.438-38.943-38.94-38.943C-397.894,488.134-415.325,505.568-415.325,527.077z"/>
	<path fill="#023558" d="M-435.43,456.72c0,21.507,17.434,38.942,38.94,38.942c21.511,0,38.947-17.437,38.947-38.942
		c0-21.511-17.438-38.941-38.947-38.941C-417.996,417.777-435.43,435.209-435.43,456.72z"/>
	<circle fill="#023558" cx="-418.261" cy="384.689" r="38.945"/>
	<circle fill="#023558" cx="-443.388" cy="312.654" r="38.944"/>
</g>
<path fill="#8DC73F" d="M-253,749c0,6.627-5.373,12-12,12h-1005c-6.627,0-12-5.373-12-12v-40c0-6.627,5.373-12,12-12h1005
	c6.627,0,12,5.373,12,12V749z"/>
<circle fill="#388A29" cx="-1281.851" cy="704.024" r="150.469"/>
<path fill="#306D23" d="M-1282,658.943v264.806c45-25.449,78.93-75.196,78.93-132.401C-1203.07,734.141-1237,684.394-1282,658.943z"
	/>
<path fill="#306D23" d="M-1017.303,761c-25.454-47-75.195-78.904-132.391-78.904c-57.197,0-106.939,31.904-132.392,78.904H-1017.303
	z"/>
<circle fill="#306D23" cx="-254.771" cy="700.024" r="150.469"/>
<path fill="#306D23" d="M-255,654.943v264.806c-45-25.449-78.93-75.196-78.93-132.401C-333.93,730.141-300,680.394-255,654.943z"/>
<path fill="#388A29" d="M-519.318,761c25.453-47,75.195-78.904,132.392-78.904S-279.989,714-254.534,761H-519.318z"/>
<path fill="#00233D" d="M1-116v780h1034v-780H1z M612.456,409H445.61c-3.679-7-5.694-19.041-5.694-30.177
	c0-49.617,39.898-89.103,89.117-89.103c49.214,0,89.113,39.12,89.113,88.735C618.146,389.596,616.13,402,612.456,409z"/>
<path fill="#8DC73F" d="M1031,729.625c0,20.088-5.373,36.375-12,36.375H14c-6.627,0-12-16.287-12-36.375v-121.25
	C2,588.287,7.373,572,14,572h1005c6.627,0,12,16.287,12,36.375V729.625z"/>
<path fill="#2D3551" d="M505.367,303.441"/>
<circle fill="#388A29" cx="-33.851" cy="707.024" r="150.469"/>
<path fill="#306D23" d="M0,661.943v264.806c45-25.449,78.93-75.196,78.93-132.401C78.93,737.141,45,687.394,0,661.943z"/>
<path fill="#306D23" d="M192.697,765c-25.454-47-75.195-78.904-132.391-78.904C3.109,686.096-46.633,718-72.086,765H192.697z"/>
<circle fill="#306D23" cx="1109.229" cy="701.053" r="150.469"/>
<path fill="#306D23" d="M1025,657.943v264.806c-45-25.449-78.93-75.196-78.93-132.401C946.07,733.141,980,683.394,1025,657.943z"/>
<path fill="#388A29" d="M854.682,768c25.453-47,75.195-78.904,132.392-78.904S1094.011,721,1119.466,768H854.682z"/>
<g>
	<path fill="#012B4A" d="M577.54,60.272c0,25.588-21.73,46.337-48.534,46.337c-26.806,0-48.535-20.749-48.535-46.337
		c0-25.58,21.729-46.334,48.535-46.334C555.81,13.939,577.54,34.693,577.54,60.272z"/>
	<ellipse fill="#012B4A" cx="344.096" cy="530.3" rx="48.537" ry="46.335"/>
	<path fill="#012B4A" d="M423.946,446.596c0,25.593-21.726,46.337-48.533,46.337c-26.806,0-48.539-20.743-48.539-46.337
		c0-25.581,21.732-46.33,48.539-46.33C402.22,400.266,423.946,421.015,423.946,446.596z"/>
	<path fill="#012B4A" d="M453.176,360.905c0,25.589-21.73,46.339-48.54,46.339c-26.805,0-48.533-20.75-48.533-46.339
		c0-25.585,21.728-46.332,48.533-46.332C431.446,314.574,453.176,335.32,453.176,360.905z"/>
	<path fill="#012B4A" d="M478.231,277.202c0,25.588-21.73,46.335-48.538,46.335c-26.812,0-48.542-20.746-48.542-46.335
		c0-25.587,21.73-46.325,48.542-46.325C456.501,230.877,478.231,251.615,478.231,277.202z"/>
	<path fill="#012B4A" d="M505.373,191.506c0,25.589-21.731,46.333-48.538,46.333c-26.806,0-48.542-20.743-48.542-46.333
		c0-25.581,21.736-46.323,48.542-46.323C483.641,145.184,505.373,165.926,505.373,191.506z"/>
	<path fill="#012B4A" d="M536.688,105.817c0,25.589-21.732,46.331-48.538,46.331c-26.81,0-48.536-20.742-48.536-46.331
		c0-25.584,21.726-46.331,48.536-46.331C514.953,59.488,536.688,80.233,536.688,105.817z"/>
	<polygon fill="#012B4A" points="523.495,34.429 717.025,576.045 347.968,576.045 	"/>
	<path fill="#012B4A" d="M578.945,65.192c0,25.204-20.433,45.643-45.639,45.643c-25.206,0-45.638-20.439-45.638-45.643
		c0-25.199,20.432-45.639,45.638-45.639C558.512,19.554,578.945,39.994,578.945,65.192z"/>
	<path fill="#012B4A" d="M405.076,528.188c0,25.208-20.436,45.64-45.64,45.64c-25.202,0-45.636-20.432-45.636-45.64
		c0-25.204,20.434-45.641,45.636-45.641C384.64,482.548,405.076,502.984,405.076,528.188z"/>
	<path fill="#012B4A" d="M434.52,445.737c0,25.206-20.428,45.644-45.635,45.644c-25.203,0-45.64-20.438-45.64-45.644
		c0-25.203,20.438-45.642,45.64-45.642C414.092,400.096,434.52,420.534,434.52,445.737z"/>
	<path fill="#012B4A" d="M462.008,361.326c0,25.206-20.434,45.645-45.64,45.645c-25.208,0-45.641-20.438-45.641-45.645
		c0-25.205,20.433-45.636,45.641-45.636C441.574,315.69,462.008,336.122,462.008,361.326z"/>
	<path fill="#012B4A" d="M485.562,278.875c0,25.207-20.431,45.643-45.638,45.643c-25.211,0-45.645-20.437-45.645-45.643
		s20.434-45.631,45.645-45.631C465.132,233.244,485.562,253.669,485.562,278.875z"/>
	<path fill="#012B4A" d="M511.083,194.465c0,25.205-20.432,45.643-45.641,45.643c-25.204,0-45.638-20.438-45.638-45.643
		c0-25.202,20.434-45.637,45.638-45.637C490.651,148.829,511.083,169.263,511.083,194.465z"/>
	<path fill="#012B4A" d="M540.527,110.058c0,25.201-20.434,45.634-45.637,45.634c-25.209,0-45.639-20.434-45.639-45.634
		c0-25.206,20.43-45.643,45.639-45.643C520.094,64.416,540.527,84.853,540.527,110.058z"/>
	<path fill="#012B4A" d="M657.334,530.148c0,25.21,20.43,45.644,45.639,45.644c25.211,0,45.644-20.434,45.644-45.644
		c0-25.202-20.433-45.636-45.644-45.636C677.764,484.513,657.334,504.946,657.334,530.148z"/>
	<path fill="#012B4A" d="M627.889,447.703c0,25.201,20.429,45.637,45.639,45.637c25.207,0,45.641-20.436,45.641-45.637
		c0-25.21-20.434-45.642-45.641-45.642C648.317,402.062,627.889,422.493,627.889,447.703z"/>
	<path fill="#012B4A" d="M600.408,363.294c0,25.202,20.428,45.636,45.641,45.636c25.2,0,45.634-20.434,45.634-45.636
		c0-25.209-20.434-45.639-45.634-45.639C620.836,317.656,600.408,338.085,600.408,363.294z"/>
	<path fill="#012B4A" d="M576.85,280.841c0,25.207,20.43,45.637,45.636,45.637s45.64-20.431,45.64-45.637
		c0-25.208-20.434-45.635-45.64-45.635S576.85,255.633,576.85,280.841z"/>
	<path fill="#012B4A" d="M551.33,196.432c0,25.202,20.432,45.636,45.64,45.636c25.2,0,45.639-20.434,45.639-45.636
		c0-25.207-20.438-45.639-45.639-45.639C571.762,150.793,551.33,171.227,551.33,196.432z"/>
	<path fill="#012B4A" d="M521.885,112.015c0,25.207,20.433,45.64,45.638,45.64c25.206,0,45.64-20.434,45.64-45.64
		c0-25.203-20.434-45.636-45.64-45.636C542.317,66.379,521.885,86.812,521.885,112.015z"/>
</g>
<g>
	<path fill="#023558" d="M290.212,147.799c0,21.292-18.082,38.558-40.386,38.558c-22.307,0-40.387-17.266-40.387-38.558
		c0-21.283,18.08-38.553,40.387-38.553C272.13,109.246,290.212,126.516,290.212,147.799z"/>
	<path fill="#023558" d="M136.347,538.911c0,21.293-18.078,38.555-40.383,38.555c-22.309,0-40.389-17.262-40.389-38.555
		c0-21.292,18.081-38.552,40.389-38.552C118.269,500.359,136.347,517.619,136.347,538.911z"/>
	<path fill="#023558" d="M162.405,469.26c0,21.297-18.08,38.557-40.384,38.557s-40.39-17.26-40.39-38.557
		c0-21.286,18.085-38.551,40.39-38.551S162.405,447.974,162.405,469.26z"/>
	<path fill="#023558" d="M186.728,397.958c0,21.291-18.081,38.558-40.389,38.558c-22.308,0-40.386-17.267-40.386-38.558
		c0-21.292,18.078-38.553,40.386-38.553C168.647,359.405,186.728,376.666,186.728,397.958z"/>
	<path fill="#023558" d="M207.576,328.307c0,21.293-18.081,38.556-40.388,38.556c-22.311,0-40.392-17.263-40.392-38.556
		c0-21.289,18.082-38.545,40.392-38.545C189.495,289.762,207.576,307.018,207.576,328.307z"/>
	<path fill="#023558" d="M230.16,256.999c0,21.294-18.082,38.555-40.391,38.555c-22.303,0-40.388-17.261-40.388-38.555
		c0-21.284,18.085-38.545,40.388-38.545C212.079,218.454,230.16,235.715,230.16,256.999z"/>
	<ellipse fill="#023558" cx="215.829" cy="185.698" rx="40.386" ry="38.552"/>
	<polygon fill="#023558" points="245.242,127.636 406.276,578.313 99.185,578.313 	"/>
	<path fill="#023558" d="M291.379,151.893c0,20.972-17.002,37.979-37.974,37.979s-37.976-17.007-37.976-37.979
		c0-20.968,17.004-37.978,37.976-37.978S291.379,130.925,291.379,151.893z"/>
	<path fill="#023558" d="M146.704,537.154c0,20.974-17.005,37.976-37.979,37.976c-20.97,0-37.974-17.003-37.974-37.976
		c0-20.974,17.004-37.976,37.974-37.976C129.701,499.179,146.704,516.18,146.704,537.154z"/>
	<path fill="#023558" d="M171.204,468.546c0,20.976-17,37.98-37.975,37.98c-20.971,0-37.976-17.005-37.976-37.98
		c0-20.973,17.005-37.974,37.976-37.974C154.205,430.571,171.204,447.573,171.204,468.546z"/>
	<path fill="#023558" d="M194.077,398.308c0,20.974-17.004,37.979-37.978,37.979s-37.976-17.005-37.976-37.979
		s17.002-37.976,37.976-37.976S194.077,377.334,194.077,398.308z"/>
	<path fill="#023558" d="M213.678,329.7c0,20.975-17.001,37.979-37.977,37.979c-20.976,0-37.978-17.006-37.978-37.979
		s17.003-37.97,37.978-37.97C196.676,291.73,213.678,308.726,213.678,329.7z"/>
	<path fill="#023558" d="M234.914,259.462c0,20.973-17.004,37.978-37.98,37.978c-20.971,0-37.974-17.005-37.974-37.978
		c0-20.971,17.004-37.974,37.974-37.974C217.911,221.487,234.914,238.491,234.914,259.462z"/>
	<circle fill="#023558" cx="221.438" cy="189.224" r="37.975"/>
	<path fill="#023558" d="M356.607,538.785c0,20.976,17.001,37.979,37.978,37.979c20.976,0,37.978-17.004,37.978-37.979
		c0-20.972-17.001-37.975-37.978-37.975C373.609,500.811,356.607,517.813,356.607,538.785z"/>
	<path fill="#023558" d="M332.108,470.182c0,20.972,16.999,37.972,37.974,37.972c20.975,0,37.977-17.001,37.977-37.972
		c0-20.979-17.002-37.978-37.977-37.978C349.107,432.204,332.108,449.204,332.108,470.182z"/>
	<path fill="#023558" d="M309.241,399.942c0,20.973,16.999,37.976,37.977,37.976c20.969,0,37.972-17.004,37.972-37.976
		c0-20.974-17.004-37.975-37.972-37.975C326.239,361.968,309.241,378.969,309.241,399.942z"/>
	<path fill="#023558" d="M289.636,331.335c0,20.972,17,37.973,37.972,37.973c20.975,0,37.978-17.002,37.978-37.973
		c0-20.975-17.004-37.973-37.978-37.973C306.637,293.362,289.636,310.36,289.636,331.335z"/>
	<circle fill="#023558" cx="306.378" cy="261.097" r="37.976"/>
	<circle fill="#023558" cx="281.876" cy="190.855" r="37.975"/>
</g>
<g>
	<path fill="#023558" d="M847.004,144.874c0,21.292-18.081,38.557-40.386,38.557c-22.308,0-40.387-17.266-40.387-38.557
		c0-21.283,18.079-38.553,40.387-38.553C828.923,106.321,847.004,123.591,847.004,144.874z"/>
	<path fill="#023558" d="M693.14,535.986c0,21.292-18.079,38.555-40.384,38.555c-22.309,0-40.39-17.263-40.39-38.555
		c0-21.293,18.081-38.554,40.39-38.554C675.061,497.433,693.14,514.693,693.14,535.986z"/>
	<path fill="#023558" d="M719.197,466.335c0,21.295-18.079,38.557-40.385,38.557c-22.305,0-40.389-17.262-40.389-38.557
		c0-21.286,18.084-38.552,40.389-38.552C701.118,427.783,719.197,445.049,719.197,466.335z"/>
	<path fill="#023558" d="M743.521,395.033c0,21.291-18.082,38.558-40.39,38.558c-22.307,0-40.386-17.267-40.386-38.558
		c0-21.293,18.079-38.553,40.386-38.553C725.438,356.48,743.521,373.74,743.521,395.033z"/>
	<path fill="#023558" d="M764.368,325.381c0,21.293-18.081,38.556-40.388,38.556c-22.311,0-40.393-17.263-40.393-38.556
		c0-21.289,18.082-38.545,40.393-38.545C746.287,286.836,764.368,304.092,764.368,325.381z"/>
	<path fill="#023558" d="M786.953,254.074c0,21.294-18.083,38.555-40.391,38.555c-22.303,0-40.389-17.261-40.389-38.555
		c0-21.284,18.086-38.546,40.389-38.546C768.87,215.528,786.953,232.79,786.953,254.074z"/>
	<ellipse fill="#023558" cx="772.621" cy="182.773" rx="40.387" ry="38.552"/>
	<polygon fill="#023558" points="802.034,124.71 963.068,575.389 655.978,575.389 	"/>
	<path fill="#023558" d="M848.172,148.968c0,20.972-17.002,37.979-37.975,37.979c-20.972,0-37.977-17.007-37.977-37.979
		c0-20.969,17.005-37.977,37.977-37.977C831.17,110.991,848.172,127.999,848.172,148.968z"/>
	<path fill="#023558" d="M703.496,534.229c0,20.975-17.005,37.977-37.979,37.977c-20.97,0-37.974-17.003-37.974-37.977
		s17.004-37.975,37.974-37.975C686.492,496.254,703.496,513.254,703.496,534.229z"/>
	<path fill="#023558" d="M727.996,465.621c0,20.976-17.001,37.979-37.975,37.979c-20.971,0-37.976-17.004-37.976-37.979
		c0-20.973,17.005-37.975,37.976-37.975C710.996,427.646,727.996,444.648,727.996,465.621z"/>
	<path fill="#023558" d="M750.87,395.382c0,20.974-17.006,37.979-37.979,37.979s-37.976-17.006-37.976-37.979
		s17.002-37.976,37.976-37.976S750.87,374.41,750.87,395.382z"/>
	<path fill="#023558" d="M770.47,326.775c0,20.975-17.001,37.978-37.978,37.978c-20.976,0-37.977-17.004-37.977-37.978
		s17.002-37.971,37.977-37.971C753.469,288.805,770.47,305.801,770.47,326.775z"/>
	<path fill="#023558" d="M791.706,256.536c0,20.973-17.004,37.979-37.979,37.979c-20.971,0-37.976-17.006-37.976-37.979
		c0-20.971,17.006-37.974,37.976-37.974C774.703,218.561,791.706,235.565,791.706,256.536z"/>
	<circle fill="#023558" cx="778.231" cy="186.299" r="37.975"/>
	<path fill="#023558" d="M913.399,535.859c0,20.976,17.003,37.979,37.979,37.979s37.979-17.004,37.979-37.979
		c0-20.972-17.003-37.974-37.979-37.974S913.399,514.888,913.399,535.859z"/>
	<path fill="#023558" d="M888.899,467.256c0,20.972,17,37.973,37.976,37.973c20.975,0,37.977-17.002,37.977-37.973
		c0-20.978-17.002-37.978-37.977-37.978C905.899,429.278,888.899,446.279,888.899,467.256z"/>
	<path fill="#023558" d="M866.033,397.017c0,20.973,16.998,37.976,37.977,37.976c20.969,0,37.973-17.004,37.973-37.976
		c0-20.974-17.005-37.974-37.973-37.974C883.031,359.043,866.033,376.043,866.033,397.017z"/>
	<path fill="#023558" d="M846.429,328.41c0,20.972,17,37.974,37.973,37.974c20.975,0,37.978-17.003,37.978-37.974
		c0-20.976-17.005-37.972-37.978-37.972C863.429,290.437,846.429,307.435,846.429,328.41z"/>
	<circle fill="#023558" cx="863.171" cy="258.172" r="37.976"/>
	<circle fill="#023558" cx="838.669" cy="187.929" r="37.975"/>
</g>
<ellipse fill="#6373C1" cx="462.989" cy="603.192" rx="49.57" ry="12.347"/>
<ellipse fill="#6373C1" cx="596.81" cy="604.17" rx="49.026" ry="11.349"/>
<g>
	<path fill="#8190FF" d="M528.354,558.484c-35.284,0-68.048-6.094-95.186-16.519c-10.543,27.238-17.252,59.005-17.252,59.005
		c21.062,15.253,68.998,5.812,83.524,5.085c14.526-0.727,13.072-18.157,13.072-22.517c0-3.479,5.579-6.951,17.068-7.472v-0.334
		c11.163,0.594,16.599,4.011,16.599,7.441c0,4.357-1.453,21.789,13.073,22.517c14.526,0.727,62.463,10.168,83.526-5.085
		c0,0-6.769-32.047-17.393-59.363C597.894,552.107,564.443,558.484,528.354,558.484z"/>
</g>
<g>
	<path fill="#FCC447" d="M613.021,513.979l-31.654-51.98l-52.255-0.2v0.366l-59.732,0.228l-26.546,59.049l0.296-1.672
		c-3.67,6.354-7.084,13.986-10.165,21.998c27.187,10.321,59.938,16.354,95.203,16.354c36.21,0,69.773-6.36,97.38-17.195
		c-3.543-9.158-7.521-17.809-11.82-24.567C612.635,514.642,612.605,514.043,613.021,513.979z"/>
</g>
<path fill="#FFDFD3" d="M470.281,515.554c0,0,0.602-1.087,1.237-1.938l-2.211-56.322l-5.033,2.25
	c-85.057,52.799-47.427,87.382-47.427,87.382C454.881,572.991,470.281,515.554,470.281,515.554z"/>
<path fill="#FFDFD3" d="M616.074,449.278l-9.798-9.872l-15.294,62.93l-0.914-0.223c-0.588,11.54-0.28,54.977,38.715,45.771
	C628.783,547.886,676.354,529.203,616.074,449.278z"/>
<path fill="#2D3551" d="M518.367,314.441"/>
<ellipse fill="#FFDFD3" cx="527.086" cy="398.668" rx="88.248" ry="66.794"/>
<path fill="#FF6260" d="M633.677,406.478l-0.014-1.084c-24.201,24.191-62.203,39.784-104.944,39.784
	c-41.983,0-79.396-15.047-103.649-38.51c-20.056,11.746-18.152,32.495-18.152,32.495c0.985,10.478,5.539,17.857,10.27,22.826
	c-2.823,3.755-4.492,8.354-4.492,13.33c0,12.636,10.729,22.879,23.968,22.879c0.837,0,1.663-0.042,2.477-0.121
	c12.342,31.704,44.248,24.746,58.896,19.553c5.234,7.806,17.001,13.251,30.686,13.251c13.963,0,25.935-5.664,31.005-13.725
	c13.243,4.932,44.062,12.744,58.064-14.324c10.543-0.946,20.415-8.51,24.519-19.98c2.609-7.296,2.406-14.849-0.025-21.291
	c4.583-4.96,8.904-12.22,9.863-22.396C652.145,439.163,654.074,418.189,633.677,406.478z"/>
<circle fill="#FFDFD3" cx="432.302" cy="400.509" r="13.618"/>
<circle fill="#FFDFD3" cx="624.049" cy="403.777" r="13.619"/>
<path fill="#FF6260" d="M454.023,429.856c0,3.948-4.357,7.148-9.738,7.148l0,0c-5.377,0-9.736-3.2-9.736-7.148V375.52
	c0-3.948,4.359-7.148,9.736-7.148l0,0c5.381,0,9.738,3.2,9.738,7.148V429.856z"/>
<path fill="#FF6260" d="M623.98,432.58c0,3.949-4.604,7.148-10.282,7.148l0,0c-5.682,0-10.28-3.199-10.28-7.148v-54.337
	c0-3.949,4.6-7.149,10.28-7.149l0,0c5.68,0,10.282,3.2,10.282,7.149V432.58z"/>
<path fill="#FF6260" d="M531.988,323.157c-41.683,0-77.92,7.417-96.417,18.33v33.064c18.497,10.914,54.734,18.33,96.417,18.33
	c38.621,0,72.566-6.367,92.06-15.983v-37.758C604.556,329.524,570.609,323.157,531.988,323.157z"/>
<ellipse fill="#FFC556" cx="526.904" cy="323.703" rx="92.06" ry="51.75"/>
<path fill="#FFC556" d="M451.186,294.287c0,0-21.787,20.155-22.878,44.124c-1.091,23.968,28.325,7.626,28.325,7.626L451.186,294.287
	z"/>
<path fill="#FFC556" d="M605.86,296.467c0,0,21.789,20.154,22.879,44.123c1.09,23.968-28.326,7.626-28.326,7.626L605.86,296.467z"/>
<ellipse fill="#F9A715" cx="525.608" cy="270.957" rx="20.426" ry="19.608"/>
<path fill="#F9A715" d="M636.951,362.926c0,7.221-6.367,13.073-14.223,13.073H435.46c-7.854,0-14.224-5.854-14.224-13.073v-11.983
	c0-7.221,6.37-13.073,14.224-13.073H622.73c7.854,0,14.222,5.854,14.222,13.073L636.951,362.926L636.951,362.926z"/>
<path fill="#FCD1C3" d="M598.657,539.582c0,0,1.987,0.227,4.232-0.137c2.562-0.413,5.457-1.597,6.121-4.756
	c1.245-5.928,13.562-13.039,19.705-3.312c6.144,9.729-19.151,11.405-21.749,9.706c-1.095-0.717-2.287,0.246-3.749,0.564
	c-2.002,0.439-0.967,1.271-0.967,1.271L598.657,539.582z"/>
<path fill="#FCD1C3" d="M453.049,544.714c0,0-1.377,0.438-3.34-0.713c-2.24-1.31-4.514-3.456-3.993-6.642
	c0.979-5.979-7.943-17.056-17.185-10.197c-9.238,6.857,13.75,17.546,16.783,16.896c1.28-0.271,2.045,1.056,3.294,1.881
	c1.708,1.132,0.443,1.533,0.443,1.533L453.049,544.714z"/>
<g>
	<path fill="#EA534C" d="M633.119,406.117l-0.001-0.179c-0.566,0.566-1.149,1.125-1.733,1.682
		C631.974,407.126,632.546,406.621,633.119,406.117z"/>
	<path fill="#EA534C" d="M533.623,526.523c-13.688,0-25.453-5.445-30.688-13.252c-14.646,5.192-46.555,12.15-58.895-19.554
		c-0.815,0.08-1.643,0.121-2.478,0.121c-13.238,0-23.97-10.243-23.97-22.878c0-4.976,1.67-9.575,4.494-13.33
		c-4.73-4.968-9.286-12.35-10.271-22.827c0,0-1.259-13.782,9.133-25.239c-16.243,11.957-14.581,30.144-14.581,30.144
		c0.987,10.478,5.541,17.858,10.271,22.826c-2.824,3.755-4.493,8.354-4.493,13.33c0,12.635,10.729,22.879,23.968,22.879
		c0.836,0,1.663-0.042,2.479-0.121c12.34,31.704,44.247,24.745,58.896,19.553c5.234,7.807,17.001,13.251,30.687,13.251
		c12.722,0,23.771-4.71,29.474-11.643C551.549,523.938,543.044,526.523,533.623,526.523z"/>
	<path fill="#EA534C" d="M622.69,498.474c-0.837,1.619-1.739,3.105-2.688,4.483c5.938-1.193,11.503-4.47,15.757-9.329
		C631.82,496.366,627.318,498.059,622.69,498.474z"/>
	<path fill="#EA534C" d="M564.627,512.799c-1.185,1.88-2.756,3.622-4.627,5.201c12.049,4.352,36.717,10.277,51.783-6.626
		C596.355,522.333,575.049,516.68,564.627,512.799z"/>
</g>
<path fill="#FCC447" d="M600.677,648.38c0,6.417-5.354,11.62-11.967,11.62H468.377c-6.608,0-11.967-5.203-11.967-11.62V472.796
	c0-6.417,5.357-11.619,11.967-11.619H588.71c6.612,0,11.967,5.202,11.967,11.619V648.38z"/>
<path fill="#F9A715" d="M594,617.021c0,18.855,0.869,34.979-8.969,34.979H470.098c-9.84,0-6.098-16.123-6.098-34.979V503.198
	c0-18.855-3.803-35.047,6.037-35.047l105.52,0.899C600.75,466.347,594,484.343,594,503.198V617.021z"/>
<path fill="#FCC447" d="M533.83,512.326l8.982-8.808c-0.08-0.101-0.166-0.194-0.252-0.283c-2.849-2.885-4.045-3.333-8.089-3.244
	c0,0-2.756,0.496-4.226,1.396c-1.472,0.902-3.217-0.313-3.217-0.313s-3.079-1.802-6.846-0.722c0,0-7.443,2.163-6.25,12.977
	c0,0,1.746,10.271,7.72,12.973c0,0,1.932,0.812,3.219,0.271c1.283-0.541,4.961-2.479,9.417-0.045c0,0,3.354,0.765,5.192-1.982
	c0,0,1.573-1.857,2.793-3.937L533.83,512.326z"/>
<path fill="#FCC447" d="M545,636.755c0,4.974-3.418,9.245-8.242,9.245h-14.25c-4.824,0-8.508-4.271-8.508-9.245v-0.476
	c0-4.973,3.684-9.279,8.508-9.279h14.25c4.824,0,8.242,4.308,8.242,9.279V636.755z"/>
<path fill="#F9A715" d="M532,636.896c0,0.911-0.857,1.652-2,1.652l0,0c-1.143,0-2-0.741-2-1.652v-6.613c0-0.912,0.857-1.653,2-1.653
	l0,0c1.143,0,2,0.741,2,1.653V636.896z"/>
<path fill="#F9A715" d="M523,642.305c0,0.912-0.857,1.653-2,1.653l0,0c-1.143,0-2-0.741-2-1.653v-6.611c0-0.913,0.857-1.653,2-1.653
	l0,0c1.143,0,2,0.74,2,1.653V642.305z"/>
<path fill="#F9A715" d="M540,642.305c0,0.912-0.857,1.653-2,1.653l0,0c-1.143,0-2-0.741-2-1.653v-6.611c0-0.913,0.857-1.653,2-1.653
	l0,0c1.143,0,2,0.74,2,1.653V642.305z"/>
<text transform="matrix(1.0199 0 0 1 506.4854 550.5586)" fill="#FCC447" font-family="'AldotheApache'" font-size="22.1552">B1M0</text>
<path fill="#FCC447" d="M521.031,486.001c0,0,10.055,1.363,9.8,11.929C530.831,497.93,521.288,497.416,521.031,486.001z"/>
<path d="M496.336,397.001c0,6.862-5.566,12.429-12.431,12.429c-6.862,0-12.429-5.565-12.429-12.429
	c0-6.868,5.565-12.434,12.429-12.434C490.77,384.567,496.336,390.133,496.336,397.001z"/>
<circle cx="574.115" cy="396.553" r="12.429"/>
<ellipse fill="#FFDFD3" cx="531.668" cy="443.334" rx="11" ry="10.667"/>
<path fill="#EA534C" d="M596.314,420.455c-5.666,3.107-18.832,2.743-35.473-9.143c-15.759-11.258-27.415,1.759-28.604,3.168
	c-0.607-0.74-12.475-14.838-28.683-3.26c-16.639,11.886-29.805,12.251-35.473,9.144c-5.67-3.109-3.29,1.645-3.29,1.645
	c2.376,10.972,15.542,19.749,15.542,19.749c20.076,9.688,49.654,1.051,51.801,0.403v0.053c0,0,31.082,9.692,51.93-0.364
	c0,0,13.164-8.776,15.542-19.747C599.607,422.102,601.982,417.347,596.314,420.455z"/>
</svg>
