<?xml version="1.0" encoding="utf-8"?>
<!-- Generator: Adobe Illustrator 15.1.0, SVG Export Plug-In . SVG Version: 6.00 Build 0)  -->
<!DOCTYPE svg PUBLIC "-//W3C//DTD SVG 1.1//EN" "http://www.w3.org/Graphics/SVG/1.1/DTD/svg11.dtd">
<svg version="1.1" id="Layer_1" xmlns="http://www.w3.org/2000/svg" xmlns:xlink="http://www.w3.org/1999/xlink" x="0px" y="0px"
	 width="1024px" height="1695px" viewBox="0 0 1024 1695" enable-background="new 0 0 1024 1695" xml:space="preserve">
<rect fill="#D7E7FB" width="1029" height="1695"/>
<circle fill="#FFFFFF" cx="874.222" cy="1545.899" r="48.677"/>
<circle fill="#FFFFFF" cx="921.194" cy="1582.805" r="48.677"/>
<circle fill="#FFFFFF" cx="844.865" cy="1593.709" r="59.582"/>
<circle fill="#FFFFFF" cx="734.388" cy="1041.704" r="43.722"/>
<circle fill="#FFFFFF" cx="781.348" cy="1019.033" r="43.722"/>
<circle fill="#FFFFFF" cx="849.359" cy="989.886" r="46.961"/>
<circle fill="#FFFFFF" cx="894.701" cy="1035.227" r="46.96"/>
<circle fill="#FFFFFF" cx="850.979" cy="1053.039" r="46.961"/>
<circle fill="#FFFFFF" cx="791.064" cy="1049.801" r="46.96"/>
<circle fill="#FFFFFF" cx="217.711" cy="1510.105" r="29.403"/>
<circle fill="#FFFFFF" cx="104.03" cy="1497.549" r="29.404"/>
<circle fill="#FFFFFF" cx="149.768" cy="1477.947" r="31.582"/>
<circle fill="#FFFFFF" cx="180.261" cy="1508.439" r="31.581"/>
<circle fill="#FFFFFF" cx="150.857" cy="1520.418" r="31.582"/>
<circle fill="#FFFFFF" cx="250.208" cy="341.066" r="37.45"/>
<circle fill="#FFFFFF" cx="209.984" cy="321.647" r="37.451"/>
<circle fill="#FFFFFF" cx="151.729" cy="296.681" r="40.225"/>
<circle fill="#FFFFFF" cx="112.891" cy="335.518" r="40.224"/>
<circle fill="#FFFFFF" cx="150.341" cy="350.775" r="40.224"/>
<circle fill="#FFFFFF" cx="201.662" cy="348.001" r="40.224"/>
<circle fill="#FFFFFF" cx="564.388" cy="605.704" r="43.722"/>
<circle fill="#FFFFFF" cx="611.348" cy="583.033" r="43.722"/>
<circle fill="#FFFFFF" cx="619.064" cy="602.8" r="46.96"/>
</svg>
