<?xml version="1.0" encoding="utf-8"?>
<!-- Generator: Adobe Illustrator 15.1.0, SVG Export Plug-In . SVG Version: 6.00 Build 0)  -->
<!DOCTYPE svg PUBLIC "-//W3C//DTD SVG 1.1//EN" "http://www.w3.org/Graphics/SVG/1.1/DTD/svg11.dtd">
<svg version="1.1" id="Layer_1" xmlns="http://www.w3.org/2000/svg" xmlns:xlink="http://www.w3.org/1999/xlink" x="0px" y="0px"
	 width="1024px" height="768px" viewBox="0 0 1024 768" enable-background="new 0 0 1024 768" xml:space="preserve">
<ellipse fill="#D7E7FB" cx="506.86" cy="150.938" rx="56.997" ry="47.248"/>
<g>
	<ellipse fill="#388A29" cx="350.585" cy="641.896" rx="10.208" ry="9.745"/>
	<ellipse fill="#388A29" cx="311.694" cy="740.752" rx="10.208" ry="9.745"/>
	<ellipse fill="#388A29" cx="318.28" cy="723.147" rx="10.208" ry="9.745"/>
	<ellipse fill="#388A29" cx="324.428" cy="705.125" rx="10.207" ry="9.746"/>
	<ellipse fill="#388A29" cx="329.697" cy="687.521" rx="10.209" ry="9.745"/>
	<ellipse fill="#388A29" cx="335.405" cy="669.497" rx="10.209" ry="9.745"/>
	<ellipse fill="#388A29" cx="341.991" cy="651.476" rx="10.208" ry="9.743"/>
	<polygon fill="#388A29" points="349.426,636.088 390.129,750 312.51,750 	"/>
	<circle fill="#388A29" cx="351.489" cy="642.931" r="9.599"/>
	<circle fill="#388A29" cx="314.921" cy="740.308" r="9.599"/>
	<circle fill="#388A29" cx="321.114" cy="722.967" r="9.599"/>
	<circle fill="#388A29" cx="326.895" cy="705.213" r="9.599"/>
	<circle fill="#388A29" cx="331.849" cy="687.873" r="9.599"/>
	<circle fill="#388A29" cx="337.216" cy="670.119" r="9.599"/>
	<circle fill="#388A29" cx="343.409" cy="652.367" r="9.599"/>
	<circle fill="#388A29" cx="387.173" cy="740.721" r="9.599"/>
	<circle fill="#388A29" cx="380.98" cy="723.381" r="9.599"/>
	<circle fill="#388A29" cx="375.2" cy="705.627" r="9.599"/>
	<circle fill="#388A29" cx="370.246" cy="688.285" r="9.598"/>
	<circle fill="#388A29" cx="364.878" cy="670.533" r="9.599"/>
	<circle fill="#388A29" cx="358.685" cy="652.778" r="9.598"/>
</g>
<g>
	<path fill="#388A29" d="M414.124,580.672c0,5.383-4.57,9.746-10.208,9.746s-10.207-4.363-10.207-9.746
		c0-5.379,4.569-9.744,10.207-9.744S414.124,575.293,414.124,580.672z"/>
	<ellipse fill="#388A29" cx="365.026" cy="679.528" rx="10.208" ry="9.745"/>
	<ellipse fill="#388A29" cx="371.612" cy="661.924" rx="10.208" ry="9.745"/>
	<ellipse fill="#388A29" cx="377.76" cy="643.9" rx="10.208" ry="9.747"/>
	<ellipse fill="#388A29" cx="383.029" cy="626.297" rx="10.208" ry="9.745"/>
	<ellipse fill="#388A29" cx="388.737" cy="608.273" rx="10.208" ry="9.745"/>
	<ellipse fill="#388A29" cx="395.323" cy="590.251" rx="10.208" ry="9.745"/>
	<polygon fill="#388A29" points="402.758,575.089 443.46,689 365.841,689 	"/>
	<circle fill="#388A29" cx="404.821" cy="581.707" r="9.599"/>
	<circle fill="#388A29" cx="368.253" cy="679.084" r="9.599"/>
	<circle fill="#388A29" cx="374.446" cy="661.742" r="9.598"/>
	<circle fill="#388A29" cx="380.226" cy="643.989" r="9.599"/>
	<circle fill="#388A29" cx="385.181" cy="626.648" r="9.599"/>
	<circle fill="#388A29" cx="390.548" cy="608.896" r="9.599"/>
	<circle fill="#388A29" cx="396.741" cy="591.143" r="9.599"/>
	<circle fill="#388A29" cx="440.505" cy="679.496" r="9.599"/>
	<circle fill="#388A29" cx="434.312" cy="662.156" r="9.599"/>
	<circle fill="#388A29" cx="428.532" cy="644.403" r="9.599"/>
	<circle fill="#388A29" cx="423.577" cy="627.062" r="9.599"/>
	<circle fill="#388A29" cx="418.21" cy="609.31" r="9.599"/>
	<circle fill="#388A29" cx="412.017" cy="591.555" r="9.599"/>
</g>
<g>
	<ellipse fill="#388A29" cx="621.718" cy="592.334" rx="10.208" ry="9.746"/>
	<ellipse fill="#388A29" cx="582.827" cy="691.189" rx="10.208" ry="9.745"/>
	<ellipse fill="#388A29" cx="589.413" cy="673.586" rx="10.208" ry="9.744"/>
	<ellipse fill="#388A29" cx="595.562" cy="655.562" rx="10.208" ry="9.746"/>
	<ellipse fill="#388A29" cx="600.83" cy="637.959" rx="10.209" ry="9.744"/>
	<ellipse fill="#388A29" cx="606.539" cy="619.936" rx="10.208" ry="9.744"/>
	<ellipse fill="#388A29" cx="613.125" cy="601.913" rx="10.208" ry="9.745"/>
	<polygon fill="#388A29" points="620.56,587.088 661.262,701 583.643,701 	"/>
	<circle fill="#388A29" cx="622.622" cy="593.369" r="9.599"/>
	<circle fill="#388A29" cx="586.054" cy="690.746" r="9.598"/>
	<circle fill="#388A29" cx="592.247" cy="673.404" r="9.599"/>
	<circle fill="#388A29" cx="598.028" cy="655.651" r="9.599"/>
	<circle fill="#388A29" cx="602.982" cy="638.311" r="9.599"/>
	<circle fill="#388A29" cx="608.35" cy="620.557" r="9.598"/>
	<circle fill="#388A29" cx="614.543" cy="602.805" r="9.599"/>
	<circle fill="#388A29" cx="658.307" cy="691.158" r="9.6"/>
	<circle fill="#388A29" cx="652.113" cy="673.818" r="9.599"/>
	<circle fill="#388A29" cx="646.333" cy="656.064" r="9.599"/>
	<circle fill="#388A29" cx="641.379" cy="638.725" r="9.599"/>
	<circle fill="#388A29" cx="636.012" cy="620.971" r="9.599"/>
	<circle fill="#388A29" cx="629.818" cy="603.217" r="9.6"/>
</g>
<g>
	<path fill="#306D23" d="M281.744,496.83c0,9.843-8.359,17.824-18.67,17.824c-10.312,0-18.669-7.981-18.669-17.824
		c0-9.839,8.357-17.822,18.669-17.822C273.385,479.008,281.744,486.991,281.744,496.83z"/>
	<ellipse fill="#306D23" cx="197.093" cy="677.628" rx="18.669" ry="17.822"/>
	<ellipse fill="#306D23" cx="209.138" cy="645.431" rx="18.669" ry="17.823"/>
	<path fill="#306D23" d="M239.052,612.469c0,9.844-8.358,17.824-18.671,17.824s-18.669-7.98-18.669-17.824
		c0-9.841,8.356-17.821,18.669-17.821S239.052,602.628,239.052,612.469z"/>
	<ellipse fill="#306D23" cx="230.018" cy="580.273" rx="18.67" ry="17.822"/>
	<path fill="#306D23" d="M259.129,547.31c0,9.844-8.359,17.822-18.671,17.822c-10.311,0-18.671-7.979-18.671-17.822
		c0-9.839,8.36-17.818,18.671-17.818C250.77,529.491,259.129,537.471,259.129,547.31z"/>
	<ellipse fill="#306D23" cx="252.504" cy="514.35" rx="18.67" ry="17.82"/>
	<polygon fill="#306D23" points="266.1,486.667 340.541,695 198.583,695 	"/>
	<circle fill="#306D23" cx="202.994" cy="676.815" r="17.555"/>
	<path fill="#306D23" d="M231.875,645.1c0,9.696-7.858,17.557-17.554,17.557c-9.694,0-17.556-7.86-17.556-17.557
		c0-9.693,7.861-17.555,17.556-17.555C224.017,627.545,231.875,635.406,231.875,645.1z"/>
	<circle fill="#306D23" cx="224.893" cy="612.631" r="17.555"/>
	<circle fill="#306D23" cx="233.954" cy="580.916" r="17.556"/>
	<path fill="#306D23" d="M261.326,548.447c0,9.695-7.861,17.557-17.556,17.557c-9.696,0-17.556-7.861-17.556-17.557
		c0-9.693,7.859-17.554,17.556-17.554C253.465,530.894,261.326,538.754,261.326,548.447z"/>
	<circle fill="#306D23" cx="255.096" cy="515.98" r="17.554"/>
	<circle fill="#306D23" cx="335.137" cy="677.569" r="17.556"/>
	<circle fill="#306D23" cx="323.81" cy="645.856" r="17.555"/>
	<path fill="#306D23" d="M295.685,613.387c0,9.695,7.857,17.555,17.556,17.555c9.693,0,17.554-7.859,17.554-17.555
		s-7.86-17.554-17.554-17.554C303.542,595.833,295.685,603.691,295.685,613.387z"/>
	<circle fill="#306D23" cx="304.178" cy="581.672" r="17.555"/>
	<circle fill="#306D23" cx="294.361" cy="549.204" r="17.555"/>
	<path fill="#306D23" d="M265.48,516.732c0,9.696,7.859,17.557,17.554,17.557c9.696,0,17.556-7.86,17.556-17.557
		c0-9.693-7.859-17.553-17.556-17.553C273.34,499.18,265.48,507.039,265.48,516.732z"/>
</g>
<g>
	<ellipse fill="#306D23" cx="662.19" cy="582.045" rx="10.208" ry="9.745"/>
	<ellipse fill="#306D23" cx="623.301" cy="680.9" rx="10.208" ry="9.744"/>
	<ellipse fill="#306D23" cx="629.887" cy="663.295" rx="10.208" ry="9.746"/>
	<ellipse fill="#306D23" cx="636.035" cy="645.273" rx="10.208" ry="9.746"/>
	<ellipse fill="#306D23" cx="641.303" cy="627.668" rx="10.208" ry="9.746"/>
	<ellipse fill="#306D23" cx="647.012" cy="609.646" rx="10.209" ry="9.745"/>
	<ellipse fill="#306D23" cx="653.599" cy="591.623" rx="10.208" ry="9.744"/>
	<polygon fill="#306D23" points="661.031,577.088 701.734,691 624.115,691 	"/>
	<circle fill="#306D23" cx="663.096" cy="583.079" r="9.599"/>
	<circle fill="#306D23" cx="626.528" cy="680.456" r="9.599"/>
	<circle fill="#306D23" cx="632.72" cy="663.115" r="9.598"/>
	<circle fill="#306D23" cx="638.501" cy="645.361" r="9.599"/>
	<circle fill="#306D23" cx="643.455" cy="628.021" r="9.6"/>
	<circle fill="#306D23" cx="648.823" cy="610.268" r="9.599"/>
	<circle fill="#306D23" cx="655.016" cy="592.516" r="9.598"/>
	<circle fill="#306D23" cx="698.78" cy="680.868" r="9.599"/>
	<circle fill="#306D23" cx="692.587" cy="663.528" r="9.599"/>
	<circle fill="#306D23" cx="686.807" cy="645.775" r="9.598"/>
	<circle fill="#306D23" cx="681.852" cy="628.434" r="9.598"/>
	<circle fill="#306D23" cx="676.485" cy="610.682" r="9.599"/>
	<circle fill="#306D23" cx="670.292" cy="592.927" r="9.599"/>
</g>
<g>
	<path fill="#306D23" d="M571.774,545.826c0,6.735-5.719,12.196-12.772,12.196c-7.057,0-12.774-5.461-12.774-12.196
		c0-6.731,5.718-12.193,12.774-12.193C566.056,533.633,571.774,539.095,571.774,545.826z"/>
	<ellipse fill="#306D23" cx="510.335" cy="669.533" rx="12.774" ry="12.193"/>
	<path fill="#306D23" d="M531.35,647.502c0,6.736-5.717,12.196-12.772,12.196c-7.055,0-12.776-5.46-12.776-12.196
		c0-6.732,5.722-12.193,12.776-12.193C525.633,635.309,531.35,640.77,531.35,647.502z"/>
	<ellipse fill="#306D23" cx="526.27" cy="624.949" rx="12.774" ry="12.196"/>
	<ellipse fill="#306D23" cx="532.863" cy="602.92" rx="12.775" ry="12.195"/>
	<ellipse fill="#306D23" cx="540.006" cy="580.366" rx="12.775" ry="12.194"/>
	<ellipse fill="#306D23" cx="548.249" cy="557.813" rx="12.774" ry="12.194"/>
	<polygon fill="#306D23" points="557.551,539.453 608.485,682 511.354,682 	"/>
	<circle fill="#306D23" cx="560.133" cy="547.122" r="12.011"/>
	<circle fill="#306D23" cx="514.373" cy="668.977" r="12.012"/>
	<circle fill="#306D23" cx="522.122" cy="647.276" r="12.011"/>
	<circle fill="#306D23" cx="529.355" cy="625.061" r="12.012"/>
	<circle fill="#306D23" cx="535.555" cy="603.36" r="12.011"/>
	<circle fill="#306D23" cx="542.273" cy="581.145" r="12.012"/>
	<circle fill="#306D23" cx="550.022" cy="558.93" r="12.011"/>
	<circle fill="#306D23" cx="604.788" cy="669.493" r="12.012"/>
	<circle fill="#306D23" cx="597.037" cy="647.794" r="12.012"/>
	<circle fill="#306D23" cx="589.805" cy="625.578" r="12.012"/>
	<circle fill="#306D23" cx="583.604" cy="603.878" r="12.011"/>
	<circle fill="#306D23" cx="576.888" cy="581.662" r="12.011"/>
	<circle fill="#306D23" cx="569.138" cy="559.445" r="12.011"/>
</g>
<path fill="#BA794D" d="M422.091,631.937c0,0.054,0.09,0.063,0.09,0.063H433v-17h-24v4.458
	C417,620.311,422.091,625.516,422.091,631.937z"/>
<path fill="#BA794D" d="M360,616.58c0,1.617,1.93,3.42,4.14,3.42h64.71c2.211,0,4.15-1.803,4.15-3.42v-19.524
	c0-1.617-1.939-3.056-4.15-3.056h-64.71c-2.21,0-4.14,1.438-4.14,3.056V616.58z"/>
<path fill="#BA794D" d="M530,679.703c0,2.558-1.58,4.297-3.854,4.297H487.73c-2.272,0-4.73-1.739-4.73-4.297v-46.304
	c0-2.558,2.458-4.399,4.73-4.399h38.416c2.273,0,3.854,1.842,3.854,4.399V679.703z"/>
<path fill="#A8704A" d="M418,647.051c0,2.217,1.584,3.949,3.857,3.949h83.69c2.273,0,4.452-1.732,4.452-3.949V641.7
	c0-2.217-2.179-3.7-4.452-3.7h-83.69c-2.273,0-3.857,1.483-3.857,3.7V647.051z"/>
<path fill="#A8704A" d="M510.527,651.063c-0.232,0-0.527,0.046-0.527,0.123V651h-90v0.075c-3,0.247-5.407,7.017-5.407,15.338
	c0,8.477,2.575,15.554,5.7,15.554c0.287,0,0.609,0.033,0.886,0.033H510v-0.532c0,0.077,0.295,0.122,0.527,0.122
	c3.031,0,5.488-6.833,5.488-15.263S513.559,651.063,510.527,651.063z"/>
<ellipse fill="#306D23" cx="579.944" cy="567.853" rx="5.933" ry="5.663"/>
<ellipse fill="#306D23" cx="557.343" cy="625.301" rx="5.932" ry="5.663"/>
<ellipse fill="#306D23" cx="561.17" cy="615.07" rx="5.932" ry="5.663"/>
<ellipse fill="#306D23" cx="564.743" cy="604.596" rx="5.933" ry="5.664"/>
<ellipse fill="#306D23" cx="567.806" cy="594.365" rx="5.933" ry="5.664"/>
<ellipse fill="#306D23" cx="571.122" cy="583.893" rx="5.933" ry="5.663"/>
<ellipse fill="#306D23" cx="574.95" cy="573.419" rx="5.933" ry="5.663"/>
<circle fill="#306D23" cx="436.914" cy="463.737" r="7.975"/>
<circle fill="#306D23" cx="406.044" cy="547.085" r="7.974"/>
<circle fill="#306D23" cx="411.189" cy="532.679" r="7.975"/>
<circle fill="#306D23" cx="415.991" cy="517.93" r="7.974"/>
<circle fill="#306D23" cx="420.107" cy="503.524" r="7.975"/>
<circle fill="#306D23" cx="424.566" cy="488.775" r="7.975"/>
<circle fill="#306D23" cx="429.711" cy="474.027" r="7.975"/>
<path fill="#BA794D" d="M474.766,498c-0.221,5-3.855,8.482-8.309,8.482c-4.452,0-8.088-3.482-8.308-8.482h-5.886
	c0.207,9,6.498,14.871,14.228,14.871S480.512,507,480.717,498H474.766z"/>
<path fill="#BA794D" d="M572.113,629c-0.565,11-9.896,20.264-21.322,20.264c-11.428,0-20.758-9.264-21.323-20.264h-15.104
	c0.53,19,16.674,35.527,36.514,35.527c19.838,0,35.982-16.527,36.512-35.527H572.113z"/>
<path fill="#BA794D" d="M457,634.32c0,2.428-1.639,4.68-3.911,4.68H431.48c-2.273,0-4.48-2.252-4.48-4.68v-93.765
	c0-2.427,2.207-4.556,4.48-4.556h21.608c2.272,0,3.911,2.129,3.911,4.556V634.32z"/>
<path fill="#8DC73F" d="M1024,691.881c0,2.272-2.926,4.119-7.536,4.119h-664.45c-4.609,0-9.014-1.847-9.014-4.119v-6.174
	c0-2.273,4.404-3.707,9.014-3.707h664.45c4.61,0,7.536,1.434,7.536,3.707V691.881z"/>
<path fill="#D58C4F" d="M506.812,651.063c-0.232,0,0.188,0.046-0.812,0.123V651h-89v0.075c-3,0.247-5.623,7.017-5.623,15.338
	c0,8.477,2.467,15.554,5.592,15.554c0.288,0,0.504,0.033,0.781,0.033H506v-0.532c1,0.077,0.58,0.122,0.812,0.122
	c3.031,0,5.488-6.833,5.488-15.263S509.844,651.063,506.812,651.063z"/>
<path fill="#F5F5F5" d="M499.393,636.399"/>
<polygon fill="#388A29" points="437.453,456.531 471.268,556 406.783,556 "/>
<circle fill="#388A29" cx="439.658" cy="464.423" r="7.974"/>
<circle fill="#388A29" cx="408.789" cy="547.771" r="7.975"/>
<circle fill="#388A29" cx="413.934" cy="533.365" r="7.975"/>
<circle fill="#388A29" cx="418.735" cy="518.616" r="7.974"/>
<circle fill="#388A29" cx="422.851" cy="504.21" r="7.974"/>
<circle fill="#388A29" cx="427.311" cy="489.462" r="7.975"/>
<circle fill="#388A29" cx="432.456" cy="474.713" r="7.974"/>
<circle fill="#388A29" cx="469.156" cy="547.771" r="7.974"/>
<circle fill="#388A29" cx="463.668" cy="533.708" r="7.975"/>
<circle fill="#388A29" cx="458.866" cy="518.959" r="7.974"/>
<circle fill="#388A29" cx="454.75" cy="504.553" r="7.975"/>
<circle fill="#388A29" cx="450.291" cy="489.805" r="7.974"/>
<circle fill="#388A29" cx="445.146" cy="475.056" r="7.974"/>
<polygon fill="#3F8930" points="579.271,564.803 602.924,631 557.816,631 "/>
<circle fill="#3F8930" cx="580.469" cy="568.453" r="5.578"/>
<circle fill="#3F8930" cx="559.218" cy="625.043" r="5.578"/>
<circle fill="#3F8930" cx="562.817" cy="614.965" r="5.578"/>
<circle fill="#3F8930" cx="566.176" cy="604.648" r="5.579"/>
<circle fill="#3F8930" cx="569.055" cy="594.57" r="5.578"/>
<circle fill="#3F8930" cx="572.175" cy="584.254" r="5.579"/>
<circle fill="#3F8930" cx="575.774" cy="573.938" r="5.578"/>
<circle fill="#3F8930" cx="601.207" cy="625.282" r="5.578"/>
<circle fill="#3F8930" cx="597.607" cy="615.205" r="5.578"/>
<circle fill="#3F8930" cx="594.249" cy="604.889" r="5.578"/>
<circle fill="#3F8930" cx="591.369" cy="594.811" r="5.578"/>
<circle fill="#3F8930" cx="588.25" cy="584.494" r="5.578"/>
<circle fill="#3F8930" cx="584.651" cy="574.176" r="5.578"/>
<path fill="#BA794D" d="M429.833,555c-0.22,5-3.855,8.482-8.308,8.482c-4.453,0-8.088-3.482-8.309-8.482h-5.885
	c0.206,9,6.496,14.871,14.227,14.871S435.579,564,435.785,555H429.833z"/>
<ellipse fill="#306D23" cx="367.345" cy="560.703" rx="5.54" ry="5.289"/>
<ellipse fill="#306D23" cx="346.238" cy="614.356" rx="5.54" ry="5.288"/>
<ellipse fill="#306D23" cx="349.813" cy="604.801" rx="5.541" ry="5.29"/>
<ellipse fill="#306D23" cx="353.149" cy="595.02" rx="5.54" ry="5.29"/>
<ellipse fill="#306D23" cx="356.009" cy="585.466" rx="5.54" ry="5.289"/>
<ellipse fill="#306D23" cx="359.107" cy="575.684" rx="5.541" ry="5.289"/>
<ellipse fill="#306D23" cx="362.682" cy="565.902" rx="5.541" ry="5.288"/>
<polygon fill="#3F8930" points="366.717,558.176 388.808,620 346.681,620 "/>
<circle fill="#3F8930" cx="367.836" cy="561.265" r="5.209"/>
<circle fill="#3F8930" cx="347.99" cy="614.115" r="5.209"/>
<circle fill="#3F8930" cx="351.351" cy="604.703" r="5.21"/>
<circle fill="#3F8930" cx="354.488" cy="595.068" r="5.209"/>
<circle fill="#3F8930" cx="357.177" cy="585.656" r="5.21"/>
<circle fill="#3F8930" cx="360.09" cy="576.021" r="5.209"/>
<circle fill="#3F8930" cx="363.451" cy="566.386" r="5.209"/>
<circle fill="#3F8930" cx="387.204" cy="614.339" r="5.209"/>
<circle fill="#3F8930" cx="383.843" cy="604.928" r="5.21"/>
<circle fill="#3F8930" cx="380.706" cy="595.292" r="5.209"/>
<circle fill="#3F8930" cx="378.016" cy="585.881" r="5.209"/>
<circle fill="#3F8930" cx="375.104" cy="576.246" r="5.209"/>
<circle fill="#3F8930" cx="371.741" cy="566.609" r="5.21"/>
<path fill="#BA794D" d="M383.186,619c-0.221,5-3.855,8.482-8.308,8.482S366.79,624,366.568,619h-5.884
	c0.206,9,6.497,14.871,14.227,14.871S388.932,628,389.139,619H383.186z"/>
<path fill="#BA794D" d="M573.119,655c0.221-5,3.855-8.482,8.308-8.482c4.453,0,8.087,3.482,8.31,8.482h5.885
	c-0.207-8-6.497-14.871-14.227-14.871c-7.73,0-14.021,6.871-14.227,14.871H573.119z"/>
<circle fill="#8DC73F" cx="597.254" cy="663.496" r="5.355"/>
<circle fill="#8DC73F" cx="598.888" cy="655.22" r="5.355"/>
<circle fill="#8DC73F" cx="590.999" cy="658.452" r="5.355"/>
<path fill="#AECEF4" d="M7,691.881C7,693.774,12.707,695,19.877,695h315.938c7.172,0,13.186-1.226,13.186-3.119v-8.576
	c0-1.894-6.014-3.305-13.186-3.305H19.877C12.707,680,7,681.411,7,683.305V691.881z"/>
<circle fill="#388A29" cx="364.939" cy="688.107" r="21.609"/>
<circle fill="#306D23" cx="344.702" cy="696.34" r="21.608"/>
<circle fill="#306D23" cx="372.143" cy="704.229" r="21.609"/>
<path fill="#7C4323" d="M518.65,682c-0.17-1-0.264-1.165-0.264-1.69c0-2.342,1.848-4.339,4.129-4.339
	c2.28,0,4.129,2.047,4.129,4.388c0,0.525-0.094,0.642-0.264,1.642H518.65z"/>
<path fill="#47A036" d="M503.49,643h-83.691c-2.272,0-3.799,1.086-3.799,2.422v1.028c0-1.335,1.526-2.45,3.799-2.45h83.691
	c2.273,0,4.51,1.115,4.51,2.45v-1.028C508,644.086,505.764,643,503.49,643z"/>
<path fill="#8DC73F" d="M416,649.675c0,1.335,1.526,2.325,3.799,2.325h83.691c2.273,0,4.51-0.99,4.51-2.325v-3.225
	c0-1.335-2.236-2.45-4.51-2.45h-83.691c-2.272,0-3.799,1.115-3.799,2.45V649.675z"/>
<path fill="#AB652D" d="M426,678.923c0,1.473-0.984,2.667-2.5,2.667l0,0c-1.515,0-2.5-1.194-2.5-2.667v-27.678
	c0-1.474,0.985-2.668,2.5-2.668l0,0c1.516,0,2.5,1.194,2.5,2.668V678.923z"/>
<path fill="#AB652D" d="M450,679.238c0,1.488-1.484,2.695-3,2.695l0,0c-1.516,0-3-1.207-3-2.695v-27.965
	c0-1.489,1.484-2.696,3-2.696l0,0c1.516,0,3,1.207,3,2.696V679.238z"/>
<path fill="#AB652D" d="M448.973,656.5c0,1.515-0.93,2.5-2.078,2.5h-21.567c-1.148,0-2.079-0.985-2.079-2.5l0,0
	c0-1.516,0.931-2.5,2.079-2.5h21.567C448.043,654,448.973,654.984,448.973,656.5L448.973,656.5z"/>
<path fill="#AB652D" d="M448.63,665c0,1.516-0.931,3-2.079,3h-21.566c-1.148,0-2.079-1.484-2.079-3l0,0c0-1.516,0.931-3,2.079-3
	h21.566C447.699,662,448.63,663.484,448.63,665L448.63,665z"/>
<path fill="#AB652D" d="M447.944,673c0,1.516-0.932,3-2.079,3h-21.567c-1.147,0-2.079-1.484-2.079-3l0,0c0-1.516,0.932-3,2.079-3
	h21.567C447.013,670,447.944,671.484,447.944,673L447.944,673z"/>
<ellipse fill="#7C4323" cx="423.591" cy="649.778" rx="2.629" ry="1.229"/>
<ellipse fill="#7C4323" cx="447.258" cy="649.778" rx="2.629" ry="1.229"/>
<circle fill="#FAD836" cx="660.457" cy="474.462" r="24.859"/>
<circle fill="#FAD836" cx="619.462" cy="457.949" r="11.488"/>
<rect x="258" y="696" fill="#F5F5F5" width="459" height="57"/>
<g>
	<path fill="#306D23" d="M983.818,573.477c0,5.382-4.569,9.746-10.207,9.746s-10.207-4.364-10.207-9.746
		c0-5.379,4.569-9.744,10.207-9.744S983.818,568.098,983.818,573.477z"/>
	<ellipse fill="#306D23" cx="934.722" cy="672.333" rx="10.208" ry="9.744"/>
	<ellipse fill="#306D23" cx="941.308" cy="654.729" rx="10.208" ry="9.745"/>
	<ellipse fill="#306D23" cx="947.456" cy="636.705" rx="10.208" ry="9.746"/>
	<ellipse fill="#306D23" cx="952.724" cy="619.102" rx="10.208" ry="9.745"/>
	<ellipse fill="#306D23" cx="958.432" cy="601.078" rx="10.208" ry="9.745"/>
	<ellipse fill="#306D23" cx="965.019" cy="583.056" rx="10.208" ry="9.745"/>
	<polygon fill="#306D23" points="972.453,568.088 1013.155,682 935.535,682 	"/>
	<circle fill="#306D23" cx="974.517" cy="574.512" r="9.599"/>
	<circle fill="#306D23" cx="937.948" cy="671.889" r="9.599"/>
	<circle fill="#306D23" cx="944.141" cy="654.548" r="9.598"/>
	<circle fill="#306D23" cx="949.921" cy="636.794" r="9.599"/>
	<circle fill="#306D23" cx="954.875" cy="619.453" r="9.599"/>
	<circle fill="#306D23" cx="960.243" cy="601.7" r="9.599"/>
	<circle fill="#306D23" cx="966.437" cy="583.947" r="9.599"/>
	<circle fill="#306D23" cx="1010.201" cy="672.301" r="9.599"/>
	<circle fill="#306D23" cx="1004.007" cy="654.961" r="9.599"/>
	<circle fill="#306D23" cx="998.228" cy="637.207" r="9.599"/>
	<circle fill="#306D23" cx="993.273" cy="619.867" r="9.598"/>
	<circle fill="#306D23" cx="987.905" cy="602.114" r="9.599"/>
	<circle fill="#306D23" cx="981.713" cy="584.359" r="9.599"/>
</g>
<g>
	<ellipse fill="#3F8930" cx="909.133" cy="603.781" rx="7.401" ry="7.064"/>
	<ellipse fill="#3F8930" cx="880.939" cy="675.449" rx="7.401" ry="7.065"/>
	<ellipse fill="#3F8930" cx="885.713" cy="662.687" rx="7.401" ry="7.065"/>
	<ellipse fill="#3F8930" cx="890.17" cy="649.621" rx="7.401" ry="7.065"/>
	<ellipse fill="#3F8930" cx="893.991" cy="636.857" rx="7.401" ry="7.065"/>
	<ellipse fill="#3F8930" cx="898.129" cy="623.791" rx="7.401" ry="7.065"/>
	<ellipse fill="#3F8930" cx="902.903" cy="610.726" rx="7.401" ry="7.064"/>
	<polygon fill="#3F8930" points="908.294,600.416 937.803,683 881.529,683 	"/>
	<circle fill="#3F8930" cx="909.789" cy="604.531" r="6.959"/>
	<circle fill="#3F8930" cx="883.277" cy="675.127" r="6.959"/>
	<circle fill="#3F8930" cx="887.768" cy="662.556" r="6.959"/>
	<circle fill="#3F8930" cx="891.959" cy="649.686" r="6.959"/>
	<circle fill="#3F8930" cx="895.55" cy="637.113" r="6.959"/>
	<circle fill="#3F8930" cx="899.441" cy="624.242" r="6.959"/>
	<circle fill="#3F8930" cx="903.932" cy="611.372" r="6.959"/>
	<circle fill="#3F8930" cx="935.659" cy="675.427" r="6.96"/>
	<circle fill="#3F8930" cx="931.17" cy="662.855" r="6.959"/>
	<circle fill="#3F8930" cx="926.98" cy="649.984" r="6.958"/>
	<circle fill="#3F8930" cx="923.387" cy="637.413" r="6.958"/>
	<circle fill="#3F8930" cx="919.496" cy="624.542" r="6.959"/>
	<circle fill="#3F8930" cx="915.006" cy="611.671" r="6.958"/>
</g>
<g>
	<ellipse fill="#3F8930" cx="969.529" cy="628.383" rx="5.129" ry="4.896"/>
	<ellipse fill="#3F8930" cx="949.989" cy="678.053" rx="5.129" ry="4.896"/>
	<ellipse fill="#3F8930" cx="953.298" cy="669.207" rx="5.13" ry="4.896"/>
	<ellipse fill="#3F8930" cx="956.387" cy="660.152" rx="5.129" ry="4.896"/>
	<ellipse fill="#3F8930" cx="959.035" cy="651.307" rx="5.129" ry="4.896"/>
	<ellipse fill="#3F8930" cx="961.902" cy="642.25" rx="5.129" ry="4.896"/>
	<ellipse fill="#3F8930" cx="965.213" cy="633.195" rx="5.129" ry="4.896"/>
	<polygon fill="#3F8930" points="968.947,625.764 989.398,683 950.398,683 	"/>
	<circle fill="#3F8930" cx="969.984" cy="628.902" r="4.822"/>
	<circle fill="#3F8930" cx="951.61" cy="677.83" r="4.823"/>
	<circle fill="#3F8930" cx="954.722" cy="669.117" r="4.823"/>
	<circle fill="#3F8930" cx="957.626" cy="660.196" r="4.823"/>
	<circle fill="#3F8930" cx="960.116" cy="651.483" r="4.823"/>
	<circle fill="#3F8930" cx="962.812" cy="642.563" r="4.822"/>
	<circle fill="#3F8930" cx="965.925" cy="633.644" r="4.823"/>
	<circle fill="#3F8930" cx="987.914" cy="678.037" r="4.823"/>
	<circle fill="#3F8930" cx="984.802" cy="669.324" r="4.823"/>
	<circle fill="#3F8930" cx="981.898" cy="660.404" r="4.823"/>
	<circle fill="#3F8930" cx="979.408" cy="651.691" r="4.822"/>
	<circle fill="#3F8930" cx="976.712" cy="642.771" r="4.823"/>
	<circle fill="#3F8930" cx="973.601" cy="633.85" r="4.823"/>
</g>
<g>
	<path fill="#306D23" d="M862.842,538.851c0,7.075-6.008,12.813-13.42,12.813c-7.414,0-13.422-5.738-13.422-12.813
		c0-7.073,6.008-12.812,13.422-12.812C856.834,526.038,862.842,531.777,862.842,538.851z"/>
	<ellipse fill="#306D23" cx="798.289" cy="668.827" rx="13.421" ry="12.812"/>
	<path fill="#306D23" d="M820.369,645.68c0,7.077-6.008,12.814-13.42,12.814c-7.414,0-13.423-5.737-13.423-12.814
		c0-7.074,6.009-12.811,13.423-12.811C814.361,632.869,820.369,638.605,820.369,645.68z"/>
	<ellipse fill="#306D23" cx="815.031" cy="621.984" rx="13.422" ry="12.814"/>
	<ellipse fill="#306D23" cx="821.958" cy="598.838" rx="13.423" ry="12.812"/>
	<ellipse fill="#306D23" cx="829.464" cy="575.141" rx="13.423" ry="12.812"/>
	<ellipse fill="#306D23" cx="838.124" cy="551.445" rx="13.422" ry="12.812"/>
	<polygon fill="#306D23" points="847.897,532.229 901.414,682 799.359,682 	"/>
	<circle fill="#306D23" cx="850.61" cy="540.211" r="12.62"/>
	<circle fill="#306D23" cx="802.532" cy="668.243" r="12.621"/>
	<circle fill="#306D23" cx="810.673" cy="645.442" r="12.621"/>
	<circle fill="#306D23" cx="818.273" cy="622.101" r="12.621"/>
	<circle fill="#306D23" cx="824.787" cy="599.301" r="12.621"/>
	<circle fill="#306D23" cx="831.845" cy="575.959" r="12.62"/>
	<circle fill="#306D23" cx="839.987" cy="552.618" r="12.62"/>
	<circle fill="#306D23" cx="897.529" cy="668.785" r="12.622"/>
	<circle fill="#306D23" cx="889.386" cy="645.986" r="12.621"/>
	<path fill="#306D23" d="M869.168,622.645c0,6.97,5.646,12.619,12.619,12.619c6.969,0,12.619-5.649,12.619-12.619
		c0-6.971-5.65-12.62-12.619-12.62C874.814,610.024,869.168,615.674,869.168,622.645z"/>
	<circle fill="#306D23" cx="875.272" cy="599.844" r="12.62"/>
	<circle fill="#306D23" cx="868.215" cy="576.503" r="12.621"/>
	<circle fill="#306D23" cx="860.072" cy="553.159" r="12.621"/>
</g>
<g>
	<ellipse fill="#3F8930" cx="779.339" cy="602.496" rx="7.401" ry="7.064"/>
	<ellipse fill="#3F8930" cx="751.145" cy="674.164" rx="7.4" ry="7.065"/>
	<ellipse fill="#3F8930" cx="755.919" cy="661.401" rx="7.401" ry="7.065"/>
	<ellipse fill="#3F8930" cx="760.376" cy="648.336" rx="7.401" ry="7.065"/>
	<ellipse fill="#3F8930" cx="764.196" cy="635.572" rx="7.401" ry="7.065"/>
	<ellipse fill="#3F8930" cx="768.335" cy="622.506" rx="7.401" ry="7.065"/>
	<ellipse fill="#3F8930" cx="773.11" cy="609.44" rx="7.401" ry="7.064"/>
	<polygon fill="#3F8930" points="778.5,598.416 808.008,681 751.734,681 	"/>
	<circle fill="#3F8930" cx="779.995" cy="603.246" r="6.959"/>
	<circle fill="#3F8930" cx="753.484" cy="673.843" r="6.959"/>
	<circle fill="#3F8930" cx="757.973" cy="661.271" r="6.959"/>
	<circle fill="#3F8930" cx="762.164" cy="648.4" r="6.959"/>
	<circle fill="#3F8930" cx="765.756" cy="635.828" r="6.959"/>
	<circle fill="#3F8930" cx="769.647" cy="622.957" r="6.959"/>
	<circle fill="#3F8930" cx="774.138" cy="610.087" r="6.959"/>
	<circle fill="#3F8930" cx="805.865" cy="674.142" r="6.959"/>
	<circle fill="#3F8930" cx="801.377" cy="661.57" r="6.959"/>
	<circle fill="#3F8930" cx="797.186" cy="648.699" r="6.959"/>
	<circle fill="#3F8930" cx="793.593" cy="636.128" r="6.958"/>
	<circle fill="#3F8930" cx="789.702" cy="623.257" r="6.959"/>
	<circle fill="#3F8930" cx="785.212" cy="610.386" r="6.958"/>
</g>
<g>
	<ellipse fill="#3F8930" cx="706.476" cy="638.084" rx="4.097" ry="3.911"/>
	<ellipse fill="#3F8930" cx="690.868" cy="677.757" rx="4.097" ry="3.911"/>
	<ellipse fill="#3F8930" cx="693.511" cy="670.691" rx="4.097" ry="3.911"/>
	<ellipse fill="#3F8930" cx="695.978" cy="663.459" rx="4.097" ry="3.911"/>
	<ellipse fill="#3F8930" cx="698.093" cy="656.395" rx="4.097" ry="3.91"/>
	<ellipse fill="#3F8930" cx="700.384" cy="649.161" rx="4.097" ry="3.911"/>
	<ellipse fill="#3F8930" cx="703.027" cy="641.928" rx="4.097" ry="3.911"/>
	<polygon fill="#3F8930" points="706.011,636.285 722.346,682 691.195,682 	"/>
	<circle fill="#3F8930" cx="706.839" cy="638.5" r="3.853"/>
	<circle fill="#3F8930" cx="692.164" cy="677.578" r="3.852"/>
	<circle fill="#3F8930" cx="694.648" cy="670.619" r="3.852"/>
	<circle fill="#3F8930" cx="696.968" cy="663.494" r="3.853"/>
	<circle fill="#3F8930" cx="698.956" cy="656.535" r="3.853"/>
	<circle fill="#3F8930" cx="701.111" cy="649.41" r="3.852"/>
	<circle fill="#3F8930" cx="703.596" cy="642.286" r="3.852"/>
	<circle fill="#3F8930" cx="721.159" cy="677.744" r="3.853"/>
	<circle fill="#3F8930" cx="718.674" cy="670.785" r="3.852"/>
	<circle fill="#3F8930" cx="716.354" cy="663.66" r="3.853"/>
	<circle fill="#3F8930" cx="714.366" cy="656.701" r="3.853"/>
	<circle fill="#3F8930" cx="712.212" cy="649.576" r="3.853"/>
	<circle fill="#3F8930" cx="709.727" cy="642.451" r="3.853"/>
</g>
<g>
	<ellipse fill="#3F8930" cx="737.896" cy="606.995" rx="6.978" ry="6.662"/>
	<ellipse fill="#3F8930" cx="711.312" cy="674.569" rx="6.979" ry="6.661"/>
	<ellipse fill="#3F8930" cx="715.814" cy="662.536" rx="6.979" ry="6.661"/>
	<ellipse fill="#3F8930" cx="720.017" cy="650.217" rx="6.978" ry="6.662"/>
	<ellipse fill="#3F8930" cx="723.618" cy="638.183" rx="6.978" ry="6.661"/>
	<ellipse fill="#3F8930" cx="727.52" cy="625.862" rx="6.979" ry="6.661"/>
	<ellipse fill="#3F8930" cx="732.022" cy="613.543" rx="6.978" ry="6.661"/>
	<polygon fill="#3F8930" points="737.104,603.135 764.927,681 711.869,681 	"/>
	<circle fill="#3F8930" cx="738.515" cy="607.703" r="6.562"/>
	<circle fill="#3F8930" cx="713.518" cy="674.266" r="6.561"/>
	<circle fill="#3F8930" cx="717.751" cy="662.412" r="6.562"/>
	<circle fill="#3F8930" cx="721.702" cy="650.277" r="6.561"/>
	<circle fill="#3F8930" cx="725.089" cy="638.424" r="6.562"/>
	<circle fill="#3F8930" cx="728.757" cy="626.287" r="6.561"/>
	<circle fill="#3F8930" cx="732.992" cy="614.152" r="6.561"/>
	<circle fill="#3F8930" cx="762.907" cy="674.548" r="6.562"/>
	<circle fill="#3F8930" cx="758.673" cy="662.695" r="6.562"/>
	<circle fill="#3F8930" cx="754.722" cy="650.559" r="6.561"/>
	<circle fill="#3F8930" cx="751.335" cy="638.706" r="6.561"/>
	<circle fill="#3F8930" cx="747.667" cy="626.57" r="6.562"/>
	<circle fill="#3F8930" cx="743.433" cy="614.435" r="6.562"/>
</g>
<rect x="3" y="689" fill="#A0C5EA" width="1024" height="79"/>
<rect x="478" y="690" opacity="0.79" fill="#D7E7FB" width="77" height="78"/>
<path fill="#00233D" d="M0,0v676.604c10.652-275.788,234.171-494.521,508.402-494.521c279.318,0,506.033,226.918,508.783,509.918H0
	v76h1024V0H0z"/>
<rect x="3" y="688" fill="#A0C5EA" width="1018" height="80"/>
<path opacity="0.57" fill="#AECEF4" d="M1019.186,690c-2.75-283-229.465-509.918-508.783-509.918
	C231.086,180.082,4.371,407,1.619,690H1019.186z"/>
<path opacity="0.79" fill="#D7E7FB" d="M554.16,218.787c-15.576-1.578-31.377-2.061-47.369-2.061
	C251.979,216.727,45.161,420,42.648,676h94.74C139.742,436,321.563,242.329,554.16,218.787z"/>
<circle fill="#00233D" cx="507.363" cy="138.187" r="59.997"/>
</svg>
