<?xml version="1.0" encoding="utf-8"?>
<!-- Generator: Adobe Illustrator 15.1.0, SVG Export Plug-In . SVG Version: 6.00 Build 0)  -->
<!DOCTYPE svg PUBLIC "-//W3C//DTD SVG 1.1//EN" "http://www.w3.org/Graphics/SVG/1.1/DTD/svg11.dtd">
<svg version="1.1" id="Layer_1" xmlns="http://www.w3.org/2000/svg" xmlns:xlink="http://www.w3.org/1999/xlink" x="0px" y="0px"
	 width="1024px" height="768px" viewBox="0 0 1024 768" enable-background="new 0 0 1024 768" xml:space="preserve">
<rect x="-0.5" y="-2.5" fill="#D7E7FB" width="1025" height="771"/>
<path fill="#FCC447" d="M905.5,655.5V86.806c0-29.563-28.266-53.306-63.506-53.306h-641.39c-35.228,0-64.104,23.742-64.104,53.306
	V655.5H905.5z"/>
<path fill="#D7E7FB" d="M824.734,534.173c0,36.225-29.564,65.602-66.037,65.602h-491.6c-36.467,0-66.039-29.377-66.039-65.602
	V155.105c0-36.244,29.572-65.614,66.039-65.614h491.6c36.473,0,66.037,29.37,66.037,65.614V534.173z"/>
<ellipse fill="#EBEFFC" cx="448.098" cy="505.729" rx="47" ry="11.333"/>
<ellipse fill="#EBEFFC" cx="577.562" cy="508.103" rx="41.5" ry="11.667"/>
<path fill="none" stroke="#EBEFFC" stroke-miterlimit="10" d="M424.729,426.104c0,0,61.334,16.667,176,0.667"/>
<g>
	<path fill="#FFFFFF" d="M516.562,434.104c-32.689,0-63.68-3.303-91.467-9.205c-10.293,25.553-18.997,78.163-18.997,78.163
		c18,16,65.666,6.667,79,6s11.756-39.29,11.756-43.29c0-3.194,5.12-6.381,15.666-6.858v-0.307
		c10.247,0.545,15.235,3.682,15.235,6.831c0,4,5.618,31.529,14.307,41.666c6,7,54.666,14,74,0c0,0-6.553-47.908-16.963-80.418
		C573.66,431.462,545.791,434.104,516.562,434.104z"/>
</g>
<g>
	<path fill="#FFFFFF" d="M588.607,401.589l-29.054-47.713l-47.965-0.184v0.336l-54.827,0.209l-24.366,54.199l0.271-1.534
		c-3.369,5.831-6.502,12.838-9.33,20.191c24.953,9.475,55.016,15.012,87.385,15.012c33.236,0,64.044-5.838,89.383-15.783
		c-3.252-8.406-6.902-16.346-10.85-22.551C588.253,402.196,588.226,401.647,588.607,401.589z"/>
</g>
<path fill="#FFFFFF" d="M436.02,403.521c0,0,0.908-0.689,1.76-1.168l19.051-48.102l-5.061,0.02c-91,12.75-72.25,55.75-72.25,55.75
	C401.77,446.021,436.02,403.521,436.02,403.521z"/>
<path fill="#FFFFFF" d="M572.339,354.438l-12.766-0.049l30.917,50.771l-0.737,0.449c7.108,7.871,35.501,35.863,54.836,4.579
	C644.589,410.188,663.339,367.188,572.339,354.438z"/>
<path fill="#EBEFFC" d="M619.646,424.353c0,0,1.438-1.144,2.66-2.837c1.394-1.931,2.506-4.577,0.887-7.059
	c-3.04-4.655,0.338-17.266,10.64-14.938c10.302,2.328-5.029,19.833-7.816,20.415c-1.176,0.246-1.325,1.645-2.066,2.801
	c-1.014,1.584,0.196,1.452,0.196,1.452L619.646,424.353z"/>
<path fill="#EBEFFC" d="M410.729,421.604c0,0-1.317-0.145-2.539-1.838c-1.394-1.931-2.506-4.577-0.887-7.059
	c3.04-4.655-0.338-17.266-10.64-14.938c-10.302,2.328,5.029,19.833,7.816,20.415c1.176,0.246,1.325,1.645,2.066,2.801
	c1.014,1.584-0.196,1.452-0.196,1.452L410.729,421.604z"/>
<path fill="#EBEFFC" d="M545.045,447.456c-0.199-0.322-0.497-0.538-0.844-0.536c-0.149,0-0.295,0-0.445,0.058
	c-18.5,10.006-27.302,11.087-30.22,11.104l-1.633,0.009c-2.917,0.018-11.728-0.959-30.327-10.749
	c-0.247-0.056-0.396,0.002-0.544,0.002c-0.347,0-0.642,0.167-0.838,0.491c-0.245,0.489-0.144,1.083,0.255,1.403
	c0.569,0.48,9.534,7.652,18.289,13.229c2.347-2.042,6.901-3.646,13.781-3.985v-0.335c7.083,0.412,11.65,2.179,13.798,4.367
	c8.788-5.704,17.882-13.137,18.486-13.596C545.199,448.593,545.296,447.943,545.045,447.456z"/>
<path fill="none" stroke="#EBEFFC" stroke-miterlimit="10" d="M425.729,425.104c0,0,61.334,16.667,176,0.667"/>
<path fill="#7483CE" d="M518.05,390.125c0,0,2.088-1.429,3.862-3.545c2.022-2.413,3.638-5.72,1.287-8.82
	c-4.414-5.818,0.491-21.577,15.447-18.668c14.957,2.909-8.301,23.867-12.347,24.595c-1.707,0.307-2.643,1.971-3.719,3.416
	c-1.473,1.979-2.781,3.834-2.781,3.834L518.05,390.125z"/>
<path fill="none" stroke="#7483CE" stroke-miterlimit="10" d="M479.005,375.778c0,0,6.75-9.25,15.25-11"/>
<path fill="#EBEFFC" d="M614.688,305.09l-0.535-40.025c0,0,0.269-7.489-8.562-7.489l-0.269-7.747c0,0-6.957-62.49-91.519-66.105
	v0.394c-83.721,4.017-91.978,65.712-91.978,65.712l-0.267,7.747c-8.831,0-8.562,7.489-8.562,7.489l-0.536,40.025
	c-19.803,11.104-17.928,30.988-17.928,30.988c2.14,22.207,21.587,29.779,21.587,29.779l5.351,6.888
	c6.397,65.545,68.862,34.774,68.862,34.774l24.006-0.333v0.16l22.478,0.173c0,0,62.466,30.771,68.863-34.774l5.351-6.888
	c0,0,19.448-7.572,21.589-29.779C632.618,336.078,634.491,316.193,614.688,305.09z"/>
<path fill="#FFFFFF" d="M606.899,302.582l-0.506-38.75c0,0,0.254-7.25-8.096-7.25l-0.254-7.5c0,0-6.576-60.499-86.523-63.999v0.381
	c-79.15,3.889-86.957,63.618-86.957,63.618l-0.252,7.5c-8.35,0-8.096,7.25-8.096,7.25l-0.506,38.75
	c-18.723,10.75-16.951,30.001-16.951,30.001c2.023,21.5,20.41,28.832,20.41,28.832l5.059,6.668
	c6.049,63.457,65.104,33.666,65.104,33.666l22.695-0.322v0.156l21.252,0.166c0,0,59.055,29.791,65.104-33.666l5.059-6.668
	c0,0,18.387-7.332,20.41-28.832C623.851,332.583,625.622,313.332,606.899,302.582z"/>
<ellipse fill="#7483CE" cx="567.43" cy="387.015" rx="14.249" ry="13.539"/>
<ellipse fill="#7483CE" cx="455.763" cy="386.681" rx="14.25" ry="13.539"/>
<path fill="#EBEFFC" d="M502.974,282.266l-66.326-1.053C436.647,281.213,434.542,355.96,502.974,282.266z"/>
<path fill="#EBEFFC" d="M521.915,282.266l66.326-1.053C588.241,281.213,590.347,355.96,521.915,282.266z"/>
<circle fill="#0A0A0A" cx="460.863" cy="298.057" r="10.878"/>
<circle fill="#0A0A0A" cx="565.089" cy="297.004" r="10.879"/>
<path fill="#2D3551" d="M517.413,413.765c0,3.039-2.463,5.5-5.5,5.5l0,0c-3.037,0-5.5-2.461-5.5-5.5v-31c0-3.037,2.463-5.5,5.5-5.5
	l0,0c3.037,0,5.5,2.463,5.5,5.5V413.765z"/>
<path fill="#2D3551" d="M526.913,408.968c0,2.098-2.463,3.797-5.5,3.797l0,0c-3.037,0-5.5-1.699-5.5-3.797v-21.404
	c0-2.098,2.463-3.799,5.5-3.799l0,0c3.037,0,5.5,1.701,5.5,3.799V408.968z"/>
<path fill="#2D3551" d="M508.913,409.968c0,2.098-2.463,3.797-5.5,3.797l0,0c-3.037,0-5.5-1.699-5.5-3.797v-21.404
	c0-2.098,2.463-3.799,5.5-3.799l0,0c3.037,0,5.5,1.701,5.5,3.799V409.968z"/>
<path fill="#7483CE" d="M545.257,336.417c0.346,0,0.643-0.148,0.84-0.445c0.248-0.445,0.148-0.988-0.248-1.285
	c-0.889-0.693-22.309-16.522-31.312-18.155c-0.148-0.049-0.494,0-0.791,0c0,0-0.1,0-0.148,0c-0.297,0-0.643-0.049-0.791,0
	c-9.004,1.633-30.373,17.462-31.312,18.106c-0.396,0.295-0.496,0.889-0.248,1.334c0.197,0.297,0.494,0.496,0.842,0.496
	c0.148,0,0.295,0,0.445-0.051c18.549-9.053,27.355-9.992,30.273-9.992h1.633c2.918,0,11.723,0.939,30.273,9.992
	C544.96,336.468,545.108,336.417,545.257,336.417z"/>
<circle fill="#FCD6EC" cx="446.125" cy="322.975" r="13.335"/>
<circle fill="#FCD6EC" cx="579.127" cy="321.57" r="13.335"/>
<path fill="#F4F5F9" d="M524.19,189.968c12.234,0,23.854,1.781,34.359,4.967c-13.33-5.955-29.252-9.416-46.359-9.416
	c-41.982,0-76.832,20.842-83.734,48.231h13.402C451.226,208.585,484.515,189.968,524.19,189.968z"/>
<polygon fill="none" stroke="#7483CE" stroke-width="4.8352" stroke-miterlimit="10" points="601.356,240.438 428.356,239.638 
	429.689,235.438 600.022,235.771 "/>
<path fill="#D58C4F" d="M389.394,371.495c-25.682,0-46.5,20.818-46.5,46.5s20.818,46.5,46.5,46.5s46.5-20.818,46.5-46.5
	S415.075,371.495,389.394,371.495z M391.415,440.234c-10.422,0-18.869-8.448-18.869-18.87s8.447-18.869,18.869-18.869
	s18.87,8.447,18.87,18.869S401.837,440.234,391.415,440.234z"/>
<path fill="#FF6260" d="M389.394,376.212c-23.076,0-41.782,19.008-41.782,42.457s18.706,42.457,41.782,42.457
	s41.783-19.008,41.783-42.457S412.47,376.212,389.394,376.212z M389.394,439.897c-10,0-18.106-8.237-18.106-18.397
	c0-10.161,8.106-18.398,18.106-18.398c10.001,0,18.106,8.237,18.106,18.398C407.5,431.66,399.395,439.897,389.394,439.897z"/>
<circle fill="#FCD1C3" cx="371.535" cy="394.745" r="3.707"/>
<circle fill="#8190FF" cx="360.416" cy="399.8" r="3.707"/>
<circle fill="#FCD1C3" cx="364.458" cy="411.93" r="3.707"/>
<circle fill="#FCD1C3" cx="355.024" cy="420.017" r="3.707"/>
<circle fill="#FCC447" cx="365.133" cy="427.093" r="3.706"/>
<circle fill="#FCD1C3" cx="365.133" cy="439.561" r="3.706"/>
<circle fill="#FCD1C3" cx="379.622" cy="384.3" r="3.707"/>
<circle fill="#8190FF" cx="421.068" cy="415.3" r="3.707"/>
<circle fill="#FCD1C3" cx="409.611" cy="403.843" r="3.707"/>
<circle fill="#FCC447" cx="398.155" cy="397.44" r="3.707"/>
<circle fill="#FCD1C3" cx="409.611" cy="392.387" r="3.707"/>
<circle fill="#8190FF" cx="407.589" cy="440.234" r="3.707"/>
<circle fill="#FCD1C3" cx="395.795" cy="382.952" r="3.707"/>
<circle fill="#FCC447" cx="384.002" cy="446.974" r="3.707"/>
<circle fill="#FCD1C3" cx="394.785" cy="451.354" r="3.707"/>
<circle fill="#FCD1C3" cx="421.742" cy="429.452" r="3.707"/>
<rect x="137.5" y="637.5" fill="#FCC447" width="768" height="133"/>
<path fill="#F4A019" d="M479.972,644.014c0,8.001-8.392,14.484-18.749,14.484H236.299c-10.348,0-18.74-6.483-18.74-14.484l0,0
	c0-7.994,8.393-14.471,18.74-14.471h224.924C471.58,629.543,479.972,636.02,479.972,644.014L479.972,644.014z"/>
</svg>
