<?xml version="1.0" encoding="utf-8"?>
<!-- Generator: Adobe Illustrator 15.1.0, SVG Export Plug-In . SVG Version: 6.00 Build 0)  -->
<!DOCTYPE svg PUBLIC "-//W3C//DTD SVG 1.1//EN" "http://www.w3.org/Graphics/SVG/1.1/DTD/svg11.dtd">
<svg version="1.1" id="Layer_1" xmlns="http://www.w3.org/2000/svg" xmlns:xlink="http://www.w3.org/1999/xlink" x="0px" y="0px"
	 width="1024px" height="768px" viewBox="0 0 1024 768" enable-background="new 0 0 1024 768" xml:space="preserve">
<rect x="0.5" y="-1.5" fill="#D7E7FB" width="1025" height="771"/>
<path fill="#FCC447" d="M909.5,647.5V78.806c0-29.563-28.266-53.306-63.506-53.306h-641.39c-35.228,0-64.104,23.742-64.104,53.306
	V647.5H909.5z"/>
<path fill="#D7E7FB" d="M837.703,527.141c0,36.225-29.564,65.602-66.037,65.602h-491.6c-36.467,0-66.039-29.377-66.039-65.602
	V148.073c0-36.244,29.572-65.614,66.039-65.614h491.6c36.473,0,66.037,29.37,66.037,65.614V527.141z"/>
<path fill="#D7E7FB" d="M821.41,476.274c0,4.124-25.945,7.468-57.954,7.468H332.022c-32.004,0-57.957-3.344-57.957-7.468v-43.151
	c0-4.127,25.953-7.471,57.957-7.471h431.434c32.009,0,57.954,3.344,57.954,7.471V476.274z"/>
<rect x="245.5" y="425.5" fill="#A0C5EA" width="572" height="55"/>
<rect x="515.5" y="453.5" fill="#D7E7FB" width="35" height="31"/>
<path fill="#935227" d="M562.5,331.943c0-0.146-0.72-0.443-0.779-0.443h-5.025c-0.061,0,0.805,0.297,0.805,0.443v0.066
	c0,0.146-0.865-0.51-0.805-0.51h5.025c0.06,0,0.779,0.656,0.779,0.51V331.943z"/>
<circle fill="#FAD836" cx="689.957" cy="255.924" r="20.458"/>
<circle fill="#FAD836" cx="658.875" cy="230.836" r="9.454"/>
<g>
	<path fill="#306D23" d="M429.953,273.272c0,6.897-5.859,12.487-13.08,12.487c-7.227,0-13.08-5.59-13.08-12.487
		c0-6.892,5.854-12.487,13.08-12.487C424.094,260.785,429.953,266.381,429.953,273.272z"/>
	<path fill="#306D23" d="M380.115,399.952c0,6.896-5.856,12.489-13.077,12.489c-7.229,0-13.086-5.594-13.086-12.489
		s5.856-12.485,13.086-12.485C374.259,387.467,380.115,393.057,380.115,399.952z"/>
	<ellipse fill="#306D23" cx="375.475" cy="377.395" rx="13.083" ry="12.49"/>
	<path fill="#306D23" d="M396.438,354.301c0,6.896-5.855,12.488-13.085,12.488c-7.222,0-13.082-5.593-13.082-12.488
		s5.86-12.492,13.082-12.492C390.583,341.809,396.438,347.405,396.438,354.301z"/>
	<path fill="#306D23" d="M403.188,331.74c0,6.894-5.855,12.487-13.08,12.487c-7.227,0-13.082-5.594-13.082-12.487
		c0-6.897,5.855-12.483,13.082-12.483C397.333,319.257,403.188,324.843,403.188,331.74z"/>
	<path fill="#306D23" d="M410.503,308.643c0,6.896-5.858,12.487-13.084,12.487c-7.225,0-13.081-5.591-13.081-12.487
		c0-6.891,5.856-12.484,13.081-12.484C404.645,296.158,410.503,301.752,410.503,308.643z"/>
	<ellipse fill="#306D23" cx="405.859" cy="285.546" rx="13.082" ry="12.489"/>
	<polygon fill="#3F8930" points="415.386,265.53 467.547,411.5 368.079,411.5 	"/>
	<path fill="#3F8930" d="M430.33,274.596c0,6.792-5.505,12.305-12.296,12.305c-6.794,0-12.304-5.513-12.304-12.305
		c0-6.79,5.51-12.297,12.304-12.297C424.825,262.299,430.33,267.806,430.33,274.596z"/>
	<circle fill="#3F8930" cx="371.172" cy="399.385" r="12.3"/>
	<path fill="#3F8930" d="M391.406,377.164c0,6.793-5.506,12.296-12.302,12.296c-6.788,0-12.3-5.503-12.3-12.296
		s5.512-12.303,12.3-12.303C385.9,364.861,391.406,370.371,391.406,377.164z"/>
	<path fill="#3F8930" d="M398.817,354.41c0,6.797-5.513,12.304-12.305,12.304s-12.296-5.507-12.296-12.304
		c0-6.791,5.504-12.3,12.296-12.3S398.817,347.619,398.817,354.41z"/>
	<path fill="#3F8930" d="M405.166,332.189c0,6.797-5.511,12.301-12.305,12.301c-6.791,0-12.295-5.504-12.295-12.301
		c0-6.795,5.504-12.301,12.295-12.301C399.655,319.889,405.166,325.395,405.166,332.189z"/>
	<path fill="#3F8930" d="M412.044,309.438c0,6.793-5.508,12.301-12.305,12.301c-6.793,0-12.3-5.508-12.3-12.301
		s5.507-12.295,12.3-12.295C406.536,297.143,412.044,302.645,412.044,309.438z"/>
	<path fill="#3F8930" d="M419.977,286.689c0,6.795-5.504,12.299-12.297,12.299c-6.797,0-12.305-5.504-12.305-12.299
		c0-6.789,5.508-12.306,12.305-12.306C414.473,274.384,419.977,279.9,419.977,286.689z"/>
	<path fill="#3F8930" d="M451.461,399.913c0,6.793,5.504,12.301,12.299,12.301c6.797,0,12.301-5.508,12.301-12.301
		c0-6.792-5.504-12.298-12.301-12.298C456.965,387.615,451.461,393.121,451.461,399.913z"/>
	<circle fill="#3F8930" cx="455.825" cy="377.691" r="12.3"/>
	<path fill="#3F8930" d="M436.116,354.94c0,6.79,5.507,12.301,12.3,12.301c6.796,0,12.3-5.511,12.3-12.301
		s-5.504-12.298-12.3-12.298C441.623,342.643,436.116,348.15,436.116,354.94z"/>
	<path fill="#3F8930" d="M429.767,332.722c0,6.793,5.506,12.296,12.3,12.296c6.797,0,12.301-5.503,12.301-12.296
		c0-6.8-5.504-12.306-12.301-12.306C435.272,320.416,429.767,325.922,429.767,332.722z"/>
	<circle fill="#3F8930" cx="435.189" cy="309.969" r="12.3"/>
	<path fill="#3F8930" d="M414.949,287.217c0,6.791,5.512,12.303,12.305,12.303c6.792,0,12.299-5.512,12.299-12.303
		c0-6.793-5.507-12.299-12.299-12.299C420.461,274.918,414.949,280.424,414.949,287.217z"/>
</g>
<g>
	<path fill="#306D23" d="M479.378,327.672c0,4.201-3.569,7.605-7.969,7.605c-4.4,0-7.967-3.404-7.967-7.605
		c0-4.197,3.566-7.606,7.967-7.606C475.809,320.065,479.378,323.475,479.378,327.672z"/>
	<path fill="#306D23" d="M449.02,404.834c0,4.2-3.566,7.607-7.965,7.607c-4.404,0-7.971-3.407-7.971-7.607
		c0-4.199,3.566-7.604,7.971-7.604C445.453,397.229,449.02,400.635,449.02,404.834z"/>
	<ellipse fill="#306D23" cx="446.194" cy="391.094" rx="7.969" ry="7.607"/>
	<path fill="#306D23" d="M458.963,377.027c0,4.199-3.566,7.607-7.971,7.607c-4.398,0-7.968-3.408-7.968-7.607
		c0-4.2,3.569-7.609,7.968-7.609C455.396,369.418,458.963,372.827,458.963,377.027z"/>
	<ellipse fill="#306D23" cx="455.106" cy="363.285" rx="7.968" ry="7.606"/>
	<path fill="#306D23" d="M467.529,349.216c0,4.201-3.568,7.606-7.969,7.606c-4.401,0-7.969-3.405-7.969-7.606
		c0-4.197,3.567-7.604,7.969-7.604C463.961,341.612,467.529,345.019,467.529,349.216z"/>
	<ellipse fill="#306D23" cx="464.701" cy="335.148" rx="7.968" ry="7.607"/>
	<polygon fill="#3F8930" points="470.504,322.588 502.276,411.5 441.688,411.5 	"/>
	<path fill="#3F8930" d="M479.607,328.478c0,4.138-3.354,7.495-7.49,7.495c-4.139,0-7.494-3.357-7.494-7.495
		c0-4.136,3.355-7.489,7.494-7.489C476.253,320.988,479.607,324.342,479.607,328.478z"/>
	<circle fill="#3F8930" cx="443.572" cy="404.488" r="7.492"/>
	<path fill="#3F8930" d="M455.897,390.954c0,4.138-3.354,7.489-7.493,7.489c-4.135,0-7.492-3.352-7.492-7.489
		s3.357-7.495,7.492-7.495C452.544,383.459,455.897,386.816,455.897,390.954z"/>
	<circle fill="#3F8930" cx="452.92" cy="377.095" r="7.492"/>
	<circle fill="#3F8930" cx="456.787" cy="363.559" r="7.492"/>
	<circle fill="#3F8930" cx="460.975" cy="349.7" r="7.493"/>
	<path fill="#3F8930" d="M473.3,335.844c0,4.14-3.353,7.492-7.49,7.492c-4.14,0-7.494-3.353-7.494-7.492
		c0-4.135,3.354-7.495,7.494-7.495C469.947,328.349,473.3,331.709,473.3,335.844z"/>
	<circle fill="#3F8930" cx="499.97" cy="404.811" r="7.492"/>
	<circle fill="#3F8930" cx="495.136" cy="391.275" r="7.492"/>
	<circle fill="#3F8930" cx="490.623" cy="377.417" r="7.492"/>
	<path fill="#3F8930" d="M479.264,363.883c0,4.139,3.354,7.489,7.492,7.489c4.14,0,7.492-3.351,7.492-7.489
		c0-4.142-3.353-7.495-7.492-7.495C482.617,356.388,479.264,359.741,479.264,363.883z"/>
	<circle fill="#3F8930" cx="482.566" cy="350.024" r="7.492"/>
	<circle fill="#3F8930" cx="477.731" cy="336.165" r="7.493"/>
</g>
<g>
	<path fill="#306D23" d="M606.665,296.99c0,5.724-4.861,10.36-10.853,10.36c-5.993,0-10.849-4.637-10.849-10.36
		c0-5.716,4.855-10.357,10.849-10.357C601.804,286.633,606.665,291.274,606.665,296.99z"/>
	<path fill="#306D23" d="M565.32,402.082c0,5.719-4.857,10.359-10.848,10.359c-5.999,0-10.855-4.641-10.855-10.359
		c0-5.721,4.856-10.357,10.855-10.357C560.463,391.725,565.32,396.361,565.32,402.082z"/>
	<ellipse fill="#306D23" cx="561.472" cy="383.367" rx="10.854" ry="10.361"/>
	<path fill="#306D23" d="M578.862,364.209c0,5.721-4.858,10.361-10.855,10.361c-5.991,0-10.852-4.641-10.852-10.361
		c0-5.72,4.86-10.362,10.852-10.362C574.004,353.847,578.862,358.489,578.862,364.209z"/>
	<path fill="#306D23" d="M584.462,345.494c0,5.718-4.857,10.359-10.852,10.359c-5.995,0-10.853-4.642-10.853-10.359
		c0-5.722,4.857-10.356,10.853-10.356C579.604,335.138,584.462,339.772,584.462,345.494z"/>
	<path fill="#306D23" d="M590.53,326.333c0,5.722-4.86,10.359-10.854,10.359c-5.995,0-10.853-4.638-10.853-10.359
		c0-5.717,4.857-10.356,10.853-10.356C585.67,315.977,590.53,320.616,590.53,326.333z"/>
	<ellipse fill="#306D23" cx="586.677" cy="307.174" rx="10.852" ry="10.359"/>
	<polygon fill="#3F8930" points="594.58,290.407 637.852,411.5 555.336,411.5 	"/>
	<circle fill="#3F8930" cx="596.774" cy="298.09" r="10.204"/>
	<circle fill="#3F8930" cx="557.901" cy="401.609" r="10.204"/>
	<path fill="#3F8930" d="M574.687,383.178c0,5.635-4.566,10.2-10.205,10.2c-5.632,0-10.203-4.565-10.203-10.2
		c0-5.636,4.571-10.209,10.203-10.209C570.12,372.969,574.687,377.542,574.687,383.178z"/>
	<path fill="#3F8930" d="M580.835,364.302c0,5.638-4.572,10.206-10.207,10.206s-10.2-4.568-10.2-10.206
		c0-5.635,4.565-10.205,10.2-10.205S580.835,358.667,580.835,364.302z"/>
	<path fill="#3F8930" d="M586.102,345.866c0,5.639-4.571,10.204-10.206,10.204c-5.636,0-10.201-4.565-10.201-10.204
		c0-5.636,4.565-10.203,10.201-10.203C581.53,335.663,586.102,340.23,586.102,345.866z"/>
	<path fill="#3F8930" d="M591.807,326.993c0,5.636-4.567,10.203-10.207,10.203c-5.635,0-10.204-4.567-10.204-10.203
		c0-5.635,4.569-10.2,10.204-10.2C587.239,316.793,591.807,321.358,591.807,326.993z"/>
	<path fill="#3F8930" d="M598.388,308.121c0,5.637-4.565,10.202-10.2,10.202c-5.638,0-10.207-4.565-10.207-10.202
		c0-5.632,4.569-10.209,10.207-10.209C593.822,297.912,598.388,302.489,598.388,308.121z"/>
	<path fill="#3F8930" d="M624.507,402.05c0,5.634,4.565,10.203,10.203,10.203c5.639,0,10.204-4.569,10.204-10.203
		c0-5.635-4.565-10.203-10.204-10.203C629.072,391.847,624.507,396.415,624.507,402.05z"/>
	<path fill="#3F8930" d="M617.923,383.614c0,5.635,4.569,10.208,10.204,10.208s10.204-4.573,10.204-10.208
		c0-5.636-4.569-10.207-10.204-10.207S617.923,377.979,617.923,383.614z"/>
	<path fill="#3F8930" d="M611.777,364.741c0,5.633,4.569,10.203,10.203,10.203c5.639,0,10.204-4.57,10.204-10.203
		c0-5.634-4.565-10.203-10.204-10.203C616.347,354.538,611.777,359.107,611.777,364.741z"/>
	<path fill="#3F8930" d="M606.51,346.308c0,5.636,4.567,10.2,10.203,10.2c5.639,0,10.205-4.564,10.205-10.2
		c0-5.64-4.566-10.208-10.205-10.208C611.077,336.1,606.51,340.668,606.51,346.308z"/>
	<circle fill="#3F8930" cx="611.009" cy="327.434" r="10.204"/>
	<path fill="#3F8930" d="M594.219,308.557c0,5.636,4.571,10.209,10.206,10.209c5.636,0,10.204-4.573,10.204-10.209
		c0-5.633-4.568-10.2-10.204-10.2C598.79,298.356,594.219,302.924,594.219,308.557z"/>
</g>
<g>
	<path fill="#306D23" d="M677.004,296.99c0,5.724-4.861,10.36-10.852,10.36c-5.994,0-10.85-4.637-10.85-10.36
		c0-5.716,4.855-10.357,10.85-10.357C672.143,286.633,677.004,291.274,677.004,296.99z"/>
	<path fill="#306D23" d="M635.659,402.082c0,5.719-4.857,10.359-10.848,10.359c-5.998,0-10.855-4.641-10.855-10.359
		c0-5.721,4.857-10.357,10.855-10.357C630.802,391.725,635.659,396.361,635.659,402.082z"/>
	<ellipse fill="#306D23" cx="631.811" cy="383.367" rx="10.854" ry="10.361"/>
	<path fill="#306D23" d="M649.201,364.209c0,5.721-4.858,10.361-10.855,10.361c-5.99,0-10.852-4.641-10.852-10.361
		c0-5.72,4.861-10.362,10.852-10.362C644.343,353.847,649.201,358.489,649.201,364.209z"/>
	<path fill="#306D23" d="M654.801,345.494c0,5.718-4.857,10.359-10.852,10.359s-10.852-4.642-10.852-10.359
		c0-5.722,4.857-10.356,10.852-10.356S654.801,339.772,654.801,345.494z"/>
	<path fill="#306D23" d="M660.869,326.333c0,5.722-4.86,10.359-10.854,10.359s-10.852-4.638-10.852-10.359
		c0-5.717,4.857-10.356,10.852-10.356S660.869,320.616,660.869,326.333z"/>
	<ellipse fill="#306D23" cx="657.016" cy="307.174" rx="10.852" ry="10.359"/>
	<polygon fill="#3F8930" points="664.919,290.407 708.19,411.5 625.675,411.5 	"/>
	<circle fill="#3F8930" cx="667.113" cy="298.09" r="10.204"/>
	<circle fill="#3F8930" cx="628.241" cy="401.609" r="10.204"/>
	<path fill="#3F8930" d="M645.026,383.178c0,5.635-4.567,10.2-10.206,10.2c-5.631,0-10.203-4.565-10.203-10.2
		c0-5.636,4.572-10.209,10.203-10.209C640.459,372.969,645.026,377.542,645.026,383.178z"/>
	<path fill="#3F8930" d="M651.174,364.302c0,5.638-4.571,10.206-10.207,10.206c-5.635,0-10.2-4.568-10.2-10.206
		c0-5.635,4.565-10.205,10.2-10.205C646.603,354.097,651.174,358.667,651.174,364.302z"/>
	<path fill="#3F8930" d="M656.441,345.866c0,5.639-4.572,10.204-10.207,10.204s-10.201-4.565-10.201-10.204
		c0-5.636,4.566-10.203,10.201-10.203S656.441,340.23,656.441,345.866z"/>
	<circle fill="#3F8930" cx="651.94" cy="326.993" r="10.205"/>
	<path fill="#3F8930" d="M668.727,308.121c0,5.637-4.565,10.202-10.2,10.202c-5.638,0-10.207-4.565-10.207-10.202
		c0-5.632,4.569-10.209,10.207-10.209C664.161,297.912,668.727,302.489,668.727,308.121z"/>
	<path fill="#3F8930" d="M694.846,402.05c0,5.634,4.566,10.203,10.203,10.203c5.639,0,10.205-4.569,10.205-10.203
		c0-5.635-4.566-10.203-10.205-10.203C699.412,391.847,694.846,396.415,694.846,402.05z"/>
	<path fill="#3F8930" d="M688.262,383.614c0,5.635,4.569,10.208,10.204,10.208c5.636,0,10.204-4.573,10.204-10.208
		c0-5.636-4.568-10.207-10.204-10.207C692.831,373.407,688.262,377.979,688.262,383.614z"/>
	<path fill="#3F8930" d="M682.116,364.741c0,5.633,4.569,10.203,10.203,10.203c5.639,0,10.204-4.57,10.204-10.203
		c0-5.634-4.565-10.203-10.204-10.203C686.686,354.538,682.116,359.107,682.116,364.741z"/>
	<path fill="#3F8930" d="M676.85,346.308c0,5.636,4.566,10.2,10.203,10.2c5.639,0,10.204-4.564,10.204-10.2
		c0-5.64-4.565-10.208-10.204-10.208C681.416,336.1,676.85,340.668,676.85,346.308z"/>
	<circle fill="#3F8930" cx="681.348" cy="327.434" r="10.204"/>
	<path fill="#3F8930" d="M664.558,308.557c0,5.636,4.571,10.209,10.206,10.209c5.636,0,10.205-4.573,10.205-10.209
		c0-5.633-4.569-10.2-10.205-10.2C669.129,298.356,664.558,302.924,664.558,308.557z"/>
</g>
<g>
	<ellipse fill="#7581E6" cx="608.751" cy="409.855" rx="7.672" ry="1.91"/>
	<ellipse fill="#7581E6" cx="629.464" cy="410.006" rx="7.588" ry="1.756"/>
	<g>
		<path fill="#8190FF" d="M618.868,402.936c-5.461,0-10.531-0.943-14.732-2.557c-1.632,4.215-2.669,9.133-2.669,9.133
			c3.259,2.359,10.679,0.898,12.927,0.786c2.249-0.112,2.022-2.811,2.022-3.485c0-0.538,0.864-1.075,2.643-1.156v-0.052
			c1.729,0.093,2.568,0.621,2.568,1.153c0,0.674-0.225,3.372,2.024,3.483c2.248,0.113,9.668,1.575,12.927-0.786
			c0,0-1.047-4.961-2.691-9.188C629.632,401.948,624.454,402.936,618.868,402.936z"/>
	</g>
	<g>
		<path fill="#FFFFFF" d="M631.973,396.047l-4.899-8.045l-8.087-0.031v0.057l-9.245,0.035l-4.109,9.14l0.047-0.26
			c-0.569,0.983-1.097,2.166-1.574,3.405c4.208,1.598,9.277,2.531,14.735,2.531c5.604,0,10.8-0.983,15.072-2.662
			c-0.549-1.416-1.164-2.756-1.83-3.802C631.913,396.15,631.908,396.057,631.973,396.047z"/>
	</g>
	<path fill="#2D3551" d="M616.985,365.613"/>
	<path fill="#FCC447" d="M618.995,362.354c-6.376,0-11.921,1.638-14.749,4.048v7.303c2.828,2.412,8.373,4.049,14.749,4.049
		c5.907,0,11.101-1.406,14.081-3.529v-8.34C630.096,363.76,624.902,362.354,618.995,362.354z"/>
	<polygon fill="#FCC447" points="621.805,388.537 618.785,391.563 615.764,388.543 	"/>
	<path fill="#FFFFFF" d="M605.779,397.174c0,0,0.153-0.116,0.297-0.197l3.212-8.11l-0.853,0.003c-15.345,2.15-12.183,9.4-12.183,9.4
		C600.004,404.34,605.779,397.174,605.779,397.174z"/>
	<path fill="#FCC447" d="M600.117,391.257c-5.754,2.951-3.948,7.098-3.948,7.098c3.751,6.07,9.526-1.096,9.526-1.096
		s0.123-0.093,0.252-0.172L600.117,391.257z"/>
	<path fill="#EFB94B" d="M601.367,400.603c0,0-0.243-0.194-0.449-0.479c-0.234-0.326-0.422-0.772-0.149-1.189
		c0.513-0.785-0.057-2.912-1.794-2.52s0.848,3.344,1.318,3.441c0.198,0.042,0.223,0.277,0.348,0.473
		c0.172,0.268-0.033,0.245-0.033,0.245L601.367,400.603z"/>
	<path fill="#FFFFFF" d="M631.188,397.174c0,0-0.153-0.116-0.297-0.197l-3.213-8.11l0.854,0.003c15.344,2.15,12.184,9.4,12.184,9.4
		C636.962,404.34,631.188,397.174,631.188,397.174z"/>
	<path fill="#FCC447" d="M636.85,391.257c5.755,2.951,3.948,7.098,3.948,7.098c-3.751,6.07-9.527-1.096-9.527-1.096
		s-0.122-0.093-0.251-0.172L636.85,391.257z"/>
	<path fill="#EFB94B" d="M635.6,400.603c0,0,0.242-0.194,0.449-0.479c0.235-0.326,0.423-0.772,0.149-1.189
		c-0.513-0.785,0.056-2.912,1.794-2.52c1.737,0.393-0.849,3.344-1.318,3.441c-0.198,0.042-0.223,0.277-0.349,0.473
		c-0.17,0.268,0.033,0.245,0.033,0.245L635.6,400.603z"/>
	<path fill="#F5F5F5" d="M621.816,388.773l1.687,2.585c0,0,5.621-1.237,6.183-2.474"/>
	<path fill="#F5F5F5" d="M616.256,388.886l-1.687,2.586c0,0-5.62-1.236-6.183-2.473"/>
	<circle fill="#FCC447" cx="633.277" cy="378.678" r="2.102"/>
	<path fill="#FCC447" d="M607.041,382.197c0,0.888-0.672,1.607-1.501,1.607l0,0c-0.83,0-1.503-0.72-1.503-1.607v-12.221
		c0-0.89,0.673-1.609,1.503-1.609l0,0c0.829,0,1.501,0.72,1.501,1.609V382.197z"/>
	<path fill="#FCC447" d="M633.267,382.597c0,0.899-0.71,1.63-1.586,1.63l0,0c-0.876,0-1.588-0.73-1.588-1.63v-12.378
		c0-0.898,0.712-1.627,1.588-1.627l0,0c0.876,0,1.586,0.729,1.586,1.627V382.597z"/>
	<circle fill="#FCC447" cx="603.693" cy="378.595" r="2.101"/>
	
		<line fill="none" stroke="#FFDFD3" stroke-width="0.1681" stroke-miterlimit="10" x1="614.842" y1="382.937" x2="622.687" y2="382.937"/>
	<ellipse fill="#FCC447" cx="609.811" cy="383.131" rx="5.762" ry="5.562"/>
	<ellipse fill="#FCC447" cx="627.534" cy="383.203" rx="5.762" ry="5.562"/>
	<rect x="608.977" y="372.162" fill="#FCC447" width="18.994" height="16.506"/>
	<rect x="606.939" y="374.389" fill="#FCC447" width="2.087" height="4.025"/>
	<rect x="627.365" y="374.786" fill="#FCC447" width="3.119" height="4.026"/>
	<circle cx="610.915" cy="379.655" r="1.533"/>
	<circle cx="625.805" cy="379.491" r="1.533"/>
	<path fill="#EFB94B" d="M631.15,385.062c0,1.084-0.879,1.964-1.964,1.964h-21.107c-1.084,0-1.964-0.88-1.964-1.964v-0.327
		c0-1.085,0.88-1.965,1.964-1.965h21.107c1.085,0,1.964,0.88,1.964,1.965V385.062z"/>
	
		<line fill="none" stroke="#FFDFD3" stroke-width="0.1636" stroke-miterlimit="10" x1="614.733" y1="383.371" x2="622.369" y2="383.371"/>
	<ellipse fill="#FCC447" cx="627.642" cy="367.76" rx="5.701" ry="5.438"/>
	<ellipse fill="#FCC447" cx="609.769" cy="367.859" rx="5.822" ry="5.562"/>
	<rect x="609.793" y="362.298" fill="#FCC447" width="18.21" height="2.473"/>
	<rect x="632.568" y="367.609" fill="#FCC447" width="0.76" height="9.429"/>
	<rect x="604.004" y="367.356" fill="#FCC447" width="1.686" height="4.497"/>
	<path fill="#D58C4F" d="M595.15,394.514c-3.214,0-5.817,2.605-5.817,5.818c0,3.212,2.604,5.817,5.817,5.817
		c3.213,0,5.816-2.605,5.816-5.817C600.967,397.119,598.363,394.514,595.15,394.514z M595.403,403.113
		c-1.304,0-2.361-1.056-2.361-2.359c0-1.305,1.058-2.361,2.361-2.361s2.36,1.057,2.36,2.361
		C597.764,402.058,596.707,403.113,595.403,403.113z"/>
	<path fill="#FF6260" d="M595.15,395.104c-2.888,0-5.228,2.378-5.228,5.312c0,2.933,2.34,5.312,5.228,5.312
		c2.887,0,5.227-2.379,5.227-5.312C600.377,397.482,598.037,395.104,595.15,395.104z M595.15,403.072
		c-1.251,0-2.266-1.031-2.266-2.303s1.015-2.301,2.266-2.301s2.265,1.029,2.265,2.301S596.401,403.072,595.15,403.072z"/>
	<circle fill="#FCD1C3" cx="592.916" cy="397.423" r="0.463"/>
	<circle fill="#8190FF" cx="591.524" cy="398.055" r="0.464"/>
	<circle fill="#FCD1C3" cx="592.031" cy="399.572" r="0.464"/>
	<circle fill="#FCD1C3" cx="590.85" cy="400.584" r="0.463"/>
	<circle fill="#FCC447" cx="592.115" cy="401.47" r="0.463"/>
	<circle fill="#FCD1C3" cx="592.115" cy="403.029" r="0.463"/>
	<circle fill="#FCD1C3" cx="593.928" cy="396.115" r="0.464"/>
	<circle fill="#8190FF" cx="599.112" cy="399.994" r="0.464"/>
	<circle fill="#FCD1C3" cx="597.68" cy="398.562" r="0.464"/>
	<circle fill="#FCC447" cx="596.246" cy="397.76" r="0.464"/>
	<circle fill="#FCD1C3" cx="597.68" cy="397.127" r="0.464"/>
	<circle fill="#8190FF" cx="597.426" cy="403.113" r="0.464"/>
	<circle fill="#FCD1C3" cx="595.952" cy="395.947" r="0.463"/>
	<circle fill="#FCC447" cx="594.476" cy="403.956" r="0.464"/>
	<circle fill="#FCD1C3" cx="595.825" cy="404.504" r="0.464"/>
	<circle fill="#FCD1C3" cx="599.197" cy="401.766" r="0.464"/>
</g>
<path fill="#8DC73F" d="M244.5,426.275c0,2.488,8.108,4.225,20.134,4.225H794.43c12.029,0,21.07-1.736,21.07-4.225v-11.263
	c0-2.487-9.041-3.513-21.07-3.513H264.634c-12.026,0-20.134,1.025-20.134,3.513V426.275z"/>
<path fill="#AECEF4" d="M501.5,426.275c0,2.488,1.166,4.225,2.197,4.225h45.451c1.033,0,1.352-1.736,1.352-4.225v-11.263
	c0-2.487-0.318-3.513-1.352-3.513h-45.451c-1.031,0-2.197,1.025-2.197,3.513V426.275z"/>
<ellipse fill="#7581E6" cx="480.504" cy="409.931" rx="4.543" ry="1.133"/>
<ellipse fill="#7581E6" cx="492.772" cy="410.021" rx="4.494" ry="1.041"/>
<g>
	<path fill="#8190FF" d="M486.497,405.833c-3.234,0-6.237-0.559-8.727-1.514c-0.965,2.496-1.581,5.408-1.581,5.408
		c1.931,1.398,6.324,0.533,7.656,0.466c1.332-0.066,1.199-1.663,1.199-2.062c0-0.319,0.511-0.639,1.563-0.686v-0.031
		c1.024,0.055,1.522,0.368,1.522,0.682c0,0.4-0.134,1.998,1.198,2.064c1.332,0.067,5.726,0.933,7.656-0.466
		c0,0-0.62-2.938-1.595-5.441C492.871,405.249,489.805,405.833,486.497,405.833z"/>
</g>
<g>
	<path fill="#EA534C" d="M494.258,401.754l-2.901-4.765l-4.79-0.019v0.033l-5.476,0.021l-2.434,5.413l0.027-0.153
		c-0.336,0.583-0.649,1.282-0.933,2.017c2.493,0.945,5.495,1.499,8.728,1.499c3.319,0,6.396-0.583,8.927-1.576
		c-0.325-0.839-0.689-1.633-1.084-2.252C494.222,401.814,494.22,401.76,494.258,401.754z"/>
</g>
<path fill="#2D3551" d="M485.58,383.463"/>
<circle fill="#FCC447" cx="495.269" cy="391.652" r="1.249"/>
<path fill="#FCC447" d="M479.683,393.742c0,0.527-0.399,0.955-0.893,0.955l0,0c-0.493,0-0.892-0.428-0.892-0.955v-7.26
	c0-0.528,0.398-0.956,0.892-0.956l0,0c0.493,0,0.893,0.428,0.893,0.956V393.742z"/>
<path fill="#FCC447" d="M495.262,393.98c0,0.534-0.422,0.967-0.941,0.967l0,0c-0.521,0-0.943-0.433-0.943-0.967v-7.353
	c0-0.535,0.422-0.968,0.943-0.968l0,0c0.52,0,0.941,0.433,0.941,0.968V393.98z"/>
<path fill="#FCC447" d="M486.795,381.532c-3.834,0-7.17,0.971-8.872,2.398v4.325c1.702,1.428,5.038,2.397,8.872,2.397
	c3.555,0,6.678-0.833,8.471-2.091v-4.939C493.473,382.365,490.35,381.532,486.795,381.532z"/>
<circle fill="#FCC447" cx="477.693" cy="391.603" r="1.249"/>
<path fill="#EA534C" d="M478.858,402.422c0,0,0.093-0.068,0.18-0.118l1.937-4.804l-0.516,0.003
	c-9.251,1.273-7.345,5.567-7.345,5.567C475.376,406.666,478.858,402.422,478.858,402.422z"/>
<path fill="#FCC447" d="M475.421,398.916c-3.448,1.749-2.366,4.205-2.366,4.205c2.248,3.594,5.71-0.65,5.71-0.65
	s0.073-0.055,0.15-0.101L475.421,398.916z"/>
<path fill="#EFB94B" d="M476.131,404.451c0,0-0.144-0.113-0.266-0.283c-0.14-0.192-0.25-0.457-0.088-0.705
	c0.303-0.465-0.034-1.724-1.063-1.491c-1.029,0.231,0.503,1.98,0.781,2.038c0.116,0.025,0.133,0.165,0.206,0.28
	c0.101,0.158-0.02,0.145-0.02,0.145L476.131,404.451z"/>
<path fill="#EA534C" d="M493.793,402.422c0,0-0.091-0.068-0.177-0.118l-1.902-4.804l0.505,0.003
	c9.088,1.273,7.217,5.567,7.217,5.567C497.213,406.666,493.793,402.422,493.793,402.422z"/>
<path fill="#FCC447" d="M497.146,398.916c3.407,1.749,2.338,4.205,2.338,4.205c-2.222,3.594-5.643-0.65-5.643-0.65
	s-0.072-0.055-0.148-0.101L497.146,398.916z"/>
<path fill="#EFB94B" d="M496.405,404.451c0,0,0.145-0.113,0.267-0.283c0.139-0.192,0.25-0.457,0.088-0.705
	c-0.303-0.465,0.034-1.724,1.062-1.491c1.029,0.231-0.502,1.98-0.78,2.038c-0.118,0.025-0.133,0.165-0.206,0.28
	c-0.102,0.158,0.02,0.145,0.02,0.145L496.405,404.451z"/>
<line fill="none" stroke="#FFDFD3" stroke-width="0.0999" stroke-miterlimit="10" x1="484.316" y1="394.182" x2="488.977" y2="394.182"/>
<path fill="#FCC447" d="M481.156,382.476l-2.485-1.738c-0.095-0.081-0.23-0.104-0.349-0.046c-0.123,0.059-0.188,0.191-0.174,0.322
	l-0.203,3.023L481.156,382.476z"/>
<path fill="#FCC447" d="M483.025,382.499l-1.996-2.283c-0.072-0.102-0.198-0.157-0.326-0.128c-0.135,0.027-0.23,0.14-0.247,0.271
	l-0.923,2.888L483.025,382.499z"/>
<path fill="#FCC447" d="M484.938,382.683l-1.451-2.664c-0.048-0.114-0.159-0.194-0.29-0.196c-0.138-0.001-0.256,0.087-0.301,0.211
	l-1.528,2.618L484.938,382.683z"/>
<path fill="#FCC447" d="M487.205,382.527l-1.453-2.663c-0.048-0.115-0.159-0.196-0.289-0.197c-0.139-0.001-0.255,0.087-0.301,0.211
	l-1.528,2.617L487.205,382.527z"/>
<path fill="#FCC447" d="M489.4,382.527l-1.452-2.663c-0.048-0.115-0.16-0.196-0.29-0.197c-0.139-0.001-0.255,0.087-0.301,0.211
	l-1.529,2.617L489.4,382.527z"/>
<path fill="#FCC447" d="M491.666,382.668l-1.451-2.663c-0.049-0.114-0.159-0.194-0.291-0.197c-0.137,0-0.255,0.089-0.301,0.211
	l-1.528,2.618L491.666,382.668z"/>
<path fill="#FCC447" d="M493.933,383.022l-1.452-2.663c-0.048-0.115-0.16-0.196-0.29-0.197c-0.139-0.001-0.255,0.087-0.3,0.211
	l-1.528,2.617L493.933,383.022z"/>
<path fill="#FCC447" d="M492.128,382.334l2.485-1.738c0.095-0.082,0.23-0.104,0.349-0.047c0.124,0.06,0.188,0.191,0.175,0.322
	l0.203,3.025L492.128,382.334z"/>
<path fill="#FCC447" d="M490.125,382.357l1.997-2.282c0.072-0.103,0.198-0.157,0.326-0.13c0.135,0.029,0.229,0.14,0.248,0.271
	l0.921,2.887L490.125,382.357z"/>
<ellipse fill="#FCC447" cx="481.328" cy="394.297" rx="3.423" ry="3.306"/>
<ellipse fill="#FCC447" cx="491.856" cy="394.341" rx="3.423" ry="3.305"/>
<rect x="480.832" y="387.781" fill="#FCC447" width="11.284" height="9.805"/>
<rect x="479.623" y="389.104" fill="#FCC447" width="1.238" height="2.392"/>
<rect x="491.757" y="389.34" fill="#FCC447" width="1.852" height="2.392"/>
<circle cx="481.984" cy="392.233" r="0.912"/>
<circle cx="490.83" cy="392.135" r="0.911"/>
<path fill="#EFB94B" d="M494.005,395.444c0,0.645-0.522,1.165-1.166,1.165h-12.54c-0.645,0-1.167-0.521-1.167-1.165v-0.194
	c0-0.645,0.522-1.167,1.167-1.167h12.54c0.644,0,1.166,0.522,1.166,1.167V395.444z"/>
<line fill="none" stroke="#FFDFD3" stroke-width="0.0972" stroke-miterlimit="10" x1="484.252" y1="394.439" x2="488.788" y2="394.439"/>
<g>
	<ellipse fill="#306D23" cx="428.042" cy="344.549" rx="6.263" ry="5.979"/>
	<ellipse fill="#306D23" cx="404.178" cy="405.205" rx="6.264" ry="5.98"/>
	<ellipse fill="#306D23" cx="408.22" cy="394.404" rx="6.265" ry="5.98"/>
	<ellipse fill="#306D23" cx="411.993" cy="383.347" rx="6.265" ry="5.979"/>
	<ellipse fill="#306D23" cx="415.227" cy="372.545" rx="6.264" ry="5.979"/>
	<ellipse fill="#306D23" cx="418.728" cy="361.486" rx="6.265" ry="5.979"/>
	<ellipse fill="#306D23" cx="422.769" cy="350.426" rx="6.264" ry="5.979"/>
	<polygon fill="#3F8930" points="427.33,340.607 452.305,410.5 404.679,410.5 	"/>
	<circle fill="#3F8930" cx="428.597" cy="345.183" r="5.89"/>
	<circle fill="#3F8930" cx="406.16" cy="404.934" r="5.889"/>
	<path fill="#3F8930" d="M415.848,394.294c0,3.253-2.637,5.888-5.891,5.888c-3.25,0-5.889-2.635-5.889-5.888
		c0-3.252,2.639-5.892,5.889-5.892C413.211,388.402,415.848,391.042,415.848,394.294z"/>
	<circle fill="#3F8930" cx="413.507" cy="383.399" r="5.889"/>
	<circle fill="#3F8930" cx="416.547" cy="372.76" r="5.89"/>
	<circle fill="#3F8930" cx="419.838" cy="361.866" r="5.89"/>
	<path fill="#3F8930" d="M429.527,350.974c0,3.253-2.636,5.888-5.888,5.888c-3.254,0-5.891-2.635-5.891-5.888
		c0-3.252,2.637-5.893,5.891-5.893C426.892,345.081,429.527,347.722,429.527,350.974z"/>
	<circle fill="#3F8930" cx="450.492" cy="405.188" r="5.89"/>
	<circle fill="#3F8930" cx="446.692" cy="394.547" r="5.89"/>
	<circle fill="#3F8930" cx="443.146" cy="383.653" r="5.89"/>
	<path fill="#3F8930" d="M434.216,373.014c0,3.253,2.636,5.888,5.89,5.888s5.89-2.635,5.89-5.888c0-3.256-2.636-5.892-5.89-5.892
		S434.216,369.758,434.216,373.014z"/>
	<circle fill="#3F8930" cx="436.812" cy="362.12" r="5.89"/>
	<path fill="#3F8930" d="M427.121,351.225c0,3.252,2.639,5.892,5.892,5.892c3.252,0,5.889-2.64,5.889-5.892
		c0-3.251-2.637-5.889-5.889-5.889C429.76,345.336,427.121,347.974,427.121,351.225z"/>
</g>
<g>
	<ellipse fill="#306D23" cx="282.042" cy="346.549" rx="6.263" ry="5.979"/>
	<ellipse fill="#306D23" cx="258.178" cy="407.205" rx="6.264" ry="5.98"/>
	<ellipse fill="#306D23" cx="262.22" cy="396.404" rx="6.265" ry="5.98"/>
	<ellipse fill="#306D23" cx="265.993" cy="385.347" rx="6.265" ry="5.979"/>
	<ellipse fill="#306D23" cx="269.227" cy="374.545" rx="6.264" ry="5.979"/>
	<ellipse fill="#306D23" cx="272.728" cy="363.486" rx="6.265" ry="5.979"/>
	<ellipse fill="#306D23" cx="276.769" cy="352.426" rx="6.264" ry="5.979"/>
	<polygon fill="#3F8930" points="281.33,342.607 306.305,412.5 258.679,412.5 	"/>
	<circle fill="#3F8930" cx="282.597" cy="347.183" r="5.89"/>
	<circle fill="#3F8930" cx="260.16" cy="406.934" r="5.889"/>
	<path fill="#3F8930" d="M269.848,396.294c0,3.253-2.637,5.888-5.891,5.888c-3.25,0-5.889-2.635-5.889-5.888
		c0-3.252,2.639-5.892,5.889-5.892C267.211,390.402,269.848,393.042,269.848,396.294z"/>
	<circle fill="#3F8930" cx="267.507" cy="385.399" r="5.889"/>
	<circle fill="#3F8930" cx="270.547" cy="374.76" r="5.89"/>
	<circle fill="#3F8930" cx="273.838" cy="363.866" r="5.89"/>
	<path fill="#3F8930" d="M283.527,352.974c0,3.253-2.636,5.888-5.888,5.888c-3.254,0-5.891-2.635-5.891-5.888
		c0-3.252,2.637-5.893,5.891-5.893C280.892,347.081,283.527,349.722,283.527,352.974z"/>
	<circle fill="#3F8930" cx="304.492" cy="407.188" r="5.89"/>
	<circle fill="#3F8930" cx="300.692" cy="396.547" r="5.89"/>
	<circle fill="#3F8930" cx="297.146" cy="385.653" r="5.89"/>
	<path fill="#3F8930" d="M288.216,375.014c0,3.253,2.636,5.888,5.89,5.888s5.89-2.635,5.89-5.888c0-3.256-2.636-5.892-5.89-5.892
		S288.216,371.758,288.216,375.014z"/>
	<circle fill="#3F8930" cx="290.812" cy="364.12" r="5.89"/>
	<path fill="#3F8930" d="M281.121,353.225c0,3.252,2.639,5.892,5.892,5.892c3.252,0,5.889-2.64,5.889-5.892
		c0-3.251-2.637-5.889-5.889-5.889C283.76,347.336,281.121,349.974,281.121,353.225z"/>
</g>
<g>
	<ellipse fill="#306D23" cx="784.042" cy="344.549" rx="6.263" ry="5.979"/>
	<ellipse fill="#306D23" cx="760.178" cy="405.205" rx="6.264" ry="5.98"/>
	<ellipse fill="#306D23" cx="764.22" cy="394.404" rx="6.265" ry="5.98"/>
	<ellipse fill="#306D23" cx="767.993" cy="383.347" rx="6.265" ry="5.979"/>
	<ellipse fill="#306D23" cx="771.227" cy="372.545" rx="6.264" ry="5.979"/>
	<ellipse fill="#306D23" cx="774.728" cy="361.486" rx="6.265" ry="5.979"/>
	<ellipse fill="#306D23" cx="778.769" cy="350.426" rx="6.264" ry="5.979"/>
	<polygon fill="#3F8930" points="783.33,340.607 808.305,410.5 760.679,410.5 	"/>
	<circle fill="#3F8930" cx="784.597" cy="345.183" r="5.89"/>
	<circle fill="#3F8930" cx="762.16" cy="404.934" r="5.889"/>
	<path fill="#3F8930" d="M771.848,394.294c0,3.253-2.637,5.888-5.891,5.888c-3.25,0-5.889-2.635-5.889-5.888
		c0-3.252,2.639-5.892,5.889-5.892C769.211,388.402,771.848,391.042,771.848,394.294z"/>
	<circle fill="#3F8930" cx="769.507" cy="383.399" r="5.889"/>
	<circle fill="#3F8930" cx="772.547" cy="372.76" r="5.89"/>
	<circle fill="#3F8930" cx="775.838" cy="361.866" r="5.89"/>
	<path fill="#3F8930" d="M785.527,350.974c0,3.253-2.636,5.888-5.888,5.888c-3.254,0-5.891-2.635-5.891-5.888
		c0-3.252,2.637-5.893,5.891-5.893C782.892,345.081,785.527,347.722,785.527,350.974z"/>
	<circle fill="#3F8930" cx="806.492" cy="405.188" r="5.89"/>
	<circle fill="#3F8930" cx="802.692" cy="394.547" r="5.89"/>
	<circle fill="#3F8930" cx="799.146" cy="383.653" r="5.89"/>
	<path fill="#3F8930" d="M790.216,373.014c0,3.253,2.636,5.888,5.89,5.888s5.89-2.635,5.89-5.888c0-3.256-2.636-5.892-5.89-5.892
		S790.216,369.758,790.216,373.014z"/>
	<circle fill="#3F8930" cx="792.812" cy="362.12" r="5.89"/>
	<path fill="#3F8930" d="M783.121,351.225c0,3.252,2.639,5.892,5.892,5.892c3.252,0,5.889-2.64,5.889-5.892
		c0-3.251-2.637-5.889-5.889-5.889C785.76,345.336,783.121,347.974,783.121,351.225z"/>
</g>
<path opacity="0.57" fill="#AECEF4" d="M815.535,411.5c-1.547-159-129.072-286.826-286.188-286.826
	c-157.113,0-284.64,127.826-286.188,286.826H815.535z"/>
<path opacity="0.79" fill="#D7E7FB" d="M553.398,146.643c-8.761-0.888-17.649-1.32-26.645-1.32
	c-143.33,0-259.664,115.178-261.077,258.178h53.29C320.291,269.5,422.564,159.885,553.398,146.643z"/>
<rect x="140.5" y="632.5" fill="#FCC447" width="768" height="133"/>
<path fill="#F4A019" d="M482.972,639.014c0,8.001-8.391,14.484-18.75,14.484H239.299c-10.348,0-18.74-6.483-18.74-14.484l0,0
	c0-7.994,8.393-14.471,18.74-14.471h224.923C474.581,624.543,482.972,631.02,482.972,639.014L482.972,639.014z"/>
</svg>
