<?xml version="1.0" encoding="utf-8"?>
<!-- Generator: Adobe Illustrator 15.1.0, SVG Export Plug-In . SVG Version: 6.00 Build 0)  -->
<!DOCTYPE svg PUBLIC "-//W3C//DTD SVG 1.1//EN" "http://www.w3.org/Graphics/SVG/1.1/DTD/svg11.dtd">
<svg version="1.1" id="Layer_1" xmlns="http://www.w3.org/2000/svg" xmlns:xlink="http://www.w3.org/1999/xlink" x="0px" y="0px"
	 width="1024px" height="768px" viewBox="0 0 1024 768" enable-background="new 0 0 1024 768" xml:space="preserve">
<rect x="0.5" y="-0.5" fill="#D7E7FB" width="1025" height="771"/>
<path fill="#FCC447" d="M906.5,652.5V83.806c0-29.563-28.266-53.306-63.506-53.306h-641.39c-35.228,0-64.104,23.742-64.104,53.306
	V652.5H906.5z"/>
<path fill="#D7E7FB" d="M829.703,527.141c0,36.225-29.564,65.602-66.037,65.602h-491.6c-36.467,0-66.039-29.377-66.039-65.602
	V148.073c0-36.244,29.572-65.614,66.039-65.614h491.6c36.473,0,66.037,29.37,66.037,65.614V527.141z"/>
<path fill="none" stroke="#EBEFFC" stroke-width="0.5841" stroke-miterlimit="10" d="M393.164,497.095
	c0,0,35.823,9.735,102.795,0.39"/>
<path fill="#012B4A" d="M725.542,509.913c0,26.446-19.509,47.894-43.574,47.894H357.591c-24.063,0-43.575-21.447-43.575-47.894
	V233.168c0-26.46,19.512-47.902,43.575-47.902h324.377c24.065,0,43.574,21.442,43.574,47.902V509.913z"/>
<path fill="#012B4A" d="M580.925,194.051c-1.758,1.758-5.081,1.283-7.425-1.061l0,0c-2.342-2.342-2.818-5.666-1.061-7.424
	l46.139-46.139c1.757-1.758,5.082-1.281,7.424,1.06l0,0c2.344,2.345,2.818,5.668,1.062,7.425L580.925,194.051z"/>
<path fill="#012B4A" d="M593.062,188.564c1.758,1.758,1.283,5.082-1.061,7.426l0,0c-2.342,2.342-5.666,2.818-7.424,1.061
	l-46.139-46.139c-1.758-1.758-1.281-5.082,1.061-7.424l0,0c2.344-2.344,5.668-2.818,7.424-1.062L593.062,188.564z"/>
<circle fill="#012B4A" cx="625.009" cy="140.994" r="13.499"/>
<circle fill="#012B4A" cx="541.009" cy="146.994" r="13.499"/>
<path fill="#023558" d="M702.5,433.147c0,6.27-5.494,11.353-12.27,11.353H349.769c-6.775,0-12.269-5.083-12.269-11.353V222.186
	c0-6.269,5.493-11.686,12.269-11.686H690.23c6.775,0,12.27,5.417,12.27,11.686V433.147z"/>
<rect x="370.5" y="444.5" fill="#012B4A" width="249" height="46"/>
<path fill="#05507A" d="M409.5,464.25c0,2.899-2.351,5.25-5.25,5.25h-59.5c-2.899,0-5.25-2.351-5.25-5.25v-0.5
	c0-2.899,2.351-5.25,5.25-5.25h59.5c2.899,0,5.25,2.351,5.25,5.25V464.25z"/>
<path fill="#05507A" d="M409.5,485.25c0,2.899-2.351,5.25-5.25,5.25h-59.5c-2.899,0-5.25-2.351-5.25-5.25v-0.5
	c0-2.899,2.351-5.25,5.25-5.25h59.5c2.899,0,5.25,2.351,5.25,5.25V485.25z"/>
<circle fill="#05507A" cx="438.518" cy="476.478" r="16.499"/>
<circle fill="#05507A" cx="483.518" cy="475.478" r="16.499"/>
<path fill="#935227" d="M543.5,381.238c0-0.095-1.344-0.738-1.382-0.738h-3.226c-0.039,0,0.607,0.644,0.607,0.738v0.043
	c0,0.094-0.646-0.781-0.607-0.781h3.226c0.038,0,1.382,0.875,1.382,0.781V381.238z"/>
<path fill="#FAD836" d="M659.562,275.441c0,7.256-5.878,13.133-13.132,13.133c-7.251,0-13.131-5.877-13.131-13.133
	c0-7.251,5.88-13.13,13.131-13.13C653.685,262.312,659.562,268.19,659.562,275.441z"/>
<circle fill="#FAD836" cx="626.48" cy="259.34" r="6.068"/>
<g>
	<path fill="#012B4A" d="M457.539,343.579c0,4.427-3.762,8.015-8.396,8.015c-4.64,0-8.396-3.588-8.396-8.015
		c0-4.425,3.756-8.017,8.396-8.017C453.777,335.562,457.539,339.154,457.539,343.579z"/>
	<path fill="#012B4A" d="M425.549,424.892c0,4.426-3.759,8.017-8.395,8.017c-4.641,0-8.399-3.591-8.399-8.017
		s3.759-8.015,8.399-8.015C421.79,416.877,425.549,420.466,425.549,424.892z"/>
	<ellipse fill="#012B4A" cx="422.57" cy="410.412" rx="8.398" ry="8.018"/>
	<path fill="#012B4A" d="M436.027,395.588c0,4.427-3.76,8.018-8.4,8.018c-4.635,0-8.396-3.591-8.396-8.018
		c0-4.426,3.762-8.017,8.396-8.017C432.268,387.571,436.027,391.162,436.027,395.588z"/>
	<ellipse fill="#012B4A" cx="431.963" cy="381.107" rx="8.396" ry="8.015"/>
	<path fill="#012B4A" d="M445.055,366.282c0,4.426-3.761,8.015-8.398,8.015s-8.396-3.589-8.396-8.015
		c0-4.423,3.759-8.015,8.396-8.015S445.055,361.859,445.055,366.282z"/>
	<ellipse fill="#012B4A" cx="442.073" cy="351.457" rx="8.397" ry="8.016"/>
	<polygon fill="#012B4A" points="448.189,337.804 481.67,431.5 417.823,431.5 	"/>
	<path fill="#012B4A" d="M457.781,344.428c0,4.359-3.533,7.898-7.894,7.898s-7.896-3.539-7.896-7.898
		c0-4.358,3.536-7.893,7.896-7.893S457.781,340.069,457.781,344.428z"/>
	<circle fill="#012B4A" cx="419.809" cy="424.527" r="7.895"/>
	<path fill="#012B4A" d="M432.797,410.265c0,4.36-3.535,7.894-7.896,7.894c-4.357,0-7.895-3.533-7.895-7.894
		s3.537-7.896,7.895-7.896C429.262,402.368,432.797,405.904,432.797,410.265z"/>
	<path fill="#012B4A" d="M437.553,395.659c0,4.362-3.537,7.897-7.897,7.897c-4.359,0-7.892-3.535-7.892-7.897
		c0-4.358,3.532-7.895,7.892-7.895C434.016,387.765,437.553,391.301,437.553,395.659z"/>
	<path fill="#012B4A" d="M441.629,381.396c0,4.364-3.537,7.896-7.898,7.896c-4.359,0-7.892-3.531-7.892-7.896
		c0-4.36,3.532-7.896,7.892-7.896C438.092,373.5,441.629,377.035,441.629,381.396z"/>
	<circle fill="#012B4A" cx="438.146" cy="366.793" r="7.896"/>
	<path fill="#012B4A" d="M451.135,352.19c0,4.362-3.533,7.895-7.893,7.895c-4.362,0-7.898-3.532-7.898-7.895
		c0-4.357,3.536-7.899,7.898-7.899C447.602,344.291,451.135,347.833,451.135,352.19z"/>
	<path fill="#012B4A" d="M471.344,424.867c0,4.36,3.533,7.895,7.895,7.895c4.363,0,7.896-3.534,7.896-7.895
		s-3.532-7.894-7.896-7.894C474.877,416.974,471.344,420.507,471.344,424.867z"/>
	<circle fill="#012B4A" cx="474.146" cy="410.603" r="7.896"/>
	<circle fill="#012B4A" cx="469.39" cy="396" r="7.895"/>
	<path fill="#012B4A" d="M457.42,381.738c0,4.359,3.533,7.892,7.895,7.892c4.363,0,7.895-3.532,7.895-7.892
		c0-4.366-3.531-7.899-7.895-7.899C460.953,373.839,457.42,377.372,457.42,381.738z"/>
	<circle fill="#012B4A" cx="460.9" cy="367.134" r="7.895"/>
	<circle fill="#012B4A" cx="455.805" cy="352.529" r="7.896"/>
</g>
<g>
	<path fill="#012B4A" d="M489.264,378.496c0,2.697-2.291,4.883-5.114,4.883c-2.825,0-5.114-2.186-5.114-4.883
		c0-2.693,2.289-4.882,5.114-4.882C486.973,373.614,489.264,375.803,489.264,378.496z"/>
	<ellipse fill="#012B4A" cx="464.663" cy="428.025" rx="5.115" ry="4.883"/>
	<ellipse fill="#012B4A" cx="467.963" cy="419.205" rx="5.116" ry="4.884"/>
	<ellipse fill="#012B4A" cx="471.045" cy="410.177" rx="5.115" ry="4.884"/>
	<ellipse fill="#012B4A" cx="473.685" cy="401.356" rx="5.114" ry="4.882"/>
	<path fill="#012B4A" d="M481.658,392.324c0,2.698-2.291,4.884-5.115,4.884s-5.114-2.186-5.114-4.884c0-2.693,2.29-4.88,5.114-4.88
		S481.658,389.631,481.658,392.324z"/>
	<ellipse fill="#012B4A" cx="479.843" cy="383.296" rx="5.114" ry="4.884"/>
	<polygon fill="#012B4A" points="483.567,374.429 503.963,431.5 465.072,431.5 	"/>
	<path fill="#012B4A" d="M489.411,379.013c0,2.656-2.153,4.812-4.808,4.812c-2.657,0-4.811-2.155-4.811-4.812
		c0-2.653,2.153-4.806,4.811-4.806C487.258,374.207,489.411,376.359,489.411,379.013z"/>
	<circle fill="#012B4A" cx="466.281" cy="427.803" r="4.809"/>
	<path fill="#012B4A" d="M474.192,419.115c0,2.656-2.151,4.809-4.811,4.809c-2.653,0-4.809-2.152-4.809-4.809
		c0-2.655,2.155-4.81,4.809-4.81C472.041,414.306,474.192,416.46,474.192,419.115z"/>
	<circle fill="#012B4A" cx="472.281" cy="410.22" r="4.809"/>
	<circle fill="#012B4A" cx="474.763" cy="401.531" r="4.809"/>
	<circle fill="#012B4A" cx="477.451" cy="392.636" r="4.811"/>
	<path fill="#012B4A" d="M485.363,383.741c0,2.658-2.152,4.811-4.809,4.811s-4.811-2.152-4.811-4.811c0-2.653,2.154-4.81,4.811-4.81
		S485.363,381.088,485.363,383.741z"/>
	<circle fill="#012B4A" cx="502.482" cy="428.01" r="4.809"/>
	<circle fill="#012B4A" cx="499.379" cy="419.322" r="4.809"/>
	<circle fill="#012B4A" cx="496.483" cy="410.428" r="4.809"/>
	<path fill="#012B4A" d="M489.19,401.738c0,2.657,2.153,4.809,4.809,4.809c2.659,0,4.811-2.151,4.811-4.809
		c0-2.658-2.151-4.81-4.811-4.81C491.344,396.929,489.19,399.08,489.19,401.738z"/>
	<circle fill="#012B4A" cx="491.31" cy="392.844" r="4.809"/>
	<circle fill="#012B4A" cx="488.207" cy="383.947" r="4.81"/>
</g>
<g>
	<path fill="#012B4A" d="M570.967,358.803c0,3.674-3.119,6.65-6.966,6.65s-6.964-2.977-6.964-6.65c0-3.67,3.117-6.648,6.964-6.648
		S570.967,355.133,570.967,358.803z"/>
	<path fill="#012B4A" d="M544.429,426.259c0,3.671-3.117,6.649-6.964,6.649c-3.85,0-6.967-2.979-6.967-6.649
		c0-3.672,3.117-6.647,6.967-6.647C541.312,419.611,544.429,422.587,544.429,426.259z"/>
	<ellipse fill="#012B4A" cx="541.958" cy="414.246" rx="6.966" ry="6.65"/>
	<path fill="#012B4A" d="M553.121,401.949c0,3.672-3.119,6.65-6.969,6.65c-3.845,0-6.965-2.979-6.965-6.65s3.12-6.651,6.965-6.651
		C550.002,395.298,553.121,398.277,553.121,401.949z"/>
	<ellipse fill="#012B4A" cx="549.75" cy="389.937" rx="6.965" ry="6.649"/>
	<path fill="#012B4A" d="M560.61,377.637c0,3.672-3.12,6.65-6.967,6.65c-3.849,0-6.966-2.979-6.966-6.65
		c0-3.67,3.117-6.646,6.966-6.646C557.49,370.99,560.61,373.967,560.61,377.637z"/>
	<ellipse fill="#012B4A" cx="558.138" cy="365.339" rx="6.966" ry="6.649"/>
	<polygon fill="#012B4A" points="563.209,353.772 590.984,431.5 538.02,431.5 	"/>
	<circle fill="#012B4A" cx="564.619" cy="359.509" r="6.549"/>
	<circle fill="#012B4A" cx="539.667" cy="425.956" r="6.549"/>
	<circle fill="#012B4A" cx="543.892" cy="414.124" r="6.55"/>
	<circle fill="#012B4A" cx="547.838" cy="402.008" r="6.551"/>
	<circle fill="#012B4A" cx="551.218" cy="390.175" r="6.55"/>
	<circle fill="#012B4A" cx="554.879" cy="378.061" r="6.551"/>
	<path fill="#012B4A" d="M565.654,365.947c0,3.617-2.93,6.548-6.548,6.548c-3.619,0-6.552-2.931-6.552-6.548
		c0-3.615,2.933-6.553,6.552-6.553C562.725,359.395,565.654,362.332,565.654,365.947z"/>
	<circle fill="#012B4A" cx="588.969" cy="426.238" r="6.549"/>
	<circle fill="#012B4A" cx="584.743" cy="414.404" r="6.55"/>
	<path fill="#012B4A" d="M574.248,402.29c0,3.616,2.934,6.55,6.549,6.55c3.621,0,6.551-2.934,6.551-6.55
		c0-3.615-2.93-6.548-6.551-6.548C577.182,395.742,574.248,398.675,574.248,402.29z"/>
	<path fill="#012B4A" d="M570.867,390.458c0,3.618,2.932,6.548,6.55,6.548s6.55-2.93,6.55-6.548c0-3.619-2.932-6.552-6.55-6.552
		S570.867,386.839,570.867,390.458z"/>
	<circle fill="#012B4A" cx="573.755" cy="378.343" r="6.55"/>
	<path fill="#012B4A" d="M562.979,366.227c0,3.617,2.934,6.554,6.551,6.554s6.55-2.937,6.55-6.554c0-3.615-2.933-6.547-6.55-6.547
		S562.979,362.611,562.979,366.227z"/>
</g>
<g>
	<path fill="#012B4A" d="M616.117,358.803c0,3.674-3.121,6.65-6.966,6.65c-3.849,0-6.965-2.977-6.965-6.65
		c0-3.67,3.116-6.648,6.965-6.648C612.996,352.154,616.117,355.133,616.117,358.803z"/>
	<path fill="#012B4A" d="M589.578,426.259c0,3.671-3.118,6.649-6.963,6.649c-3.851,0-6.969-2.979-6.969-6.649
		c0-3.672,3.118-6.647,6.969-6.647C586.46,419.611,589.578,422.587,589.578,426.259z"/>
	<ellipse fill="#012B4A" cx="587.108" cy="414.246" rx="6.967" ry="6.65"/>
	<ellipse fill="#012B4A" cx="591.304" cy="401.949" rx="6.967" ry="6.65"/>
	<ellipse fill="#012B4A" cx="594.899" cy="389.937" rx="6.966" ry="6.649"/>
	<path fill="#012B4A" d="M605.76,377.637c0,3.672-3.12,6.65-6.968,6.65c-3.847,0-6.964-2.979-6.964-6.65
		c0-3.67,3.117-6.646,6.964-6.646C602.64,370.99,605.76,373.967,605.76,377.637z"/>
	<ellipse fill="#012B4A" cx="603.286" cy="365.339" rx="6.966" ry="6.649"/>
	<polygon fill="#012B4A" points="608.359,353.772 636.135,431.5 583.169,431.5 	"/>
	<circle fill="#012B4A" cx="609.767" cy="359.509" r="6.549"/>
	<circle fill="#012B4A" cx="584.816" cy="425.956" r="6.55"/>
	<circle fill="#012B4A" cx="589.04" cy="414.124" r="6.55"/>
	<path fill="#012B4A" d="M599.537,402.008c0,3.619-2.934,6.552-6.553,6.552c-3.616,0-6.547-2.933-6.547-6.552
		c0-3.616,2.931-6.55,6.547-6.55C596.604,395.458,599.537,398.392,599.537,402.008z"/>
	<circle fill="#012B4A" cx="596.368" cy="390.175" r="6.55"/>
	<circle fill="#012B4A" cx="600.028" cy="378.061" r="6.55"/>
	<path fill="#012B4A" d="M610.803,365.947c0,3.617-2.93,6.548-6.547,6.548c-3.618,0-6.552-2.931-6.552-6.548
		c0-3.615,2.934-6.553,6.552-6.553C607.873,359.395,610.803,362.332,610.803,365.947z"/>
	<circle fill="#012B4A" cx="634.119" cy="426.238" r="6.549"/>
	<circle fill="#012B4A" cx="629.893" cy="414.404" r="6.55"/>
	<circle fill="#012B4A" cx="625.947" cy="402.29" r="6.549"/>
	<path fill="#012B4A" d="M616.018,390.458c0,3.618,2.932,6.548,6.549,6.548c3.619,0,6.549-2.93,6.549-6.548
		c0-3.619-2.93-6.552-6.549-6.552C618.949,383.906,616.018,386.839,616.018,390.458z"/>
	<circle fill="#012B4A" cx="618.905" cy="378.343" r="6.55"/>
	<path fill="#012B4A" d="M608.127,366.227c0,3.617,2.935,6.554,6.552,6.554c3.618,0,6.55-2.937,6.55-6.554
		c0-3.615-2.932-6.547-6.55-6.547C611.062,359.68,608.127,362.611,608.127,366.227z"/>
</g>
<path fill="#8DC73F" d="M338.5,441.788c0,1.598,5.204,2.712,12.924,2.712H691.49c7.722,0,13.01-1.114,13.01-2.712v-7.229
	c0-1.597-5.288-3.059-13.01-3.059H351.424c-7.72,0-12.924,1.462-12.924,3.059V441.788z"/>
<path fill="#AECEF4" d="M503.5,441.788c0,1.598,0.712,2.712,1.375,2.712h29.174c0.662,0,1.451-1.114,1.451-2.712v-7.229
	c0-1.597-0.789-3.059-1.451-3.059h-29.174c-0.663,0-1.375,1.462-1.375,3.059V441.788z"/>
<ellipse fill="#7581E6" cx="489.987" cy="431.297" rx="2.917" ry="0.727"/>
<ellipse fill="#7581E6" cx="497.862" cy="431.354" rx="2.884" ry="0.668"/>
<g>
	<path fill="#8190FF" d="M493.833,428.667c-2.075,0-4.004-0.358-5.601-0.972c-0.619,1.602-1.016,3.471-1.016,3.471
		c1.24,0.898,4.06,0.343,4.915,0.299c0.854-0.042,0.771-1.066,0.771-1.324c0-0.204,0.328-0.409,1.003-0.438v-0.021
		c0.657,0.035,0.978,0.236,0.978,0.438c0,0.257-0.087,1.283,0.769,1.325c0.854,0.043,3.676,0.599,4.914-0.3
		c0,0-0.398-1.885-1.023-3.493C497.925,428.292,495.957,428.667,493.833,428.667z"/>
</g>
<g>
	<path fill="#EA534C" d="M498.814,426.048l-1.861-3.058l-3.075-0.013V423l-3.515,0.013l-1.562,3.475l0.018-0.099
		c-0.216,0.374-0.417,0.823-0.6,1.295c1.601,0.605,3.528,0.962,5.603,0.962c2.131,0,4.105-0.375,5.729-1.011
		c-0.208-0.539-0.442-1.049-0.695-1.446C498.792,426.088,498.791,426.052,498.814,426.048z"/>
</g>
<path fill="#2D3551" d="M493.245,414.309"/>
<circle fill="#FCC447" cx="499.464" cy="419.564" r="0.802"/>
<path fill="#FCC447" d="M489.46,420.905c0,0.339-0.257,0.613-0.573,0.613l0,0c-0.316,0-0.572-0.274-0.572-0.613v-4.659
	c0-0.34,0.256-0.614,0.572-0.614l0,0c0.316,0,0.573,0.274,0.573,0.614V420.905z"/>
<path fill="#FCC447" d="M499.46,421.06c0,0.343-0.271,0.62-0.604,0.62l0,0c-0.335,0-0.605-0.277-0.605-0.62v-4.72
	c0-0.344,0.271-0.622,0.605-0.622l0,0c0.334,0,0.604,0.278,0.604,0.622V421.06z"/>
<path fill="#FCC447" d="M494.024,413.068c-2.46,0-4.603,0.623-5.694,1.54v2.776c1.092,0.916,3.234,1.539,5.694,1.539
	c2.282,0,4.286-0.535,5.438-1.342v-3.172C498.311,413.604,496.307,413.068,494.024,413.068z"/>
<circle fill="#FCC447" cx="488.183" cy="419.533" r="0.802"/>
<path fill="#EA534C" d="M488.931,426.478c0,0,0.06-0.045,0.116-0.077l1.242-3.082l-0.33,0.002c-5.938,0.816-4.715,3.573-4.715,3.573
	C486.694,429.201,488.931,426.478,488.931,426.478z"/>
<path fill="#FCC447" d="M486.725,424.227c-2.215,1.123-1.52,2.699-1.52,2.699c1.443,2.307,3.665-0.417,3.665-0.417
	s0.047-0.036,0.097-0.064L486.725,424.227z"/>
<path fill="#EFB94B" d="M487.18,427.779c0,0-0.092-0.073-0.17-0.182c-0.091-0.123-0.161-0.293-0.057-0.452
	c0.194-0.298-0.022-1.107-0.683-0.957c-0.661,0.147,0.322,1.271,0.501,1.308c0.074,0.017,0.086,0.105,0.133,0.181
	c0.064,0.102-0.014,0.092-0.014,0.092L487.18,427.779z"/>
<path fill="#EA534C" d="M498.517,426.478c0,0-0.059-0.045-0.112-0.077l-1.222-3.082l0.324,0.002
	c5.833,0.816,4.631,3.573,4.631,3.573C500.712,429.201,498.517,426.478,498.517,426.478z"/>
<path fill="#FCC447" d="M500.669,424.227c2.188,1.123,1.501,2.699,1.501,2.699c-1.426,2.307-3.622-0.417-3.622-0.417
	s-0.046-0.036-0.096-0.064L500.669,424.227z"/>
<path fill="#EFB94B" d="M500.193,427.779c0,0,0.093-0.073,0.171-0.182c0.09-0.123,0.16-0.293,0.056-0.452
	c-0.193-0.298,0.023-1.107,0.684-0.957c0.66,0.147-0.323,1.271-0.502,1.308c-0.076,0.017-0.084,0.105-0.132,0.181
	c-0.065,0.102,0.013,0.092,0.013,0.092L500.193,427.779z"/>
<line fill="none" stroke="#FFDFD3" stroke-width="0.0641" stroke-miterlimit="10" x1="492.435" y1="421.188" x2="495.426" y2="421.188"/>
<path fill="#FCC447" d="M490.405,413.674l-1.595-1.115c-0.061-0.053-0.147-0.067-0.225-0.03c-0.078,0.037-0.12,0.123-0.111,0.207
	l-0.131,1.941L490.405,413.674z"/>
<path fill="#FCC447" d="M491.605,413.688l-1.282-1.466c-0.046-0.064-0.126-0.1-0.208-0.082c-0.087,0.018-0.149,0.09-0.159,0.174
	l-0.592,1.854L491.605,413.688z"/>
<path fill="#FCC447" d="M492.833,413.807l-0.933-1.71c-0.031-0.073-0.102-0.124-0.186-0.126c-0.088-0.001-0.164,0.057-0.192,0.136
	l-0.981,1.681L492.833,413.807z"/>
<path fill="#FCC447" d="M494.289,413.707l-0.934-1.71c-0.031-0.073-0.102-0.125-0.186-0.126c-0.089,0-0.163,0.057-0.193,0.136
	l-0.98,1.68L494.289,413.707z"/>
<path fill="#FCC447" d="M495.697,413.707l-0.932-1.71c-0.031-0.073-0.104-0.125-0.187-0.126c-0.09,0-0.164,0.057-0.192,0.136
	l-0.983,1.68L495.697,413.707z"/>
<path fill="#FCC447" d="M497.151,413.797l-0.932-1.709c-0.031-0.073-0.103-0.125-0.187-0.127c-0.088,0-0.164,0.058-0.193,0.136
	l-0.98,1.681L497.151,413.797z"/>
<path fill="#FCC447" d="M498.605,414.025l-0.932-1.711c-0.031-0.072-0.103-0.125-0.186-0.126c-0.089,0-0.164,0.057-0.193,0.136
	l-0.979,1.68L498.605,414.025z"/>
<path fill="#FCC447" d="M497.448,413.583l1.595-1.115c0.061-0.054,0.148-0.067,0.225-0.031c0.079,0.04,0.12,0.124,0.111,0.207
	l0.131,1.942L497.448,413.583z"/>
<path fill="#FCC447" d="M496.162,413.598l1.282-1.464c0.046-0.067,0.127-0.102,0.208-0.085c0.088,0.021,0.148,0.09,0.16,0.176
	l0.592,1.853L496.162,413.598z"/>
<ellipse fill="#FCC447" cx="490.516" cy="421.262" rx="2.197" ry="2.122"/>
<ellipse fill="#FCC447" cx="497.273" cy="421.29" rx="2.197" ry="2.121"/>
<rect x="490.197" y="417.079" fill="#FCC447" width="7.243" height="6.294"/>
<rect x="489.421" y="417.928" fill="#FCC447" width="0.796" height="1.535"/>
<rect x="497.21" y="418.081" fill="#FCC447" width="1.188" height="1.534"/>
<circle cx="490.937" cy="419.938" r="0.585"/>
<circle cx="496.614" cy="419.874" r="0.585"/>
<path fill="#EFB94B" d="M498.653,421.999c0,0.413-0.335,0.747-0.75,0.747h-8.048c-0.414,0-0.75-0.334-0.75-0.747v-0.126
	c0-0.413,0.336-0.749,0.75-0.749h8.048c0.415,0,0.75,0.336,0.75,0.749V421.999z"/>
<line fill="none" stroke="#FFDFD3" stroke-width="0.0624" stroke-miterlimit="10" x1="492.393" y1="421.354" x2="495.305" y2="421.354"/>
<g>
	<ellipse fill="#012B4A" cx="367.598" cy="388.613" rx="4.02" ry="3.838"/>
	<ellipse fill="#012B4A" cx="352.28" cy="427.548" rx="4.02" ry="3.839"/>
	<ellipse fill="#012B4A" cx="354.875" cy="420.614" rx="4.021" ry="3.839"/>
	<ellipse fill="#012B4A" cx="357.296" cy="413.517" rx="4.021" ry="3.839"/>
	<ellipse fill="#012B4A" cx="359.372" cy="406.583" rx="4.021" ry="3.839"/>
	<ellipse fill="#012B4A" cx="361.62" cy="399.485" rx="4.021" ry="3.838"/>
	<ellipse fill="#012B4A" cx="364.213" cy="392.386" rx="4.021" ry="3.839"/>
	<polygon fill="#012B4A" points="367.141,386.637 383.171,431.5 352.602,431.5 	"/>
	<circle fill="#012B4A" cx="367.954" cy="389.02" r="3.78"/>
	<circle fill="#012B4A" cx="353.552" cy="427.373" r="3.78"/>
	<circle fill="#012B4A" cx="355.99" cy="420.543" r="3.78"/>
	<circle fill="#012B4A" cx="358.269" cy="413.552" r="3.78"/>
	<circle fill="#012B4A" cx="360.22" cy="406.721" r="3.78"/>
	<circle fill="#012B4A" cx="362.332" cy="399.729" r="3.781"/>
	<circle fill="#012B4A" cx="364.771" cy="392.736" r="3.78"/>
	<circle fill="#012B4A" cx="382.008" cy="427.535" r="3.78"/>
	<circle fill="#012B4A" cx="379.569" cy="420.706" r="3.781"/>
	<circle fill="#012B4A" cx="377.292" cy="413.713" r="3.78"/>
	<circle fill="#012B4A" cx="375.34" cy="406.885" r="3.781"/>
	<circle fill="#012B4A" cx="373.227" cy="399.893" r="3.781"/>
	<circle fill="#012B4A" cx="370.788" cy="392.898" r="3.781"/>
</g>
<g>
	<ellipse fill="#012B4A" cx="680.823" cy="389.33" rx="4.02" ry="3.837"/>
	<ellipse fill="#012B4A" cx="665.504" cy="428.264" rx="4.021" ry="3.838"/>
	<ellipse fill="#012B4A" cx="668.099" cy="421.331" rx="4.021" ry="3.839"/>
	<ellipse fill="#012B4A" cx="670.52" cy="414.233" rx="4.021" ry="3.837"/>
	<ellipse fill="#012B4A" cx="672.596" cy="407.3" rx="4.021" ry="3.837"/>
	<ellipse fill="#012B4A" cx="674.844" cy="400.201" rx="4.021" ry="3.837"/>
	<ellipse fill="#012B4A" cx="677.437" cy="393.102" rx="4.02" ry="3.838"/>
	<polygon fill="#012B4A" points="680.365,386.636 696.396,431.5 665.825,431.5 	"/>
	<circle fill="#012B4A" cx="681.179" cy="389.735" r="3.78"/>
	<circle fill="#012B4A" cx="666.776" cy="428.09" r="3.78"/>
	<circle fill="#012B4A" cx="669.215" cy="421.26" r="3.78"/>
	<circle fill="#012B4A" cx="671.493" cy="414.268" r="3.78"/>
	<circle fill="#012B4A" cx="673.444" cy="407.438" r="3.78"/>
	<circle fill="#012B4A" cx="675.557" cy="400.445" r="3.78"/>
	<circle fill="#012B4A" cx="677.996" cy="393.453" r="3.78"/>
	<circle fill="#012B4A" cx="695.232" cy="428.252" r="3.781"/>
	<circle fill="#012B4A" cx="692.793" cy="421.422" r="3.781"/>
	<circle fill="#012B4A" cx="690.517" cy="414.43" r="3.78"/>
	<circle fill="#012B4A" cx="688.566" cy="407.6" r="3.781"/>
	<circle fill="#012B4A" cx="686.452" cy="400.608" r="3.781"/>
	<circle fill="#012B4A" cx="684.012" cy="393.615" r="3.781"/>
</g>
<path fill="#8DC73F" d="M608.5,441.788c0,1.598,1.365,2.712,3.39,2.712h89.198c2.025,0,3.412-1.114,3.412-2.712v-7.229
	c0-1.597-1.387-3.059-3.412-3.059H611.89c-2.024,0-3.39,1.462-3.39,3.059V441.788z"/>
<g>
	<ellipse fill="#7581E6" cx="575.556" cy="432.748" rx="4.924" ry="1.227"/>
	<ellipse fill="#7581E6" cx="588.852" cy="432.845" rx="4.871" ry="1.127"/>
	<g>
		<path fill="#8190FF" d="M582.051,428.307c-3.506,0-6.76-0.604-9.457-1.641c-1.047,2.705-1.714,5.861-1.714,5.861
			c2.093,1.516,6.855,0.577,8.298,0.505c1.444-0.071,1.298-1.804,1.298-2.237c0-0.346,0.556-0.69,1.696-0.742v-0.032
			c1.109,0.06,1.649,0.398,1.649,0.739c0,0.434-0.144,2.164,1.3,2.236s6.205,1.011,8.297-0.505c0,0-0.672-3.184-1.729-5.897
			C588.959,427.672,585.636,428.307,582.051,428.307z"/>
	</g>
	<g>
		<path fill="#FFFFFF" d="M590.461,423.885l-3.145-5.163l-5.19-0.021v0.035l-5.935,0.024l-2.637,5.866l0.029-0.166
			c-0.366,0.63-0.703,1.39-1.01,2.186c2.7,1.024,5.954,1.624,9.457,1.624c3.598,0,6.934-0.63,9.676-1.709
			c-0.353-0.908-0.747-1.769-1.176-2.44C590.424,423.951,590.42,423.893,590.461,423.885z"/>
	</g>
	<path fill="#2D3551" d="M580.842,404.351"/>
	<path fill="#FCC447" d="M582.131,402.258c-4.092,0-7.65,1.052-9.467,2.6v4.688c1.816,1.547,5.375,2.599,9.467,2.599
		c3.793,0,7.126-0.902,9.039-2.265v-5.354C589.257,403.16,585.924,402.258,582.131,402.258z"/>
	<polygon fill="#FCC447" points="583.936,419.064 581.997,421.008 580.058,419.068 	"/>
	<path fill="#FFFFFF" d="M573.648,424.608c0,0,0.099-0.075,0.19-0.127l2.062-5.206l-0.548,0.002
		c-9.85,1.381-7.819,6.034-7.819,6.034C569.941,429.209,573.648,424.608,573.648,424.608z"/>
	<path fill="#FCC447" d="M570.014,420.811c-3.693,1.894-2.534,4.556-2.534,4.556c2.407,3.897,6.116-0.703,6.116-0.703
		s0.078-0.06,0.161-0.11L570.014,420.811z"/>
	<path fill="#EFB94B" d="M570.816,426.809c0,0-0.156-0.124-0.287-0.307c-0.15-0.21-0.272-0.495-0.096-0.764
		c0.327-0.504-0.037-1.869-1.152-1.617s0.544,2.146,0.847,2.21c0.126,0.025,0.142,0.177,0.222,0.303
		c0.111,0.173-0.021,0.157-0.021,0.157L570.816,426.809z"/>
	<path fill="#FFFFFF" d="M589.957,424.608c0,0-0.098-0.075-0.189-0.127l-2.062-5.206l0.548,0.002c9.849,1.381,7.82,6.034,7.82,6.034
		C593.664,429.209,589.957,424.608,589.957,424.608z"/>
	<path fill="#FCC447" d="M593.592,420.811c3.695,1.894,2.534,4.556,2.534,4.556c-2.407,3.897-6.114-0.703-6.114-0.703
		s-0.079-0.06-0.161-0.11L593.592,420.811z"/>
	<path fill="#EFB94B" d="M592.789,426.809c0,0,0.156-0.124,0.289-0.307c0.15-0.21,0.271-0.495,0.096-0.764
		c-0.329-0.504,0.036-1.869,1.151-1.617c1.114,0.252-0.544,2.146-0.846,2.21c-0.127,0.025-0.144,0.177-0.224,0.303
		c-0.109,0.173,0.021,0.157,0.021,0.157L592.789,426.809z"/>
	<path fill="#F5F5F5" d="M583.943,419.216l1.082,1.661c0,0,3.607-0.795,3.969-1.589"/>
	<path fill="#F5F5F5" d="M580.374,419.288l-1.083,1.66c0,0-3.608-0.794-3.969-1.587"/>
	<circle fill="#FCC447" cx="591.298" cy="412.736" r="1.349"/>
	<path fill="#FCC447" d="M574.459,414.995c0,0.569-0.432,1.031-0.964,1.031l0,0c-0.532,0-0.965-0.462-0.965-1.031v-7.845
		c0-0.57,0.433-1.032,0.965-1.032l0,0c0.532,0,0.964,0.462,0.964,1.032V414.995z"/>
	<path fill="#FCC447" d="M591.293,415.252c0,0.577-0.456,1.046-1.018,1.046l0,0c-0.564,0-1.021-0.469-1.021-1.046v-7.945
		c0-0.577,0.456-1.045,1.021-1.045l0,0c0.562,0,1.018,0.468,1.018,1.045V415.252z"/>
	<circle fill="#FCC447" cx="572.309" cy="412.684" r="1.348"/>
	
		<line fill="none" stroke="#FFDFD3" stroke-width="0.1079" stroke-miterlimit="10" x1="579.465" y1="415.471" x2="584.502" y2="415.471"/>
	<ellipse fill="#FCC447" cx="576.236" cy="415.595" rx="3.698" ry="3.57"/>
	<ellipse fill="#FCC447" cx="587.612" cy="415.642" rx="3.699" ry="3.569"/>
	<rect x="575.701" y="408.555" fill="#FCC447" width="12.192" height="10.594"/>
	<rect x="574.394" y="409.982" fill="#FCC447" width="1.339" height="2.584"/>
	<rect x="587.505" y="410.238" fill="#FCC447" width="2.002" height="2.584"/>
	<circle cx="576.945" cy="413.363" r="0.984"/>
	<circle cx="586.503" cy="413.259" r="0.984"/>
	<path fill="#EFB94B" d="M589.934,416.833c0,0.696-0.563,1.261-1.26,1.261h-13.55c-0.694,0-1.26-0.564-1.26-1.261v-0.208
		c0-0.697,0.565-1.263,1.26-1.263h13.55c0.696,0,1.26,0.565,1.26,1.263V416.833z"/>
	
		<line fill="none" stroke="#FFDFD3" stroke-width="0.105" stroke-miterlimit="10" x1="579.396" y1="415.748" x2="584.298" y2="415.748"/>
	<ellipse fill="#FCC447" cx="587.682" cy="405.729" rx="3.659" ry="3.489"/>
	<ellipse fill="#FCC447" cx="576.21" cy="405.793" rx="3.737" ry="3.569"/>
	<rect x="576.225" y="402.223" fill="#FCC447" width="11.689" height="1.587"/>
	<rect x="590.845" y="405.632" fill="#FCC447" width="0.487" height="6.052"/>
	<rect x="572.51" y="405.469" fill="#FCC447" width="1.08" height="2.887"/>
	<path fill="#D58C4F" d="M566.826,422.902c-2.063,0-3.733,1.671-3.733,3.733c0,2.062,1.67,3.734,3.733,3.734
		c2.062,0,3.733-1.673,3.733-3.734C570.56,424.573,568.888,422.902,566.826,422.902z M566.988,428.421
		c-0.837,0-1.516-0.678-1.516-1.515c0-0.838,0.679-1.515,1.516-1.515c0.838,0,1.516,0.677,1.516,1.515
		C568.504,427.743,567.826,428.421,566.988,428.421z"/>
	<path fill="#FF6260" d="M566.826,423.28c-1.854,0-3.355,1.526-3.355,3.409s1.502,3.41,3.355,3.41s3.355-1.527,3.355-3.41
		S568.68,423.28,566.826,423.28z M566.826,428.395c-0.804,0-1.454-0.662-1.454-1.479c0-0.814,0.65-1.477,1.454-1.477
		c0.803,0,1.454,0.662,1.454,1.477C568.28,427.732,567.629,428.395,566.826,428.395z"/>
	<circle fill="#FCD1C3" cx="565.391" cy="424.769" r="0.297"/>
	<circle fill="#8190FF" cx="564.499" cy="425.174" r="0.298"/>
	<circle fill="#FCD1C3" cx="564.823" cy="426.148" r="0.298"/>
	<circle fill="#FCD1C3" cx="564.066" cy="426.797" r="0.297"/>
	<circle fill="#FCC447" cx="564.877" cy="427.365" r="0.297"/>
	<circle fill="#FCD1C3" cx="564.877" cy="428.367" r="0.297"/>
	<circle fill="#FCD1C3" cx="566.041" cy="423.93" r="0.298"/>
	<circle fill="#8190FF" cx="569.37" cy="426.419" r="0.298"/>
	<circle fill="#FCD1C3" cx="568.45" cy="425.499" r="0.298"/>
	<circle fill="#FCC447" cx="567.529" cy="424.984" r="0.298"/>
	<circle fill="#FCD1C3" cx="568.45" cy="424.578" r="0.298"/>
	<circle fill="#8190FF" cx="568.286" cy="428.421" r="0.298"/>
	<circle fill="#FCD1C3" cx="567.341" cy="423.821" r="0.298"/>
	<circle fill="#FCC447" cx="566.393" cy="428.962" r="0.297"/>
	<circle fill="#FCD1C3" cx="567.259" cy="429.312" r="0.298"/>
	<circle fill="#FCD1C3" cx="569.423" cy="427.556" r="0.297"/>
</g>
<rect x="137.5" y="639.5" fill="#FCC447" width="768" height="133"/>
<path fill="#F4A019" d="M479.972,646.014c0,8.001-8.392,14.484-18.749,14.484H236.299c-10.348,0-18.74-6.483-18.74-14.484l0,0
	c0-7.994,8.393-14.471,18.74-14.471h224.924C471.58,631.543,479.972,638.02,479.972,646.014L479.972,646.014z"/>
</svg>
