<?xml version="1.0" encoding="utf-8"?>
<!-- Generator: Adobe Illustrator 15.1.0, SVG Export Plug-In . SVG Version: 6.00 Build 0)  -->
<!DOCTYPE svg PUBLIC "-//W3C//DTD SVG 1.1//EN" "http://www.w3.org/Graphics/SVG/1.1/DTD/svg11.dtd">
<svg version="1.1" id="Layer_1" xmlns="http://www.w3.org/2000/svg" xmlns:xlink="http://www.w3.org/1999/xlink" x="0px" y="0px"
	 width="1024px" height="768px" viewBox="0 0 1024 768" enable-background="new 0 0 1024 768" xml:space="preserve">
<path fill="#F4F5F9" d="M742.869,686.048c16.312,0,31.804,2.375,45.811,6.622c-17.772-7.939-39-12.554-61.81-12.554
	c-55.975,0-102.439,27.788-111.643,64.306h17.869C645.586,710.87,689.97,686.048,742.869,686.048z"/>
<rect x="-0.5" y="-1.5" fill="#D7E7FB" width="1025" height="771"/>
<path fill="#FCC447" d="M901.5,641.5V72.806c0-29.563-28.266-53.306-63.506-53.306h-641.39c-35.228,0-64.104,23.742-64.104,53.306
	V641.5H901.5z"/>
<path fill="#D7E7FB" d="M832.69,524.125c0,36.225-29.564,65.602-66.037,65.602h-491.6c-36.467,0-66.039-29.377-66.039-65.602
	V145.058c0-36.244,29.572-65.614,66.039-65.614h491.6c36.473,0,66.037,29.37,66.037,65.614V524.125z"/>
<path fill="#F5F5F5" d="M727.04,470.414c0,26.446-19.509,47.894-43.574,47.894H359.089c-24.063,0-43.575-21.447-43.575-47.894
	V193.669c0-26.46,19.512-47.902,43.575-47.902h324.377c24.065,0,43.574,21.442,43.574,47.902V470.414z"/>
<circle fill="#EA534C" cx="378.327" cy="198.524" r="30.003"/>
<circle fill="#FF6260" cx="378.826" cy="198.025" r="19.502"/>
<circle fill="#D7E7FB" cx="526.844" cy="344.039" r="100.51"/>
<circle fill="#012B4A" cx="525.342" cy="346.541" r="87.008"/>
<circle fill="#05507A" cx="525.343" cy="342.539" r="27.002"/>
<circle fill="#D7E7FB" cx="516.342" cy="336.537" r="12.001"/>
<path fill="#023558" d="M472.767,309.5c13.143-14.146,31.899-23,52.733-23c20.83,0,39.578,8.857,52.72,23h8.624
	c-12.451-21.515-35.698-36-62.344-36s-49.893,14.485-62.344,36H472.767z"/>
<rect x="134.5" y="631.5" fill="#FCC447" width="768" height="133"/>
<path fill="#F4A019" d="M476.972,638.014c0,8.001-8.392,14.484-18.749,14.484H233.299c-10.348,0-18.74-6.483-18.74-14.484l0,0
	c0-7.994,8.393-14.471,18.74-14.471h224.924C468.58,623.543,476.972,630.02,476.972,638.014L476.972,638.014z"/>
</svg>
