<?xml version="1.0" encoding="utf-8"?>
<!-- Generator: Adobe Illustrator 15.1.0, SVG Export Plug-In . SVG Version: 6.00 Build 0)  -->
<!DOCTYPE svg PUBLIC "-//W3C//DTD SVG 1.1//EN" "http://www.w3.org/Graphics/SVG/1.1/DTD/svg11.dtd">
<svg version="1.1" id="Layer_1" xmlns="http://www.w3.org/2000/svg" xmlns:xlink="http://www.w3.org/1999/xlink" x="0px" y="0px"
	 width="1024px" height="3728.5px" viewBox="0 0 1024 3728.5" enable-background="new 0 0 1024 3728.5" xml:space="preserve">
<rect x="-75.686" y="109.856" fill="#D7E7FB" width="1225.375" height="4457.999"/>
<rect x="-1" y="2" fill="#8DC73F" width="1026" height="108"/>
<path opacity="0.44" fill="#AECEF4" d="M2246.84,2096.401c0-530.946-768.353-961.365-1716.165-961.365
	c-945.61,0-1712.571,428.436-1716.115,957.687h-1.959v1883.396h3429.542V2167.882
	C2245.24,2144.279,2246.84,2120.445,2246.84,2096.401z"/>
<path opacity="0.44" fill="#AECEF4" d="M2259.812,2773.49c0-530.947-768.354-961.365-1716.166-961.365
	c-945.609,0-1712.571,428.436-1716.114,957.686h-1.959v1883.396h3429.543V2844.971
	C2258.212,2821.367,2259.812,2797.533,2259.812,2773.49z"/>
<path opacity="0.44" fill="#AECEF4" d="M2249.434,3536.188c0-530.946-768.353-961.365-1716.165-961.365
	c-945.61,0-1712.571,428.436-1716.113,957.686h-1.96v1883.396H2244.74V3607.668
	C2247.834,3584.064,2249.434,3560.23,2249.434,3536.188z"/>
<path opacity="0.44" fill="#AECEF4" d="M2233.869,4350.77c0-530.946-768.354-961.365-1716.166-961.365
	c-945.61,0-1712.571,428.434-1716.114,957.687h-1.959v1883.396h3429.543V4422.248
	C2232.269,4398.647,2233.869,4374.813,2233.869,4350.77z"/>
</svg>
