<?xml version="1.0" encoding="utf-8"?>
<!-- Generator: Adobe Illustrator 15.1.0, SVG Export Plug-In . SVG Version: 6.00 Build 0)  -->
<!DOCTYPE svg PUBLIC "-//W3C//DTD SVG 1.1//EN" "http://www.w3.org/Graphics/SVG/1.1/DTD/svg11.dtd">
<svg version="1.1" id="Layer_1" xmlns="http://www.w3.org/2000/svg" xmlns:xlink="http://www.w3.org/1999/xlink" x="0px" y="0px"
	 width="1024px" height="768px" viewBox="0 0 1024 768" enable-background="new 0 0 1024 768" xml:space="preserve">
<path fill="#00233D" d="M-1-113v780h1034v-780H-1z M610.456,412H443.61c-3.679-7-5.694-19.041-5.694-30.177
	c0-49.617,39.898-89.103,89.117-89.103c49.214,0,89.113,39.12,89.113,88.735C616.146,392.596,614.13,405,610.456,412z"/>
<path fill="#8DC73F" d="M1029,732.625c0,20.088-5.373,36.375-12,36.375H12c-6.627,0-12-16.287-12-36.375v-121.25
	C0,591.287,5.373,575,12,575h1005c6.627,0,12,16.287,12,36.375V732.625z"/>
<path fill="#2D3551" d="M503.367,306.441"/>
<circle fill="#388A29" cx="-35.851" cy="710.024" r="150.469"/>
<path fill="#306D23" d="M4,664.943v264.806c45-25.449,78.93-75.196,78.93-132.401C82.93,740.141,49,690.394,4,664.943z"/>
<path fill="#306D23" d="M190.697,768c-25.454-47-75.195-78.904-132.391-78.904C1.109,689.096-48.633,721-74.086,768H190.697z"/>
<circle fill="#306D23" cx="1107.229" cy="704.053" r="150.469"/>
<path fill="#306D23" d="M1023,660.943v264.806c-45-25.449-78.93-75.196-78.93-132.401C944.07,736.141,978,686.394,1023,660.943z"/>
<path fill="#388A29" d="M846.682,768c25.453-47,75.195-78.904,132.392-78.904S1086.011,721,1111.466,768H846.682z"/>
<g>
	<path fill="#012B4A" d="M575.54,63.272c0,25.588-21.73,46.337-48.534,46.337c-26.806,0-48.535-20.749-48.535-46.337
		c0-25.58,21.729-46.334,48.535-46.334C553.81,16.939,575.54,37.693,575.54,63.272z"/>
	<ellipse fill="#012B4A" cx="342.096" cy="533.3" rx="48.537" ry="46.335"/>
	<path fill="#012B4A" d="M421.946,449.596c0,25.593-21.726,46.337-48.533,46.337c-26.806,0-48.539-20.743-48.539-46.337
		c0-25.581,21.732-46.33,48.539-46.33C400.22,403.266,421.946,424.015,421.946,449.596z"/>
	<path fill="#012B4A" d="M451.176,363.905c0,25.589-21.73,46.339-48.54,46.339c-26.805,0-48.533-20.75-48.533-46.339
		c0-25.585,21.728-46.332,48.533-46.332C429.446,317.574,451.176,338.32,451.176,363.905z"/>
	<path fill="#012B4A" d="M476.231,280.202c0,25.588-21.73,46.335-48.538,46.335c-26.812,0-48.542-20.746-48.542-46.335
		c0-25.587,21.73-46.325,48.542-46.325C454.501,233.877,476.231,254.615,476.231,280.202z"/>
	<path fill="#012B4A" d="M503.373,194.506c0,25.589-21.731,46.333-48.538,46.333c-26.806,0-48.542-20.743-48.542-46.333
		c0-25.581,21.736-46.323,48.542-46.323C481.641,148.184,503.373,168.926,503.373,194.506z"/>
	<path fill="#012B4A" d="M534.688,108.817c0,25.589-21.732,46.331-48.538,46.331c-26.81,0-48.536-20.742-48.536-46.331
		c0-25.584,21.726-46.331,48.536-46.331C512.953,62.488,534.688,83.233,534.688,108.817z"/>
	<polygon fill="#012B4A" points="521.495,37.429 715.025,579.045 345.968,579.045 	"/>
	<path fill="#012B4A" d="M576.945,68.192c0,25.204-20.433,45.643-45.639,45.643c-25.206,0-45.638-20.439-45.638-45.643
		c0-25.199,20.432-45.639,45.638-45.639C556.512,22.554,576.945,42.994,576.945,68.192z"/>
	<path fill="#012B4A" d="M403.076,531.188c0,25.208-20.436,45.64-45.64,45.64c-25.202,0-45.636-20.432-45.636-45.64
		c0-25.204,20.434-45.641,45.636-45.641C382.64,485.548,403.076,505.984,403.076,531.188z"/>
	<path fill="#012B4A" d="M432.52,448.737c0,25.206-20.428,45.644-45.635,45.644c-25.203,0-45.64-20.438-45.64-45.644
		c0-25.203,20.438-45.642,45.64-45.642C412.092,403.096,432.52,423.534,432.52,448.737z"/>
	<path fill="#012B4A" d="M460.008,364.327c0,25.206-20.434,45.644-45.64,45.644c-25.208,0-45.641-20.438-45.641-45.644
		c0-25.205,20.433-45.637,45.641-45.637C439.574,318.69,460.008,339.122,460.008,364.327z"/>
	<path fill="#012B4A" d="M483.562,281.875c0,25.207-20.431,45.643-45.638,45.643c-25.211,0-45.645-20.437-45.645-45.643
		s20.434-45.631,45.645-45.631C463.132,236.244,483.562,256.669,483.562,281.875z"/>
	<path fill="#012B4A" d="M509.083,197.465c0,25.205-20.432,45.643-45.641,45.643c-25.204,0-45.638-20.438-45.638-45.643
		c0-25.202,20.434-45.637,45.638-45.637C488.651,151.829,509.083,172.263,509.083,197.465z"/>
	<path fill="#012B4A" d="M538.527,113.058c0,25.201-20.434,45.634-45.637,45.634c-25.209,0-45.639-20.434-45.639-45.634
		c0-25.206,20.43-45.643,45.639-45.643C518.094,67.416,538.527,87.853,538.527,113.058z"/>
	<path fill="#012B4A" d="M655.334,533.148c0,25.21,20.43,45.644,45.639,45.644c25.211,0,45.644-20.434,45.644-45.644
		c0-25.202-20.433-45.636-45.644-45.636C675.764,487.513,655.334,507.946,655.334,533.148z"/>
	<path fill="#012B4A" d="M625.889,450.703c0,25.201,20.429,45.637,45.639,45.637c25.207,0,45.641-20.436,45.641-45.637
		c0-25.21-20.434-45.642-45.641-45.642C646.317,405.062,625.889,425.493,625.889,450.703z"/>
	<path fill="#012B4A" d="M598.408,366.294c0,25.202,20.428,45.636,45.641,45.636c25.2,0,45.634-20.434,45.634-45.636
		c0-25.209-20.434-45.639-45.634-45.639C618.836,320.656,598.408,341.085,598.408,366.294z"/>
	<path fill="#012B4A" d="M574.85,283.841c0,25.207,20.43,45.637,45.636,45.637s45.64-20.431,45.64-45.637
		c0-25.208-20.434-45.635-45.64-45.635S574.85,258.633,574.85,283.841z"/>
	<path fill="#012B4A" d="M549.33,199.432c0,25.202,20.432,45.636,45.64,45.636c25.2,0,45.639-20.434,45.639-45.636
		c0-25.207-20.438-45.639-45.639-45.639C569.762,153.793,549.33,174.227,549.33,199.432z"/>
	<path fill="#012B4A" d="M519.885,115.015c0,25.207,20.433,45.64,45.638,45.64c25.206,0,45.64-20.434,45.64-45.64
		c0-25.203-20.434-45.636-45.64-45.636C540.317,69.379,519.885,89.812,519.885,115.015z"/>
</g>
<g>
	<path fill="#023558" d="M288.212,150.799c0,21.292-18.082,38.558-40.386,38.558c-22.307,0-40.387-17.266-40.387-38.558
		c0-21.283,18.08-38.553,40.387-38.553C270.13,112.246,288.212,129.516,288.212,150.799z"/>
	<path fill="#023558" d="M134.347,541.911c0,21.293-18.078,38.555-40.383,38.555c-22.309,0-40.389-17.262-40.389-38.555
		c0-21.292,18.081-38.552,40.389-38.552C116.269,503.359,134.347,520.619,134.347,541.911z"/>
	<path fill="#023558" d="M160.405,472.26c0,21.297-18.08,38.557-40.384,38.557s-40.39-17.26-40.39-38.557
		c0-21.286,18.085-38.551,40.39-38.551S160.405,450.974,160.405,472.26z"/>
	<path fill="#023558" d="M184.728,400.958c0,21.291-18.081,38.558-40.389,38.558c-22.308,0-40.386-17.267-40.386-38.558
		c0-21.292,18.078-38.553,40.386-38.553C166.647,362.405,184.728,379.666,184.728,400.958z"/>
	<path fill="#023558" d="M205.576,331.307c0,21.293-18.081,38.556-40.388,38.556c-22.311,0-40.392-17.262-40.392-38.556
		c0-21.289,18.082-38.545,40.392-38.545C187.495,292.762,205.576,310.018,205.576,331.307z"/>
	<path fill="#023558" d="M228.16,259.999c0,21.294-18.082,38.555-40.391,38.555c-22.303,0-40.388-17.261-40.388-38.555
		c0-21.284,18.085-38.545,40.388-38.545C210.079,221.454,228.16,238.715,228.16,259.999z"/>
	<ellipse fill="#023558" cx="213.829" cy="188.698" rx="40.386" ry="38.552"/>
	<polygon fill="#023558" points="243.242,130.636 404.276,581.313 97.185,581.313 	"/>
	<path fill="#023558" d="M289.379,154.893c0,20.972-17.002,37.979-37.974,37.979s-37.976-17.007-37.976-37.979
		c0-20.968,17.004-37.978,37.976-37.978S289.379,133.925,289.379,154.893z"/>
	<path fill="#023558" d="M144.704,540.154c0,20.974-17.005,37.976-37.979,37.976c-20.97,0-37.974-17.003-37.974-37.976
		c0-20.974,17.004-37.976,37.974-37.976C127.701,502.179,144.704,519.18,144.704,540.154z"/>
	<path fill="#023558" d="M169.204,471.546c0,20.976-17,37.98-37.975,37.98c-20.971,0-37.976-17.005-37.976-37.98
		c0-20.973,17.005-37.974,37.976-37.974C152.205,433.571,169.204,450.573,169.204,471.546z"/>
	<path fill="#023558" d="M192.077,401.308c0,20.974-17.004,37.979-37.978,37.979s-37.976-17.005-37.976-37.979
		c0-20.974,17.002-37.976,37.976-37.976S192.077,380.334,192.077,401.308z"/>
	<path fill="#023558" d="M211.678,332.7c0,20.975-17.001,37.979-37.977,37.979c-20.976,0-37.978-17.005-37.978-37.979
		s17.003-37.97,37.978-37.97C194.676,294.73,211.678,311.726,211.678,332.7z"/>
	<path fill="#023558" d="M232.914,262.462c0,20.973-17.004,37.978-37.98,37.978c-20.971,0-37.974-17.005-37.974-37.978
		c0-20.971,17.004-37.974,37.974-37.974C215.911,224.487,232.914,241.491,232.914,262.462z"/>
	<circle fill="#023558" cx="219.438" cy="192.224" r="37.975"/>
	<path fill="#023558" d="M354.607,541.785c0,20.976,17.001,37.979,37.978,37.979c20.976,0,37.978-17.004,37.978-37.979
		c0-20.972-17.001-37.975-37.978-37.975C371.609,503.811,354.607,520.813,354.607,541.785z"/>
	<path fill="#023558" d="M330.108,473.182c0,20.972,16.999,37.972,37.974,37.972c20.975,0,37.977-17.001,37.977-37.972
		c0-20.979-17.002-37.978-37.977-37.978C347.107,435.204,330.108,452.204,330.108,473.182z"/>
	<path fill="#023558" d="M307.241,402.942c0,20.973,16.999,37.976,37.977,37.976c20.969,0,37.972-17.004,37.972-37.976
		c0-20.973-17.004-37.975-37.972-37.975C324.239,364.968,307.241,381.969,307.241,402.942z"/>
	<path fill="#023558" d="M287.636,334.335c0,20.972,17,37.973,37.972,37.973c20.975,0,37.978-17.002,37.978-37.973
		c0-20.975-17.004-37.973-37.978-37.973C304.637,296.362,287.636,313.36,287.636,334.335z"/>
	<circle fill="#023558" cx="304.378" cy="264.097" r="37.976"/>
	<circle fill="#023558" cx="279.876" cy="193.855" r="37.975"/>
</g>
<g>
	<path fill="#023558" d="M845.004,147.874c0,21.292-18.081,38.557-40.386,38.557c-22.308,0-40.387-17.266-40.387-38.557
		c0-21.283,18.079-38.553,40.387-38.553C826.923,109.321,845.004,126.591,845.004,147.874z"/>
	<path fill="#023558" d="M691.14,538.986c0,21.292-18.079,38.555-40.384,38.555c-22.309,0-40.39-17.263-40.39-38.555
		c0-21.293,18.081-38.554,40.39-38.554C673.061,500.433,691.14,517.693,691.14,538.986z"/>
	<path fill="#023558" d="M717.197,469.335c0,21.295-18.079,38.557-40.385,38.557c-22.305,0-40.389-17.262-40.389-38.557
		c0-21.286,18.084-38.552,40.389-38.552C699.118,430.783,717.197,448.049,717.197,469.335z"/>
	<path fill="#023558" d="M741.521,398.033c0,21.291-18.082,38.558-40.39,38.558c-22.307,0-40.386-17.267-40.386-38.558
		c0-21.292,18.079-38.553,40.386-38.553C723.438,359.48,741.521,376.741,741.521,398.033z"/>
	<path fill="#023558" d="M762.368,328.381c0,21.293-18.081,38.556-40.388,38.556c-22.311,0-40.393-17.263-40.393-38.556
		c0-21.289,18.082-38.545,40.393-38.545C744.287,289.836,762.368,307.092,762.368,328.381z"/>
	<path fill="#023558" d="M784.953,257.074c0,21.294-18.083,38.555-40.391,38.555c-22.303,0-40.389-17.261-40.389-38.555
		c0-21.284,18.086-38.546,40.389-38.546C766.87,218.528,784.953,235.79,784.953,257.074z"/>
	<ellipse fill="#023558" cx="770.621" cy="185.773" rx="40.387" ry="38.552"/>
	<polygon fill="#023558" points="800.034,127.71 961.068,578.389 653.978,578.389 	"/>
	<path fill="#023558" d="M846.172,151.968c0,20.972-17.002,37.979-37.975,37.979c-20.972,0-37.977-17.007-37.977-37.979
		c0-20.969,17.005-37.977,37.977-37.977C829.17,113.991,846.172,130.999,846.172,151.968z"/>
	<path fill="#023558" d="M701.496,537.229c0,20.975-17.005,37.977-37.979,37.977c-20.97,0-37.974-17.003-37.974-37.977
		s17.004-37.975,37.974-37.975C684.492,499.254,701.496,516.254,701.496,537.229z"/>
	<path fill="#023558" d="M725.996,468.621c0,20.976-17.001,37.979-37.975,37.979c-20.971,0-37.976-17.004-37.976-37.979
		c0-20.973,17.005-37.975,37.976-37.975C708.996,430.646,725.996,447.648,725.996,468.621z"/>
	<path fill="#023558" d="M748.87,398.382c0,20.974-17.006,37.979-37.979,37.979s-37.976-17.006-37.976-37.979
		c0-20.973,17.002-37.975,37.976-37.975S748.87,377.41,748.87,398.382z"/>
	<path fill="#023558" d="M768.47,329.775c0,20.975-17.001,37.978-37.978,37.978c-20.976,0-37.977-17.004-37.977-37.978
		s17.002-37.971,37.977-37.971C751.469,291.805,768.47,308.801,768.47,329.775z"/>
	<path fill="#023558" d="M789.706,259.536c0,20.973-17.004,37.979-37.979,37.979c-20.971,0-37.976-17.006-37.976-37.979
		c0-20.971,17.006-37.974,37.976-37.974C772.703,221.561,789.706,238.565,789.706,259.536z"/>
	<circle fill="#023558" cx="776.231" cy="189.299" r="37.975"/>
	<path fill="#023558" d="M911.399,538.859c0,20.976,17.003,37.979,37.979,37.979s37.979-17.004,37.979-37.979
		c0-20.972-17.003-37.974-37.979-37.974S911.399,517.888,911.399,538.859z"/>
	<path fill="#023558" d="M886.899,470.256c0,20.972,17,37.973,37.976,37.973c20.975,0,37.977-17.002,37.977-37.973
		c0-20.978-17.002-37.978-37.977-37.978C903.899,432.278,886.899,449.279,886.899,470.256z"/>
	<path fill="#023558" d="M864.033,400.017c0,20.973,16.998,37.976,37.977,37.976c20.969,0,37.973-17.004,37.973-37.976
		c0-20.974-17.005-37.974-37.973-37.974C881.031,362.042,864.033,379.043,864.033,400.017z"/>
	<path fill="#023558" d="M844.429,331.41c0,20.972,17,37.974,37.973,37.974c20.975,0,37.978-17.003,37.978-37.974
		c0-20.976-17.005-37.972-37.978-37.972C861.429,293.437,844.429,310.435,844.429,331.41z"/>
	<circle fill="#023558" cx="861.171" cy="261.172" r="37.976"/>
	<circle fill="#023558" cx="836.669" cy="190.929" r="37.975"/>
</g>
</svg>
