<?xml version="1.0" encoding="utf-8"?>
<!-- Generator: Adobe Illustrator 15.1.0, SVG Export Plug-In . SVG Version: 6.00 Build 0)  -->
<!DOCTYPE svg PUBLIC "-//W3C//DTD SVG 1.1//EN" "http://www.w3.org/Graphics/SVG/1.1/DTD/svg11.dtd">
<svg version="1.1" id="Layer_1" xmlns="http://www.w3.org/2000/svg" xmlns:xlink="http://www.w3.org/1999/xlink" x="0px" y="0px"
	 width="1024px" height="768px" viewBox="0 0 1024 768" enable-background="new 0 0 1024 768" xml:space="preserve">
<rect x="-4" y="2" fill="#D7E7FB" width="1029" height="768"/>
<g>
	<path fill="#3F8930" d="M227.762,645.126c0,12.563-10.669,22.75-23.83,22.75s-23.829-10.187-23.829-22.75
		c0-12.559,10.668-22.749,23.829-22.749S227.762,632.567,227.762,645.126z"/>
	<ellipse fill="#3F8930" cx="113.145" cy="875.901" rx="23.83" ry="22.749"/>
	<path fill="#3F8930" d="M152.35,834.804c0,12.565-10.667,22.751-23.828,22.751c-13.162,0-23.832-10.186-23.832-22.751
		c0-12.561,10.67-22.747,23.832-22.747C141.683,812.057,152.35,822.243,152.35,834.804z"/>
	<path fill="#3F8930" d="M166.701,792.73c0,12.564-10.668,22.752-23.832,22.752c-13.161,0-23.828-10.188-23.828-22.752
		c0-12.562,10.667-22.747,23.828-22.747C156.033,769.983,166.701,780.169,166.701,792.73z"/>
	<ellipse fill="#3F8930" cx="155.171" cy="751.634" rx="23.832" ry="22.75"/>
	<path fill="#3F8930" d="M192.329,709.56c0,12.564-10.67,22.749-23.832,22.749c-13.16,0-23.832-10.185-23.832-22.749
		c0-12.56,10.672-22.744,23.832-22.744C181.659,686.815,192.329,697,192.329,709.56z"/>
	<ellipse fill="#3F8930" cx="183.873" cy="667.488" rx="23.83" ry="22.747"/>
	<polygon fill="#3F8930" points="201.228,632.077 296.246,898 115.047,898 	"/>
	<path fill="#3F8930" d="M228.451,647.541c0,12.374-10.032,22.41-22.407,22.41s-22.407-10.036-22.407-22.41
		c0-12.372,10.032-22.408,22.407-22.408S228.451,635.169,228.451,647.541z"/>
	<circle fill="#3F8930" cx="120.678" cy="874.864" r="22.408"/>
	<path fill="#3F8930" d="M157.542,834.382c0,12.376-10.03,22.41-22.407,22.41c-12.373,0-22.408-10.034-22.408-22.41
		c0-12.374,10.035-22.407,22.408-22.407C147.512,811.975,157.542,822.008,157.542,834.382z"/>
	<circle fill="#3F8930" cx="148.629" cy="792.938" r="22.408"/>
	<circle fill="#3F8930" cx="160.194" cy="752.456" r="22.409"/>
	<circle fill="#3F8930" cx="172.725" cy="711.012" r="22.408"/>
	<circle fill="#3F8930" cx="187.183" cy="669.569" r="22.407"/>
	<circle fill="#3F8930" cx="289.347" cy="875.827" r="22.409"/>
	<path fill="#3F8930" d="M252.482,835.348c0,12.374,10.03,22.406,22.407,22.406c12.376,0,22.409-10.032,22.409-22.406
		c0-12.378-10.033-22.409-22.409-22.409C262.513,812.938,252.482,822.97,252.482,835.348z"/>
	<path fill="#3F8930" d="M238.99,793.902c0,12.375,10.029,22.408,22.408,22.408c12.373,0,22.406-10.033,22.406-22.408
		c0-12.376-10.033-22.406-22.406-22.406C249.02,771.496,238.99,781.526,238.99,793.902z"/>
	<circle fill="#3F8930" cx="249.831" cy="753.421" r="22.407"/>
	<circle fill="#3F8930" cx="237.301" cy="711.978" r="22.408"/>
	<circle fill="#3F8930" cx="222.844" cy="670.53" r="22.408"/>
</g>
<g>
	<path fill="#3F8930" d="M342.264,504.201c0,12.563-10.67,22.75-23.83,22.75c-13.162,0-23.83-10.187-23.83-22.75
		c0-12.559,10.668-22.749,23.83-22.749C331.594,481.452,342.264,491.643,342.264,504.201z"/>
	<ellipse fill="#3F8930" cx="227.646" cy="734.977" rx="23.831" ry="22.749"/>
	<path fill="#3F8930" d="M266.852,693.879c0,12.565-10.668,22.751-23.83,22.751c-13.16,0-23.832-10.186-23.832-22.751
		c0-12.561,10.672-22.746,23.832-22.746C256.184,671.133,266.852,681.318,266.852,693.879z"/>
	<path fill="#3F8930" d="M281.203,651.806c0,12.564-10.669,22.753-23.832,22.753c-13.162,0-23.829-10.188-23.829-22.753
		c0-12.562,10.667-22.747,23.829-22.747C270.534,629.059,281.203,639.244,281.203,651.806z"/>
	<ellipse fill="#3F8930" cx="269.672" cy="610.709" rx="23.832" ry="22.75"/>
	<path fill="#3F8930" d="M306.83,568.635c0,12.564-10.67,22.749-23.832,22.749c-13.16,0-23.832-10.185-23.832-22.749
		c0-12.56,10.672-22.744,23.832-22.744C296.16,545.891,306.83,556.075,306.83,568.635z"/>
	<ellipse fill="#3F8930" cx="298.375" cy="526.562" rx="23.831" ry="22.748"/>
	<polygon fill="#3F8930" points="315.729,491.077 410.747,757 229.548,757 	"/>
	<path fill="#3F8930" d="M342.953,506.617c0,12.373-10.033,22.409-22.408,22.409s-22.406-10.036-22.406-22.409
		s10.031-22.408,22.406-22.408S342.953,494.244,342.953,506.617z"/>
	<circle fill="#3F8930" cx="235.179" cy="733.939" r="22.407"/>
	<path fill="#3F8930" d="M272.043,693.457c0,12.376-10.031,22.41-22.406,22.41s-22.408-10.034-22.408-22.41
		c0-12.374,10.033-22.407,22.408-22.407S272.043,681.083,272.043,693.457z"/>
	<circle fill="#3F8930" cx="263.13" cy="652.013" r="22.409"/>
	<circle fill="#3F8930" cx="274.696" cy="611.531" r="22.409"/>
	<circle fill="#3F8930" cx="287.227" cy="570.087" r="22.408"/>
	<circle fill="#3F8930" cx="301.684" cy="528.645" r="22.407"/>
	<circle fill="#3F8930" cx="403.849" cy="734.902" r="22.409"/>
	<path fill="#3F8930" d="M366.983,694.423c0,12.374,10.03,22.406,22.407,22.406s22.409-10.032,22.409-22.406
		c0-12.378-10.032-22.409-22.409-22.409S366.983,682.045,366.983,694.423z"/>
	<path fill="#3F8930" d="M353.491,652.979c0,12.375,10.03,22.407,22.409,22.407c12.372,0,22.405-10.032,22.405-22.407
		c0-12.377-10.033-22.407-22.405-22.407C363.521,630.571,353.491,640.602,353.491,652.979z"/>
	<circle fill="#3F8930" cx="364.331" cy="612.496" r="22.407"/>
	<path fill="#3F8930" d="M329.395,571.054c0,12.373,10.031,22.405,22.408,22.405c12.373,0,22.407-10.032,22.407-22.405
		c0-12.377-10.034-22.409-22.407-22.409C339.426,548.645,329.395,558.677,329.395,571.054z"/>
	<circle fill="#3F8930" cx="337.345" cy="529.605" r="22.408"/>
</g>
<g>
	<path fill="#3F8930" d="M850.713,531.426c0,12.562-10.669,22.75-23.83,22.75s-23.829-10.188-23.829-22.75
		c0-12.56,10.668-22.75,23.829-22.75S850.713,518.866,850.713,531.426z"/>
	<ellipse fill="#3F8930" cx="736.096" cy="762.2" rx="23.831" ry="22.749"/>
	<path fill="#3F8930" d="M775.301,721.104c0,12.564-10.667,22.75-23.829,22.75c-13.16,0-23.832-10.186-23.832-22.75
		c0-12.561,10.672-22.747,23.832-22.747C764.634,698.356,775.301,708.543,775.301,721.104z"/>
	<path fill="#3F8930" d="M789.652,679.03c0,12.564-10.669,22.752-23.832,22.752c-13.161,0-23.828-10.188-23.828-22.752
		c0-12.562,10.667-22.748,23.828-22.748C778.983,656.282,789.652,666.468,789.652,679.03z"/>
	<ellipse fill="#3F8930" cx="778.122" cy="637.934" rx="23.832" ry="22.75"/>
	<path fill="#3F8930" d="M815.28,595.858c0,12.564-10.67,22.749-23.832,22.749c-13.16,0-23.832-10.185-23.832-22.749
		c0-12.56,10.672-22.744,23.832-22.744C804.61,573.114,815.28,583.299,815.28,595.858z"/>
	<ellipse fill="#3F8930" cx="806.824" cy="553.787" rx="23.83" ry="22.748"/>
	<polygon fill="#3F8930" points="824.179,519.076 919.197,785 737.998,785 	"/>
	<path fill="#3F8930" d="M851.402,533.841c0,12.374-10.032,22.409-22.407,22.409s-22.407-10.035-22.407-22.409
		c0-12.373,10.032-22.408,22.407-22.408S851.402,521.468,851.402,533.841z"/>
	<circle fill="#3F8930" cx="743.628" cy="761.164" r="22.408"/>
	<path fill="#3F8930" d="M780.493,720.681c0,12.377-10.031,22.411-22.406,22.411s-22.408-10.034-22.408-22.411
		c0-12.373,10.033-22.407,22.408-22.407S780.493,708.308,780.493,720.681z"/>
	<circle fill="#3F8930" cx="771.58" cy="679.237" r="22.408"/>
	<circle fill="#3F8930" cx="783.146" cy="638.755" r="22.409"/>
	<path fill="#3F8930" d="M818.084,597.311c0,12.375-10.032,22.41-22.409,22.41c-12.375,0-22.407-10.035-22.407-22.41
		c0-12.373,10.032-22.406,22.407-22.406C808.052,574.904,818.084,584.938,818.084,597.311z"/>
	<circle fill="#3F8930" cx="810.133" cy="555.869" r="22.408"/>
	<circle fill="#3F8930" cx="912.299" cy="762.126" r="22.409"/>
	<circle fill="#3F8930" cx="897.841" cy="721.646" r="22.408"/>
	<path fill="#3F8930" d="M861.94,680.202c0,12.375,10.03,22.407,22.409,22.407c12.373,0,22.406-10.032,22.406-22.407
		c0-12.377-10.033-22.406-22.406-22.406C871.971,657.796,861.94,667.825,861.94,680.202z"/>
	<circle fill="#3F8930" cx="872.781" cy="639.721" r="22.407"/>
	<circle fill="#3F8930" cx="860.252" cy="598.277" r="22.408"/>
	<circle fill="#3F8930" cx="845.795" cy="556.83" r="22.408"/>
</g>
<g>
	<path fill="#306D23" d="M29.226,316.475c0,22.977-19.513,41.608-43.583,41.608c-24.071,0-43.582-18.631-43.582-41.608
		c0-22.969,19.511-41.606,43.582-41.606C9.713,274.869,29.226,293.506,29.226,316.475z"/>
	<ellipse fill="#306D23" cx="-168.388" cy="738.54" rx="43.583" ry="41.605"/>
	<path fill="#306D23" d="M-96.686,663.377c0,22.979-19.51,41.608-43.58,41.608s-43.588-18.629-43.588-41.608
		c0-22.972,19.518-41.602,43.588-41.602S-96.686,640.405-96.686,663.377z"/>
	<path fill="#306D23" d="M-70.438,586.43c0,22.979-19.512,41.61-43.587,41.61c-24.07,0-43.581-18.632-43.581-41.61
		c0-22.975,19.511-41.604,43.581-41.604C-89.949,544.826-70.438,563.455-70.438,586.43z"/>
	<path fill="#306D23" d="M-47.94,511.269c0,22.977-19.511,41.606-43.584,41.606c-24.075,0-43.588-18.63-43.588-41.606
		s19.513-41.599,43.588-41.599C-67.451,469.67-47.94,488.292-47.94,511.269z"/>
	<path fill="#306D23" d="M-23.568,434.317c0,22.979-19.514,41.605-43.586,41.605c-24.069,0-43.586-18.626-43.586-41.605
		c0-22.97,19.517-41.597,43.586-41.597C-43.082,392.721-23.568,411.348-23.568,434.317z"/>
	<ellipse fill="#306D23" cx="-39.034" cy="357.373" rx="43.583" ry="41.602"/>
	<polygon fill="#306D23" points="-7.295,293.654 166.486,780 -164.91,780 	"/>
	<circle fill="#306D23" cx="-154.61" cy="736.644" r="40.981"/>
	<path fill="#306D23" d="M-87.19,662.604c0,22.636-18.345,40.986-40.979,40.986c-22.632,0-40.983-18.351-40.983-40.986
		c0-22.63,18.352-40.98,40.983-40.98C-105.535,621.624-87.19,639.975-87.19,662.604z"/>
	<circle fill="#306D23" cx="-103.49" cy="586.809" r="40.982"/>
	<path fill="#306D23" d="M-41.355,512.771c0,22.634-18.347,40.984-40.982,40.984s-40.984-18.351-40.984-40.984
		c0-22.635,18.349-40.976,40.984-40.976S-41.355,490.137-41.355,512.771z"/>
	<path fill="#306D23" d="M-18.439,436.973c0,22.633-18.348,40.986-40.982,40.986c-22.634,0-40.982-18.354-40.982-40.986
		c0-22.629,18.349-40.979,40.982-40.979C-36.787,395.994-18.439,414.344-18.439,436.973z"/>
	<circle fill="#306D23" cx="-32.98" cy="361.179" r="40.98"/>
	<path fill="#306D23" d="M112.887,738.403c0,22.636,18.348,40.984,40.982,40.984c22.636,0,40.984-18.349,40.984-40.984
		c0-22.631-18.349-40.979-40.984-40.979C131.234,697.425,112.887,715.772,112.887,738.403z"/>
	<path fill="#306D23" d="M86.446,664.371c0,22.631,18.346,40.979,40.98,40.979c22.636,0,40.983-18.349,40.983-40.979
		c0-22.638-18.348-40.984-40.983-40.984C104.792,623.387,86.446,641.733,86.446,664.371z"/>
	<path fill="#306D23" d="M61.77,588.572c0,22.634,18.344,40.981,40.984,40.981c22.629,0,40.978-18.348,40.978-40.981
		c0-22.635-18.349-40.979-40.978-40.979C80.113,547.594,61.77,565.938,61.77,588.572z"/>
	<circle fill="#306D23" cx="81.597" cy="514.535" r="40.98"/>
	<path fill="#306D23" d="M17.7,438.74c0,22.631,18.347,40.979,40.981,40.979c22.631,0,40.98-18.348,40.98-40.979
		c0-22.635-18.35-40.982-40.98-40.982C36.047,397.758,17.7,416.105,17.7,438.74z"/>
	<path fill="#306D23" d="M-8.74,362.937c0,22.634,18.348,40.983,40.979,40.983c22.635,0,40.983-18.349,40.983-40.983
		c0-22.631-18.349-40.979-40.983-40.979C9.607,321.958-8.74,340.306-8.74,362.937z"/>
</g>
<g>
	<path fill="#306D23" d="M945.196,507.404c0,12.562-10.669,22.75-23.829,22.75c-13.162,0-23.83-10.188-23.83-22.75
		c0-12.559,10.668-22.75,23.83-22.75C934.527,484.654,945.196,494.846,945.196,507.404z"/>
	<ellipse fill="#306D23" cx="830.58" cy="738.18" rx="23.831" ry="22.748"/>
	<path fill="#306D23" d="M869.784,697.082c0,12.564-10.667,22.75-23.828,22.75s-23.832-10.186-23.832-22.75
		c0-12.561,10.671-22.747,23.832-22.747S869.784,684.521,869.784,697.082z"/>
	<path fill="#306D23" d="M884.137,655.009c0,12.564-10.669,22.752-23.832,22.752c-13.162,0-23.829-10.188-23.829-22.752
		c0-12.562,10.667-22.747,23.829-22.747C873.468,632.262,884.137,642.447,884.137,655.009z"/>
	<ellipse fill="#306D23" cx="872.605" cy="613.912" rx="23.832" ry="22.75"/>
	<path fill="#306D23" d="M909.764,571.838c0,12.563-10.67,22.749-23.832,22.749c-13.16,0-23.832-10.186-23.832-22.749
		c0-12.561,10.672-22.744,23.832-22.744C899.094,549.094,909.764,559.277,909.764,571.838z"/>
	<ellipse fill="#306D23" cx="901.308" cy="529.766" rx="23.831" ry="22.748"/>
	<polygon fill="#306D23" points="918.662,495.077 1013.681,761 832.481,761 	"/>
	<path fill="#306D23" d="M945.887,509.819c0,12.374-10.033,22.409-22.408,22.409s-22.407-10.035-22.407-22.409
		c0-12.372,10.032-22.408,22.407-22.408S945.887,497.447,945.887,509.819z"/>
	<circle fill="#306D23" cx="838.113" cy="737.143" r="22.408"/>
	<path fill="#306D23" d="M874.977,696.66c0,12.376-10.03,22.41-22.406,22.41c-12.375,0-22.408-10.034-22.408-22.41
		c0-12.374,10.033-22.408,22.408-22.408C864.946,674.252,874.977,684.286,874.977,696.66z"/>
	<circle fill="#306D23" cx="866.063" cy="655.216" r="22.408"/>
	<circle fill="#306D23" cx="877.629" cy="614.734" r="22.409"/>
	<circle fill="#306D23" cx="890.16" cy="573.29" r="22.408"/>
	<circle fill="#306D23" cx="904.617" cy="531.848" r="22.407"/>
	<circle fill="#306D23" cx="1006.782" cy="738.104" r="22.409"/>
	<circle fill="#306D23" cx="992.325" cy="697.625" r="22.408"/>
	<path fill="#306D23" d="M956.425,656.181c0,12.375,10.029,22.407,22.408,22.407c12.373,0,22.406-10.032,22.406-22.407
		c0-12.376-10.033-22.406-22.406-22.406C966.454,633.774,956.425,643.805,956.425,656.181z"/>
	<circle fill="#306D23" cx="967.265" cy="615.699" r="22.407"/>
	<circle fill="#306D23" cx="954.736" cy="574.256" r="22.408"/>
	<circle fill="#306D23" cx="940.279" cy="532.809" r="22.408"/>
</g>
<g>
	<path fill="#306D23" d="M710.293,422.855c0,15.723-13.351,28.471-29.819,28.471c-16.471,0-29.82-12.748-29.82-28.471
		c0-15.716,13.35-28.467,29.82-28.467C696.942,394.389,710.293,407.14,710.293,422.855z"/>
	<ellipse fill="#306D23" cx="566.864" cy="711.643" rx="29.821" ry="28.467"/>
	<path fill="#306D23" d="M615.925,660.214c0,15.724-13.35,28.47-29.819,28.47s-29.823-12.746-29.823-28.47
		c0-15.718,13.354-28.465,29.823-28.465S615.925,644.496,615.925,660.214z"/>
	<path fill="#306D23" d="M633.885,607.564c0,15.724-13.352,28.472-29.823,28.472c-16.471,0-29.819-12.748-29.819-28.472
		c0-15.72,13.349-28.466,29.819-28.466C620.533,579.099,633.885,591.845,633.885,607.564z"/>
	<path fill="#306D23" d="M649.277,556.137c0,15.723-13.351,28.469-29.821,28.469c-16.474,0-29.824-12.746-29.824-28.469
		c0-15.719,13.351-28.461,29.824-28.461C635.927,527.676,649.277,540.418,649.277,556.137z"/>
	<path fill="#306D23" d="M665.953,503.486c0,15.723-13.352,28.467-29.823,28.467c-16.468,0-29.822-12.744-29.822-28.467
		c0-15.717,13.354-28.462,29.822-28.462C652.602,475.024,665.953,487.77,665.953,503.486z"/>
	<path fill="#306D23" d="M685.192,450.838c0,15.723-13.353,28.467-29.821,28.467c-16.472,0-29.82-12.744-29.82-28.467
		c0-15.719,13.349-28.465,29.82-28.465C671.84,422.373,685.192,435.119,685.192,450.838z"/>
	<polygon fill="#306D23" points="677.088,407.23 795.992,740 569.243,740 	"/>
	<path fill="#306D23" d="M711.156,425.879c0,15.484-12.555,28.042-28.04,28.042c-15.486,0-28.04-12.558-28.04-28.042
		c0-15.482,12.554-28.042,28.04-28.042C698.602,397.837,711.156,410.396,711.156,425.879z"/>
	<circle fill="#306D23" cx="576.291" cy="710.345" r="28.041"/>
	<path fill="#306D23" d="M622.421,659.686c0,15.488-12.552,28.044-28.039,28.044c-15.484,0-28.041-12.556-28.041-28.044
		c0-15.483,12.557-28.04,28.041-28.04C609.869,631.646,622.421,644.202,622.421,659.686z"/>
	<circle fill="#306D23" cx="611.268" cy="607.824" r="28.042"/>
	<circle fill="#306D23" cx="625.741" cy="557.166" r="28.042"/>
	<path fill="#306D23" d="M669.463,505.304c0,15.485-12.555,28.042-28.042,28.042c-15.486,0-28.041-12.557-28.041-28.042
		c0-15.483,12.555-28.039,28.041-28.039C656.908,477.265,669.463,489.82,669.463,505.304z"/>
	<circle fill="#306D23" cx="659.513" cy="453.443" r="28.04"/>
	<circle fill="#306D23" cx="787.36" cy="711.55" r="28.042"/>
	<circle fill="#306D23" cx="769.269" cy="660.894" r="28.041"/>
	<path fill="#306D23" d="M724.344,609.031c0,15.485,12.551,28.04,28.042,28.04c15.482,0,28.038-12.555,28.038-28.04
		c0-15.487-12.556-28.039-28.038-28.039C736.895,580.992,724.344,593.544,724.344,609.031z"/>
	<circle fill="#306D23" cx="737.909" cy="558.373" r="28.04"/>
	<path fill="#306D23" d="M694.19,506.513c0,15.483,12.553,28.038,28.04,28.038c15.484,0,28.04-12.555,28.04-28.038
		c0-15.488-12.556-28.042-28.04-28.042C706.743,478.471,694.19,491.024,694.19,506.513z"/>
	<circle fill="#306D23" cx="704.139" cy="454.646" r="28.04"/>
</g>
<path fill="#BA794D" d="M361.211,623.863c0,0.127-0.141,0.137-0.141,0.137H387v-39h-56v9.744
	C348,596.736,361.211,608.875,361.211,623.863z"/>
<path fill="#BA794D" d="M216,588.026c0,3.775,4.416,6.974,9.577,6.974h151.062c5.161,0,9.361-3.198,9.361-6.974v-45.579
	c0-3.775-4.2-6.447-9.361-6.447H225.577c-5.161,0-9.577,2.672-9.577,6.447V588.026z"/>
<path fill="#BA794D" d="M613,735.386c0,5.97-3.918,10.614-9.225,10.614h-89.68C508.79,746,504,741.355,504,735.386V627.291
	c0-5.971,4.79-11.291,10.096-11.291h89.68c5.307,0,9.225,5.32,9.225,11.291V735.386z"/>
<path fill="#A8704A" d="M351,659.16c0,5.173,4.01,9.84,9.316,9.84h195.373c5.307,0,9.311-4.667,9.311-9.84v-12.492
	c0-5.174-4.004-9.668-9.311-9.668H360.316c-5.307,0-9.316,4.494-9.316,9.668V659.16z"/>
<path fill="#A8704A" d="M566.772,668.527c-0.543,0-0.772,0.105-1.772,0.287V669H356v-0.445c-7,0.576-12.633,16.38-12.633,35.805
	c0,19.789,6.004,35.937,13.301,35.937c0.672,0,1.42-0.296,2.064-0.296H565v-0.496c1,0.182,1.229,0.287,1.772,0.287
	c7.075,0,12.812-15.953,12.812-35.632S573.848,668.527,566.772,668.527z"/>
<path fill="#306D23" d="M743.212,474.273c0,7.301-6.2,13.221-13.85,13.221c-7.647,0-13.848-5.92-13.848-13.221
	c0-7.299,6.2-13.221,13.848-13.221C737.012,461.053,743.212,466.975,743.212,474.273z"/>
<ellipse fill="#306D23" cx="676.603" cy="608.385" rx="13.848" ry="13.221"/>
<ellipse fill="#306D23" cx="685.538" cy="584.502" rx="13.849" ry="13.221"/>
<path fill="#306D23" d="M707.727,560.051c0,7.303-6.199,13.223-13.85,13.223c-7.647,0-13.848-5.92-13.848-13.223
	c0-7.3,6.2-13.219,13.848-13.219C701.527,546.832,707.727,552.751,707.727,560.051z"/>
<ellipse fill="#306D23" cx="701.026" cy="536.168" rx="13.85" ry="13.222"/>
<ellipse fill="#306D23" cx="708.77" cy="511.718" rx="13.85" ry="13.221"/>
<ellipse fill="#306D23" cx="717.706" cy="487.268" rx="13.849" ry="13.221"/>
<circle fill="#306D23" cx="395.466" cy="231.22" r="18.616"/>
<circle fill="#306D23" cx="323.402" cy="425.792" r="18.616"/>
<circle fill="#306D23" cx="335.413" cy="392.162" r="18.616"/>
<circle fill="#306D23" cx="346.623" cy="357.731" r="18.616"/>
<circle fill="#306D23" cx="356.231" cy="324.102" r="18.616"/>
<circle fill="#306D23" cx="366.64" cy="289.671" r="18.616"/>
<circle fill="#306D23" cx="378.651" cy="255.241" r="18.616"/>
<path fill="#BA794D" d="M483.829,312c-0.515,11-9.001,19.802-19.396,19.802S445.553,323,445.039,312h-13.74
	c0.482,20,15.168,34.717,33.213,34.717S497.242,332,497.725,312H483.829z"/>
<path fill="#BA794D" d="M711.084,616c-1.32,27-23.101,47.307-49.777,47.307S612.85,643,611.528,616h-35.261
	c1.238,46,38.926,82.937,85.238,82.937S745.507,662,746.744,616H711.084z"/>
<path fill="#BA794D" d="M443,629.44c0,5.666-4.469,11.56-9.775,11.56H382.78c-5.306,0-9.78-5.894-9.78-11.56v-218.89
	c0-5.666,4.475-10.551,9.78-10.551h50.444c5.307,0,9.775,4.885,9.775,10.551V629.44z"/>
<path fill="#8DC73F" d="M1024,763.812c0,5.306-4.173,9.188-9.906,9.188H187.799c-5.734,0-10.799-3.882-10.799-9.188v-14.413
	c0-5.307,5.064-9.399,10.799-9.399h826.295c5.733,0,9.906,4.093,9.906,9.399V763.812z"/>
<path fill="#D58C4F" d="M558.769,668.527c-0.542,0-0.769,0.105-1.769,0.287V669H348v-0.445c-7,0.576-12.637,16.38-12.637,35.805
	c0,19.789,6.002,35.937,13.299,35.937c0.672,0,1.419-0.296,2.064-0.296H557v-0.496c1,0.182,1.227,0.287,1.769,0.287
	c7.076,0,12.812-15.953,12.812-35.632S565.845,668.527,558.769,668.527z"/>
<path fill="#F5F5F5" d="M541.32,634.294"/>
<polygon fill="#388A29" points="396.724,213.795 475.662,446 325.129,446 "/>
<circle fill="#388A29" cx="401.871" cy="232.821" r="18.615"/>
<circle fill="#388A29" cx="329.808" cy="427.394" r="18.616"/>
<circle fill="#388A29" cx="341.818" cy="393.764" r="18.615"/>
<circle fill="#388A29" cx="353.028" cy="359.333" r="18.616"/>
<circle fill="#388A29" cx="362.637" cy="325.703" r="18.615"/>
<circle fill="#388A29" cx="373.046" cy="291.273" r="18.616"/>
<circle fill="#388A29" cx="385.057" cy="256.842" r="18.615"/>
<circle fill="#388A29" cx="470.732" cy="427.394" r="18.615"/>
<circle fill="#388A29" cx="457.921" cy="394.564" r="18.616"/>
<circle fill="#388A29" cx="446.711" cy="360.134" r="18.615"/>
<circle fill="#388A29" cx="437.103" cy="326.504" r="18.616"/>
<circle fill="#388A29" cx="426.693" cy="292.074" r="18.615"/>
<polygon fill="#3F8930" points="727.791,466.463 783.01,621 677.708,621 "/>
<circle fill="#3F8930" cx="730.59" cy="475.677" r="13.022"/>
<circle fill="#3F8930" cx="680.98" cy="607.782" r="13.021"/>
<circle fill="#3F8930" cx="689.382" cy="584.256" r="13.021"/>
<circle fill="#3F8930" cx="697.224" cy="560.172" r="13.022"/>
<circle fill="#3F8930" cx="703.945" cy="536.646" r="13.022"/>
<circle fill="#3F8930" cx="711.228" cy="512.562" r="13.022"/>
<circle fill="#3F8930" cx="719.629" cy="488.479" r="13.021"/>
<circle fill="#3F8930" cx="779.001" cy="608.342" r="13.022"/>
<circle fill="#3F8930" cx="770.599" cy="584.817" r="13.022"/>
<path fill="#3F8930" d="M749.736,560.732c0,7.191,5.828,13.021,13.022,13.021c7.19,0,13.021-5.83,13.021-13.021
	c0-7.192-5.83-13.021-13.021-13.021C755.564,547.711,749.736,553.54,749.736,560.732z"/>
<circle fill="#3F8930" cx="756.036" cy="537.207" r="13.021"/>
<circle fill="#3F8930" cx="748.755" cy="513.123" r="13.021"/>
<circle fill="#3F8930" cx="740.353" cy="489.036" r="13.022"/>
<path fill="#BA794D" d="M378.936,445c-0.514,11-9,19.803-19.395,19.803S340.66,456,340.146,445h-13.739
	c0.482,20,15.167,34.717,33.213,34.717c18.045,0,32.729-14.717,33.212-34.717H378.936z"/>
<circle fill="#8DC73F" cx="493.152" cy="276.86" r="18.616"/>
<circle fill="#8DC73F" cx="476.337" cy="300.881" r="18.616"/>
<circle fill="#8DC73F" cx="505.963" cy="301.682" r="18.616"/>
<path fill="#306D23" d="M245.994,457.584c0,6.818-5.791,12.348-12.934,12.348c-7.145,0-12.934-5.529-12.934-12.348
	c0-6.816,5.789-12.347,12.934-12.347C240.203,445.237,245.994,450.768,245.994,457.584z"/>
<ellipse fill="#306D23" cx="183.786" cy="582.835" rx="12.934" ry="12.347"/>
<path fill="#306D23" d="M205.064,560.529c0,6.82-5.789,12.349-12.934,12.349c-7.143,0-12.934-5.528-12.934-12.349
	c0-6.816,5.791-12.346,12.934-12.346C199.275,548.184,205.064,553.713,205.064,560.529z"/>
<ellipse fill="#306D23" cx="199.92" cy="537.695" rx="12.934" ry="12.348"/>
<ellipse fill="#306D23" cx="206.595" cy="515.391" rx="12.934" ry="12.348"/>
<path fill="#306D23" d="M226.763,492.555c0,6.818-5.79,12.348-12.935,12.348c-7.143,0-12.936-5.529-12.936-12.348
	c0-6.816,5.793-12.344,12.936-12.344C220.973,480.211,226.763,485.738,226.763,492.555z"/>
<ellipse fill="#306D23" cx="222.173" cy="469.721" rx="12.934" ry="12.346"/>
<polygon fill="#3F8930" points="231.592,450.674 283.162,595 184.818,595 "/>
<circle fill="#3F8930" cx="234.206" cy="458.895" r="12.161"/>
<circle fill="#3F8930" cx="187.874" cy="582.271" r="12.161"/>
<circle fill="#3F8930" cx="195.721" cy="560.301" r="12.161"/>
<circle fill="#3F8930" cx="203.045" cy="537.808" r="12.162"/>
<circle fill="#3F8930" cx="209.322" cy="515.836" r="12.162"/>
<circle fill="#3F8930" cx="216.123" cy="493.344" r="12.162"/>
<circle fill="#3F8930" cx="223.969" cy="470.85" r="12.161"/>
<circle fill="#3F8930" cx="279.418" cy="582.795" r="12.162"/>
<circle fill="#3F8930" cx="271.572" cy="560.824" r="12.162"/>
<circle fill="#3F8930" cx="264.249" cy="538.33" r="12.161"/>
<circle fill="#3F8930" cx="257.971" cy="516.359" r="12.161"/>
<circle fill="#3F8930" cx="251.171" cy="493.867" r="12.161"/>
<circle fill="#3F8930" cx="243.324" cy="471.371" r="12.162"/>
<path fill="#BA794D" d="M270.04,594c-0.515,11-9.001,19.803-19.396,19.803S231.764,605,231.249,594H217.51
	c0.482,20,15.168,34.717,33.213,34.717S283.453,614,283.936,594H270.04z"/>
<path fill="#BA794D" d="M713.431,678c0.516-11,9.002-19.803,19.396-19.803c10.395,0,18.881,8.803,19.396,19.803h13.738
	c-0.482-20-15.167-34.717-33.212-34.717c-18.046,0-32.73,14.717-33.213,34.717H713.431z"/>
<circle fill="#8DC73F" cx="769.774" cy="697.549" r="12.502"/>
<circle fill="#8DC73F" cx="773.588" cy="678.231" r="12.501"/>
<circle fill="#8DC73F" cx="755.171" cy="685.775" r="12.502"/>
<path fill="#AECEF4" d="M-61,763.812c0,4.422,4.463,8.188,9.735,8.188h232.327c5.273,0,9.938-3.766,9.938-8.188v-20.019
	c0-4.422-4.664-7.794-9.938-7.794H-51.265c-5.272,0-9.735,3.372-9.735,7.794V763.812z"/>
<circle fill="#388A29" cx="227.442" cy="755.004" r="50.444"/>
<circle fill="#306D23" cx="180.201" cy="774.222" r="50.445"/>
<circle fill="#306D23" cx="244.257" cy="792.638" r="50.445"/>
<path fill="#7C4323" d="M586.277,740c-0.398-1-0.616-2.347-0.616-3.573c0-5.466,4.315-9.94,9.639-9.94
	c5.322,0,9.638,4.496,9.638,9.962c0,1.227-0.218,2.552-0.615,3.552H586.277z"/>
<path fill="#47A036" d="M550.885,650H355.512c-5.306,0-9.512,2.238-9.512,5.355v2.402c0-3.117,4.206-4.758,9.512-4.758h195.373
	c5.307,0,10.115,1.641,10.115,4.758v-2.402C561,652.238,556.191,650,550.885,650z"/>
<path fill="#8DC73F" d="M346,665.285c0,3.117,4.206,5.715,9.512,5.715h195.373c5.307,0,10.115-2.598,10.115-5.715v-7.527
	c0-3.117-4.809-4.758-10.115-4.758H355.512c-5.306,0-9.512,1.641-9.512,4.758V665.285z"/>
<path fill="#AB652D" d="M371,733.563c0,3.438-2.963,6.228-6.5,6.228l0,0c-3.537,0-6.5-2.789-6.5-6.228V668.95
	c0-3.439,2.963-6.228,6.5-6.228l0,0c3.537,0,6.5,2.788,6.5,6.228V733.563z"/>
<path fill="#AB652D" d="M426,734.299c0,3.475-2.963,6.293-6.5,6.293l0,0c-3.537,0-6.5-2.818-6.5-6.293v-65.283
	c0-3.476,2.963-6.293,6.5-6.293l0,0c3.537,0,6.5,2.817,6.5,6.293V734.299z"/>
<path fill="#AB652D" d="M423.616,681.5c0,3.537-2.173,6.5-4.853,6.5h-50.348c-2.681,0-4.854-2.963-4.854-6.5l0,0
	c0-3.537,2.173-6.5,4.854-6.5h50.348C421.443,675,423.616,677.963,423.616,681.5L423.616,681.5z"/>
<path fill="#AB652D" d="M422.815,700.5c0,3.537-2.173,6.5-4.853,6.5h-50.348c-2.681,0-4.853-2.963-4.853-6.5l0,0
	c0-3.537,2.172-6.5,4.853-6.5h50.348C420.643,694,422.815,696.963,422.815,700.5L422.815,700.5z"/>
<path fill="#AB652D" d="M421.215,719.5c0,3.537-2.174,6.5-4.854,6.5h-50.348c-2.68,0-4.853-2.963-4.853-6.5l0,0
	c0-3.537,2.173-6.5,4.853-6.5h50.348C419.041,713,421.215,715.963,421.215,719.5L421.215,719.5z"/>
<ellipse fill="#7C4323" cx="364.364" cy="665.526" rx="6.138" ry="2.87"/>
<ellipse fill="#7C4323" cx="419.613" cy="665.526" rx="6.138" ry="2.87"/>
<circle fill="#FAD836" cx="917.318" cy="256.256" r="58.034"/>
<circle fill="#FAD836" cx="821.617" cy="217.709" r="26.819"/>
<circle fill="#388A29" cx="418.871" cy="258.821" r="18.615"/>
</svg>
