<?xml version="1.0" encoding="utf-8"?>
<!-- Generator: Adobe Illustrator 15.1.0, SVG Export Plug-In . SVG Version: 6.00 Build 0)  -->
<!DOCTYPE svg PUBLIC "-//W3C//DTD SVG 1.1//EN" "http://www.w3.org/Graphics/SVG/1.1/DTD/svg11.dtd">
<svg version="1.1" id="Layer_1" xmlns="http://www.w3.org/2000/svg" xmlns:xlink="http://www.w3.org/1999/xlink" x="0px" y="0px"
	 width="1024px" height="768px" viewBox="0 0 1024 768" enable-background="new 0 0 1024 768" xml:space="preserve">
<rect x="-32" y="-83" fill="#F5F5F5" width="31" height="814"/>
<rect x="-6" y="-70" fill="#AB652D" width="1088" height="842"/>
<rect x="-2" y="-77" fill="#D58C4F" width="1080" height="593"/>
<ellipse fill="#7C4323" cx="1096.782" cy="112.186" rx="145.069" ry="144.166"/>
<ellipse fill="#AECEF4" cx="1096.039" cy="112.186" rx="129.446" ry="126.422"/>
<path opacity="0.04" fill="#D7E7FB" d="M942.594,946.795c-5.724,9.738-14.523,15.188-19.652,12.172L574.949,754.284
	c-5.124-3.013-4.637-13.352,1.092-23.085L964.9,70.068c5.729-9.737,14.525-15.188,19.65-12.174l347.994,204.684
	c5.123,3.012,4.635,13.351-1.09,23.086L942.594,946.795z"/>
<path fill="#7C4323" d="M679.863,543.429c0,4.668-34.227,3.169-40.923,3.169l-225.833-2.112c-6.697,0-21.22-1.672-21.22-6.34
	l21.229-50.731c0-4.668,5.429-8.414,12.125-8.414h243.528c6.696,0,12.126,3.746,12.126,8.414L679.863,543.429z"/>
<path fill="#492F72" d="M660,584.29c0,4.258-4.253,7.71-9.5,7.71l0,0c-5.247,0-9.5-3.452-9.5-7.71v-87.656
	c0-4.259,4.253-7.711,9.5-7.711l0,0c5.247,0,9.5,3.452,9.5,7.711V584.29z"/>
<path fill="#7C4323" d="M660,601.405c0,5.022-4.253,9.094-9.5,9.094l0,0c-5.247,0-9.5-4.071-9.5-9.094V498.018
	c0-5.023,4.253-9.095,9.5-9.095l0,0c5.247,0,9.5,4.071,9.5,9.095V601.405z"/>
<path fill="#7C4323" d="M685,574.29c0,4.258-4.253,7.71-9.5,7.71l0,0c-5.247,0-9.5-3.452-9.5-7.71v-87.656
	c0-4.259,4.253-7.711,9.5-7.711l0,0c5.247,0,9.5,3.452,9.5,7.711V574.29z"/>
<ellipse fill="#8190FF" cx="591.379" cy="492.255" rx="14.999" ry="8.25"/>
<rect x="603" y="491" fill="#8190FF" width="13" height="5"/>
<ellipse fill="#EA534C" cx="578.379" cy="502.255" rx="14.999" ry="8.25"/>
<rect x="590" y="501" fill="#EA534C" width="13" height="5"/>
<ellipse fill="#8DC73F" cx="594.379" cy="515.255" rx="14.999" ry="8.25"/>
<rect x="606" y="514" fill="#8DC73F" width="13" height="5"/>
<ellipse fill="#FFC556" cx="563.379" cy="514.255" rx="14.999" ry="8.25"/>
<rect x="575" y="513" fill="#FFC556" width="13" height="5"/>
<ellipse fill="#023558" cx="613.379" cy="503.255" rx="14.999" ry="8.25"/>
<rect x="625" y="502" fill="#023558" width="13" height="5"/>
<ellipse fill="#3F2663" cx="554.379" cy="499.255" rx="14.999" ry="8.25"/>
<rect x="566" y="498" fill="#3F2663" width="13" height="5"/>
<g>
	<path fill="#FCC447" d="M827.548,616.041c0,6.683-5.47,12.103-12.222,12.103H692.429c-6.749,0-12.222-5.42-12.222-12.103V433.152
		c0-6.685,5.473-12.103,12.222-12.103h122.897c6.752,0,12.222,5.418,12.222,12.103V616.041z"/>
	<path fill="#FFF3DE" d="M814.307,520.856c0,6.94-5.664,12.569-12.652,12.569h-94.195c-6.988,0-12.654-5.629-12.654-12.569v-72.633
		c0-6.945,5.666-12.573,12.654-12.573h94.195c6.988,0,12.652,5.628,12.652,12.573V520.856z"/>
	<path fill="#F4A019" d="M752.18,545.308c0,1.676-1.759,3.035-3.929,3.035h-47.142c-2.169,0-3.928-1.359-3.928-3.035l0,0
		c0-1.676,1.759-3.034,3.928-3.034h47.142C750.421,542.273,752.18,543.632,752.18,545.308L752.18,545.308z"/>
	<path fill="#F4A019" d="M798.741,586.953c0,0,7.878,1.068,7.679,9.344C806.42,596.297,798.942,595.896,798.741,586.953z"/>
	<path fill="#F4A019" d="M810.174,607.714l7.828-7.826c-0.07-0.089-0.145-0.174-0.22-0.253c-2.481-2.562-3.524-2.962-7.047-2.883
		c0,0-2.404,0.44-3.685,1.239c-1.281,0.803-2.801-0.278-2.801-0.278s-2.683-1.601-5.966-0.641c0,0-6.485,1.923-5.446,11.531
		c0,0,1.522,9.127,6.728,11.528c0,0,1.681,0.722,2.804,0.241c1.117-0.48,4.323-2.203,8.207-0.039c0,0,2.921,0.68,4.523-1.762
		c0,0,1.371-1.652,2.435-3.498L810.174,607.714z"/>
</g>
</svg>
