<?xml version="1.0" encoding="utf-8"?>
<!-- Generator: Adobe Illustrator 15.1.0, SVG Export Plug-In . SVG Version: 6.00 Build 0)  -->
<!DOCTYPE svg PUBLIC "-//W3C//DTD SVG 1.1//EN" "http://www.w3.org/Graphics/SVG/1.1/DTD/svg11.dtd">
<svg version="1.1" id="Layer_1" xmlns="http://www.w3.org/2000/svg" xmlns:xlink="http://www.w3.org/1999/xlink" x="0px" y="0px"
	 width="279px" height="480px" viewBox="0 0 279 480" enable-background="new 0 0 279 480" xml:space="preserve">
<g>
	<circle fill="#492F72" cx="184.025" cy="174.195" r="19.655"/>
	<path fill="#5D4191" d="M187.745,157.541c-0.545-0.138-1.119-0.147-1.687-0.23c-9.05-1.324-17.418,4.592-18.883,13.992l3.363,0.493
		C172.001,162.394,179.361,157.167,187.745,157.541z"/>
	<circle fill="#EA534C" cx="59.371" cy="179.975" r="19.655"/>
	<path fill="#FF6260" d="M63.313,163.245c-0.542-0.144-1.104-0.22-1.671-0.311c-9.034-1.435-17.547,4.835-19.047,13.697l3.36,0.533
		C47.321,169.109,54.938,162.77,63.313,163.245z"/>
	<circle fill="#F9AC3D" cx="73.265" cy="202.291" r="19.655"/>
	<path fill="#FFC556" d="M77.197,185.625c-0.544-0.142-1.111-0.186-1.678-0.276c-9.034-1.436-17.551,4.868-19.052,13.729l3.36,0.534
		C61.32,190.751,68.818,185.154,77.197,185.625z"/>
	<path fill="#8190FF" d="M173.569,220.876c-1.57,10.741-11.55,18.175-22.29,16.604c-10.743-1.57-18.174-11.552-16.604-22.293
		c1.569-10.741,11.551-18.176,22.291-16.605C167.709,200.153,175.141,210.135,173.569,220.876z"/>
	<path fill="#AECEF4" d="M157.842,201.378c-0.545-0.139-1.117-0.147-1.685-0.229c-9.05-1.324-17.419,4.59-18.884,13.99l3.363,0.492
		C142.1,206.231,149.46,201.004,157.842,201.378z"/>
	<circle fill="#F9AC3D" cx="126.093" cy="239.079" r="19.654"/>
	<circle fill="#8DC73F" cx="100.88" cy="222.161" r="19.655"/>
	<path fill="#A9E250" d="M104.585,205.596c-0.544-0.135-1.123-0.101-1.691-0.185c-9.049-1.323-17.425,4.638-18.89,14.037
		l3.365,0.491C88.69,211.481,96.203,205.224,104.585,205.596z"/>
	<circle fill="#8DC73F" cx="148.421" cy="24.814" r="19.654"/>
	<path fill="#A9E250" d="M146.017,20.955c-0.467-0.118-0.965-0.087-1.452-0.16c-7.771-1.136-14.965,3.983-16.224,12.056l2.89,0.423
		C132.366,26.009,138.817,20.635,146.017,20.955z"/>
	<circle fill="#492F72" cx="116.1" cy="22.458" r="19.655"/>
	<path fill="#5D4191" d="M119.819,5.803c-0.545-0.136-1.117-0.146-1.687-0.229c-9.049-1.324-17.418,4.592-18.883,13.992l3.365,0.493
		C104.076,10.658,111.437,5.43,119.819,5.803z"/>
	<circle fill="#8DC73F" cx="50.77" cy="57.461" r="19.655"/>
	<path fill="#A9E250" d="M54.476,40.897c-0.544-0.135-1.123-0.101-1.691-0.185c-9.049-1.324-17.424,4.637-18.89,14.037l3.364,0.492
		C38.581,46.782,46.092,40.524,54.476,40.897z"/>
	<circle fill="#8190FF" cx="143.143" cy="45.004" r="19.654"/>
	<path fill="#AECEF4" d="M147.06,28.433c-0.544-0.145-1.118-0.143-1.685-0.233c-9.033-1.436-17.431,4.108-19.059,13.776l3.359,0.533
		C131.299,32.841,138.682,27.956,147.06,28.433z"/>
	<circle fill="#EA534C" cx="177.367" cy="44.331" r="19.655"/>
	<circle fill="#F9AC3D" cx="198.907" cy="67.243" r="19.655"/>
	<circle fill="#8DC73F" cx="215.311" cy="100.936" r="19.655"/>
	<circle fill="#F9AC3D" cx="178.761" cy="194.072" r="19.655"/>
	<circle fill="#05507A" cx="151.213" cy="184.441" r="19.655"/>
	<circle fill="#8DC73F" cx="68.412" cy="176.809" r="19.654"/>
	<circle fill="#492F72" cx="125.771" cy="204.11" r="19.654"/>
	<circle fill="#EA534C" cx="95.777" cy="194.148" r="19.656"/>
	<circle fill="#F9AC3D" cx="122.795" cy="176.513" r="19.655"/>
	<circle fill="#492F72" cx="36.151" cy="161.94" r="19.655"/>
	<path fill="#5D4191" d="M39.872,145.286c-0.546-0.138-1.119-0.146-1.687-0.23c-9.05-1.323-17.417,4.591-18.883,13.992l3.364,0.492
		C24.127,150.14,31.487,144.912,39.872,145.286z"/>
	<circle fill="#8190FF" cx="93.23" cy="165.178" r="19.656"/>
	<circle fill="#8190FF" cx="36.79" cy="126.354" r="19.655"/>
	<path fill="#AECEF4" d="M40.693,109.877c-0.544-0.143-1.125-0.094-1.692-0.185c-9.033-1.434-17.438,4.156-19.064,13.824
		l3.357,0.534C24.918,114.381,32.316,109.402,40.693,109.877z"/>
	<circle fill="#EA534C" cx="208.539" cy="133.079" r="19.655"/>
	<path fill="#FF6260" d="M212.515,116.138c-0.543-0.143-1.089-0.325-1.656-0.415c-9.032-1.435-17.657,5.537-19.028,13.591
		l3.357,0.534C196.428,122.6,204.138,115.664,212.515,116.138z"/>
	<circle fill="#F9AC3D" cx="42.219" cy="89.548" r="19.656"/>
	<path fill="#FFC556" d="M46.152,72.882c-0.545-0.141-1.112-0.186-1.678-0.276c-9.034-1.435-17.552,4.869-19.052,13.73l3.359,0.533
		C30.275,78.008,37.773,72.411,46.152,72.882z"/>
	<circle fill="#8190FF" cx="79.557" cy="32.977" r="19.655"/>
	<path fill="#AECEF4" d="M83.453,16.539c-0.543-0.144-1.128-0.077-1.695-0.167c-9.033-1.435-17.441,4.174-19.068,13.843l3.359,0.533
		C67.671,21.079,75.074,16.062,83.453,16.539z"/>
	<circle fill="#492F72" cx="166.841" cy="72.899" r="19.654"/>
	<path fill="#5D4191" d="M170.561,56.244c-0.547-0.137-1.117-0.146-1.686-0.229c-9.049-1.326-17.418,4.591-18.883,13.99l3.363,0.494
		C154.817,61.097,162.177,55.871,170.561,56.244z"/>
	<circle fill="#8190FF" cx="189.229" cy="100.485" r="19.655"/>
	<path fill="#AECEF4" d="M193.162,83.825c-0.544-0.144-1.111-0.186-1.678-0.276c-9.033-1.436-17.423,4.063-19.052,13.732l3.36,0.533
		C177.414,88.145,184.784,83.348,193.162,83.825z"/>
	<circle fill="#05507A" cx="196.342" cy="155.008" r="19.655"/>
	<path fill="#0A6F9B" d="M200.31,138.128c-0.544-0.143-1.095-0.295-1.661-0.385c-9.033-1.436-17.533,4.759-19.031,13.621
		l3.357,0.532C184.468,143.036,191.931,137.653,200.31,138.128z"/>
	<circle fill="#8DC73F" cx="175.888" cy="161.134" r="19.655"/>
	<path fill="#A9E250" d="M179.595,144.569c-0.545-0.136-1.124-0.103-1.692-0.186c-9.051-1.323-17.424,4.638-18.89,14.037
		l3.365,0.492C163.7,150.455,171.211,144.197,179.595,144.569z"/>
	<circle fill="#F9AC3D" cx="176.056" cy="126.219" r="19.654"/>
	<path fill="#FFC556" d="M179.963,109.703c-0.543-0.141-1.122-0.111-1.688-0.202c-9.033-1.435-17.437,4.136-19.063,13.804
		l3.36,0.534C164.192,114.17,171.585,109.232,179.963,109.703z"/>
	<circle fill="#F9AC3D" cx="60.659" cy="149.305" r="19.655"/>
	<path fill="#FFC556" d="M64.572,132.763c-0.544-0.143-1.121-0.126-1.688-0.216c-9.034-1.435-17.434,4.122-19.061,13.79l3.359,0.534
		C48.805,137.202,56.194,132.29,64.572,132.763z"/>
	<circle fill="#8190FF" cx="153.822" cy="153.613" r="19.654"/>
	<path fill="#AECEF4" d="M153.334,134.451c-0.542-0.143-1.119-0.125-1.687-0.215c-9.033-1.436-17.433,4.125-19.061,13.793
		l3.358,0.534C137.568,138.895,144.957,133.976,153.334,134.451z"/>
	<circle fill="#EA534C" cx="155.857" cy="94.853" r="19.655"/>
	<path fill="#FF6260" d="M159.828,77.95c-0.545-0.143-1.092-0.307-1.661-0.396c-9.031-1.436-17.53,4.749-19.029,13.61l3.358,0.534
		C143.733,84.449,151.451,77.475,159.828,77.95z"/>
	<circle fill="#8DC73F" cx="147.291" cy="122.879" r="19.655"/>
	<path fill="#A9E250" d="M150.998,106.315c-0.546-0.136-1.126-0.103-1.694-0.187c-9.048-1.324-17.423,4.639-18.888,14.038
		l3.362,0.492C135.102,112.199,142.614,105.943,150.998,106.315z"/>
	<circle fill="#8DC73F" cx="91.143" cy="142.856" r="19.655"/>
	<path fill="#A9E250" d="M94.849,126.292c-0.545-0.137-1.124-0.103-1.691-0.186c-9.05-1.324-17.427,4.637-18.891,14.037l3.365,0.493
		C78.955,132.176,86.466,125.919,94.849,126.292z"/>
	<circle fill="#EA534C" cx="63.456" cy="118.702" r="19.655"/>
	<path fill="#FF6260" d="M67.398,101.971c-0.543-0.144-1.105-0.22-1.671-0.31c-9.034-1.436-17.546,4.834-19.046,13.696l3.359,0.533
		C51.405,107.835,59.021,101.497,67.398,101.971z"/>
	<circle fill="#F9AC3D" cx="106.795" cy="46.832" r="19.655"/>
	<path fill="#FFC556" d="M110.727,30.182c-0.545-0.142-1.113-0.178-1.68-0.268c-9.034-1.436-17.554,4.876-19.052,13.737l3.358,0.533
		C94.848,35.322,102.347,29.71,110.727,30.182z"/>
	<circle fill="#8DC73F" cx="131.415" cy="71.235" r="19.655"/>
	<path fill="#A9E250" d="M135.121,54.671c-0.545-0.136-1.124-0.101-1.691-0.185c-9.05-1.324-17.428,4.636-18.891,14.036l3.365,0.492
		C119.227,60.556,126.738,54.298,135.121,54.671z"/>
	<circle fill="#05507A" cx="72.699" cy="60.239" r="19.655"/>
	<path fill="#0A6F9B" d="M76.678,43.287c-0.544-0.143-1.089-0.333-1.654-0.423c-9.034-1.435-17.528,4.725-19.027,13.585l3.357,0.534
		C60.847,48.121,68.299,42.811,76.678,43.287z"/>
	<circle fill="#8DC73F" cx="72.449" cy="90.763" r="19.655"/>
	<path fill="#A9E250" d="M76.155,74.199c-0.545-0.136-1.124-0.101-1.692-0.185c-9.049-1.324-17.426,4.637-18.889,14.036l3.364,0.493
		C60.26,80.084,67.772,73.827,76.155,74.199z"/>
	<circle fill="#8190FF" cx="93.914" cy="107.546" r="19.654"/>
	<path fill="#AECEF4" d="M97.634,90.892c-0.544-0.137-1.118-0.147-1.687-0.229c-9.049-1.324-17.416,4.591-18.883,13.991l3.365,0.492
		C81.891,95.745,89.25,90.519,97.634,90.892z"/>
	<circle fill="#EA534C" cx="99.844" cy="76.358" r="19.655"/>
	<path fill="#FF6260" d="M103.607,59.395c-0.545-0.137-1.094-0.3-1.662-0.384c-9.049-1.324-17.533,5.379-18.861,13.837l3.365,0.492
		C87.634,65.821,95.225,59.022,103.607,59.395z"/>
	<circle fill="#F9AC3D" cx="127.311" cy="99.83" r="19.654"/>
	<path fill="#FFC556" d="M131.023,83.224c-0.545-0.136-1.122-0.118-1.689-0.201c-9.049-1.325-17.422,4.616-18.888,14.015
		l3.365,0.493C115.272,88.131,122.64,82.854,131.023,83.224z"/>
	<circle fill="#492F72" cx="120.501" cy="128.144" r="19.655"/>
	<path fill="#5D4191" d="M124.221,111.489c-0.545-0.138-1.117-0.146-1.687-0.229c-9.049-1.324-17.417,4.591-18.883,13.991
		l3.365,0.492C108.477,116.343,115.837,111.116,124.221,111.489z"/>
	<circle fill="#EA534C" cx="126.578" cy="151.844" r="19.655"/>
	<path fill="#FF6260" d="M130.582,134.733c-0.545-0.143-1.077-0.412-1.645-0.501c-9.033-1.435-17.643,5.451-19.013,13.506
		l3.357,0.534C114.52,141.023,122.203,134.258,130.582,134.733z"/>
	<line fill="none" stroke="#FFFFFF" stroke-width="0.8528" x1="71.154" y1="222.018" x2="127.524" y2="304.805"/>
	<line fill="none" stroke="#FFFFFF" stroke-width="0.8528" x1="100.836" y1="242.715" x2="126.707" y2="302.898"/>
	<line fill="none" stroke="#FFFFFF" stroke-width="0.8528" x1="126.707" y1="258.781" x2="127.525" y2="304.533"/>
	<line fill="none" stroke="#FFFFFF" stroke-width="0.8528" x1="160.205" y1="235.906" x2="128.342" y2="304.533"/>
	<line fill="none" stroke="#FFFFFF" stroke-width="0.8528" x1="185.258" y1="213.303" x2="127.525" y2="303.715"/>
	<line fill="none" stroke="#FFFFFF" stroke-width="0.8528" x1="94.846" y1="240.809" x2="126.707" y2="304.533"/>
	<line fill="none" stroke="#FFFFFF" stroke-width="0.8528" x1="139.778" y1="253.062" x2="128.341" y2="303.715"/>
	<line fill="none" stroke="#FFFFFF" stroke-width="0.8528" x1="147.131" y1="236.179" x2="127.252" y2="304.533"/>
	<line fill="none" stroke="#FFFFFF" stroke-width="0.8528" x1="116.903" y1="256.33" x2="127.252" y2="304.533"/>
</g>
</svg>
