<?xml version="1.0" encoding="utf-8"?>
<!-- Generator: Adobe Illustrator 15.1.0, SVG Export Plug-In . SVG Version: 6.00 Build 0)  -->
<!DOCTYPE svg PUBLIC "-//W3C//DTD SVG 1.1//EN" "http://www.w3.org/Graphics/SVG/1.1/DTD/svg11.dtd">
<svg version="1.1" id="Layer_1" xmlns="http://www.w3.org/2000/svg" xmlns:xlink="http://www.w3.org/1999/xlink" x="0px" y="0px"
	 width="279px" height="480px" viewBox="0 0 279 480" enable-background="new 0 0 279 480" xml:space="preserve">
<g>
	<path fill="#47A036" d="M266.02,305.025c8.494,8.072,12.6,19.011,12.24,29.822c-1.344-1.812-2.86-3.534-4.553-5.144
		c-2.859-2.718-6.021-4.921-9.366-6.615c0.618-0.585,1.319-1.104,2.103-1.536c0.507-0.279,1.027-0.51,1.555-0.695
		c-2.338-0.791-5.022-0.66-7.463,0.55c-14.274-5.412-30.964-2.188-42.07,9.501c-6.799,7.154-10.324,16.235-10.629,25.411
		c-11.123-15.001-10.273-36.186,2.939-50.09C225.588,290.645,250.32,290.106,266.02,305.025z"/>
	<path fill="#3F8930" d="M256.384,300.639c-19.759-8.998-42.94-0.562-51.778,18.842c-3.797,8.338-4.326,17.345-2.128,25.621
		c-3.171-9.039-3.012-19.199,1.233-28.523c8.838-19.404,32.02-27.841,51.777-18.842c10.689,4.867,18.184,13.839,21.417,24.123
		c-0.067-0.047-0.136-0.091-0.203-0.137C273.035,312.729,266.004,305.02,256.384,300.639z"/>
	<path fill="#47A036" d="M170.57,299.426c-5.48,5.496-8.13,12.945-7.898,20.308c0.866-1.234,1.847-2.407,2.939-3.502
		c1.846-1.852,3.886-3.352,6.045-4.505c-0.4-0.399-0.852-0.752-1.359-1.046c-0.326-0.192-0.66-0.347-1.001-0.474
		c1.507-0.539,3.239-0.45,4.818,0.373c9.212-3.686,19.985-1.488,27.155,6.471c4.387,4.871,6.662,11.057,6.859,17.305
		c7.179-10.217,6.629-24.641-1.9-34.11C196.67,289.633,180.705,289.266,170.57,299.426z"/>
	<path fill="#3F8930" d="M176.793,296.438c12.752-6.127,27.717-0.383,33.421,12.831c2.452,5.679,2.793,11.812,1.374,17.447
		c2.046-6.155,1.943-13.073-0.798-19.424c-5.703-13.214-20.667-18.958-33.421-12.831c-6.898,3.314-11.736,9.426-13.822,16.428
		c0.043-0.032,0.086-0.062,0.131-0.093C166.044,304.67,170.584,299.421,176.793,296.438z"/>
	<path fill="#AB652D" d="M221.928,341.973c-0.081,0,0.072,0.003,0.072,0.008V343h-31v10.652l-3.049-1.945L176.36,343H82v-1.023
		c0-0.079-0.914-0.123-1.232-0.123c-2.959,0-5.414,3.568-5.414,7.971c0,4.4,2.484,7.97,5.441,7.97c0.32,0,1.205-0.044,1.205-0.124
		V359h140v-1.215c0,0.004-0.14,0.009-0.062,0.009c2.961,0,5.325-3.542,5.325-7.911S224.886,341.973,221.928,341.973z"/>
	<g>
		<path fill="#AB652D" d="M155.399,343l-18.794-20H105v-0.26c0-0.096-0.735-0.149-0.993-0.149c-2.399,0-4.303,4.364-4.303,9.749
			c0,5.383,1.881,9.748,4.28,9.748c0.258,0,1.016-0.054,1.016-0.15V343H155.399z"/>
	</g>
	<path fill="#AB652D" d="M39.998,402.07c0.404,0,1.002,0.045,1.002,0.124V403h179v-0.803c0-0.004,0.068-0.008,0.17-0.008
		c3.771,0,6.763,3.542,6.763,7.911c0,4.368-2.962,7.911-6.731,7.911c-0.1,0-0.201-0.004-0.201-0.01V418H41v-0.111
		c0,0.078-0.598,0.123-1.002,0.123c-3.771,0-6.828-3.568-6.828-7.971S36.227,402.07,39.998,402.07z"/>
	<path fill="#AB652D" d="M39.998,417.656c0.404,0,1.002,0.044,1.002,0.123V417h179v0.783c0-0.005,0.068-0.008,0.17-0.008
		c3.771,0,6.763,3.541,6.763,7.91s-2.962,7.911-6.731,7.911c-0.1,0-0.201-0.003-0.201-0.008V434H41v-0.525
		c0,0.079-0.598,0.122-1.002,0.122c-3.771,0-6.828-3.567-6.828-7.97S36.227,417.656,39.998,417.656z"/>
	<path fill="#AB652D" d="M39.85,387.193c0.404,0,1.15,0.045,1.15,0.123V387h179v0.32c0-0.004-0.078-0.009,0.021-0.009
		c3.77,0,6.688,3.544,6.688,7.911c0,4.37-2.85,7.912-6.621,7.912c-0.101,0-0.089-0.004-0.089-0.01V404H41v-0.988
		c0,0.079-0.746,0.123-1.15,0.123c-3.771,0-6.828-3.569-6.828-7.971C33.021,390.762,36.078,387.193,39.85,387.193z"/>
	<path fill="#935227" d="M196,417.812c0,0.426,0.821,0.188,1.091,0.188h22.759c0.269,0,0.15,0.237,0.15-0.188v-0.192
		c0-0.423,0.118-0.619-0.15-0.619h-22.759c-0.27,0-1.091,0.196-1.091,0.619V417.812z"/>
	<path fill="#935227" d="M180,417.812c0,0.426-1.09,0.188-0.919,0.188h14.382c0.169,0,0.537,0.237,0.537-0.188v-0.192
		c0-0.423-0.368-0.619-0.537-0.619h-14.382c-0.171,0,0.919,0.196,0.919,0.619V417.812z"/>
	<path fill="#935227" d="M168,417.812c0,0.426,1.1,0.188,1.181,0.188h6.735c0.079,0,1.084,0.237,1.084-0.188v-0.192
		c0-0.423-1.005-0.619-1.084-0.619h-6.735c-0.081,0-1.181,0.196-1.181,0.619V417.812z"/>
	<path fill="#935227" d="M142,417.812c0,0.426,0.627,0.188,0.894,0.188h22.761c0.27,0,1.346,0.237,1.346-0.188v-0.192
		c0-0.423-1.076-0.619-1.346-0.619h-22.761c-0.267,0-0.894,0.196-0.894,0.619V417.812z"/>
	<path fill="#935227" d="M132,417.812c0,0.426,0.97,0.188,1.049,0.188h6.736c0.078,0,0.215,0.237,0.215-0.188v-0.192
		c0-0.423-0.137-0.619-0.215-0.619h-6.736c-0.079,0-1.049,0.196-1.049,0.619V417.812z"/>
	<path fill="#935227" d="M107,417.812c0,0.426-0.504,0.188-0.236,0.188h22.76c0.27,0,0.477,0.237,0.477-0.188v-0.192
		c0-0.423-0.207-0.619-0.477-0.619h-22.76c-0.268,0,0.236,0.196,0.236,0.619V417.812z"/>
	<path fill="#935227" d="M89,417.812c0,0.426,0.293,0.188,0.463,0.188h14.382c0.171,0,0.155,0.237,0.155-0.188v-0.192
		c0-0.423,0.016-0.619-0.155-0.619H89.463c-0.17,0-0.463,0.196-0.463,0.619V417.812z"/>
	<path fill="#935227" d="M80,417.812c0,0.426-0.518,0.188-0.438,0.188h6.736c0.079,0,0.702,0.237,0.702-0.188v-0.192
		c0-0.423-0.623-0.619-0.702-0.619h-6.736c-0.079,0,0.438,0.196,0.438,0.619V417.812z"/>
	<path fill="#935227" d="M53,417.812c0,0.426,0.008,0.188,0.277,0.188h22.758c0.271,0-0.035,0.237-0.035-0.188v-0.192
		c0-0.423,0.306-0.619,0.035-0.619H53.277c-0.27,0-0.277,0.196-0.277,0.619V417.812z"/>
	<path fill="#935227" d="M38,417.459c0,0.422,0.88,0.541,1.07,0.541H55.1c0.188,0-0.1-0.119-0.1-0.541v-0.193
		c0-0.424,0.288-0.266,0.1-0.266H39.07c-0.19,0-1.07-0.158-1.07,0.266V417.459z"/>
	<path fill="#935227" d="M58,402.451c0-0.904-0.74-0.451-0.971-0.451H37.633c-0.23,0,0.367-0.453,0.367,0.451v0.41
		c0,0.904-0.598,1.139-0.367,1.139h19.396c0.23,0,0.971-0.234,0.971-1.139V402.451z"/>
	<path fill="#935227" d="M54,402.451c0-0.904-0.412-0.451-0.49-0.451h-6.814c-0.08,0-0.695-0.453-0.695,0.451v0.41
		c0,0.904,0.615,1.139,0.695,1.139h6.814c0.078,0,0.49-0.234,0.49-1.139V402.451z"/>
	<path fill="#935227" d="M80,402.451c0-0.904,0-0.451,0-0.451H57.075c-0.273,0,0.925-0.453,0.925,0.451v0.41
		c0,0.904-1.198,1.139-0.925,1.139H80c0,0,0-0.234,0-1.139V402.451z"/>
	<path fill="#935227" d="M90,402.451c0-0.904,0.136-0.451,0.056-0.451h-6.813c-0.081,0-0.242-0.453-0.242,0.451v0.41
		c0,0.904,0.161,1.139,0.242,1.139h6.813c0.08,0-0.056-0.234-0.056-1.139V402.451z"/>
	<path fill="#935227" d="M117,402.451c0-0.904-0.084-0.451-0.356-0.451H93.621c-0.271,0,0.379-0.453,0.379,0.451v0.41
		c0,0.904-0.649,1.139-0.379,1.139h23.022c0.272,0,0.356-0.234,0.356-1.139V402.451z"/>
	<path fill="#935227" d="M133,402.451c0-0.904,1.315-0.451,1.145-0.451H119c0,0,0-0.453,0,0.451v0.41c0,0.904,0,1.139,0,1.139
		h15.145c0.171,0-1.145-0.234-1.145-1.139V402.451z"/>
	<path fill="#935227" d="M145,402.451c0-0.904-0.759-0.451-0.839-0.451h-6.814c-0.08,0-0.347-0.453-0.347,0.451v0.41
		c0,0.904,0.267,1.139,0.347,1.139h6.814c0.08,0,0.839-0.234,0.839-1.139V402.451z"/>
	<path fill="#935227" d="M171,402.451c0-0.904,0.02-0.451-0.251-0.451h-23.023c-0.271,0-1.726-0.453-1.726,0.451v0.41
		c0,0.904,1.455,1.139,1.726,1.139h23.023c0.271,0,0.251-0.234,0.251-1.139V402.451z"/>
	<path fill="#935227" d="M189,401.916c0-0.424-0.221,0.084-0.393,0.084h-14.549c-0.17,0-1.059-0.508-1.059-0.084v0.192
		c0,0.424,0.889,0.892,1.059,0.892h14.549c0.172,0,0.393-0.468,0.393-0.892V401.916z"/>
	<path fill="#935227" d="M199,401.916c0-0.424-0.297,0.084-0.377,0.084h-6.812c-0.082,0-0.811-0.508-0.811-0.084v0.192
		c0,0.424,0.729,0.892,0.811,0.892h6.812c0.08,0,0.377-0.468,0.377-0.892V401.916z"/>
	<path fill="#935227" d="M222,402.271c0-0.425-1.137-0.271-1.363-0.271h-19.244c-0.228,0,0.607-0.154,0.607,0.271v0.192
		c0,0.424-0.835,0.537-0.607,0.537h19.244c0.227,0,1.363-0.113,1.363-0.537V402.271z"/>
	<path fill="#AB652D" d="M39.85,448.121c0.404,0,1.15,0.043,1.15,0.122V448h179v0.246c0-0.004-0.078-0.009,0.021-0.009
		c3.77,0,6.688,3.542,6.688,7.911s-2.85,7.912-6.621,7.912c-0.101,0-0.089-0.004-0.089-0.009V465H41v-1.062
		c0,0.079-0.746,0.123-1.15,0.123c-3.771,0-6.828-3.569-6.828-7.971C33.021,451.688,36.078,448.121,39.85,448.121z"/>
	<path fill="#AB652D" d="M39.85,463.705c0.404,0,1.15,0.043,1.15,0.123V465h179v-1.168c0-0.006-0.078-0.009,0.021-0.009
		c3.77,0,6.688,3.542,6.688,7.911c0,4.371-2.85,7.911-6.621,7.911c-0.101,0-0.089-0.004-0.089-0.009V480H41v-0.478
		c0,0.079-0.746,0.123-1.15,0.123c-3.771,0-6.828-3.568-6.828-7.97S36.078,463.705,39.85,463.705z"/>
	<path fill="#AB652D" d="M39.699,433.243c0.408,0,1.301,0.043,1.301,0.122V434h179v-0.631c0-0.004-0.229-0.009-0.127-0.009
		c3.77,0,6.613,3.542,6.613,7.911s-2.738,7.912-6.508,7.912c-0.101,0,0.021-0.005,0.021-0.01V449H41v0.06
		c0,0.079-0.893,0.124-1.301,0.124c-3.771,0-6.828-3.569-6.828-7.971C32.871,436.811,35.928,433.243,39.699,433.243z"/>
	<path fill="#935227" d="M196,463.86c0,0.425,0.468,1.14,0.736,1.14h22.76c0.269,0,0.504-0.715,0.504-1.14v-0.191
		c0-0.424-0.235-1.669-0.504-1.669h-22.76c-0.269,0-0.736,1.245-0.736,1.669V463.86z"/>
	<path fill="#935227" d="M180,463.86c0,0.425-1.444,1.14-1.273,1.14h14.381c0.171,0,0.893-0.715,0.893-1.14v-0.191
		c0-0.424-0.722-1.669-0.893-1.669h-14.381c-0.171,0,1.273,1.245,1.273,1.669V463.86z"/>
	<path fill="#935227" d="M168,463.86c0,0.425,0.745,1.14,0.826,1.14h6.734c0.079,0,0.439-0.715,0.439-1.14v-0.191
		c0-0.424-0.36-1.669-0.439-1.669h-6.734c-0.081,0-0.826,1.245-0.826,1.669V463.86z"/>
	<path fill="#935227" d="M142,463.86c0,0.425,0.272,1.14,0.54,1.14h22.76c0.269,0,0.7-0.715,0.7-1.14v-0.191
		c0-0.424-0.432-1.669-0.7-1.669h-22.76c-0.268,0-0.54,1.245-0.54,1.669V463.86z"/>
	<path fill="#935227" d="M132,463.86c0,0.425,0.615,1.14,0.694,1.14h6.735c0.08,0,0.57-0.715,0.57-1.14v-0.191
		c0-0.424-0.49-1.669-0.57-1.669h-6.735c-0.079,0-0.694,1.245-0.694,1.669V463.86z"/>
	<path fill="#935227" d="M107,463.86c0,0.425,0,1.14,0,1.14h22.17c0.268,0,0.83-0.715,0.83-1.14v-0.191
		c0-0.424-0.562-1.669-0.83-1.669H107c0,0,0,1.245,0,1.669V463.86z"/>
	<path fill="#935227" d="M89,463.86c0,0.425-0.061,1.14,0.108,1.14h14.382c0.17,0,0.51-0.715,0.51-1.14v-0.191
		c0-0.424-0.34-1.669-0.51-1.669H89.108c-0.169,0-0.108,1.245-0.108,1.669V463.86z"/>
	<path fill="#935227" d="M78,463.86c0,0.425,1.127,1.14,1.207,1.14h6.735c0.081,0,0.058-0.715,0.058-1.14v-0.191
		c0-0.424,0.023-1.669-0.058-1.669h-6.735c-0.08,0-1.207,1.245-1.207,1.669V463.86z"/>
	<path fill="#935227" d="M53,463.86c0,0.425-0.346,1.14-0.076,1.14h22.758c0.269,0,0.318-0.715,0.318-1.14v-0.191
		c0-0.424-0.05-1.669-0.318-1.669H52.924c-0.27,0,0.076,1.245,0.076,1.669V463.86z"/>
	<path fill="#935227" d="M40,463.86c0,0.425-1.373,1.14-1.242,1.14h10.965c0.129,0,0.277-0.715,0.277-1.14v-0.191
		c0-0.424-0.148-1.669-0.277-1.669H38.758c-0.131,0,1.242,1.245,1.242,1.669V463.86z"/>
	<path fill="#935227" d="M58,447.965c0-0.424-1.038,0.035-1.269,0.035H37.334c-0.229,0-0.334-0.459-0.334-0.035v0.191
		c0,0.425,0.105,0.844,0.334,0.844h19.397c0.23,0,1.269-0.418,1.269-0.844V447.965z"/>
	<path fill="#935227" d="M53,447.965c0-0.424,0.235,0.035,0.155,0.035h-6.813C46.26,448,46,447.541,46,447.965v0.191
		c0,0.425,0.26,0.844,0.342,0.844h6.813c0.08,0-0.155-0.418-0.155-0.844V447.965z"/>
	<path fill="#935227" d="M80,447.965c0-0.424,0.015,0.035-0.26,0.035H56.72c-0.272,0-0.72-0.459-0.72-0.035v0.191
		c0,0.425,0.447,0.844,0.72,0.844H79.74c0.274,0,0.26-0.419,0.26-0.844V447.965z"/>
	<path fill="#935227" d="M90,447.965c0-0.424-0.217,0.035-0.299,0.035h-6.812c-0.082,0-0.889-0.459-0.889-0.035v0.191
		c0,0.425,0.807,0.844,0.889,0.844h6.812c0.082,0,0.299-0.419,0.299-0.844V447.965z"/>
	<path fill="#935227" d="M117,447.965c0-0.424-0.438,0.035-0.712,0.035H93.268c-0.272,0-1.268-0.459-1.268-0.035v0.191
		c0,0.425,0.995,0.844,1.268,0.844h23.021c0.274,0,0.712-0.419,0.712-0.844V447.965z"/>
	<path fill="#935227" d="M133,447.965c0-0.424,0.962,0.035,0.791,0.035h-14.548c-0.172,0-1.243-0.459-1.243-0.035v0.191
		c0,0.425,1.071,0.844,1.243,0.844h14.548c0.171,0-0.791-0.419-0.791-0.844V447.965z"/>
	<path fill="#935227" d="M145,447.965c0-0.424-1.113,0.035-1.193,0.035h-6.816c-0.077,0-0.99-0.459-0.99-0.035v0.191
		c0,0.426,0.913,0.844,0.99,0.844h6.816c0.08,0,1.193-0.419,1.193-0.844V447.965z"/>
	<path fill="#935227" d="M171,447.965c0-0.424-0.335,0.035-0.605,0.035h-23.022c-0.271,0-1.372-0.459-1.372-0.035v0.191
		c0,0.425,1.101,0.844,1.372,0.844h23.022c0.271,0,0.605-0.419,0.605-0.844V447.965z"/>
	<path fill="#935227" d="M189,447.965c0-0.424-0.575,0.035-0.748,0.035h-14.547c-0.171,0-0.705-0.459-0.705-0.035v0.191
		c0,0.425,0.534,0.844,0.705,0.844h14.547c0.173,0,0.748-0.419,0.748-0.844V447.965z"/>
	<path fill="#935227" d="M198,447.965c0-0.424,0.351,0.035,0.27,0.035h-6.814c-0.08,0-0.455-0.459-0.455-0.035v0.191
		c0,0.425,0.375,0.844,0.455,0.844h6.814c0.081,0-0.27-0.419-0.27-0.844V447.965z"/>
	<path fill="#935227" d="M221,448.318c0-0.422-0.49-0.318-0.718-0.318h-19.245c-0.227,0,0.963-0.104,0.963,0.32v0.191
		c0,0.424-1.189,0.488-0.963,0.488h19.245c0.228,0,0.718-0.064,0.718-0.488V448.318z"/>
	<path fill="#935227" d="M101,433.088c0-0.424-0.004-1.088-0.275-1.088H77.702c-0.271,0-0.702,0.664-0.702,1.088v0.191
		c0,0.424,0.431,0.721,0.702,0.721h23.022c0.271,0,0.275-0.295,0.275-0.721V433.088z"/>
	<path fill="#935227" d="M118,433.088c0-0.424,1.114-1.088,0.94-1.088h-14.548c-0.17,0-0.393,0.664-0.393,1.088v0.191
		c0,0.424,0.223,0.721,0.393,0.721h14.548c0.174,0-0.94-0.297-0.94-0.721V433.088z"/>
	<path fill="#935227" d="M130,433.088c0-0.424-0.961-1.088-1.042-1.088h-6.812c-0.083,0-0.146,0.664-0.146,1.088v0.191
		c0,0.424,0.062,0.721,0.146,0.721h6.812c0.081,0,1.042-0.295,1.042-0.721V433.088z"/>
	<path fill="#935227" d="M155,433.088c0-0.424,0.816-1.088,0.545-1.088h-23.022c-0.271,0-0.522,0.664-0.522,1.088v0.191
		c0,0.424,0.252,0.721,0.522,0.721h23.022c0.271,0-0.545-0.297-0.545-0.721V433.088z"/>
	<path fill="#935227" d="M166,433.088c0-0.424-0.415-1.088-0.496-1.088h-6.812c-0.081,0-0.691,0.664-0.691,1.088v0.191
		c0,0.424,0.61,0.721,0.691,0.721h6.812c0.081,0,0.496-0.297,0.496-0.721V433.088z"/>
	<path fill="#935227" d="M193,433.088c0-0.424-0.635-1.088-0.907-1.088H169.07c-0.271,0-1.07,0.664-1.07,1.088v0.191
		c0,0.424,0.799,0.721,1.07,0.721h23.022c0.272,0,0.907-0.297,0.907-0.721V433.088z"/>
	<path fill="#935227" d="M211,433.088c0-0.424-1.234-1.088-1.407-1.088h-14.547c-0.172,0-0.046,0.664-0.046,1.088v0.191
		c0,0.424-0.126,0.721,0.046,0.721h14.547c0.173,0,1.407-0.297,1.407-0.721V433.088z"/>
	<path fill="#935227" d="M220,433.088c0-0.424-0.311-1.088-0.391-1.088h-6.813c-0.08,0,0.204,0.664,0.204,1.088v0.191
		c0,0.426-0.284,0.721-0.204,0.721h6.813c0.08,0,0.391-0.297,0.391-0.721V433.088z"/>
	<path fill="#935227" d="M44,433.441c0-0.424,0.365-1.441,0.297-1.441h-5.736c-0.067,0-0.561,1.018-0.561,1.441v0.192
		c0,0.424,0.493,0.366,0.561,0.366h5.736c0.068,0-0.297,0.058-0.297-0.367V433.441z"/>
	<path fill="#935227" d="M64,433.441c0-0.424,0.18-1.441,0.008-1.441H49.461c-0.173,0-0.461,1.018-0.461,1.441v0.192
		c0,0.424,0.288,0.366,0.461,0.366h14.547c0.172,0-0.008,0.058-0.008-0.366V433.441z"/>
	<path fill="#935227" d="M74,433.441c0-0.424,0.104-1.441,0.024-1.441H67.21c-0.079,0-0.21,1.018-0.21,1.441v0.192
		c0,0.424,0.131,0.366,0.21,0.366h6.814c0.08,0-0.024,0.058-0.024-0.366V433.441z"/>
	<path fill="#D58C4F" d="M168.237,416.547c0,9.537,7.729,17.268,17.269,17.268c9.533,0,17.266-7.73,17.266-17.268
		c0-9.536-7.732-17.268-17.266-17.268C175.967,399.279,168.237,407.011,168.237,416.547z"/>
	<ellipse fill="#AECEF4" cx="185.593" cy="416.547" rx="15.408" ry="15.143"/>
	<path fill="#D7E7FB" d="M174.335,406.143l22.557,20c-2.776,3.178-6.873,5.192-11.45,5.192c-8.361,0-15.139-6.717-15.139-15.001
		C170.303,412.398,171.834,408.819,174.335,406.143z"/>
	<circle fill="#D58C4F" cx="72.153" cy="417.256" r="17.268"/>
	<ellipse fill="#AECEF4" cx="72.242" cy="417.256" rx="15.408" ry="15.142"/>
	<path fill="#D7E7FB" d="M60.984,407.088l22.557,19.812c-2.776,3.147-6.874,5.144-11.45,5.144c-8.361,0-15.139-6.652-15.139-14.859
		C56.952,413.283,58.484,409.738,60.984,407.088z"/>
	<path fill="#935227" d="M133,326.424c0,0.424,0.678,0.576,0.756,0.576h6.738c0.078,0,0.506-0.152,0.506-0.576v-0.193
		c0-0.424-0.428-0.23-0.506-0.23h-6.738c-0.078,0-0.756-0.193-0.756,0.23V326.424z"/>
	<path fill="#935227" d="M108,326.424c0,0.424-0.797,0.576-0.527,0.576h22.76c0.268,0,0.768-0.152,0.768-0.576v-0.193
		c0-0.424-0.5-0.23-0.768-0.23h-22.76c-0.27,0,0.527-0.193,0.527,0.23V326.424z"/>
	<path fill="#935227" d="M135,310.527c0-0.424,0.024-1.527-0.147-1.527h-14.547c-0.172,0,0.694,1.104,0.694,1.527v0.191
		c0,0.424-0.866,1.281-0.694,1.281h14.547c0.172,0,0.147-0.857,0.147-1.281V310.527z"/>
	<path fill="#AB652D" d="M62.012,356.731c0.358,0,0.988,0.042,0.988,0.123V358h159v-1.143c0-0.004-0.331-0.01-0.243-0.01
		c3.338,0,5.79,3.545,5.79,7.912c0,4.369-2.325,7.911-5.663,7.911c-0.088,0,0.116-0.004,0.116-0.009V373H63v-0.451
		c0,0.078-0.63,0.122-0.988,0.122c-3.336,0-6.041-3.569-6.041-7.97C55.971,360.299,58.676,356.731,62.012,356.731z"/>
	<path fill="#AB652D" d="M42.994,372.316c0.399,0,1.006,0.043,1.006,0.123V372h177v0.443c0-0.006-0.178-0.009-0.08-0.009
		c3.719,0,6.548,3.542,6.548,7.911s-2.733,7.91-6.452,7.91c-0.102,0-0.016-0.003-0.016-0.008V389H44v-0.865
		c0,0.078-0.606,0.121-1.006,0.121c-3.719,0-6.732-3.566-6.732-7.969S39.275,372.316,42.994,372.316z"/>
	<path fill="#935227" d="M196,372.471c0,0.426,1.177,0.529,1.446,0.529h22.759c0.268,0,0.795-0.104,0.795-0.529v-0.191
		c0-0.424-0.527-1.279-0.795-1.279h-22.759c-0.27,0-1.446,0.855-1.446,1.279V372.471z"/>
	<path fill="#935227" d="M180,372.471c0,0.426-0.735,0.529-0.566,0.529h14.384c0.169,0,0.183-0.104,0.183-0.529v-0.191
		c0-0.424-0.014-1.279-0.183-1.279h-14.384c-0.169,0,0.566,0.855,0.566,1.279V372.471z"/>
	<path fill="#935227" d="M168,372.471c0,0.426,1.454,0.529,1.534,0.529h6.734c0.081,0,0.731-0.104,0.731-0.529v-0.191
		c0-0.424-0.65-1.279-0.731-1.279h-6.734c-0.08,0-1.534,0.855-1.534,1.279V372.471z"/>
	<path fill="#935227" d="M144,372.471c0,0.426-1.02,0.529-0.751,0.529h22.76c0.269,0,0.991-0.104,0.991-0.529v-0.191
		c0-0.424-0.723-1.279-0.991-1.279h-22.76c-0.269,0,0.751,0.855,0.751,1.279V372.471z"/>
	<path fill="#935227" d="M133,372.471c0,0.426,0.324,0.529,0.402,0.529h6.736c0.079,0,0.861-0.104,0.861-0.529v-0.191
		c0-0.424-0.782-1.279-0.861-1.279h-6.736c-0.078,0-0.402,0.855-0.402,1.279V372.471z"/>
	<path fill="#935227" d="M107,372.471c0,0.426-0.15,0.529,0.119,0.529h22.76c0.268,0,1.121-0.104,1.121-0.529v-0.191
		c0-0.424-0.854-1.279-1.121-1.279h-22.76c-0.27,0-0.119,0.855-0.119,1.279V372.471z"/>
	<path fill="#935227" d="M90,372.471c0,0.426,0,0.529,0,0.529h14.199c0.17,0,0.801-0.104,0.801-0.529v-0.191
		c0-0.424-0.631-1.279-0.801-1.279H90c0,0,0,0.855,0,1.279V372.471z"/>
	<path fill="#935227" d="M80,372.471c0,0.426-0.164,0.529-0.085,0.529h6.737c0.078,0,0.348-0.104,0.348-0.529v-0.191
		c0-0.424-0.27-1.279-0.348-1.279h-6.737c-0.079,0,0.085,0.855,0.085,1.279V372.471z"/>
	<path fill="#935227" d="M53,372.471c0,0.426,0.361,0.529,0.632,0.529H76.39c0.27,0,0.61-0.104,0.61-0.529v-0.191
		c0-0.424-0.341-1.279-0.61-1.279H53.632c-0.271,0-0.632,0.855-0.632,1.279V372.471z"/>
	<path fill="#935227" d="M91,356.575c0-0.423-0.51,0.425-0.591,0.425h-6.812c-0.081,0-0.597-0.848-0.597-0.424v0.192
		c0,0.423,0.516,1.231,0.597,1.231h6.812c0.081,0,0.591-0.809,0.591-1.231V356.575z"/>
	<path fill="#935227" d="M118,356.576c0-0.424-0.73,0.424-1.003,0.424H93.977c-0.273,0,0.023-0.848,0.023-0.424v0.192
		c0,0.423-0.297,1.231-0.023,1.231h23.021c0.272,0,1.003-0.809,1.003-1.231V356.576z"/>
	<path fill="#935227" d="M135,356.576c0-0.424-0.329,0.424-0.502,0.424h-14.547c-0.171,0,1.049-0.848,1.049-0.424v0.192
		c0,0.423-1.22,1.231-1.049,1.231h14.547c0.173,0,0.502-0.809,0.502-1.231V356.576z"/>
	<path fill="#935227" d="M145,356.576c0-0.424-0.406,0.424-0.485,0.424h-6.813c-0.081,0-0.701-0.848-0.701-0.424v0.192
		c0,0.424,0.62,1.231,0.701,1.231h6.813c0.079,0,0.485-0.809,0.485-1.231V356.576z"/>
	<path fill="#935227" d="M172,356.576c0-0.424-0.626,0.424-0.897,0.424h-23.021c-0.272,0-0.081-0.848-0.081-0.424v0.192
		c0,0.423-0.191,1.231,0.081,1.231h23.021c0.271,0,0.897-0.809,0.897-1.231V356.576z"/>
	<path fill="#935227" d="M190,356.576c0-0.424-0.867,0.424-1.039,0.424h-14.548c-0.171,0,0.587-0.848,0.587-0.424v0.192
		c0,0.423-0.758,1.231-0.587,1.231h14.548c0.172,0,1.039-0.809,1.039-1.231V356.576z"/>
	<path fill="#935227" d="M199,356.576c0-0.424,0.057,0.424-0.023,0.424h-6.812c-0.08,0-1.164-0.848-1.164-0.424v0.192
		c0,0.423,1.084,1.231,1.164,1.231h6.812c0.082,0,0.023-0.809,0.023-1.231V356.576z"/>
	<path fill="#935227" d="M222,356.931c0-0.425-0.783,0.069-1.009,0.069h-19.247c-0.227,0,0.256-0.494,0.256-0.069v0.191
		c0,0.425-0.482,0.878-0.256,0.878h19.247c0.226,0,1.009-0.453,1.009-0.878V356.931z"/>
	<path fill="#935227" d="M121,341.699c0-0.424-1.179-0.699-1.35-0.699h-14.549c-0.171,0-0.102,0.275-0.102,0.699v0.191
		c0,0.424-0.069,1.109,0.102,1.109h14.549c0.171,0,1.35-0.686,1.35-1.109V341.699z"/>
	<path fill="#935227" d="M130,341.698c0-0.423-0.254-0.698-0.334-0.698h-6.814c-0.08,0-0.852,0.275-0.852,0.699v0.191
		c0,0.424,0.771,1.109,0.852,1.109h6.814c0.08,0,0.334-0.686,0.334-1.109V341.698z"/>
	<path fill="#935227" d="M157,341.699c0-0.424-0.475-0.699-0.746-0.699h-23.022c-0.272,0-1.231,0.275-1.231,0.699v0.191
		c0,0.424,0.959,1.109,1.231,1.109h23.022c0.271,0,0.746-0.686,0.746-1.109V341.699z"/>
	<path fill="#935227" d="M167,341.698c0-0.423-0.705-0.698-0.787-0.698h-6.813c-0.081,0-0.399,0.275-0.399,0.699v0.191
		c0,0.424,0.318,1.109,0.399,1.109h6.813c0.082,0,0.787-0.686,0.787-1.109V341.698z"/>
	<path fill="#935227" d="M196,388.766c0,0.424,1.177,1.234,1.446,1.234h22.759c0.268,0,0.795-0.811,0.795-1.234v-0.191
		c0-0.424-0.527-1.574-0.795-1.574h-22.759c-0.27,0-1.446,1.15-1.446,1.574V388.766z"/>
	<path fill="#723C1F" d="M180,388.766c0,0.424-0.709,1.234-0.287,1.234h35.656c0.42,0,0.631-0.811,0.631-1.234v-0.191
		c0-0.424-0.211-1.574-0.631-1.574h-35.656c-0.422,0,0.287,1.15,0.287,1.574V388.766z"/>
	<path fill="#935227" d="M168,388.766c0,0.424,1.454,1.234,1.534,1.234h6.734c0.081,0,0.731-0.811,0.731-1.234v-0.191
		c0-0.424-0.65-1.574-0.731-1.574h-6.734c-0.08,0-1.534,1.15-1.534,1.574V388.766z"/>
	<path fill="#935227" d="M144,388.766c0,0.424-1.02,1.234-0.751,1.234h22.76c0.269,0,0.991-0.811,0.991-1.234v-0.191
		c0-0.424-0.723-1.574-0.991-1.574h-22.76c-0.269,0,0.751,1.15,0.751,1.574V388.766z"/>
	<path fill="#935227" d="M133,388.766c0,0.424,0.324,1.234,0.402,1.234h6.736c0.079,0,0.861-0.811,0.861-1.234v-0.191
		c0-0.424-0.782-1.574-0.861-1.574h-6.736c-0.078,0-0.402,1.15-0.402,1.574V388.766z"/>
	<path fill="#935227" d="M107,388.766c0,0.424-0.15,1.234,0.119,1.234h22.76c0.268,0,1.121-0.811,1.121-1.234v-0.191
		c0-0.424-0.854-1.574-1.121-1.574h-22.76c-0.27,0-0.119,1.15-0.119,1.574V388.766z"/>
	<path fill="#935227" d="M90,388.766c0,0.424,0,1.234,0,1.234h14.199c0.17,0,0.801-0.811,0.801-1.234v-0.191
		c0-0.424-0.631-1.574-0.801-1.574H90c0,0,0,1.15,0,1.574V388.766z"/>
	<path fill="#935227" d="M80,388.766c0,0.424-0.164,1.234-0.085,1.234h6.737c0.078,0,0.348-0.811,0.348-1.234v-0.191
		c0-0.424-0.27-1.574-0.348-1.574h-6.737c-0.079,0,0.085,1.15,0.085,1.574V388.766z"/>
	<path fill="#723C1F" d="M53,388.766c0,0.424,0.361,1.234,0.632,1.234H76.39c0.27,0,0.61-0.811,0.61-1.234v-0.191
		c0-0.424-0.341-1.574-0.61-1.574H53.632c-0.271,0-0.632,1.15-0.632,1.574V388.766z"/>
	<path fill="#935227" d="M41,388.766c0,0.424-1.664,1.234-1.534,1.234H50.43c0.13,0,0.57-0.811,0.57-1.234v-0.191
		c0-0.424-0.44-1.574-0.57-1.574H39.466c-0.13,0,1.534,1.15,1.534,1.574V388.766z"/>
	<path fill="#AB652D" d="M242.208,417.11c2.775,2.244,6.222,2.582,7.696,0.757l3.564-4.408c1.476-1.824,0.422-5.125-2.353-7.367
		l-119.755-96.809c-2.774-2.244-6.221-2.583-7.697-0.758l-3.562,4.408c-1.476,1.826-0.422,5.124,2.353,7.368L242.208,417.11z"/>
	<path fill="#AB652D" d="M13.996,416.402c-2.775,2.244-6.223,2.582-7.698,0.756l-3.563-4.406c-1.475-1.827-0.422-5.125,2.354-7.367
		l119.754-96.811c2.773-2.244,6.221-2.584,7.697-0.756l3.562,4.406c1.477,1.826,0.424,5.125-2.352,7.368L13.996,416.402z"/>
	<path fill="#935227" d="M11.948,413.053c-2.774,2.244-6.158,2.661-7.556,0.932l-3.374-4.174c-1.397-1.728-0.281-4.948,2.494-7.192
		l119.754-96.81c2.775-2.242,6.158-2.66,7.555-0.931l3.375,4.173c1.397,1.729,0.281,4.949-2.494,7.193L11.948,413.053z"/>
	<path fill="#D58C4F" d="M87.41,479c-1.782-4-2.76-9.597-2.76-14.985c0-24.001,19.35-43.298,43.219-43.298
		c23.866,0,43.216,19.215,43.216,43.217c0,5.389-0.979,11.066-2.76,15.066H87.41z"/>
	<path fill="#935227" d="M92.663,479c-1.558-4-2.412-8.686-2.412-13.491c0-21.402,16.897-38.671,37.739-38.671
		s37.736,17.23,37.736,38.632c0,4.804-0.854,9.53-2.409,13.53H92.663z"/>
	<path fill="#7C4323" d="M105,457.291c0-2.349-1.437-4.291-3.783-4.291h-1.305c-2.348,0-3.912,1.942-3.912,4.291v7.021
		c0,2.349,1.564,3.688,3.912,3.688h1.305c2.347,0,3.783-1.34,3.783-3.688V457.291z"/>
	<circle fill="#54240C" cx="100.255" cy="460.518" r="1.948"/>
	<rect x="99.378" y="462.42" fill="#54240C" width="0.88" height="1.758"/>
	<path fill="#F5F5F5" d="M219.845,463.86"/>
	<path fill="#935227" d="M125.586,317.373c-2.758-2.266-3.849-5.495-2.438-7.211l3.408-4.148c1.411-1.719,4.792-1.273,7.548,0.991
		l118.985,97.753c2.757,2.266,3.849,5.493,2.438,7.211l-3.406,4.147c-1.411,1.718-4.79,1.274-7.548-0.991L125.586,317.373z"/>
</g>
</svg>
