<?xml version="1.0" encoding="utf-8"?>
<!-- Generator: Adobe Illustrator 15.1.0, SVG Export Plug-In . SVG Version: 6.00 Build 0)  -->
<!DOCTYPE svg PUBLIC "-//W3C//DTD SVG 1.1//EN" "http://www.w3.org/Graphics/SVG/1.1/DTD/svg11.dtd">
<svg version="1.1" id="Layer_1" xmlns="http://www.w3.org/2000/svg" xmlns:xlink="http://www.w3.org/1999/xlink" x="0px" y="0px"
	 width="37.963px" height="64.493px" viewBox="0 0 37.963 64.493" enable-background="new 0 0 37.963 64.493" xml:space="preserve">
<circle fill="#492F72" cx="23.638" cy="28.208" r="2.253"/>
<path fill="#5D4191" d="M24.064,26.298c-0.062-0.016-0.129-0.017-0.193-0.026c-1.037-0.151-1.997,0.526-2.166,1.604l0.387,0.057
	C22.259,26.854,23.104,26.255,24.064,26.298z"/>
<circle fill="#EA534C" cx="9.342" cy="28.871" r="2.254"/>
<path fill="#FF6260" d="M9.795,26.952c-0.062-0.017-0.127-0.025-0.191-0.036c-1.037-0.165-2.013,0.554-2.186,1.571l0.386,0.061
	C7.961,27.625,8.834,26.897,9.795,26.952z"/>
<circle fill="#F9AC3D" cx="10.936" cy="31.43" r="2.254"/>
<path fill="#FFC556" d="M11.387,29.519c-0.062-0.016-0.127-0.021-0.192-0.031c-1.036-0.165-2.013,0.558-2.185,1.574l0.386,0.062
	C9.566,30.106,10.426,29.464,11.387,29.519z"/>
<circle fill="#8190FF" cx="20.209" cy="33.235" r="2.254"/>
<path fill="#AECEF4" d="M20.635,31.325c-0.062-0.016-0.128-0.017-0.192-0.026c-1.038-0.152-1.998,0.526-2.166,1.604l0.386,0.057
	C18.83,31.882,19.674,31.282,20.635,31.325z"/>
<circle fill="#F9AC3D" cx="16.994" cy="35.648" r="2.254"/>
<circle fill="#8DC73F" cx="14.104" cy="33.709" r="2.254"/>
<path fill="#A9E250" d="M14.528,31.809c-0.063-0.016-0.13-0.012-0.194-0.021c-1.038-0.152-1.998,0.531-2.166,1.609l0.386,0.057
	C12.705,32.484,13.566,31.766,14.528,31.809z"/>
<circle fill="#8DC73F" cx="19.555" cy="11.077" r="2.254"/>
<path fill="#A9E250" d="M19.279,10.634c-0.054-0.013-0.111-0.01-0.166-0.018c-0.892-0.13-1.717,0.457-1.861,1.382l0.332,0.049
	C17.714,11.214,18.453,10.597,19.279,10.634z"/>
<circle fill="#492F72" cx="15.848" cy="10.806" r="2.255"/>
<path fill="#5D4191" d="M16.275,8.896c-0.063-0.016-0.129-0.017-0.193-0.026c-1.038-0.152-1.998,0.526-2.166,1.604l0.385,0.057
	C14.469,9.453,15.313,8.854,16.275,8.896z"/>
<circle fill="#8DC73F" cx="8.357" cy="14.821" r="2.254"/>
<path fill="#A9E250" d="M8.781,12.921c-0.062-0.016-0.129-0.012-0.194-0.021c-1.038-0.151-1.998,0.532-2.166,1.61l0.386,0.057
	C6.958,13.596,7.82,12.878,8.781,12.921z"/>
<circle fill="#8190FF" cx="18.95" cy="13.392" r="2.254"/>
<path fill="#AECEF4" d="M19.398,11.492c-0.062-0.017-0.128-0.017-0.192-0.027c-1.036-0.165-1.999,0.471-2.187,1.58l0.386,0.061
	C17.592,11.997,18.438,11.437,19.398,11.492z"/>
<circle fill="#EA534C" cx="22.875" cy="13.315" r="2.254"/>
<circle fill="#F9AC3D" cx="25.345" cy="15.942" r="2.254"/>
<circle fill="#8DC73F" cx="27.226" cy="19.806" r="2.254"/>
<circle fill="#F9AC3D" cx="23.034" cy="30.487" r="2.254"/>
<circle fill="#05507A" cx="19.875" cy="29.383" r="2.254"/>
<circle fill="#8DC73F" cx="10.379" cy="28.508" r="2.254"/>
<circle fill="#492F72" cx="16.957" cy="31.639" r="2.254"/>
<circle fill="#EA534C" cx="13.518" cy="30.496" r="2.254"/>
<circle fill="#F9AC3D" cx="16.616" cy="28.474" r="2.254"/>
<circle fill="#492F72" cx="6.68" cy="26.802" r="2.254"/>
<path fill="#5D4191" d="M7.106,24.893c-0.062-0.016-0.128-0.017-0.193-0.026c-1.038-0.152-1.997,0.526-2.165,1.604l0.385,0.057
	C5.301,25.449,6.145,24.85,7.106,24.893z"/>
<circle fill="#8190FF" cx="13.226" cy="27.174" r="2.253"/>
<circle fill="#8190FF" cx="6.753" cy="22.721" r="2.254"/>
<path fill="#AECEF4" d="M7.201,20.832c-0.062-0.017-0.129-0.011-0.194-0.021c-1.036-0.165-2,0.477-2.187,1.585l0.385,0.061
	C5.392,21.348,6.24,20.777,7.201,20.832z"/>
<circle fill="#EA534C" cx="26.449" cy="23.493" r="2.254"/>
<path fill="#FF6260" d="M26.905,21.55c-0.062-0.017-0.124-0.037-0.189-0.048c-1.036-0.164-2.025,0.635-2.183,1.559l0.385,0.062
	C25.061,22.291,25.944,21.495,26.905,21.55z"/>
<circle fill="#F9AC3D" cx="7.375" cy="18.5" r="2.254"/>
<path fill="#FFC556" d="M7.826,16.589c-0.062-0.016-0.127-0.021-0.193-0.031c-1.035-0.165-2.012,0.558-2.184,1.574l0.385,0.062
	C6.006,17.177,6.865,16.535,7.826,16.589z"/>
<circle fill="#8190FF" cx="11.658" cy="12.013" r="2.254"/>
<path fill="#AECEF4" d="M12.104,10.127c-0.062-0.017-0.13-0.009-0.194-0.019c-1.036-0.165-2,0.479-2.188,1.587l0.386,0.061
	C10.295,10.648,11.144,10.073,12.104,10.127z"/>
<circle fill="#492F72" cx="21.667" cy="16.591" r="2.254"/>
<path fill="#5D4191" d="M22.094,14.681c-0.062-0.016-0.129-0.017-0.193-0.026c-1.037-0.152-1.998,0.526-2.166,1.604l0.387,0.057
	C20.288,15.238,21.133,14.638,22.094,14.681z"/>
<circle fill="#8190FF" cx="24.235" cy="19.755" r="2.254"/>
<path fill="#AECEF4" d="M24.686,17.844c-0.062-0.016-0.127-0.021-0.192-0.031c-1.036-0.165-1.998,0.466-2.185,1.575l0.385,0.061
	C22.88,18.339,23.726,17.789,24.686,17.844z"/>
<circle fill="#05507A" cx="25.051" cy="26.007" r="2.254"/>
<path fill="#0A6F9B" d="M25.506,24.071c-0.062-0.016-0.126-0.033-0.191-0.044c-1.035-0.165-2.01,0.546-2.182,1.562l0.385,0.061
	C23.689,24.634,24.545,24.017,25.506,24.071z"/>
<circle fill="#8DC73F" cx="22.705" cy="26.71" r="2.254"/>
<path fill="#A9E250" d="M23.13,24.811c-0.063-0.016-0.128-0.012-0.194-0.021c-1.037-0.152-1.998,0.532-2.166,1.61l0.386,0.056
	C21.308,25.485,22.168,24.768,23.13,24.811z"/>
<circle fill="#F9AC3D" cx="22.724" cy="22.706" r="2.254"/>
<path fill="#FFC556" d="M23.172,20.812c-0.062-0.016-0.129-0.013-0.193-0.023c-1.036-0.165-2,0.475-2.186,1.583l0.385,0.061
	C21.363,21.324,22.211,20.758,23.172,20.812z"/>
<circle fill="#F9AC3D" cx="9.49" cy="25.354" r="2.254"/>
<path fill="#FFC556" d="M9.939,23.456c-0.062-0.016-0.129-0.014-0.194-0.024c-1.036-0.165-1.999,0.473-2.186,1.582l0.386,0.061
	C8.131,23.965,8.979,23.402,9.939,23.456z"/>
<circle fill="#8190FF" cx="20.174" cy="25.847" r="2.254"/>
<path fill="#AECEF4" d="M20.118,23.65c-0.062-0.016-0.128-0.014-0.193-0.025c-1.036-0.164-1.999,0.473-2.186,1.582l0.385,0.062
	C18.311,24.16,19.158,23.596,20.118,23.65z"/>
<circle fill="#EA534C" cx="20.407" cy="19.109" r="2.254"/>
<path fill="#FF6260" d="M20.863,17.17c-0.062-0.017-0.125-0.035-0.19-0.045c-1.036-0.165-2.011,0.544-2.183,1.561l0.385,0.062
	C19.018,17.916,19.902,17.116,20.863,17.17z"/>
<circle fill="#8DC73F" cx="19.425" cy="22.323" r="2.254"/>
<path fill="#A9E250" d="M19.85,20.423c-0.062-0.016-0.128-0.012-0.193-0.021c-1.038-0.152-1.998,0.532-2.166,1.61l0.387,0.057
	C18.027,21.098,18.889,20.381,19.85,20.423z"/>
<circle fill="#8DC73F" cx="12.986" cy="24.614" r="2.254"/>
<path fill="#A9E250" d="M13.411,22.714c-0.062-0.016-0.129-0.012-0.194-0.021c-1.037-0.152-1.998,0.532-2.166,1.61l0.385,0.057
	C11.588,23.389,12.449,22.671,13.411,22.714z"/>
<circle fill="#EA534C" cx="9.812" cy="21.844" r="2.253"/>
<path fill="#FF6260" d="M10.264,19.925c-0.062-0.017-0.127-0.025-0.192-0.035c-1.036-0.165-2.013,0.554-2.184,1.571l0.385,0.061
	C8.429,20.598,9.303,19.871,10.264,19.925z"/>
<circle fill="#F9AC3D" cx="14.781" cy="13.602" r="2.254"/>
<path fill="#FFC556" d="M15.232,11.692c-0.062-0.016-0.128-0.02-0.193-0.03c-1.035-0.165-2.013,0.559-2.185,1.575l0.385,0.061
	C13.411,12.282,14.271,11.638,15.232,11.692z"/>
<circle fill="#8DC73F" cx="17.605" cy="16.4" r="2.255"/>
<path fill="#A9E250" d="M18.029,14.501c-0.062-0.016-0.129-0.012-0.193-0.021c-1.038-0.152-1.998,0.532-2.168,1.609l0.388,0.057
	C16.207,15.175,17.068,14.458,18.029,14.501z"/>
<circle fill="#05507A" cx="10.871" cy="15.139" r="2.254"/>
<path fill="#0A6F9B" d="M11.327,13.195c-0.062-0.017-0.126-0.038-0.189-0.049c-1.036-0.164-2.011,0.542-2.183,1.558l0.386,0.061
	C9.512,13.749,10.366,13.141,11.327,13.195z"/>
<circle fill="#8DC73F" cx="10.842" cy="18.64" r="2.254"/>
<path fill="#A9E250" d="M11.268,16.74c-0.062-0.016-0.129-0.012-0.194-0.021c-1.038-0.151-1.999,0.532-2.166,1.61l0.386,0.057
	C9.444,17.415,10.306,16.697,11.268,16.74z"/>
<circle fill="#8190FF" cx="13.304" cy="20.564" r="2.254"/>
<path fill="#AECEF4" d="M13.73,18.654c-0.062-0.016-0.129-0.017-0.193-0.026c-1.037-0.151-1.997,0.527-2.165,1.604l0.386,0.057
	C11.926,19.211,12.77,18.612,13.73,18.654z"/>
<circle fill="#EA534C" cx="13.984" cy="16.988" r="2.254"/>
<path fill="#FF6260" d="M14.416,15.042c-0.062-0.016-0.125-0.035-0.191-0.044c-1.037-0.152-2.01,0.617-2.162,1.586l0.385,0.057
	C12.584,15.779,13.455,15,14.416,15.042z"/>
<circle fill="#F9AC3D" cx="17.134" cy="19.68" r="2.254"/>
<path fill="#FFC556" d="M17.561,17.775c-0.063-0.016-0.129-0.014-0.194-0.023c-1.038-0.152-1.999,0.529-2.167,1.607l0.387,0.057
	C15.754,18.338,16.598,17.733,17.561,17.775z"/>
<circle fill="#492F72" cx="16.353" cy="22.927" r="2.254"/>
<path fill="#5D4191" d="M16.779,21.017C16.717,21.001,16.65,21,16.586,20.99c-1.037-0.151-1.997,0.527-2.165,1.604l0.386,0.057
	C14.974,21.573,15.818,20.974,16.779,21.017z"/>
<circle fill="#EA534C" cx="17.05" cy="25.645" r="2.254"/>
<path fill="#FF6260" d="M17.509,23.682c-0.062-0.016-0.124-0.047-0.188-0.057c-1.035-0.165-2.023,0.625-2.18,1.549l0.385,0.061
	C15.668,24.403,16.548,23.628,17.509,23.682z"/>
<line fill="none" stroke="#FFFFFF" stroke-width="0.0978" x1="10.693" y1="33.692" x2="17.158" y2="43.187"/>
<line fill="none" stroke="#FFFFFF" stroke-width="0.0978" x1="14.098" y1="36.065" x2="17.064" y2="42.968"/>
<line fill="none" stroke="#FFFFFF" stroke-width="0.0978" x1="17.064" y1="37.908" x2="17.158" y2="43.155"/>
<line fill="none" stroke="#FFFFFF" stroke-width="0.0978" x1="20.906" y1="35.285" x2="17.252" y2="43.155"/>
<line fill="none" stroke="#FFFFFF" stroke-width="0.0978" x1="23.779" y1="32.692" x2="17.158" y2="43.062"/>
<line fill="none" stroke="#FFFFFF" stroke-width="0.0978" x1="13.411" y1="35.848" x2="17.064" y2="43.155"/>
<line fill="none" stroke="#FFFFFF" stroke-width="0.0978" x1="18.564" y1="37.252" x2="17.252" y2="43.062"/>
<line fill="none" stroke="#FFFFFF" stroke-width="0.0978" x1="19.407" y1="35.316" x2="17.127" y2="43.155"/>
<line fill="none" stroke="#FFFFFF" stroke-width="0.0978" x1="15.94" y1="37.627" x2="17.127" y2="43.155"/>
<g>
	<path fill="#47A036" d="M33.041,43.326c0.975,0.926,1.445,2.181,1.404,3.42c-0.154-0.207-0.328-0.405-0.521-0.59
		c-0.328-0.312-0.691-0.564-1.075-0.758c0.071-0.067,0.151-0.127,0.241-0.177c0.059-0.032,0.118-0.059,0.178-0.079
		c-0.268-0.092-0.575-0.076-0.855,0.062c-1.637-0.621-3.551-0.251-4.824,1.09c-0.78,0.82-1.184,1.861-1.219,2.914
		c-1.275-1.721-1.179-4.15,0.337-5.744C28.404,41.677,31.241,41.615,33.041,43.326z"/>
	<path fill="#3F8930" d="M31.936,42.823c-2.265-1.032-4.924-0.064-5.938,2.161c-0.436,0.956-0.496,1.988-0.244,2.938
		c-0.363-1.036-0.346-2.201,0.142-3.271c1.014-2.226,3.671-3.193,5.938-2.161c1.226,0.559,2.084,1.587,2.455,2.767
		c-0.007-0.005-0.015-0.011-0.023-0.016C33.846,44.209,33.04,43.326,31.936,42.823z"/>
	<path fill="#47A036" d="M22.096,42.684c-0.629,0.631-0.934,1.485-0.906,2.329c0.1-0.142,0.212-0.275,0.337-0.401
		c0.212-0.212,0.446-0.385,0.692-0.517c-0.045-0.046-0.097-0.086-0.155-0.12c-0.037-0.021-0.075-0.039-0.114-0.055
		c0.173-0.062,0.371-0.051,0.553,0.043c1.057-0.422,2.292-0.17,3.113,0.742c0.504,0.559,0.765,1.268,0.787,1.984
		c0.823-1.171,0.76-2.825-0.218-3.911C25.088,41.561,23.258,41.52,22.096,42.684z"/>
	<path fill="#3F8930" d="M22.809,42.342c1.463-0.703,3.179-0.045,3.833,1.471c0.281,0.651,0.319,1.355,0.157,2.002
		c0.235-0.707,0.223-1.5-0.092-2.229c-0.653-1.516-2.369-2.174-3.832-1.471c-0.791,0.38-1.346,1.08-1.585,1.884
		c0.005-0.004,0.01-0.007,0.015-0.011C21.576,43.285,22.097,42.684,22.809,42.342z"/>
	<path fill="#AB652D" d="M28.041,48C28.031,48,28,48,28,48l0,0h-4v0.902l-0.131-0.062L22.759,48H12v-0.436
		c0-0.01-0.135-0.015-0.172-0.015c-0.34,0-0.637,0.409-0.637,0.914s0.309,0.914,0.646,0.914c0.037,0,0.162-0.005,0.162-0.015V50h16
		v-1c0,0,0.033,0,0.043,0c0.338,0,0.609,0.001,0.609-0.5S28.38,48,28.041,48z"/>
	<g>
		<path fill="#AB652D" d="M20.355,48l-2.156-3H15v0.357c-1-0.011-0.297-0.017-0.326-0.017c-0.275,0-0.6,0.501-0.6,1.118
			s0.373,1.117,0.649,1.117c0.028,0-0.724-0.006,0.276-0.017V48H20.355z"/>
	</g>
	<path fill="#AB652D" d="M7.002,54.455C7.049,54.455,7,54.461,7,54.47V54h21l0,0c0,0-0.271,0-0.26,0
		c0.432,0,0.797,0.641,0.797,1.142s-0.211,1.025-0.643,1.025c-0.012,0,0.105,0.116,0.105,0.116V57H7v-0.73
		c0,0.009,0.049,0.015,0.002,0.015c-0.432,0-0.783-0.409-0.783-0.915C6.219,54.865,6.57,54.455,7.002,54.455z"/>
	<path fill="#AB652D" d="M7.002,56.243C7.049,56.243,7,56.248,7,56.257V56h21l0,0c0,0-0.271,0-0.26,0c0.432,0,0.797,0.499,0.797,1
		s-0.373,1-0.805,1C27.721,58,28,58,28,58l0,0H7v0.057c0,0.01,0.049,0.015,0.002,0.015c-0.432,0-0.783-0.409-0.783-0.914
		S6.57,56.243,7.002,56.243z"/>
	<path fill="#AB652D" d="M6.985,52.75C7.031,52.75,7,52.754,7,52.764V53h21l0,0c0,0-0.289,0-0.277,0
		c0.433,0,0.789,0.287,0.789,0.789c0,0.501-0.197,0.848-0.631,0.848c-0.012,0,0.119-0.06,0.119-0.061V55H7v-0.437
		c0,0.009,0.031,0.015-0.015,0.015c-0.432,0-0.784-0.41-0.784-0.914C6.201,53.158,6.554,52.75,6.985,52.75z"/>
	<path fill="#935227" d="M25,56.261C25,56.31,25.105,57,25.137,57h2.609C27.777,57,28,56.31,28,56.261v-0.022
		C28,56.19,27.777,56,27.746,56h-2.609C25.105,56,25,56.19,25,56.238V56.261z"/>
	<path fill="#935227" d="M22.965,56.261c0,0.049,0.087,0.278,0.106,0.278h1.649c0.02,0-0.043-0.229-0.043-0.278v-0.022
		c0-0.048,0.062-0.128,0.043-0.128h-1.649c-0.02,0-0.106,0.08-0.106,0.128V56.261z"/>
	<path fill="#935227" d="M22.108,56.261c0,0.049-0.182,0.278-0.173,0.278h0.772c0.009,0,0.257-0.229,0.257-0.278v-0.022
		c0-0.048-0.248-0.128-0.257-0.128h-0.772c-0.009,0,0.173,0.08,0.173,0.128V56.261z"/>
	<path fill="#935227" d="M19,56.261C19,56.31,18.891,57,18.922,57h2.609C21.562,57,22,56.31,22,56.261v-0.022
		C22,56.19,21.562,56,21.531,56h-2.609C18.891,56,19,56.19,19,56.238V56.261z"/>
	<path fill="#935227" d="M17.762,56.261c0,0.049,0.021,0.075,0.031,0.075h0.771c0,0,0.004-0.026,0.004-0.075v-0.022
		c0-0.048,0.006-0.104,0.006-0.104h-0.781c-0.01,0-0.031,0.056-0.031,0.104V56.261z"/>
	<path fill="#935227" d="M15,56.261C15,56.31,14.747,57,14.777,57h2.61C17.418,57,17,56.31,17,56.261v-0.022
		C17,56.19,17.418,56,17.388,56h-2.61C14.747,56,15,56.19,15,56.238V56.261z"/>
	<path fill="#935227" d="M12.684,56.261c0,0.049,0.09,0.278,0.11,0.278h1.648c0.021,0-0.045-0.229-0.045-0.278v-0.022
		c0-0.048,0.065-0.128,0.045-0.128h-1.648c-0.021,0-0.11,0.08-0.11,0.128V56.261z"/>
	<path fill="#935227" d="M11.398,56.261c0,0.049,0.251,0.278,0.26,0.278h0.772c0.009,0,0.253-0.229,0.253-0.278v-0.022
		c0-0.048-0.244-0.128-0.253-0.128h-0.772c-0.009,0-0.26,0.08-0.26,0.128V56.261z"/>
	<path fill="#935227" d="M8,56.261C8,56.31,8.613,57,8.644,57h2.61C11.285,57,11,56.31,11,56.261v-0.022
		C11,56.19,11.285,56,11.254,56h-2.61C8.613,56,8,56.19,8,56.238V56.261z"/>
	<path fill="#935227" d="M7.115,56.221c0,0.048-0.123,0.318-0.102,0.318h1.838c0.023,0-0.022-0.271-0.022-0.318v-0.022
		c0-0.049,0.046-0.088,0.022-0.088H7.014c-0.021,0,0.102,0.039,0.102,0.088V56.221z"/>
	<path fill="#935227" d="M9,54.499C9,54.396,9.101,54,9.074,54H6.85C6.823,54,7,54.396,7,54.499v0.048C7,54.65,6.823,55,6.85,55
		h2.225C9.101,55,9,54.65,9,54.547V54.499z"/>
	<path fill="#935227" d="M8.688,54.499c0-0.104-0.009-0.078-0.019-0.078H7.889c-0.009,0-0.006-0.025-0.006,0.078v0.048
		c0,0.104-0.003,0.177,0.006,0.177H8.67c0.01,0,0.019-0.073,0.019-0.177V54.499z"/>
	<path fill="#935227" d="M12,54.499C12,54.396,12,54,12,54H9.079C9.048,54,9,54.396,9,54.499v0.048C9,54.65,9.048,55,9.079,55H12
		c0,0,0-0.35,0-0.453V54.499z"/>
	<path fill="#935227" d="M12.822,54.499c0-0.104,0.049-0.078,0.039-0.078H12.08c-0.01,0,0.035-0.025,0.035,0.078v0.048
		c0,0.104-0.045,0.177-0.035,0.177h0.781c0.01,0-0.039-0.073-0.039-0.177V54.499z"/>
	<path fill="#935227" d="M16,54.499C16,54.396,15.941,54,15.91,54h-2.64C13.239,54,13,54.396,13,54.499v0.048
		C13,54.65,13.239,55,13.271,55h2.64c0.031,0,0.09-0.35,0.09-0.453V54.499z"/>
	<path fill="#935227" d="M17.824,54.499c0-0.104,0.113-0.103,0.094-0.103h-1.807c0,0,0-0.001,0,0.103v0.048c0,0.104,0,0.278,0,0.278
		h1.807c0.02,0-0.094-0.175-0.094-0.278V54.499z"/>
	<path fill="#935227" d="M19.109,54.499c0-0.104-0.033-0.103-0.043-0.103h-0.781c-0.01,0-0.033-0.001-0.033,0.103v0.048
		c0,0.104,0.023,0.278,0.033,0.278h0.781c0.01,0,0.043-0.175,0.043-0.278V54.499z"/>
	<path fill="#935227" d="M22,54.499C22,54.396,22.146,54,22.115,54h-2.641C19.444,54,20,54.396,20,54.499v0.048
		C20,54.65,19.444,55,19.475,55h2.641C22.146,55,22,54.65,22,54.547V54.499z"/>
	<path fill="#935227" d="M24.25,54.438c0-0.049-0.066-0.041-0.086-0.041h-1.669c-0.02,0,0.04-0.008,0.04,0.041v0.022
		c0,0.049-0.06-0.063-0.04-0.063h1.669c0.02,0,0.086,0.112,0.086,0.063V54.438z"/>
	<path fill="#935227" d="M25.321,54.438c0-0.049,0-0.017-0.009-0.017h-0.781c-0.01,0-0.016-0.032-0.016,0.017v0.022
		c0,0.049,0.006,0.062,0.016,0.062h0.781c0.009,0,0.009-0.013,0.009-0.062V54.438z"/>
	<path fill="#935227" d="M28,54.479C28,54.43,27.862,54,27.837,54H25.63C25.604,54,26,54.43,26,54.479V54.5
		c0,0.049-0.396,0.5-0.37,0.5h2.207C27.862,55,28,54.549,28,54.5V54.479z"/>
	<path fill="#AB652D" d="M6.985,59.736C7.031,59.736,7,59.741,7,59.751V60h21l0,0c0,0-0.289,0-0.277,0c0.433,0,0.789,0.499,0.789,1
		s-0.359,1-0.793,1C27.708,62,28,62,28,62l0,0H7v-0.449c0,0.009,0.031,0.014-0.015,0.014c-0.432,0-0.784-0.409-0.784-0.914
		C6.201,60.146,6.554,59.736,6.985,59.736z"/>
	<path fill="#AB652D" d="M6.985,61.523C7.031,61.523,7,61.529,7,61.538V62h21v-0.461c0-0.001-0.127-0.002-0.115-0.002
		c0.432,0,0.708,0.23,0.708,0.731S28.152,63,27.719,63C27.708,63,28,63,28,63l0,0H7v0.338c0,0.01,0.031,0.014-0.015,0.014
		c-0.432,0-0.784-0.408-0.784-0.914C6.201,61.934,6.554,61.523,6.985,61.523z"/>
	<path fill="#AB652D" d="M6.969,58.03C7.016,58.03,7,58.035,7,58.045V58h21l0,0c0,0-0.307,0-0.295,0c0.433,0,0.781,0.499,0.781,1
		s-0.348,1-0.779,1C27.695,60,28,60,28,60l0,0H7v-0.155c0,0.009,0.016,0.014-0.031,0.014c-0.434,0-0.783-0.409-0.783-0.914
		S6.535,58.03,6.969,58.03z"/>
	<path fill="#935227" d="M25,61.542C25,61.591,25.064,62,25.096,62h2.61C27.737,62,28,61.591,28,61.542V61.52
		c0-0.049-0.263-0.52-0.294-0.52h-2.61C25.064,61,25,61.471,25,61.52V61.542z"/>
	<path fill="#935227" d="M22.965,61.542c0,0.049,0.046,0.138,0.065,0.138h1.649c0.02,0-0.002-0.089-0.002-0.138V61.52
		c0-0.049,0.021-0.269,0.002-0.269H23.03c-0.02,0-0.065,0.22-0.065,0.269V61.542z"/>
	<path fill="#935227" d="M21.68,61.542c0,0.049,0.205,0.138,0.215,0.138h0.773c0.009,0-0.133-0.089-0.133-0.138V61.52
		c0-0.049,0.142-0.269,0.133-0.269h-0.773c-0.01,0-0.215,0.22-0.215,0.269V61.542z"/>
	<path fill="#935227" d="M19,61.542C19,61.591,18.85,62,18.881,62h2.609c0.031,0,0.51-0.409,0.51-0.458V61.52
		c0-0.049-0.479-0.52-0.51-0.52h-2.609C18.85,61,19,61.471,19,61.52V61.542z"/>
	<path fill="#935227" d="M17.762,61.542c0,0.049-0.02,0.036-0.01,0.036h0.771c0.01,0,0.045,0.013,0.045-0.036V61.52
		c0-0.049-0.035-0.143-0.045-0.143h-0.771c-0.01,0,0.01,0.094,0.01,0.143V61.542z"/>
	<path fill="#935227" d="M15,61.542C15,61.591,15,62,15,62h2.348C17.378,62,17,61.591,17,61.542V61.52
		c0-0.049,0.378-0.52,0.348-0.52H15c0,0,0,0.471,0,0.52V61.542z"/>
	<path fill="#935227" d="M12.684,61.542c0,0.049,0.05,0.138,0.068,0.138h1.65c0.02,0-0.005-0.089-0.005-0.138V61.52
		c0-0.049,0.024-0.269,0.005-0.269h-1.65c-0.019,0-0.068,0.22-0.068,0.269V61.542z"/>
	<path fill="#935227" d="M11.398,61.542c0,0.049,0.21,0.138,0.219,0.138h0.772c0.009,0-0.134-0.089-0.134-0.138V61.52
		c0-0.049,0.143-0.269,0.134-0.269h-0.772c-0.009,0-0.219,0.22-0.219,0.269V61.542z"/>
	<path fill="#935227" d="M8,61.542C8,61.591,8.572,62,8.604,62h2.609C11.244,62,11,61.591,11,61.542V61.52
		c0-0.049,0.244-0.52,0.213-0.52H8.604C8.572,61,8,61.471,8,61.52V61.542z"/>
	<path fill="#935227" d="M7.115,61.542c0,0.049-0.151,0.138-0.137,0.138h1.258c0.016,0,0.164-0.089,0.164-0.138V61.52
		c0-0.049-0.148-0.269-0.164-0.269H6.979c-0.015,0,0.137,0.22,0.137,0.269V61.542z"/>
	<path fill="#935227" d="M9,59.719C9,59.67,9.066,60,9.039,60H6.814C6.789,60,7,59.67,7,59.719v0.021C7,59.789,6.789,60,6.814,60
		h2.225C9.066,60,9,59.789,9,59.74V59.719z"/>
	<path fill="#935227" d="M8.588,59.719c0-0.049,0.051-0.056,0.042-0.056H7.848c-0.009,0-0.066,0.007-0.066,0.056v0.021
		c0,0.049,0.058,0.124,0.066,0.124H8.63c0.009,0-0.042-0.075-0.042-0.124V59.719z"/>
	<path fill="#935227" d="M12,59.719C12,59.67,11.71,60,11.679,60h-2.64C9.008,60,9,59.67,9,59.719v0.021C9,59.789,9.008,60,9.039,60
		h2.64C11.71,60,12,59.789,12,59.74V59.719z"/>
	<path fill="#935227" d="M12.822,59.719c0-0.049,0.008-0.056-0.002-0.056h-0.78c-0.01,0-0.024,0.007-0.024,0.056v0.021
		c0,0.049,0.015,0.124,0.024,0.124h0.78c0.01,0,0.002-0.075,0.002-0.124V59.719z"/>
	<path fill="#935227" d="M16,59.719C16,59.67,15.901,60,15.869,60H13.23C13.199,60,13,59.67,13,59.719v0.021
		c0,0.049,0.199,0.26,0.23,0.26h2.639C15.901,60,16,59.789,16,59.74V59.719z"/>
	<path fill="#935227" d="M17.824,59.719c0-0.049,0.072-0.182,0.053-0.182h-1.668c-0.02,0-0.098,0.133-0.098,0.182v0.021
		c0,0.049,0.078,0.226,0.098,0.226h1.668c0.02,0-0.053-0.177-0.053-0.226V59.719z"/>
	<path fill="#935227" d="M19.109,59.719c0-0.049-0.074-0.182-0.084-0.182h-0.781c0,0,0.008,0.133,0.008,0.182v0.021
		c0,0.049-0.018,0.226-0.018,0.226h0.791c0.01,0,0.084-0.177,0.084-0.226V59.719z"/>
	<path fill="#935227" d="M22,59.719C22,59.67,22.105,60,22.074,60h-2.641C19.402,60,20,59.67,20,59.719v0.021
		c0,0.049-0.598,0.26-0.566,0.26h2.641C22.105,60,22,59.789,22,59.74V59.719z"/>
	<path fill="#935227" d="M24.25,59.719c0-0.049-0.107-0.182-0.127-0.182h-1.669c-0.019,0,0.081,0.133,0.081,0.182v0.021
		c0,0.049-0.1,0.226-0.081,0.226h1.669c0.02,0,0.127-0.177,0.127-0.226V59.719z"/>
	<path fill="#935227" d="M25.221,59.719c0-0.049,0.061-0.056,0.051-0.056H24.49c-0.01,0,0.025,0.007,0.025,0.056v0.021
		c0,0.049-0.035,0.124-0.025,0.124h0.781c0.01,0-0.051-0.075-0.051-0.124V59.719z"/>
	<path fill="#935227" d="M28,59.76c0-0.049-0.178,0.24-0.203,0.24h-2.208C25.562,60,26,59.711,26,59.76v0.021
		C26,59.83,25.562,60,25.589,60h2.208C27.822,60,28,59.83,28,59.781V59.76z"/>
	<path fill="#935227" d="M14,58.013C14,57.964,14.115,58,14.086,58h-2.641C11.414,58,11,57.964,11,58.013v0.022
		C11,58.083,11.414,58,11.445,58h2.641C14.115,58,14,58.084,14,58.035V58.013z"/>
	<path fill="#935227" d="M16.111,58.013c0-0.049,0.082-0.188,0.062-0.188h-1.668c-0.02,0-0.108,0.14-0.108,0.188v0.022
		c0,0.048,0.089,0.217,0.108,0.217h1.668c0.02,0-0.062-0.169-0.062-0.217V58.013z"/>
	<path fill="#935227" d="M17.396,58.013c0-0.049-0.064-0.188-0.074-0.188h-0.781c-0.01,0-0.002,0.14-0.002,0.188v0.022
		c0,0.048-0.008,0.217,0.002,0.217h0.781c0.01,0,0.074-0.168,0.074-0.217V58.013z"/>
	<path fill="#935227" d="M20,58.013C20,57.964,20.402,58,20.372,58H17.73C17.701,58,18,57.964,18,58.013v0.022
		C18,58.083,17.701,58,17.73,58h2.642C20.402,58,20,58.083,20,58.035V58.013z"/>
	<path fill="#935227" d="M21.68,58.013c0-0.049-0.156-0.188-0.166-0.188h-0.781c-0.009,0,0.091,0.14,0.091,0.188v0.022
		c0,0.048-0.1,0.217-0.091,0.217h0.781c0.01,0,0.166-0.169,0.166-0.217V58.013z"/>
	<path fill="#935227" d="M25,58.013C25,57.964,24.595,58,24.563,58h-2.641C21.893,58,22,57.964,22,58.013v0.022
		C22,58.083,21.893,58,21.923,58h2.641C24.595,58,25,58.083,25,58.035V58.013z"/>
	<path fill="#935227" d="M26.82,58.013c0-0.049-0.23-0.188-0.25-0.188h-1.668c-0.02,0,0.204,0.14,0.204,0.188v0.022
		c0,0.048-0.224,0.217-0.204,0.217h1.668c0.02,0,0.25-0.169,0.25-0.217V58.013z"/>
	<path fill="#935227" d="M27.741,58.013c0-0.049-0.013-0.063-0.022-0.063h-0.781c-0.009,0-0.004,0.015-0.004,0.063v0.022
		c0,0.049-0.005,0.115,0.004,0.115h0.781c0.01,0,0.022-0.067,0.022-0.115V58.013z"/>
	<path fill="#935227" d="M7.58,58.054c0-0.049,0.041-0.104,0.034-0.104H6.956c-0.009,0,0.019,0.056,0.019,0.104v0.021
		c0,0.049-0.027,0.075-0.019,0.075h0.658c0.007,0-0.034-0.026-0.034-0.075V58.054z"/>
	<path fill="#935227" d="M9.686,58.054c0-0.049,0.208-0.229,0.189-0.229H8.206c-0.021,0-0.233,0.181-0.233,0.229v0.021
		c0,0.049,0.213,0.177,0.233,0.177h1.669c0.019,0-0.189-0.128-0.189-0.177V58.054z"/>
	<path fill="#935227" d="M10.971,58.054c0-0.049,0.061-0.229,0.053-0.229h-0.782c-0.009,0-0.127,0.181-0.127,0.229v0.021
		c0,0.049,0.118,0.177,0.127,0.177h0.782c0.008,0-0.053-0.128-0.053-0.177V58.054z"/>
	<circle fill="#D58C4F" cx="23.807" cy="56.115" r="1.98"/>
	<ellipse fill="#AECEF4" cx="23.818" cy="56.115" rx="1.768" ry="1.737"/>
	<path fill="#D7E7FB" d="M22.527,54.922l2.586,2.294c-0.318,0.364-0.788,0.596-1.312,0.596c-0.959,0-1.736-0.771-1.736-1.72
		C22.064,55.64,22.24,55.229,22.527,54.922z"/>
	<circle fill="#D58C4F" cx="10.809" cy="56.197" r="1.98"/>
	<ellipse fill="#AECEF4" cx="10.818" cy="56.197" rx="1.768" ry="1.736"/>
	<path fill="#D7E7FB" d="M9.527,55.031l2.587,2.271c-0.318,0.361-0.788,0.59-1.313,0.59c-0.959,0-1.735-0.763-1.735-1.704
		C9.065,55.741,9.241,55.335,9.527,55.031z"/>
	<path fill="#935227" d="M17.862,45.78c0,0.049,0.002,0.072,0.011,0.072h0.773c0.009,0,0.021-0.023,0.021-0.072v-0.022
		c0-0.048-0.013-0.107-0.021-0.107h-0.773c-0.009,0-0.011,0.06-0.011,0.107V45.78z"/>
	<path fill="#935227" d="M15,45.78c0,0.049-0.172,0.22-0.141,0.22h2.609C17.5,46,17,45.829,17,45.78v-0.022
		C17,45.71,17.5,46,17.469,46h-2.609C14.828,46,15,45.71,15,45.758V45.78z"/>
	<path fill="#935227" d="M17.824,43.957c0-0.049,0.193-0.27,0.175-0.27H16.33c-0.02,0,0.209,0.221,0.209,0.27v0.022
		c0,0.049-0.229,0.137-0.209,0.137h1.669c0.019,0-0.175-0.088-0.175-0.137V43.957z"/>
	<path fill="#AB652D" d="M9.766,49.256c0.041,0,0.234,0.005,0.234,0.014V49h18l0,0c0,0,0.011,0,0.021,0c0.383,0,0.636,0.499,0.636,1
		s-0.225,1-0.608,1C28.04,51,28,51,28,51l0,0H10v0.07c0,0.009-0.193,0.014-0.234,0.014c-0.382,0-0.692-0.409-0.692-0.914
		S9.384,49.256,9.766,49.256z"/>
	<path fill="#AB652D" d="M7.676,51.043C7.721,51.043,8,51.049,8,51.058V51h20v0.059c0,0-0.08-0.002-0.07-0.002
		c0.428,0,0.721,0.471,0.721,0.972S28.181,53,27.754,53C27.743,53,28,53,28,53l0,0H8v-0.143c0,0.009-0.279,0.014-0.324,0.014
		c-0.428,0-0.773-0.408-0.773-0.914C6.902,51.452,7.248,51.043,7.676,51.043z"/>
	<path fill="#935227" d="M25,51.061C25,51.109,25.146,51,25.178,51h2.609C27.818,51,28,51.109,28,51.061v-0.021
		C28,50.99,27.818,51,27.787,51h-2.609C25.146,51,25,50.99,25,51.039V51.061z"/>
	<path fill="#935227" d="M22.965,51.061c0,0.049,0.127,0.338,0.146,0.338h1.649c0.02,0-0.083-0.289-0.083-0.338v-0.021
		c0-0.049,0.103-0.068,0.083-0.068h-1.649c-0.02,0-0.146,0.02-0.146,0.068V51.061z"/>
	<path fill="#935227" d="M22.108,51.061c0,0.049-0.142,0.338-0.132,0.338h0.771c0.01,0,0.217-0.289,0.217-0.338v-0.021
		c0-0.049-0.207-0.068-0.217-0.068h-0.771c-0.01,0,0.132,0.02,0.132,0.068V51.061z"/>
	<path fill="#935227" d="M19,51.061C19,51.109,18.932,51,18.962,51h2.61C21.602,51,22,51.109,22,51.061v-0.021
		C22,50.99,21.602,51,21.572,51h-2.61C18.932,51,19,50.99,19,51.039V51.061z"/>
	<path fill="#935227" d="M17.862,51.061c0,0.049-0.039,0.135-0.029,0.135h0.772c0,0,0.062-0.086,0.062-0.135v-0.021
		c0-0.049-0.054-0.146-0.054-0.146h-0.781c-0.01,0,0.029,0.098,0.029,0.146V51.061z"/>
	<path fill="#935227" d="M15,51.061C15,51.109,14.787,51,14.818,51h2.61C17.459,51,17,51.109,17,51.061v-0.021
		C17,50.99,17.459,51,17.429,51h-2.61C14.787,51,15,50.99,15,51.039V51.061z"/>
	<path fill="#935227" d="M12.684,51.061c0,0.049,0.131,0.338,0.15,0.338h1.648c0.02,0-0.085-0.289-0.085-0.338v-0.021
		c0-0.049,0.104-0.068,0.085-0.068h-1.648c-0.02,0-0.15,0.02-0.15,0.068V51.061z"/>
	<path fill="#935227" d="M11.713,51.061c0,0.049-0.023,0.135-0.015,0.135h0.772c0.01,0,0.049-0.086,0.049-0.135v-0.021
		c0-0.049-0.039-0.146-0.049-0.146h-0.772c-0.009,0,0.015,0.098,0.015,0.146V51.061z"/>
	<path fill="#935227" d="M8,51.061C8,51.109,8.652,51,8.685,51h2.61C11.325,51,11,51.109,11,51.061v-0.021
		C11,50.99,11.325,51,11.295,51h-2.61C8.652,51,8,50.99,8,51.039V51.061z"/>
	<path fill="#935227" d="M12.923,49.238c0-0.049-0.011-0.059-0.021-0.059h-0.781c-0.01,0-0.006,0.01-0.006,0.059v0.021
		c0,0.049-0.004,0.121,0.006,0.121h0.781c0.01,0,0.021-0.072,0.021-0.121V49.238z"/>
	<path fill="#935227" d="M16,49.238C16,49.189,15.982,49,15.951,49h-2.641C13.279,49,13,49.189,13,49.238v0.021
		c0,0.049,0.279-0.26,0.311-0.26h2.641C15.982,49,16,49.309,16,49.26V49.238z"/>
	<path fill="#935227" d="M17.824,49.238c0-0.049,0.154,0.019,0.134,0.019H16.29c-0.02,0,0.249-0.067,0.249-0.019v0.021
		c0,0.049-0.269-0.003-0.249-0.003h1.668c0.021,0-0.134,0.052-0.134,0.003V49.238z"/>
	<path fill="#935227" d="M19.109,49.238c0-0.049,0.006,0.019-0.002,0.019h-0.781c-0.01,0-0.074-0.067-0.074-0.019v0.021
		c0,0.049,0.064-0.003,0.074-0.003h0.781c0.008,0,0.002,0.052,0.002,0.003V49.238z"/>
	<path fill="#935227" d="M22,49.238C22,49.189,22.188,49,22.156,49h-2.641C19.484,49,20,49.189,20,49.238v0.021
		c0,0.049-0.516-0.26-0.484-0.26h2.641C22.188,49,22,49.309,22,49.26V49.238z"/>
	<path fill="#935227" d="M24.25,49.238c0-0.049-0.026,0.019-0.046,0.019h-1.669c-0.019,0,0-0.067,0-0.019v0.021
		c0,0.049-0.019-0.003,0-0.003h1.669c0.02,0,0.046,0.052,0.046,0.003V49.238z"/>
	<path fill="#935227" d="M25.535,49.238c0-0.049-0.174,0.019-0.184,0.019h-0.78c-0.009,0,0.106-0.067,0.106-0.019v0.021
		c0,0.049-0.115-0.003-0.106-0.003h0.78c0.011,0,0.184,0.052,0.184,0.003V49.238z"/>
	<path fill="#935227" d="M28,49.279C28,49.23,27.902,49,27.878,49H25.67C25.645,49,26,49.23,26,49.279v0.021
		C26,49.35,25.645,49,25.67,49h2.208C27.902,49,28,49.35,28,49.301V49.279z"/>
	<path fill="#935227" d="M17,47.532C17,47.483,16.275,48,16.256,48h-1.669C14.566,48,14,47.483,14,47.532v0.022
		C14,47.603,14.566,48,14.587,48h1.669C16.275,48,17,47.603,17,47.555V47.532z"/>
	<path fill="#935227" d="M17.396,47.532c0-0.049,0.018,0.011,0.008,0.011h-0.781c-0.01,0-0.084-0.06-0.084-0.011v0.022
		c0,0.048,0.074-0.012,0.084-0.012h0.781c0.01,0-0.008,0.06-0.008,0.012V47.532z"/>
	<path fill="#935227" d="M20,47.532C20,47.483,20.484,48,20.453,48h-2.64C17.781,48,18,47.483,18,47.532v0.022
		C18,47.603,17.781,48,17.813,48h2.64C20.484,48,20,47.603,20,47.555V47.532z"/>
	<path fill="#935227" d="M21.68,47.532c0-0.049-0.075,0.011-0.084,0.011h-0.782c0,0,0.01-0.06,0.01-0.011v0.022
		c0,0.048-0.019-0.012-0.019-0.012h0.791c0.009,0,0.084,0.06,0.084,0.012V47.532z"/>
	<path fill="#935227" d="M25,52.93c0,0.049,0.146,0.07,0.178,0.07h2.609C27.818,53,28,52.979,28,52.93v-0.021
		C28,52.859,27.818,53,27.787,53h-2.609C25.146,53,25,52.859,25,52.908V52.93z"/>
	<polygon fill="#723C1F" points="27,53 27,53 23,53 23,53 23,53 23,53 27,53 27,53 	"/>
	<path fill="#935227" d="M22.108,52.93c0,0.049-0.142,0.182-0.132,0.182h0.771c0.01,0,0.217-0.133,0.217-0.182v-0.021
		c0-0.049-0.207-0.225-0.217-0.225h-0.771c-0.01,0,0.132,0.176,0.132,0.225V52.93z"/>
	<path fill="#935227" d="M19,52.93c0,0.049-0.068,0.07-0.038,0.07h2.61C21.602,53,22,52.979,22,52.93v-0.021
		C22,52.859,21.602,53,21.572,53h-2.61C18.932,53,19,52.859,19,52.908V52.93z"/>
	<path fill="#935227" d="M17.862,52.93c0,0.049-0.039,0.181-0.029,0.181h0.772c0,0,0.062-0.132,0.062-0.181v-0.021
		c0-0.049-0.054-0.1-0.054-0.1h-0.781c-0.01,0,0.029,0.051,0.029,0.1V52.93z"/>
	<path fill="#935227" d="M15,52.93c0,0.049-0.213,0.07-0.182,0.07h2.61C17.459,53,17,52.979,17,52.93v-0.021
		C17,52.859,17.459,53,17.429,53h-2.61C14.787,53,15,52.859,15,52.908V52.93z"/>
	<path fill="#935227" d="M12.684,52.93c0,0.049,0.131,0.182,0.15,0.182h1.648c0.02,0-0.085-0.133-0.085-0.182v-0.021
		c0-0.049,0.104-0.225,0.085-0.225h-1.648c-0.02,0-0.15,0.176-0.15,0.225V52.93z"/>
	<path fill="#935227" d="M11.713,52.93c0,0.049-0.023,0.181-0.015,0.181h0.772c0.01,0,0.049-0.132,0.049-0.181v-0.021
		c0-0.049-0.039-0.1-0.049-0.1h-0.772c-0.009,0,0.015,0.051,0.015,0.1V52.93z"/>
	<path fill="#723C1F" d="M8,52.93C8,52.979,8.652,53,8.685,53h2.61C11.325,53,11,52.979,11,52.93v-0.021
		C11,52.859,11.325,53,11.295,53h-2.61C8.652,53,8,52.859,8,52.908V52.93z"/>
	<path fill="#935227" d="M7.115,52.93c0,0.049-0.07,0.182-0.056,0.182h1.258c0.015,0,0.083-0.133,0.083-0.182v-0.021
		c0-0.049-0.068-0.225-0.083-0.225H7.06c-0.015,0,0.056,0.176,0.056,0.225V52.93z"/>
	<path fill="#AB652D" d="M30.311,56.181c0.318,0.257,0.714,0.296,0.883,0.087l0.408-0.506c0.17-0.209,0.049-0.588-0.27-0.845
		L17.598,43.814c-0.317-0.258-0.713-0.296-0.882-0.087l-0.409,0.506c-0.168,0.209-0.048,0.588,0.271,0.845L30.311,56.181z"/>
	<path fill="#AB652D" d="M4.139,56.1c-0.318,0.257-0.713,0.296-0.883,0.086l-0.408-0.505c-0.17-0.21-0.049-0.588,0.27-0.845
		l13.734-11.103c0.316-0.258,0.713-0.296,0.882-0.087l0.409,0.506c0.169,0.209,0.049,0.588-0.27,0.845L4.139,56.1z"/>
	<path fill="#935227" d="M3.904,55.715c-0.318,0.258-0.707,0.306-0.867,0.107L2.65,55.344c-0.16-0.199-0.032-0.568,0.285-0.825
		L16.67,43.416c0.318-0.257,0.707-0.305,0.867-0.106l0.387,0.479c0.16,0.198,0.032,0.567-0.286,0.825L3.904,55.715z"/>
	<path fill="#D58C4F" d="M12.559,63c-0.205,0-0.317-0.961-0.317-1.579c0-2.753,2.22-4.896,4.956-4.896
		c2.738,0,4.957,2.1,4.957,4.853c0,0.617-0.111,1.623-0.316,1.623H12.559z"/>
	<path fill="#935227" d="M13.16,63c-0.178,0-0.276-0.857-0.276-1.408c0-2.454,1.938-4.365,4.328-4.365s4.327,1.872,4.327,4.326
		c0,0.551-0.098,1.447-0.275,1.447H13.16z"/>
	<path fill="#7C4323" d="M14.826,60.915c0-0.288-0.222-0.521-0.495-0.521h-0.296c-0.272,0-0.494,0.232-0.494,0.521v0.672
		c0,0.288,0.222,0.521,0.494,0.521h0.296c0.273,0,0.495-0.232,0.495-0.521V60.915z"/>
	<circle fill="#54240C" cx="14.031" cy="61.158" r="0.223"/>
	<rect x="13.931" y="61.377" fill="#54240C" width="0.101" height="0.201"/>
	<path fill="#F5F5F5" d="M27.746,61.542"/>
	<path fill="#935227" d="M16.936,44.742c-0.316-0.26-0.44-0.63-0.279-0.827l0.391-0.476c0.162-0.197,0.55-0.146,0.866,0.113
		l13.646,11.211c0.316,0.26,0.441,0.63,0.279,0.827l-0.391,0.476c-0.162,0.197-0.549,0.146-0.865-0.113L16.936,44.742z"/>
</g>
<rect opacity="0.56" fill="#D0E3FA" width="38" height="65"/>
</svg>
