<?xml version="1.0" encoding="utf-8"?>
<!-- Generator: Adobe Illustrator 15.1.0, SVG Export Plug-In . SVG Version: 6.00 Build 0)  -->
<!DOCTYPE svg PUBLIC "-//W3C//DTD SVG 1.1//EN" "http://www.w3.org/Graphics/SVG/1.1/DTD/svg11.dtd">
<svg version="1.1" id="Layer_1" xmlns="http://www.w3.org/2000/svg" xmlns:xlink="http://www.w3.org/1999/xlink" x="0px" y="0px"
	 width="1024px" height="768px" viewBox="0 0 1024 768" enable-background="new 0 0 1024 768" xml:space="preserve">
<rect x="160" y="3" fill="#D7E7FB" width="771" height="56"/>
<rect x="886" fill="#D7E7FB" width="138" height="771"/>
<rect x="-3" fill="#D7E7FB" width="230" height="771"/>
<path fill="#FCC447" d="M853.494,37H212.104C176.877,37,148,65.018,148,99.904V769h769V99.904C917,65.018,888.734,37,853.494,37z
	 M848,550.641C848,586.865,818.639,616,782.166,616h-491.6C254.1,616,225,586.865,225,550.641V171.573
	C225,135.329,254.1,106,290.566,106h491.6C818.639,106,848,135.329,848,171.573V550.641z"/>
</svg>
