<?xml version="1.0" encoding="utf-8"?>
<!-- Generator: Adobe Illustrator 15.1.0, SVG Export Plug-In . SVG Version: 6.00 Build 0)  -->
<!DOCTYPE svg PUBLIC "-//W3C//DTD SVG 1.1//EN" "http://www.w3.org/Graphics/SVG/1.1/DTD/svg11.dtd">
<svg version="1.1" id="Layer_1" xmlns="http://www.w3.org/2000/svg" xmlns:xlink="http://www.w3.org/1999/xlink" x="0px" y="0px"
	 width="29px" height="41px" viewBox="0 0 29 41" enable-background="new 0 0 29 41" xml:space="preserve">
<path fill="#FCC447" d="M19.83,26.326l8.983-8.807c-0.081-0.101-0.166-0.195-0.252-0.284c-2.849-2.884-4.045-3.333-8.089-3.244
	c0,0-2.756,0.496-4.226,1.396c-1.472,0.902-3.217-0.314-3.217-0.314s-3.079-1.801-6.845-0.721c0,0-7.444,2.163-6.25,12.976
	c0,0,1.746,10.271,7.719,12.973c0,0,1.932,0.812,3.219,0.271c1.283-0.541,4.961-2.479,9.417-0.045c0,0,3.354,0.765,5.192-1.982
	c0,0,1.574-1.857,2.793-3.937L19.83,26.326z"/>
<path fill="#FCC447" d="M7.031,0.001c0,0,10.055,1.363,9.8,11.929C16.831,11.93,7.288,11.416,7.031,0.001z"/>
</svg>
