<?xml version="1.0" encoding="utf-8"?>
<!-- Generator: Adobe Illustrator 15.1.0, SVG Export Plug-In . SVG Version: 6.00 Build 0)  -->
<!DOCTYPE svg PUBLIC "-//W3C//DTD SVG 1.1//EN" "http://www.w3.org/Graphics/SVG/1.1/DTD/svg11.dtd">
<svg version="1.1" id="Layer_1" xmlns="http://www.w3.org/2000/svg" xmlns:xlink="http://www.w3.org/1999/xlink" x="0px" y="0px"
	 width="1024px" height="768px" viewBox="0 0 1024 768" enable-background="new 0 0 1024 768" xml:space="preserve">
<rect fill="#D7E7FB" width="1025" height="768"/>
<polygon opacity="0.82" fill="#AECEF4" points="883,428 743,428 720,428 682,428 682,462 622,462 622,495 566,495 566,529 506,529 
	506,563 447,563 447,596 386,596 386,631 327,631 327,665 269,665 269,699 207,699 207,732 147,732 147,767 208.62,767 269.24,767 
	328.129,767 329.86,767 387.882,767 388.749,767 447.637,767 507.391,767 508.257,767 566.278,767 567.145,767 623.435,767 
	626.898,767 682.323,767 684.92,767 742,767 742,766 883,766 "/>
<rect x="740" y="186" fill="#AECEF4" width="145" height="202"/>
<path fill="#9AC4ED" d="M874,306c0,2.762-2.238,5-5,5l0,0c-2.762,0-5-2.238-5-5v-15c0-2.762,2.238-5,5-5l0,0c2.762,0,5,2.238,5,5
	V306z"/>
<rect x="737" y="392" opacity="0.82" fill="#AECEF4" width="147" height="31"/>
<circle fill="#FFFFFF" cx="798.608" cy="669.452" r="34.911"/>
<circle fill="#FFFFFF" cx="836.104" cy="651.351" r="34.911"/>
<circle fill="#FFFFFF" cx="890.409" cy="628.077" r="37.497"/>
<circle fill="#FFFFFF" cx="926.613" cy="664.28" r="37.496"/>
<circle fill="#FFFFFF" cx="891.703" cy="678.504" r="37.497"/>
<circle fill="#FFFFFF" cx="843.862" cy="675.918" r="37.496"/>
<circle fill="#FFFFFF" cx="192.005" cy="112.015" r="29.903"/>
<circle fill="#FFFFFF" cx="159.888" cy="96.51" r="29.903"/>
<circle fill="#FFFFFF" cx="113.373" cy="76.575" r="32.118"/>
<circle fill="#FFFFFF" cx="82.362" cy="107.585" r="32.118"/>
<circle fill="#FFFFFF" cx="112.265" cy="119.768" r="32.118"/>
<circle fill="#FFFFFF" cx="153.243" cy="117.552" r="32.118"/>
<circle fill="#FFFFFF" cx="442.868" cy="323.32" r="34.911"/>
<circle fill="#FFFFFF" cx="480.364" cy="305.218" r="34.911"/>
<circle fill="#FFFFFF" cx="486.525" cy="321.002" r="37.496"/>
<circle fill="#FFFFFF" cx="95.531" cy="660.789" r="29.69"/>
<ellipse fill="#FFFFFF" cx="147.791" cy="682.678" rx="53.301" ry="29.914"/>
<circle fill="#FFFFFF" cx="77.625" cy="689.949" r="36.341"/>
</svg>
