<?xml version="1.0" encoding="utf-8"?>
<!-- Generator: Adobe Illustrator 15.1.0, SVG Export Plug-In . SVG Version: 6.00 Build 0)  -->
<!DOCTYPE svg PUBLIC "-//W3C//DTD SVG 1.1//EN" "http://www.w3.org/Graphics/SVG/1.1/DTD/svg11.dtd">
<svg version="1.1" id="Layer_1" xmlns="http://www.w3.org/2000/svg" xmlns:xlink="http://www.w3.org/1999/xlink" x="0px" y="0px"
	 width="379px" height="425px" viewBox="0 0 379 425" enable-background="new 0 0 379 425" xml:space="preserve">
<g>
	<path fill-rule="evenodd" clip-rule="evenodd" fill="#FFFFFF" d="M146.078,206.633c0.215-2.175,0.158-4.623,0.158-7.014
		C146.395,200.904,146.713,205.082,146.078,206.633z"/>
	<path fill-rule="evenodd" clip-rule="evenodd" fill="#FFFFFF" d="M146.078,213.168c0.359,0.652,0.062,3.338,0.158,4.783
		C145.877,217.299,146.174,214.613,146.078,213.168z"/>
	<path fill-rule="evenodd" clip-rule="evenodd" fill="#FFFFFF" d="M107.022,247.439c0.214,0,0.425,0,0.638,0
		c-0.004,0.156-0.194,0.125-0.318,0.161c-0.187,0.423,0.306,0.939,0,0.956C106.766,248.44,107.239,248.061,107.022,247.439z"/>
	<path fill-rule="evenodd" clip-rule="evenodd" fill="#FFFFFF" d="M120.253,249.195c-0.128,0.297-0.267,0.583-0.318,0.955
		C119.395,250.083,119.815,249.225,120.253,249.195z"/>
	<path fill-rule="evenodd" clip-rule="evenodd" fill="#FFFFFF" d="M113.877,249.672c0.523,0.25,0.702,0.237,1.115,0.32
		C114.823,250.628,113.897,250.145,113.877,249.672z"/>
</g>
<path fill="#EA534C" d="M165,126.959c0,0,31.503,4.042,52.241-3.423l32.367,34.392l-126.915,5.806L165,126.959z"/>
<path fill="#FFC556" d="M165,126.959c0,0-93.39,41.557-113.668,66.629l71.361-29.854L165,126.959z"/>
<path fill="#0A6F9B" d="M51.332,193.588c0,0,20.646,18.064,21.015,28.756c0.369,10.693,49.077-60.442,50.346-58.61L52.808,192.85"/>
<path fill="#FF6260" d="M122.693,163.733L74.56,223.451c0,0,64.15-0.738,74.844,7.742c10.692,8.48,85.167-1.474,85.167-1.474
	s79.437-31.219,82.754-25.688c3.318,5.53-38.511-42.52-52.891-43.258c-14.378-0.737-16.221-3.318-16.221-3.318L122.693,163.733z"/>
<path fill="#8DC73F" d="M217.241,123.855c0,0,118.919,34.048,112.081,44.611c-7.53,11.637-2.425,2.064-2.425,2.064l-77.289-12.283
	L217.241,123.855z"/>
<path fill="#0A6F9B" d="M316.615,204.264c0,0,3.028-28.357,11.877-34.372c8.848-6.014-80.319-10.393-79.446-12.444l66.158,45.962"/>
<path fill="#FFC556" d="M167.316,173.086c0,0-52.845,25.934-51.867,126.727c0,0-1.499,12.46,3.094,27.524
	c21.874,11.335,46.711,17.745,73.048,17.745c24.793,0,48.26-5.678,69.174-15.8c7.285-50.185-11.738-131.732-11.738-131.732
	S237.773,158.41,167.316,173.086z"/>
<path fill="#FEF7EA" d="M138.33,201.16c0,0,8.571-13.082,58.773-16.146c0,0,50.897,1.01,50.897,8.114c0,7.104,0,7.96,0,7.96
	s1.001-10.457-51.645-7.715c-49.947,2.602-50.312,10.392-52.144,11.616C142.377,206.213,138.33,201.16,138.33,201.16z"/>
<rect x="190" y="161" fill="#FEF7EA" width="6" height="32"/>
<rect x="130.602" y="162.073" transform="matrix(0.8099 -0.5865 0.5865 0.8099 -82.1989 113.4303)" fill="#FEF7EA" width="6.617" height="42.932"/>
<rect x="242.67" y="159.043" transform="matrix(0.9933 0.1158 -0.1158 0.9933 21.9153 -27.2623)" fill="#FEF7EA" width="5.742" height="31.8"/>
<g>
	<path fill="none" stroke="#110101" stroke-width="5.4789" stroke-miterlimit="10" d="M188.262,217.638"/>
	<g>
		<path fill="none" stroke="#110101" stroke-miterlimit="10" d="M187.755,221.947c0,0-2.775,5.372,2.848,5.912"/>
		<path fill="none" stroke="#110101" stroke-miterlimit="10" d="M190.458,227.932c0,0,4.579-0.289,5.083-3.1"/>
		<path fill="none" stroke="#110101" stroke-miterlimit="10" d="M195.796,225.192c0,0,3.458,2.739,5.405,1.731
			c1.945-1.012,3.062-4.398-0.759-6.273"/>
	</g>
	<ellipse fill="#FF6260" cx="231.817" cy="222.562" rx="9.247" ry="8.585"/>
	<g>
		<circle opacity="0.98" fill="#110101" cx="222.666" cy="215.369" r="8.318"/>
		<ellipse fill="#FFFFFF" cx="222.787" cy="209.733" rx="1.542" ry="1.431"/>
		<path fill="#FFFFFF" d="M228.2,211.965c1.142,1.096,1.489,2.585,0.771,3.333c-0.712,0.745-2.22,0.466-3.362-0.629
			c-1.143-1.094-1.488-2.586-0.774-3.333C225.552,210.59,227.059,210.871,228.2,211.965z"/>
	</g>
	<ellipse fill="#FF6260" cx="158.202" cy="219.918" rx="9.249" ry="8.588"/>
	<g>
		<circle opacity="0.98" fill="#110101" cx="166.52" cy="213.389" r="8.318"/>
		<ellipse fill="#FFFFFF" cx="166.641" cy="207.75" rx="1.541" ry="1.433"/>
		<path fill="#FFFFFF" d="M172.053,209.982c1.143,1.094,1.488,2.586,0.773,3.333s-2.223,0.464-3.361-0.629
			c-1.145-1.094-1.49-2.585-0.775-3.333C169.404,208.606,170.91,208.89,172.053,209.982z"/>
	</g>
</g>
</svg>
