<?xml version="1.0" encoding="utf-8"?>
<!-- Generator: Adobe Illustrator 15.1.0, SVG Export Plug-In . SVG Version: 6.00 Build 0)  -->
<!DOCTYPE svg PUBLIC "-//W3C//DTD SVG 1.1//EN" "http://www.w3.org/Graphics/SVG/1.1/DTD/svg11.dtd">
<svg version="1.1" id="Layer_1" xmlns="http://www.w3.org/2000/svg" xmlns:xlink="http://www.w3.org/1999/xlink" x="0px" y="0px"
	 width="366.5px" height="48px" viewBox="0 0 366.5 48" enable-background="new 0 0 366.5 48" xml:space="preserve">
<g enable-background="new    ">
	<path fill="#FF6260" d="M22.664,27.386c-0.305,0.576-0.68,1.104-1.128,1.584c-0.449,0.479-0.953,0.881-1.512,1.2
		c-0.56,0.32-1.096,0.479-1.608,0.479h-6.624v6.769c0,0.641-0.168,1.24-0.504,1.8c-0.336,0.561-0.761,1.049-1.272,1.464
		c-0.512,0.416-1.08,0.736-1.704,0.96c-0.624,0.225-1.224,0.336-1.8,0.336c-0.672,0-1.32-0.144-1.944-0.432
		s-1.192-0.664-1.704-1.128c-0.512-0.464-0.92-1-1.224-1.608c-0.305-0.607-0.456-1.248-0.456-1.92V13.562
		c0-0.415,0.127-0.896,0.384-1.439c0.256-0.544,0.592-1.057,1.008-1.536c0.416-0.48,0.864-0.889,1.344-1.225s0.96-0.504,1.44-0.504
		h13.392c0.48,0,0.968,0.137,1.464,0.408c0.496,0.272,0.952,0.608,1.368,1.008c0.416,0.4,0.76,0.849,1.032,1.345
		c0.271,0.496,0.439,0.952,0.504,1.367v12.769C23.12,26.266,22.967,26.81,22.664,27.386z M7.496,24.193
		c0.4,0.561,1.063,0.84,1.992,0.84c1.92,0,2.88-0.976,2.88-2.928c0-0.864-0.264-1.52-0.792-1.968
		c-0.528-0.448-1.224-0.672-2.088-0.672c-1.185,0-2.048,0.512-2.592,1.536v1.104C6.896,22.938,7.095,23.634,7.496,24.193z
		 M17.671,11.426c0.208,0.144,0.456,0.288,0.744,0.432c0.288,0.145,0.576,0.305,0.864,0.48c0.288,0.176,0.511,0.392,0.672,0.647
		c0.096,0.192,0.168,0.377,0.216,0.553c0.048,0.176,0.104,0.336,0.168,0.479c0.064,0.145,0.152,0.257,0.264,0.336
		c0.112,0.08,0.295,0.12,0.552,0.12c0.128,0,0.24-0.024,0.336-0.072c0.096-0.048,0.175-0.151,0.24-0.312
		c0-0.031,0.007-0.128,0.024-0.288c0.016-0.16,0.024-0.271,0.024-0.336c0-0.416-0.096-0.832-0.288-1.248
		c-0.192-0.416-0.449-0.792-0.768-1.128c-0.32-0.336-0.688-0.601-1.104-0.792c-0.417-0.192-0.848-0.288-1.296-0.288
		c-0.641,0-0.96,0.305-0.96,0.912C17.359,11.113,17.463,11.281,17.671,11.426z"/>
	<path fill="#FF6260" d="M27.871,41.09c-0.48-0.271-0.904-0.601-1.272-0.984c-0.368-0.384-0.672-0.815-0.912-1.296
		c-0.24-0.479-0.36-1.008-0.36-1.584V13.37c0-0.544,0.144-1.096,0.432-1.656c0.288-0.56,0.655-1.063,1.104-1.512
		c0.448-0.448,0.952-0.816,1.512-1.104c0.56-0.288,1.112-0.432,1.656-0.432h12.528c0.512,0,1.032,0.136,1.56,0.407
		c0.528,0.272,1.008,0.617,1.44,1.032c0.432,0.416,0.792,0.881,1.08,1.393s0.432,1.008,0.432,1.487v24.576
		c0,0.513-0.144,1.024-0.432,1.536c-0.288,0.513-0.648,0.977-1.08,1.392c-0.432,0.417-0.912,0.761-1.44,1.032
		c-0.528,0.272-1.048,0.408-1.56,0.408H30.031c-0.192,0-0.432-0.063-0.72-0.192C28.831,41.578,28.351,41.362,27.871,41.09z
		 M31.831,24.29c0.528,0.496,1.208,0.743,2.04,0.743c0.928,0,1.624-0.312,2.088-0.936s0.696-1.384,0.696-2.28
		c0-0.352-0.089-0.688-0.264-1.008c-0.176-0.319-0.408-0.592-0.696-0.815c-0.288-0.224-0.6-0.4-0.936-0.528
		s-0.665-0.192-0.984-0.192c-0.864,0-1.536,0.297-2.016,0.889s-0.72,1.304-0.72,2.136S31.303,23.794,31.831,24.29z M43.423,12.17
		c0.223,0.128,0.384,0.32,0.48,0.576c0.096,0.256,0.192,0.512,0.288,0.768c0.096,0.257,0.208,0.48,0.336,0.672
		c0.127,0.192,0.336,0.288,0.624,0.288h0.096c0.16,0,0.288-0.016,0.384-0.048c0.096-0.031,0.175-0.145,0.24-0.336
		c0-0.031,0.007-0.128,0.024-0.288c0.016-0.16,0.024-0.271,0.024-0.336c0-0.48-0.096-0.928-0.288-1.344
		c-0.192-0.416-0.449-0.776-0.768-1.08c-0.32-0.304-0.688-0.553-1.104-0.744c-0.417-0.192-0.848-0.288-1.296-0.288l-0.624,0.048
		c-0.225,0.032-0.336,0.209-0.336,0.528v0.672L43.423,12.17z"/>
	<path fill="#FF6260" d="M50.815,17.978c-1.024-0.991-1.536-2.304-1.536-3.936c0-0.576,0.12-1.168,0.36-1.776
		c0.24-0.607,0.56-1.159,0.96-1.656c0.4-0.495,0.848-0.912,1.344-1.248c0.496-0.336,1-0.504,1.512-0.504h13.728
		c1.248,0.257,2.224,0.809,2.928,1.656c0.704,0.849,1.056,1.944,1.056,3.288c0,1.664-0.497,2.984-1.488,3.96
		c-0.992,0.977-2.304,1.464-3.936,1.464v18c0,0.064-0.032,0.177-0.096,0.336c-0.064,0.161-0.128,0.336-0.192,0.528
		c-0.064,0.191-0.128,0.376-0.192,0.552c-0.064,0.177-0.112,0.296-0.144,0.36c-1.12,1.984-2.784,2.976-4.992,2.976
		c-0.544,0-1.112-0.127-1.704-0.384c-0.593-0.256-1.152-0.6-1.68-1.032c-0.528-0.432-0.96-0.919-1.296-1.464
		c-0.336-0.544-0.504-1.104-0.504-1.68V19.466C53.215,19.466,51.838,18.97,50.815,17.978z M65.887,11.426
		c0.192,0.144,0.416,0.28,0.672,0.408c0.256,0.128,0.528,0.271,0.816,0.432c0.288,0.16,0.511,0.353,0.672,0.576
		c0.096,0.128,0.168,0.288,0.216,0.479c0.048,0.192,0.112,0.368,0.192,0.528c0.08,0.16,0.176,0.305,0.288,0.432
		c0.112,0.129,0.28,0.192,0.504,0.192c0.16,0,0.304-0.008,0.432-0.024c0.127-0.016,0.24-0.087,0.336-0.216v-0.672
		c0-0.479-0.096-0.928-0.288-1.344c-0.192-0.416-0.448-0.792-0.768-1.128c-0.32-0.336-0.696-0.601-1.128-0.792
		c-0.432-0.192-0.888-0.288-1.368-0.288c-0.576,0-0.864,0.305-0.864,0.912C65.599,11.113,65.695,11.281,65.887,11.426z"/>
	<path fill="#FF6260" d="M73.807,24.29c0.288-0.433,0.64-0.8,1.056-1.104c0.416-0.304,0.888-0.528,1.416-0.672
		c0.528-0.144,1.048-0.216,1.56-0.216h3.6c0.192,0,0.416-0.048,0.672-0.145c0.256-0.096,0.504-0.223,0.744-0.384
		c0.24-0.159,0.448-0.344,0.624-0.552c0.175-0.208,0.264-0.424,0.264-0.648v-2.111c0-0.224-0.104-0.439-0.312-0.648
		c-0.208-0.208-0.456-0.399-0.744-0.576c-0.288-0.175-0.584-0.312-0.888-0.407c-0.304-0.097-0.536-0.145-0.696-0.145h-3.264
		c-0.833,0-1.536-0.111-2.112-0.336c-0.576-0.224-1.041-0.512-1.392-0.864c-0.353-0.352-0.608-0.744-0.768-1.176
		c-0.16-0.432-0.24-0.871-0.24-1.32c0-0.703,0.144-1.319,0.432-1.848c0.288-0.528,0.648-0.976,1.08-1.344
		c0.432-0.368,0.912-0.648,1.44-0.84c0.528-0.192,1.048-0.288,1.56-0.288h12.528c0.543,0,1.096,0.144,1.656,0.432
		c0.56,0.288,1.063,0.656,1.512,1.104c0.448,0.448,0.816,0.952,1.104,1.512c0.288,0.561,0.432,1.112,0.432,1.656v23.855
		c0,0.576-0.12,1.104-0.36,1.584c-0.24,0.48-0.544,0.912-0.912,1.296c-0.368,0.384-0.792,0.713-1.272,0.984
		c-0.48,0.272-0.96,0.488-1.44,0.647c-0.288,0.129-0.528,0.192-0.72,0.192H77.839c-0.512,0-1.032-0.136-1.56-0.408
		c-0.528-0.271-1.008-0.615-1.44-1.032c-0.432-0.415-0.792-0.879-1.08-1.392c-0.288-0.512-0.432-1.023-0.432-1.536v-11.76
		C73.358,25.226,73.519,24.722,73.807,24.29z M79.711,30.434c0.48,0.593,1.152,0.888,2.016,0.888c0.319,0,0.648-0.063,0.984-0.191
		s0.648-0.304,0.936-0.528c0.288-0.224,0.52-0.496,0.696-0.815c0.176-0.32,0.264-0.656,0.264-1.009c0-0.896-0.232-1.663-0.696-2.304
		c-0.464-0.64-1.16-0.96-2.088-0.96c-0.832,0-1.512,0.257-2.04,0.768c-0.528,0.513-0.792,1.2-0.792,2.064
		C78.991,29.146,79.231,29.842,79.711,30.434z M90.511,11.714c0.319,0.08,0.64,0.232,0.96,0.456c0.223,0.128,0.384,0.32,0.48,0.576
		c0.096,0.256,0.192,0.512,0.288,0.768c0.096,0.257,0.208,0.48,0.336,0.672c0.127,0.192,0.336,0.288,0.624,0.288h0.096
		c0.16,0,0.288-0.008,0.384-0.024c0.096-0.016,0.175-0.136,0.24-0.359l0.048-0.624c0-0.48-0.096-0.928-0.288-1.344
		c-0.192-0.416-0.449-0.776-0.768-1.08c-0.32-0.304-0.688-0.553-1.104-0.744c-0.417-0.192-0.848-0.288-1.296-0.288l-0.624,0.048
		c-0.161,0.064-0.257,0.16-0.288,0.288c-0.032,0.128-0.048,0.257-0.048,0.384v0.528C89.871,11.482,90.191,11.634,90.511,11.714z"/>
	<path fill="#FF6260" d="M98.862,17.978c-1.024-0.991-1.536-2.304-1.536-3.936c0-0.576,0.12-1.168,0.36-1.776
		c0.24-0.607,0.56-1.159,0.96-1.656c0.4-0.495,0.848-0.912,1.344-1.248c0.496-0.336,1-0.504,1.512-0.504h13.728
		c1.248,0.257,2.224,0.809,2.928,1.656c0.704,0.849,1.056,1.944,1.056,3.288c0,1.664-0.497,2.984-1.488,3.96
		c-0.992,0.977-2.304,1.464-3.936,1.464v18c0,0.064-0.032,0.177-0.096,0.336c-0.064,0.161-0.128,0.336-0.192,0.528
		c-0.064,0.191-0.128,0.376-0.192,0.552c-0.064,0.177-0.112,0.296-0.144,0.36c-1.12,1.984-2.784,2.976-4.992,2.976
		c-0.544,0-1.112-0.127-1.704-0.384c-0.593-0.256-1.152-0.6-1.68-1.032c-0.528-0.432-0.96-0.919-1.296-1.464
		c-0.336-0.544-0.504-1.104-0.504-1.68V19.466C101.262,19.466,99.886,18.97,98.862,17.978z M113.934,11.426
		c0.192,0.144,0.416,0.28,0.672,0.408c0.256,0.128,0.528,0.271,0.816,0.432c0.288,0.16,0.511,0.353,0.672,0.576
		c0.096,0.128,0.168,0.288,0.216,0.479c0.048,0.192,0.112,0.368,0.192,0.528c0.08,0.16,0.176,0.305,0.288,0.432
		c0.112,0.129,0.28,0.192,0.504,0.192c0.16,0,0.304-0.008,0.432-0.024c0.127-0.016,0.24-0.087,0.336-0.216v-0.672
		c0-0.479-0.096-0.928-0.288-1.344c-0.192-0.416-0.448-0.792-0.768-1.128c-0.32-0.336-0.696-0.601-1.128-0.792
		c-0.432-0.192-0.888-0.288-1.368-0.288c-0.576,0-0.864,0.305-0.864,0.912C113.646,11.113,113.742,11.281,113.934,11.426z"/>
	<path fill="#FF6260" d="M123.966,41.09c-0.48-0.271-0.904-0.601-1.272-0.984c-0.368-0.384-0.672-0.815-0.912-1.296
		c-0.24-0.479-0.36-1.008-0.36-1.584V13.37c0-0.544,0.144-1.096,0.432-1.656c0.288-0.56,0.655-1.063,1.104-1.512
		c0.448-0.448,0.952-0.816,1.512-1.104c0.56-0.288,1.112-0.432,1.656-0.432h12.528c0.512,0,1.032,0.136,1.56,0.407
		c0.528,0.272,1.008,0.617,1.44,1.032c0.432,0.416,0.792,0.881,1.08,1.393s0.432,1.008,0.432,1.487v24.576
		c0,0.513-0.144,1.024-0.432,1.536c-0.288,0.513-0.648,0.977-1.08,1.392c-0.432,0.417-0.912,0.761-1.44,1.032
		c-0.528,0.272-1.048,0.408-1.56,0.408h-12.528c-0.192,0-0.432-0.063-0.72-0.192C124.926,41.578,124.446,41.362,123.966,41.09z
		 M127.926,24.29c0.528,0.496,1.208,0.743,2.04,0.743c0.928,0,1.624-0.312,2.088-0.936s0.696-1.384,0.696-2.28
		c0-0.352-0.089-0.688-0.264-1.008c-0.176-0.319-0.408-0.592-0.696-0.815c-0.288-0.224-0.6-0.4-0.936-0.528
		s-0.665-0.192-0.984-0.192c-0.864,0-1.536,0.297-2.016,0.889s-0.72,1.304-0.72,2.136S127.398,23.794,127.926,24.29z M139.519,12.17
		c0.223,0.128,0.384,0.32,0.48,0.576c0.096,0.256,0.192,0.512,0.288,0.768c0.096,0.257,0.208,0.48,0.336,0.672
		c0.127,0.192,0.336,0.288,0.624,0.288h0.096c0.16,0,0.288-0.016,0.384-0.048c0.096-0.031,0.175-0.145,0.24-0.336
		c0-0.031,0.007-0.128,0.024-0.288c0.016-0.16,0.024-0.271,0.024-0.336c0-0.48-0.096-0.928-0.288-1.344
		c-0.192-0.416-0.449-0.776-0.768-1.08c-0.32-0.304-0.688-0.553-1.104-0.744c-0.417-0.192-0.848-0.288-1.296-0.288l-0.624,0.048
		c-0.225,0.032-0.336,0.209-0.336,0.528v0.672L139.519,12.17z"/>
	<path fill="#FF6260" d="M165.03,21.914c0.528,0.288,0.936,0.624,1.224,1.008s0.488,0.776,0.6,1.176
		c0.112,0.4,0.184,0.713,0.216,0.936c0,1.089-0.304,2.024-0.912,2.809c-0.608,0.784-1.632,1.176-3.072,1.176h-3.6
		c-0.768,0-1.32,0.168-1.656,0.504s-0.504,0.744-0.504,1.225v1.344c0,0.256,0.104,0.496,0.312,0.72
		c0.208,0.225,0.456,0.416,0.744,0.576c0.288,0.16,0.576,0.296,0.864,0.408s0.511,0.168,0.672,0.168h2.928
		c0.576,0,1.12,0.112,1.632,0.336c0.512,0.224,0.967,0.504,1.368,0.84c0.399,0.336,0.711,0.72,0.936,1.152
		c0.223,0.432,0.336,0.856,0.336,1.271c0,1.44-0.36,2.528-1.08,3.265c-0.72,0.736-1.865,1.104-3.432,1.104h-12.528
		c-0.544,0-1.097-0.144-1.656-0.432c-0.56-0.288-1.064-0.656-1.512-1.104c-0.449-0.447-0.816-0.96-1.104-1.536
		s-0.432-1.135-0.432-1.68V13.37c0-0.544,0.144-1.096,0.432-1.656c0.288-0.56,0.655-1.063,1.104-1.512
		c0.448-0.448,0.952-0.816,1.512-1.104c0.56-0.288,1.112-0.432,1.656-0.432h12.528c0.512,0,1.032,0.088,1.56,0.264
		s1.008,0.432,1.44,0.768s0.792,0.761,1.08,1.272c0.288,0.513,0.432,1.12,0.432,1.824v0.288c0,0.575-0.137,1.088-0.408,1.536
		c-0.272,0.448-0.624,0.824-1.056,1.128c-0.432,0.304-0.896,0.536-1.392,0.695c-0.497,0.161-0.984,0.24-1.464,0.24h-2.88
		c-0.256,0-0.536,0.048-0.84,0.145c-0.305,0.096-0.584,0.232-0.84,0.407c-0.256,0.177-0.472,0.368-0.648,0.576
		c-0.176,0.209-0.264,0.425-0.264,0.648v1.296c0,0.479,0.264,0.872,0.792,1.176c0.528,0.305,0.984,0.488,1.368,0.552h3.408
		C163.79,21.481,164.502,21.626,165.03,21.914z M163.47,12.17c0.223,0.128,0.384,0.32,0.48,0.576
		c0.096,0.256,0.192,0.512,0.288,0.768c0.096,0.257,0.208,0.48,0.336,0.672c0.127,0.192,0.336,0.288,0.624,0.288h0.144
		c0.16,0,0.28-0.016,0.36-0.048c0.08-0.031,0.151-0.145,0.216-0.336l0.048-0.624c0-0.48-0.096-0.928-0.288-1.344
		c-0.192-0.416-0.449-0.776-0.768-1.08c-0.32-0.304-0.688-0.553-1.104-0.744c-0.417-0.192-0.848-0.288-1.296-0.288l-0.624,0.048
		c-0.161,0.064-0.257,0.16-0.288,0.288c-0.032,0.128-0.048,0.257-0.048,0.384v0.528L163.47,12.17z M163.518,24.842
		c0.224,0.128,0.375,0.296,0.456,0.504c0.08,0.208,0.151,0.416,0.216,0.624c0.064,0.208,0.151,0.393,0.264,0.552
		c0.112,0.161,0.312,0.24,0.6,0.24h0.192c0.127,0,0.231-0.016,0.312-0.048c0.08-0.031,0.151-0.145,0.216-0.336l0.048-0.816
		c0-0.864-0.312-1.56-0.936-2.088s-1.368-0.792-2.232-0.792l-0.72,0.048c-0.161,0.064-0.256,0.161-0.288,0.288
		c-0.032,0.128-0.048,0.257-0.048,0.384v0.528L163.518,24.842z M163.518,37.321c0.224,0.129,0.375,0.305,0.456,0.528
		c0.08,0.225,0.151,0.44,0.216,0.648c0.064,0.208,0.151,0.384,0.264,0.527c0.112,0.145,0.312,0.216,0.6,0.216h0.192
		c0.127,0,0.231-0.016,0.312-0.048c0.08-0.031,0.151-0.144,0.216-0.336l0.048-0.815c0-0.864-0.312-1.561-0.936-2.088
		c-0.624-0.528-1.368-0.792-2.232-0.792l-0.72,0.048c-0.161,0.064-0.256,0.16-0.288,0.288c-0.032,0.128-0.048,0.256-0.048,0.384
		v0.528L163.518,37.321z"/>
	<path fill="#FF6260" d="M202.973,39.098c-0.287,0.513-0.647,0.977-1.08,1.392c-0.432,0.417-0.912,0.761-1.439,1.032
		c-0.527,0.272-1.049,0.408-1.561,0.408h-12.527c-0.191,0-0.432-0.063-0.721-0.192c-0.479-0.159-0.959-0.375-1.439-0.647
		c-0.48-0.271-0.904-0.601-1.272-0.984c-0.368-0.384-0.672-0.815-0.912-1.296c-0.24-0.479-0.36-1.008-0.36-1.584V13.37
		c0-0.544,0.144-1.096,0.432-1.656c0.288-0.56,0.655-1.063,1.104-1.512c0.448-0.448,0.951-0.816,1.512-1.104
		c0.56-0.288,1.111-0.432,1.656-0.432h12.527c0.512,0,1.033,0.136,1.561,0.407c0.527,0.272,1.008,0.617,1.439,1.032
		c0.433,0.416,0.793,0.881,1.08,1.393c0.289,0.512,0.433,1.008,0.433,1.487v2.736c0,0.257-0.081,0.576-0.24,0.96
		c-0.161,0.384-0.416,0.768-0.769,1.152c-0.352,0.384-0.815,0.712-1.391,0.983c-0.576,0.272-1.281,0.408-2.113,0.408h-3.264
		c-0.16,0-0.393,0.048-0.695,0.145c-0.305,0.096-0.601,0.232-0.889,0.407c-0.287,0.177-0.536,0.368-0.744,0.576
		c-0.208,0.209-0.312,0.425-0.312,0.648v2.111c0,0.225,0.087,0.44,0.264,0.648c0.176,0.208,0.384,0.384,0.624,0.528
		c0.24,0.144,0.488,0.264,0.744,0.359c0.256,0.097,0.48,0.145,0.672,0.145h3.6c0.512,0,1.033,0.08,1.561,0.239
		c0.527,0.161,1,0.385,1.416,0.673s0.768,0.656,1.057,1.104c0.287,0.448,0.447,0.96,0.479,1.536v9.216
		C203.405,38.074,203.262,38.586,202.973,39.098z M198.029,27.29c0.191,0.128,0.416,0.239,0.672,0.336
		c0.256,0.096,0.504,0.185,0.744,0.264c0.24,0.08,0.408,0.185,0.504,0.312c0.127,0.16,0.231,0.352,0.312,0.575
		c0.079,0.225,0.168,0.456,0.264,0.696s0.223,0.44,0.384,0.6c0.159,0.161,0.368,0.24,0.624,0.24c0.512,0,0.768-0.304,0.768-0.912
		c0-0.447-0.128-0.888-0.384-1.319c-0.257-0.433-0.568-0.808-0.937-1.128c-0.367-0.32-0.76-0.576-1.176-0.769
		c-0.416-0.191-0.784-0.288-1.104-0.288h-0.624c-0.161,0.064-0.257,0.216-0.288,0.456c-0.032,0.24-0.048,0.393-0.048,0.456
		C197.741,27.002,197.837,27.162,198.029,27.29z M199.758,12.17c0.223,0.128,0.383,0.32,0.479,0.576
		c0.096,0.256,0.192,0.512,0.288,0.768c0.096,0.257,0.207,0.48,0.336,0.672c0.127,0.192,0.336,0.288,0.624,0.288h0.144
		c0.16,0,0.279-0.016,0.36-0.048c0.079-0.031,0.151-0.145,0.216-0.336l0.048-0.624c0-0.48-0.096-0.928-0.288-1.344
		c-0.191-0.416-0.448-0.776-0.768-1.08c-0.32-0.304-0.688-0.553-1.104-0.744c-0.417-0.192-0.849-0.288-1.297-0.288l-0.623,0.048
		c-0.161,0.064-0.258,0.16-0.289,0.288s-0.048,0.257-0.048,0.384v0.528L199.758,12.17z"/>
	<path fill="#FF6260" d="M208.156,41.09c-0.479-0.271-0.904-0.601-1.271-0.984c-0.368-0.384-0.672-0.815-0.912-1.296
		c-0.24-0.479-0.359-1.008-0.359-1.584V13.37c0-0.544,0.144-1.096,0.432-1.656c0.288-0.56,0.655-1.063,1.104-1.512
		s0.952-0.816,1.512-1.104c0.561-0.288,1.112-0.432,1.656-0.432h12.528c0.512,0,1.032,0.136,1.56,0.407
		c0.528,0.272,1.008,0.617,1.44,1.032c0.433,0.416,0.792,0.881,1.08,1.393s0.433,1.008,0.433,1.487v24.576
		c0,0.513-0.145,1.024-0.433,1.536c-0.288,0.513-0.647,0.977-1.08,1.392c-0.433,0.417-0.912,0.761-1.44,1.032
		c-0.527,0.272-1.048,0.408-1.56,0.408h-12.528c-0.191,0-0.432-0.063-0.72-0.192C209.117,41.578,208.637,41.362,208.156,41.09z
		 M212.117,24.29c0.527,0.496,1.207,0.743,2.039,0.743c0.928,0,1.625-0.312,2.088-0.936c0.465-0.624,0.697-1.384,0.697-2.28
		c0-0.352-0.09-0.688-0.265-1.008c-0.177-0.319-0.408-0.592-0.696-0.815c-0.287-0.224-0.6-0.4-0.936-0.528s-0.664-0.192-0.984-0.192
		c-0.863,0-1.535,0.297-2.016,0.889s-0.721,1.304-0.721,2.136S211.589,23.794,212.117,24.29z M223.709,12.17
		c0.223,0.128,0.384,0.32,0.48,0.576c0.096,0.256,0.191,0.512,0.287,0.768c0.096,0.257,0.208,0.48,0.336,0.672
		c0.128,0.192,0.336,0.288,0.625,0.288h0.096c0.159,0,0.287-0.016,0.384-0.048c0.096-0.031,0.175-0.145,0.239-0.336
		c0-0.031,0.008-0.128,0.024-0.288s0.024-0.271,0.024-0.336c0-0.48-0.096-0.928-0.288-1.344s-0.448-0.776-0.769-1.08
		s-0.688-0.553-1.104-0.744c-0.416-0.192-0.848-0.288-1.296-0.288l-0.624,0.048c-0.225,0.032-0.336,0.209-0.336,0.528v0.672
		L223.709,12.17z"/>
	<path fill="#FF6260" d="M254.717,8.618c0.895,0,1.76,0.184,2.592,0.552s1.535,0.936,2.111,1.704
		c0.032,0.096,0.088,0.232,0.168,0.407c0.08,0.177,0.168,0.36,0.265,0.553c0.096,0.191,0.175,0.392,0.239,0.6
		c0.064,0.209,0.097,0.377,0.097,0.504v26.688c0,0.641-0.305,1.184-0.912,1.632c-0.608,0.448-1.2,0.672-1.776,0.672
		c-0.287,0-0.592-0.063-0.912-0.192c-0.32-0.127-0.623-0.304-0.912-0.527c-0.287-0.224-0.52-0.48-0.695-0.769
		s-0.264-0.607-0.264-0.96v-5.952c0-0.703-0.289-1.264-0.864-1.68c-0.576-0.415-1.136-0.624-1.681-0.624
		c-0.8,0-1.384,0.192-1.752,0.576c-0.367,0.384-0.68,0.912-0.936,1.584v3.696c0,0.544-0.12,1.096-0.359,1.655
		c-0.24,0.561-0.553,1.08-0.937,1.561c-0.384,0.479-0.824,0.872-1.319,1.176c-0.497,0.305-1.001,0.456-1.513,0.456h-0.72
		c-0.513,0-1.025-0.144-1.536-0.432c-0.513-0.288-0.968-0.656-1.368-1.104c-0.4-0.447-0.729-0.943-0.984-1.488
		c-0.256-0.543-0.384-1.071-0.384-1.584v-3.983c-0.16-0.736-0.407-1.272-0.743-1.608s-0.905-0.504-1.705-0.504
		c-0.256,0-0.552,0.048-0.888,0.145c-0.336,0.096-0.647,0.232-0.937,0.407c-0.287,0.177-0.527,0.4-0.719,0.672
		c-0.192,0.272-0.289,0.569-0.289,0.889v6.144c0,0.353-0.088,0.672-0.264,0.96s-0.408,0.545-0.695,0.769
		c-0.289,0.224-0.594,0.4-0.912,0.527c-0.32,0.129-0.625,0.192-0.912,0.192c-0.576,0-1.176-0.216-1.801-0.648
		c-0.623-0.432-0.936-0.983-0.936-1.655V12.938c0-0.096,0.031-0.24,0.096-0.432c0.064-0.192,0.137-0.4,0.217-0.624
		c0.079-0.224,0.168-0.424,0.264-0.601c0.096-0.175,0.191-0.312,0.287-0.407c0.576-0.769,1.265-1.336,2.064-1.704
		s1.664-0.552,2.592-0.552c0.607,0,1.225,0.096,1.849,0.287c0.624,0.192,1.183,0.473,1.68,0.841
		c0.496,0.368,0.919,0.808,1.272,1.319c0.352,0.513,0.576,1.089,0.672,1.729c0.063,0.544,0.104,1.145,0.119,1.8
		c0.017,0.656,0.112,1.271,0.289,1.848c0.176,0.576,0.455,1.064,0.84,1.464c0.384,0.401,0.976,0.601,1.775,0.601h2.832
		c0.641,0,1.225-0.504,1.752-1.512c0.528-1.009,0.793-2.425,0.793-4.248c0.096-0.641,0.327-1.216,0.695-1.729
		c0.367-0.512,0.824-0.943,1.368-1.296c0.544-0.352,1.136-0.624,1.776-0.816C253.436,8.714,254.076,8.618,254.717,8.618z
		 M234.94,10.826c0,0.191,0.088,0.359,0.265,0.504c0.175,0.144,0.383,0.271,0.623,0.384s0.473,0.208,0.696,0.288
		s0.399,0.168,0.528,0.264c0.191,0.192,0.336,0.408,0.432,0.648c0.096,0.239,0.191,0.472,0.288,0.695
		c0.097,0.225,0.216,0.417,0.36,0.576c0.144,0.16,0.359,0.24,0.647,0.24c0.256,0,0.424-0.031,0.505-0.096
		c0.078-0.064,0.15-0.288,0.215-0.673v-0.239c0-0.416-0.104-0.832-0.312-1.248s-0.479-0.792-0.815-1.128s-0.721-0.601-1.152-0.792
		c-0.432-0.192-0.857-0.288-1.272-0.288l-0.624,0.048C235.068,10.267,234.94,10.538,234.94,10.826z M254.572,10.874
		c0,0.256,0.104,0.424,0.312,0.504c0.207,0.08,0.391,0.152,0.552,0.216c0.479,0.096,0.855,0.296,1.128,0.6
		c0.271,0.305,0.496,0.624,0.672,0.96s0.344,0.633,0.504,0.889s0.367,0.384,0.624,0.384c0.319,0,0.521-0.088,0.601-0.264
		c0.079-0.176,0.119-0.392,0.119-0.648c0-0.415-0.088-0.84-0.264-1.272c-0.176-0.432-0.424-0.815-0.744-1.151
		s-0.68-0.607-1.08-0.816c-0.4-0.207-0.84-0.312-1.32-0.312c-0.352,0-0.623,0.04-0.815,0.12S254.572,10.426,254.572,10.874z"/>
	<path fill="#FF6260" d="M283.876,27.386c-0.305,0.576-0.681,1.104-1.128,1.584c-0.449,0.479-0.953,0.881-1.512,1.2
		c-0.561,0.32-1.097,0.479-1.608,0.479h-6.624v6.769c0,0.641-0.168,1.24-0.504,1.8c-0.336,0.561-0.761,1.049-1.271,1.464
		c-0.513,0.416-1.08,0.736-1.705,0.96c-0.623,0.225-1.224,0.336-1.799,0.336c-0.673,0-1.32-0.144-1.945-0.432
		c-0.623-0.288-1.191-0.664-1.703-1.128s-0.92-1-1.225-1.608c-0.305-0.607-0.455-1.248-0.455-1.92V13.562
		c0-0.415,0.127-0.896,0.383-1.439s0.592-1.057,1.009-1.536c0.415-0.48,0.864-0.889,1.344-1.225s0.96-0.504,1.44-0.504h13.392
		c0.479,0,0.968,0.137,1.464,0.408c0.496,0.272,0.952,0.608,1.368,1.008c0.415,0.4,0.76,0.849,1.032,1.345
		c0.271,0.496,0.439,0.952,0.504,1.367v12.769C284.332,26.266,284.18,26.81,283.876,27.386z M268.708,24.193
		c0.399,0.561,1.063,0.84,1.992,0.84c1.92,0,2.88-0.976,2.88-2.928c0-0.864-0.264-1.52-0.792-1.968s-1.224-0.672-2.088-0.672
		c-1.185,0-2.048,0.512-2.593,1.536v1.104C268.107,22.938,268.308,23.634,268.708,24.193z M278.884,11.426
		c0.208,0.144,0.456,0.288,0.744,0.432c0.288,0.145,0.576,0.305,0.864,0.48c0.287,0.176,0.512,0.392,0.672,0.647
		c0.096,0.192,0.168,0.377,0.216,0.553s0.104,0.336,0.168,0.479c0.063,0.145,0.151,0.257,0.265,0.336
		c0.111,0.08,0.295,0.12,0.551,0.12c0.129,0,0.24-0.024,0.337-0.072c0.096-0.048,0.175-0.151,0.239-0.312
		c0-0.031,0.008-0.128,0.024-0.288s0.024-0.271,0.024-0.336c0-0.416-0.096-0.832-0.288-1.248s-0.448-0.792-0.769-1.128
		s-0.688-0.601-1.104-0.792c-0.416-0.192-0.848-0.288-1.296-0.288c-0.641,0-0.96,0.305-0.96,0.912
		C278.572,11.113,278.676,11.281,278.884,11.426z"/>
	<path fill="#FF6260" d="M299.74,40.706c-0.93-0.848-1.553-1.896-1.873-3.145v-3.696c0-0.831-0.191-1.439-0.576-1.823
		c-0.383-0.385-0.848-0.576-1.392-0.576h-2.016c-0.257,0-0.497,0.104-0.72,0.312c-0.225,0.209-0.417,0.456-0.576,0.744
		c-0.16,0.288-0.297,0.576-0.408,0.864c-0.113,0.288-0.168,0.512-0.168,0.672v5.76c0,0.32-0.096,0.608-0.288,0.864
		c-0.192,0.257-0.433,0.48-0.72,0.672c-0.289,0.192-0.593,0.345-0.912,0.456c-0.32,0.112-0.608,0.168-0.864,0.168
		c-0.288,0-0.593-0.063-0.912-0.191c-0.32-0.128-0.616-0.304-0.888-0.528c-0.272-0.224-0.488-0.487-0.648-0.792
		c-0.16-0.304-0.24-0.616-0.24-0.937V13.37c0-0.544,0.152-1.096,0.457-1.656c0.303-0.56,0.688-1.063,1.151-1.512
		s0.968-0.816,1.513-1.104c0.543-0.288,1.071-0.432,1.584-0.432h12.336c0.511,0,1.039,0.136,1.584,0.407
		c0.543,0.272,1.047,0.617,1.512,1.032c0.463,0.416,0.848,0.881,1.152,1.393c0.303,0.512,0.455,1.008,0.455,1.487v24.816
		c0,0.544-0.168,1.064-0.504,1.56c-0.336,0.497-0.76,0.937-1.271,1.32c-0.513,0.384-1.072,0.696-1.68,0.937
		c-0.609,0.239-1.169,0.359-1.681,0.359C301.804,41.978,300.668,41.554,299.74,40.706z M292.875,24.241
		c0.512,0.528,1.168,0.792,1.969,0.792c0.832,0,1.52-0.247,2.064-0.743c0.543-0.496,0.815-1.16,0.815-1.992
		c0-0.864-0.257-1.584-0.769-2.16s-1.216-0.864-2.111-0.864c-0.801,0-1.457,0.297-1.969,0.889s-0.768,1.304-0.768,2.136
		C292.107,23.065,292.363,23.714,292.875,24.241z M302.979,11.354c0.176,0.129,0.384,0.24,0.624,0.336
		c0.24,0.097,0.472,0.185,0.695,0.265c0.225,0.08,0.385,0.2,0.48,0.359c0.096,0.161,0.192,0.36,0.288,0.601
		c0.097,0.239,0.208,0.472,0.336,0.695c0.128,0.225,0.265,0.425,0.408,0.601s0.312,0.264,0.504,0.264
		c0.319,0,0.576-0.128,0.769-0.384c0-0.031,0.007-0.128,0.023-0.288c0.016-0.16,0.023-0.271,0.023-0.336
		c0-0.544-0.119-1.04-0.359-1.488c-0.24-0.447-0.536-0.823-0.888-1.128c-0.353-0.304-0.761-0.544-1.224-0.72
		c-0.465-0.176-0.905-0.265-1.32-0.265h-0.096c-0.258,0.129-0.408,0.249-0.457,0.36c-0.047,0.112-0.072,0.28-0.072,0.504
		C302.715,11.018,302.803,11.227,302.979,11.354z"/>
	<path fill="#FF6260" d="M317.811,8.954c0.625,0.191,1.192,0.472,1.705,0.84c0.512,0.368,0.943,0.809,1.295,1.319
		c0.353,0.513,0.576,1.089,0.673,1.729c0.031,0.353,0.048,0.704,0.048,1.056c0,0.353,0,0.704,0,1.057
		c0,0.479,0.031,0.943,0.096,1.392s0.199,0.84,0.408,1.176c0.208,0.336,0.504,0.601,0.889,0.792
		c0.383,0.192,0.895,0.288,1.535,0.288s1.207-0.159,1.704-0.479c0.496-0.32,0.841-0.8,1.032-1.44c0-0.896,0.031-1.815,0.096-2.76
		c0.064-0.943,0.264-1.808,0.6-2.592s0.872-1.424,1.608-1.92c0.735-0.496,1.776-0.744,3.12-0.744c0.576,0,1.176,0.12,1.801,0.359
		c0.623,0.24,1.199,0.576,1.727,1.008c0.529,0.433,0.969,0.929,1.32,1.488c0.352,0.561,0.528,1.176,0.528,1.849v23.855
		c0,0.513-0.136,1.049-0.407,1.608c-0.273,0.56-0.625,1.063-1.057,1.512s-0.92,0.824-1.464,1.128
		c-0.544,0.305-1.073,0.456-1.584,0.456h-7.152c-0.448,0-0.92-0.136-1.416-0.408c-0.496-0.271-0.904-0.535-1.224-0.792
		c-0.832-0.672-1.377-1.447-1.633-2.328c-0.256-0.88-0.383-1.815-0.383-2.808v-0.96v-0.48c0-0.256-0.018-0.447-0.049-0.575
		c-0.256-0.673-0.584-1.225-0.984-1.656c-0.4-0.433-1.016-0.648-1.848-0.648c-0.256,0-0.552,0.057-0.888,0.168
		c-0.336,0.112-0.647,0.265-0.937,0.456c-0.287,0.192-0.527,0.433-0.72,0.721c-0.192,0.287-0.288,0.607-0.288,0.96v5.951
		c0,0.353-0.088,0.673-0.264,0.96c-0.176,0.288-0.4,0.545-0.672,0.769c-0.272,0.225-0.576,0.4-0.912,0.528s-0.648,0.191-0.936,0.191
		c-0.576,0-1.169-0.224-1.776-0.672c-0.608-0.447-0.912-0.991-0.912-1.632V12.985c0-0.127,0.032-0.295,0.097-0.504
		c0.062-0.207,0.144-0.415,0.239-0.624c0.097-0.207,0.192-0.399,0.288-0.576c0.096-0.175,0.176-0.295,0.24-0.359
		c0.543-0.769,1.215-1.336,2.016-1.704c0.8-0.367,1.664-0.552,2.592-0.552C316.57,8.666,317.188,8.762,317.811,8.954z
		 M315.987,11.378c0.175,0.144,0.384,0.264,0.624,0.359c0.24,0.097,0.48,0.192,0.72,0.288c0.24,0.097,0.408,0.192,0.505,0.288
		c0.191,0.192,0.336,0.408,0.432,0.648s0.191,0.473,0.287,0.695c0.097,0.225,0.217,0.417,0.36,0.576
		c0.144,0.161,0.36,0.24,0.647,0.24c0.256,0,0.424-0.056,0.505-0.168c0.079-0.111,0.151-0.36,0.216-0.744V13.37
		c0-0.448-0.112-0.88-0.336-1.297c-0.225-0.415-0.504-0.775-0.84-1.079c-0.336-0.305-0.713-0.544-1.129-0.721
		c-0.416-0.175-0.832-0.264-1.247-0.264l-0.624,0.048c-0.257,0.257-0.385,0.528-0.385,0.816
		C315.723,11.065,315.811,11.233,315.987,11.378z M332.547,11.426c0.208,0.08,0.392,0.152,0.553,0.216
		c0.512,0.096,0.903,0.296,1.176,0.6c0.271,0.305,0.496,0.624,0.672,0.961c0.176,0.336,0.344,0.632,0.504,0.888
		s0.367,0.384,0.624,0.384c0.512,0,0.769-0.304,0.769-0.912c0-0.415-0.097-0.84-0.289-1.271c-0.191-0.433-0.439-0.816-0.744-1.152
		c-0.304-0.336-0.664-0.607-1.079-0.816c-0.417-0.207-0.849-0.312-1.296-0.312c-0.416,0-0.721,0.04-0.912,0.12
		c-0.192,0.08-0.288,0.344-0.288,0.792C332.235,11.178,332.339,11.346,332.547,11.426z"/>
	<path fill="#FF6260" d="M344.139,25.514c-0.96-0.128-1.856-0.607-2.688-1.44c-0.833-0.831-1.248-2.031-1.248-3.6v-9.408
		c0-0.319,0.079-0.631,0.24-0.936c0.159-0.304,0.375-0.568,0.647-0.792c0.271-0.224,0.567-0.4,0.888-0.528
		c0.32-0.127,0.624-0.191,0.912-0.191c0.256,0,0.544,0.048,0.863,0.144c0.32,0.096,0.625,0.24,0.912,0.432
		c0.289,0.192,0.529,0.417,0.721,0.672c0.191,0.257,0.288,0.545,0.288,0.864v5.76c0,0.161,0.056,0.393,0.168,0.696
		c0.112,0.305,0.247,0.601,0.407,0.888c0.16,0.288,0.353,0.537,0.576,0.744c0.225,0.209,0.464,0.312,0.721,0.312h2.016
		c0.224,0,0.439-0.088,0.648-0.265c0.207-0.175,0.399-0.384,0.576-0.624c0.175-0.239,0.312-0.487,0.408-0.743
		c0.096-0.256,0.144-0.48,0.144-0.672c0.063-0.192,0.111-0.624,0.144-1.297c0.031-0.672,0.049-1.264,0.049-1.775v-0.769
		c0.318-1.216,0.943-2.247,1.871-3.096c0.928-0.848,2.064-1.271,3.408-1.271c0.512,0,1.072,0.119,1.68,0.359s1.168,0.552,1.68,0.937
		c0.512,0.384,0.937,0.832,1.273,1.344c0.336,0.512,0.504,1.024,0.504,1.536v7.68c0,0.833-0.168,1.553-0.504,2.16
		c-0.337,0.608-0.729,1.12-1.177,1.536s-0.904,0.736-1.368,0.96s-0.824,0.353-1.08,0.384h-1.584v11.904
		c0,0.641-0.168,1.24-0.504,1.8c-0.336,0.561-0.76,1.049-1.271,1.464c-0.513,0.416-1.08,0.744-1.705,0.984
		c-0.623,0.239-1.223,0.359-1.799,0.359c-0.641,0-1.281-0.144-1.92-0.432c-0.641-0.288-1.217-0.664-1.729-1.128s-0.92-1-1.225-1.608
		c-0.304-0.607-0.455-1.248-0.455-1.92V25.514H344.139z M356.379,10.729c0,0.288,0.088,0.497,0.264,0.624
		c0.176,0.129,0.385,0.24,0.624,0.336c0.24,0.097,0.472,0.185,0.696,0.265c0.223,0.08,0.384,0.2,0.48,0.359
		c0.096,0.161,0.191,0.36,0.287,0.601c0.096,0.239,0.208,0.472,0.336,0.695c0.128,0.225,0.264,0.425,0.408,0.601
		s0.312,0.264,0.504,0.264c0.32,0,0.576-0.128,0.768-0.384l0.049-0.624c0-0.544-0.129-1.032-0.385-1.464
		c-0.256-0.433-0.584-0.8-0.983-1.104c-0.4-0.304-0.824-0.544-1.272-0.72s-0.863-0.28-1.248-0.312
		c-0.256,0.129-0.408,0.249-0.455,0.36C356.402,10.338,356.379,10.506,356.379,10.729z"/>
</g>
</svg>
