<?xml version="1.0" encoding="utf-8"?>
<!-- Generator: Adobe Illustrator 15.1.0, SVG Export Plug-In . SVG Version: 6.00 Build 0)  -->
<!DOCTYPE svg PUBLIC "-//W3C//DTD SVG 1.1//EN" "http://www.w3.org/Graphics/SVG/1.1/DTD/svg11.dtd">
<svg version="1.1" id="Layer_1" xmlns="http://www.w3.org/2000/svg" xmlns:xlink="http://www.w3.org/1999/xlink" x="0px" y="0px"
	 width="1024px" height="768px" viewBox="0 0 1024 768" enable-background="new 0 0 1024 768" xml:space="preserve">
<path fill="#00233D" d="M-2-4v780h1034V-4H-2z M609.456,521H442.61c-3.678-7-5.694-19.041-5.694-30.177
	c0-49.617,39.899-89.102,89.117-89.102c49.214,0,89.114,39.12,89.114,88.735C615.147,501.596,613.13,514,609.456,521z"/>
<g>
	<path fill="#012B4A" d="M571.871,203.067c0,26.241-22.285,47.52-49.773,47.52c-27.49,0-49.773-21.278-49.773-47.52
		c0-26.232,22.283-47.516,49.773-47.516C549.586,155.552,571.871,176.835,571.871,203.067z"/>
	<ellipse fill="#012B4A" cx="332.47" cy="685.088" rx="49.775" ry="47.517"/>
	<path fill="#012B4A" d="M414.357,599.248c0,26.246-22.28,47.52-49.771,47.52c-27.491,0-49.778-21.273-49.778-47.52
		c0-26.234,22.287-47.512,49.778-47.512C392.077,551.736,414.357,573.014,414.357,599.248z"/>
	<path fill="#012B4A" d="M444.334,511.371c0,26.242-22.284,47.522-49.778,47.522c-27.49,0-49.771-21.28-49.771-47.522
		c0-26.238,22.281-47.514,49.771-47.514C422.05,463.857,444.334,485.133,444.334,511.371z"/>
	<path fill="#012B4A" d="M470.028,425.532c0,26.241-22.284,47.518-49.777,47.518c-27.495,0-49.779-21.276-49.779-47.518
		c0-26.24,22.284-47.507,49.779-47.507C447.744,378.025,470.028,399.292,470.028,425.532z"/>
	<path fill="#012B4A" d="M497.862,337.65c0,26.242-22.286,47.515-49.777,47.515c-27.488,0-49.779-21.272-49.779-47.515
		c0-26.234,22.291-47.506,49.779-47.506C475.576,290.145,497.862,311.416,497.862,337.65z"/>
	<path fill="#012B4A" d="M529.976,249.774c0,26.242-22.287,47.513-49.776,47.513c-27.494,0-49.774-21.271-49.774-47.513
		c0-26.237,22.28-47.513,49.774-47.513C507.688,202.262,529.976,223.537,529.976,249.774z"/>
	<polygon fill="#012B4A" points="516.448,176.564 714.915,732 336.441,732 	"/>
	<path fill="#012B4A" d="M573.312,208.112c0,25.847-20.955,46.808-46.803,46.808c-25.849,0-46.802-20.961-46.802-46.808
		c0-25.842,20.953-46.804,46.802-46.804C552.356,161.309,573.312,182.271,573.312,208.112z"/>
	<path fill="#012B4A" d="M395.006,682.923c0,25.851-20.956,46.804-46.805,46.804c-25.845,0-46.8-20.953-46.8-46.804
		c0-25.848,20.955-46.805,46.8-46.805C374.05,636.118,395.006,657.075,395.006,682.923z"/>
	<path fill="#012B4A" d="M425.201,598.368c0,25.849-20.95,46.808-46.8,46.808c-25.845,0-46.804-20.959-46.804-46.808
		c0-25.846,20.959-46.805,46.804-46.805C404.251,551.563,425.201,572.522,425.201,598.368z"/>
	<path fill="#012B4A" d="M453.391,511.804c0,25.848-20.955,46.808-46.806,46.808c-25.85,0-46.805-20.96-46.805-46.808
		c0-25.849,20.955-46.802,46.805-46.802C432.436,465.002,453.391,485.955,453.391,511.804z"/>
	<path fill="#012B4A" d="M477.547,427.248c0,25.85-20.952,46.808-46.803,46.808c-25.854,0-46.808-20.958-46.808-46.808
		s20.954-46.796,46.808-46.796C456.595,380.452,477.547,401.398,477.547,427.248z"/>
	<path fill="#012B4A" d="M503.719,340.684c0,25.848-20.954,46.807-46.806,46.807c-25.848,0-46.803-20.959-46.803-46.807
		c0-25.845,20.955-46.801,46.803-46.801C482.765,293.883,503.719,314.839,503.719,340.684z"/>
	<path fill="#012B4A" d="M533.914,254.123c0,25.844-20.954,46.799-46.802,46.799c-25.852,0-46.803-20.955-46.803-46.799
		c0-25.849,20.951-46.807,46.803-46.807C512.96,207.316,533.914,228.274,533.914,254.123z"/>
	<path fill="#012B4A" d="M653.701,684.934c0,25.852,20.952,46.807,46.804,46.807c25.853,0,46.807-20.955,46.807-46.807
		c0-25.846-20.954-46.801-46.807-46.801C674.653,638.133,653.701,659.088,653.701,684.934z"/>
	<path fill="#012B4A" d="M623.504,600.384c0,25.845,20.951,46.801,46.804,46.801c25.85,0,46.805-20.956,46.805-46.801
		c0-25.853-20.955-46.807-46.805-46.807C644.455,553.577,623.504,574.531,623.504,600.384z"/>
	<path fill="#012B4A" d="M595.322,513.82c0,25.846,20.949,46.801,46.807,46.801c25.842,0,46.798-20.955,46.798-46.801
		c0-25.852-20.956-46.802-46.798-46.802C616.271,467.019,595.322,487.969,595.322,513.82z"/>
	<path fill="#012B4A" d="M571.163,429.264c0,25.849,20.951,46.801,46.8,46.801c25.85,0,46.805-20.952,46.805-46.801
		c0-25.852-20.955-46.8-46.805-46.8C592.114,382.464,571.163,403.412,571.163,429.264z"/>
	<path fill="#012B4A" d="M544.992,342.701c0,25.845,20.953,46.8,46.805,46.8c25.844,0,46.803-20.955,46.803-46.8
		c0-25.85-20.959-46.804-46.803-46.804C565.945,295.897,544.992,316.852,544.992,342.701z"/>
	<path fill="#012B4A" d="M514.796,256.13c0,25.85,20.954,46.805,46.802,46.805c25.849,0,46.804-20.955,46.804-46.805
		c0-25.846-20.955-46.8-46.804-46.8C535.75,209.33,514.796,230.284,514.796,256.13z"/>
</g>
<g>
	<path fill="#023558" d="M275.16,278.5c0,21.834-18.543,39.54-41.417,39.54c-22.875,0-41.417-17.706-41.417-39.54
		c0-21.827,18.542-39.538,41.417-39.538C256.617,238.962,275.16,256.674,275.16,278.5z"/>
	<path fill="#023558" d="M117.37,679.592c0,21.836-18.541,39.539-41.415,39.539c-22.878,0-41.42-17.703-41.42-39.539
		c0-21.835,18.542-39.536,41.42-39.536C98.829,640.056,117.37,657.757,117.37,679.592z"/>
	<path fill="#023558" d="M144.092,608.163c0,21.84-18.541,39.541-41.415,39.541c-22.873,0-41.42-17.701-41.42-39.541
		c0-21.828,18.547-39.534,41.42-39.534C125.551,568.629,144.092,586.335,144.092,608.163z"/>
	<path fill="#023558" d="M169.036,535.042c0,21.835-18.543,39.542-41.42,39.542s-41.417-17.707-41.417-39.542
		s18.54-39.536,41.417-39.536S169.036,513.207,169.036,535.042z"/>
	<path fill="#023558" d="M190.416,463.613c0,21.837-18.543,39.54-41.419,39.54c-22.88,0-41.423-17.703-41.423-39.54
		c0-21.832,18.543-39.528,41.423-39.528C171.873,424.085,190.416,441.781,190.416,463.613z"/>
	<path fill="#023558" d="M213.576,390.487c0,21.837-18.543,39.538-41.421,39.538c-22.872,0-41.419-17.701-41.419-39.538
		c0-21.828,18.547-39.53,41.419-39.53C195.033,350.957,213.576,368.659,213.576,390.487z"/>
	<ellipse fill="#023558" cx="198.879" cy="317.366" rx="41.417" ry="39.536"/>
	<polygon fill="#023558" points="229.043,257.822 394.187,720 79.259,720 	"/>
	<path fill="#023558" d="M276.357,282.698c0,21.506-17.436,38.949-38.943,38.949s-38.945-17.442-38.945-38.949
		c0-21.503,17.438-38.946,38.945-38.946S276.357,261.195,276.357,282.698z"/>
	<path fill="#023558" d="M127.99,677.79c0,21.51-17.438,38.945-38.947,38.945c-21.505,0-38.943-17.436-38.943-38.945
		s17.438-38.944,38.943-38.944C110.553,638.846,127.99,656.28,127.99,677.79z"/>
	<path fill="#023558" d="M153.116,607.432c0,21.51-17.435,38.949-38.944,38.949c-21.506,0-38.945-17.439-38.945-38.949
		c0-21.508,17.439-38.944,38.945-38.944C135.682,568.487,153.116,585.924,153.116,607.432z"/>
	<path fill="#023558" d="M176.572,535.4c0,21.509-17.438,38.949-38.947,38.949S98.68,556.909,98.68,535.4
		c0-21.508,17.436-38.944,38.945-38.944S176.572,513.893,176.572,535.4z"/>
	<path fill="#023558" d="M196.673,465.043c0,21.51-17.435,38.947-38.946,38.947c-21.511,0-38.947-17.438-38.947-38.947
		s17.437-38.939,38.947-38.939C179.238,426.104,196.673,443.533,196.673,465.043z"/>
	<path fill="#023558" d="M218.451,393.012c0,21.508-17.438,38.947-38.948,38.947c-21.507,0-38.944-17.439-38.944-38.947
		c0-21.506,17.438-38.943,38.944-38.943C201.014,354.068,218.451,371.506,218.451,393.012z"/>
	<circle fill="#023558" cx="204.632" cy="320.983" r="38.944"/>
	<path fill="#023558" d="M343.25,679.463c0,21.511,17.437,38.947,38.947,38.947s38.947-17.437,38.947-38.947
		c0-21.507-17.437-38.943-38.947-38.943S343.25,657.956,343.25,679.463z"/>
	<path fill="#023558" d="M318.125,609.108c0,21.507,17.433,38.942,38.943,38.942s38.947-17.436,38.947-38.942
		c0-21.513-17.437-38.946-38.947-38.946S318.125,587.596,318.125,609.108z"/>
	<path fill="#023558" d="M294.675,537.077c0,21.508,17.432,38.944,38.946,38.944c21.503,0,38.941-17.437,38.941-38.944
		c0-21.509-17.438-38.943-38.941-38.943C312.106,498.134,294.675,515.568,294.675,537.077z"/>
	<path fill="#023558" d="M274.57,466.72c0,21.507,17.434,38.942,38.941,38.942c21.51,0,38.946-17.436,38.946-38.942
		c0-21.511-17.437-38.942-38.946-38.942C292.004,427.777,274.57,445.209,274.57,466.72z"/>
	<circle fill="#023558" cx="291.739" cy="394.689" r="38.945"/>
	<path fill="#023558" d="M227.667,322.654c0,21.51,17.436,38.946,38.944,38.946c21.51,0,38.945-17.436,38.945-38.946
		c0-21.506-17.436-38.943-38.945-38.943C245.103,283.711,227.667,301.147,227.667,322.654z"/>
</g>
<g>
	<path fill="#023558" d="M846.16,275.5c0,21.834-18.543,39.54-41.417,39.54c-22.875,0-41.417-17.706-41.417-39.54
		c0-21.827,18.542-39.538,41.417-39.538C827.617,235.962,846.16,253.674,846.16,275.5z"/>
	<path fill="#023558" d="M688.37,676.592c0,21.836-18.541,39.539-41.415,39.539c-22.878,0-41.42-17.703-41.42-39.539
		c0-21.835,18.542-39.536,41.42-39.536C669.829,637.056,688.37,654.757,688.37,676.592z"/>
	<path fill="#023558" d="M715.092,605.163c0,21.84-18.541,39.541-41.415,39.541c-22.873,0-41.42-17.701-41.42-39.541
		c0-21.828,18.547-39.534,41.42-39.534C696.551,565.629,715.092,583.335,715.092,605.163z"/>
	<path fill="#023558" d="M740.036,532.042c0,21.835-18.543,39.542-41.42,39.542s-41.417-17.707-41.417-39.542
		s18.54-39.536,41.417-39.536S740.036,510.207,740.036,532.042z"/>
	<path fill="#023558" d="M761.416,460.613c0,21.837-18.543,39.54-41.419,39.54c-22.88,0-41.423-17.703-41.423-39.54
		c0-21.832,18.543-39.528,41.423-39.528C742.873,421.085,761.416,438.781,761.416,460.613z"/>
	<path fill="#023558" d="M784.576,387.487c0,21.837-18.543,39.538-41.421,39.538c-22.872,0-41.419-17.701-41.419-39.538
		c0-21.828,18.547-39.53,41.419-39.53C766.033,347.957,784.576,365.659,784.576,387.487z"/>
	<ellipse fill="#023558" cx="769.879" cy="314.366" rx="41.417" ry="39.536"/>
	<polygon fill="#023558" points="800.043,254.822 965.187,717 650.259,717 	"/>
	<path fill="#023558" d="M847.357,279.698c0,21.506-17.436,38.949-38.943,38.949s-38.945-17.442-38.945-38.949
		c0-21.503,17.438-38.946,38.945-38.946S847.357,258.195,847.357,279.698z"/>
	<path fill="#023558" d="M698.99,674.79c0,21.51-17.438,38.945-38.947,38.945c-21.505,0-38.943-17.436-38.943-38.945
		s17.438-38.944,38.943-38.944C681.553,635.846,698.99,653.28,698.99,674.79z"/>
	<path fill="#023558" d="M724.116,604.432c0,21.51-17.435,38.949-38.944,38.949c-21.506,0-38.945-17.439-38.945-38.949
		c0-21.508,17.439-38.944,38.945-38.944C706.682,565.487,724.116,582.924,724.116,604.432z"/>
	<path fill="#023558" d="M747.572,532.4c0,21.509-17.438,38.949-38.947,38.949s-38.945-17.44-38.945-38.949
		c0-21.508,17.436-38.944,38.945-38.944S747.572,510.893,747.572,532.4z"/>
	<path fill="#023558" d="M767.673,462.043c0,21.51-17.435,38.947-38.946,38.947c-21.511,0-38.947-17.438-38.947-38.947
		s17.437-38.939,38.947-38.939C750.238,423.104,767.673,440.533,767.673,462.043z"/>
	<path fill="#023558" d="M789.451,390.012c0,21.508-17.438,38.947-38.948,38.947c-21.507,0-38.944-17.439-38.944-38.947
		c0-21.506,17.438-38.943,38.944-38.943C772.014,351.068,789.451,368.506,789.451,390.012z"/>
	<circle fill="#023558" cx="775.632" cy="317.983" r="38.944"/>
	<path fill="#023558" d="M914.25,676.463c0,21.511,17.437,38.947,38.947,38.947s38.947-17.437,38.947-38.947
		c0-21.507-17.437-38.943-38.947-38.943S914.25,654.956,914.25,676.463z"/>
	<path fill="#023558" d="M889.125,606.108c0,21.507,17.433,38.942,38.943,38.942s38.947-17.436,38.947-38.942
		c0-21.513-17.437-38.946-38.947-38.946S889.125,584.596,889.125,606.108z"/>
	<path fill="#023558" d="M865.675,534.077c0,21.508,17.432,38.944,38.946,38.944c21.503,0,38.941-17.437,38.941-38.944
		c0-21.509-17.438-38.943-38.941-38.943C883.106,495.134,865.675,512.568,865.675,534.077z"/>
	<path fill="#023558" d="M845.57,463.72c0,21.507,17.434,38.942,38.941,38.942c21.51,0,38.946-17.436,38.946-38.942
		c0-21.511-17.437-38.942-38.946-38.942C863.004,424.777,845.57,442.209,845.57,463.72z"/>
	<circle fill="#023558" cx="862.739" cy="391.689" r="38.945"/>
	<path fill="#023558" d="M798.667,319.654c0,21.51,17.436,38.946,38.944,38.946c21.51,0,38.945-17.436,38.945-38.946
		c0-21.506-17.436-38.943-38.945-38.943C816.103,280.711,798.667,298.147,798.667,319.654z"/>
</g>
<path fill="#8DC73F" d="M1028,756c0,6.627-5.373,12-12,12H11c-6.627,0-12-5.373-12-12v-40c0-6.627,5.373-12,12-12h1005
	c6.627,0,12,5.373,12,12V756z"/>
<ellipse fill="#6373C1" cx="446.988" cy="704.192" rx="49.571" ry="12.347"/>
<ellipse fill="#6373C1" cx="580.811" cy="705.17" rx="49.026" ry="11.349"/>
<g>
	<path fill="#8190FF" d="M512.354,659.484c-35.285,0-68.049-6.093-95.188-16.518c-10.543,27.238-17.252,59.005-17.252,59.005
		c21.062,15.253,68.999,5.812,83.525,5.085c14.527-0.727,13.074-18.158,13.074-22.517c0-3.479,5.578-6.951,17.067-7.472v-0.334
		c11.163,0.594,16.599,4.011,16.599,7.442c0,4.357-1.453,21.789,13.073,22.516s62.464,10.168,83.526-5.085
		c0,0-6.768-32.046-17.392-59.363C581.894,653.107,548.443,659.484,512.354,659.484z"/>
</g>
<g>
	<path fill="#FCC447" d="M597.021,614.979l-31.653-51.981l-52.256-0.2v0.366l-59.732,0.228l-26.546,59.048l0.296-1.671
		c-3.67,6.353-7.084,13.986-10.164,21.998c27.186,10.321,59.938,16.354,95.202,16.354c36.21,0,69.773-6.36,97.38-17.195
		c-3.543-9.158-7.521-17.809-11.82-24.568C596.636,615.642,596.605,615.043,597.021,614.979z"/>
</g>
<path fill="#FFDFD3" d="M454.281,616.554c0,0,0.602-1.087,1.239-1.939l-2.212-56.322l-5.034,2.25
	c-85.055,52.799-47.426,87.382-47.426,87.382C438.881,673.991,454.281,616.554,454.281,616.554z"/>
<path fill="#FFDFD3" d="M600.074,550.278l-9.798-9.872l-15.294,62.93l-0.914-0.223c-0.588,11.54-0.28,54.977,38.716,45.772
	C612.784,648.886,660.354,630.203,600.074,550.278z"/>
<path fill="#2D3551" d="M502.367,415.441"/>
<ellipse fill="#FFDFD3" cx="511.086" cy="499.668" rx="88.247" ry="66.794"/>
<path d="M473.358,507.643c0,5.637-4.57,10.209-10.209,10.209c-5.637,0-10.208-4.572-10.208-10.209
	c0-5.642,4.571-10.213,10.208-10.213C468.788,497.43,473.358,502.001,473.358,507.643z"/>
<path d="M572.499,506.549c0,5.641-4.571,10.213-10.208,10.213c-5.642,0-10.21-4.572-10.21-10.213c0-5.638,4.568-10.209,10.21-10.209
	C567.928,496.34,572.499,500.911,572.499,506.549z"/>
<path fill="#FF6260" d="M617.677,507.478l-0.014-1.084c-24.201,24.191-62.203,39.784-104.943,39.784
	c-41.984,0-79.398-15.047-103.65-38.51c-20.055,11.746-18.154,32.495-18.154,32.495c0.986,10.478,5.54,17.858,10.271,22.826
	c-2.825,3.755-4.494,8.355-4.494,13.33c0,12.636,10.73,22.879,23.968,22.879c0.837,0,1.663-0.042,2.478-0.121
	c12.341,31.704,44.247,24.746,58.896,19.553c5.235,7.806,17.001,13.251,30.687,13.251c13.963,0,25.933-5.664,31.004-13.725
	c13.243,4.932,44.062,12.744,58.064-14.324c10.543-0.946,20.416-8.51,24.519-19.98c2.609-7.296,2.406-14.849-0.026-21.291
	c4.583-4.96,8.906-12.22,9.864-22.397C636.145,540.163,638.074,519.189,617.677,507.478z"/>
<circle fill="#FFDFD3" cx="416.303" cy="501.509" r="13.618"/>
<circle fill="#FFDFD3" cx="608.048" cy="504.777" r="13.619"/>
<path fill="#FF6260" d="M438.023,530.856c0,3.949-4.358,7.149-9.737,7.149l0,0c-5.378,0-9.736-3.2-9.736-7.149V476.52
	c0-3.949,4.358-7.149,9.736-7.149l0,0c5.379,0,9.737,3.2,9.737,7.149V530.856z"/>
<path fill="#FF6260" d="M607.98,533.58c0,3.949-4.603,7.149-10.282,7.149l0,0c-5.68,0-10.281-3.2-10.281-7.149v-54.337
	c0-3.949,4.602-7.149,10.281-7.149l0,0c5.68,0,10.282,3.2,10.282,7.149V533.58z"/>
<path fill="#FF6260" d="M515.988,424.157c-41.682,0-77.92,7.417-96.417,18.33v33.065c18.497,10.914,54.735,18.33,96.417,18.33
	c38.621,0,72.567-6.367,92.06-15.984v-37.757C588.556,430.524,554.609,424.157,515.988,424.157z"/>
<ellipse fill="#FFC556" cx="510.904" cy="424.703" rx="92.06" ry="51.75"/>
<path fill="#FFC556" d="M435.187,395.287c0,0-21.789,20.155-22.879,44.124c-1.09,23.968,28.326,7.626,28.326,7.626L435.187,395.287z
	"/>
<path fill="#FFC556" d="M589.86,397.467c0,0,21.789,20.154,22.879,44.123c1.09,23.968-28.326,7.626-28.326,7.626L589.86,397.467z"/>
<ellipse fill="#F9A715" cx="509.608" cy="371.957" rx="20.426" ry="19.609"/>
<path fill="#F9A715" d="M620.952,463.926c0,7.22-6.369,13.073-14.223,13.073H419.46c-7.854,0-14.223-5.854-14.223-13.073v-11.984
	c0-7.22,6.369-13.073,14.223-13.073h187.27c7.854,0,14.223,5.854,14.223,13.073V463.926z"/>
<path fill="#EA534C" d="M578.313,532.122c-5.666,3.107-18.832,2.743-35.472-9.143c-15.759-11.257-27.415,1.759-28.604,3.168
	c-0.607-0.74-12.474-14.837-28.682-3.259c-16.639,11.885-29.804,12.251-35.473,9.143c-5.67-3.109-3.29,1.645-3.29,1.645
	c2.376,10.971,15.542,19.749,15.542,19.749c20.076,9.687,49.654,1.05,51.801,0.403v0.053c0,0,31.083,9.692,51.929-0.365
	c0,0,13.164-8.776,15.542-19.747C581.606,533.769,583.982,529.014,578.313,532.122z"/>
<path fill="#FCD1C3" d="M582.657,640.582c0,0,1.988,0.227,4.233-0.137c2.562-0.413,5.457-1.596,6.121-4.755
	c1.245-5.928,13.562-13.04,19.705-3.312c6.143,9.73-19.152,11.405-21.749,9.706c-1.095-0.717-2.287,0.246-3.749,0.565
	c-2.001,0.439-0.968,1.271-0.968,1.271L582.657,640.582z"/>
<path fill="#FCD1C3" d="M437.049,645.714c0,0-1.377,0.437-3.34-0.713c-2.239-1.31-4.514-3.456-3.993-6.642
	c0.978-5.979-7.944-17.055-17.184-10.197c-9.239,6.858,13.749,17.546,16.783,16.897c1.28-0.272,2.044,1.055,3.293,1.881
	c1.708,1.131,0.444,1.533,0.444,1.533L437.049,645.714z"/>
<g>
	<path fill="#EA534C" d="M617.12,507.117l-0.002-0.179c-0.566,0.567-1.148,1.125-1.732,1.682
		C615.974,508.126,616.546,507.621,617.12,507.117z"/>
	<path fill="#EA534C" d="M517.623,627.523c-13.687,0-25.452-5.445-30.688-13.252c-14.647,5.193-46.554,12.151-58.895-19.553
		c-0.815,0.08-1.642,0.121-2.478,0.121c-13.238,0-23.969-10.243-23.969-22.878c0-4.976,1.67-9.575,4.494-13.33
		c-4.731-4.968-9.285-12.35-10.271-22.827c0,0-1.258-13.782,9.133-25.24c-16.243,11.958-14.58,30.144-14.58,30.144
		c0.986,10.478,5.54,17.858,10.271,22.826c-2.825,3.755-4.494,8.355-4.494,13.33c0,12.635,10.73,22.879,23.969,22.879
		c0.836,0,1.662-0.042,2.478-0.121c12.341,31.704,44.247,24.745,58.895,19.553c5.235,7.806,17.001,13.251,30.687,13.251
		c12.722,0,23.771-4.71,29.473-11.643C535.549,624.938,527.044,627.523,517.623,627.523z"/>
	<path fill="#EA534C" d="M606.69,599.474c-0.837,1.619-1.738,3.105-2.689,4.483c5.939-1.193,11.504-4.47,15.758-9.329
		C615.82,597.366,611.319,599.059,606.69,599.474z"/>
	<path fill="#EA534C" d="M548.626,613.799c-1.184,1.88-2.755,3.622-4.626,5.201c12.049,4.352,36.718,10.277,51.784-6.626
		C580.355,623.333,559.049,617.68,548.626,613.799z"/>
</g>
<circle fill="#388A29" cx="-0.851" cy="711.024" r="150.469"/>
<path fill="#306D23" d="M-1,665.943v264.806c45-25.449,78.93-75.196,78.93-132.401C77.93,741.141,44,691.394-1,665.943z"/>
<path fill="#306D23" d="M263.697,768c-25.454-47-75.194-78.904-132.391-78.904C74.109,689.096,24.368,721-1.086,768H263.697z"/>
<circle fill="#306D23" cx="1026.229" cy="707.024" r="150.469"/>
<path fill="#306D23" d="M1026,661.943v264.806c-45-25.449-78.93-75.196-78.93-132.401C947.07,737.141,981,687.394,1026,661.943z"/>
<path fill="#388A29" d="M761.682,768c25.454-47,75.194-78.904,132.391-78.904c57.197,0,106.938,31.904,132.393,78.904H761.682z"/>
<rect x="-17" y="768" fill="#F5F5F5" width="1176" height="167"/>
<path fill="#FCC447" d="M584.677,749.38c0,6.417-5.354,11.62-11.967,11.62H452.377c-6.608,0-11.967-5.203-11.967-11.62V573.796
	c0-6.417,5.358-11.619,11.967-11.619H572.71c6.612,0,11.967,5.202,11.967,11.619V749.38z"/>
<path fill="#F9A715" d="M578,718.021c0,18.856,0.869,34.979-8.969,34.979H454.098c-9.84,0-6.098-16.123-6.098-34.979V604.198
	c0-18.855-3.803-35.047,6.037-35.047l105.52,0.9C584.749,567.347,578,585.343,578,604.198V718.021z"/>
<path fill="#FCC447" d="M517.83,613.326l8.983-8.807c-0.081-0.101-0.166-0.195-0.252-0.284c-2.849-2.884-4.045-3.333-8.089-3.244
	c0,0-2.756,0.496-4.226,1.396c-1.472,0.902-3.217-0.314-3.217-0.314s-3.079-1.801-6.845-0.721c0,0-7.444,2.163-6.25,12.976
	c0,0,1.746,10.271,7.719,12.973c0,0,1.931,0.812,3.219,0.271c1.283-0.541,4.961-2.479,9.417-0.045c0,0,3.354,0.765,5.192-1.982
	c0,0,1.574-1.857,2.793-3.937L517.83,613.326z"/>
<path fill="#FCC447" d="M529,737.755c0,4.973-3.418,9.245-8.242,9.245h-14.25c-4.824,0-8.508-4.272-8.508-9.245v-0.476
	c0-4.972,3.684-9.279,8.508-9.279h14.25c4.824,0,8.242,4.308,8.242,9.279V737.755z"/>
<path fill="#F9A715" d="M516,737.896c0,0.912-0.857,1.653-2,1.653l0,0c-1.143,0-2-0.741-2-1.653v-6.613c0-0.912,0.857-1.653,2-1.653
	l0,0c1.143,0,2,0.741,2,1.653V737.896z"/>
<path fill="#F9A715" d="M507,743.305c0,0.912-0.857,1.653-2,1.653l0,0c-1.143,0-2-0.741-2-1.653v-6.612c0-0.913,0.857-1.653,2-1.653
	l0,0c1.143,0,2,0.74,2,1.653V743.305z"/>
<path fill="#F9A715" d="M524,743.305c0,0.912-0.857,1.653-2,1.653l0,0c-1.143,0-2-0.741-2-1.653v-6.612c0-0.913,0.857-1.653,2-1.653
	l0,0c1.143,0,2,0.74,2,1.653V743.305z"/>
<text transform="matrix(1.0199 0 0 1 490.4854 651.5586)" fill="#FCC447" font-family="'AldotheApache'" font-size="22.1552">B1M0</text>
<path fill="#FCC447" d="M505.032,587.001c0,0,10.053,1.363,9.799,11.929C514.831,598.93,505.288,598.416,505.032,587.001z"/>
</svg>
