<?xml version="1.0" encoding="utf-8"?>
<!-- Generator: Adobe Illustrator 15.1.0, SVG Export Plug-In . SVG Version: 6.00 Build 0)  -->
<!DOCTYPE svg PUBLIC "-//W3C//DTD SVG 1.1//EN" "http://www.w3.org/Graphics/SVG/1.1/DTD/svg11.dtd">
<svg version="1.1" id="Layer_1" xmlns="http://www.w3.org/2000/svg" xmlns:xlink="http://www.w3.org/1999/xlink" x="0px" y="0px"
	 width="1024px" height="768px" viewBox="0 0 1024 768" enable-background="new 0 0 1024 768" xml:space="preserve">
<path fill="#00233D" d="M-3-5v780h1034V-5H-3z M608.456,520H441.61c-3.678-7-5.694-19.041-5.694-30.177
	c0-49.617,39.899-89.102,89.117-89.102c49.214,0,89.114,39.12,89.114,88.735C614.147,500.596,612.13,513,608.456,520z"/>
<g>
	<path fill="#012B4A" d="M570.871,202.067c0,26.241-22.285,47.52-49.773,47.52c-27.49,0-49.773-21.278-49.773-47.52
		c0-26.232,22.283-47.516,49.773-47.516C548.586,154.552,570.871,175.835,570.871,202.067z"/>
	<ellipse fill="#012B4A" cx="331.47" cy="684.088" rx="49.775" ry="47.517"/>
	<path fill="#012B4A" d="M413.357,598.248c0,26.246-22.28,47.52-49.771,47.52c-27.491,0-49.778-21.273-49.778-47.52
		c0-26.234,22.287-47.512,49.778-47.512C391.077,550.736,413.357,572.014,413.357,598.248z"/>
	<path fill="#012B4A" d="M443.334,510.371c0,26.242-22.284,47.522-49.778,47.522c-27.49,0-49.771-21.28-49.771-47.522
		c0-26.238,22.281-47.514,49.771-47.514C421.05,462.857,443.334,484.133,443.334,510.371z"/>
	<path fill="#012B4A" d="M469.028,424.532c0,26.241-22.284,47.518-49.777,47.518c-27.495,0-49.779-21.276-49.779-47.518
		c0-26.24,22.284-47.507,49.779-47.507C446.744,377.025,469.028,398.292,469.028,424.532z"/>
	<path fill="#012B4A" d="M496.862,336.65c0,26.242-22.286,47.515-49.777,47.515c-27.488,0-49.779-21.272-49.779-47.515
		c0-26.234,22.291-47.506,49.779-47.506C474.576,289.145,496.862,310.416,496.862,336.65z"/>
	<path fill="#012B4A" d="M528.976,248.774c0,26.242-22.287,47.513-49.776,47.513c-27.494,0-49.774-21.271-49.774-47.513
		c0-26.237,22.28-47.513,49.774-47.513C506.688,201.262,528.976,222.537,528.976,248.774z"/>
	<polygon fill="#012B4A" points="515.448,175.564 713.915,731 335.441,731 	"/>
	<path fill="#012B4A" d="M572.312,207.112c0,25.847-20.955,46.808-46.803,46.808c-25.849,0-46.802-20.961-46.802-46.808
		c0-25.842,20.953-46.804,46.802-46.804C551.356,160.309,572.312,181.271,572.312,207.112z"/>
	<path fill="#012B4A" d="M394.006,681.923c0,25.851-20.956,46.804-46.805,46.804c-25.845,0-46.8-20.953-46.8-46.804
		c0-25.848,20.955-46.805,46.8-46.805C373.05,635.118,394.006,656.075,394.006,681.923z"/>
	<path fill="#012B4A" d="M424.201,597.368c0,25.849-20.95,46.808-46.8,46.808c-25.845,0-46.804-20.959-46.804-46.808
		c0-25.846,20.959-46.805,46.804-46.805C403.251,550.563,424.201,571.522,424.201,597.368z"/>
	<path fill="#012B4A" d="M452.391,510.804c0,25.848-20.955,46.808-46.806,46.808c-25.85,0-46.805-20.96-46.805-46.808
		c0-25.849,20.955-46.802,46.805-46.802C431.436,464.002,452.391,484.955,452.391,510.804z"/>
	<path fill="#012B4A" d="M476.547,426.248c0,25.85-20.952,46.808-46.803,46.808c-25.854,0-46.808-20.958-46.808-46.808
		s20.954-46.796,46.808-46.796C455.595,379.452,476.547,400.398,476.547,426.248z"/>
	<path fill="#012B4A" d="M502.719,339.684c0,25.848-20.954,46.807-46.806,46.807c-25.848,0-46.803-20.959-46.803-46.807
		c0-25.845,20.955-46.801,46.803-46.801C481.765,292.883,502.719,313.839,502.719,339.684z"/>
	<path fill="#012B4A" d="M532.914,253.123c0,25.844-20.954,46.799-46.802,46.799c-25.852,0-46.803-20.955-46.803-46.799
		c0-25.849,20.951-46.807,46.803-46.807C511.96,206.316,532.914,227.274,532.914,253.123z"/>
	<path fill="#012B4A" d="M652.701,683.934c0,25.852,20.952,46.807,46.804,46.807c25.853,0,46.807-20.955,46.807-46.807
		c0-25.846-20.954-46.801-46.807-46.801C673.653,637.133,652.701,658.088,652.701,683.934z"/>
	<path fill="#012B4A" d="M622.504,599.384c0,25.845,20.951,46.801,46.804,46.801c25.85,0,46.805-20.956,46.805-46.801
		c0-25.853-20.955-46.807-46.805-46.807C643.455,552.577,622.504,573.531,622.504,599.384z"/>
	<path fill="#012B4A" d="M594.322,512.82c0,25.846,20.949,46.801,46.807,46.801c25.842,0,46.798-20.955,46.798-46.801
		c0-25.852-20.956-46.802-46.798-46.802C615.271,466.019,594.322,486.969,594.322,512.82z"/>
	<path fill="#012B4A" d="M570.163,428.264c0,25.849,20.951,46.801,46.8,46.801c25.85,0,46.805-20.952,46.805-46.801
		c0-25.852-20.955-46.8-46.805-46.8C591.114,381.464,570.163,402.412,570.163,428.264z"/>
	<path fill="#012B4A" d="M543.992,341.701c0,25.845,20.953,46.8,46.805,46.8c25.844,0,46.803-20.955,46.803-46.8
		c0-25.85-20.959-46.804-46.803-46.804C564.945,294.897,543.992,315.852,543.992,341.701z"/>
	<path fill="#012B4A" d="M513.796,255.13c0,25.85,20.954,46.805,46.802,46.805c25.849,0,46.804-20.955,46.804-46.805
		c0-25.846-20.955-46.8-46.804-46.8C534.75,208.33,513.796,229.284,513.796,255.13z"/>
</g>
<g>
	<path fill="#023558" d="M274.16,277.5c0,21.834-18.543,39.54-41.417,39.54c-22.875,0-41.417-17.706-41.417-39.54
		c0-21.827,18.542-39.538,41.417-39.538C255.617,237.962,274.16,255.674,274.16,277.5z"/>
	<path fill="#023558" d="M116.37,678.592c0,21.836-18.541,39.539-41.415,39.539c-22.878,0-41.42-17.703-41.42-39.539
		c0-21.835,18.542-39.536,41.42-39.536C97.829,639.056,116.37,656.757,116.37,678.592z"/>
	<path fill="#023558" d="M143.092,607.163c0,21.84-18.541,39.541-41.415,39.541c-22.873,0-41.42-17.701-41.42-39.541
		c0-21.828,18.547-39.534,41.42-39.534C124.551,567.629,143.092,585.335,143.092,607.163z"/>
	<path fill="#023558" d="M168.036,534.042c0,21.835-18.543,39.542-41.42,39.542s-41.417-17.707-41.417-39.542
		s18.54-39.536,41.417-39.536S168.036,512.207,168.036,534.042z"/>
	<path fill="#023558" d="M189.416,462.613c0,21.837-18.543,39.54-41.419,39.54c-22.88,0-41.423-17.703-41.423-39.54
		c0-21.832,18.543-39.528,41.423-39.528C170.873,423.085,189.416,440.781,189.416,462.613z"/>
	<path fill="#023558" d="M212.576,389.487c0,21.837-18.543,39.538-41.421,39.538c-22.872,0-41.419-17.701-41.419-39.538
		c0-21.828,18.547-39.53,41.419-39.53C194.033,349.957,212.576,367.659,212.576,389.487z"/>
	<ellipse fill="#023558" cx="197.879" cy="316.366" rx="41.417" ry="39.536"/>
	<polygon fill="#023558" points="228.043,256.822 393.187,719 78.259,719 	"/>
	<path fill="#023558" d="M275.357,281.698c0,21.506-17.436,38.949-38.943,38.949s-38.945-17.442-38.945-38.949
		c0-21.503,17.438-38.946,38.945-38.946S275.357,260.195,275.357,281.698z"/>
	<path fill="#023558" d="M126.99,676.79c0,21.51-17.438,38.945-38.947,38.945c-21.505,0-38.943-17.436-38.943-38.945
		s17.438-38.944,38.943-38.944C109.553,637.846,126.99,655.28,126.99,676.79z"/>
	<path fill="#023558" d="M152.116,606.432c0,21.51-17.435,38.949-38.944,38.949c-21.506,0-38.945-17.439-38.945-38.949
		c0-21.508,17.439-38.944,38.945-38.944C134.682,567.487,152.116,584.924,152.116,606.432z"/>
	<path fill="#023558" d="M175.572,534.4c0,21.509-17.438,38.949-38.947,38.949S97.68,555.909,97.68,534.4
		c0-21.508,17.436-38.944,38.945-38.944S175.572,512.893,175.572,534.4z"/>
	<path fill="#023558" d="M195.673,464.043c0,21.51-17.435,38.947-38.946,38.947c-21.511,0-38.947-17.438-38.947-38.947
		s17.437-38.939,38.947-38.939C178.238,425.104,195.673,442.533,195.673,464.043z"/>
	<path fill="#023558" d="M217.451,392.012c0,21.508-17.438,38.947-38.948,38.947c-21.507,0-38.944-17.439-38.944-38.947
		c0-21.506,17.438-38.943,38.944-38.943C200.014,353.068,217.451,370.506,217.451,392.012z"/>
	<circle fill="#023558" cx="203.632" cy="319.983" r="38.944"/>
	<path fill="#023558" d="M342.25,678.463c0,21.511,17.437,38.947,38.947,38.947s38.947-17.437,38.947-38.947
		c0-21.507-17.437-38.943-38.947-38.943S342.25,656.956,342.25,678.463z"/>
	<path fill="#023558" d="M317.125,608.108c0,21.507,17.433,38.942,38.943,38.942s38.947-17.436,38.947-38.942
		c0-21.513-17.437-38.946-38.947-38.946S317.125,586.596,317.125,608.108z"/>
	<path fill="#023558" d="M293.675,536.077c0,21.508,17.432,38.944,38.946,38.944c21.503,0,38.941-17.437,38.941-38.944
		c0-21.509-17.438-38.943-38.941-38.943C311.106,497.134,293.675,514.568,293.675,536.077z"/>
	<path fill="#023558" d="M273.57,465.72c0,21.507,17.434,38.942,38.941,38.942c21.51,0,38.946-17.436,38.946-38.942
		c0-21.511-17.437-38.942-38.946-38.942C291.004,426.777,273.57,444.209,273.57,465.72z"/>
	<circle fill="#023558" cx="290.739" cy="393.689" r="38.945"/>
	<path fill="#023558" d="M226.667,321.654c0,21.51,17.436,38.946,38.944,38.946c21.51,0,38.945-17.436,38.945-38.946
		c0-21.506-17.436-38.943-38.945-38.943C244.103,282.711,226.667,300.147,226.667,321.654z"/>
</g>
<g>
	<path fill="#023558" d="M845.16,274.5c0,21.834-18.543,39.54-41.417,39.54c-22.875,0-41.417-17.706-41.417-39.54
		c0-21.827,18.542-39.538,41.417-39.538C826.617,234.962,845.16,252.674,845.16,274.5z"/>
	<path fill="#023558" d="M687.37,675.592c0,21.836-18.541,39.539-41.415,39.539c-22.878,0-41.42-17.703-41.42-39.539
		c0-21.835,18.542-39.536,41.42-39.536C668.829,636.056,687.37,653.757,687.37,675.592z"/>
	<path fill="#023558" d="M714.092,604.163c0,21.84-18.541,39.541-41.415,39.541c-22.873,0-41.42-17.701-41.42-39.541
		c0-21.828,18.547-39.534,41.42-39.534C695.551,564.629,714.092,582.335,714.092,604.163z"/>
	<path fill="#023558" d="M739.036,531.042c0,21.835-18.543,39.542-41.42,39.542s-41.417-17.707-41.417-39.542
		s18.54-39.536,41.417-39.536S739.036,509.207,739.036,531.042z"/>
	<path fill="#023558" d="M760.416,459.613c0,21.837-18.543,39.54-41.419,39.54c-22.88,0-41.423-17.703-41.423-39.54
		c0-21.832,18.543-39.528,41.423-39.528C741.873,420.085,760.416,437.781,760.416,459.613z"/>
	<path fill="#023558" d="M783.576,386.487c0,21.837-18.543,39.538-41.421,39.538c-22.872,0-41.419-17.701-41.419-39.538
		c0-21.828,18.547-39.53,41.419-39.53C765.033,346.957,783.576,364.659,783.576,386.487z"/>
	<ellipse fill="#023558" cx="768.879" cy="313.366" rx="41.417" ry="39.536"/>
	<polygon fill="#023558" points="799.043,253.822 964.187,716 649.259,716 	"/>
	<path fill="#023558" d="M846.357,278.698c0,21.506-17.436,38.949-38.943,38.949s-38.945-17.442-38.945-38.949
		c0-21.503,17.438-38.946,38.945-38.946S846.357,257.195,846.357,278.698z"/>
	<path fill="#023558" d="M697.99,673.79c0,21.51-17.438,38.945-38.947,38.945c-21.505,0-38.943-17.436-38.943-38.945
		s17.438-38.944,38.943-38.944C680.553,634.846,697.99,652.28,697.99,673.79z"/>
	<path fill="#023558" d="M723.116,603.432c0,21.51-17.435,38.949-38.944,38.949c-21.506,0-38.945-17.439-38.945-38.949
		c0-21.508,17.439-38.944,38.945-38.944C705.682,564.487,723.116,581.924,723.116,603.432z"/>
	<path fill="#023558" d="M746.572,531.4c0,21.509-17.438,38.949-38.947,38.949s-38.945-17.44-38.945-38.949
		c0-21.508,17.436-38.944,38.945-38.944S746.572,509.893,746.572,531.4z"/>
	<path fill="#023558" d="M766.673,461.043c0,21.51-17.435,38.947-38.946,38.947c-21.511,0-38.947-17.438-38.947-38.947
		s17.437-38.939,38.947-38.939C749.238,422.104,766.673,439.533,766.673,461.043z"/>
	<path fill="#023558" d="M788.451,389.012c0,21.508-17.438,38.947-38.948,38.947c-21.507,0-38.944-17.439-38.944-38.947
		c0-21.506,17.438-38.943,38.944-38.943C771.014,350.068,788.451,367.506,788.451,389.012z"/>
	<circle fill="#023558" cx="774.632" cy="316.983" r="38.944"/>
	<path fill="#023558" d="M913.25,675.463c0,21.511,17.437,38.947,38.947,38.947s38.947-17.437,38.947-38.947
		c0-21.507-17.437-38.943-38.947-38.943S913.25,653.956,913.25,675.463z"/>
	<path fill="#023558" d="M888.125,605.108c0,21.507,17.433,38.942,38.943,38.942s38.947-17.436,38.947-38.942
		c0-21.513-17.437-38.946-38.947-38.946S888.125,583.596,888.125,605.108z"/>
	<path fill="#023558" d="M864.675,533.077c0,21.508,17.432,38.944,38.946,38.944c21.503,0,38.941-17.437,38.941-38.944
		c0-21.509-17.438-38.943-38.941-38.943C882.106,494.134,864.675,511.568,864.675,533.077z"/>
	<path fill="#023558" d="M844.57,462.72c0,21.507,17.434,38.942,38.941,38.942c21.51,0,38.946-17.436,38.946-38.942
		c0-21.511-17.437-38.942-38.946-38.942C862.004,423.777,844.57,441.209,844.57,462.72z"/>
	<circle fill="#023558" cx="861.739" cy="390.689" r="38.945"/>
	<path fill="#023558" d="M797.667,318.654c0,21.51,17.436,38.946,38.944,38.946c21.51,0,38.945-17.436,38.945-38.946
		c0-21.506-17.436-38.943-38.945-38.943C815.103,279.711,797.667,297.147,797.667,318.654z"/>
</g>
<path fill="#8DC73F" d="M1027,755c0,6.627-5.373,12-12,12H10c-6.627,0-12-5.373-12-12v-40c0-6.627,5.373-12,12-12h1005
	c6.627,0,12,5.373,12,12V755z"/>
<ellipse fill="#6373C1" cx="445.988" cy="703.192" rx="49.571" ry="12.347"/>
<ellipse fill="#6373C1" cx="579.811" cy="704.17" rx="49.026" ry="11.349"/>
<g>
	<path fill="#8190FF" d="M511.354,658.484c-35.285,0-68.049-6.093-95.188-16.518c-10.543,27.238-17.252,59.005-17.252,59.005
		c21.062,15.253,68.999,5.812,83.525,5.085c14.527-0.727,13.074-18.158,13.074-22.517c0-3.479,5.578-6.951,17.067-7.472v-0.334
		c11.163,0.594,16.599,4.011,16.599,7.442c0,4.357-1.453,21.789,13.073,22.516s62.464,10.168,83.526-5.085
		c0,0-6.768-32.046-17.392-59.363C580.894,652.107,547.443,658.484,511.354,658.484z"/>
</g>
<g>
	<path fill="#FCC447" d="M596.021,613.979l-31.653-51.981l-52.256-0.2v0.366l-59.732,0.228l-26.546,59.048l0.296-1.671
		c-3.67,6.353-7.084,13.986-10.164,21.998c27.186,10.321,59.938,16.354,95.202,16.354c36.21,0,69.773-6.36,97.38-17.195
		c-3.543-9.158-7.521-17.809-11.82-24.568C595.636,614.642,595.605,614.043,596.021,613.979z"/>
</g>
<path fill="#FFDFD3" d="M427.761,629.613c0,0,0.99-0.748,1.92-1.27l20.832-52.374l-5.514,0.014
	c-99.162,13.743-78.804,60.62-78.804,60.62C390.378,675.861,427.761,629.613,427.761,629.613z"/>
<path fill="#FFDFD3" d="M569.212,578.582l-13.904,0.348l35.261,54.32l-0.789,0.512c7.987,8.35,39.783,37.943,59.86,3.269
	C649.64,637.03,668.711,589.613,569.212,578.582z"/>
<path fill="#2D3551" d="M501.367,414.441"/>
<ellipse fill="#FFDFD3" cx="510.086" cy="498.668" rx="88.247" ry="66.794"/>
<path d="M472.358,506.643c0,5.637-4.57,10.209-10.209,10.209c-5.637,0-10.208-4.572-10.208-10.209
	c0-5.642,4.571-10.213,10.208-10.213C467.788,496.43,472.358,501.001,472.358,506.643z"/>
<path d="M571.499,505.549c0,5.641-4.571,10.213-10.208,10.213c-5.642,0-10.21-4.572-10.21-10.213c0-5.638,4.568-10.209,10.21-10.209
	C566.928,495.34,571.499,499.911,571.499,505.549z"/>
<path fill="#FF6260" d="M616.677,506.478l-0.014-1.084c-24.201,24.191-62.203,39.784-104.943,39.784
	c-41.984,0-79.398-15.047-103.65-38.51c-20.055,11.746-18.154,32.495-18.154,32.495c0.986,10.478,5.54,17.858,10.271,22.826
	c-2.825,3.755-4.494,8.355-4.494,13.33c0,12.636,10.73,22.879,23.968,22.879c0.837,0,1.663-0.042,2.478-0.121
	c12.341,31.704,44.247,24.746,58.896,19.553c5.235,7.806,17.001,13.251,30.687,13.251c13.963,0,25.933-5.664,31.004-13.725
	c13.243,4.932,44.062,12.744,58.064-14.324c10.543-0.946,20.416-8.51,24.519-19.98c2.609-7.296,2.406-14.849-0.026-21.291
	c4.583-4.96,8.906-12.22,9.864-22.397C635.145,539.163,637.074,518.189,616.677,506.478z"/>
<circle fill="#FFDFD3" cx="415.303" cy="500.509" r="13.618"/>
<circle fill="#FFDFD3" cx="607.048" cy="503.777" r="13.619"/>
<path fill="#FF6260" d="M437.023,529.856c0,3.949-4.358,7.149-9.737,7.149l0,0c-5.378,0-9.736-3.2-9.736-7.149V475.52
	c0-3.949,4.358-7.149,9.736-7.149l0,0c5.379,0,9.737,3.2,9.737,7.149V529.856z"/>
<path fill="#FF6260" d="M606.98,532.58c0,3.949-4.603,7.149-10.282,7.149l0,0c-5.68,0-10.281-3.2-10.281-7.149v-54.337
	c0-3.949,4.602-7.149,10.281-7.149l0,0c5.68,0,10.282,3.2,10.282,7.149V532.58z"/>
<path fill="#FF6260" d="M514.988,423.157c-41.682,0-77.92,7.417-96.417,18.33v33.065c18.497,10.914,54.735,18.33,96.417,18.33
	c38.621,0,72.567-6.367,92.06-15.984v-37.757C587.556,429.524,553.609,423.157,514.988,423.157z"/>
<ellipse fill="#FFC556" cx="509.904" cy="423.703" rx="92.06" ry="51.75"/>
<path fill="#FFC556" d="M434.187,394.287c0,0-21.789,20.155-22.879,44.124c-1.09,23.968,28.326,7.626,28.326,7.626L434.187,394.287z
	"/>
<path fill="#FFC556" d="M588.86,396.467c0,0,21.789,20.154,22.879,44.123c1.09,23.968-28.326,7.626-28.326,7.626L588.86,396.467z"/>
<ellipse fill="#F9A715" cx="508.608" cy="370.957" rx="20.426" ry="19.609"/>
<path fill="#F9A715" d="M619.952,462.926c0,7.22-6.369,13.073-14.223,13.073H418.46c-7.854,0-14.223-5.854-14.223-13.073v-11.984
	c0-7.22,6.369-13.073,14.223-13.073h187.27c7.854,0,14.223,5.854,14.223,13.073V462.926z"/>
<path fill="#EA534C" d="M577.313,531.122c-5.666,3.107-18.832,2.743-35.472-9.143c-15.759-11.257-27.415,1.759-28.604,3.168
	c-0.607-0.74-12.474-14.837-28.682-3.259c-16.639,11.885-29.804,12.251-35.473,9.143c-5.67-3.109-3.29,1.645-3.29,1.645
	c2.376,10.971,15.542,19.749,15.542,19.749c20.076,9.687,49.654,1.05,51.801,0.403v0.053c0,0,31.083,9.692,51.929-0.365
	c0,0,13.164-8.776,15.542-19.747C580.606,532.769,582.982,528.014,577.313,531.122z"/>
<path fill="#FCD1C3" d="M622.92,653.236c0,0,1.53-1.289,2.808-3.172c1.458-2.146,2.585-5.062,0.744-7.715
	c-3.456-4.975-0.172-18.813,11.119-16.602c11.292,2.213-4.854,21.756-7.872,22.478c-1.273,0.304-1.392,1.832-2.163,3.114
	c-1.054,1.757,0.26,1.576,0.26,1.576L622.92,653.236z"/>
<path fill="#FCD1C3" d="M400.179,649.273c0,0-1.436-0.16-2.764-2.008c-1.516-2.104-2.723-4.99-0.955-7.689
	c3.32-5.068-0.34-18.811-11.567-16.293c-11.228,2.52,5.446,21.615,8.483,22.254c1.28,0.271,1.439,1.793,2.246,3.055
	c1.102,1.727-0.217,1.582-0.217,1.582L400.179,649.273z"/>
<g>
	<path fill="#EA534C" d="M616.12,506.117l-0.002-0.179c-0.566,0.567-1.148,1.125-1.732,1.682
		C614.974,507.126,615.546,506.621,616.12,506.117z"/>
	<path fill="#EA534C" d="M516.623,626.523c-13.687,0-25.452-5.445-30.688-13.252c-14.647,5.193-46.554,12.151-58.895-19.553
		c-0.815,0.08-1.642,0.121-2.478,0.121c-13.238,0-23.969-10.243-23.969-22.878c0-4.976,1.67-9.575,4.494-13.33
		c-4.731-4.968-9.285-12.35-10.271-22.827c0,0-1.258-13.782,9.133-25.24c-16.243,11.958-14.58,30.144-14.58,30.144
		c0.986,10.478,5.54,17.858,10.271,22.826c-2.825,3.755-4.494,8.355-4.494,13.33c0,12.635,10.73,22.879,23.969,22.879
		c0.836,0,1.662-0.042,2.478-0.121c12.341,31.704,44.247,24.745,58.895,19.553c5.235,7.806,17.001,13.251,30.687,13.251
		c12.722,0,23.771-4.71,29.473-11.643C534.549,623.938,526.044,626.523,516.623,626.523z"/>
	<path fill="#EA534C" d="M605.69,598.474c-0.837,1.619-1.738,3.105-2.689,4.483c5.939-1.193,11.504-4.47,15.758-9.329
		C614.82,596.366,610.319,598.059,605.69,598.474z"/>
	<path fill="#EA534C" d="M547.626,612.799c-1.184,1.88-2.755,3.622-4.626,5.201c12.049,4.352,36.718,10.277,51.784-6.626
		C579.355,622.333,558.049,616.68,547.626,612.799z"/>
</g>
<circle fill="#388A29" cx="-1.851" cy="710.024" r="150.469"/>
<path fill="#306D23" d="M-2,664.943v264.806c45-25.449,78.93-75.196,78.93-132.401C76.93,740.141,43,690.394-2,664.943z"/>
<path fill="#306D23" d="M262.697,767c-25.454-47-75.194-78.904-132.391-78.904C73.109,688.096,23.368,720-2.086,767H262.697z"/>
<circle fill="#306D23" cx="1025.229" cy="706.024" r="150.469"/>
<path fill="#306D23" d="M1025,660.943v264.806c-45-25.449-78.93-75.196-78.93-132.401C946.07,736.141,980,686.394,1025,660.943z"/>
<path fill="#388A29" d="M760.682,767c25.454-47,75.194-78.904,132.391-78.904c57.197,0,106.938,31.904,132.393,78.904H760.682z"/>
<text transform="matrix(1.0199 0 0 1 489.4854 650.5586)" fill="#FCC447" font-family="'AldotheApache'" font-size="22.1552">B1M0</text>
</svg>
