<?xml version="1.0" encoding="utf-8"?>
<!-- Generator: Adobe Illustrator 15.1.0, SVG Export Plug-In . SVG Version: 6.00 Build 0)  -->
<!DOCTYPE svg PUBLIC "-//W3C//DTD SVG 1.1//EN" "http://www.w3.org/Graphics/SVG/1.1/DTD/svg11.dtd">
<svg version="1.1" id="Layer_1" xmlns="http://www.w3.org/2000/svg" xmlns:xlink="http://www.w3.org/1999/xlink" x="0px" y="0px"
	 width="1024px" height="768px" viewBox="0 0 1024 768" enable-background="new 0 0 1024 768" xml:space="preserve">
<rect x="-13" y="-10" fill="#D7E7FB" width="1037" height="549"/>
<path fill="#AECEF4" d="M-9,764.469C-9,792.362,9.057,815,31.166,815h974.061c22.107,0,39.773-22.638,39.773-50.531V638.191
	c0-27.894-17.666-50.191-39.773-50.191H31.166C9.057,588-9,610.298-9,638.191V764.469z"/>
<path fill="#8DC73F" d="M1026,588.363c0,11.121-5.25,20.637-12.29,20.637H-1.096C-8.139,609-14,599.484-14,588.363v-30.208
	C-14,547.034-8.139,537-1.096,537H1013.71c7.04,0,12.29,10.034,12.29,21.155V588.363z"/>
<ellipse fill="#388A29" cx="63.123" cy="459.027" rx="76.466" ry="77.124"/>
<path fill="#306D23" d="M-13,359.609v186.063c32-17.882,54.985-52.836,54.985-93.031S19,377.491-13,359.609z"/>
<path fill="#306D23" d="M166.916,540c-17.732-33-52.383-55.441-92.228-55.441C34.843,484.559,0.191,507-17.541,540H166.916z"/>
<rect x="-13" y="539" fill="#388A29" width="1035" height="10"/>
<g>
	<path fill="#FFDFD3" d="M627.709,497.483c0,0,0.823,0.727,1.429,1.442l48.643,8.834l-0.977-4.775
		c-29.118-83.522-65.841-57.625-65.841-57.625C581.453,473.224,627.709,497.483,627.709,497.483z"/>
	<path fill="#FFDFD3" d="M737.33,494.424l-3.824,11.679l55.264-13.16l0.191,0.809c9.25-4.161,43.077-21.812,20.389-48.864
		C809.35,444.887,775.851,414.871,737.33,494.424z"/>
	<ellipse fill="#6373C1" cx="653.19" cy="558.826" rx="43.464" ry="10.921"/>
	<ellipse fill="#6373C1" cx="770.523" cy="559.692" rx="42.985" ry="10.036"/>
	<g>
		<path fill="#8190FF" d="M710.501,519.291c-30.933,0-59.662-5.389-83.459-14.605c-9.245,24.084-15.125,52.179-15.125,52.179
			c18.467,13.487,60.496,5.138,73.239,4.494c12.734-0.645,11.458-16.055,11.458-19.91c0-3.077,4.89-6.144,14.965-6.606v-0.299
			c9.789,0.525,14.556,3.55,14.556,6.581c0,3.856-1.277,19.268,11.463,19.914c12.734,0.642,54.767,8.998,73.232-4.498
			c0,0-5.932-28.341-15.247-52.495C771.478,513.65,742.147,519.291,710.501,519.291z"/>
	</g>
	<g>
		<path fill="#FCC447" d="M784.737,479.935l-27.753-45.975l-45.813-0.178v0.322l-52.376,0.208l-23.275,52.219l0.258-1.48
			c-3.215,5.616-6.208,12.369-8.911,19.457c23.836,9.126,52.553,14.459,83.475,14.459c31.75,0,61.18-5.623,85.379-15.204
			c-3.104-8.1-6.591-15.751-10.362-21.732C784.397,480.517,784.374,479.99,784.737,479.935z"/>
	</g>
	<path fill="#2D3551" d="M701.745,303.468"/>
	<path fill="#FF6260" d="M786.77,377.956c0,32.625-34.648,59.07-77.381,59.07c-42.728,0-77.37-26.445-77.37-59.07
		s34.643-59.068,77.37-59.068C752.121,318.888,786.77,345.331,786.77,377.956z"/>
	<path fill="#FF6260" d="M802.85,384.863l-0.017-0.963c-21.213,21.397-54.534,35.186-92.011,35.186
		c-36.811,0-69.613-13.304-90.876-34.057c-17.592,10.39-15.92,28.735-15.92,28.735c0.863,9.269,4.855,15.798,9.005,20.188
		c-2.479,3.324-3.94,7.391-3.94,11.791c0,11.171,9.408,20.229,21.013,20.229c0.735,0,1.461-0.033,2.173-0.106
		c10.822,28.039,38.799,21.887,51.644,17.294c4.586,6.899,14.902,11.717,26.902,11.717c12.244,0,22.736-5.007,27.185-12.133
		c11.615,4.357,38.637,11.268,50.916-12.67c9.241-0.841,17.896-7.526,21.489-17.673c2.292-6.448,2.115-13.132-0.019-18.83
		c4.019-4.385,7.812-10.802,8.646-19.808C819.04,413.765,820.732,395.219,802.85,384.863z"/>
	<path fill="#FFDFD3" d="M638.227,379.584c0,6.648-5.346,12.044-11.941,12.044c-6.592,0-11.941-5.396-11.941-12.044
		c0-6.652,5.35-12.042,11.941-12.042C632.881,367.542,638.227,372.932,638.227,379.584z"/>
	<path fill="#FFDFD3" d="M806.348,382.474c0,6.65-5.346,12.046-11.94,12.046s-11.941-5.396-11.941-12.046
		c0-6.647,5.347-12.042,11.941-12.042S806.348,375.827,806.348,382.474z"/>
	<path fill="#FF6260" d="M645.332,405.536c0,3.493-3.823,6.321-8.538,6.321l0,0c-4.718,0-8.54-2.828-8.54-6.321v-48.05
		c0-3.493,3.822-6.324,8.54-6.324l0,0c4.715,0,8.538,2.832,8.538,6.324V405.536z"/>
	<path fill="#FF6260" d="M794.35,407.948c0,3.489-4.039,6.318-9.018,6.318l0,0c-4.98,0-9.014-2.829-9.014-6.318v-48.056
		c0-3.493,4.033-6.325,9.014-6.325l0,0c4.979,0,9.018,2.832,9.018,6.325V407.948z"/>
	<path fill="#FF6260" d="M713.688,311.176c-36.544,0-68.319,6.56-84.537,16.213v29.24c16.218,9.652,47.993,16.208,84.537,16.208
		c33.868,0,63.627-5.633,80.72-14.134v-33.388C777.314,316.809,747.556,311.176,713.688,311.176z"/>
	<ellipse fill="#FCC447" cx="709.232" cy="311.658" rx="80.718" ry="45.765"/>
	<path fill="#FCC447" d="M642.841,285.646c0,0-19.104,17.823-20.057,39.019c-0.956,21.196,24.831,6.746,24.831,6.746
		L642.841,285.646z"/>
	<path fill="#FCC447" d="M778.46,287.572c0,0,19.104,17.825,20.062,39.02c0.954,21.198-24.84,6.748-24.84,6.748L778.46,287.572z"/>
	<path fill="#F9A715" d="M726.005,265.011c0,9.582-8.02,17.34-17.907,17.34c-9.891,0-17.914-7.759-17.914-17.34
		c0-9.577,8.023-17.339,17.914-17.339C717.985,247.671,726.005,255.434,726.005,265.011z"/>
	<path fill="#F9A715" d="M805.723,346.344c0,6.39-5.585,11.564-12.468,11.564H629.054c-6.887,0-12.473-5.174-12.473-11.564V335.75
		c0-6.387,5.586-11.56,12.473-11.56h164.201c6.883,0,12.468,5.173,12.468,11.56V346.344z"/>
	<g>
		<path fill="#EA534C" d="M802.362,384.544v-0.163c-0.501,0.504-1.009,0.998-1.523,1.493
			C801.356,385.435,801.857,384.986,802.362,384.544z"/>
		<path fill="#EA534C" d="M715.12,491.025c-12.001,0-22.313-4.815-26.901-11.715c-12.845,4.587-40.82,10.741-51.639-17.297
			c-0.717,0.072-1.441,0.108-2.177,0.108c-11.605,0-21.017-9.061-21.017-20.231c0-4.399,1.468-8.468,3.943-11.789
			c-4.15-4.394-8.14-10.923-9.005-20.188c0,0-1.106-12.191,8.006-22.323c-14.241,10.578-12.783,26.659-12.783,26.659
			c0.865,9.265,4.854,15.794,9.006,20.188c-2.475,3.314-3.942,7.384-3.942,11.788c0,11.171,9.41,20.232,21.019,20.232
			c0.73,0,1.455-0.037,2.172-0.109c10.819,28.038,38.795,21.882,51.637,17.292c4.589,6.902,14.906,11.719,26.907,11.719
			c11.157,0,20.842-4.165,25.844-10.296C730.841,488.742,723.382,491.025,715.12,491.025z"/>
		<path fill="#EA534C" d="M793.216,466.22c-0.731,1.431-1.522,2.746-2.358,3.965c5.21-1.055,10.087-3.954,13.817-8.251
			C801.221,464.357,797.273,465.853,793.216,466.22z"/>
		<path fill="#EA534C" d="M742.305,478.89c-1.035,1.665-2.414,3.203-4.056,4.598c10.564,3.85,32.194,9.087,45.405-5.86
			C770.125,487.318,751.445,482.32,742.305,478.89z"/>
	</g>
</g>
<g>
	<path fill="#FCC447" d="M564.984,540.81c0,5.58-4.528,10.104-10.118,10.104H453.133c-5.587,0-10.117-4.524-10.117-10.104v-152.7
		c0-5.58,4.529-10.104,10.117-10.104h101.733c5.59,0,10.118,4.524,10.118,10.104V540.81z"/>
	<path fill="#FFF3DE" d="M554.023,461.337c0,5.795-4.688,10.495-10.475,10.495h-77.974c-5.785,0-10.475-4.7-10.475-10.495v-60.644
		c0-5.799,4.69-10.498,10.475-10.498h77.974c5.786,0,10.475,4.699,10.475,10.498V461.337z"/>
	<path fill="#F4A019" d="M502.595,481.752c0,1.399-1.456,2.534-3.252,2.534h-39.024c-1.795,0-3.251-1.135-3.251-2.534l0,0
		c0-1.399,1.456-2.533,3.251-2.533h39.024C501.139,479.219,502.595,480.353,502.595,481.752L502.595,481.752z"/>
	<path fill="#F4A019" d="M541.139,516.523c0,0,6.521,0.892,6.355,7.802C547.494,524.325,541.305,523.99,541.139,516.523z"/>
	<path fill="#F4A019" d="M550.602,533.856l6.48-6.534c-0.059-0.074-0.12-0.145-0.182-0.21c-2.055-2.141-2.918-2.474-5.834-2.408
		c0,0-1.989,0.369-3.049,1.036c-1.062,0.669-2.32-0.233-2.32-0.233s-2.221-1.337-4.938-0.535c0,0-5.369,1.605-4.508,9.628
		c0,0,1.259,7.621,5.568,9.626c0,0,1.392,0.603,2.32,0.201c0.926-0.401,3.579-1.839,6.793-0.033c0,0,2.419,0.567,3.745-1.471
		c0,0,1.136-1.379,2.016-2.921L550.602,533.856z"/>
</g>
<ellipse fill="#388A29" cx="949.251" cy="460.027" rx="76.465" ry="77.124"/>
<path fill="#306D23" d="M1025,360.609v186.063c-32-17.882-54.984-52.836-54.984-93.031S993,378.491,1025,360.609z"/>
<path fill="#306D23" d="M845.459,541c17.732-33,52.383-55.441,92.228-55.441S1012.184,508,1029.916,541H845.459z"/>
<ellipse transform="matrix(1 0.0074 -0.0074 1 6.948 -1.2424)" fill="#AECEF4" cx="171.197" cy="937.404" rx="171.135" ry="239.743"/>
<path fill="#AECEF4" d="M236,708.143c0,7.102-5.364,12.857-12.597,12.857h-99.308c-7.232,0-13.096-5.756-13.096-12.857v-64.285
	c0-7.101,5.863-12.857,13.096-12.857h99.308c7.232,0,12.597,5.757,12.597,12.857V708.143z"/>
<path fill="#FCC447" d="M220,707c0,6.627-5.373,12-12,12h-72c-6.627,0-12-5.373-12-12v-48c0-6.627,5.373-12,12-12h72
	c6.627,0,12,5.373,12,12V707z"/>
<path fill="#935227" d="M327.54,938.33c-0.854,123.906-72.058,223.791-159.038,223.099c-86.981-0.692-156.802-101.7-155.947-225.607
	c0.853-123.905,72.057-223.79,159.037-223.098S328.393,814.424,327.54,938.33z"/>
<path fill="#AB652D" d="M317.283,914.604c-0.734,106.605-66.804,192.503-147.569,191.859
	c-80.767-0.643-145.646-87.584-144.911-194.189c0.734-106.604,66.804-192.503,147.569-191.859
	C253.139,721.057,318.017,807.998,317.283,914.604z"/>
<path fill="#935227" d="M183,713.863c0,3.39-2.748,6.137-6.137,6.137h-12.727c-3.389,0-6.137-2.747-6.137-6.137v-15.727
	c0-3.39,2.748-6.137,6.137-6.137h12.727c3.389,0,6.137,2.747,6.137,6.137V713.863z"/>
<ellipse fill="#D58C4F" cx="171.49" cy="925.74" rx="118.132" ry="177.377"/>
<rect x="25" y="904" fill="#935227" width="294" height="78"/>
<polygon fill="#935227" points="292,796 50,794 73.255,761.307 270.842,764.629 "/>
<path fill="#7C4323" d="M186,1153.828c0,3.645-2.748,6.172-6.137,6.172h-18.727c-3.389,0-6.137-2.527-6.137-6.172v-61.01
	c0-3.646,2.748-6.818,6.137-6.818h18.727c3.389,0,6.137,3.173,6.137,6.818V1153.828z"/>
<path fill="none" d="M180.948,1128.309c0,0,47.103,4.545,75.341-28.523"/>
<text transform="matrix(0.9882 -0.1533 0.1533 0.9882 195.8882 1128.418)"><tspan x="0" y="0" fill="#FFDFD3" font-family="'HelveticaNeue'" font-size="18.4083">M</tspan><tspan x="17.214" y="-0.21" fill="#FFDFD3" font-family="'HelveticaNeue'" font-size="18.4083" rotate="-8.284">A</tspan><tspan x="30.241" y="-2.152" fill="#FFDFD3" font-family="'HelveticaNeue'" font-size="18.4083" rotate="-16.764">R</tspan><tspan x="43.128" y="-6.324" fill="#FFDFD3" font-family="'HelveticaNeue'" font-size="18.4083" rotate="-23.53">I</tspan><tspan x="48.504" y="-8.488" fill="#FFDFD3" font-family="'HelveticaNeue'" font-size="18.4083" rotate="-30.577">A</tspan></text>
<rect x="256.938" y="1075.766" fill="none" width="1.023" height="8.182"/>
<path fill="none" d="M78.305,1099.033c0,0,32.026,34.838,75.128,29.076"/>
<text transform="matrix(0.8269 0.5624 -0.5624 0.8269 89.2402 1108.8789)"><tspan x="0" y="0" fill="#FFDFD3" font-family="'HelveticaNeue'" font-size="18.4083">S</tspan><tspan x="12.927" y="-0.048" fill="#FFDFD3" font-family="'HelveticaNeue'" font-size="18.4083" rotate="-6.868">A</tspan><tspan x="25.966" y="-1.634" fill="#FFDFD3" font-family="'HelveticaNeue'" font-size="18.4083" rotate="-15.167">N</tspan><tspan x="39.998" y="-5.636" fill="#FFDFD3" font-family="'HelveticaNeue'" font-size="18.4083" rotate="-24.259">T</tspan><tspan x="50.885" y="-10.595" fill="#FFDFD3" font-family="'HelveticaNeue'" font-size="18.4083" rotate="-33.816">A</tspan></text>
<path fill="#FCC447" d="M150,728.25c0,2.071-1.679,3.75-3.75,3.75h-0.5c-2.071,0-3.75-1.679-3.75-3.75v-14.5
	c0-2.071,1.679-3.75,3.75-3.75h0.5c2.071,0,3.75,1.679,3.75,3.75V728.25z"/>
<path fill="#7C4323" d="M169.656,919.041c-26.531,0-48.04,21.508-48.04,48.04s21.509,48.04,48.04,48.04
	c26.532,0,48.041-21.508,48.041-48.04S196.188,919.041,169.656,919.041z M169.692,1002.959c-19.834,0-35.913-16.08-35.913-35.914
	s16.079-35.913,35.913-35.913c19.833,0,35.913,16.079,35.913,35.913S189.525,1002.959,169.692,1002.959z"/>
<rect x="164" y="961" fill="#7C4323" width="10" height="46"/>
<rect x="181.931" y="928.262" transform="matrix(-0.5771 -0.8166 0.8166 -0.5771 -482.3224 1652.998)" fill="#7C4323" width="9.729" height="46.218"/>
<rect x="147.062" y="927.452" transform="matrix(0.6399 -0.7685 0.7685 0.6399 -675.7581 459.0491)" fill="#7C4323" width="9.731" height="46.218"/>
<path fill="#7C4323" d="M177,1053.5c0,4.143-3.357,7.5-7.499,7.5h-0.002c-4.142,0-7.499-3.357-7.499-7.5v-37
	c0-4.143,3.357-7.5,7.499-7.5h0.002c4.142,0,7.499,3.357,7.499,7.5V1053.5z"/>
<path fill="#7C4323" d="M186,1058.5c0,3.59-2.91,6.5-6.5,6.5h-20c-3.59,0-6.5-2.91-6.5-6.5l0,0c0-3.59,2.91-6.5,6.5-6.5h20
	C183.09,1052,186,1054.91,186,1058.5L186,1058.5z"/>
<path fill="#F9A715" d="M220.332,707c0,0.553-0.478,1-1.066,1h-35.199c-0.589,0-1.066-0.447-1.066-1l0,0c0-0.553,0.478-1,1.066-1
	h35.199C219.854,706,220.332,706.447,220.332,707L220.332,707z"/>
</svg>
