<?xml version="1.0" encoding="utf-8"?>
<!-- Generator: Adobe Illustrator 15.1.0, SVG Export Plug-In . SVG Version: 6.00 Build 0)  -->
<!DOCTYPE svg PUBLIC "-//W3C//DTD SVG 1.1//EN" "http://www.w3.org/Graphics/SVG/1.1/DTD/svg11.dtd">
<svg version="1.1" id="Layer_1" xmlns="http://www.w3.org/2000/svg" xmlns:xlink="http://www.w3.org/1999/xlink" x="0px" y="0px"
	 width="678px" height="957px" viewBox="0 0 678 957" enable-background="new 0 0 678 957" xml:space="preserve">
<rect x="3" fill="#FFF3DE" width="672" height="957"/>
<g>
	<path fill="#F4A019" d="M197.156,241.71c0,18.593-15.074,33.671-33.667,33.671c-18.595,0-33.655-15.078-33.655-33.671
		s15.061-33.659,33.655-33.659C182.082,208.051,197.156,223.117,197.156,241.71z"/>
	<path fill="#FCC447" d="M190.068,245.256c0,7.343-6.345,13.293-14.174,13.293c-7.834,0-14.188-5.95-14.188-13.293
		c0-7.336,6.354-13.282,14.188-13.282C183.724,231.974,190.068,237.92,190.068,245.256z"/>
	<path fill="#F4A019" d="M551.512,248.793c0,18.602-15.067,33.677-33.658,33.677c-18.588,0-33.657-15.075-33.657-33.677
		c0-18.593,15.069-33.66,33.657-33.66C536.443,215.133,551.512,230.2,551.512,248.793z"/>
	<path fill="#FCC447" d="M524.936,248.809c0,7.338-6.338,13.279-14.164,13.279c-7.834,0-14.188-5.941-14.188-13.279
		c0-7.341,6.354-13.292,14.188-13.292C518.598,235.517,524.936,241.468,524.936,248.809z"/>
	<path fill="none" stroke="#F9A715" stroke-width="12.5443" stroke-miterlimit="10" d="M268.422,286.925
		c0,0,77.36,66.773,160.994-2.217"/>
</g>
<text transform="matrix(1 0 0 1 173.8994 593.8438)" enable-background="new    "><tspan x="0" y="0" fill="#F4A019" font-family="'MyriadPro-Regular'" font-size="48">Films capturés</tspan><tspan x="288.188" y="0" fill="#FFF3DE" font-family="'MyriadPro-Regular'" font-size="48">__</tspan><tspan x="336.188" y="0" fill="#F4A019" font-family="'MyriadPro-Regular'" font-size="48">&gt;</tspan></text>
<line fill="none" stroke="#F4A019" stroke-width="2" stroke-miterlimit="10" x1="3" y1="511" x2="675" y2="511"/>
<line fill="none" stroke="#F4A019" stroke-width="2" stroke-miterlimit="10" x1="6" y1="640" x2="678" y2="640"/>
<text transform="matrix(1 0 0 1 174.8994 721.8438)" enable-background="new    "><tspan x="0" y="0" fill="#F4A019" font-family="'MyriadPro-Regular'" font-size="48">Sauvegarde</tspan><tspan x="237.165" y="0" fill="#FFF3DE" font-family="'MyriadPro-Regular'" font-size="48">____</tspan><tspan x="333.165" y="0" fill="#F4A019" font-family="'MyriadPro-Regular'" font-size="48">&gt;</tspan></text>
<line fill="none" stroke="#F4A019" stroke-width="2" stroke-miterlimit="10" x1="7" y1="768" x2="679" y2="768"/>
<text transform="matrix(1 0 0 1 176.8994 844.8438)" enable-background="new    "><tspan x="0" y="0" fill="#F4A019" font-family="'MyriadPro-Regular'" font-size="48">Adresses</tspan><tspan x="177.263" y="0" fill="#FFF3DE" font-family="'MyriadPro-Regular'" font-size="48">______.</tspan><tspan x="331.197" y="0" fill="#F4A019" font-family="'MyriadPro-Regular'" font-size="48">&gt;</tspan></text>
<line fill="none" stroke="#F4A019" stroke-width="2" stroke-miterlimit="10" x1="9" y1="891" x2="681" y2="891"/>
</svg>
