<?xml version="1.0" encoding="utf-8"?>
<!-- Generator: Adobe Illustrator 15.1.0, SVG Export Plug-In . SVG Version: 6.00 Build 0)  -->
<!DOCTYPE svg PUBLIC "-//W3C//DTD SVG 1.1//EN" "http://www.w3.org/Graphics/SVG/1.1/DTD/svg11.dtd">
<svg version="1.1" id="Layer_1" xmlns="http://www.w3.org/2000/svg" xmlns:xlink="http://www.w3.org/1999/xlink" x="0px" y="0px"
	 width="255px" height="257px" viewBox="0 0 255 257" enable-background="new 0 0 255 257" xml:space="preserve">
<path fill="#2D3551" d="M117.472,57.7"/>
<ellipse fill="#FFDFD3" cx="125.446" cy="134.726" rx="80.702" ry="61.084"/>
<path d="M90.944,142.019c0,5.155-4.18,9.336-9.337,9.336c-5.155,0-9.335-4.181-9.335-9.336c0-5.159,4.181-9.34,9.335-9.34
	C86.764,132.679,90.944,136.859,90.944,142.019z"/>
<path d="M181.608,141.019c0,5.157-4.181,9.34-9.335,9.34c-5.159,0-9.337-4.183-9.337-9.34c0-5.156,4.178-9.337,9.337-9.337
	C177.428,131.682,181.608,135.862,181.608,141.019z"/>
<path fill="#FF6260" d="M222.924,141.868l-0.013-0.992c-22.132,22.124-56.885,36.383-95.971,36.383
	c-38.396,0-72.611-13.76-94.789-35.217c-18.34,10.741-16.603,29.717-16.603,29.717c0.902,9.581,5.066,16.332,9.393,20.875
	c-2.583,3.434-4.11,7.641-4.11,12.19c0,11.555,9.813,20.923,21.919,20.923c0.765,0,1.521-0.038,2.266-0.111
	c11.286,28.993,40.464,22.63,53.86,17.881c4.788,7.139,15.547,12.119,28.063,12.119c12.77,0,23.715-5.181,28.353-12.552
	c12.111,4.51,40.295,11.654,53.101-13.1c9.642-0.865,18.67-7.782,22.422-18.271c2.387-6.673,2.201-13.58-0.024-19.472
	c4.191-4.536,8.146-11.175,9.021-20.482C239.812,171.759,241.578,152.578,222.924,141.868z"/>
<circle fill="#FFDFD3" cx="38.766" cy="136.409" r="12.454"/>
<circle fill="#FFDFD3" cx="214.118" cy="139.398" r="12.454"/>
<path fill="#FF6260" d="M58.63,163.248c0,3.611-3.986,6.538-8.904,6.538l0,0c-4.918,0-8.905-2.927-8.905-6.538v-49.692
	c0-3.611,3.986-6.538,8.905-6.538l0,0c4.918,0,8.904,2.927,8.904,6.538V163.248z"/>
<path fill="#FF6260" d="M214.057,165.738c0,3.612-4.21,6.539-9.403,6.539l0,0c-5.193,0-9.402-2.927-9.402-6.539v-49.691
	c0-3.612,4.209-6.539,9.402-6.539l0,0c5.193,0,9.403,2.927,9.403,6.539V165.738z"/>
<path fill="#FF6260" d="M129.93,65.671c-38.119,0-71.259,6.782-88.175,16.763v30.238c16.916,9.981,50.056,16.764,88.175,16.764
	c35.318,0,66.363-5.824,84.188-14.618V80.289C196.293,71.494,165.248,65.671,129.93,65.671z"/>
<ellipse fill="#FFC556" cx="125.28" cy="66.17" rx="84.189" ry="47.325"/>
<path fill="#FFC556" d="M56.035,39.269c0,0-19.927,18.432-20.923,40.351s25.904,6.974,25.904,6.974L56.035,39.269z"/>
<path fill="#FFC556" d="M197.485,41.262c0,0,19.927,18.432,20.923,40.351s-25.904,6.974-25.904,6.974L197.485,41.262z"/>
<ellipse fill="#F9A715" cx="124.094" cy="17.933" rx="18.68" ry="17.933"/>
<path fill="#F9A715" d="M225.919,102.04c0,6.603-5.824,11.956-13.007,11.956H41.654c-7.183,0-13.007-5.353-13.007-11.956V91.08
	c0-6.603,5.824-11.956,13.007-11.956h171.258c7.183,0,13.007,5.353,13.007,11.956V102.04z"/>
<path fill="#EA534C" d="M186.926,164.404c-5.182,2.843-17.223,2.51-32.438-8.36c-14.412-10.294-25.071,1.608-26.159,2.897
	c-0.556-0.677-11.408-13.569-26.229-2.98c-15.216,10.868-27.256,11.204-32.44,8.361c-5.185-2.844-3.009,1.504-3.009,1.504
	c2.172,10.032,14.213,18.061,14.213,18.061c18.36,8.858,45.41,0.96,47.373,0.368v0.049c0,0,28.426,8.864,47.488-0.334
	c0,0,12.039-8.026,14.214-18.059C189.938,165.911,192.11,161.562,186.926,164.404z"/>
<g>
	<path fill="#EA534C" d="M222.415,141.538l-0.002-0.163c-0.519,0.519-1.051,1.028-1.584,1.538
		C221.366,142.46,221.89,141.999,222.415,141.538z"/>
	<path fill="#EA534C" d="M131.424,251.65c-12.517,0-23.275-4.979-28.063-12.119c-13.396,4.75-42.574,11.113-53.86-17.881
		c-0.745,0.073-1.501,0.111-2.266,0.111c-12.105,0-21.919-9.368-21.919-20.923c0-4.55,1.527-8.757,4.11-12.19
		c-4.327-4.543-8.491-11.293-9.393-20.875c0,0-1.151-12.604,8.352-23.083c-14.854,10.937-13.333,27.566-13.333,27.566
		c0.902,9.582,5.066,16.332,9.393,20.875c-2.583,3.434-4.11,7.641-4.11,12.19c0,11.555,9.813,20.923,21.919,20.923
		c0.765,0,1.521-0.038,2.266-0.111c11.286,28.994,40.464,22.631,53.86,17.882c4.788,7.139,15.547,12.118,28.063,12.118
		c11.634,0,21.739-4.308,26.953-10.647C147.817,249.286,140.039,251.65,131.424,251.65z"/>
	<path fill="#EA534C" d="M212.877,225.999c-0.766,1.48-1.59,2.84-2.46,4.1c5.433-1.092,10.521-4.087,14.411-8.532
		C221.226,224.071,217.11,225.619,212.877,225.999z"/>
	<path fill="#EA534C" d="M159.776,239.099c-1.082,1.72-2.52,3.313-4.23,4.757c11.019,3.979,33.579,9.399,47.357-6.06
		C188.793,247.818,169.309,242.648,159.776,239.099z"/>
</g>
</svg>
