<?xml version="1.0" encoding="utf-8"?>
<!-- Generator: Adobe Illustrator 15.1.0, SVG Export Plug-In . SVG Version: 6.00 Build 0)  -->
<!DOCTYPE svg PUBLIC "-//W3C//DTD SVG 1.1//EN" "http://www.w3.org/Graphics/SVG/1.1/DTD/svg11.dtd">
<svg version="1.1" id="Layer_1" xmlns="http://www.w3.org/2000/svg" xmlns:xlink="http://www.w3.org/1999/xlink" x="0px" y="0px"
	 width="1024px" height="768px" viewBox="0 0 1024 768" enable-background="new 0 0 1024 768" xml:space="preserve">
<rect fill="#D7E7FB" width="1024" height="768"/>
<rect x="522" y="135" fill="#3F2663" width="327" height="314"/>
<g>
	<path fill="#7581E6" d="M675.868,487.147c0,5.304-17.266,9.604-38.568,9.604c-21.296,0-38.563-4.301-38.563-9.604
		c0-5.307,17.268-9.607,38.563-9.607C658.603,477.54,675.868,481.841,675.868,487.147z"/>
	<path fill="#7581E6" d="M779.555,487.905c0,4.881-17.078,8.832-38.141,8.832c-21.064,0-38.144-3.951-38.144-8.832
		c0-4.876,17.079-8.829,38.144-8.829C762.477,479.076,779.555,483.029,779.555,487.905z"/>
	<g>
		<path fill="#8190FF" d="M688.156,452.366c-27.45,0-52.942-4.74-74.055-12.852c-8.201,21.19-13.421,45.903-13.421,45.903
			c16.387,11.865,53.679,4.52,64.979,3.956c11.302-0.566,10.172-14.126,10.172-17.519c0-2.705,4.34-5.405,13.279-5.811v-0.261
			c8.688,0.463,12.911,3.121,12.911,5.791c0,3.387-1.128,16.95,10.172,17.516c11.304,0.565,48.596,7.911,64.981-3.956
			c0,0-5.264-24.931-13.53-46.184C742.255,447.404,716.233,452.366,688.156,452.366z"/>
	</g>
	<g>
		<path fill="#FCC447" d="M754.027,417.743L729.4,377.3l-40.655-0.157v0.287l-46.467,0.175l-20.654,45.94l0.227-1.301
			c-2.852,4.94-5.505,10.88-7.905,17.112c21.15,8.033,46.63,12.726,74.065,12.726c28.172,0,54.28-4.948,75.757-13.38
			c-2.754-7.122-5.849-13.854-9.193-19.11C753.723,418.257,753.701,417.792,754.027,417.743z"/>
	</g>
	<path fill="#FFDFD3" d="M624.695,419.379c0,0,0.771-0.584,1.491-0.991l16.147-40.769l-4.289,0.017
		c-77.13,10.807-61.237,47.253-61.237,47.253C595.665,455.401,624.695,419.379,624.695,419.379z"/>
	<path fill="#FFDFD3" d="M740.236,377.778l-10.82-0.045l26.207,43.035l-0.627,0.382c6.026,6.668,30.091,30.395,46.479,3.878
		C801.475,425.027,817.364,388.583,740.236,377.778z"/>
	<path fill="#2D3551" d="M680.387,262.504"/>
	<path fill="#FFDFD3" d="M755.822,328.031c0,28.698-30.737,51.964-68.654,51.964c-37.915,0-68.651-23.266-68.651-51.964
		c0-28.702,30.736-51.968,68.651-51.968C725.085,276.063,755.822,299.33,755.822,328.031z"/>
	<circle cx="649.877" cy="334.234" r="7.941"/>
	<path d="M734.946,333.383c0,4.39-3.557,7.946-7.94,7.946c-4.391,0-7.945-3.557-7.945-7.946c0-4.385,3.555-7.94,7.945-7.94
		C731.39,325.443,734.946,328.998,734.946,333.383z"/>
	<path fill="#FF6260" d="M770.095,334.108l-0.011-0.843c-18.828,18.82-48.393,30.951-81.641,30.951
		c-32.667,0-61.773-11.707-80.642-29.961c-15.601,9.138-14.122,25.28-14.122,25.28c0.768,8.151,4.31,13.893,7.989,17.757
		c-2.195,2.922-3.495,6.503-3.495,10.373c0,9.829,8.348,17.799,18.646,17.799c0.651,0,1.293-0.032,1.928-0.095
		c9.6,24.666,34.423,19.252,45.818,15.211c4.074,6.072,13.227,10.311,23.877,10.311c10.86,0,20.171-4.409,24.117-10.678
		c10.303,3.838,34.279,9.915,45.171-11.146c8.204-0.737,15.883-6.622,19.078-15.543c2.029-5.678,1.869-11.551-0.023-16.563
		c3.567-3.859,6.932-9.509,7.675-17.426C784.461,359.535,785.964,343.218,770.095,334.108z"/>
	<path fill="#FFDFD3" d="M624.024,329.463c0,5.851-4.743,10.596-10.595,10.596c-5.848,0-10.594-4.746-10.594-10.596
		c0-5.852,4.746-10.594,10.594-10.594C619.281,318.869,624.024,323.612,624.024,329.463z"/>
	<path fill="#FFDFD3" d="M773.199,332.009c0,5.85-4.745,10.592-10.598,10.592c-5.849,0-10.594-4.743-10.594-10.592
		c0-5.852,4.745-10.596,10.594-10.596C768.454,321.413,773.199,326.157,773.199,332.009z"/>
	<path fill="#FF6260" d="M630.328,352.295c0,3.071-3.39,5.563-7.578,5.563l0,0c-4.181,0-7.573-2.492-7.573-5.563v-42.272
		c0-3.073,3.393-5.563,7.573-5.563l0,0c4.188,0,7.578,2.49,7.578,5.563V352.295z"/>
	<path fill="#FF6260" d="M762.552,354.414c0,3.073-3.58,5.562-7.999,5.562l0,0c-4.418,0-8.001-2.489-8.001-5.562v-42.271
		c0-3.073,3.583-5.565,8.001-5.565l0,0c4.419,0,7.999,2.492,7.999,5.565V354.414z"/>
	<path fill="#FF6260" d="M690.984,269.286c-32.43,0-60.621,5.77-75.011,14.262v25.722c14.39,8.489,42.581,14.26,75.011,14.26
		c30.046,0,56.457-4.955,71.617-12.434v-29.373C747.441,274.241,721.03,269.286,690.984,269.286z"/>
	<path fill="#FCC447" d="M758.646,269.709c0-22.234-32.064-40.259-71.617-40.259c-39.558,0-71.622,18.025-71.622,40.259
		c0,22.238,32.064,40.26,71.622,40.26C726.582,309.969,758.646,291.947,758.646,269.709z"/>
	<path fill="#FCC447" d="M628.121,246.827c0,0-16.953,15.68-17.801,34.325c-0.845,18.647,22.039,5.935,22.039,5.935L628.121,246.827
		z"/>
	<path fill="#FCC447" d="M748.455,248.521c0,0,16.95,15.68,17.797,34.329c0.849,18.647-22.035,5.93-22.035,5.93L748.455,248.521z"/>
	<ellipse fill="#F9A715" cx="686.021" cy="228.675" rx="15.891" ry="15.254"/>
	<path fill="#F9A715" d="M772.642,300.227c0,5.617-4.954,10.17-11.064,10.17h-145.69c-6.109,0-11.063-4.554-11.063-10.17v-9.325
		c0-5.616,4.954-10.17,11.063-10.17h145.69c6.11,0,11.064,4.555,11.064,10.17V300.227z"/>
	<path fill="#EA534C" d="M739.471,353.278c-4.409,2.419-14.652,2.137-27.596-7.112c-12.257-8.758-21.328,1.37-22.254,2.466
		c-0.475-0.577-9.702-11.543-22.314-2.536c-12.943,9.247-23.187,9.534-27.596,7.113c-4.41-2.419-2.56,1.282-2.56,1.282
		c1.848,8.531,12.091,15.363,12.091,15.363c15.62,7.535,38.629,0.815,40.301,0.312v0.04c0,0,24.182,7.541,40.398-0.284
		c0,0,10.241-6.826,12.091-15.363C742.032,354.56,743.882,350.864,739.471,353.278z"/>
	<path fill="#FCD1C3" d="M780.331,437.036c0,0,1.222-0.972,2.258-2.407c1.181-1.635,2.122-3.88,0.751-5.981
		c-2.575-3.946,0.287-14.634,9.015-12.662c8.734,1.973-4.259,16.812-6.623,17.305c-0.996,0.208-1.124,1.394-1.752,2.374
		c-0.86,1.343,0.166,1.229,0.166,1.229L780.331,437.036z"/>
	<path fill="#FCD1C3" d="M602.793,436.371c0,0-1.219-0.968-2.256-2.4c-1.18-1.636-2.123-3.881-0.753-5.984
		c2.578-3.946-0.282-14.633-9.015-12.661c-8.733,1.972,4.261,16.807,6.623,17.304c0.996,0.208,1.127,1.391,1.753,2.375
		c0.858,1.34-0.168,1.23-0.168,1.23L602.793,436.371z"/>
</g>
<path fill="#D58C4F" d="M682.889,173.812c-79.294,0-143.574,64.279-143.574,143.573c0,79.293,64.28,143.574,143.574,143.574
	c79.293,0,143.572-64.28,143.572-143.574C826.461,238.091,762.182,173.812,682.889,173.812z M685.854,422.988
	c-61.274,0-110.942-49.67-110.942-110.943c0-61.272,49.668-110.943,110.942-110.943c61.271,0,110.944,49.671,110.944,110.943
	C796.798,373.318,747.124,422.988,685.854,422.988z"/>
<g>
	<path fill="#AB652D" d="M560.72,320c-0.164-3-0.274-5.314-0.274-7.983c0-44.562,23.219-83.017,58.201-106.017H460v-3.753
		c0-0.581-4.634-0.901-7.586-0.901c-27.428,0-49.705,25.958-49.705,57.99c0,32.022,22.301,57.983,49.729,57.983
		c2.953,0,7.562-0.321,7.562-0.894V320H560.72z"/>
	<path fill="#AB652D" d="M1761.094,202.21c-0.736,0-3.094,0.027-3.094,0.056V206H753.495c34.979,23,58.203,61.455,58.203,106.017
		c0,2.668-0.111,4.983-0.275,7.983H1758v-2.756c0,0.047,2.117,0.075,2.846,0.075c27.426,0,50.393-25.769,50.393-57.554
		S1788.523,202.21,1761.094,202.21z"/>
</g>
<g>
	<path fill="#AB652D" d="M649.613,433c-50.988-18-87.973-64.608-87.973-120.871c0-0.382,0.025-2.129,0.028-2.129H460v5.631
		c0-0.578-4.634-0.885-7.586-0.885c-27.428,0-49.705,25.95-49.705,57.981c0,32.022,22.301,57.983,49.729,57.983
		c2.953,0,7.562-0.312,7.562-0.896V433H649.613z"/>
	<path fill="#AB652D" d="M1761.094,315.603c-0.736,0-3.094,0.016-3.094,0.056V310H812.858c0.004,0,0.028,1.748,0.028,2.129
		c0,56.263-36.989,102.871-87.965,120.871H1758v-2.345c0,0.028,2.117,0.055,2.846,0.055c27.426,0,50.393-25.769,50.393-57.553
		C1811.238,341.361,1788.523,315.603,1761.094,315.603z"/>
</g>
<path fill="#47A036" d="M2096.511-504.685c61.8,58.719,91.667,138.303,89.055,216.957c-9.774-13.18-20.809-25.708-33.125-37.414
	c-20.803-19.776-43.804-35.803-68.142-48.129c4.5-4.256,9.604-8.04,15.301-11.175c3.687-2.029,7.476-3.715,11.308-5.06
	c-17.005-5.756-36.539-4.802-54.294,3.999c-103.852-39.376-225.272-15.922-306.079,69.124
	c-49.466,52.052-75.104,118.118-77.323,184.867c-80.923-109.135-74.742-263.258,21.389-364.416
	C1802.357-609.316,1982.303-613.229,2096.511-504.685z"/>
<path fill="#3F8930" d="M2026.409-536.603c-143.752-65.468-312.404-4.1-376.705,137.074
	c-27.622,60.665-31.474,126.194-15.482,186.402c-23.062-65.761-21.903-139.679,8.974-207.515
	c64.301-141.174,232.955-202.551,376.696-137.083c77.771,35.418,132.296,100.69,155.82,175.502c-0.494-0.337-0.99-0.656-1.482-0.984
	C2147.561-448.653,2096.4-504.733,2026.409-536.603z"/>
<path fill="#47A036" d="M1402.091-545.436c-39.87,39.991-59.146,94.19-57.469,147.75c6.309-8.983,13.437-17.514,21.386-25.477
	c13.429-13.473,28.271-24.387,43.98-32.778c-2.91-2.905-6.198-5.47-9.884-7.604c-2.375-1.398-4.809-2.529-7.283-3.452
	c10.961-3.92,23.566-3.271,35.05,2.72c67.021-26.819,145.404-10.835,197.563,47.075c31.921,35.441,48.469,80.438,49.906,125.896
	c52.226-74.33,48.229-179.273-13.822-248.165C1591.969-616.682,1475.82-619.346,1402.091-545.436z"/>
<path fill="#3F8930" d="M1447.36-567.169c92.777-44.583,201.652-2.789,243.147,93.35c17.837,41.311,20.32,85.934,9.994,126.932
	c14.891-44.779,14.141-95.116-5.803-141.313c-41.49-96.133-150.36-137.928-243.147-93.35
	c-50.188,24.111-85.39,68.571-100.56,119.517c0.314-0.234,0.621-0.452,0.95-0.676C1369.16-507.274,1402.184-545.467,1447.36-567.169
	z"/>
<path fill="#AB652D" d="M1777.102-235.893c-0.586,0,1.898,0.027,1.898,0.06V-230h-229v79.085l-21.822-14.948L1444.213-230H759
	v-5.858c0-0.578-7.297-0.898-9.615-0.898c-21.525,0-39.704,25.962-39.704,57.986c0,32.019,18.548,57.989,40.073,57.989
	c2.318,0,9.246-0.332,9.246-0.897V-110h1020v-10.856c0,0.036-2.39,0.076-1.826,0.076c21.545,0,38.742-25.769,38.742-57.554
	C1815.916-210.125,1798.626-235.893,1777.102-235.893z"/>
<g>
	<path fill="#AB652D" d="M1291.713-230l-136.73-144H924v-1.807c0-0.702-4.833-1.09-6.705-1.09
		c-17.461,0-31.039,31.753-31.039,70.923c0,39.168,13.289,70.925,30.745,70.925c1.873,0,6.999-0.392,6.999-1.095V-230H1291.713z"/>
</g>
<path fill="#AB652D" d="M451.339,93.111c2.94,0,8.661,0.319,8.661,0.894V97h1298v-2.976c0-0.019,1.281-0.055,2.01-0.055
	c27.42,0,49.585,25.78,49.585,57.562c0,31.782-22.119,57.553-49.556,57.553c-0.729,0-2.039-0.026-2.039-0.072V217H460v-8.812
	c0,0.578-5.721,0.896-8.661,0.896c-27.439,0-49.673-25.968-49.673-57.991C401.666,119.071,423.899,93.111,451.339,93.111z"/>
<path fill="#935227" d="M1590,315.867c0,3.095,3.075,4.133,5.037,4.133h165.576c1.955,0-2.613-1.038-2.613-4.133v-1.397
	c0-3.086,4.568-4.47,2.613-4.47h-165.576c-1.962,0-5.037,1.384-5.037,4.47V315.867z"/>
<path fill="#935227" d="M1468,315.867c0,3.095-5.231,4.133-3.99,4.133h104.627c1.232,0,3.363-1.038,3.363-4.133v-1.397
	c0-3.086-2.131-4.47-3.363-4.47H1464.01c-1.241,0,3.99,1.384,3.99,4.47V315.867z"/>
<path fill="#935227" d="M1386,315.867c0,3.095,5.386,4.133,5.977,4.133h49.002c0.578,0,10.021-1.038,10.021-4.133v-1.397
	c0-3.086-9.443-4.47-10.021-4.47h-49.002c-0.591,0-5.977,1.384-5.977,4.47V315.867z"/>
<path fill="#935227" d="M1124,315.867c0,3.095,4.532,4.133,5.104,4.133h49.01c0.573,0,1.886-1.038,1.886-4.133v-1.397
	c0-3.086-1.312-4.47-1.886-4.47h-49.01c-0.572,0-5.104,1.384-5.104,4.47V315.867z"/>
<path fill="#935227" d="M819,315.867c0,3.095,6.689,4.133,7.826,4.133h95.908c1.138,0,3.266-1.038,3.266-4.133v-1.397
	c0-3.086-2.128-4.47-3.266-4.47h-95.908c-1.137,0-7.826,1.384-7.826,4.47V315.867z"/>
<path fill="#935227" d="M439,313.028c0,4.794,2.624,7.972,4.013,7.972h116.62c1.369,0-0.633-3.178-0.633-7.972v-2.191
	c0-4.827,2.002-3.836,0.633-3.836h-116.62c-1.389,0-4.013-0.99-4.013,3.836V313.028z"/>
<path fill="#935227" d="M1534,200.219c0-3.082,0.561-1.219-0.691-1.219h-105.841c-1.239,0-4.468-1.862-4.468,1.219v1.397
	c0,3.087,3.229,4.384,4.468,4.384h105.841c1.252,0,0.691-1.297,0.691-4.384V200.219z"/>
<path fill="#935227" d="M1608,200.219c0-3.082-1.234-1.219-1.817-1.219h-49.565c-0.594,0-6.617-1.862-6.617,1.219v1.397
	c0,3.087,6.023,4.384,6.617,4.384h49.565c0.583,0,1.817-1.297,1.817-4.384V200.219z"/>
<path fill="#935227" d="M1779,202.794c0-3.084-11.013-3.794-12.662-3.794h-140.011c-1.651,0,3.673,0.709,3.673,3.794v1.409
	c0,3.073-5.324,1.797-3.673,1.797h140.011c1.649,0,12.662,1.276,12.662-1.797V202.794z"/>
<path fill="#AB652D" d="M451.339,536.378c2.94,0,8.661,0.307,8.661,0.892V533h1298v4.291c0-0.037,1.281-0.074,2.01-0.074
	c27.42,0,49.585,25.776,49.585,57.563c0,31.783-22.119,57.563-49.556,57.563c-0.729,0-2.039-0.04-2.039-0.065V655H460v-3.553
	c0,0.577-5.721,0.896-8.661,0.896c-27.439,0-49.673-25.971-49.673-57.984C401.666,562.329,423.899,536.378,451.339,536.378z"/>
<path fill="#AB652D" d="M451.339,645.251c2.94,0,8.661,0.341,8.661,0.936V651h1298v-4.783c0-0.041,1.281-0.067,2.01-0.067
	c27.42,0,49.585,26.747,49.585,59.745c0,33.013-22.119,59.751-49.556,59.751c-0.729,0-2.039-0.038-2.039-0.074V768H460v-3.283
	c0,0.589-5.721,0.929-8.661,0.929c-27.439,0-49.673-26.946-49.673-60.198C401.666,672.217,423.899,645.251,451.339,645.251z"/>
<path fill="#AB652D" d="M450.256,425.761c2.956,0,9.744,0.312,9.744,0.897V430h1298v-3.326c0-0.027,0.191-0.056,0.924-0.056
	c27.43,0,49.045,25.767,49.045,57.549c0,31.791-21.318,57.56-48.733,57.56c-0.733,0-1.235-0.027-1.235-0.064V543H460v-2.168
	c0,0.574-6.788,0.895-9.744,0.895c-27.441,0-49.675-25.957-49.675-57.983C400.581,451.711,422.814,425.761,450.256,425.761z"/>
<path fill="#935227" d="M1590,650.88c0,3.095,0.501,4.12,2.455,4.12h165.584c1.953,0-0.039-1.025-0.039-4.12v-1.389
	c0-3.084,1.992-11.491,0.039-11.491h-165.584c-1.954,0-2.455,8.407-2.455,11.491V650.88z"/>
<path fill="#935227" d="M1468,650.88c0,3.095-7.815,4.12-6.575,4.12h104.632c1.239,0,5.943-1.025,5.943-4.12v-1.389
	c0-3.084-4.704-11.491-5.943-11.491h-104.632c-1.24,0,6.575,8.407,6.575,11.491V650.88z"/>
<path fill="#935227" d="M1386,650.88c0,3.095,2.813,4.12,3.396,4.12h48.999c0.577,0,4.604-1.025,4.604-4.12v-1.389
	c0-3.084-4.027-11.491-4.604-11.491h-48.999c-0.583,0-3.396,8.407-3.396,11.491V650.88z"/>
<path fill="#935227" d="M1196,650.88c0,3.095,0.215,4.12,2.161,4.12h165.583c1.956,0,3.256-1.025,3.256-4.12v-1.389
	c0-3.084-1.3-11.491-3.256-11.491h-165.583c-1.946,0-2.161,8.407-2.161,11.491V650.88z"/>
<path fill="#935227" d="M1124,650.88c0,3.095,1.956,4.12,2.532,4.12h49.001c0.583,0,4.467-1.025,4.467-4.12v-1.389
	c0-3.084-3.884-11.491-4.467-11.491h-49.001c-0.576,0-2.532,8.407-2.532,11.491V650.88z"/>
<path fill="#935227" d="M937,650.88c0,3.095,0,4.12,0,4.12h163.89c1.942,0,1.11-1.025,1.11-4.12v-1.389
	c0-3.084,0.832-11.491-1.11-11.491H937c0,0,0,8.407,0,11.491V650.88z"/>
<path fill="#935227" d="M804,650.88c0,3.095,4.193,4.12,5.425,4.12h104.638c1.229,0,5.938-1.025,5.938-4.12v-1.389
	c0-3.084-4.708-11.491-5.938-11.491H809.425c-1.231,0-5.425,8.407-5.425,11.491V650.88z"/>
<path fill="#935227" d="M1010,535.234c0-3.076-0.84-2.234-2.829-2.234H839.686c-1.979,0-6.686-0.842-6.686,2.234v1.4
	c0,3.082,4.706,9.365,6.686,9.365h167.485c1.989,0,2.829-6.283,2.829-9.365V535.234z"/>
<path fill="#935227" d="M1133,535.234c0-3.076,2.75-2.234,1.507-2.234h-105.842c-1.249,0-6.665-0.842-6.665,2.234v1.4
	c0,3.082,5.416,9.365,6.665,9.365h105.842c1.243,0-1.507-6.283-1.507-9.365V535.234z"/>
<path fill="#935227" d="M1218,535.234c0-3.076-10.046-2.234-10.63-2.234h-49.585c-0.565,0-7.785-0.842-7.785,2.234v1.4
	c0,3.095,7.22,9.365,7.785,9.365h49.585c0.584,0,10.63-6.283,10.63-9.365V535.234z"/>
<path fill="#935227" d="M1401,535.234c0-3.076,1.777-2.234-0.191-2.234h-167.495c-1.971,0-9.313-0.842-9.313,2.234v1.4
	c0,3.082,7.343,9.365,9.313,9.365h167.495c1.969,0,0.191-6.283,0.191-9.365V535.234z"/>
<path fill="#935227" d="M1534,535.234c0-3.076-2.012-2.234-3.271-2.234h-105.833c-1.243,0-1.896-0.842-1.896,2.234v1.4
	c0,3.082,0.653,9.365,1.896,9.365h105.833c1.259,0,3.271-6.283,3.271-9.365V535.234z"/>
<path fill="#935227" d="M1603,535.234c0-3.076,1.2-2.234,0.607-2.234h-49.577c-0.582,0-4.03-0.842-4.03,2.234v1.4
	c0,3.082,3.448,9.365,4.03,9.365h49.577c0.593,0-0.607-6.283-0.607-9.365V535.234z"/>
<path fill="#935227" d="M1767,537.816c0-3.081-1.587-4.816-3.24-4.816h-140.017c-1.649,0,6.257,1.735,6.257,4.816v1.398
	c0,3.098-7.906,6.785-6.257,6.785h140.017c1.653,0,3.24-3.688,3.24-6.785V537.816z"/>
<path fill="#935227" d="M1022,427.003c0-3.083,5.728-3.003,4.468-3.003h-105.84c-1.244,0-0.628-0.08-0.628,3.003v1.396
	c0,3.087-0.616,4.602,0.628,4.602h105.84c1.26,0-4.468-1.515-4.468-4.602V427.003z"/>
<path fill="#935227" d="M1102,427.003c0-3.083-2.068-3.003-2.653-3.003h-49.565c-0.604,0-5.781-0.08-5.781,3.003v1.396
	c0,3.087,5.177,4.602,5.781,4.602h49.565c0.585,0,2.653-1.51,2.653-4.602V427.003z"/>
<path fill="#935227" d="M1294,427.003c0-3.083,0.744-3.003-1.227-3.003h-167.494c-1.972,0-1.279-0.08-1.279,3.003v1.396
	c0,3.087-0.692,4.602,1.279,4.602h167.494c1.971,0,1.227-1.515,1.227-4.602V427.003z"/>
<path fill="#935227" d="M1367,427.003c0-3.083-1.183-3.003-1.766-3.003h-49.566c-0.593,0-5.668-0.08-5.668,3.003v1.396
	c0,3.087,5.075,4.602,5.668,4.602h49.566c0.583,0,1.766-1.515,1.766-4.602V427.003z"/>
<path fill="#935227" d="M1562,427.003c0-3.083-1.35-3.003-3.329-3.003h-167.494c-1.972,0-5.177-0.08-5.177,3.003v1.396
	c0,3.087,3.205,4.602,5.177,4.602h167.494c1.979,0,3.329-1.515,3.329-4.602V427.003z"/>
<path fill="#935227" d="M1694,427.003c0-3.083-6.749-3.003-8.01-3.003h-105.833c-1.251,0-0.157-0.08-0.157,3.003v1.396
	c0,3.087-1.094,4.602,0.157,4.602h105.833c1.261,0,8.01-1.515,8.01-4.602V427.003z"/>
<path fill="#935227" d="M1758,427.003c0-3.083,1.445-3.003,0.863-3.003h-49.568c-0.584,0,1.705-0.08,1.705,3.003v1.396
	c0,3.092-2.289,4.602-1.705,4.602h49.568c0.582,0-0.863-1.515-0.863-4.602V427.003z"/>
<path fill="#D58C4F" d="M1385.113,306.665c0,69.383,56.241,125.633,125.632,125.633c69.367,0,125.614-56.25,125.614-125.633
	c0-69.385-56.247-125.632-125.614-125.632C1441.354,181.033,1385.113,237.28,1385.113,306.665z"/>
<path fill="#AECEF4" d="M1399.282,306.665c0,60.839,50.188,110.168,112.103,110.168c61.9,0,112.092-49.33,112.092-110.168
	c0-60.838-50.191-110.167-112.092-110.167C1449.47,196.497,1399.282,245.827,1399.282,306.665z"/>
<path fill="#D7E7FB" d="M1429.474,230.963l164.112,145.507c-20.203,23.129-50.006,37.782-83.307,37.782
	c-60.828,0-110.141-48.867-110.141-109.139C1400.139,276.479,1411.288,250.443,1429.474,230.963z"/>
<path fill="#935227" d="M1133-349.008c0,3.085,0.688,2.008,1.252,2.008h49.021c0.574,0,5.727,1.077,5.727-2.008v-1.408
	c0-3.08-5.152-2.583-5.727-2.583h-49.021c-0.564,0-1.252-0.496-1.252,2.583V-349.008z"/>
<path fill="#935227" d="M947-349.008c0,3.085-5.926,2.008-3.965,2.008h165.586c1.947,0,6.379,1.077,6.379-2.008v-1.408
	c0-3.08-4.432-2.583-6.379-2.583H943.035c-1.961,0,3.965-0.496,3.965,2.583V-349.008z"/>
<path fill="#AB652D" d="M612.548-128.514c2.608,0,7.452,0.312,7.452,0.893V-118h1159v-9.601c0-0.028-3.781-0.063-3.139-0.063
	c24.281,0,41.43,25.778,41.43,57.563c0,31.784-15.886,57.554-40.169,57.554c-0.641,0,1.878-0.028,1.878-0.065V-6H620v-7.434
	c0,0.566-4.844,0.886-7.452,0.886c-24.275,0-43.955-25.97-43.955-57.975C568.593-102.562,588.272-128.514,612.548-128.514z"/>
<path fill="#AB652D" d="M473.306-15.133c2.905,0,6.694,0.32,6.694,0.896V-18h1287v3.799c0-0.046-0.299-0.074,0.412-0.074
	c27.055,0,48.131,25.78,48.131,57.563c0,31.786-20.634,57.554-47.687,57.554c-0.735,0-0.856-0.028-0.856-0.062V104H480v-4.043
	c0,0.565-3.789,0.885-6.694,0.885c-27.053,0-48.979-25.953-48.979-57.981C424.326,10.83,446.253-15.133,473.306-15.133z"/>
<path fill="#935227" d="M1590-14c0,3.086,5.658,8,7.619,8h165.577c1.945,0,3.804-4.914,3.804-8v-1.397
	c0-3.083-1.858-8.603-3.804-8.603h-165.577c-1.961,0-7.619,5.519-7.619,8.603V-14z"/>
<path fill="#935227" d="M1468-14c0,3.086-2.658,8-1.426,8h104.65c1.217,0,0.775-4.914,0.775-8v-1.397
	c0-3.083,0.441-8.603-0.775-8.603h-104.65c-1.232,0,1.426,5.519,1.426,8.603V-14z"/>
<path fill="#935227" d="M1386-14c0,3.086,7.972,8,8.553,8h48.992c0.592,0,7.455-4.914,7.455-8v-1.397
	c0-3.083-6.863-8.603-7.455-8.603h-48.992c-0.581,0-8.553,5.519-8.553,8.603V-14z"/>
<path fill="#935227" d="M1207-14c0,3.086-5.638,8-3.686,8h165.588c1.955,0,4.098-4.914,4.098-8v-1.397
	c0-3.083-2.143-8.603-4.098-8.603h-165.588c-1.952,0,3.686,5.519,3.686,8.603V-14z"/>
<path fill="#935227" d="M1133-14c0,3.086-1.89,8-1.32,8h49.01c0.571,0,8.311-4.914,8.311-8v-1.397c0-3.083-7.739-8.603-8.311-8.603
	h-49.01c-0.569,0,1.32,5.519,1.32,8.603V-14z"/>
<path fill="#935227" d="M937-14c0,3.086,1.498,8,3.461,8h165.585c1.945,0,8.954-4.914,8.954-8v-1.397
	c0-3.083-7.009-8.603-8.954-8.603H940.461c-1.963,0-3.461,5.519-3.461,8.603V-14z"/>
<path fill="#935227" d="M816-14c0,3.086-3,8,0,8h103.223c1.231,0,4.777-4.914,4.777-8v-1.397c0-3.083-3.546-8.603-4.777-8.603H816
	c-3,0,0,5.519,0,8.603V-14z"/>
<path fill="#935227" d="M739-14c0,3.086,2.965,8,3.544,8h49.021c0.565,0,2.435-4.914,2.435-8v-1.397
	c0-3.083-1.869-8.603-2.435-8.603h-49.021c-0.579,0-3.544,5.519-3.544,8.603V-14z"/>
<path fill="#935227" d="M545-14c0,3.086,4.353,8,6.323,8h165.57c1.962,0,7.106-4.914,7.106-8v-1.397
	c0-3.083-5.145-8.603-7.106-8.603h-165.57c-1.971,0-6.323,5.519-6.323,8.603V-14z"/>
<path fill="#935227" d="M823-129.655c0-3.076-3.523,0.655-4.106,0.655h-49.569c-0.583,0-2.324-3.731-2.324-0.645v1.396
	c0,3.085,1.741,10.248,2.324,10.248h49.569c0.583,0,4.106-7.163,4.106-10.248V-129.655z"/>
<path fill="#935227" d="M1022-129.645c0-3.086-7.692,0.645-9.674,0.645H844.844c-1.993,0-1.844-3.731-1.844-0.645v1.396
	c0,3.085-0.149,10.248,1.844,10.248h167.482c1.981,0,9.674-7.163,9.674-10.248V-129.645z"/>
<path fill="#935227" d="M1143-129.645c0-3.086-2.092,0.645-3.352,0.645h-105.834c-1.24,0,3.186-3.731,3.186-0.645v1.396
	c0,3.085-4.426,10.248-3.186,10.248h105.834c1.26,0,3.352-7.163,3.352-10.248V-129.645z"/>
<path fill="#935227" d="M1218-129.645c0-3.086-4.896,0.645-5.47,0.645h-49.578c-0.583,0-2.952-3.731-2.952-0.645v1.396
	c0,3.085,2.369,10.248,2.952,10.248h49.578c0.574,0,5.47-7.163,5.47-10.248V-129.645z"/>
<path fill="#935227" d="M1414-129.645c0-3.086-6.065,0.645-8.036,0.645h-167.493c-1.98,0-2.471-3.731-2.471-0.645v1.396
	c0,3.085,0.49,10.248,2.471,10.248h167.493c1.971,0,8.036-7.163,8.036-10.248V-129.645z"/>
<path fill="#935227" d="M1546-129.645c0-3.086-8.865,0.645-10.116,0.645h-105.84c-1.242,0,0.956-3.731,0.956-0.645v1.396
	c0,3.085-2.198,10.248-0.956,10.248h105.84c1.251,0,10.116-7.163,10.116-10.248V-129.645z"/>
<path fill="#935227" d="M1608-129.645c0-3.086,1.342,0.645,0.754,0.645h-49.563c-0.587,0-9.19-3.731-9.19-0.645v1.396
	c0,3.085,8.604,10.248,9.19,10.248h49.563c0.598,0-0.754-7.163-0.754-10.248V-129.645z"/>
<path fill="#935227" d="M1779-127.062c0-3.095-8.438-1.938-10.079-1.938H1628.89c-1.649,0,1.11-1.157,1.11,1.938v1.39
	c0,3.083-2.76,7.672-1.11,7.672h140.031c1.642,0,10.079-4.59,10.079-7.672V-127.062z"/>
<path fill="#935227" d="M1037-237.879c0-3.086-4.126-3.121-5.364-3.121H925.784c-1.242,0-1.784,0.035-1.784,3.121v1.393
	c0,3.088,0.542,6.486,1.784,6.486h105.852c1.238,0,5.364-3.397,5.364-6.486V-237.879z"/>
<path fill="#935227" d="M1102-237.881c0-3.084,3.077-3.119,2.494-3.119h-49.574c-0.584,0-10.92,0.035-10.92,3.121v1.393
	c0,3.085,10.336,6.486,10.92,6.486h49.574c0.583,0-2.494-3.397-2.494-6.486V-237.881z"/>
<path fill="#935227" d="M1301-237.879c0-3.086-1.089-3.121-3.072-3.121h-167.491c-1.981,0-6.437,0.035-6.437,3.121v1.393
	c0,3.088,4.455,6.486,6.437,6.486h167.491c1.983,0,3.072-3.397,3.072-6.486V-237.879z"/>
<path fill="#935227" d="M1373-237.881c0-3.084-2.017-3.119-2.605-3.119h-49.579c-0.581,0-1.815,0.035-1.815,3.121v1.393
	c0,3.085,1.234,6.486,1.815,6.486h49.579c0.589,0,2.605-3.397,2.605-6.486V-237.881z"/>
<path fill="#935227" d="M1590,104.538c0,3.095,5.658,7.462,7.619,7.462h165.577c1.945,0,3.804-4.367,3.804-7.462v-1.387
	c0-3.088-1.858-6.151-3.804-6.151h-165.577c-1.961,0-7.619,3.063-7.619,6.151V104.538z"/>
<path fill="#723C1F" d="M1468,104.538c0,3.095-2.463,7.462,0.601,7.462h259.415c3.06,0-0.016-4.367-0.016-7.462v-1.387
	c0-3.088,3.075-6.151,0.016-6.151h-259.415c-3.063,0-0.601,3.063-0.601,6.151V104.538z"/>
<path fill="#935227" d="M1386,104.538c0,3.095,7.972,7.462,8.553,7.462h48.992c0.592,0,7.455-4.367,7.455-7.462v-1.387
	c0-3.088-6.863-6.151-7.455-6.151h-48.992c-0.581,0-8.553,3.063-8.553,6.151V104.538z"/>
<path fill="#723C1F" d="M545,104.538c0,3.095,4.353,7.462,6.323,7.462h165.57c1.962,0,7.106-4.367,7.106-7.462v-1.387
	c0-3.088-5.145-6.151-7.106-6.151h-165.57c-1.971,0-6.323,3.063-6.323,6.151V104.538z"/>
<path fill="#935227" d="M460,104.538c0,3.095-12.682,7.462-11.74,7.462h79.768c0.941,0,5.973-4.367,5.973-7.462v-1.387
	c0-3.088-5.031-6.151-5.973-6.151H448.26c-0.941,0,11.74,3.063,11.74,6.151V104.538z"/>
<path fill="#AB652D" d="M1923.275,310.762c20.192,16.324,45.271,18.786,55.994,5.505l25.934-32.067
	c10.734-13.271,3.069-37.282-17.115-53.6l-871.263-704.32c-20.181-16.321-45.255-18.785-55.99-5.503l-25.923,32.062
	c-10.735,13.289-3.068,37.284,17.118,53.611L1923.275,310.762z"/>
<path fill="#AB652D" d="M262.957,305.617c-20.192,16.319-45.266,18.786-56.002,5.493l-25.921-32.057
	c-10.741-13.292-3.078-37.29,17.113-53.604l871.252-704.322c20.183-16.325,45.256-18.794,56-5.504l25.914,32.064
	c10.746,13.284,3.086,37.283-17.107,53.606L262.957,305.617z"/>
<path fill="#935227" d="M248.06,281.245c-20.186,16.319-44.803,19.358-54.971,6.78l-24.545-30.368
	c-10.172-12.571-2.047-36.004,18.146-52.324l871.25-704.325c20.193-16.316,44.805-19.351,54.963-6.772l24.556,30.36
	c10.169,12.578,2.042,36.004-18.147,52.332L248.06,281.245z"/>
<path fill="#D58C4F" d="M797.075,759c-12.973-25-20.083-68.801-20.083-108.011c0-174.609,140.773-314.489,314.43-314.489
	c173.637,0,314.415,139.033,314.415,313.659c0,39.196-7.12,83.841-20.081,108.841H797.075z"/>
<path fill="#935227" d="M835.287,759c-11.329-25-17.545-62.173-17.545-97.135c0-155.709,122.932-280.841,274.567-280.841
	c151.63,0,274.543,124.601,274.543,280.308c0,34.944-6.219,72.668-17.529,97.668H835.287z"/>
<path fill="#7C4323" d="M924,603.085c0-17.088-9.409-32.085-26.477-32.085h-9.495C870.947,571,862,585.997,862,603.085v51.081
	c0,17.087,8.947,27.834,26.028,27.834h9.495C914.591,682,924,671.253,924,654.166V603.085z"/>
<path fill="#54240C" d="M876.353,626.563c0,7.834,6.345,14.186,14.176,14.186c7.832,0,14.168-6.352,14.168-14.186
	c0-7.82-6.336-14.179-14.168-14.179C882.697,612.385,876.353,618.743,876.353,626.563z"/>
<rect x="886" y="637" fill="#54240C" width="10" height="14"/>
<path fill="#F5F5F5" d="M1760.577,650.88"/>
<path fill="#935227" d="M1074.809-414.859c-20.061-16.483-27.995-39.978-17.734-52.466l24.792-30.178
	c10.27-12.5,34.86-9.264,54.916,7.212l865.653,711.19c20.056,16.475,28.006,39.962,17.737,52.458l-24.782,30.18
	c-10.272,12.486-34.853,9.272-54.916-7.213L1074.809-414.859z"/>
<path fill="#935227" d="M580.843,426c0,3.93-6.22,8-13.891,8H452.347c-7.671,0-13.892-4.07-13.892-8l0,0c0-3.93,6.22-8,13.892-8
	h114.605C574.623,418,580.843,422.07,580.843,426L580.843,426z"/>
<rect x="3.5" y="-20.5" fill="none" stroke="#935227" stroke-miterlimit="10" width="1383" height="788"/>
<path fill="#935227" d="M695.939,538.5c0,3.934-11.455,7.5-25.582,7.5H459.292c-14.127,0-25.583-3.566-25.583-7.5l0,0
	c0-3.928,11.456-7.5,25.583-7.5h211.065C684.484,531,695.939,534.572,695.939,538.5L695.939,538.5z"/>
<path fill="#935227" d="M782.559,538.5c0,3.934-2.695,7.5-6.021,7.5h-49.661c-3.323,0-6.019-3.566-6.019-7.5l0,0
	c0-3.928,2.695-7.5,6.019-7.5h49.661C779.863,531,782.559,534.572,782.559,538.5L782.559,538.5z"/>
<path fill="#935227" d="M699.498,538.5c0,3.934-2.695,7.5-6.019,7.5H643.82c-3.328,0-6.023-3.566-6.023-7.5l0,0
	c0-3.928,2.695-7.5,6.023-7.5h49.659C696.803,531,699.498,534.572,699.498,538.5L699.498,538.5z"/>
<path fill="#935227" d="M583.217,426c0,3.93-2.696,8-6.021,8h-49.658c-3.326,0-6.021-4.07-6.021-8l0,0c0-3.93,2.695-8,6.021-8
	h49.658C580.521,418,583.217,422.07,583.217,426L583.217,426z"/>
<path fill="#935227" d="M694.06,647c0,3.932-6.48,8-14.471,8H560.21c-7.991,0-14.472-4.068-14.472-8l0,0c0-3.932,6.48-8,14.472-8
	h119.379C687.579,639,694.06,643.068,694.06,647L694.06,647z"/>
<path fill="#935227" d="M774.619,647c0,3.932-2.695,8-6.021,8h-49.661c-3.326,0-6.021-4.068-6.021-8l0,0c0-3.932,2.694-8,6.021-8
	h49.661C771.924,639,774.619,643.068,774.619,647L774.619,647z"/>
<path fill="#935227" d="M605.067,647c0,3.932-2.694,8-6.021,8h-49.658c-3.327,0-6.022-4.068-6.022-8l0,0c0-3.932,2.695-8,6.022-8
	h49.658C602.373,639,605.067,643.068,605.067,647L605.067,647z"/>
<path fill="#935227" d="M526.261,647c0,3.932-2.694,8-6.021,8h-49.659c-3.326,0-6.021-4.068-6.021-8l0,0c0-3.932,2.695-8,6.021-8
	h49.659C523.566,639,526.261,643.068,526.261,647L526.261,647z"/>
<path fill="#935227" d="M813.409,426c0,3.93-2.694,8-6.021,8h-49.659c-3.326,0-6.021-4.07-6.021-8l0,0c0-3.93,2.694-8,6.021-8
	h49.659C810.715,418,813.409,422.07,813.409,426L813.409,426z"/>
<path fill="#935227" d="M857.313,426c0,3.93-3.89,8-8.684,8H777c-4.791,0-8.68-4.07-8.68-8l0,0c0-3.93,3.889-8,8.68-8h71.63
	C853.424,418,857.313,422.07,857.313,426L857.313,426z"/>
<path fill="#935227" d="M928.506,314c0,3.929-3.89,7-8.681,7h-71.63c-4.793,0-8.683-3.071-8.683-7l0,0c0-3.93,3.89-7,8.683-7h71.63
	C924.616,307,928.506,310.07,928.506,314L928.506,314z"/>
<path fill="#935227" d="M904.029,314c0,3.929-3.891,7-8.681,7h-71.631c-4.792,0-8.682-3.071-8.682-7l0,0c0-3.93,3.89-7,8.682-7
	h71.631C900.139,307,904.029,310.07,904.029,314L904.029,314z"/>
<path fill="#935227" d="M1049.532,314c0,3.929-3.885,7-8.679,7h-71.63c-4.792,0-8.681-3.071-8.681-7l0,0c0-3.93,3.889-7,8.681-7
	h71.63C1045.647,307,1049.532,310.07,1049.532,314L1049.532,314z"/>
<path fill="#935227" d="M1234.638,314c0,3.929-11.454,7-25.582,7H997.991c-14.128,0-25.583-3.071-25.583-7l0,0
	c0-3.93,11.455-7,25.583-7h211.064C1223.184,307,1234.638,310.07,1234.638,314L1234.638,314z"/>
<path fill="#935227" d="M1237.011,314c0,3.929-3.888,7-8.681,7h-71.63c-4.792,0-8.682-3.071-8.682-7l0,0c0-3.93,3.89-7,8.682-7
	h71.63C1233.123,307,1237.011,310.07,1237.011,314L1237.011,314z"/>
<path fill="#935227" d="M1355.668,314c0,3.929-3.89,7-8.684,7h-71.629c-4.789,0-8.68-3.071-8.68-7l0,0c0-3.93,3.891-7,8.68-7h71.629
	C1351.778,307,1355.668,310.07,1355.668,314L1355.668,314z"/>
<path fill="#935227" d="M522.702,208c0,3.93-3.889,8-8.681,8h-71.63c-4.793,0-8.682-4.07-8.682-8l0,0c0-3.931,3.889-8,8.682-8h71.63
	C518.813,200,522.702,204.069,522.702,208L522.702,208z"/>
<path fill="#935227" d="M707.806,208c0,3.93-11.455,8-25.583,8H471.158c-14.127,0-25.582-4.07-25.582-8l0,0
	c0-3.931,11.455-8,25.582-8h211.064C696.351,200,707.806,204.069,707.806,208L707.806,208z"/>
<path fill="#935227" d="M710.178,208c0,3.93-3.889,8-8.68,8h-71.63c-4.792,0-8.682-4.07-8.682-8l0,0c0-3.931,3.89-8,8.682-8h71.63
	C706.289,200,710.178,204.069,710.178,208L710.178,208z"/>
<path fill="#935227" d="M845.445,208c0,3.93-3.889,8-8.682,8h-71.629c-4.792,0-8.68-4.07-8.68-8l0,0c0-3.931,3.888-8,8.68-8h71.629
	C841.557,200,845.445,204.069,845.445,208L845.445,208z"/>
<path fill="#935227" d="M956.984,208c0,3.93-3.89,8-8.684,8h-71.629c-4.791,0-8.681-4.07-8.681-8l0,0c0-3.931,3.89-8,8.681-8h71.629
	C953.095,200,956.984,204.069,956.984,208L956.984,208z"/>
<path fill="#935227" d="M1068.519,208c0,3.93-3.887,8-8.681,8h-71.63c-4.792,0-8.679-4.07-8.679-8l0,0c0-3.931,3.887-8,8.679-8
	h71.63C1064.632,200,1068.519,204.069,1068.519,208L1068.519,208z"/>
<path fill="#935227" d="M1253.624,208c0,3.93-11.456,8-25.585,8h-211.062c-14.129,0-25.584-4.07-25.584-8l0,0
	c0-3.931,11.455-8,25.584-8h211.062C1242.168,200,1253.624,204.069,1253.624,208L1253.624,208z"/>
<path fill="#935227" d="M1255.996,208c0,3.93-3.889,8-8.683,8h-71.629c-4.792,0-8.679-4.07-8.679-8l0,0c0-3.931,3.887-8,8.679-8
	h71.629C1252.107,200,1255.996,204.069,1255.996,208L1255.996,208z"/>
<path fill="#935227" d="M1369.904,208c0,3.93-3.889,8-8.678,8h-71.63c-4.792,0-8.683-4.07-8.683-8l0,0c0-3.931,3.891-8,8.683-8
	h71.63C1366.016,200,1369.904,204.069,1369.904,208L1369.904,208z"/>
<path fill="#935227" d="M1555.01,208c0,3.93-11.455,8-25.584,8h-211.063c-14.126,0-25.581-4.07-25.581-8l0,0
	c0-3.931,11.455-8,25.581-8h211.063C1543.555,200,1555.01,204.069,1555.01,208L1555.01,208z"/>
<path fill="#935227" d="M1557.381,208c0,3.93-3.889,8-8.68,8h-71.629c-4.792,0-8.681-4.07-8.681-8l0,0c0-3.931,3.889-8,8.681-8
	h71.629C1553.492,200,1557.381,204.069,1557.381,208L1557.381,208z"/>
<path fill="#935227" d="M1155.14,104c0,3.93,3.889,7,8.68,7h71.631c4.791,0,8.68-3.07,8.68-7l0,0c0-3.931-3.889-7-8.68-7h-71.631
	C1159.028,97,1155.14,100.069,1155.14,104L1155.14,104z"/>
<path fill="#935227" d="M1043.602,104c0,3.93,3.889,7,8.684,7h71.627c4.793,0,8.682-3.07,8.682-7l0,0c0-3.931-3.889-7-8.682-7
	h-71.627C1047.49,97,1043.602,100.069,1043.602,104L1043.602,104z"/>
<path fill="#935227" d="M746.962,104c0,3.93,11.454,7,25.583,7h211.064c14.128,0,25.583-3.07,25.583-7l0,0
	c0-3.931-11.455-7-25.583-7H772.545C758.416,97,746.962,100.069,746.962,104L746.962,104z"/>
<path fill="#935227" d="M744.589,104c0,3.93,3.89,7,8.681,7h71.63c4.793,0,8.681-3.07,8.681-7l0,0c0-3.931-3.888-7-8.681-7h-71.63
	C748.479,97,744.589,100.069,744.589,104L744.589,104z"/>
<path fill="#935227" d="M934.438,104c0,3.93,3.891,7,8.683,7h71.628c4.793,0,8.682-3.07,8.682-7l0,0c0-3.931-3.889-7-8.682-7H943.12
	C938.328,97,934.438,100.069,934.438,104L934.438,104z"/>
<path fill="#935227" d="M1271.422,102c0,3.93,11.455,7,25.582,7h211.065c14.125,0,25.581-3.07,25.581-7l0,0
	c0-3.929-11.456-7-25.581-7h-211.065C1282.877,95,1271.422,98.071,1271.422,102L1271.422,102z"/>
<path fill="#935227" d="M1271.422,102c0,3.93,3.887,7,8.681,7h71.63c4.793,0,8.682-3.07,8.682-7l0,0c0-3.929-3.889-7-8.682-7h-71.63
	C1275.309,95,1271.422,98.071,1271.422,102L1271.422,102z"/>
<path fill="#935227" d="M694.619,647c0,3.932-2.695,8-6.021,8h-49.661c-3.326,0-6.021-4.068-6.021-8l0,0c0-3.932,2.694-8,6.021-8
	h49.661C691.924,639,694.619,643.068,694.619,647L694.619,647z"/>
<path fill="#D58C4F" d="M768.718,218C747.63,198.41,718.8,186.333,687,186.333S626.37,198.41,605.282,218H768.718z"/>
<path fill="#D58C4F" d="M629.283,424c14.769,9,34.958,14.284,57.23,14.284c22.271,0,42.461-5.284,57.23-14.284H629.283z"/>
<path fill="#3F2663" d="M764.718,233c-20.313-19.59-48.085-31.667-78.718-31.667S627.596,213.41,607.282,233H764.718z"/>
<ellipse fill="#F9A715" cx="686.472" cy="227.333" rx="17.195" ry="15.667"/>
</svg>
