<?xml version="1.0" encoding="utf-8"?>
<!-- Generator: Adobe Illustrator 15.1.0, SVG Export Plug-In . SVG Version: 6.00 Build 0)  -->
<!DOCTYPE svg PUBLIC "-//W3C//DTD SVG 1.1//EN" "http://www.w3.org/Graphics/SVG/1.1/DTD/svg11.dtd">
<svg version="1.1" id="Layer_1" xmlns="http://www.w3.org/2000/svg" xmlns:xlink="http://www.w3.org/1999/xlink" x="0px" y="0px"
	 width="175.334px" height="47.333px" viewBox="0 0 175.334 47.333" enable-background="new 0 0 175.334 47.333"
	 xml:space="preserve">
<g>
	<path fill="#F4A019" d="M28.979,13.774c0,7.61-6.169,13.779-13.777,13.779c-7.61,0-13.774-6.169-13.774-13.779S7.592,0,15.203,0
		C22.811,0,28.979,6.164,28.979,13.774z"/>
	<ellipse fill="#FCC447" cx="20.276" cy="15.226" rx="5.803" ry="5.439"/>
	<circle fill="#F4A019" cx="160.225" cy="13.777" r="13.775"/>
	<path fill="#FCC447" d="M163.123,13.782c0,3.003-2.594,5.435-5.798,5.435c-3.206,0-5.806-2.432-5.806-5.435
		c0-3.006,2.6-5.439,5.806-5.439C160.529,8.343,163.123,10.776,163.123,13.782z"/>
	<path fill="none" stroke="#F9A715" stroke-width="5.1337" stroke-miterlimit="10" d="M58.145,32.281c0,0,31.66,27.325,65.886-0.91"
		/>
</g>
</svg>
