<?xml version="1.0" encoding="utf-8"?>
<!-- Generator: Adobe Illustrator 15.1.0, SVG Export Plug-In . SVG Version: 6.00 Build 0)  -->
<!DOCTYPE svg PUBLIC "-//W3C//DTD SVG 1.1//EN" "http://www.w3.org/Graphics/SVG/1.1/DTD/svg11.dtd">
<svg version="1.1" id="Layer_1" xmlns="http://www.w3.org/2000/svg" xmlns:xlink="http://www.w3.org/1999/xlink" x="0px" y="0px"
	 width="115px" height="131px" viewBox="0 0 115 131" enable-background="new 0 0 115 131" xml:space="preserve">
<g>
	<ellipse fill="#6373C1" cx="34.462" cy="125.995" rx="17.752" ry="4.422"/>
	<ellipse fill="#6373C1" cx="82.383" cy="126.346" rx="17.556" ry="4.063"/>
	<g>
		<path fill="#8190FF" d="M57.869,109.986c-12.634,0-24.367-2.182-34.086-5.914c-3.776,9.752-6.178,21.128-6.178,21.128
			c7.542,5.462,24.708,2.081,29.912,1.82c5.201-0.261,4.68-6.501,4.68-8.062c0-1.246,1.997-2.487,6.112-2.675v-0.121
			c3.998,0.213,5.944,1.438,5.944,2.665c0,1.562-0.521,7.802,4.682,8.063c5.201,0.26,22.368,3.644,29.91-1.821
			c0,0-2.423-11.476-6.228-21.257C82.772,107.702,70.794,109.986,57.869,109.986z"/>
	</g>
	<g>
		<path fill="#FCC447" d="M88.188,94.05L76.854,75.434l-18.711-0.072v0.131l-21.391,0.084l-9.507,21.145l0.105-0.6
			c-1.313,2.274-2.535,5.009-3.64,7.879c9.735,3.695,21.464,5.855,34.093,5.855c12.967,0,24.986-2.277,34.87-6.157
			c-1.268-3.28-2.691-6.378-4.232-8.8C88.05,94.285,88.04,94.072,88.188,94.05z"/>
	</g>
	<path fill="#FFDFD3" d="M12.089,92.181c0,0,0.336,0.294,0.583,0.584l19.866,3.577l-0.398-1.934
		C20.247,60.588,5.249,71.074,5.249,71.074C-6.803,82.357,12.089,92.181,12.089,92.181z"/>
	<path fill="#FFDFD3" d="M83.037,92.438l-1.562,4.729l22.57-5.329l0.078,0.327c3.778-1.685,17.594-8.832,8.327-19.786
		C112.451,72.379,98.77,60.225,83.037,92.438z"/>
	<path fill="#2D3551" d="M54.293,22.594"/>
	<ellipse fill="#FF6260" cx="57.417" cy="52.756" rx="31.602" ry="23.919"/>
	<path fill="#FF6260" d="M95.586,55.553l-0.007-0.39C86.915,63.827,73.307,69.41,58,69.41c-15.034,0-28.432-5.387-37.115-13.79
		c-7.185,4.207-6.502,11.636-6.502,11.636c0.353,3.753,1.983,6.396,3.678,8.175c-1.012,1.346-1.609,2.992-1.609,4.774
		c0,4.523,3.843,8.191,8.582,8.191c0.3,0,0.597-0.014,0.888-0.043c4.42,11.354,15.846,8.862,21.092,7.003
		c1.873,2.794,6.087,4.744,10.987,4.744c5.001,0,9.286-2.027,11.103-4.913c4.744,1.765,15.78,4.562,20.795-5.13
		c3.774-0.341,7.31-3.048,8.777-7.156c0.936-2.611,0.863-5.317-0.008-7.625c1.641-1.775,3.19-4.374,3.531-8.021
		C102.198,67.256,102.89,59.746,95.586,55.553z"/>
	<circle fill="#FFDFD3" cx="23.474" cy="53.415" r="4.877"/>
	<circle fill="#FFDFD3" cx="92.138" cy="54.585" r="4.877"/>
	<path fill="#FF6260" d="M31.253,63.924c0,1.414-1.562,2.56-3.487,2.56l0,0c-1.927,0-3.487-1.146-3.487-2.56V44.467
		c0-1.414,1.561-2.561,3.487-2.561l0,0c1.926,0,3.487,1.146,3.487,2.561V63.924z"/>
	<path fill="#FF6260" d="M92.114,64.9c0,1.413-1.649,2.559-3.683,2.559l0,0c-2.034,0-3.682-1.146-3.682-2.559V45.441
		c0-1.414,1.647-2.561,3.682-2.561l0,0c2.033,0,3.683,1.146,3.683,2.561V64.9z"/>
	<path fill="#FF6260" d="M59.171,25.715c-14.926,0-27.903,2.656-34.527,6.565v11.84c6.624,3.908,19.602,6.563,34.527,6.563
		c13.832,0,25.986-2.281,32.967-5.724V31.44C85.157,27.996,73.003,25.715,59.171,25.715z"/>
	<ellipse fill="#FCC447" cx="57.351" cy="25.91" rx="32.967" ry="18.531"/>
	<path fill="#FCC447" d="M30.235,15.377c0,0-7.802,7.217-8.191,15.8c-0.391,8.583,10.142,2.731,10.142,2.731L30.235,15.377z"/>
	<path fill="#FCC447" d="M85.625,16.157c0,0,7.802,7.218,8.193,15.8c0.39,8.584-10.145,2.732-10.145,2.732L85.625,16.157z"/>
	<ellipse fill="#F9A715" cx="56.886" cy="7.021" rx="7.315" ry="7.021"/>
	<path fill="#F9A715" d="M96.759,39.955c0,2.588-2.28,4.683-5.092,4.683H24.604c-2.812,0-5.094-2.095-5.094-4.683v-4.29
		c0-2.586,2.281-4.681,5.094-4.681h67.062c2.812,0,5.092,2.095,5.092,4.681V39.955z"/>
	<g>
		<path fill="#EA534C" d="M95.387,55.424v-0.066c-0.204,0.204-0.412,0.404-0.622,0.604C94.976,55.784,95.181,55.603,95.387,55.424z"
			/>
		<path fill="#EA534C" d="M59.756,98.541c-4.901,0-9.113-1.95-10.987-4.744c-5.246,1.857-16.672,4.35-21.09-7.004
			c-0.293,0.029-0.589,0.044-0.89,0.044c-4.739,0-8.583-3.669-8.583-8.192c0-1.781,0.6-3.429,1.61-4.773
			c-1.695-1.779-3.324-4.423-3.678-8.175c0,0-0.452-4.937,3.27-9.039c-5.816,4.283-5.221,10.795-5.221,10.795
			c0.354,3.752,1.982,6.396,3.678,8.175c-1.011,1.343-1.609,2.99-1.609,4.773c0,4.523,3.843,8.192,8.584,8.192
			c0.299,0,0.595-0.015,0.887-0.044c4.419,11.354,15.845,8.86,21.09,7.002c1.874,2.795,6.088,4.745,10.989,4.745
			c4.557,0,8.512-1.687,10.555-4.169C66.176,97.616,63.13,98.541,59.756,98.541z"/>
		<path fill="#EA534C" d="M91.651,88.496c-0.299,0.579-0.622,1.112-0.963,1.605c2.127-0.427,4.119-1.601,5.643-3.341
			C94.921,87.742,93.309,88.348,91.651,88.496z"/>
		<path fill="#EA534C" d="M70.858,93.627c-0.423,0.674-0.986,1.297-1.656,1.861c4.314,1.559,13.148,3.68,18.544-2.373
			C82.221,97.039,74.592,95.016,70.858,93.627z"/>
	</g>
</g>
</svg>
