<?xml version="1.0" encoding="utf-8"?>
<!-- Generator: Adobe Illustrator 15.1.0, SVG Export Plug-In . SVG Version: 6.00 Build 0)  -->
<!DOCTYPE svg PUBLIC "-//W3C//DTD SVG 1.1//EN" "http://www.w3.org/Graphics/SVG/1.1/DTD/svg11.dtd">
<svg version="1.1" id="Layer_1" xmlns="http://www.w3.org/2000/svg" xmlns:xlink="http://www.w3.org/1999/xlink" x="0px" y="0px"
	 width="1024px" height="768px" viewBox="0 0 1024 768" enable-background="new 0 0 1024 768" xml:space="preserve">
<rect x="1" y="-1" fill="#8DC73F" width="1025" height="765"/>
<path fill="#306D23" d="M2,346.72v497.431c110.665-28.604,192.408-129.112,192.408-248.718
	C194.408,475.831,112.665,375.324,2,346.72z"/>
<path fill="#306D23" d="M937.723,0c-47.561,46.617-77.073,111.575-77.073,183.434c0,109.25,68.206,202.554,164.351,239.693V0
	H937.723z"/>
<path fill="#388A29" d="M1025,426.147c-41.232,45.568-66.351,105.992-66.351,172.286c0,66.296,25.118,126.721,66.351,172.29V426.147
	z"/>
<g>
	<path fill="#388A29" d="M0,0.994v454.883c81.694-43.001,137.408-128.708,137.408-227.443C137.408,129.701,81.694,43.995,0,0.994z"
		/>
</g>
</svg>
