<?xml version="1.0" encoding="utf-8"?>
<!-- Generator: Adobe Illustrator 15.1.0, SVG Export Plug-In . SVG Version: 6.00 Build 0)  -->
<!DOCTYPE svg PUBLIC "-//W3C//DTD SVG 1.1//EN" "http://www.w3.org/Graphics/SVG/1.1/DTD/svg11.dtd">
<svg version="1.1" id="Layer_1" xmlns="http://www.w3.org/2000/svg" xmlns:xlink="http://www.w3.org/1999/xlink" x="0px" y="0px"
	 width="1024px" height="768px" viewBox="0 0 1024 768" enable-background="new 0 0 1024 768" xml:space="preserve">
<rect y="-1" fill="#353535" width="1024" height="775"/>
<ellipse fill="#DDDDDD" cx="508.019" cy="726.557" rx="578.884" ry="95.964"/>
<ellipse fill="#9B9B9B" cx="139.291" cy="701" rx="73.291" ry="16"/>
<ellipse fill="#CACACA" cx="139.29" cy="697.387" rx="67.097" ry="12.388"/>
<g>
	<circle fill="#CACACA" cx="895.336" cy="272.051" r="38.437"/>
	<path fill="#DDDDDD" d="M895.015,210.723c4.784-1.207,18.197,36.875,18.197,36.875s39.36,1.557,40.694,5.912
		c1.334,4.357-29.445,28.703-29.445,28.703s10.414,37.927,6.951,40.529c-3.463,2.602-36.397-19.135-36.397-19.135
		s-33.738,22.334-36.396,19.135c-2.658-3.202,6.95-40.529,6.95-40.529s-30.156-25.754-29.444-28.703
		c0.71-2.949,40.692-5.912,40.692-5.912S890.231,211.929,895.015,210.723z"/>
	<ellipse fill="#E7E7E7" cx="894.448" cy="277.215" rx="19.16" ry="16.355"/>
	<circle cx="885.645" cy="277.174" r="2.217"/>
	<circle cx="905.566" cy="276.854" r="2.217"/>
	<path fill="#B0B0B0" d="M903.285,282.389c-2.529-0.062-4.84-1.373-5.369-1.594c-1.094-0.373-2.438-0.248-3.186,0.595
		c-0.783-0.812-2.094-0.968-3.187-0.595c-0.531,0.221-2.841,1.531-5.371,1.594c-2.279,0.219-4.747-0.625-5.06-0.75
		c0.252,0.219,2.093,2.155,4.715,2.969c2.75,1.092,6.435,0.873,7.246,0.404c0.749-0.281,1.312-0.717,1.656-1.248
		c0.343,0.499,0.904,0.967,1.654,1.248c0.812,0.469,4.496,0.657,7.244-0.404c2.623-0.813,4.465-2.75,4.715-2.969
		C908.063,281.797,905.596,282.639,903.285,282.389"/>
	<path fill="#FFFFFF" d="M873.667,280h1.735c0.453-1,1.062-7.348,0.962-10.348c0,0,21.237,3.091,28.249-4.761
		c0,0,2.779,11.108,7.974,15.108h3.24c2.01-1,6.757-11.715,1.651-20.764c-6.316-11.195-13.963-6.242-13.963-6.242
		s-5.07-6.467-16.809-2.828c-11.738,3.634-16.193,15.092-16.006,18.826C870.835,271.627,871.959,277,873.667,280z"/>
</g>
<circle fill="#B7B7B7" cx="820.586" cy="195.097" r="14.933"/>
<circle fill="#B7B7B7" cx="470.753" cy="193.88" r="3.395"/>
<circle fill="#B7B7B7" cx="149.913" cy="326.842" r="6.449"/>
<circle fill="#B7B7B7" cx="167.301" cy="342.643" r="3.395"/>
<circle fill="#B7B7B7" cx="334.787" cy="237.021" r="3.394"/>
<circle fill="#B7B7B7" cx="377.753" cy="405.303" r="6.448"/>
<circle fill="#B7B7B7" cx="794.521" cy="255.104" r="8.4"/>
<circle fill="#B7B7B7" cx="777.518" cy="497.678" r="3.394"/>
<circle fill="#B7B7B7" cx="626.63" cy="328.684" r="3.394"/>
<circle fill="#B7B7B7" cx="148.21" cy="563.385" r="9.333"/>
<circle fill="#B7B7B7" cx="297.913" cy="152.842" r="6.449"/>
<circle fill="#B7B7B7" cx="292.913" cy="231.842" r="6.449"/>
<circle fill="#B7B7B7" cx="194.913" cy="116.842" r="6.449"/>
<circle fill="#B7B7B7" cx="198.913" cy="84.842" r="6.449"/>
<circle fill="#B7B7B7" cx="217.787" cy="103.021" r="3.394"/>
<circle fill="#B7B7B7" cx="238.787" cy="399.021" r="3.394"/>
<circle fill="#B7B7B7" cx="676.913" cy="178.842" r="6.449"/>
<circle fill="#B7B7B7" cx="965.913" cy="538.842" r="6.449"/>
<circle fill="#B7B7B7" cx="670.913" cy="500.842" r="6.449"/>
<circle fill="#B7B7B7" cx="978.913" cy="73.842" r="6.449"/>
<circle fill="#B7B7B7" cx="196.63" cy="507.684" r="3.394"/>
<circle fill="#B7B7B7" cx="292.63" cy="231.684" r="3.394"/>
<circle fill="#B7B7B7" cx="197.63" cy="544.684" r="3.394"/>
<circle fill="#B7B7B7" cx="85.63" cy="450.684" r="3.394"/>
<circle fill="#B7B7B7" cx="143.63" cy="178.684" r="3.394"/>
<circle fill="#B7B7B7" cx="501.63" cy="510.684" r="3.394"/>
<circle fill="#B7B7B7" cx="481.63" cy="64.684" r="3.394"/>
<circle fill="#B7B7B7" cx="718.63" cy="97.684" r="3.394"/>
<circle fill="#B7B7B7" cx="335.63" cy="570.684" r="3.394"/>
<circle fill="#B7B7B7" cx="890.63" cy="600.684" r="3.394"/>
<circle fill="#B7B7B7" cx="29.63" cy="40.684" r="3.394"/>
<circle fill="#B7B7B7" cx="23.63" cy="58.684" r="3.394"/>
<circle fill="#B7B7B7" cx="78.63" cy="253.684" r="3.394"/>
<circle fill="#B7B7B7" cx="873.63" cy="92.684" r="3.394"/>
<circle fill="#B7B7B7" cx="982.63" cy="520.684" r="3.394"/>
<circle fill="#B7B7B7" cx="835.63" cy="356.684" r="3.394"/>
<path fill="#C0C0C0" d="M599.536,542.801c14.004,5.828,20.63,21.895,14.81,35.904c-5.824,13.996-21.895,20.629-35.898,14.803
	c-14.005-5.824-20.633-21.895-14.809-35.9C569.461,543.609,585.535,536.979,599.536,542.801z"/>
<path fill="#252525" d="M628.48,698.172c-0.221,17.105-47.049,30.363-104.583,29.609c-57.539-0.746-103.997-15.221-103.774-32.328
	s47.049-30.365,104.584-29.617C582.242,666.586,628.705,681.062,628.48,698.172z"/>
<rect x="420.296" y="665.837" transform="matrix(-0.9999 -0.013 0.013 -0.9999 1040.0227 1372.2469)" fill="#252525" width="208.377" height="33.792"/>
<path fill="#252525" d="M640.212,662.418c-0.094,7.385-3.765,13.328-11.718,13.225l-207.754-2.715
	c-7.953-0.1-14.322-6.172-14.229-13.559l0.016-1.408c0.102-7.387,6.624-13.291,14.58-13.188l207.752,2.715
	c7.955,0.104,11.466,6.137,11.374,13.52L640.212,662.418z"/>
<path fill="#252525" d="M506.824,320.629c0,0-78.686,82.049-84.609,214.328l205.548,2.684c0,0,9.86-112.865-72.683-217.439
	L506.824,320.629z"/>
<rect x="421.417" y="533.477" transform="matrix(0.9999 0.013 -0.013 0.9999 7.8249 -6.7827)" fill="#252525" width="205.561" height="126.72"/>
<path fill="#3E3E3E" d="M604.795,685.658c-0.105,6.738-34.459,11.754-76.808,11.199l-5.874-0.078
	c-42.348-0.547-76.574-6.459-76.486-13.201l2.296-175.506c0.07-6.738,34.462-11.754,76.792-11.207l5.891,0.082
	c42.331,0.551,76.574,6.463,76.453,13.201L604.795,685.658z"/>
<path fill="#3E3E3E" d="M474,499.434c-16,2.031-25.364,5.096-25.401,8.639l-1.962,175.506c-0.047,3.734,9.363,7.217,27.363,9.67
	V499.434z"/>
<ellipse fill="#9B9B9B" cx="243.502" cy="723.75" rx="35.502" ry="7.751"/>
<ellipse fill="#CACACA" cx="243.502" cy="722" rx="32.502" ry="6.001"/>
<ellipse fill="#9B9B9B" cx="738.339" cy="666.75" rx="49.242" ry="10.75"/>
<ellipse fill="#CACACA" cx="738.338" cy="664.322" rx="45.081" ry="8.323"/>
<g>
	<path fill="#808BC4" d="M527.412,663.26c-15.396,0-29.692-2.659-41.534-7.208c-4.601,11.885-7.527,25.748-7.527,25.748
		c9.19,6.654,30.108,2.535,36.446,2.219s5.704-7.925,5.704-9.828c0-1.519,2.435-3.033,7.448-3.26v-0.145
		c4.871,0.26,7.242,1.75,7.242,3.248c0,1.902-0.635,9.508,5.705,9.822c6.34,0.318,27.257,4.438,36.447-2.217
		c0,0-2.953-13.984-7.59-25.904C557.758,660.478,543.16,663.26,527.412,663.26z"/>
</g>
<g>
	<path fill="#FDC548" d="M564.357,643.838l-13.811-22.682l-22.803-0.089v0.16l-26.065,0.101l-11.582,25.767l0.129-0.729
		c-1.603,2.771-3.091,6.102-4.436,9.599c11.862,4.505,26.153,7.135,41.542,7.135c15.801,0,30.446-2.776,42.492-7.502
		c-1.547-3.996-3.281-7.771-5.158-10.721C564.189,644.128,564.178,643.867,564.357,643.838z"/>
</g>
<path fill="#FCDED3" d="M491.819,644.758c0,0,0.432-0.329,0.836-0.556l9.058-22.868l-2.406,0.009
	c-43.262,6.062-34.348,26.504-34.348,26.504C475.536,664.961,491.819,644.758,491.819,644.758z"/>
<path fill="#FCDED3" d="M556.623,621.423l-6.067-0.023l14.696,24.139l-0.35,0.211c3.38,3.742,16.878,17.05,26.07,2.178
	C590.973,647.927,599.885,627.483,556.623,621.423z"/>
<path fill="#2E3551" d="M523.055,556.771"/>
<ellipse fill="#FCDED3" cx="526.86" cy="593.522" rx="38.507" ry="29.146"/>
<circle fill="#010101" cx="505.943" cy="597.001" r="4.454"/>
<circle fill="#010101" cx="549.203" cy="596.525" r="4.455"/>
<path fill="#F06362" d="M573.371,596.93l-0.004-0.474c-10.562,10.557-27.145,17.359-45.795,17.359
	c-18.318,0-34.645-6.564-45.229-16.802c-8.75,5.125-7.921,14.177-7.921,14.177c0.431,4.572,2.418,7.795,4.481,9.961
	c-1.232,1.639-1.962,3.646-1.962,5.819c0,5.513,4.685,9.981,10.46,9.981c0.365,0,0.725-0.018,1.081-0.052
	c5.386,13.833,19.308,10.8,25.699,8.532c2.285,3.407,7.417,5.781,13.39,5.781c6.094,0,11.316-2.473,13.529-5.988
	c5.779,2.151,19.227,5.559,25.336-6.253c4.602-0.411,8.909-3.711,10.698-8.716c1.142-3.186,1.052-6.479-0.011-9.291
	c2-2.162,3.887-5.331,4.305-9.775C581.43,611.19,582.271,602.04,573.371,596.93z"/>
<circle fill="#FCDED3" cx="485.5" cy="594.327" r="5.941"/>
<path fill="#FCDED3" d="M575.113,595.753c0,3.281-2.662,5.941-5.943,5.941s-5.943-2.66-5.943-5.941c0-3.284,2.662-5.945,5.943-5.945
	S575.113,592.469,575.113,595.753z"/>
<path fill="#F06362" d="M494.979,607.13c0,1.723-1.9,3.122-4.249,3.122l0,0c-2.346,0-4.249-1.399-4.249-3.122v-23.709
	c0-1.725,1.903-3.119,4.249-3.119l0,0c2.349,0,4.249,1.395,4.249,3.119V607.13z"/>
<path fill="#F06362" d="M569.139,608.32c0,1.722-2.007,3.118-4.486,3.118l0,0c-2.477,0-4.485-1.396-4.485-3.118v-23.711
	c0-1.723,2.009-3.12,4.485-3.12l0,0c2.479,0,4.486,1.397,4.486,3.12V608.32z"/>
<path fill="#F06362" d="M529,560.573c-18.189,0-34.001,3.236-42.072,7.998V583c8.071,4.761,23.883,8,42.072,8
	c16.851,0,31.664-2.78,40.17-6.978v-16.474C560.664,563.353,545.851,560.573,529,560.573z"/>
<ellipse fill="#FCC559" cx="526.78" cy="560.811" rx="40.171" ry="22.581"/>
<path fill="#FCC559" d="M493.74,547.975c0,0-9.508,8.796-9.982,19.254c-0.477,10.46,12.359,3.327,12.359,3.327L493.74,547.975z"/>
<path fill="#FCC559" d="M561.233,548.926c0,0,9.508,8.796,9.983,19.252c0.476,10.46-12.36,3.327-12.36,3.327L561.233,548.926z"/>
<ellipse fill="#F9A82B" cx="526.216" cy="537.796" rx="8.913" ry="8.557"/>
<path fill="#F9A82B" d="M574.801,577.925c0,3.152-2.779,5.703-6.207,5.703h-81.715c-3.428,0-6.207-2.551-6.207-5.703v-5.228
	c0-3.151,2.779-5.706,6.207-5.706h81.715c3.428,0,6.207,2.555,6.207,5.706V577.925z"/>
<path fill="#EA544D" d="M556.195,607.683c-2.474,1.358-8.218,1.199-15.479-3.989c-6.877-4.911-11.962,0.767-12.482,1.384
	c-0.264-0.325-5.441-6.475-12.515-1.424c-7.261,5.187-13.006,5.348-15.479,3.99c-2.473-1.355-1.436,0.717-1.436,0.717
	c1.037,4.787,6.781,8.617,6.781,8.617c8.762,4.229,21.668,0.461,22.605,0.179v0.022c0,0,13.562,4.229,22.658-0.161
	c0,0,5.744-3.828,6.783-8.616C557.633,608.401,558.669,606.325,556.195,607.683z"/>
<path fill="#FBD2C4" d="M579.113,654.661c0,0,0.684-0.545,1.266-1.35c0.662-0.918,1.189-2.176,0.422-3.355
	c-1.445-2.213,0.159-8.207,5.057-7.101c4.898,1.106-2.391,9.429-3.716,9.704c-0.558,0.117-0.63,0.781-0.981,1.332
	c-0.482,0.754,0.092,0.689,0.092,0.689L579.113,654.661z"/>
<path fill="#FBD2C4" d="M479.795,653.353c0,0-0.625-0.068-1.207-0.871c-0.662-0.92-1.189-2.178-0.421-3.357
	c1.444-2.212-0.16-8.207-5.058-7.101s2.391,9.429,3.716,9.706c0.558,0.115,0.63,0.779,0.981,1.33
	c0.482,0.754-0.092,0.689-0.092,0.689L479.795,653.353z"/>
<g>
	<path fill="#EA544D" d="M573.13,596.772l-0.003-0.08c-0.246,0.248-0.5,0.493-0.756,0.736
		C572.628,597.21,572.877,596.993,573.13,596.772z"/>
	<path fill="#EA544D" d="M529.713,649.313c-5.973,0-11.107-2.377-13.391-5.783c-6.393,2.268-20.315,5.303-25.699-8.532
		c-0.355,0.033-0.717,0.054-1.082,0.054c-5.776,0-10.459-4.471-10.459-9.984c0-2.17,0.729-4.178,1.962-5.816
		c-2.065-2.168-4.052-5.391-4.481-9.961c0,0-0.549-6.014,3.984-11.016c-7.087,5.221-6.361,13.155-6.361,13.155
		c0.43,4.571,2.416,7.792,4.481,9.961c-1.232,1.639-1.962,3.644-1.962,5.814c0,5.517,4.683,9.984,10.459,9.984
		c0.365,0,0.726-0.017,1.082-0.05c5.385,13.831,19.307,10.795,25.699,8.531c2.285,3.403,7.418,5.781,13.391,5.781
		c5.55,0,10.372-2.055,12.859-5.08C537.534,648.184,533.823,649.313,529.713,649.313z"/>
	<path fill="#EA544D" d="M568.578,637.074c-0.366,0.706-0.76,1.352-1.174,1.955c2.591-0.522,5.02-1.948,6.875-4.073
		C572.562,636.152,570.598,636.892,568.578,637.074z"/>
	<path fill="#EA544D" d="M543.24,643.323c-0.515,0.82-1.201,1.579-2.018,2.269c5.258,1.898,16.021,4.483,22.597-2.892
		C557.086,647.481,547.789,645.018,543.24,643.323z"/>
</g>
</svg>
