<?xml version="1.0" encoding="utf-8"?>
<!-- Generator: Adobe Illustrator 15.1.0, SVG Export Plug-In . SVG Version: 6.00 Build 0)  -->
<!DOCTYPE svg PUBLIC "-//W3C//DTD SVG 1.1//EN" "http://www.w3.org/Graphics/SVG/1.1/DTD/svg11.dtd">
<svg version="1.1" id="Layer_1" xmlns="http://www.w3.org/2000/svg" xmlns:xlink="http://www.w3.org/1999/xlink" x="0px" y="0px"
	 width="1024px" height="768px" viewBox="0 0 1024 768" enable-background="new 0 0 1024 768" xml:space="preserve">
<rect x="-2" y="-4" fill="#AB652D" width="1088" height="772"/>
<rect x="2" y="-4" fill="#D58C4F" width="1080" height="586"/>
<ellipse fill="#7C4323" cx="1100.782" cy="178.186" rx="145.069" ry="144.166"/>
<ellipse fill="#AECEF4" cx="1100.039" cy="178.186" rx="129.446" ry="126.422"/>
<path opacity="0.04" fill="#D7E7FB" d="M946.594,1012.795c-5.724,9.738-14.523,15.188-19.652,12.172L578.949,820.284
	c-5.124-3.013-4.637-13.352,1.092-23.085L968.9,136.068c5.729-9.737,14.525-15.188,19.65-12.174l347.994,204.684
	c5.123,3.012,4.635,13.351-1.09,23.086L946.594,1012.795z"/>
<path fill="#7C4323" d="M683.863,609.429c0,4.668-34.227,3.169-40.923,3.169l-225.833-2.112c-6.697,0-21.22-1.672-21.22-6.34
	l21.229-50.731c0-4.668,5.429-8.414,12.125-8.414h243.528c6.696,0,12.126,3.746,12.126,8.414L683.863,609.429z"/>
<path fill="#492F72" d="M664,650.29c0,4.258-4.253,7.71-9.5,7.71l0,0c-5.247,0-9.5-3.452-9.5-7.71v-87.656
	c0-4.259,4.253-7.711,9.5-7.711l0,0c5.247,0,9.5,3.452,9.5,7.711V650.29z"/>
<path fill="#7C4323" d="M664,667.405c0,5.022-4.253,9.094-9.5,9.094l0,0c-5.247,0-9.5-4.071-9.5-9.094V564.018
	c0-5.023,4.253-9.095,9.5-9.095l0,0c5.247,0,9.5,4.071,9.5,9.095V667.405z"/>
<path fill="#7C4323" d="M689,640.29c0,4.258-4.253,7.71-9.5,7.71l0,0c-5.247,0-9.5-3.452-9.5-7.71v-87.656
	c0-4.259,4.253-7.711,9.5-7.711l0,0c5.247,0,9.5,3.452,9.5,7.711V640.29z"/>
<g>
	<ellipse fill="#7581E6" cx="287.676" cy="693.028" rx="58.284" ry="14.518"/>
	<ellipse fill="#7581E6" cx="445.022" cy="694.178" rx="57.644" ry="13.345"/>
	<g>
		<path fill="#8190FF" d="M364.533,640.463c-41.486,0-80.012-7.165-111.921-19.421c-12.396,32.025-20.284,69.376-20.284,69.376
			c24.766,17.933,81.127,6.832,98.209,5.978c17.08-0.854,15.37-21.35,15.37-26.474c0-4.092,6.56-8.174,20.067-8.785v-0.394
			c13.128,0.698,19.518,4.717,19.518,8.751c0,5.124-1.708,25.62,15.371,26.474c17.081,0.854,73.442,11.955,98.209-5.979
			c0,0-7.958-37.679-20.448-69.799C446.296,632.964,406.967,640.463,364.533,640.463z"/>
	</g>
	<g>
		<path fill="#FCC447" d="M464.084,588.135l-37.219-61.12l-61.44-0.234v0.43l-70.231,0.269l-31.213,69.427l0.348-1.965
			c-4.316,7.47-8.328,16.444-11.951,25.865c31.965,12.137,70.472,19.229,111.936,19.229c42.576,0,82.039-7.478,114.497-20.218
			c-4.165-10.768-8.842-20.938-13.897-28.886C463.629,588.911,463.594,588.209,464.084,588.135z"/>
	</g>
	<path fill="#FFDFD3" d="M268.622,590.61c0,0,1.163-0.884,2.255-1.496l24.403-61.617l-6.483,0.024
		c-116.567,16.332-92.549,71.414-92.549,71.414C224.748,645.051,268.622,590.61,268.622,590.61z"/>
	<path fill="#FFDFD3" d="M443.243,527.734l-16.352-0.063l39.604,65.036l-0.944,0.575c9.105,10.083,45.476,45.94,70.242,5.866
		C535.793,599.148,559.812,544.066,443.243,527.734z"/>
	<path fill="#2D3551" d="M352.79,353.521"/>
	<path fill="#FFDFD3" d="M466.799,452.554c0,43.373-46.453,78.534-103.76,78.534c-57.301,0-103.757-35.161-103.757-78.534
		c0-43.377,46.456-78.538,103.757-78.538C420.346,374.016,466.799,409.177,466.799,452.554z"/>
	<path d="M318.683,461.93c0,6.628-5.374,12.002-12.005,12.002c-6.628,0-12.002-5.374-12.002-12.002
		c0-6.635,5.374-12.008,12.002-12.008C313.309,449.922,318.683,455.295,318.683,461.93z"/>
	<circle cx="423.246" cy="460.644" r="12.003"/>
	<path fill="#FF6260" d="M488.368,461.735l-0.016-1.273c-28.455,28.443-73.137,46.775-123.39,46.775
		c-49.365,0-93.356-17.691-121.871-45.277c-23.578,13.81-21.345,38.206-21.345,38.206c1.159,12.319,6.514,20.998,12.076,26.839
		c-3.321,4.415-5.285,9.824-5.285,15.674c0,14.855,12.618,26.899,28.183,26.899c0.982,0,1.955-0.049,2.914-0.142
		c14.508,37.276,52.022,29.095,69.247,22.99c6.155,9.177,19.989,15.579,36.081,15.579c16.418,0,30.489-6.66,36.453-16.137
		c15.571,5.799,51.807,14.983,68.27-16.843c12.398-1.112,24.006-10.006,28.83-23.491c3.068-8.579,2.828-17.46-0.031-25.034
		c5.389-5.833,10.473-14.369,11.6-26.335C510.084,500.166,512.353,475.506,488.368,461.735z"/>
	<circle fill="#FFDFD3" cx="251.598" cy="454.718" r="16.012"/>
	<circle fill="#FFDFD3" cx="477.048" cy="458.562" r="16.013"/>
	<path fill="#FF6260" d="M277.137,489.225c0,4.643-5.126,8.406-11.45,8.406l0,0c-6.323,0-11.448-3.764-11.448-8.406v-63.89
		c0-4.643,5.125-8.406,11.448-8.406l0,0c6.324,0,11.45,3.764,11.45,8.406V489.225z"/>
	<path fill="#FF6260" d="M476.967,492.427c0,4.644-5.41,8.406-12.088,8.406l0,0c-6.678,0-12.091-3.763-12.091-8.406v-63.89
		c0-4.642,5.413-8.405,12.091-8.405l0,0c6.678,0,12.088,3.764,12.088,8.405V492.427z"/>
	<path fill="#FF6260" d="M368.807,363.769c-49.01,0-91.617,8.721-113.365,21.553v38.877c21.748,12.833,64.355,21.553,113.365,21.553
		c45.41,0,85.324-7.486,108.241-18.794v-44.394C454.131,371.256,414.217,363.769,368.807,363.769z"/>
	<ellipse fill="#FCC447" cx="362.827" cy="364.41" rx="108.242" ry="60.846"/>
	<path fill="#FCC447" d="M273.799,329.824c0,0-25.619,23.699-26.899,51.88s33.304,8.966,33.304,8.966L273.799,329.824z"/>
	<path fill="#FCC447" d="M455.663,332.387c0,0,25.62,23.697,26.899,51.879c1.281,28.182-33.304,8.967-33.304,8.967L455.663,332.387z
		"/>
	<ellipse fill="#F9A715" cx="361.304" cy="302.393" rx="24.017" ry="23.056"/>
	<path fill="#F9A715" d="M492.219,410.528c0,8.489-7.488,15.372-16.723,15.372H255.31c-9.234,0-16.723-6.883-16.723-15.372v-14.092
		c0-8.487,7.488-15.37,16.723-15.37h220.187c9.234,0,16.723,6.883,16.723,15.37V410.528z"/>
	<path fill="#EA534C" d="M442.086,490.712c-6.663,3.653-22.143,3.227-41.705-10.75c-18.529-13.235-32.235,2.068-33.634,3.726
		c-0.716-0.871-14.666-17.446-33.725-3.832c-19.562,13.974-35.043,14.405-41.706,10.749c-6.667-3.656-3.869,1.935-3.869,1.935
		c2.793,12.898,18.273,23.22,18.273,23.22c23.605,11.391,58.383,1.234,60.908,0.475v0.062c0,0,36.545,11.396,61.056-0.431
		c0,0,15.478-10.318,18.274-23.218C445.959,492.647,448.752,487.058,442.086,490.712z"/>
	<path fill="#FCD1C3" d="M503.842,617.294c0,0,1.842-1.465,3.408-3.635c1.783-2.473,3.209-5.863,1.136-9.041
		c-3.894-5.963,0.433-22.118,13.628-19.137c13.197,2.982-6.441,25.406-10.012,26.151c-1.506,0.315-1.699,2.106-2.648,3.588
		c-1.299,2.029,0.253,1.86,0.253,1.86L503.842,617.294z"/>
	<path fill="#FCD1C3" d="M235.52,616.294c0,0-1.842-1.465-3.408-3.635c-1.783-2.473-3.209-5.863-1.136-9.041
		c3.894-5.963-0.433-22.118-13.628-19.137c-13.197,2.982,6.441,25.406,10.012,26.151c1.506,0.315,1.699,2.106,2.648,3.588
		c1.299,2.029-0.253,1.86-0.253,1.86L235.52,616.294z"/>
</g>
<g>
	<path fill="#FCC447" d="M831.548,682.041c0,6.683-5.47,12.103-12.222,12.103H696.429c-6.749,0-12.222-5.42-12.222-12.103V499.152
		c0-6.685,5.473-12.103,12.222-12.103h122.897c6.752,0,12.222,5.418,12.222,12.103V682.041z"/>
	<path fill="#FFF3DE" d="M818.307,586.856c0,6.94-5.664,12.569-12.652,12.569h-94.195c-6.988,0-12.654-5.629-12.654-12.569v-72.633
		c0-6.945,5.666-12.573,12.654-12.573h94.195c6.988,0,12.652,5.628,12.652,12.573V586.856z"/>
	<circle fill="#F4A019" cx="722.911" cy="547.143" r="6.45"/>
	<ellipse fill="#FCC447" cx="725.286" cy="547.822" rx="2.717" ry="2.546"/>
	<circle fill="#F4A019" cx="790.81" cy="548.5" r="6.449"/>
	<path fill="#FCC447" d="M792.166,548.503c0,1.406-1.214,2.544-2.713,2.544c-1.502,0-2.72-1.138-2.72-2.544
		c0-1.407,1.218-2.547,2.72-2.547C790.952,545.956,792.166,547.096,792.166,548.503z"/>
	<path fill="#F4A019" d="M756.18,611.308c0,1.676-1.759,3.035-3.929,3.035h-47.142c-2.169,0-3.928-1.359-3.928-3.035l0,0
		c0-1.676,1.759-3.034,3.928-3.034h47.142C754.421,608.273,756.18,609.632,756.18,611.308L756.18,611.308z"/>
	<path fill="#F4A019" d="M802.741,652.953c0,0,7.878,1.068,7.679,9.344C810.42,662.297,802.942,661.896,802.741,652.953z"/>
	<path fill="#F4A019" d="M814.174,673.714l7.828-7.826c-0.07-0.089-0.145-0.174-0.22-0.253c-2.481-2.562-3.524-2.962-7.047-2.883
		c0,0-2.404,0.44-3.685,1.239c-1.281,0.803-2.801-0.278-2.801-0.278s-2.683-1.601-5.966-0.641c0,0-6.485,1.923-5.446,11.531
		c0,0,1.522,9.127,6.728,11.528c0,0,1.681,0.722,2.804,0.241c1.117-0.48,4.323-2.203,8.207-0.039c0,0,2.921,0.68,4.523-1.762
		c0,0,1.371-1.652,2.435-3.498L814.174,673.714z"/>
	<path fill="none" stroke="#F9A715" stroke-width="2.4036" stroke-miterlimit="10" d="M743.016,555.806
		c0,0,14.823,12.795,30.848-0.424"/>
</g>
</svg>
