<?xml version="1.0" encoding="utf-8"?>
<!-- Generator: Adobe Illustrator 15.1.0, SVG Export Plug-In . SVG Version: 6.00 Build 0)  -->
<!DOCTYPE svg PUBLIC "-//W3C//DTD SVG 1.1//EN" "http://www.w3.org/Graphics/SVG/1.1/DTD/svg11.dtd">
<svg version="1.1" id="Layer_1" xmlns="http://www.w3.org/2000/svg" xmlns:xlink="http://www.w3.org/1999/xlink" x="0px" y="0px"
	 width="45px" height="45px" viewBox="0 0 45 45" enable-background="new 0 0 45 45" xml:space="preserve">
<circle fill="#FFFFFF" cx="21.809" cy="21.982" r="21.351"/>
<circle cx="9.434" cy="19.312" r="5.095"/>
<circle cx="33.455" cy="19.312" r="5.095"/>
<circle cx="22.051" cy="24.895" r="3.154"/>
<circle fill="#F5F5F5" cx="7.735" cy="18.343" r="1.82"/>
<circle fill="#F5F5F5" cx="33.938" cy="18.343" r="1.819"/>
<path d="M29.512,11.127c-4.591,2.115-10.006,1.713-14.485-1.077c-0.389-0.243-0.53-0.757-0.314-1.151
	c0.216-0.396,0.705-0.519,1.094-0.276c4.019,2.502,8.88,2.864,12.999,0.968c0.399-0.185,0.881,0.01,1.076,0.435
	C30.078,10.449,29.91,10.943,29.512,11.127z"/>
</svg>
