<?xml version="1.0" encoding="utf-8"?>
<!-- Generator: Adobe Illustrator 15.1.0, SVG Export Plug-In . SVG Version: 6.00 Build 0)  -->
<!DOCTYPE svg PUBLIC "-//W3C//DTD SVG 1.1//EN" "http://www.w3.org/Graphics/SVG/1.1/DTD/svg11.dtd">
<svg version="1.1" id="Layer_1" xmlns="http://www.w3.org/2000/svg" xmlns:xlink="http://www.w3.org/1999/xlink" x="0px" y="0px"
	 width="50px" height="50px" viewBox="0 0 50 50" enable-background="new 0 0 50 50" xml:space="preserve">
<g>
	<g>
		<defs>
			<rect id="SVGID_1_" x="9.761" y="8.513" width="29.864" height="29.862"/>
		</defs>
		<clipPath id="SVGID_2_">
			<use xlink:href="#SVGID_1_"  overflow="visible"/>
		</clipPath>
		<path clip-path="url(#SVGID_2_)" fill="#F4A019" d="M10.229,35.651l11.063-11.062c0.019-0.018,0.041-0.031,0.06-0.047
			c-1.213-1.667-1.937-3.71-1.937-5.924c0-5.572,4.533-10.105,10.105-10.105s10.105,4.533,10.105,10.105
			c0,5.571-4.533,10.104-10.105,10.104c-2.213,0-4.258-0.724-5.924-1.936c-0.018,0.019-0.031,0.04-0.048,0.058L12.485,37.907
			c-0.312,0.312-0.721,0.468-1.128,0.468s-0.816-0.155-1.128-0.468C9.605,37.286,9.605,36.275,10.229,35.651 M29.52,26.86
			c4.545,0,8.244-3.697,8.244-8.242c0-4.546-3.699-8.244-8.244-8.244c-4.545,0-8.244,3.698-8.244,8.244
			C21.276,23.163,24.974,26.86,29.52,26.86"/>
	</g>
</g>
</svg>
