<?xml version="1.0" encoding="utf-8"?>
<!-- Generator: Adobe Illustrator 15.1.0, SVG Export Plug-In . SVG Version: 6.00 Build 0)  -->
<!DOCTYPE svg PUBLIC "-//W3C//DTD SVG 1.1//EN" "http://www.w3.org/Graphics/SVG/1.1/DTD/svg11.dtd">
<svg version="1.1" id="Layer_1" xmlns="http://www.w3.org/2000/svg" xmlns:xlink="http://www.w3.org/1999/xlink" x="0px" y="0px"
	 width="357.781px" height="446.366px" viewBox="0 0 357.781 446.366" enable-background="new 0 0 357.781 446.366"
	 xml:space="preserve">
<rect x="5.046" y="160.92" fill="#FFF3DF" width="292.638" height="126.646"/>
<path fill="#FFF3DF" d="M298.187,406.133c0,18.623-13.874,33.727-30.994,33.727H36.448c-17.117,0-30.997-15.104-30.997-33.727
	V211.271c0-18.631,13.88-33.732,30.997-33.732h230.745c17.12,0,30.994,15.102,30.994,33.732V406.133z"/>
<path fill="#FFF3DF" d="M298.355,215.332c0,17.051-13.912,30.88-31.08,30.88H35.884c-17.165,0-31.084-13.829-31.084-30.88V36.911
	c0-17.059,13.919-30.887,31.084-30.887h231.39c17.168,0,31.08,13.828,31.08,30.887L298.355,215.332L298.355,215.332z"/>
<path fill="#FDF8F2" d="M279.24,168.342c0,5.748-6.607,11.022-14.755,11.022h-98.366c-8.148,0-14.755-5.275-14.755-11.022v-27.753
	c0-5.748,6.606-10.407,14.755-10.407h98.366c8.147,0,14.755,4.66,14.755,10.407V168.342z"/>
<path fill="#FDF8F2" d="M265.715,186.741h-3.689h-94.677H136.61H82.509H38.244c-8.148,0-14.755,3.831-14.755,8.558v0.713v22.108
	v36.371v22.106v0.714c0,4.726,6.607,9.024,14.755,9.024h46.724h51.642h30.739h97.137h1.229c8.148,0,14.755-4.299,14.755-9.024
	v-0.714v-22.106V218.12v-22.108v-0.713C280.47,190.572,273.864,186.741,265.715,186.741z"/>
<text transform="matrix(1 0 0 1 179.2366 148.624)" fill="#123658" font-family="'MyriadPro-Regular'" font-size="12.2957">TAILLE :  </text>
<text transform="matrix(1 0 0 1 223.8333 148.624)" fill="#01517B" font-family="'MyriadPro-Regular'" font-size="12.2957">2 m</text>
<text transform="matrix(1 0 0 1 179.8518 172.6621)" fill="#123658" font-family="'MyriadPro-Regular'" font-size="12.2957">POIDS :  </text>
<text transform="matrix(1 0 0 1 222.4182 172.6621)" fill="#01517B" font-family="'MyriadPro-Regular'" font-size="12.2957">600 k</text>
<path fill="#FDF8F2" d="M279.24,104.249c0,10.538-6.607,19.785-14.755,19.785h-98.366c-8.148,0-14.755-9.247-14.755-19.785v-50.89
	c0-10.54,6.606-19.084,14.755-19.084h98.366c8.147,0,14.755,8.545,14.755,19.084V104.249z"/>
<path fill="#E46CA9" d="M269.404,106.204c0,4.414-3.578,7.992-7.992,7.992h-35.657c-4.414,0-7.992-3.578-7.992-7.992l0,0
	c0-4.414,3.578-7.992,7.992-7.992h35.657C265.825,98.212,269.404,101.791,269.404,106.204L269.404,106.204z"/>
<path fill="#BA7A4E" d="M211.614,106.204c0,4.414-3.578,7.992-7.992,7.992h-35.657c-4.414,0-7.992-3.578-7.992-7.992l0,0
	c0-4.414,3.578-7.992,7.992-7.992h35.657C208.035,98.212,211.614,101.791,211.614,106.204L211.614,106.204z"/>
<text transform="matrix(1 0 0 1 179.1448 109.7651)" fill="#010101" font-family="'MyriadPro-Regular'" font-size="8.7547">Sol</text>
<text transform="matrix(1 0 0 1 237.4036 109.4014)" fill="#010101" font-family="'MyriadPro-Regular'" font-size="8.7547">Fée</text>
<text transform="matrix(1 0 0 1 161.0823 73.0234)" fill="#123658" font-family="'MyriadPro-Regular'" font-size="10.9433">Film :</text>
<text transform="matrix(1 0 0 1 185.2659 73.0234)" fill="#4A2F73" font-family="'MyriadPro-Regular'" font-size="10.9433"> </text>
<text transform="matrix(1 0 0 1 187.5872 73.0234)" fill="#01517B" font-family="'MyriadPro-Regular'" font-size="10.9433">Mon voisin Totoro</text>
<circle fill="#FBD2C4" cx="155.653" cy="155.988" r="1.215"/>
<circle fill="#FBD2C4" cx="160.797" cy="155.989" r="1.214"/>
<circle fill="#FBD2C4" cx="165.939" cy="155.989" r="1.214"/>
<circle fill="#FBD2C4" cx="171.082" cy="155.988" r="1.215"/>
<circle fill="#FBD2C4" cx="176.224" cy="155.988" r="1.215"/>
<circle fill="#FBD2C4" cx="181.366" cy="155.989" r="1.214"/>
<circle fill="#FBD2C4" cx="186.51" cy="155.988" r="1.215"/>
<circle fill="#FBD2C4" cx="191.653" cy="155.988" r="1.215"/>
<circle fill="#FBD2C4" cx="196.456" cy="155.988" r="1.215"/>
<circle fill="#FBD2C4" cx="201.6" cy="155.989" r="1.214"/>
<circle fill="#FBD2C4" cx="206.742" cy="155.989" r="1.214"/>
<circle fill="#FBD2C4" cx="211.885" cy="155.988" r="1.215"/>
<circle fill="#FBD2C4" cx="217.028" cy="155.989" r="1.214"/>
<circle fill="#FBD2C4" cx="222.171" cy="155.989" r="1.214"/>
<circle fill="#FBD2C4" cx="227.314" cy="155.988" r="1.215"/>
<circle fill="#FBD2C4" cx="232.457" cy="155.988" r="1.215"/>
<circle fill="#FBD2C4" cx="237.431" cy="155.989" r="1.214"/>
<circle fill="#FBD2C4" cx="242.573" cy="155.989" r="1.214"/>
<circle fill="#FBD2C4" cx="247.715" cy="155.988" r="1.215"/>
<circle fill="#FBD2C4" cx="253.466" cy="155.989" r="1.214"/>
<circle fill="#FBD2C4" cx="258.609" cy="155.988" r="1.215"/>
<circle fill="#FBD2C4" cx="263.751" cy="155.989" r="1.214"/>
<circle fill="#FBD2C4" cx="268.895" cy="155.989" r="1.214"/>
<circle fill="#FBD2C4" cx="274.037" cy="155.988" r="1.215"/>
<text transform="matrix(1 0 0 1 41.2356 210.2012)" fill="#123658" font-family="'MyriadPro-Regular'" font-size="10.4513">Totoro est un être assez docile. Il peut se réveler</text>
<text transform="matrix(1 0 0 1 41.2356 222.7432)" fill="#123658" font-family="'MyriadPro-Regular'" font-size="10.4513">être un parfait compagnon. Avec lui vous aurez</text>
<text transform="matrix(1 0 0 1 41.2356 235.2842)" fill="#123658" font-family="'MyriadPro-Regular'" font-size="10.4513">de bons contacts pour trouver le chat bus.</text>
<text transform="matrix(1 0 0 1 41.2356 247.8262)" fill="#123658" font-family="'MyriadPro-Regular'" font-size="10.4513">En temps de pluie il sera toujours équipé.</text>
<text transform="matrix(1 0 0 1 41.2356 260.3682)" fill="#123658" font-family="'MyriadPro-Regular'" font-size="10.4513">Et quoi de mieux niveau confort que son petit </text>
<text transform="matrix(1 0 0 1 41.2356 272.9092)" fill="#123658" font-family="'MyriadPro-Regular'" font-size="10.4513">ventre en guise d’oreiller en cas de fatigue ?</text>
<text transform="matrix(1 0 0 1 161.6965 89.2119)" fill="#123658" font-family="'MyriadPro-Regular'" font-size="10.9433">Lieu : </text>
<text transform="matrix(1 0 0 1 187.8401 89.2119)" fill="#01517B" font-family="'MyriadPro-Regular'" font-size="10.9433">Dôme Charlie</text>
<path fill="#FDF4E8" d="M279.24,55.177v-7.361c0-12.91-6.607-23.378-14.755-23.378h-98.366c-8.148,0-14.755,10.468-14.755,23.378
	v7.361H279.24z"/>
<text transform="matrix(1 0 0 1 186.9758 47.5713)" fill="#123658" font-family="'MyriadPro-Regular'" font-size="15.3205">05 Totoro nv3</text>
<g>
	<path fill="#F06362" d="M181.162,40.341c0-5.599-4.537-10.137-10.137-10.137c-5.598,0-10.134,4.538-10.134,10.137
		c0,5.597,4.536,10.135,10.134,10.135C176.625,50.477,181.162,45.938,181.162,40.341z M169.303,40.396
		c0-0.982,0.795-1.779,1.778-1.779s1.778,0.794,1.778,1.779c0,0.983-0.795,1.779-1.778,1.779S169.303,41.377,169.303,40.396z"/>
	<path fill="#EA544D" d="M167.637,40.422c0-1.839,1.498-3.335,3.338-3.335c1.837,0,3.334,1.496,3.334,3.335
		s-1.497,3.336-3.334,3.336C169.135,43.758,167.637,42.262,167.637,40.422z M173.497,40.422c0-1.39-1.133-2.523-2.522-2.523
		c-1.394,0-2.525,1.133-2.525,2.523c0,1.391,1.132,2.523,2.525,2.523C172.365,42.945,173.497,41.813,173.497,40.422z"/>
</g>
<g>
	<circle fill="#0C709C" cx="101.393" cy="160.282" r="2.09"/>
	<circle fill="#0C709C" cx="96.572" cy="161.894" r="2.092"/>
	<circle fill="#0C709C" cx="105.531" cy="157.359" r="2.091"/>
	<circle fill="#0C709C" cx="65.44" cy="159.255" r="2.09"/>
	<circle fill="#0C709C" cx="70.26" cy="160.867" r="2.092"/>
	<circle fill="#0C709C" cx="61.3" cy="156.333" r="2.09"/>
	<ellipse fill="#AFCCEA" cx="84.371" cy="125.241" rx="37.305" ry="38.77"/>
	<circle fill="#AFCCEA" cx="84.376" cy="102.495" r="27.923"/>
	<circle fill="#F5F6F6" cx="72.968" cy="89.132" r="3.496"/>
	<circle fill="#F5F6F6" cx="95.501" cy="89.412" r="3.495"/>
	<circle fill="#04243C" cx="72.82" cy="88.86" r="0.868"/>
	<path fill="#0C709C" d="M88.524,93.005c0,0.979-0.79,1.77-1.768,1.77h-3.78c-0.978,0-1.771-0.791-1.771-1.77l0,0
		c0-0.98,0.795-1.771,1.771-1.771h3.78C87.734,91.232,88.524,92.024,88.524,93.005L88.524,93.005z"/>
	
		<line fill="none" stroke="#0C709C" stroke-width="0.8398" stroke-miterlimit="10" x1="64.661" y1="91.813" x2="47.353" y2="89.645"/>
	
		<line fill="none" stroke="#0C709C" stroke-width="0.8398" stroke-miterlimit="10" x1="64.632" y1="93.781" x2="47.188" y2="93.837"/>
	
		<line fill="none" stroke="#0C709C" stroke-width="0.8398" stroke-miterlimit="10" x1="64.517" y1="95.623" x2="47.167" y2="97.455"/>
	
		<ellipse transform="matrix(-0.0263 0.9997 -0.9997 -0.0263 185.0883 81.9591)" fill="#AFCCEA" cx="52.628" cy="131.122" rx="20.504" ry="7.137"/>
	<g>
		<circle fill="#AFCCEA" cx="72.678" cy="70.016" r="6.858"/>
		<circle fill="#AFCCEA" cx="71.427" cy="60.413" r="4.739"/>
		<path fill="#AFCCEA" d="M66.731,61.046c0,0-1.168,8.125-0.849,9.885c0.323,1.762,13.439-0.511,13.439-0.511
			s0.891,0.384-3.196-10.64"/>
	</g>
	<g>
		<circle fill="#AFCCEA" cx="96.368" cy="69.985" r="6.859"/>
		<circle fill="#AFCCEA" cx="97.414" cy="60.356" r="4.739"/>
		<path fill="#AFCCEA" d="M92.7,59.864c0,0-3.052,7.622-3.152,9.41c-0.103,1.786,13.178,2.668,13.178,2.668
			s0.777,0.582-0.598-11.097"/>
	</g>
	<circle fill="#04243C" cx="95.187" cy="89.418" r="0.869"/>
	<path fill="#AFCCEA" d="M108.761,130.867c0.476,11.314,4.051,20.353,7.99,20.188c3.938-0.166,6.75-9.472,6.276-20.786
		c-0.472-11.311-4.048-20.351-7.986-20.186C111.099,110.247,108.29,119.553,108.761,130.867z"/>
	<circle fill="#D8E7F6" cx="84.795" cy="128.526" r="29.181"/>
	<path fill="#AFCCEA" d="M84.472,110.443c1.36,0,2.466,1.077,2.522,2.427h2.195c-0.465-2.176-2.396-3.805-4.711-3.805
		c-2.311,0-4.243,1.63-4.706,3.805h2.177C82.002,111.521,83.108,110.443,84.472,110.443z"/>
	<path fill="#AFCCEA" d="M72.539,110.52c1.361,0,2.469,1.079,2.525,2.428h2.194c-0.465-2.174-2.394-3.805-4.709-3.805
		c-2.311,0-4.24,1.631-4.707,3.805h2.178C70.071,111.599,71.177,110.52,72.539,110.52z"/>
	<path fill="#AFCCEA" d="M96.199,110.926c1.36,0,2.47,1.077,2.524,2.427h2.194c-0.465-2.176-2.396-3.807-4.707-3.807
		c-2.314,0-4.244,1.631-4.709,3.807h2.178C93.731,112.003,94.837,110.926,96.199,110.926z"/>
	
		<line fill="none" stroke="#0C709C" stroke-width="0.8398" stroke-miterlimit="10" x1="103.061" y1="92.002" x2="120.37" y2="89.832"/>
	
		<line fill="none" stroke="#0C709C" stroke-width="0.8398" stroke-miterlimit="10" x1="103.089" y1="93.966" x2="120.534" y2="94.022"/>
	
		<line fill="none" stroke="#0C709C" stroke-width="0.8398" stroke-miterlimit="10" x1="103.209" y1="95.812" x2="120.555" y2="97.641"/>
	<ellipse fill="#8DC64A" cx="84.577" cy="77.521" rx="8.118" ry="5.135"/>
	<rect x="84.209" y="72.296" fill="#3B8B45" width="0.735" height="5.039"/>
	<path fill="#AFCCEA" d="M65.779,116.991c1.363,0,2.47,1.076,2.522,2.426h2.198c-0.465-2.176-2.397-3.805-4.711-3.805
		c-2.312,0-4.243,1.628-4.707,3.805h2.176C63.31,118.067,64.417,116.991,65.779,116.991z"/>
	<path fill="#AFCCEA" d="M77.817,116.898c1.363,0,2.47,1.076,2.522,2.425h2.195c-0.462-2.174-2.393-3.805-4.708-3.805
		c-2.312,0-4.242,1.631-4.709,3.805h2.178C75.348,117.974,76.455,116.898,77.817,116.898z"/>
	<path fill="#AFCCEA" d="M90.32,117.084c1.363,0,2.469,1.078,2.522,2.427h2.196c-0.465-2.174-2.396-3.806-4.709-3.806
		c-2.312,0-4.242,1.632-4.707,3.806h2.175C87.851,118.162,88.959,117.084,90.32,117.084z"/>
	<path fill="#AFCCEA" d="M103.384,117.084c1.364,0,2.469,1.079,2.525,2.427h2.192c-0.463-2.174-2.393-3.806-4.706-3.806
		c-2.315,0-4.244,1.632-4.709,3.806h2.177C100.915,118.163,102.022,117.084,103.384,117.084z"/>
	<circle fill="#FCDED3" cx="66.943" cy="93.384" r="1.399"/>
	<circle fill="#FCDED3" cx="100.16" cy="93.757" r="1.401"/>
</g>
<g>
	<circle fill="#0C709C" cx="77.797" cy="405.874" r="1.072"/>
	<circle fill="#0C709C" cx="75.354" cy="406.787" r="1.073"/>
	<circle fill="#0C709C" cx="79.866" cy="404.302" r="1.072"/>
	<circle fill="#0C709C" cx="59.345" cy="405.988" r="1.072"/>
	<circle fill="#0C709C" cx="61.843" cy="406.729" r="1.072"/>
	<circle fill="#0C709C" cx="57.17" cy="404.564" r="1.073"/>
	<ellipse fill="#FFFFFF" cx="68.164" cy="390.644" rx="16.862" ry="17.524"/>
	<circle fill="#FFFFFF" cx="68.278" cy="382.919" r="14.326"/>
	<circle fill="#F5F6F6" cx="62.425" cy="376.061" r="1.792"/>
	<circle fill="#F5F6F6" cx="73.984" cy="376.205" r="1.793"/>
	<circle fill="#04243C" cx="62.348" cy="375.921" r="0.445"/>
	<path fill="#0C709C" d="M70.406,378.05c0,0.5-0.405,0.907-0.907,0.907h-1.94c-0.5,0-0.908-0.407-0.908-0.907l0,0
		c0-0.504,0.407-0.91,0.908-0.91h1.94C70.001,377.14,70.406,377.546,70.406,378.05L70.406,378.05z"/>
	<g>
		<circle fill="#FFFFFF" cx="62.592" cy="368.779" r="3.519"/>
		<circle fill="#FFFFFF" cx="61.95" cy="363.852" r="2.432"/>
		<path fill="#FFFFFF" d="M59.54,364.177c0,0-0.598,4.171-0.435,5.072c0.165,0.903,6.895-0.263,6.895-0.263s0.455,0.197-1.641-5.457
			"/>
	</g>
	<g>
		<circle fill="#FFFFFF" cx="74.115" cy="369.079" r="3.518"/>
		<circle fill="#FFFFFF" cx="74.65" cy="364.137" r="2.431"/>
		<path fill="#FFFFFF" d="M72.233,363.884c0,0-1.566,3.914-1.616,4.831c-0.054,0.915,6.76,1.368,6.76,1.368s0.397,0.297-0.306-5.694
			"/>
	</g>
	<circle fill="#04243C" cx="73.824" cy="376.209" r="0.445"/>
	<circle fill="#FCDED3" cx="59.333" cy="378.244" r="0.717"/>
	<circle fill="#FCDED3" cx="76.376" cy="378.435" r="0.718"/>
</g>
<g>
	<circle fill="#0C709C" cx="154.751" cy="407.219" r="1.171"/>
	<circle fill="#0C709C" cx="152.048" cy="408.124" r="1.172"/>
	<circle fill="#0C709C" cx="157.07" cy="405.581" r="1.171"/>
	<circle fill="#0C709C" cx="134.596" cy="406.646" r="1.172"/>
	<circle fill="#0C709C" cx="137.298" cy="407.547" r="1.173"/>
	<circle fill="#0C709C" cx="132.277" cy="405.006" r="1.172"/>
	<ellipse fill="#0C709C" cx="145.208" cy="387.579" rx="20.911" ry="21.731"/>
	<circle fill="#0C709C" cx="145.212" cy="374.828" r="15.652"/>
	<circle fill="#F5F6F6" cx="138.816" cy="367.336" r="1.958"/>
	<circle fill="#F5F6F6" cx="151.447" cy="367.494" r="1.959"/>
	<circle fill="#04243C" cx="138.735" cy="367.184" r="0.488"/>
	<path fill="#123658" d="M147.537,369.509c0,0.547-0.444,0.991-0.992,0.991h-2.121c-0.546,0-0.992-0.442-0.992-0.991l0,0
		c0-0.55,0.445-0.996,0.992-0.996h2.121C147.091,368.513,147.537,368.956,147.537,369.509L147.537,369.509z"/>
	
		<ellipse transform="matrix(-0.0263 0.9997 -0.9997 -0.0263 521.4867 273.7973)" fill="#0C709C" cx="127.405" cy="390.862" rx="11.493" ry="4"/>
	<g>
		<circle fill="#0C709C" cx="138.655" cy="356.622" r="3.845"/>
		<circle fill="#0C709C" cx="137.953" cy="351.238" r="2.655"/>
		<path fill="#0C709C" d="M135.322,351.594c0,0-0.655,4.553-0.478,5.541c0.18,0.987,7.532-0.287,7.532-0.287
			s0.499,0.217-1.792-5.964"/>
	</g>
	<g>
		<circle fill="#0C709C" cx="151.934" cy="356.603" r="3.845"/>
		<circle fill="#0C709C" cx="152.519" cy="351.207" r="2.656"/>
		<path fill="#0C709C" d="M149.878,350.932c0,0-1.713,4.272-1.769,5.273c-0.058,1.001,7.387,1.496,7.387,1.496
			s0.437,0.328-0.334-6.221"/>
	</g>
	<circle fill="#04243C" cx="151.272" cy="367.497" r="0.486"/>
	
		<ellipse transform="matrix(0.042 0.9991 -0.9991 0.042 546.2723 211.4334)" fill="#0C709C" cx="162.885" cy="390.568" rx="11.494" ry="4.001"/>
	<path fill="#FFFFFF" d="M161.804,389.418c0,9.037-7.323,16.361-16.357,16.361s-16.359-7.324-16.359-16.361
		c0-9.032,7.325-16.356,16.359-16.356S161.804,380.386,161.804,389.418z"/>
	<path fill="#808BC4" d="M145.852,376.925c0.763,0,1.383,0.604,1.415,1.36h1.23c-0.262-1.219-1.344-2.133-2.641-2.133
		c-1.295,0-2.378,0.914-2.638,2.133h1.22C144.468,377.528,145.088,376.925,145.852,376.925z"/>
	<path fill="#808BC4" d="M138.576,379.326c0.764,0,1.384,0.604,1.415,1.36h1.23c-0.261-1.218-1.344-2.133-2.641-2.133
		c-1.295,0-2.377,0.915-2.638,2.133h1.22C137.194,379.93,137.813,379.326,138.576,379.326z"/>
	<path fill="#808BC4" d="M151.838,379.553c0.764,0,1.385,0.604,1.416,1.36h1.23c-0.262-1.22-1.345-2.134-2.64-2.134
		c-1.298,0-2.379,0.914-2.638,2.134h1.219C150.454,380.158,151.075,379.553,151.838,379.553z"/>
	<circle fill="#FCDED3" cx="135.44" cy="369.721" r="0.784"/>
	<circle fill="#FCDED3" cx="154.059" cy="369.93" r="0.784"/>
</g>
<g>
	<circle fill="#0C709C" cx="238.381" cy="405.609" r="1.521"/>
	<circle fill="#0C709C" cx="234.872" cy="406.782" r="1.522"/>
	<circle fill="#0C709C" cx="241.393" cy="403.483" r="1.521"/>
	<circle fill="#0C709C" cx="212.215" cy="404.862" r="1.521"/>
	<path fill="#0C709C" d="M217.244,406.056c-0.016,0.845-0.705,1.515-1.543,1.501c-0.844-0.011-1.512-0.702-1.502-1.545
		c0.01-0.837,0.703-1.512,1.544-1.498C216.585,404.524,217.256,405.217,217.244,406.056z"/>
	<circle fill="#0C709C" cx="209.202" cy="402.736" r="1.521"/>
	<ellipse fill="#AFCCEA" cx="225.991" cy="380.107" rx="27.149" ry="28.214"/>
	<circle fill="#AFCCEA" cx="225.996" cy="363.555" r="20.322"/>
	<circle fill="#F5F6F6" cx="217.692" cy="353.831" r="2.543"/>
	<circle fill="#F5F6F6" cx="234.093" cy="354.034" r="2.542"/>
	<circle fill="#04243C" cx="217.585" cy="353.63" r="0.632"/>
	<path fill="#0C709C" d="M229.014,356.648c0,0.713-0.576,1.287-1.287,1.287h-2.751c-0.711,0-1.29-0.574-1.29-1.287l0,0
		c0-0.713,0.579-1.291,1.29-1.291h2.751C228.439,355.357,229.014,355.936,229.014,356.648L229.014,356.648z"/>
	
		<line fill="none" stroke="#0C709C" stroke-width="0.6112" stroke-miterlimit="10" x1="211.649" y1="355.781" x2="199.053" y2="354.201"/>
	
		<line fill="none" stroke="#0C709C" stroke-width="0.6112" stroke-miterlimit="10" x1="211.627" y1="357.213" x2="198.933" y2="357.256"/>
	
		<line fill="none" stroke="#0C709C" stroke-width="0.6112" stroke-miterlimit="10" x1="211.541" y1="358.553" x2="198.917" y2="359.886"/>
	
		<ellipse transform="matrix(-0.0266 0.9996 -0.9996 -0.0266 592.5784 191.799)" fill="#AFCCEA" cx="202.908" cy="384.408" rx="14.921" ry="5.194"/>
	<g>
		<circle fill="#AFCCEA" cx="217.482" cy="339.918" r="4.992"/>
		<circle fill="#AFCCEA" cx="216.573" cy="332.931" r="3.449"/>
		<path fill="#AFCCEA" d="M213.155,333.393c0,0-0.851,5.912-0.619,7.192c0.234,1.282,9.78-0.37,9.78-0.37s0.647,0.278-2.327-7.745"
			/>
	</g>
	<g>
		<circle fill="#AFCCEA" cx="234.723" cy="339.896" r="4.991"/>
		<circle fill="#AFCCEA" cx="235.485" cy="332.888" r="3.449"/>
		<path fill="#AFCCEA" d="M232.054,332.53c0,0-2.223,5.548-2.294,6.849c-0.076,1.297,9.59,1.94,9.59,1.94s0.564,0.423-0.435-8.076"
			/>
	</g>
	<circle fill="#04243C" cx="233.864" cy="354.039" r="0.632"/>
	
		<ellipse transform="matrix(0.0416 0.9991 -0.9991 0.0416 622.2465 119.2901)" fill="#AFCCEA" cx="248.942" cy="384" rx="14.922" ry="5.196"/>
	<circle fill="#D8E7F6" cx="226.3" cy="382.5" r="21.236"/>
	<path fill="#AFCCEA" d="M226.065,369.339c0.99,0,1.797,0.784,1.837,1.767h1.598c-0.339-1.582-1.744-2.769-3.429-2.769
		c-1.682,0-3.088,1.187-3.424,2.769h1.583C224.269,370.123,225.072,369.339,226.065,369.339z"/>
	<path fill="#AFCCEA" d="M217.38,369.395c0.991,0,1.797,0.786,1.838,1.769h1.596c-0.337-1.582-1.743-2.769-3.427-2.769
		c-1.681,0-3.086,1.187-3.425,2.769h1.585C215.584,370.179,216.389,369.395,217.38,369.395z"/>
	<path fill="#AFCCEA" d="M234.599,369.689c0.99,0,1.798,0.787,1.837,1.77h1.596c-0.338-1.585-1.743-2.771-3.425-2.771
		c-1.684,0-3.088,1.187-3.427,2.771h1.585C232.803,370.477,233.61,369.689,234.599,369.689z"/>
	
		<line fill="none" stroke="#0C709C" stroke-width="0.6112" stroke-miterlimit="10" x1="239.594" y1="355.917" x2="252.191" y2="354.341"/>
	
		<line fill="none" stroke="#0C709C" stroke-width="0.6112" stroke-miterlimit="10" x1="239.614" y1="357.349" x2="252.31" y2="357.39"/>
	
		<line fill="none" stroke="#0C709C" stroke-width="0.6112" stroke-miterlimit="10" x1="239.7" y1="358.692" x2="252.324" y2="360.022"/>
	<ellipse fill="#8DC64A" cx="226.142" cy="345.38" rx="5.907" ry="3.737"/>
	<rect x="225.874" y="341.579" fill="#3B8B45" width="0.536" height="3.666"/>
	<path fill="#AFCCEA" d="M212.46,374.104c0.993,0,1.798,0.784,1.837,1.768h1.599c-0.338-1.584-1.745-2.768-3.429-2.768
		c-1.682,0-3.088,1.184-3.424,2.768h1.581C210.664,374.888,211.471,374.104,212.46,374.104z"/>
	<path fill="#AFCCEA" d="M221.221,374.036c0.993,0,1.796,0.783,1.836,1.766h1.598c-0.336-1.581-1.742-2.769-3.428-2.769
		c-1.682,0-3.088,1.188-3.426,2.769h1.584C219.426,374.819,220.232,374.036,221.221,374.036z"/>
	<path fill="#AFCCEA" d="M230.322,374.172c0.991,0,1.798,0.786,1.837,1.767h1.598c-0.339-1.581-1.744-2.769-3.428-2.769
		c-1.682,0-3.088,1.188-3.426,2.769h1.583C228.524,374.956,229.33,374.172,230.322,374.172z"/>
	<path fill="#AFCCEA" d="M239.829,374.172c0.993,0,1.797,0.786,1.834,1.767h1.599c-0.338-1.581-1.743-2.769-3.425-2.769
		c-1.685,0-3.089,1.188-3.427,2.769h1.584C238.031,374.956,238.838,374.172,239.829,374.172z"/>
	<circle fill="#FCDED3" cx="213.308" cy="356.924" r="1.02"/>
	<circle fill="#FCDED3" cx="237.484" cy="357.197" r="1.02"/>
</g>
<path fill="none" stroke="#123658" stroke-width="1.2296" stroke-miterlimit="10" d="M164.508,347.993
	c7.273-10.671,22.097-13.213,33.14-5.687"/>
<polygon fill="#123658" points="198.615,336.538 200.432,344.325 192.645,346.145 "/>
<text transform="matrix(1 0 0 1 35.6917 312.1143)" fill="#123658" font-family="'MyriadPro-Regular'" font-size="10.4513">Evolution :</text>
<path fill="none" stroke="#123658" stroke-width="1.2296" stroke-miterlimit="10" d="M85.816,354.142
	c7.273-10.671,22.096-13.213,33.14-5.688"/>
<polygon fill="#123658" points="119.922,342.687 121.74,350.473 113.95,352.292 "/>
</svg>
