<?xml version="1.0" encoding="utf-8"?>
<!-- Generator: Adobe Illustrator 15.1.0, SVG Export Plug-In . SVG Version: 6.00 Build 0)  -->
<!DOCTYPE svg PUBLIC "-//W3C//DTD SVG 1.1//EN" "http://www.w3.org/Graphics/SVG/1.1/DTD/svg11.dtd">
<svg version="1.1" id="Layer_1" xmlns="http://www.w3.org/2000/svg" xmlns:xlink="http://www.w3.org/1999/xlink" x="0px" y="0px"
	 width="21px" height="29.23px" viewBox="0 0 21 29.23" enable-background="new 0 0 21 29.23" xml:space="preserve">
<path fill="#F4A019" d="M5.031,0.955c0,0,6.554,0.889,6.388,7.775C11.419,8.73,5.198,8.396,5.031,0.955z"/>
<path fill="#F4A019" d="M14.543,18.229l6.514-6.512c-0.059-0.074-0.12-0.145-0.183-0.21c-2.065-2.133-2.933-2.465-5.864-2.399
	c0,0-1.999,0.367-3.064,1.032c-1.066,0.667-2.332-0.232-2.332-0.232S7.381,8.576,4.65,9.375c0,0-5.397,1.6-4.531,9.595
	c0,0,1.266,7.595,5.597,9.593c0,0,1.399,0.601,2.333,0.201c0.931-0.4,3.598-1.833,6.828-0.033c0,0,2.432,0.565,3.765-1.466
	c0,0,1.142-1.374,2.025-2.911L14.543,18.229z"/>
</svg>
